G04*
G04 #@! TF.GenerationSoftware,Altium Limited,Altium Designer,24.9.1 (31)*
G04*
G04 Layer_Color=16711935*
%FSLAX25Y25*%
%MOIN*%
G70*
G04*
G04 #@! TF.SameCoordinates,AE1E5416-9686-4E21-8CD7-455353439681*
G04*
G04*
G04 #@! TF.FilePolarity,Negative*
G04*
G01*
G75*
%ADD42R,0.14580X0.06706*%
%ADD55C,0.07493*%
%ADD56C,0.22453*%
%ADD57O,0.13595X0.06115*%
%ADD58O,0.12020X0.06115*%
%ADD59C,0.03150*%
%ADD60C,0.01575*%
D42*
X7087Y97638D02*
D03*
Y118898D02*
D03*
D55*
X43165Y33956D02*
D03*
X53165D02*
D03*
Y45957D02*
D03*
X43165D02*
D03*
X29921Y141850D02*
D03*
Y151850D02*
D03*
D56*
X15748Y15748D02*
D03*
X200787D02*
D03*
Y200787D02*
D03*
X15748D02*
D03*
D57*
X188386Y91260D02*
D03*
Y125276D02*
D03*
D58*
X204724Y91260D02*
D03*
Y125276D02*
D03*
D59*
X186417Y96555D02*
D03*
Y99902D02*
D03*
Y103248D02*
D03*
Y106595D02*
D03*
Y109941D02*
D03*
Y113287D02*
D03*
Y116634D02*
D03*
Y119980D02*
D03*
X191732D02*
D03*
Y116634D02*
D03*
Y113287D02*
D03*
Y109941D02*
D03*
Y106595D02*
D03*
Y103248D02*
D03*
Y99902D02*
D03*
Y96555D02*
D03*
D60*
X140952Y113175D02*
D03*
Y110600D02*
D03*
X141119Y108031D02*
D03*
X140952Y105462D02*
D03*
X142203Y93372D02*
D03*
X144666Y94122D02*
D03*
X144807Y96693D02*
D03*
Y99268D02*
D03*
X144265Y101785D02*
D03*
Y104360D02*
D03*
X146213Y106043D02*
D03*
X151363D02*
D03*
X153510Y104623D02*
D03*
X154856Y102427D02*
D03*
X157431D02*
D03*
X158427Y114057D02*
D03*
X155852Y114108D02*
D03*
X153544Y112967D02*
D03*
X152833Y110492D02*
D03*
X150258D02*
D03*
X147683D02*
D03*
X145108D02*
D03*
X144265Y112925D02*
D03*
X144599Y115478D02*
D03*
X144807Y118044D02*
D03*
X165276Y113609D02*
D03*
X163100Y114200D02*
D03*
X160600Y114300D02*
D03*
X159613Y111342D02*
D03*
X159709Y108768D02*
D03*
X159613Y106195D02*
D03*
X159636Y103621D02*
D03*
X161918Y102427D02*
D03*
X164492Y102471D02*
D03*
X171687Y103549D02*
D03*
X172324Y106043D02*
D03*
X174899D02*
D03*
X177473D02*
D03*
X180048Y106036D02*
D03*
X182623D02*
D03*
X194384Y107056D02*
D03*
X194414Y109631D02*
D03*
X184011Y111167D02*
D03*
X181528Y110485D02*
D03*
X178953Y110492D02*
D03*
X176379D02*
D03*
X173804D02*
D03*
X171687Y111958D02*
D03*
X900Y104000D02*
D03*
X28359Y146246D02*
D03*
X26268Y144743D02*
D03*
X25289Y142361D02*
D03*
X25718Y139823D02*
D03*
X27424Y137894D02*
D03*
X27729Y135337D02*
D03*
Y132763D02*
D03*
Y130188D02*
D03*
Y127613D02*
D03*
Y125038D02*
D03*
Y122463D02*
D03*
Y119888D02*
D03*
Y117314D02*
D03*
Y114739D02*
D03*
X26778Y112346D02*
D03*
X25581Y110066D02*
D03*
X23006D02*
D03*
X20431D02*
D03*
X17857D02*
D03*
X15289Y110259D02*
D03*
X14053Y112518D02*
D03*
X11478Y112533D02*
D03*
X8903D02*
D03*
X6328D02*
D03*
X3754D02*
D03*
X1179D02*
D03*
X3200Y104000D02*
D03*
X5415Y104002D02*
D03*
X7989D02*
D03*
X10564D02*
D03*
X13139D02*
D03*
X15289Y105419D02*
D03*
X17640Y106469D02*
D03*
X20215D02*
D03*
X22790D02*
D03*
X25365D02*
D03*
X27919Y106143D02*
D03*
X30493Y106109D02*
D03*
X33041Y105735D02*
D03*
X35615D02*
D03*
X38190D02*
D03*
X40658Y106469D02*
D03*
X43233D02*
D03*
X53675Y108578D02*
D03*
X42423Y110066D02*
D03*
X39887Y110507D02*
D03*
X37328Y110801D02*
D03*
X34754D02*
D03*
X32187Y110592D02*
D03*
X32254Y113166D02*
D03*
X31326Y115568D02*
D03*
Y118142D02*
D03*
Y120717D02*
D03*
Y123292D02*
D03*
Y125867D02*
D03*
Y128442D02*
D03*
Y131016D02*
D03*
Y133591D02*
D03*
Y136166D02*
D03*
X32861Y138233D02*
D03*
X34339Y140342D02*
D03*
X34477Y142913D02*
D03*
X33214Y145156D02*
D03*
X30966Y146412D02*
D03*
M02*
