M48
;Layer_Color=9474304
;FILE_FORMAT=2:4
INCH,TZ
;TYPE=PLATED
T01F00S00C0.0118
T02F00S00C0.0177
T03F00S00C0.0280
T05F00S00C0.0433
T06F00S00C0.1339
%
T01
X21299Y2244
Y4606
Y6969
Y9331
Y11693
X20118
X19441Y10963
X19438Y10706
X18262Y10604
X18005
X17747Y10604
X17490
X17232
X17169Y10355
X16449Y10247
X16192Y10243
X15964Y10362
X15961Y10620
X15971Y10877
X15961Y11134
X15843Y11406
X16060Y11430
X16310Y11420
X16528Y11361
X17169Y11196
X17380Y11049
X17638
X17895
X18153Y11049
X18401Y11117
X17756Y11693
X15394
X15354Y11297
X15283Y11049
X15026
X14768
X14511
X14426Y11292
X14460Y11548
X14481Y11804
X14095Y11318
Y11060
X14112Y10803
X14095Y10546
X14426Y10436
Y10179
X14481Y9927
Y9669
X14467Y9412
X14220Y9337
X15394Y9331
X15486Y10243
X15743
X15351Y10462
X15136Y10604
X14621
X15585Y11411
X16575Y9331
X18346Y8150
X19528
X20709
Y10512
X20118Y4606
X20709Y3425
X19528
X18346
X17165
X15984
X16575Y2244
X17756
X18937
X18346Y1063
X17165
X15984
X14803
X13622
X15394Y2244
X13622Y5787
X13031Y6969
X11850
X11260Y8150
X13622
X11260Y10512
X10669Y11693
X11260Y12874
X12441
X10079
X7717
X7126Y11693
X5945
X6535Y10512
X7717
X7126Y9331
X5945
X6535Y8150
X7126Y6969
X7717Y5787
X8898
X10079
X9488Y4606
Y2244
X8307
X7126
X5945
X6535Y3425
X7126Y4606
X5945
X6535Y1063
X7717
X8898
X10079
X9488Y9331
X5367Y10858
X4323Y10647
X4066
X3819Y10573
X3562
X3304
X3049Y10611
X2792Y10614
X2536Y10647
X2279
X2021
X1764
X1529Y10542
X1314Y10400
X1056
X799
X541
X320Y10400
X90
X118Y11253
X375
X633
X890
X1148
X1405Y11252
X1529Y11026
X1786Y11007
X2043
X2301
X2558
X2678Y11235
X2773Y11474
Y11731
Y11989
Y12246
Y12504
Y12761
Y13019
Y13276
X3133Y13359
Y13102
Y12844
Y12587
Y12329
Y12072
Y11814
Y11557
X3225Y11317
X3219Y11059
X3475Y11080
X3733
X3989Y11051
X4242Y11007
X4764Y11693
X3583Y9331
X2402
X2992Y8150
X4173
Y5787
X5354
X2992
X1811
X630
X1220Y6969
X2402
Y4606
X1220
X1811Y3425
X2992
X3583Y2244
X4764
X5354Y1063
X4173
X2992
X630Y3425
Y8150
Y12874
X1811
X2773Y13534
X2742Y13789
X2572Y13982
X2529Y14236
X2627Y14474
X2836Y14625
X3097Y14641
X3321Y14516
X3448Y14291
X3434Y14034
X3286Y13823
X3133Y13617
X4764Y14055
Y16417
X3583
X2402
X1220
X1811Y17598
X2992
X4173
X5354
X4764Y18780
X3583
X2402
X1220
X630Y17598
Y15236
X1811
X1220Y14055
X2992Y19961
X4173
X5354
X6535
X7717
X8898
X10079
X11260
X12441
X13622
X14803
X15984
X17165
X18346
X18937Y18780
X20118
X20709Y17598
X20118Y16417
X18937
X19528Y15236
X20709
X17165
X15984
X16575Y16417
X15394
X14213
X14803Y17598
X15984
X16575Y18780
X17756
X18346Y17598
X15394Y18780
X14213
X13031
X11850
X10669
X9488
X8307
X7126
X5945
X6535Y17598
X7717
X8898
X10079
X11260
X12441
X13622
X11850Y16417
X12441Y15236
X11260
X10079
X10669Y14055
X11850
X14213
X15394
X16575
X9488
X8307
X7126
X5945
X7126Y16417
X21299
Y18780
Y14055
T02
X18642Y9656
Y9990
Y10325
Y10659
Y10994
Y11329
Y11663
Y11998
X19173
Y11663
Y11329
Y10994
Y10659
Y10325
Y9990
Y9656
T03
X9724Y6811
X10669Y10866
X8386Y12490
X14961Y12008
X16975Y12948
X19724Y13970
X19134Y15787
X12992Y15433
X9370Y15000
T05
X4317Y3396
X5317
Y4596
X4317
X2992Y14185
Y15185
T06
X20079Y1575
X1575
Y20079
X20079
M30
