G04*
G04 #@! TF.GenerationSoftware,Altium Limited,Altium Designer,24.9.1 (31)*
G04*
G04 Layer_Color=128*
%FSLAX25Y25*%
%MOIN*%
G70*
G04*
G04 #@! TF.SameCoordinates,AE1E5416-9686-4E21-8CD7-455353439681*
G04*
G04*
G04 #@! TF.FilePolarity,Positive*
G04*
G01*
G75*
%ADD15C,0.00500*%
D15*
X41000Y33956D02*
X45331D01*
X43165Y31790D02*
Y36121D01*
X51000Y33956D02*
X55331D01*
X53165Y31790D02*
Y36121D01*
X9055Y15748D02*
X22441D01*
X15748Y9055D02*
Y22441D01*
X194095Y15748D02*
X207480D01*
X200787Y9055D02*
Y22441D01*
X194095Y200787D02*
X207480D01*
X200787Y194095D02*
Y207480D01*
X9055Y200787D02*
X22441D01*
X15748Y194095D02*
Y207480D01*
X186909Y91260D02*
X189862D01*
X188386Y89784D02*
Y92736D01*
X186909Y125276D02*
X189862D01*
X188386Y123799D02*
Y126752D01*
X203248Y91260D02*
X206201D01*
X204724Y89784D02*
Y92736D01*
X203248Y125276D02*
X206201D01*
X204724Y123799D02*
Y126752D01*
X185531Y96555D02*
X187303D01*
X186417Y95669D02*
Y97441D01*
X185531Y99902D02*
X187303D01*
X186417Y99016D02*
Y100787D01*
X185531Y103248D02*
X187303D01*
X186417Y102362D02*
Y104134D01*
X185531Y106595D02*
X187303D01*
X186417Y105709D02*
Y107480D01*
X185531Y109941D02*
X187303D01*
X186417Y109055D02*
Y110827D01*
X185531Y113287D02*
X187303D01*
X186417Y112402D02*
Y114173D01*
X185531Y116634D02*
X187303D01*
X186417Y115748D02*
Y117520D01*
X185531Y119980D02*
X187303D01*
X186417Y119095D02*
Y120866D01*
X190847Y119980D02*
X192618D01*
X191732Y119095D02*
Y120866D01*
X190847Y116634D02*
X192618D01*
X191732Y115748D02*
Y117520D01*
X190847Y113287D02*
X192618D01*
X191732Y112402D02*
Y114173D01*
X190847Y109941D02*
X192618D01*
X191732Y109055D02*
Y110827D01*
X190847Y106595D02*
X192618D01*
X191732Y105709D02*
Y107480D01*
X190847Y103248D02*
X192618D01*
X191732Y102362D02*
Y104134D01*
X190847Y99902D02*
X192618D01*
X191732Y99016D02*
Y100787D01*
X190847Y96555D02*
X192618D01*
X191732Y95669D02*
Y97441D01*
X51000Y45957D02*
X55331D01*
X53165Y43791D02*
Y48122D01*
X41000Y45957D02*
X45331D01*
X43165Y43791D02*
Y48122D01*
X27756Y141850D02*
X32087D01*
X29921Y139685D02*
Y144016D01*
X27756Y151850D02*
X32087D01*
X29921Y149685D02*
Y154016D01*
X153346Y116929D02*
X154527D01*
X153937Y116339D02*
Y117520D01*
X212402Y187795D02*
X213583D01*
X212992Y187205D02*
Y188386D01*
X206496Y175984D02*
X207677D01*
X207086Y175394D02*
Y176575D01*
X212402Y164173D02*
X213583D01*
X212992Y163583D02*
Y164764D01*
X206496Y152362D02*
X207677D01*
X207086Y151772D02*
Y152953D01*
X212402Y140551D02*
X213583D01*
X212992Y139961D02*
Y141142D01*
X212402Y116929D02*
X213583D01*
X212992Y116339D02*
Y117520D01*
X206496Y105118D02*
X207677D01*
X207086Y104527D02*
Y105709D01*
X212402Y93307D02*
X213583D01*
X212992Y92716D02*
Y93898D01*
X206496Y81496D02*
X207677D01*
X207086Y80905D02*
Y82086D01*
X212402Y69685D02*
X213583D01*
X212992Y69094D02*
Y70275D01*
X212402Y46063D02*
X213583D01*
X212992Y45472D02*
Y46654D01*
X206496Y34252D02*
X207677D01*
X207086Y33661D02*
Y34843D01*
X212402Y22441D02*
X213583D01*
X212992Y21850D02*
Y23031D01*
X200590Y187795D02*
X201772D01*
X201181Y187205D02*
Y188386D01*
X200590Y164173D02*
X201772D01*
X201181Y163583D02*
Y164764D01*
X194685Y152362D02*
X195866D01*
X195275Y151772D02*
Y152953D01*
X200590Y116929D02*
X201772D01*
X201181Y116339D02*
Y117520D01*
X194685Y81496D02*
X195866D01*
X195275Y80905D02*
Y82086D01*
X200590Y46063D02*
X201772D01*
X201181Y45472D02*
Y46654D01*
X194685Y34252D02*
X195866D01*
X195275Y33661D02*
Y34843D01*
X182874Y199606D02*
X184055D01*
X183465Y199016D02*
Y200197D01*
X188779Y187795D02*
X189961D01*
X189370Y187205D02*
Y188386D01*
X182874Y175984D02*
X184055D01*
X183465Y175394D02*
Y176575D01*
X188779Y164173D02*
X189961D01*
X189370Y163583D02*
Y164764D01*
X182874Y81496D02*
X184055D01*
X183465Y80905D02*
Y82086D01*
X182874Y34252D02*
X184055D01*
X183465Y33661D02*
Y34843D01*
X188779Y22441D02*
X189961D01*
X189370Y21850D02*
Y23031D01*
X182874Y10630D02*
X184055D01*
X183465Y10039D02*
Y11220D01*
X171063Y199606D02*
X172244D01*
X171653Y199016D02*
Y200197D01*
X176968Y187795D02*
X178149D01*
X177559Y187205D02*
Y188386D01*
X171063Y152362D02*
X172244D01*
X171653Y151772D02*
Y152953D01*
X176968Y116929D02*
X178149D01*
X177559Y116339D02*
Y117520D01*
X171063Y34252D02*
X172244D01*
X171653Y33661D02*
Y34843D01*
X176968Y22441D02*
X178149D01*
X177559Y21850D02*
Y23031D01*
X171063Y10630D02*
X172244D01*
X171653Y10039D02*
Y11220D01*
X159252Y199606D02*
X160433D01*
X159842Y199016D02*
Y200197D01*
X165157Y187795D02*
X166339D01*
X165748Y187205D02*
Y188386D01*
X159252Y175984D02*
X160433D01*
X159842Y175394D02*
Y176575D01*
X165157Y164173D02*
X166339D01*
X165748Y163583D02*
Y164764D01*
X159252Y152362D02*
X160433D01*
X159842Y151772D02*
Y152953D01*
X165157Y140551D02*
X166339D01*
X165748Y139961D02*
Y141142D01*
X165157Y93307D02*
X166339D01*
X165748Y92716D02*
Y93898D01*
X159252Y34252D02*
X160433D01*
X159842Y33661D02*
Y34843D01*
X165157Y22441D02*
X166339D01*
X165748Y21850D02*
Y23031D01*
X159252Y10630D02*
X160433D01*
X159842Y10039D02*
Y11220D01*
X147441Y199606D02*
X148622D01*
X148031Y199016D02*
Y200197D01*
X153346Y187795D02*
X154527D01*
X153937Y187205D02*
Y188386D01*
X147441Y175984D02*
X148622D01*
X148031Y175394D02*
Y176575D01*
X153346Y164173D02*
X154527D01*
X153937Y163583D02*
Y164764D01*
X153346Y140551D02*
X154527D01*
X153937Y139961D02*
Y141142D01*
X153346Y93307D02*
X154527D01*
X153937Y92716D02*
Y93898D01*
X153346Y22441D02*
X154527D01*
X153937Y21850D02*
Y23031D01*
X147441Y10630D02*
X148622D01*
X148031Y10039D02*
Y11220D01*
X135630Y199606D02*
X136811D01*
X136220Y199016D02*
Y200197D01*
X141535Y187795D02*
X142717D01*
X142126Y187205D02*
Y188386D01*
X135630Y175984D02*
X136811D01*
X136220Y175394D02*
Y176575D01*
X141535Y164173D02*
X142717D01*
X142126Y163583D02*
Y164764D01*
X141535Y140551D02*
X142717D01*
X142126Y139961D02*
Y141142D01*
X135630Y81496D02*
X136811D01*
X136220Y80905D02*
Y82086D01*
X135630Y57874D02*
X136811D01*
X136220Y57283D02*
Y58464D01*
X135630Y10630D02*
X136811D01*
X136220Y10039D02*
Y11220D01*
X123819Y199606D02*
X125000D01*
X124409Y199016D02*
Y200197D01*
X129724Y187795D02*
X130905D01*
X130315Y187205D02*
Y188386D01*
X123819Y175984D02*
X125000D01*
X124409Y175394D02*
Y176575D01*
X123819Y152362D02*
X125000D01*
X124409Y151772D02*
Y152953D01*
X123819Y128740D02*
X125000D01*
X124409Y128149D02*
Y129331D01*
X129724Y69685D02*
X130905D01*
X130315Y69094D02*
Y70275D01*
X112008Y199606D02*
X113189D01*
X112598Y199016D02*
Y200197D01*
X117913Y187795D02*
X119094D01*
X118504Y187205D02*
Y188386D01*
X112008Y175984D02*
X113189D01*
X112598Y175394D02*
Y176575D01*
X117913Y164173D02*
X119094D01*
X118504Y163583D02*
Y164764D01*
X112008Y152362D02*
X113189D01*
X112598Y151772D02*
Y152953D01*
X117913Y140551D02*
X119094D01*
X118504Y139961D02*
Y141142D01*
X112008Y128740D02*
X113189D01*
X112598Y128149D02*
Y129331D01*
X112008Y105118D02*
X113189D01*
X112598Y104527D02*
Y105709D01*
X112008Y81496D02*
X113189D01*
X112598Y80905D02*
Y82086D01*
X117913Y69685D02*
X119094D01*
X118504Y69094D02*
Y70275D01*
X100197Y199606D02*
X101378D01*
X100787Y199016D02*
Y200197D01*
X106102Y187795D02*
X107283D01*
X106693Y187205D02*
Y188386D01*
X100197Y175984D02*
X101378D01*
X100787Y175394D02*
Y176575D01*
X100197Y152362D02*
X101378D01*
X100787Y151772D02*
Y152953D01*
X106102Y140551D02*
X107283D01*
X106693Y139961D02*
Y141142D01*
X100197Y128740D02*
X101378D01*
X100787Y128149D02*
Y129331D01*
X106102Y116929D02*
X107283D01*
X106693Y116339D02*
Y117520D01*
X100197Y57874D02*
X101378D01*
X100787Y57283D02*
Y58464D01*
X100197Y10630D02*
X101378D01*
X100787Y10039D02*
Y11220D01*
X88386Y199606D02*
X89567D01*
X88976Y199016D02*
Y200197D01*
X94291Y187795D02*
X95472D01*
X94882Y187205D02*
Y188386D01*
X88386Y175984D02*
X89567D01*
X88976Y175394D02*
Y176575D01*
X94291Y140551D02*
X95472D01*
X94882Y139961D02*
Y141142D01*
X94291Y93307D02*
X95472D01*
X94882Y92716D02*
Y93898D01*
X88386Y57874D02*
X89567D01*
X88976Y57283D02*
Y58464D01*
X94291Y46063D02*
X95472D01*
X94882Y45472D02*
Y46654D01*
X94291Y22441D02*
X95472D01*
X94882Y21850D02*
Y23031D01*
X88386Y10630D02*
X89567D01*
X88976Y10039D02*
Y11220D01*
X76575Y199606D02*
X77756D01*
X77165Y199016D02*
Y200197D01*
X82480Y187795D02*
X83661D01*
X83071Y187205D02*
Y188386D01*
X76575Y175984D02*
X77756D01*
X77165Y175394D02*
Y176575D01*
X82480Y140551D02*
X83661D01*
X83071Y139961D02*
Y141142D01*
X76575Y128740D02*
X77756D01*
X77165Y128149D02*
Y129331D01*
X76575Y105118D02*
X77756D01*
X77165Y104527D02*
Y105709D01*
X76575Y57874D02*
X77756D01*
X77165Y57283D02*
Y58464D01*
X82480Y22441D02*
X83661D01*
X83071Y21850D02*
Y23031D01*
X76575Y10630D02*
X77756D01*
X77165Y10039D02*
Y11220D01*
X64764Y199606D02*
X65945D01*
X65354Y199016D02*
Y200197D01*
X70669Y187795D02*
X71850D01*
X71260Y187205D02*
Y188386D01*
X64764Y175984D02*
X65945D01*
X65354Y175394D02*
Y176575D01*
X70669Y164173D02*
X71850D01*
X71260Y163583D02*
Y164764D01*
X70669Y140551D02*
X71850D01*
X71260Y139961D02*
Y141142D01*
X70669Y116929D02*
X71850D01*
X71260Y116339D02*
Y117520D01*
X64764Y105118D02*
X65945D01*
X65354Y104527D02*
Y105709D01*
X70669Y93307D02*
X71850D01*
X71260Y92716D02*
Y93898D01*
X64764Y81496D02*
X65945D01*
X65354Y80905D02*
Y82086D01*
X70669Y69685D02*
X71850D01*
X71260Y69094D02*
Y70275D01*
X70669Y46063D02*
X71850D01*
X71260Y45472D02*
Y46654D01*
X64764Y34252D02*
X65945D01*
X65354Y33661D02*
Y34843D01*
X70669Y22441D02*
X71850D01*
X71260Y21850D02*
Y23031D01*
X64764Y10630D02*
X65945D01*
X65354Y10039D02*
Y11220D01*
X52953Y199606D02*
X54134D01*
X53543Y199016D02*
Y200197D01*
X58858Y187795D02*
X60039D01*
X59449Y187205D02*
Y188386D01*
X52953Y175984D02*
X54134D01*
X53543Y175394D02*
Y176575D01*
X58858Y140551D02*
X60039D01*
X59449Y139961D02*
Y141142D01*
X58858Y116929D02*
X60039D01*
X59449Y116339D02*
Y117520D01*
X58858Y93307D02*
X60039D01*
X59449Y92716D02*
Y93898D01*
X52953Y57874D02*
X54134D01*
X53543Y57283D02*
Y58464D01*
X58858Y46063D02*
X60039D01*
X59449Y45472D02*
Y46654D01*
X58858Y22441D02*
X60039D01*
X59449Y21850D02*
Y23031D01*
X52953Y10630D02*
X54134D01*
X53543Y10039D02*
Y11220D01*
X41142Y199606D02*
X42323D01*
X41732Y199016D02*
Y200197D01*
X47047Y187795D02*
X48228D01*
X47638Y187205D02*
Y188386D01*
X41142Y175984D02*
X42323D01*
X41732Y175394D02*
Y176575D01*
X47047Y164173D02*
X48228D01*
X47638Y163583D02*
Y164764D01*
X47047Y140551D02*
X48228D01*
X47638Y139961D02*
Y141142D01*
X47047Y116929D02*
X48228D01*
X47638Y116339D02*
Y117520D01*
X41142Y81496D02*
X42323D01*
X41732Y80905D02*
Y82086D01*
X41142Y57874D02*
X42323D01*
X41732Y57283D02*
Y58464D01*
X47047Y22441D02*
X48228D01*
X47638Y21850D02*
Y23031D01*
X41142Y10630D02*
X42323D01*
X41732Y10039D02*
Y11220D01*
X29331Y199606D02*
X30512D01*
X29921Y199016D02*
Y200197D01*
X35236Y187795D02*
X36417D01*
X35827Y187205D02*
Y188386D01*
X29331Y175984D02*
X30512D01*
X29921Y175394D02*
Y176575D01*
X35236Y164173D02*
X36417D01*
X35827Y163583D02*
Y164764D01*
X35236Y93307D02*
X36417D01*
X35827Y92716D02*
Y93898D01*
X29331Y81496D02*
X30512D01*
X29921Y80905D02*
Y82086D01*
X29331Y57874D02*
X30512D01*
X29921Y57283D02*
Y58464D01*
X29331Y34252D02*
X30512D01*
X29921Y33661D02*
Y34843D01*
X35236Y22441D02*
X36417D01*
X35827Y21850D02*
Y23031D01*
X29331Y10630D02*
X30512D01*
X29921Y10039D02*
Y11220D01*
X23425Y187795D02*
X24606D01*
X24016Y187205D02*
Y188386D01*
X17520Y175984D02*
X18701D01*
X18110Y175394D02*
Y176575D01*
X23425Y164173D02*
X24606D01*
X24016Y163583D02*
Y164764D01*
X17520Y152362D02*
X18701D01*
X18110Y151772D02*
Y152953D01*
X17520Y128740D02*
X18701D01*
X18110Y128149D02*
Y129331D01*
X23425Y93307D02*
X24606D01*
X24016Y92716D02*
Y93898D01*
X23425Y69685D02*
X24606D01*
X24016Y69094D02*
Y70275D01*
X17520Y57874D02*
X18701D01*
X18110Y57283D02*
Y58464D01*
X23425Y46063D02*
X24606D01*
X24016Y45472D02*
Y46654D01*
X17520Y34252D02*
X18701D01*
X18110Y33661D02*
Y34843D01*
X11614Y187795D02*
X12795D01*
X12205Y187205D02*
Y188386D01*
X5709Y175984D02*
X6890D01*
X6299Y175394D02*
Y176575D01*
X11614Y164173D02*
X12795D01*
X12205Y163583D02*
Y164764D01*
X5709Y152362D02*
X6890D01*
X6299Y151772D02*
Y152953D01*
X11614Y140551D02*
X12795D01*
X12205Y139961D02*
Y141142D01*
X5709Y128740D02*
X6890D01*
X6299Y128149D02*
Y129331D01*
X5709Y81496D02*
X6890D01*
X6299Y80905D02*
Y82086D01*
X11614Y69685D02*
X12795D01*
X12205Y69094D02*
Y70275D01*
X5709Y57874D02*
X6890D01*
X6299Y57283D02*
Y58464D01*
X11614Y46063D02*
X12795D01*
X12205Y45472D02*
Y46654D01*
X5709Y34252D02*
X6890D01*
X6299Y33661D02*
Y34843D01*
X140361Y113175D02*
X141542D01*
X140952Y112585D02*
Y113766D01*
X140361Y110600D02*
X141542D01*
X140952Y110010D02*
Y111191D01*
X140528Y108031D02*
X141709D01*
X141119Y107440D02*
Y108622D01*
X140361Y105462D02*
X141542D01*
X140952Y104871D02*
Y106052D01*
X141612Y93372D02*
X142794D01*
X142203Y92782D02*
Y93963D01*
X144076Y94122D02*
X145257D01*
X144666Y93532D02*
Y94713D01*
X144216Y96693D02*
X145397D01*
X144807Y96102D02*
Y97284D01*
X144216Y99268D02*
X145397D01*
X144807Y98677D02*
Y99858D01*
X143674Y101785D02*
X144855D01*
X144265Y101194D02*
Y102375D01*
X143674Y104360D02*
X144855D01*
X144265Y103769D02*
Y104950D01*
X145623Y106043D02*
X146804D01*
X146213Y105453D02*
Y106634D01*
X150772Y106043D02*
X151953D01*
X151363Y105453D02*
Y106634D01*
X152920Y104623D02*
X154101D01*
X153510Y104032D02*
Y105213D01*
X154265Y102427D02*
X155446D01*
X154856Y101837D02*
Y103018D01*
X156840Y102427D02*
X158021D01*
X157431Y101837D02*
Y103018D01*
X157836Y114057D02*
X159017D01*
X158427Y113466D02*
Y114647D01*
X155262Y114108D02*
X156443D01*
X155852Y113517D02*
Y114698D01*
X152954Y112967D02*
X154135D01*
X153544Y112376D02*
Y113557D01*
X152242Y110492D02*
X153424D01*
X152833Y109902D02*
Y111083D01*
X149668Y110492D02*
X150849D01*
X150258Y109902D02*
Y111083D01*
X147093Y110492D02*
X148274D01*
X147683Y109902D02*
Y111083D01*
X144518Y110492D02*
X145699D01*
X145108Y109902D02*
Y111083D01*
X143674Y112925D02*
X144855D01*
X144265Y112334D02*
Y113515D01*
X144008Y115478D02*
X145189D01*
X144599Y114887D02*
Y116068D01*
X144216Y118044D02*
X145397D01*
X144807Y117454D02*
Y118635D01*
X164686Y113609D02*
X165867D01*
X165276Y113019D02*
Y114200D01*
X162509Y114200D02*
X163691D01*
X163100Y113609D02*
Y114791D01*
X160009Y114300D02*
X161191D01*
X160600Y113709D02*
Y114891D01*
X159022Y111342D02*
X160203D01*
X159613Y110751D02*
Y111932D01*
X159118Y108768D02*
X160299D01*
X159709Y108178D02*
Y109359D01*
X159022Y106195D02*
X160203D01*
X159613Y105605D02*
Y106786D01*
X159046Y103621D02*
X160227D01*
X159636Y103030D02*
Y104211D01*
X161327Y102427D02*
X162508D01*
X161918Y101837D02*
Y103018D01*
X163902Y102471D02*
X165083D01*
X164492Y101881D02*
Y103062D01*
X171096Y103549D02*
X172277D01*
X171687Y102958D02*
Y104139D01*
X171733Y106043D02*
X172914D01*
X172324Y105453D02*
Y106634D01*
X174308Y106043D02*
X175489D01*
X174899Y105453D02*
Y106634D01*
X176883Y106043D02*
X178064D01*
X177473Y105453D02*
Y106634D01*
X179458Y106036D02*
X180639D01*
X180048Y105446D02*
Y106627D01*
X182032Y106036D02*
X183213D01*
X182623Y105446D02*
Y106627D01*
X193793Y107056D02*
X194974D01*
X194384Y106465D02*
Y107647D01*
X193823Y109631D02*
X195004D01*
X194414Y109040D02*
Y110221D01*
X183420Y111167D02*
X184601D01*
X184011Y110576D02*
Y111757D01*
X180938Y110485D02*
X182119D01*
X181528Y109894D02*
Y111075D01*
X178363Y110492D02*
X179544D01*
X178953Y109902D02*
Y111083D01*
X175788Y110492D02*
X176969D01*
X176379Y109902D02*
Y111083D01*
X173213Y110492D02*
X174394D01*
X173804Y109902D02*
Y111083D01*
X171096Y111958D02*
X172277D01*
X171687Y111367D02*
Y112548D01*
X310Y104000D02*
X1491D01*
X900Y103409D02*
Y104591D01*
X27768Y146246D02*
X28949D01*
X28359Y145656D02*
Y146837D01*
X25678Y144743D02*
X26859D01*
X26268Y144152D02*
Y145334D01*
X24699Y142361D02*
X25880D01*
X25289Y141771D02*
Y142952D01*
X25128Y139823D02*
X26309D01*
X25718Y139232D02*
Y140413D01*
X26833Y137894D02*
X28015D01*
X27424Y137303D02*
Y138485D01*
X27138Y135337D02*
X28319D01*
X27729Y134747D02*
Y135928D01*
X27138Y132763D02*
X28319D01*
X27729Y132172D02*
Y133353D01*
X27138Y130188D02*
X28319D01*
X27729Y129597D02*
Y130778D01*
X27138Y127613D02*
X28319D01*
X27729Y127022D02*
Y128203D01*
X27138Y125038D02*
X28319D01*
X27729Y124448D02*
Y125629D01*
X27138Y122463D02*
X28319D01*
X27729Y121873D02*
Y123054D01*
X27138Y119888D02*
X28319D01*
X27729Y119298D02*
Y120479D01*
X27138Y117314D02*
X28319D01*
X27729Y116723D02*
Y117904D01*
X27138Y114739D02*
X28319D01*
X27729Y114148D02*
Y115329D01*
X26187Y112346D02*
X27369D01*
X26778Y111756D02*
Y112937D01*
X24990Y110066D02*
X26171D01*
X25581Y109476D02*
Y110657D01*
X22416Y110066D02*
X23597D01*
X23006Y109476D02*
Y110657D01*
X19841Y110066D02*
X21022D01*
X20431Y109476D02*
Y110657D01*
X17266Y110066D02*
X18447D01*
X17857Y109476D02*
Y110657D01*
X14698Y110259D02*
X15879D01*
X15289Y109669D02*
Y110850D01*
X13462Y112518D02*
X14643D01*
X14053Y111927D02*
Y113108D01*
X10887Y112533D02*
X12069D01*
X11478Y111943D02*
Y113124D01*
X8313Y112533D02*
X9494D01*
X8903Y111943D02*
Y113124D01*
X5738Y112533D02*
X6919D01*
X6328Y111943D02*
Y113124D01*
X3163Y112533D02*
X4344D01*
X3754Y111943D02*
Y113124D01*
X588Y112533D02*
X1769D01*
X1179Y111943D02*
Y113124D01*
X2609Y104000D02*
X3791D01*
X3200Y103409D02*
Y104591D01*
X4824Y104002D02*
X6005D01*
X5415Y103412D02*
Y104593D01*
X7399Y104002D02*
X8580D01*
X7989Y103412D02*
Y104593D01*
X9974Y104002D02*
X11155D01*
X10564Y103412D02*
Y104593D01*
X12549Y104002D02*
X13730D01*
X13139Y103412D02*
Y104593D01*
X14698Y105419D02*
X15879D01*
X15289Y104829D02*
Y106010D01*
X17050Y106469D02*
X18231D01*
X17640Y105878D02*
Y107060D01*
X19624Y106469D02*
X20805D01*
X20215Y105878D02*
Y107060D01*
X22199Y106469D02*
X23380D01*
X22790Y105878D02*
Y107060D01*
X24774Y106469D02*
X25955D01*
X25365Y105878D02*
Y107060D01*
X27328Y106143D02*
X28509D01*
X27919Y105552D02*
Y106733D01*
X29903Y106109D02*
X31084D01*
X30493Y105518D02*
Y106699D01*
X32450Y105735D02*
X33631D01*
X33041Y105144D02*
Y106325D01*
X35025Y105735D02*
X36206D01*
X35615Y105144D02*
Y106325D01*
X37600Y105735D02*
X38781D01*
X38190Y105144D02*
Y106325D01*
X40067Y106469D02*
X41249D01*
X40658Y105878D02*
Y107060D01*
X42642Y106469D02*
X43823D01*
X43233Y105878D02*
Y107060D01*
X53084Y108578D02*
X54265D01*
X53675Y107987D02*
Y109169D01*
X41833Y110066D02*
X43014D01*
X42423Y109476D02*
Y110657D01*
X39296Y110507D02*
X40477D01*
X39887Y109917D02*
Y111098D01*
X36738Y110801D02*
X37919D01*
X37328Y110210D02*
Y111391D01*
X34163Y110801D02*
X35344D01*
X34754Y110210D02*
Y111391D01*
X31597Y110592D02*
X32778D01*
X32187Y110001D02*
Y111182D01*
X31664Y113166D02*
X32845D01*
X32254Y112575D02*
Y113756D01*
X30736Y115568D02*
X31917D01*
X31326Y114977D02*
Y116158D01*
X30736Y118142D02*
X31917D01*
X31326Y117552D02*
Y118733D01*
X30736Y120717D02*
X31917D01*
X31326Y120127D02*
Y121308D01*
X30736Y123292D02*
X31917D01*
X31326Y122701D02*
Y123882D01*
X30736Y125867D02*
X31917D01*
X31326Y125276D02*
Y126457D01*
X30736Y128442D02*
X31917D01*
X31326Y127851D02*
Y129032D01*
X30736Y131016D02*
X31917D01*
X31326Y130426D02*
Y131607D01*
X30736Y133591D02*
X31917D01*
X31326Y133001D02*
Y134182D01*
X30736Y136166D02*
X31917D01*
X31326Y135575D02*
Y136757D01*
X32270Y138233D02*
X33452D01*
X32861Y137643D02*
Y138824D01*
X33749Y140342D02*
X34930D01*
X34339Y139751D02*
Y140932D01*
X33887Y142913D02*
X35068D01*
X34477Y142322D02*
Y143503D01*
X32623Y145156D02*
X33805D01*
X33214Y144566D02*
Y145747D01*
X30376Y146412D02*
X31557D01*
X30966Y145822D02*
Y147003D01*
X148206Y120079D02*
X151006D01*
X149606Y118679D02*
Y121479D01*
X105293Y108661D02*
X108093D01*
X106693Y107261D02*
Y110061D01*
X168352Y129484D02*
X171152D01*
X169752Y128084D02*
Y130884D01*
X95844Y68110D02*
X98644D01*
X97244Y66710D02*
Y69510D01*
X128521Y154331D02*
X131321D01*
X129921Y152931D02*
Y155731D01*
X82458Y124902D02*
X85258D01*
X83858Y123502D02*
Y126302D01*
X92301Y150000D02*
X95101D01*
X93701Y148600D02*
Y151400D01*
X195844Y139705D02*
X198644D01*
X197244Y138305D02*
Y141105D01*
X189939Y157874D02*
X192739D01*
X191339Y156474D02*
Y159274D01*
M02*
