G04*
G04 #@! TF.GenerationSoftware,Altium Limited,Altium Designer,24.9.1 (31)*
G04*
G04 Layer_Color=16711935*
%FSLAX25Y25*%
%MOIN*%
G70*
G04*
G04 #@! TF.SameCoordinates,AE1E5416-9686-4E21-8CD7-455353439681*
G04*
G04*
G04 #@! TF.FilePolarity,Positive*
G04*
G01*
G75*
%ADD10C,0.00787*%
%ADD15C,0.00500*%
%ADD16C,0.00394*%
%ADD74C,0.00833*%
D10*
X16929Y108268D02*
G03*
X16929Y108268I-394J0D01*
G01*
X180512Y96555D02*
G03*
X180512Y96555I-394J0D01*
G01*
D15*
X-37284Y95768D02*
X-6299D01*
X-37284D02*
Y120768D01*
X-6299D01*
X197D01*
X-6299Y95768D02*
Y120768D01*
Y95768D02*
X197D01*
Y120768D01*
X30906Y108071D02*
Y112402D01*
X28150Y108071D02*
Y112402D01*
X30906D01*
X28150Y108071D02*
X30906D01*
X182795Y89193D02*
Y127342D01*
Y89193D02*
X191838D01*
X218110Y90669D02*
Y125866D01*
X182795Y127342D02*
X191838D01*
Y89193D02*
Y90669D01*
X216535D02*
X218110D01*
X191838D02*
X216535D01*
X191838Y125866D02*
Y127342D01*
Y125866D02*
X218110D01*
X216535Y90669D02*
Y158465D01*
D16*
X129528Y103937D02*
G03*
X129528Y103937I-1969J0D01*
G01*
X166732Y99016D02*
Y105709D01*
X170276Y99016D02*
Y105709D01*
X166732Y99016D02*
X170276D01*
X166732Y105709D02*
X170276D01*
X166732Y110827D02*
Y117520D01*
X170276Y110827D02*
Y117520D01*
X166732Y110827D02*
X170276D01*
X166732Y117520D02*
X170276D01*
X104921Y74606D02*
X108465D01*
X104921Y67913D02*
X108465D01*
Y74606D01*
X104921Y67913D02*
Y74606D01*
X58858Y156496D02*
X62402D01*
X58858Y149803D02*
X62402D01*
Y156496D01*
X58858Y149803D02*
Y156496D01*
X113009Y72638D02*
Y76181D01*
X119702Y72638D02*
Y76181D01*
X113009D02*
X119702D01*
X113009Y72638D02*
X119702D01*
X65158Y149803D02*
Y156496D01*
X68701Y149803D02*
Y156496D01*
X65158Y149803D02*
X68701D01*
X65158Y156496D02*
X68701D01*
X156201Y103740D02*
Y107283D01*
X162894Y103740D02*
Y107283D01*
X156201D02*
X162894D01*
X156201Y103740D02*
X162894D01*
X156201Y109252D02*
Y112795D01*
X162894Y109252D02*
Y112795D01*
X156201D02*
X162894D01*
X156201Y109252D02*
X162894D01*
X176181Y85335D02*
Y92027D01*
X172638Y85335D02*
Y92027D01*
X176181D01*
X172638Y85335D02*
X176181D01*
X112402Y92716D02*
X119095D01*
X112402Y96260D02*
X119095D01*
Y92716D02*
Y96260D01*
X112402Y92716D02*
Y96260D01*
X112402Y89961D02*
X119095D01*
X112402Y86417D02*
X119095D01*
X112402D02*
Y89961D01*
X119095Y86417D02*
Y89961D01*
X108465Y94291D02*
Y100984D01*
X104921Y94291D02*
Y100984D01*
X108465D01*
X104921Y94291D02*
X108465D01*
X79724Y116339D02*
X86417D01*
X79724Y119882D02*
X86417D01*
Y116339D02*
Y119882D01*
X79724Y116339D02*
Y119882D01*
X33996Y107185D02*
X38130D01*
X33996Y109350D02*
X38130D01*
Y107185D02*
Y109350D01*
X33996Y107185D02*
Y109350D01*
X134055Y129331D02*
Y136024D01*
X137598Y129331D02*
Y136024D01*
X134055Y129331D02*
X137598D01*
X134055Y136024D02*
X137598D01*
X170669Y165945D02*
X177362D01*
X170669Y169488D02*
X177362D01*
Y165945D02*
Y169488D01*
X170669Y165945D02*
Y169488D01*
X156102Y162008D02*
X170669D01*
X156102Y135630D02*
X170669D01*
X156102D02*
Y162008D01*
X170669Y135630D02*
Y162008D01*
X183268Y151476D02*
Y158169D01*
X186811Y151476D02*
Y158169D01*
X183268Y151476D02*
X186811D01*
X183268Y158169D02*
X186811D01*
X184843Y143898D02*
X191535D01*
X184843Y147441D02*
X191535D01*
Y143898D02*
Y147441D01*
X184843Y143898D02*
Y147441D01*
X203346Y132874D02*
Y136417D01*
X196653Y132874D02*
Y136417D01*
Y132874D02*
X203346D01*
X196653Y136417D02*
X203346D01*
X140354Y153740D02*
Y160433D01*
X143898Y153740D02*
Y160433D01*
X140354Y153740D02*
X143898D01*
X140354Y160433D02*
X143898D01*
X84055Y149803D02*
Y156496D01*
X87598Y149803D02*
Y156496D01*
X84055Y149803D02*
X87598D01*
X84055Y156496D02*
X87598D01*
X77756Y149803D02*
Y156496D01*
X81299Y149803D02*
Y156496D01*
X77756Y149803D02*
X81299D01*
X77756Y156496D02*
X81299D01*
X124016Y100394D02*
X143701D01*
X124016Y116142D02*
X143701D01*
X124016Y100394D02*
Y116142D01*
X143701Y100394D02*
Y116142D01*
X177362Y178543D02*
Y182087D01*
X170669Y178543D02*
Y182087D01*
Y178543D02*
X177362D01*
X170669Y182087D02*
X177362D01*
Y172244D02*
Y175787D01*
X170669Y172244D02*
Y175787D01*
Y172244D02*
X177362D01*
X170669Y175787D02*
X177362D01*
D74*
X215551Y129921D02*
X211553D01*
Y131921D01*
X212219Y132587D01*
X213552D01*
X214218Y131921D01*
Y129921D01*
X212219Y136586D02*
X211553Y135919D01*
Y134586D01*
X212219Y133920D01*
X214885D01*
X215551Y134586D01*
Y135919D01*
X214885Y136586D01*
X211553Y137919D02*
X215551D01*
Y139918D01*
X214885Y140585D01*
X214218D01*
X213552Y139918D01*
Y137919D01*
Y139918D01*
X212885Y140585D01*
X212219D01*
X211553Y139918D01*
Y137919D01*
Y148582D02*
Y145916D01*
X215551D01*
Y148582D01*
X213552Y145916D02*
Y147249D01*
X211553Y149915D02*
X215551D01*
Y151914D01*
X214885Y152581D01*
X212219D01*
X211553Y151914D01*
Y149915D01*
X212219Y156579D02*
X211553Y155913D01*
Y154580D01*
X212219Y153913D01*
X214885D01*
X215551Y154580D01*
Y155913D01*
X214885Y156579D01*
X213552D01*
Y155246D01*
X211553Y160578D02*
Y157912D01*
X215551D01*
Y160578D01*
X213552Y157912D02*
Y159245D01*
M02*
