G04*
G04 #@! TF.GenerationSoftware,Altium Limited,Altium Designer,24.9.1 (31)*
G04*
G04 Layer_Color=255*
%FSLAX25Y25*%
%MOIN*%
G70*
G04*
G04 #@! TF.SameCoordinates,AE1E5416-9686-4E21-8CD7-455353439681*
G04*
G04*
G04 #@! TF.FilePolarity,Positive*
G04*
G01*
G75*
%ADD23R,0.13780X0.05906*%
%ADD66C,0.06693*%
%ADD67C,0.21654*%
%ADD68O,0.12795X0.05315*%
%ADD69O,0.11221X0.05315*%
%ADD70C,0.02756*%
D23*
X7087Y97638D02*
D03*
Y118898D02*
D03*
D66*
X43165Y33956D02*
D03*
X53165D02*
D03*
Y45957D02*
D03*
X43165D02*
D03*
X29921Y141850D02*
D03*
Y151850D02*
D03*
D67*
X15748Y15748D02*
D03*
X200787D02*
D03*
Y200787D02*
D03*
X15748D02*
D03*
D68*
X188386Y91260D02*
D03*
Y125276D02*
D03*
D69*
X204724Y91260D02*
D03*
Y125276D02*
D03*
D70*
X186417Y96555D02*
D03*
Y99902D02*
D03*
Y103248D02*
D03*
Y106595D02*
D03*
Y109941D02*
D03*
Y113287D02*
D03*
Y116634D02*
D03*
Y119980D02*
D03*
X191732D02*
D03*
Y116634D02*
D03*
Y113287D02*
D03*
Y109941D02*
D03*
Y106595D02*
D03*
Y103248D02*
D03*
Y99902D02*
D03*
Y96555D02*
D03*
M02*
