G04*
G04 #@! TF.GenerationSoftware,Altium Limited,Altium Designer,24.9.1 (31)*
G04*
G04 Layer_Color=2752767*
%FSLAX25Y25*%
%MOIN*%
G70*
G04*
G04 #@! TF.SameCoordinates,AE1E5416-9686-4E21-8CD7-455353439681*
G04*
G04*
G04 #@! TF.FilePolarity,Positive*
G04*
G01*
G75*
%ADD15C,0.00500*%
%ADD75C,0.00667*%
D15*
X43165Y31956D02*
X44165Y32956D01*
X45165D01*
X44165Y33956D01*
X45165Y34956D01*
X44165D01*
X43165Y35956D01*
X42165Y34956D01*
X41165D01*
X42165Y33956D01*
X41165Y32956D01*
X42165D01*
X43165Y31956D01*
X53165D02*
X54165Y32956D01*
X55165D01*
X54165Y33956D01*
X55165Y34956D01*
X54165D01*
X53165Y35956D01*
X52165Y34956D01*
X51165D01*
X52165Y33956D01*
X51165Y32956D01*
X52165D01*
X53165Y31956D01*
X13748Y13748D02*
Y17748D01*
X17748D01*
Y13748D01*
X13748D01*
X14548Y14548D02*
Y16948D01*
X16948D01*
Y14548D01*
X14548D01*
X198787Y13748D02*
Y17748D01*
X202787D01*
Y13748D01*
X198787D01*
X199587Y14548D02*
Y16948D01*
X201987D01*
Y14548D01*
X199587D01*
X198787Y198787D02*
Y202787D01*
X202787D01*
Y198787D01*
X198787D01*
X199587Y199587D02*
Y201987D01*
X201987D01*
Y199587D01*
X199587D01*
X13748Y198787D02*
Y202787D01*
X17748D01*
Y198787D01*
X13748D01*
X14548Y199587D02*
Y201987D01*
X16948D01*
Y199587D01*
X14548D01*
X186386Y89260D02*
Y93260D01*
X190386D01*
Y89260D01*
X186386D01*
Y123276D02*
Y127276D01*
X190386D01*
Y123276D01*
X186386D01*
X186417Y94555D02*
X184417Y98555D01*
X188417D01*
X186417Y94555D01*
Y97902D02*
X184417Y101902D01*
X188417D01*
X186417Y97902D01*
Y101248D02*
X184417Y105248D01*
X188417D01*
X186417Y101248D01*
Y104595D02*
X184417Y108595D01*
X188417D01*
X186417Y104595D01*
Y107941D02*
X184417Y111941D01*
X188417D01*
X186417Y107941D01*
Y111287D02*
X184417Y115287D01*
X188417D01*
X186417Y111287D01*
Y114634D02*
X184417Y118634D01*
X188417D01*
X186417Y114634D01*
Y117980D02*
X184417Y121980D01*
X188417D01*
X186417Y117980D01*
X191732D02*
X189732Y121980D01*
X193732D01*
X191732Y117980D01*
Y114634D02*
X189732Y118634D01*
X193732D01*
X191732Y114634D01*
Y111287D02*
X189732Y115287D01*
X193732D01*
X191732Y111287D01*
Y107941D02*
X189732Y111941D01*
X193732D01*
X191732Y107941D01*
Y104595D02*
X189732Y108595D01*
X193732D01*
X191732Y104595D01*
Y101248D02*
X189732Y105248D01*
X193732D01*
X191732Y101248D01*
Y97902D02*
X189732Y101902D01*
X193732D01*
X191732Y97902D01*
Y94555D02*
X189732Y98555D01*
X193732D01*
X191732Y94555D01*
X53165Y43957D02*
X54165Y44957D01*
X55165D01*
X54165Y45957D01*
X55165Y46957D01*
X54165D01*
X53165Y47957D01*
X52165Y46957D01*
X51165D01*
X52165Y45957D01*
X51165Y44957D01*
X52165D01*
X53165Y43957D01*
X43165D02*
X44165Y44957D01*
X45165D01*
X44165Y45957D01*
X45165Y46957D01*
X44165D01*
X43165Y47957D01*
X42165Y46957D01*
X41165D01*
X42165Y45957D01*
X41165Y44957D01*
X42165D01*
X43165Y43957D01*
X29921Y139850D02*
X30921Y140850D01*
X31921D01*
X30921Y141850D01*
X31921Y142850D01*
X30921D01*
X29921Y143850D01*
X28921Y142850D01*
X27921D01*
X28921Y141850D01*
X27921Y140850D01*
X28921D01*
X29921Y139850D01*
Y149850D02*
X30921Y150850D01*
X31921D01*
X30921Y151850D01*
X31921Y152850D01*
X30921D01*
X29921Y153850D01*
X28921Y152850D01*
X27921D01*
X28921Y151850D01*
X27921Y150850D01*
X28921D01*
X29921Y149850D01*
X151937Y114929D02*
X152937D01*
X153937Y115929D01*
X154937Y114929D01*
X155937D01*
Y115929D01*
X154937Y116929D01*
X155937Y117929D01*
Y118929D01*
X154937D01*
X153937Y117929D01*
X152937Y118929D01*
X151937D01*
Y117929D01*
X152937Y116929D01*
X151937Y115929D01*
Y114929D01*
X210992Y185795D02*
X211992D01*
X212992Y186795D01*
X213992Y185795D01*
X214992D01*
Y186795D01*
X213992Y187795D01*
X214992Y188795D01*
Y189795D01*
X213992D01*
X212992Y188795D01*
X211992Y189795D01*
X210992D01*
Y188795D01*
X211992Y187795D01*
X210992Y186795D01*
Y185795D01*
X205086Y173984D02*
X206086D01*
X207086Y174984D01*
X208086Y173984D01*
X209086D01*
Y174984D01*
X208086Y175984D01*
X209086Y176984D01*
Y177984D01*
X208086D01*
X207086Y176984D01*
X206086Y177984D01*
X205086D01*
Y176984D01*
X206086Y175984D01*
X205086Y174984D01*
Y173984D01*
X210992Y162173D02*
X211992D01*
X212992Y163173D01*
X213992Y162173D01*
X214992D01*
Y163173D01*
X213992Y164173D01*
X214992Y165173D01*
Y166173D01*
X213992D01*
X212992Y165173D01*
X211992Y166173D01*
X210992D01*
Y165173D01*
X211992Y164173D01*
X210992Y163173D01*
Y162173D01*
X205086Y150362D02*
X206086D01*
X207086Y151362D01*
X208086Y150362D01*
X209086D01*
Y151362D01*
X208086Y152362D01*
X209086Y153362D01*
Y154362D01*
X208086D01*
X207086Y153362D01*
X206086Y154362D01*
X205086D01*
Y153362D01*
X206086Y152362D01*
X205086Y151362D01*
Y150362D01*
X210992Y138551D02*
X211992D01*
X212992Y139551D01*
X213992Y138551D01*
X214992D01*
Y139551D01*
X213992Y140551D01*
X214992Y141551D01*
Y142551D01*
X213992D01*
X212992Y141551D01*
X211992Y142551D01*
X210992D01*
Y141551D01*
X211992Y140551D01*
X210992Y139551D01*
Y138551D01*
Y114929D02*
X211992D01*
X212992Y115929D01*
X213992Y114929D01*
X214992D01*
Y115929D01*
X213992Y116929D01*
X214992Y117929D01*
Y118929D01*
X213992D01*
X212992Y117929D01*
X211992Y118929D01*
X210992D01*
Y117929D01*
X211992Y116929D01*
X210992Y115929D01*
Y114929D01*
X205086Y103118D02*
X206086D01*
X207086Y104118D01*
X208086Y103118D01*
X209086D01*
Y104118D01*
X208086Y105118D01*
X209086Y106118D01*
Y107118D01*
X208086D01*
X207086Y106118D01*
X206086Y107118D01*
X205086D01*
Y106118D01*
X206086Y105118D01*
X205086Y104118D01*
Y103118D01*
X210992Y91307D02*
X211992D01*
X212992Y92307D01*
X213992Y91307D01*
X214992D01*
Y92307D01*
X213992Y93307D01*
X214992Y94307D01*
Y95307D01*
X213992D01*
X212992Y94307D01*
X211992Y95307D01*
X210992D01*
Y94307D01*
X211992Y93307D01*
X210992Y92307D01*
Y91307D01*
X205086Y79496D02*
X206086D01*
X207086Y80496D01*
X208086Y79496D01*
X209086D01*
Y80496D01*
X208086Y81496D01*
X209086Y82496D01*
Y83496D01*
X208086D01*
X207086Y82496D01*
X206086Y83496D01*
X205086D01*
Y82496D01*
X206086Y81496D01*
X205086Y80496D01*
Y79496D01*
X210992Y67685D02*
X211992D01*
X212992Y68685D01*
X213992Y67685D01*
X214992D01*
Y68685D01*
X213992Y69685D01*
X214992Y70685D01*
Y71685D01*
X213992D01*
X212992Y70685D01*
X211992Y71685D01*
X210992D01*
Y70685D01*
X211992Y69685D01*
X210992Y68685D01*
Y67685D01*
Y44063D02*
X211992D01*
X212992Y45063D01*
X213992Y44063D01*
X214992D01*
Y45063D01*
X213992Y46063D01*
X214992Y47063D01*
Y48063D01*
X213992D01*
X212992Y47063D01*
X211992Y48063D01*
X210992D01*
Y47063D01*
X211992Y46063D01*
X210992Y45063D01*
Y44063D01*
X205086Y32252D02*
X206086D01*
X207086Y33252D01*
X208086Y32252D01*
X209086D01*
Y33252D01*
X208086Y34252D01*
X209086Y35252D01*
Y36252D01*
X208086D01*
X207086Y35252D01*
X206086Y36252D01*
X205086D01*
Y35252D01*
X206086Y34252D01*
X205086Y33252D01*
Y32252D01*
X210992Y20441D02*
X211992D01*
X212992Y21441D01*
X213992Y20441D01*
X214992D01*
Y21441D01*
X213992Y22441D01*
X214992Y23441D01*
Y24441D01*
X213992D01*
X212992Y23441D01*
X211992Y24441D01*
X210992D01*
Y23441D01*
X211992Y22441D01*
X210992Y21441D01*
Y20441D01*
X199181Y185795D02*
X200181D01*
X201181Y186795D01*
X202181Y185795D01*
X203181D01*
Y186795D01*
X202181Y187795D01*
X203181Y188795D01*
Y189795D01*
X202181D01*
X201181Y188795D01*
X200181Y189795D01*
X199181D01*
Y188795D01*
X200181Y187795D01*
X199181Y186795D01*
Y185795D01*
Y162173D02*
X200181D01*
X201181Y163173D01*
X202181Y162173D01*
X203181D01*
Y163173D01*
X202181Y164173D01*
X203181Y165173D01*
Y166173D01*
X202181D01*
X201181Y165173D01*
X200181Y166173D01*
X199181D01*
Y165173D01*
X200181Y164173D01*
X199181Y163173D01*
Y162173D01*
X193275Y150362D02*
X194275D01*
X195275Y151362D01*
X196275Y150362D01*
X197275D01*
Y151362D01*
X196275Y152362D01*
X197275Y153362D01*
Y154362D01*
X196275D01*
X195275Y153362D01*
X194275Y154362D01*
X193275D01*
Y153362D01*
X194275Y152362D01*
X193275Y151362D01*
Y150362D01*
X199181Y114929D02*
X200181D01*
X201181Y115929D01*
X202181Y114929D01*
X203181D01*
Y115929D01*
X202181Y116929D01*
X203181Y117929D01*
Y118929D01*
X202181D01*
X201181Y117929D01*
X200181Y118929D01*
X199181D01*
Y117929D01*
X200181Y116929D01*
X199181Y115929D01*
Y114929D01*
X193275Y79496D02*
X194275D01*
X195275Y80496D01*
X196275Y79496D01*
X197275D01*
Y80496D01*
X196275Y81496D01*
X197275Y82496D01*
Y83496D01*
X196275D01*
X195275Y82496D01*
X194275Y83496D01*
X193275D01*
Y82496D01*
X194275Y81496D01*
X193275Y80496D01*
Y79496D01*
X199181Y44063D02*
X200181D01*
X201181Y45063D01*
X202181Y44063D01*
X203181D01*
Y45063D01*
X202181Y46063D01*
X203181Y47063D01*
Y48063D01*
X202181D01*
X201181Y47063D01*
X200181Y48063D01*
X199181D01*
Y47063D01*
X200181Y46063D01*
X199181Y45063D01*
Y44063D01*
X193275Y32252D02*
X194275D01*
X195275Y33252D01*
X196275Y32252D01*
X197275D01*
Y33252D01*
X196275Y34252D01*
X197275Y35252D01*
Y36252D01*
X196275D01*
X195275Y35252D01*
X194275Y36252D01*
X193275D01*
Y35252D01*
X194275Y34252D01*
X193275Y33252D01*
Y32252D01*
X181465Y197606D02*
X182465D01*
X183465Y198606D01*
X184465Y197606D01*
X185465D01*
Y198606D01*
X184465Y199606D01*
X185465Y200606D01*
Y201606D01*
X184465D01*
X183465Y200606D01*
X182465Y201606D01*
X181465D01*
Y200606D01*
X182465Y199606D01*
X181465Y198606D01*
Y197606D01*
X187370Y185795D02*
X188370D01*
X189370Y186795D01*
X190370Y185795D01*
X191370D01*
Y186795D01*
X190370Y187795D01*
X191370Y188795D01*
Y189795D01*
X190370D01*
X189370Y188795D01*
X188370Y189795D01*
X187370D01*
Y188795D01*
X188370Y187795D01*
X187370Y186795D01*
Y185795D01*
X181465Y173984D02*
X182465D01*
X183465Y174984D01*
X184465Y173984D01*
X185465D01*
Y174984D01*
X184465Y175984D01*
X185465Y176984D01*
Y177984D01*
X184465D01*
X183465Y176984D01*
X182465Y177984D01*
X181465D01*
Y176984D01*
X182465Y175984D01*
X181465Y174984D01*
Y173984D01*
X187370Y162173D02*
X188370D01*
X189370Y163173D01*
X190370Y162173D01*
X191370D01*
Y163173D01*
X190370Y164173D01*
X191370Y165173D01*
Y166173D01*
X190370D01*
X189370Y165173D01*
X188370Y166173D01*
X187370D01*
Y165173D01*
X188370Y164173D01*
X187370Y163173D01*
Y162173D01*
X181465Y79496D02*
X182465D01*
X183465Y80496D01*
X184465Y79496D01*
X185465D01*
Y80496D01*
X184465Y81496D01*
X185465Y82496D01*
Y83496D01*
X184465D01*
X183465Y82496D01*
X182465Y83496D01*
X181465D01*
Y82496D01*
X182465Y81496D01*
X181465Y80496D01*
Y79496D01*
Y32252D02*
X182465D01*
X183465Y33252D01*
X184465Y32252D01*
X185465D01*
Y33252D01*
X184465Y34252D01*
X185465Y35252D01*
Y36252D01*
X184465D01*
X183465Y35252D01*
X182465Y36252D01*
X181465D01*
Y35252D01*
X182465Y34252D01*
X181465Y33252D01*
Y32252D01*
X187370Y20441D02*
X188370D01*
X189370Y21441D01*
X190370Y20441D01*
X191370D01*
Y21441D01*
X190370Y22441D01*
X191370Y23441D01*
Y24441D01*
X190370D01*
X189370Y23441D01*
X188370Y24441D01*
X187370D01*
Y23441D01*
X188370Y22441D01*
X187370Y21441D01*
Y20441D01*
X181465Y8630D02*
X182465D01*
X183465Y9630D01*
X184465Y8630D01*
X185465D01*
Y9630D01*
X184465Y10630D01*
X185465Y11630D01*
Y12630D01*
X184465D01*
X183465Y11630D01*
X182465Y12630D01*
X181465D01*
Y11630D01*
X182465Y10630D01*
X181465Y9630D01*
Y8630D01*
X169653Y197606D02*
X170653D01*
X171653Y198606D01*
X172653Y197606D01*
X173653D01*
Y198606D01*
X172653Y199606D01*
X173653Y200606D01*
Y201606D01*
X172653D01*
X171653Y200606D01*
X170653Y201606D01*
X169653D01*
Y200606D01*
X170653Y199606D01*
X169653Y198606D01*
Y197606D01*
X175559Y185795D02*
X176559D01*
X177559Y186795D01*
X178559Y185795D01*
X179559D01*
Y186795D01*
X178559Y187795D01*
X179559Y188795D01*
Y189795D01*
X178559D01*
X177559Y188795D01*
X176559Y189795D01*
X175559D01*
Y188795D01*
X176559Y187795D01*
X175559Y186795D01*
Y185795D01*
X169653Y150362D02*
X170653D01*
X171653Y151362D01*
X172653Y150362D01*
X173653D01*
Y151362D01*
X172653Y152362D01*
X173653Y153362D01*
Y154362D01*
X172653D01*
X171653Y153362D01*
X170653Y154362D01*
X169653D01*
Y153362D01*
X170653Y152362D01*
X169653Y151362D01*
Y150362D01*
X175559Y114929D02*
X176559D01*
X177559Y115929D01*
X178559Y114929D01*
X179559D01*
Y115929D01*
X178559Y116929D01*
X179559Y117929D01*
Y118929D01*
X178559D01*
X177559Y117929D01*
X176559Y118929D01*
X175559D01*
Y117929D01*
X176559Y116929D01*
X175559Y115929D01*
Y114929D01*
X169653Y32252D02*
X170653D01*
X171653Y33252D01*
X172653Y32252D01*
X173653D01*
Y33252D01*
X172653Y34252D01*
X173653Y35252D01*
Y36252D01*
X172653D01*
X171653Y35252D01*
X170653Y36252D01*
X169653D01*
Y35252D01*
X170653Y34252D01*
X169653Y33252D01*
Y32252D01*
X175559Y20441D02*
X176559D01*
X177559Y21441D01*
X178559Y20441D01*
X179559D01*
Y21441D01*
X178559Y22441D01*
X179559Y23441D01*
Y24441D01*
X178559D01*
X177559Y23441D01*
X176559Y24441D01*
X175559D01*
Y23441D01*
X176559Y22441D01*
X175559Y21441D01*
Y20441D01*
X169653Y8630D02*
X170653D01*
X171653Y9630D01*
X172653Y8630D01*
X173653D01*
Y9630D01*
X172653Y10630D01*
X173653Y11630D01*
Y12630D01*
X172653D01*
X171653Y11630D01*
X170653Y12630D01*
X169653D01*
Y11630D01*
X170653Y10630D01*
X169653Y9630D01*
Y8630D01*
X157842Y197606D02*
X158842D01*
X159842Y198606D01*
X160842Y197606D01*
X161842D01*
Y198606D01*
X160842Y199606D01*
X161842Y200606D01*
Y201606D01*
X160842D01*
X159842Y200606D01*
X158842Y201606D01*
X157842D01*
Y200606D01*
X158842Y199606D01*
X157842Y198606D01*
Y197606D01*
X163748Y185795D02*
X164748D01*
X165748Y186795D01*
X166748Y185795D01*
X167748D01*
Y186795D01*
X166748Y187795D01*
X167748Y188795D01*
Y189795D01*
X166748D01*
X165748Y188795D01*
X164748Y189795D01*
X163748D01*
Y188795D01*
X164748Y187795D01*
X163748Y186795D01*
Y185795D01*
X157842Y173984D02*
X158842D01*
X159842Y174984D01*
X160842Y173984D01*
X161842D01*
Y174984D01*
X160842Y175984D01*
X161842Y176984D01*
Y177984D01*
X160842D01*
X159842Y176984D01*
X158842Y177984D01*
X157842D01*
Y176984D01*
X158842Y175984D01*
X157842Y174984D01*
Y173984D01*
X163748Y162173D02*
X164748D01*
X165748Y163173D01*
X166748Y162173D01*
X167748D01*
Y163173D01*
X166748Y164173D01*
X167748Y165173D01*
Y166173D01*
X166748D01*
X165748Y165173D01*
X164748Y166173D01*
X163748D01*
Y165173D01*
X164748Y164173D01*
X163748Y163173D01*
Y162173D01*
X157842Y150362D02*
X158842D01*
X159842Y151362D01*
X160842Y150362D01*
X161842D01*
Y151362D01*
X160842Y152362D01*
X161842Y153362D01*
Y154362D01*
X160842D01*
X159842Y153362D01*
X158842Y154362D01*
X157842D01*
Y153362D01*
X158842Y152362D01*
X157842Y151362D01*
Y150362D01*
X163748Y138551D02*
X164748D01*
X165748Y139551D01*
X166748Y138551D01*
X167748D01*
Y139551D01*
X166748Y140551D01*
X167748Y141551D01*
Y142551D01*
X166748D01*
X165748Y141551D01*
X164748Y142551D01*
X163748D01*
Y141551D01*
X164748Y140551D01*
X163748Y139551D01*
Y138551D01*
Y91307D02*
X164748D01*
X165748Y92307D01*
X166748Y91307D01*
X167748D01*
Y92307D01*
X166748Y93307D01*
X167748Y94307D01*
Y95307D01*
X166748D01*
X165748Y94307D01*
X164748Y95307D01*
X163748D01*
Y94307D01*
X164748Y93307D01*
X163748Y92307D01*
Y91307D01*
X157842Y32252D02*
X158842D01*
X159842Y33252D01*
X160842Y32252D01*
X161842D01*
Y33252D01*
X160842Y34252D01*
X161842Y35252D01*
Y36252D01*
X160842D01*
X159842Y35252D01*
X158842Y36252D01*
X157842D01*
Y35252D01*
X158842Y34252D01*
X157842Y33252D01*
Y32252D01*
X163748Y20441D02*
X164748D01*
X165748Y21441D01*
X166748Y20441D01*
X167748D01*
Y21441D01*
X166748Y22441D01*
X167748Y23441D01*
Y24441D01*
X166748D01*
X165748Y23441D01*
X164748Y24441D01*
X163748D01*
Y23441D01*
X164748Y22441D01*
X163748Y21441D01*
Y20441D01*
X157842Y8630D02*
X158842D01*
X159842Y9630D01*
X160842Y8630D01*
X161842D01*
Y9630D01*
X160842Y10630D01*
X161842Y11630D01*
Y12630D01*
X160842D01*
X159842Y11630D01*
X158842Y12630D01*
X157842D01*
Y11630D01*
X158842Y10630D01*
X157842Y9630D01*
Y8630D01*
X146031Y197606D02*
X147031D01*
X148031Y198606D01*
X149031Y197606D01*
X150031D01*
Y198606D01*
X149031Y199606D01*
X150031Y200606D01*
Y201606D01*
X149031D01*
X148031Y200606D01*
X147031Y201606D01*
X146031D01*
Y200606D01*
X147031Y199606D01*
X146031Y198606D01*
Y197606D01*
X151937Y185795D02*
X152937D01*
X153937Y186795D01*
X154937Y185795D01*
X155937D01*
Y186795D01*
X154937Y187795D01*
X155937Y188795D01*
Y189795D01*
X154937D01*
X153937Y188795D01*
X152937Y189795D01*
X151937D01*
Y188795D01*
X152937Y187795D01*
X151937Y186795D01*
Y185795D01*
X146031Y173984D02*
X147031D01*
X148031Y174984D01*
X149031Y173984D01*
X150031D01*
Y174984D01*
X149031Y175984D01*
X150031Y176984D01*
Y177984D01*
X149031D01*
X148031Y176984D01*
X147031Y177984D01*
X146031D01*
Y176984D01*
X147031Y175984D01*
X146031Y174984D01*
Y173984D01*
X151937Y162173D02*
X152937D01*
X153937Y163173D01*
X154937Y162173D01*
X155937D01*
Y163173D01*
X154937Y164173D01*
X155937Y165173D01*
Y166173D01*
X154937D01*
X153937Y165173D01*
X152937Y166173D01*
X151937D01*
Y165173D01*
X152937Y164173D01*
X151937Y163173D01*
Y162173D01*
Y138551D02*
X152937D01*
X153937Y139551D01*
X154937Y138551D01*
X155937D01*
Y139551D01*
X154937Y140551D01*
X155937Y141551D01*
Y142551D01*
X154937D01*
X153937Y141551D01*
X152937Y142551D01*
X151937D01*
Y141551D01*
X152937Y140551D01*
X151937Y139551D01*
Y138551D01*
Y91307D02*
X152937D01*
X153937Y92307D01*
X154937Y91307D01*
X155937D01*
Y92307D01*
X154937Y93307D01*
X155937Y94307D01*
Y95307D01*
X154937D01*
X153937Y94307D01*
X152937Y95307D01*
X151937D01*
Y94307D01*
X152937Y93307D01*
X151937Y92307D01*
Y91307D01*
Y20441D02*
X152937D01*
X153937Y21441D01*
X154937Y20441D01*
X155937D01*
Y21441D01*
X154937Y22441D01*
X155937Y23441D01*
Y24441D01*
X154937D01*
X153937Y23441D01*
X152937Y24441D01*
X151937D01*
Y23441D01*
X152937Y22441D01*
X151937Y21441D01*
Y20441D01*
X146031Y8630D02*
X147031D01*
X148031Y9630D01*
X149031Y8630D01*
X150031D01*
Y9630D01*
X149031Y10630D01*
X150031Y11630D01*
Y12630D01*
X149031D01*
X148031Y11630D01*
X147031Y12630D01*
X146031D01*
Y11630D01*
X147031Y10630D01*
X146031Y9630D01*
Y8630D01*
X134220Y197606D02*
X135220D01*
X136220Y198606D01*
X137220Y197606D01*
X138220D01*
Y198606D01*
X137220Y199606D01*
X138220Y200606D01*
Y201606D01*
X137220D01*
X136220Y200606D01*
X135220Y201606D01*
X134220D01*
Y200606D01*
X135220Y199606D01*
X134220Y198606D01*
Y197606D01*
X140126Y185795D02*
X141126D01*
X142126Y186795D01*
X143126Y185795D01*
X144126D01*
Y186795D01*
X143126Y187795D01*
X144126Y188795D01*
Y189795D01*
X143126D01*
X142126Y188795D01*
X141126Y189795D01*
X140126D01*
Y188795D01*
X141126Y187795D01*
X140126Y186795D01*
Y185795D01*
X134220Y173984D02*
X135220D01*
X136220Y174984D01*
X137220Y173984D01*
X138220D01*
Y174984D01*
X137220Y175984D01*
X138220Y176984D01*
Y177984D01*
X137220D01*
X136220Y176984D01*
X135220Y177984D01*
X134220D01*
Y176984D01*
X135220Y175984D01*
X134220Y174984D01*
Y173984D01*
X140126Y162173D02*
X141126D01*
X142126Y163173D01*
X143126Y162173D01*
X144126D01*
Y163173D01*
X143126Y164173D01*
X144126Y165173D01*
Y166173D01*
X143126D01*
X142126Y165173D01*
X141126Y166173D01*
X140126D01*
Y165173D01*
X141126Y164173D01*
X140126Y163173D01*
Y162173D01*
Y138551D02*
X141126D01*
X142126Y139551D01*
X143126Y138551D01*
X144126D01*
Y139551D01*
X143126Y140551D01*
X144126Y141551D01*
Y142551D01*
X143126D01*
X142126Y141551D01*
X141126Y142551D01*
X140126D01*
Y141551D01*
X141126Y140551D01*
X140126Y139551D01*
Y138551D01*
X134220Y79496D02*
X135220D01*
X136220Y80496D01*
X137220Y79496D01*
X138220D01*
Y80496D01*
X137220Y81496D01*
X138220Y82496D01*
Y83496D01*
X137220D01*
X136220Y82496D01*
X135220Y83496D01*
X134220D01*
Y82496D01*
X135220Y81496D01*
X134220Y80496D01*
Y79496D01*
Y55874D02*
X135220D01*
X136220Y56874D01*
X137220Y55874D01*
X138220D01*
Y56874D01*
X137220Y57874D01*
X138220Y58874D01*
Y59874D01*
X137220D01*
X136220Y58874D01*
X135220Y59874D01*
X134220D01*
Y58874D01*
X135220Y57874D01*
X134220Y56874D01*
Y55874D01*
Y8630D02*
X135220D01*
X136220Y9630D01*
X137220Y8630D01*
X138220D01*
Y9630D01*
X137220Y10630D01*
X138220Y11630D01*
Y12630D01*
X137220D01*
X136220Y11630D01*
X135220Y12630D01*
X134220D01*
Y11630D01*
X135220Y10630D01*
X134220Y9630D01*
Y8630D01*
X122409Y197606D02*
X123409D01*
X124409Y198606D01*
X125409Y197606D01*
X126409D01*
Y198606D01*
X125409Y199606D01*
X126409Y200606D01*
Y201606D01*
X125409D01*
X124409Y200606D01*
X123409Y201606D01*
X122409D01*
Y200606D01*
X123409Y199606D01*
X122409Y198606D01*
Y197606D01*
X128315Y185795D02*
X129315D01*
X130315Y186795D01*
X131315Y185795D01*
X132315D01*
Y186795D01*
X131315Y187795D01*
X132315Y188795D01*
Y189795D01*
X131315D01*
X130315Y188795D01*
X129315Y189795D01*
X128315D01*
Y188795D01*
X129315Y187795D01*
X128315Y186795D01*
Y185795D01*
X122409Y173984D02*
X123409D01*
X124409Y174984D01*
X125409Y173984D01*
X126409D01*
Y174984D01*
X125409Y175984D01*
X126409Y176984D01*
Y177984D01*
X125409D01*
X124409Y176984D01*
X123409Y177984D01*
X122409D01*
Y176984D01*
X123409Y175984D01*
X122409Y174984D01*
Y173984D01*
Y150362D02*
X123409D01*
X124409Y151362D01*
X125409Y150362D01*
X126409D01*
Y151362D01*
X125409Y152362D01*
X126409Y153362D01*
Y154362D01*
X125409D01*
X124409Y153362D01*
X123409Y154362D01*
X122409D01*
Y153362D01*
X123409Y152362D01*
X122409Y151362D01*
Y150362D01*
Y126740D02*
X123409D01*
X124409Y127740D01*
X125409Y126740D01*
X126409D01*
Y127740D01*
X125409Y128740D01*
X126409Y129740D01*
Y130740D01*
X125409D01*
X124409Y129740D01*
X123409Y130740D01*
X122409D01*
Y129740D01*
X123409Y128740D01*
X122409Y127740D01*
Y126740D01*
X128315Y67685D02*
X129315D01*
X130315Y68685D01*
X131315Y67685D01*
X132315D01*
Y68685D01*
X131315Y69685D01*
X132315Y70685D01*
Y71685D01*
X131315D01*
X130315Y70685D01*
X129315Y71685D01*
X128315D01*
Y70685D01*
X129315Y69685D01*
X128315Y68685D01*
Y67685D01*
X110598Y197606D02*
X111598D01*
X112598Y198606D01*
X113598Y197606D01*
X114598D01*
Y198606D01*
X113598Y199606D01*
X114598Y200606D01*
Y201606D01*
X113598D01*
X112598Y200606D01*
X111598Y201606D01*
X110598D01*
Y200606D01*
X111598Y199606D01*
X110598Y198606D01*
Y197606D01*
X116504Y185795D02*
X117504D01*
X118504Y186795D01*
X119504Y185795D01*
X120504D01*
Y186795D01*
X119504Y187795D01*
X120504Y188795D01*
Y189795D01*
X119504D01*
X118504Y188795D01*
X117504Y189795D01*
X116504D01*
Y188795D01*
X117504Y187795D01*
X116504Y186795D01*
Y185795D01*
X110598Y173984D02*
X111598D01*
X112598Y174984D01*
X113598Y173984D01*
X114598D01*
Y174984D01*
X113598Y175984D01*
X114598Y176984D01*
Y177984D01*
X113598D01*
X112598Y176984D01*
X111598Y177984D01*
X110598D01*
Y176984D01*
X111598Y175984D01*
X110598Y174984D01*
Y173984D01*
X116504Y162173D02*
X117504D01*
X118504Y163173D01*
X119504Y162173D01*
X120504D01*
Y163173D01*
X119504Y164173D01*
X120504Y165173D01*
Y166173D01*
X119504D01*
X118504Y165173D01*
X117504Y166173D01*
X116504D01*
Y165173D01*
X117504Y164173D01*
X116504Y163173D01*
Y162173D01*
X110598Y150362D02*
X111598D01*
X112598Y151362D01*
X113598Y150362D01*
X114598D01*
Y151362D01*
X113598Y152362D01*
X114598Y153362D01*
Y154362D01*
X113598D01*
X112598Y153362D01*
X111598Y154362D01*
X110598D01*
Y153362D01*
X111598Y152362D01*
X110598Y151362D01*
Y150362D01*
X116504Y138551D02*
X117504D01*
X118504Y139551D01*
X119504Y138551D01*
X120504D01*
Y139551D01*
X119504Y140551D01*
X120504Y141551D01*
Y142551D01*
X119504D01*
X118504Y141551D01*
X117504Y142551D01*
X116504D01*
Y141551D01*
X117504Y140551D01*
X116504Y139551D01*
Y138551D01*
X110598Y126740D02*
X111598D01*
X112598Y127740D01*
X113598Y126740D01*
X114598D01*
Y127740D01*
X113598Y128740D01*
X114598Y129740D01*
Y130740D01*
X113598D01*
X112598Y129740D01*
X111598Y130740D01*
X110598D01*
Y129740D01*
X111598Y128740D01*
X110598Y127740D01*
Y126740D01*
Y103118D02*
X111598D01*
X112598Y104118D01*
X113598Y103118D01*
X114598D01*
Y104118D01*
X113598Y105118D01*
X114598Y106118D01*
Y107118D01*
X113598D01*
X112598Y106118D01*
X111598Y107118D01*
X110598D01*
Y106118D01*
X111598Y105118D01*
X110598Y104118D01*
Y103118D01*
Y79496D02*
X111598D01*
X112598Y80496D01*
X113598Y79496D01*
X114598D01*
Y80496D01*
X113598Y81496D01*
X114598Y82496D01*
Y83496D01*
X113598D01*
X112598Y82496D01*
X111598Y83496D01*
X110598D01*
Y82496D01*
X111598Y81496D01*
X110598Y80496D01*
Y79496D01*
X116504Y67685D02*
X117504D01*
X118504Y68685D01*
X119504Y67685D01*
X120504D01*
Y68685D01*
X119504Y69685D01*
X120504Y70685D01*
Y71685D01*
X119504D01*
X118504Y70685D01*
X117504Y71685D01*
X116504D01*
Y70685D01*
X117504Y69685D01*
X116504Y68685D01*
Y67685D01*
X98787Y197606D02*
X99787D01*
X100787Y198606D01*
X101787Y197606D01*
X102787D01*
Y198606D01*
X101787Y199606D01*
X102787Y200606D01*
Y201606D01*
X101787D01*
X100787Y200606D01*
X99787Y201606D01*
X98787D01*
Y200606D01*
X99787Y199606D01*
X98787Y198606D01*
Y197606D01*
X104693Y185795D02*
X105693D01*
X106693Y186795D01*
X107693Y185795D01*
X108693D01*
Y186795D01*
X107693Y187795D01*
X108693Y188795D01*
Y189795D01*
X107693D01*
X106693Y188795D01*
X105693Y189795D01*
X104693D01*
Y188795D01*
X105693Y187795D01*
X104693Y186795D01*
Y185795D01*
X98787Y173984D02*
X99787D01*
X100787Y174984D01*
X101787Y173984D01*
X102787D01*
Y174984D01*
X101787Y175984D01*
X102787Y176984D01*
Y177984D01*
X101787D01*
X100787Y176984D01*
X99787Y177984D01*
X98787D01*
Y176984D01*
X99787Y175984D01*
X98787Y174984D01*
Y173984D01*
Y150362D02*
X99787D01*
X100787Y151362D01*
X101787Y150362D01*
X102787D01*
Y151362D01*
X101787Y152362D01*
X102787Y153362D01*
Y154362D01*
X101787D01*
X100787Y153362D01*
X99787Y154362D01*
X98787D01*
Y153362D01*
X99787Y152362D01*
X98787Y151362D01*
Y150362D01*
X104693Y138551D02*
X105693D01*
X106693Y139551D01*
X107693Y138551D01*
X108693D01*
Y139551D01*
X107693Y140551D01*
X108693Y141551D01*
Y142551D01*
X107693D01*
X106693Y141551D01*
X105693Y142551D01*
X104693D01*
Y141551D01*
X105693Y140551D01*
X104693Y139551D01*
Y138551D01*
X98787Y126740D02*
X99787D01*
X100787Y127740D01*
X101787Y126740D01*
X102787D01*
Y127740D01*
X101787Y128740D01*
X102787Y129740D01*
Y130740D01*
X101787D01*
X100787Y129740D01*
X99787Y130740D01*
X98787D01*
Y129740D01*
X99787Y128740D01*
X98787Y127740D01*
Y126740D01*
X104693Y114929D02*
X105693D01*
X106693Y115929D01*
X107693Y114929D01*
X108693D01*
Y115929D01*
X107693Y116929D01*
X108693Y117929D01*
Y118929D01*
X107693D01*
X106693Y117929D01*
X105693Y118929D01*
X104693D01*
Y117929D01*
X105693Y116929D01*
X104693Y115929D01*
Y114929D01*
X98787Y55874D02*
X99787D01*
X100787Y56874D01*
X101787Y55874D01*
X102787D01*
Y56874D01*
X101787Y57874D01*
X102787Y58874D01*
Y59874D01*
X101787D01*
X100787Y58874D01*
X99787Y59874D01*
X98787D01*
Y58874D01*
X99787Y57874D01*
X98787Y56874D01*
Y55874D01*
Y8630D02*
X99787D01*
X100787Y9630D01*
X101787Y8630D01*
X102787D01*
Y9630D01*
X101787Y10630D01*
X102787Y11630D01*
Y12630D01*
X101787D01*
X100787Y11630D01*
X99787Y12630D01*
X98787D01*
Y11630D01*
X99787Y10630D01*
X98787Y9630D01*
Y8630D01*
X86976Y197606D02*
X87976D01*
X88976Y198606D01*
X89976Y197606D01*
X90976D01*
Y198606D01*
X89976Y199606D01*
X90976Y200606D01*
Y201606D01*
X89976D01*
X88976Y200606D01*
X87976Y201606D01*
X86976D01*
Y200606D01*
X87976Y199606D01*
X86976Y198606D01*
Y197606D01*
X92882Y185795D02*
X93882D01*
X94882Y186795D01*
X95882Y185795D01*
X96882D01*
Y186795D01*
X95882Y187795D01*
X96882Y188795D01*
Y189795D01*
X95882D01*
X94882Y188795D01*
X93882Y189795D01*
X92882D01*
Y188795D01*
X93882Y187795D01*
X92882Y186795D01*
Y185795D01*
X86976Y173984D02*
X87976D01*
X88976Y174984D01*
X89976Y173984D01*
X90976D01*
Y174984D01*
X89976Y175984D01*
X90976Y176984D01*
Y177984D01*
X89976D01*
X88976Y176984D01*
X87976Y177984D01*
X86976D01*
Y176984D01*
X87976Y175984D01*
X86976Y174984D01*
Y173984D01*
X92882Y138551D02*
X93882D01*
X94882Y139551D01*
X95882Y138551D01*
X96882D01*
Y139551D01*
X95882Y140551D01*
X96882Y141551D01*
Y142551D01*
X95882D01*
X94882Y141551D01*
X93882Y142551D01*
X92882D01*
Y141551D01*
X93882Y140551D01*
X92882Y139551D01*
Y138551D01*
Y91307D02*
X93882D01*
X94882Y92307D01*
X95882Y91307D01*
X96882D01*
Y92307D01*
X95882Y93307D01*
X96882Y94307D01*
Y95307D01*
X95882D01*
X94882Y94307D01*
X93882Y95307D01*
X92882D01*
Y94307D01*
X93882Y93307D01*
X92882Y92307D01*
Y91307D01*
X86976Y55874D02*
X87976D01*
X88976Y56874D01*
X89976Y55874D01*
X90976D01*
Y56874D01*
X89976Y57874D01*
X90976Y58874D01*
Y59874D01*
X89976D01*
X88976Y58874D01*
X87976Y59874D01*
X86976D01*
Y58874D01*
X87976Y57874D01*
X86976Y56874D01*
Y55874D01*
X92882Y44063D02*
X93882D01*
X94882Y45063D01*
X95882Y44063D01*
X96882D01*
Y45063D01*
X95882Y46063D01*
X96882Y47063D01*
Y48063D01*
X95882D01*
X94882Y47063D01*
X93882Y48063D01*
X92882D01*
Y47063D01*
X93882Y46063D01*
X92882Y45063D01*
Y44063D01*
Y20441D02*
X93882D01*
X94882Y21441D01*
X95882Y20441D01*
X96882D01*
Y21441D01*
X95882Y22441D01*
X96882Y23441D01*
Y24441D01*
X95882D01*
X94882Y23441D01*
X93882Y24441D01*
X92882D01*
Y23441D01*
X93882Y22441D01*
X92882Y21441D01*
Y20441D01*
X86976Y8630D02*
X87976D01*
X88976Y9630D01*
X89976Y8630D01*
X90976D01*
Y9630D01*
X89976Y10630D01*
X90976Y11630D01*
Y12630D01*
X89976D01*
X88976Y11630D01*
X87976Y12630D01*
X86976D01*
Y11630D01*
X87976Y10630D01*
X86976Y9630D01*
Y8630D01*
X75165Y197606D02*
X76165D01*
X77165Y198606D01*
X78165Y197606D01*
X79165D01*
Y198606D01*
X78165Y199606D01*
X79165Y200606D01*
Y201606D01*
X78165D01*
X77165Y200606D01*
X76165Y201606D01*
X75165D01*
Y200606D01*
X76165Y199606D01*
X75165Y198606D01*
Y197606D01*
X81071Y185795D02*
X82071D01*
X83071Y186795D01*
X84071Y185795D01*
X85071D01*
Y186795D01*
X84071Y187795D01*
X85071Y188795D01*
Y189795D01*
X84071D01*
X83071Y188795D01*
X82071Y189795D01*
X81071D01*
Y188795D01*
X82071Y187795D01*
X81071Y186795D01*
Y185795D01*
X75165Y173984D02*
X76165D01*
X77165Y174984D01*
X78165Y173984D01*
X79165D01*
Y174984D01*
X78165Y175984D01*
X79165Y176984D01*
Y177984D01*
X78165D01*
X77165Y176984D01*
X76165Y177984D01*
X75165D01*
Y176984D01*
X76165Y175984D01*
X75165Y174984D01*
Y173984D01*
X81071Y138551D02*
X82071D01*
X83071Y139551D01*
X84071Y138551D01*
X85071D01*
Y139551D01*
X84071Y140551D01*
X85071Y141551D01*
Y142551D01*
X84071D01*
X83071Y141551D01*
X82071Y142551D01*
X81071D01*
Y141551D01*
X82071Y140551D01*
X81071Y139551D01*
Y138551D01*
X75165Y126740D02*
X76165D01*
X77165Y127740D01*
X78165Y126740D01*
X79165D01*
Y127740D01*
X78165Y128740D01*
X79165Y129740D01*
Y130740D01*
X78165D01*
X77165Y129740D01*
X76165Y130740D01*
X75165D01*
Y129740D01*
X76165Y128740D01*
X75165Y127740D01*
Y126740D01*
Y103118D02*
X76165D01*
X77165Y104118D01*
X78165Y103118D01*
X79165D01*
Y104118D01*
X78165Y105118D01*
X79165Y106118D01*
Y107118D01*
X78165D01*
X77165Y106118D01*
X76165Y107118D01*
X75165D01*
Y106118D01*
X76165Y105118D01*
X75165Y104118D01*
Y103118D01*
Y55874D02*
X76165D01*
X77165Y56874D01*
X78165Y55874D01*
X79165D01*
Y56874D01*
X78165Y57874D01*
X79165Y58874D01*
Y59874D01*
X78165D01*
X77165Y58874D01*
X76165Y59874D01*
X75165D01*
Y58874D01*
X76165Y57874D01*
X75165Y56874D01*
Y55874D01*
X81071Y20441D02*
X82071D01*
X83071Y21441D01*
X84071Y20441D01*
X85071D01*
Y21441D01*
X84071Y22441D01*
X85071Y23441D01*
Y24441D01*
X84071D01*
X83071Y23441D01*
X82071Y24441D01*
X81071D01*
Y23441D01*
X82071Y22441D01*
X81071Y21441D01*
Y20441D01*
X75165Y8630D02*
X76165D01*
X77165Y9630D01*
X78165Y8630D01*
X79165D01*
Y9630D01*
X78165Y10630D01*
X79165Y11630D01*
Y12630D01*
X78165D01*
X77165Y11630D01*
X76165Y12630D01*
X75165D01*
Y11630D01*
X76165Y10630D01*
X75165Y9630D01*
Y8630D01*
X63354Y197606D02*
X64354D01*
X65354Y198606D01*
X66354Y197606D01*
X67354D01*
Y198606D01*
X66354Y199606D01*
X67354Y200606D01*
Y201606D01*
X66354D01*
X65354Y200606D01*
X64354Y201606D01*
X63354D01*
Y200606D01*
X64354Y199606D01*
X63354Y198606D01*
Y197606D01*
X69260Y185795D02*
X70260D01*
X71260Y186795D01*
X72260Y185795D01*
X73260D01*
Y186795D01*
X72260Y187795D01*
X73260Y188795D01*
Y189795D01*
X72260D01*
X71260Y188795D01*
X70260Y189795D01*
X69260D01*
Y188795D01*
X70260Y187795D01*
X69260Y186795D01*
Y185795D01*
X63354Y173984D02*
X64354D01*
X65354Y174984D01*
X66354Y173984D01*
X67354D01*
Y174984D01*
X66354Y175984D01*
X67354Y176984D01*
Y177984D01*
X66354D01*
X65354Y176984D01*
X64354Y177984D01*
X63354D01*
Y176984D01*
X64354Y175984D01*
X63354Y174984D01*
Y173984D01*
X69260Y162173D02*
X70260D01*
X71260Y163173D01*
X72260Y162173D01*
X73260D01*
Y163173D01*
X72260Y164173D01*
X73260Y165173D01*
Y166173D01*
X72260D01*
X71260Y165173D01*
X70260Y166173D01*
X69260D01*
Y165173D01*
X70260Y164173D01*
X69260Y163173D01*
Y162173D01*
Y138551D02*
X70260D01*
X71260Y139551D01*
X72260Y138551D01*
X73260D01*
Y139551D01*
X72260Y140551D01*
X73260Y141551D01*
Y142551D01*
X72260D01*
X71260Y141551D01*
X70260Y142551D01*
X69260D01*
Y141551D01*
X70260Y140551D01*
X69260Y139551D01*
Y138551D01*
Y114929D02*
X70260D01*
X71260Y115929D01*
X72260Y114929D01*
X73260D01*
Y115929D01*
X72260Y116929D01*
X73260Y117929D01*
Y118929D01*
X72260D01*
X71260Y117929D01*
X70260Y118929D01*
X69260D01*
Y117929D01*
X70260Y116929D01*
X69260Y115929D01*
Y114929D01*
X63354Y103118D02*
X64354D01*
X65354Y104118D01*
X66354Y103118D01*
X67354D01*
Y104118D01*
X66354Y105118D01*
X67354Y106118D01*
Y107118D01*
X66354D01*
X65354Y106118D01*
X64354Y107118D01*
X63354D01*
Y106118D01*
X64354Y105118D01*
X63354Y104118D01*
Y103118D01*
X69260Y91307D02*
X70260D01*
X71260Y92307D01*
X72260Y91307D01*
X73260D01*
Y92307D01*
X72260Y93307D01*
X73260Y94307D01*
Y95307D01*
X72260D01*
X71260Y94307D01*
X70260Y95307D01*
X69260D01*
Y94307D01*
X70260Y93307D01*
X69260Y92307D01*
Y91307D01*
X63354Y79496D02*
X64354D01*
X65354Y80496D01*
X66354Y79496D01*
X67354D01*
Y80496D01*
X66354Y81496D01*
X67354Y82496D01*
Y83496D01*
X66354D01*
X65354Y82496D01*
X64354Y83496D01*
X63354D01*
Y82496D01*
X64354Y81496D01*
X63354Y80496D01*
Y79496D01*
X69260Y67685D02*
X70260D01*
X71260Y68685D01*
X72260Y67685D01*
X73260D01*
Y68685D01*
X72260Y69685D01*
X73260Y70685D01*
Y71685D01*
X72260D01*
X71260Y70685D01*
X70260Y71685D01*
X69260D01*
Y70685D01*
X70260Y69685D01*
X69260Y68685D01*
Y67685D01*
Y44063D02*
X70260D01*
X71260Y45063D01*
X72260Y44063D01*
X73260D01*
Y45063D01*
X72260Y46063D01*
X73260Y47063D01*
Y48063D01*
X72260D01*
X71260Y47063D01*
X70260Y48063D01*
X69260D01*
Y47063D01*
X70260Y46063D01*
X69260Y45063D01*
Y44063D01*
X63354Y32252D02*
X64354D01*
X65354Y33252D01*
X66354Y32252D01*
X67354D01*
Y33252D01*
X66354Y34252D01*
X67354Y35252D01*
Y36252D01*
X66354D01*
X65354Y35252D01*
X64354Y36252D01*
X63354D01*
Y35252D01*
X64354Y34252D01*
X63354Y33252D01*
Y32252D01*
X69260Y20441D02*
X70260D01*
X71260Y21441D01*
X72260Y20441D01*
X73260D01*
Y21441D01*
X72260Y22441D01*
X73260Y23441D01*
Y24441D01*
X72260D01*
X71260Y23441D01*
X70260Y24441D01*
X69260D01*
Y23441D01*
X70260Y22441D01*
X69260Y21441D01*
Y20441D01*
X63354Y8630D02*
X64354D01*
X65354Y9630D01*
X66354Y8630D01*
X67354D01*
Y9630D01*
X66354Y10630D01*
X67354Y11630D01*
Y12630D01*
X66354D01*
X65354Y11630D01*
X64354Y12630D01*
X63354D01*
Y11630D01*
X64354Y10630D01*
X63354Y9630D01*
Y8630D01*
X51543Y197606D02*
X52543D01*
X53543Y198606D01*
X54543Y197606D01*
X55543D01*
Y198606D01*
X54543Y199606D01*
X55543Y200606D01*
Y201606D01*
X54543D01*
X53543Y200606D01*
X52543Y201606D01*
X51543D01*
Y200606D01*
X52543Y199606D01*
X51543Y198606D01*
Y197606D01*
X57449Y185795D02*
X58449D01*
X59449Y186795D01*
X60449Y185795D01*
X61449D01*
Y186795D01*
X60449Y187795D01*
X61449Y188795D01*
Y189795D01*
X60449D01*
X59449Y188795D01*
X58449Y189795D01*
X57449D01*
Y188795D01*
X58449Y187795D01*
X57449Y186795D01*
Y185795D01*
X51543Y173984D02*
X52543D01*
X53543Y174984D01*
X54543Y173984D01*
X55543D01*
Y174984D01*
X54543Y175984D01*
X55543Y176984D01*
Y177984D01*
X54543D01*
X53543Y176984D01*
X52543Y177984D01*
X51543D01*
Y176984D01*
X52543Y175984D01*
X51543Y174984D01*
Y173984D01*
X57449Y138551D02*
X58449D01*
X59449Y139551D01*
X60449Y138551D01*
X61449D01*
Y139551D01*
X60449Y140551D01*
X61449Y141551D01*
Y142551D01*
X60449D01*
X59449Y141551D01*
X58449Y142551D01*
X57449D01*
Y141551D01*
X58449Y140551D01*
X57449Y139551D01*
Y138551D01*
Y114929D02*
X58449D01*
X59449Y115929D01*
X60449Y114929D01*
X61449D01*
Y115929D01*
X60449Y116929D01*
X61449Y117929D01*
Y118929D01*
X60449D01*
X59449Y117929D01*
X58449Y118929D01*
X57449D01*
Y117929D01*
X58449Y116929D01*
X57449Y115929D01*
Y114929D01*
Y91307D02*
X58449D01*
X59449Y92307D01*
X60449Y91307D01*
X61449D01*
Y92307D01*
X60449Y93307D01*
X61449Y94307D01*
Y95307D01*
X60449D01*
X59449Y94307D01*
X58449Y95307D01*
X57449D01*
Y94307D01*
X58449Y93307D01*
X57449Y92307D01*
Y91307D01*
X51543Y55874D02*
X52543D01*
X53543Y56874D01*
X54543Y55874D01*
X55543D01*
Y56874D01*
X54543Y57874D01*
X55543Y58874D01*
Y59874D01*
X54543D01*
X53543Y58874D01*
X52543Y59874D01*
X51543D01*
Y58874D01*
X52543Y57874D01*
X51543Y56874D01*
Y55874D01*
X57449Y44063D02*
X58449D01*
X59449Y45063D01*
X60449Y44063D01*
X61449D01*
Y45063D01*
X60449Y46063D01*
X61449Y47063D01*
Y48063D01*
X60449D01*
X59449Y47063D01*
X58449Y48063D01*
X57449D01*
Y47063D01*
X58449Y46063D01*
X57449Y45063D01*
Y44063D01*
Y20441D02*
X58449D01*
X59449Y21441D01*
X60449Y20441D01*
X61449D01*
Y21441D01*
X60449Y22441D01*
X61449Y23441D01*
Y24441D01*
X60449D01*
X59449Y23441D01*
X58449Y24441D01*
X57449D01*
Y23441D01*
X58449Y22441D01*
X57449Y21441D01*
Y20441D01*
X51543Y8630D02*
X52543D01*
X53543Y9630D01*
X54543Y8630D01*
X55543D01*
Y9630D01*
X54543Y10630D01*
X55543Y11630D01*
Y12630D01*
X54543D01*
X53543Y11630D01*
X52543Y12630D01*
X51543D01*
Y11630D01*
X52543Y10630D01*
X51543Y9630D01*
Y8630D01*
X39732Y197606D02*
X40732D01*
X41732Y198606D01*
X42732Y197606D01*
X43732D01*
Y198606D01*
X42732Y199606D01*
X43732Y200606D01*
Y201606D01*
X42732D01*
X41732Y200606D01*
X40732Y201606D01*
X39732D01*
Y200606D01*
X40732Y199606D01*
X39732Y198606D01*
Y197606D01*
X45638Y185795D02*
X46638D01*
X47638Y186795D01*
X48638Y185795D01*
X49638D01*
Y186795D01*
X48638Y187795D01*
X49638Y188795D01*
Y189795D01*
X48638D01*
X47638Y188795D01*
X46638Y189795D01*
X45638D01*
Y188795D01*
X46638Y187795D01*
X45638Y186795D01*
Y185795D01*
X39732Y173984D02*
X40732D01*
X41732Y174984D01*
X42732Y173984D01*
X43732D01*
Y174984D01*
X42732Y175984D01*
X43732Y176984D01*
Y177984D01*
X42732D01*
X41732Y176984D01*
X40732Y177984D01*
X39732D01*
Y176984D01*
X40732Y175984D01*
X39732Y174984D01*
Y173984D01*
X45638Y162173D02*
X46638D01*
X47638Y163173D01*
X48638Y162173D01*
X49638D01*
Y163173D01*
X48638Y164173D01*
X49638Y165173D01*
Y166173D01*
X48638D01*
X47638Y165173D01*
X46638Y166173D01*
X45638D01*
Y165173D01*
X46638Y164173D01*
X45638Y163173D01*
Y162173D01*
Y138551D02*
X46638D01*
X47638Y139551D01*
X48638Y138551D01*
X49638D01*
Y139551D01*
X48638Y140551D01*
X49638Y141551D01*
Y142551D01*
X48638D01*
X47638Y141551D01*
X46638Y142551D01*
X45638D01*
Y141551D01*
X46638Y140551D01*
X45638Y139551D01*
Y138551D01*
Y114929D02*
X46638D01*
X47638Y115929D01*
X48638Y114929D01*
X49638D01*
Y115929D01*
X48638Y116929D01*
X49638Y117929D01*
Y118929D01*
X48638D01*
X47638Y117929D01*
X46638Y118929D01*
X45638D01*
Y117929D01*
X46638Y116929D01*
X45638Y115929D01*
Y114929D01*
X39732Y79496D02*
X40732D01*
X41732Y80496D01*
X42732Y79496D01*
X43732D01*
Y80496D01*
X42732Y81496D01*
X43732Y82496D01*
Y83496D01*
X42732D01*
X41732Y82496D01*
X40732Y83496D01*
X39732D01*
Y82496D01*
X40732Y81496D01*
X39732Y80496D01*
Y79496D01*
Y55874D02*
X40732D01*
X41732Y56874D01*
X42732Y55874D01*
X43732D01*
Y56874D01*
X42732Y57874D01*
X43732Y58874D01*
Y59874D01*
X42732D01*
X41732Y58874D01*
X40732Y59874D01*
X39732D01*
Y58874D01*
X40732Y57874D01*
X39732Y56874D01*
Y55874D01*
X45638Y20441D02*
X46638D01*
X47638Y21441D01*
X48638Y20441D01*
X49638D01*
Y21441D01*
X48638Y22441D01*
X49638Y23441D01*
Y24441D01*
X48638D01*
X47638Y23441D01*
X46638Y24441D01*
X45638D01*
Y23441D01*
X46638Y22441D01*
X45638Y21441D01*
Y20441D01*
X39732Y8630D02*
X40732D01*
X41732Y9630D01*
X42732Y8630D01*
X43732D01*
Y9630D01*
X42732Y10630D01*
X43732Y11630D01*
Y12630D01*
X42732D01*
X41732Y11630D01*
X40732Y12630D01*
X39732D01*
Y11630D01*
X40732Y10630D01*
X39732Y9630D01*
Y8630D01*
X27921Y197606D02*
X28921D01*
X29921Y198606D01*
X30921Y197606D01*
X31921D01*
Y198606D01*
X30921Y199606D01*
X31921Y200606D01*
Y201606D01*
X30921D01*
X29921Y200606D01*
X28921Y201606D01*
X27921D01*
Y200606D01*
X28921Y199606D01*
X27921Y198606D01*
Y197606D01*
X33827Y185795D02*
X34827D01*
X35827Y186795D01*
X36827Y185795D01*
X37827D01*
Y186795D01*
X36827Y187795D01*
X37827Y188795D01*
Y189795D01*
X36827D01*
X35827Y188795D01*
X34827Y189795D01*
X33827D01*
Y188795D01*
X34827Y187795D01*
X33827Y186795D01*
Y185795D01*
X27921Y173984D02*
X28921D01*
X29921Y174984D01*
X30921Y173984D01*
X31921D01*
Y174984D01*
X30921Y175984D01*
X31921Y176984D01*
Y177984D01*
X30921D01*
X29921Y176984D01*
X28921Y177984D01*
X27921D01*
Y176984D01*
X28921Y175984D01*
X27921Y174984D01*
Y173984D01*
X33827Y162173D02*
X34827D01*
X35827Y163173D01*
X36827Y162173D01*
X37827D01*
Y163173D01*
X36827Y164173D01*
X37827Y165173D01*
Y166173D01*
X36827D01*
X35827Y165173D01*
X34827Y166173D01*
X33827D01*
Y165173D01*
X34827Y164173D01*
X33827Y163173D01*
Y162173D01*
Y91307D02*
X34827D01*
X35827Y92307D01*
X36827Y91307D01*
X37827D01*
Y92307D01*
X36827Y93307D01*
X37827Y94307D01*
Y95307D01*
X36827D01*
X35827Y94307D01*
X34827Y95307D01*
X33827D01*
Y94307D01*
X34827Y93307D01*
X33827Y92307D01*
Y91307D01*
X27921Y79496D02*
X28921D01*
X29921Y80496D01*
X30921Y79496D01*
X31921D01*
Y80496D01*
X30921Y81496D01*
X31921Y82496D01*
Y83496D01*
X30921D01*
X29921Y82496D01*
X28921Y83496D01*
X27921D01*
Y82496D01*
X28921Y81496D01*
X27921Y80496D01*
Y79496D01*
Y55874D02*
X28921D01*
X29921Y56874D01*
X30921Y55874D01*
X31921D01*
Y56874D01*
X30921Y57874D01*
X31921Y58874D01*
Y59874D01*
X30921D01*
X29921Y58874D01*
X28921Y59874D01*
X27921D01*
Y58874D01*
X28921Y57874D01*
X27921Y56874D01*
Y55874D01*
Y32252D02*
X28921D01*
X29921Y33252D01*
X30921Y32252D01*
X31921D01*
Y33252D01*
X30921Y34252D01*
X31921Y35252D01*
Y36252D01*
X30921D01*
X29921Y35252D01*
X28921Y36252D01*
X27921D01*
Y35252D01*
X28921Y34252D01*
X27921Y33252D01*
Y32252D01*
X33827Y20441D02*
X34827D01*
X35827Y21441D01*
X36827Y20441D01*
X37827D01*
Y21441D01*
X36827Y22441D01*
X37827Y23441D01*
Y24441D01*
X36827D01*
X35827Y23441D01*
X34827Y24441D01*
X33827D01*
Y23441D01*
X34827Y22441D01*
X33827Y21441D01*
Y20441D01*
X27921Y8630D02*
X28921D01*
X29921Y9630D01*
X30921Y8630D01*
X31921D01*
Y9630D01*
X30921Y10630D01*
X31921Y11630D01*
Y12630D01*
X30921D01*
X29921Y11630D01*
X28921Y12630D01*
X27921D01*
Y11630D01*
X28921Y10630D01*
X27921Y9630D01*
Y8630D01*
X22016Y185795D02*
X23016D01*
X24016Y186795D01*
X25016Y185795D01*
X26016D01*
Y186795D01*
X25016Y187795D01*
X26016Y188795D01*
Y189795D01*
X25016D01*
X24016Y188795D01*
X23016Y189795D01*
X22016D01*
Y188795D01*
X23016Y187795D01*
X22016Y186795D01*
Y185795D01*
X16110Y173984D02*
X17110D01*
X18110Y174984D01*
X19110Y173984D01*
X20110D01*
Y174984D01*
X19110Y175984D01*
X20110Y176984D01*
Y177984D01*
X19110D01*
X18110Y176984D01*
X17110Y177984D01*
X16110D01*
Y176984D01*
X17110Y175984D01*
X16110Y174984D01*
Y173984D01*
X22016Y162173D02*
X23016D01*
X24016Y163173D01*
X25016Y162173D01*
X26016D01*
Y163173D01*
X25016Y164173D01*
X26016Y165173D01*
Y166173D01*
X25016D01*
X24016Y165173D01*
X23016Y166173D01*
X22016D01*
Y165173D01*
X23016Y164173D01*
X22016Y163173D01*
Y162173D01*
X16110Y150362D02*
X17110D01*
X18110Y151362D01*
X19110Y150362D01*
X20110D01*
Y151362D01*
X19110Y152362D01*
X20110Y153362D01*
Y154362D01*
X19110D01*
X18110Y153362D01*
X17110Y154362D01*
X16110D01*
Y153362D01*
X17110Y152362D01*
X16110Y151362D01*
Y150362D01*
Y126740D02*
X17110D01*
X18110Y127740D01*
X19110Y126740D01*
X20110D01*
Y127740D01*
X19110Y128740D01*
X20110Y129740D01*
Y130740D01*
X19110D01*
X18110Y129740D01*
X17110Y130740D01*
X16110D01*
Y129740D01*
X17110Y128740D01*
X16110Y127740D01*
Y126740D01*
X22016Y91307D02*
X23016D01*
X24016Y92307D01*
X25016Y91307D01*
X26016D01*
Y92307D01*
X25016Y93307D01*
X26016Y94307D01*
Y95307D01*
X25016D01*
X24016Y94307D01*
X23016Y95307D01*
X22016D01*
Y94307D01*
X23016Y93307D01*
X22016Y92307D01*
Y91307D01*
Y67685D02*
X23016D01*
X24016Y68685D01*
X25016Y67685D01*
X26016D01*
Y68685D01*
X25016Y69685D01*
X26016Y70685D01*
Y71685D01*
X25016D01*
X24016Y70685D01*
X23016Y71685D01*
X22016D01*
Y70685D01*
X23016Y69685D01*
X22016Y68685D01*
Y67685D01*
X16110Y55874D02*
X17110D01*
X18110Y56874D01*
X19110Y55874D01*
X20110D01*
Y56874D01*
X19110Y57874D01*
X20110Y58874D01*
Y59874D01*
X19110D01*
X18110Y58874D01*
X17110Y59874D01*
X16110D01*
Y58874D01*
X17110Y57874D01*
X16110Y56874D01*
Y55874D01*
X22016Y44063D02*
X23016D01*
X24016Y45063D01*
X25016Y44063D01*
X26016D01*
Y45063D01*
X25016Y46063D01*
X26016Y47063D01*
Y48063D01*
X25016D01*
X24016Y47063D01*
X23016Y48063D01*
X22016D01*
Y47063D01*
X23016Y46063D01*
X22016Y45063D01*
Y44063D01*
X16110Y32252D02*
X17110D01*
X18110Y33252D01*
X19110Y32252D01*
X20110D01*
Y33252D01*
X19110Y34252D01*
X20110Y35252D01*
Y36252D01*
X19110D01*
X18110Y35252D01*
X17110Y36252D01*
X16110D01*
Y35252D01*
X17110Y34252D01*
X16110Y33252D01*
Y32252D01*
X10205Y185795D02*
X11205D01*
X12205Y186795D01*
X13205Y185795D01*
X14205D01*
Y186795D01*
X13205Y187795D01*
X14205Y188795D01*
Y189795D01*
X13205D01*
X12205Y188795D01*
X11205Y189795D01*
X10205D01*
Y188795D01*
X11205Y187795D01*
X10205Y186795D01*
Y185795D01*
X4299Y173984D02*
X5299D01*
X6299Y174984D01*
X7299Y173984D01*
X8299D01*
Y174984D01*
X7299Y175984D01*
X8299Y176984D01*
Y177984D01*
X7299D01*
X6299Y176984D01*
X5299Y177984D01*
X4299D01*
Y176984D01*
X5299Y175984D01*
X4299Y174984D01*
Y173984D01*
X10205Y162173D02*
X11205D01*
X12205Y163173D01*
X13205Y162173D01*
X14205D01*
Y163173D01*
X13205Y164173D01*
X14205Y165173D01*
Y166173D01*
X13205D01*
X12205Y165173D01*
X11205Y166173D01*
X10205D01*
Y165173D01*
X11205Y164173D01*
X10205Y163173D01*
Y162173D01*
X4299Y150362D02*
X5299D01*
X6299Y151362D01*
X7299Y150362D01*
X8299D01*
Y151362D01*
X7299Y152362D01*
X8299Y153362D01*
Y154362D01*
X7299D01*
X6299Y153362D01*
X5299Y154362D01*
X4299D01*
Y153362D01*
X5299Y152362D01*
X4299Y151362D01*
Y150362D01*
X10205Y138551D02*
X11205D01*
X12205Y139551D01*
X13205Y138551D01*
X14205D01*
Y139551D01*
X13205Y140551D01*
X14205Y141551D01*
Y142551D01*
X13205D01*
X12205Y141551D01*
X11205Y142551D01*
X10205D01*
Y141551D01*
X11205Y140551D01*
X10205Y139551D01*
Y138551D01*
X4299Y126740D02*
X5299D01*
X6299Y127740D01*
X7299Y126740D01*
X8299D01*
Y127740D01*
X7299Y128740D01*
X8299Y129740D01*
Y130740D01*
X7299D01*
X6299Y129740D01*
X5299Y130740D01*
X4299D01*
Y129740D01*
X5299Y128740D01*
X4299Y127740D01*
Y126740D01*
Y79496D02*
X5299D01*
X6299Y80496D01*
X7299Y79496D01*
X8299D01*
Y80496D01*
X7299Y81496D01*
X8299Y82496D01*
Y83496D01*
X7299D01*
X6299Y82496D01*
X5299Y83496D01*
X4299D01*
Y82496D01*
X5299Y81496D01*
X4299Y80496D01*
Y79496D01*
X10205Y67685D02*
X11205D01*
X12205Y68685D01*
X13205Y67685D01*
X14205D01*
Y68685D01*
X13205Y69685D01*
X14205Y70685D01*
Y71685D01*
X13205D01*
X12205Y70685D01*
X11205Y71685D01*
X10205D01*
Y70685D01*
X11205Y69685D01*
X10205Y68685D01*
Y67685D01*
X4299Y55874D02*
X5299D01*
X6299Y56874D01*
X7299Y55874D01*
X8299D01*
Y56874D01*
X7299Y57874D01*
X8299Y58874D01*
Y59874D01*
X7299D01*
X6299Y58874D01*
X5299Y59874D01*
X4299D01*
Y58874D01*
X5299Y57874D01*
X4299Y56874D01*
Y55874D01*
X10205Y44063D02*
X11205D01*
X12205Y45063D01*
X13205Y44063D01*
X14205D01*
Y45063D01*
X13205Y46063D01*
X14205Y47063D01*
Y48063D01*
X13205D01*
X12205Y47063D01*
X11205Y48063D01*
X10205D01*
Y47063D01*
X11205Y46063D01*
X10205Y45063D01*
Y44063D01*
X4299Y32252D02*
X5299D01*
X6299Y33252D01*
X7299Y32252D01*
X8299D01*
Y33252D01*
X7299Y34252D01*
X8299Y35252D01*
Y36252D01*
X7299D01*
X6299Y35252D01*
X5299Y36252D01*
X4299D01*
Y35252D01*
X5299Y34252D01*
X4299Y33252D01*
Y32252D01*
X138952Y111175D02*
X139952D01*
X140952Y112175D01*
X141952Y111175D01*
X142952D01*
Y112175D01*
X141952Y113175D01*
X142952Y114175D01*
Y115175D01*
X141952D01*
X140952Y114175D01*
X139952Y115175D01*
X138952D01*
Y114175D01*
X139952Y113175D01*
X138952Y112175D01*
Y111175D01*
Y108600D02*
X139952D01*
X140952Y109600D01*
X141952Y108600D01*
X142952D01*
Y109600D01*
X141952Y110600D01*
X142952Y111600D01*
Y112601D01*
X141952D01*
X140952Y111600D01*
X139952Y112601D01*
X138952D01*
Y111600D01*
X139952Y110600D01*
X138952Y109600D01*
Y108600D01*
X139119Y106031D02*
X140119D01*
X141119Y107031D01*
X142119Y106031D01*
X143119D01*
Y107031D01*
X142119Y108031D01*
X143119Y109031D01*
Y110031D01*
X142119D01*
X141119Y109031D01*
X140119Y110031D01*
X139119D01*
Y109031D01*
X140119Y108031D01*
X139119Y107031D01*
Y106031D01*
X138952Y103462D02*
X139952D01*
X140952Y104462D01*
X141952Y103462D01*
X142952D01*
Y104462D01*
X141952Y105462D01*
X142952Y106462D01*
Y107462D01*
X141952D01*
X140952Y106462D01*
X139952Y107462D01*
X138952D01*
Y106462D01*
X139952Y105462D01*
X138952Y104462D01*
Y103462D01*
X140203Y91372D02*
X141203D01*
X142203Y92372D01*
X143203Y91372D01*
X144203D01*
Y92372D01*
X143203Y93372D01*
X144203Y94372D01*
Y95372D01*
X143203D01*
X142203Y94372D01*
X141203Y95372D01*
X140203D01*
Y94372D01*
X141203Y93372D01*
X140203Y92372D01*
Y91372D01*
X142666Y92122D02*
X143666D01*
X144666Y93122D01*
X145666Y92122D01*
X146666D01*
Y93122D01*
X145666Y94122D01*
X146666Y95122D01*
Y96122D01*
X145666D01*
X144666Y95122D01*
X143666Y96122D01*
X142666D01*
Y95122D01*
X143666Y94122D01*
X142666Y93122D01*
Y92122D01*
X142807Y94693D02*
X143807D01*
X144807Y95693D01*
X145807Y94693D01*
X146807D01*
Y95693D01*
X145807Y96693D01*
X146807Y97693D01*
Y98693D01*
X145807D01*
X144807Y97693D01*
X143807Y98693D01*
X142807D01*
Y97693D01*
X143807Y96693D01*
X142807Y95693D01*
Y94693D01*
Y97268D02*
X143807D01*
X144807Y98268D01*
X145807Y97268D01*
X146807D01*
Y98268D01*
X145807Y99268D01*
X146807Y100268D01*
Y101268D01*
X145807D01*
X144807Y100268D01*
X143807Y101268D01*
X142807D01*
Y100268D01*
X143807Y99268D01*
X142807Y98268D01*
Y97268D01*
X142265Y99785D02*
X143265D01*
X144265Y100785D01*
X145265Y99785D01*
X146265D01*
Y100785D01*
X145265Y101785D01*
X146265Y102785D01*
Y103785D01*
X145265D01*
X144265Y102785D01*
X143265Y103785D01*
X142265D01*
Y102785D01*
X143265Y101785D01*
X142265Y100785D01*
Y99785D01*
Y102360D02*
X143265D01*
X144265Y103360D01*
X145265Y102360D01*
X146265D01*
Y103360D01*
X145265Y104360D01*
X146265Y105360D01*
Y106360D01*
X145265D01*
X144265Y105360D01*
X143265Y106360D01*
X142265D01*
Y105360D01*
X143265Y104360D01*
X142265Y103360D01*
Y102360D01*
X144213Y104043D02*
X145213D01*
X146213Y105043D01*
X147213Y104043D01*
X148213D01*
Y105043D01*
X147213Y106043D01*
X148213Y107043D01*
Y108043D01*
X147213D01*
X146213Y107043D01*
X145213Y108043D01*
X144213D01*
Y107043D01*
X145213Y106043D01*
X144213Y105043D01*
Y104043D01*
X149363D02*
X150363D01*
X151363Y105043D01*
X152363Y104043D01*
X153363D01*
Y105043D01*
X152363Y106043D01*
X153363Y107043D01*
Y108043D01*
X152363D01*
X151363Y107043D01*
X150363Y108043D01*
X149363D01*
Y107043D01*
X150363Y106043D01*
X149363Y105043D01*
Y104043D01*
X151510Y102623D02*
X152510D01*
X153510Y103623D01*
X154510Y102623D01*
X155510D01*
Y103623D01*
X154510Y104623D01*
X155510Y105623D01*
Y106623D01*
X154510D01*
X153510Y105623D01*
X152510Y106623D01*
X151510D01*
Y105623D01*
X152510Y104623D01*
X151510Y103623D01*
Y102623D01*
X152856Y100427D02*
X153856D01*
X154856Y101427D01*
X155856Y100427D01*
X156856D01*
Y101427D01*
X155856Y102427D01*
X156856Y103428D01*
Y104428D01*
X155856D01*
X154856Y103428D01*
X153856Y104428D01*
X152856D01*
Y103428D01*
X153856Y102427D01*
X152856Y101427D01*
Y100427D01*
X155431D02*
X156431D01*
X157431Y101427D01*
X158431Y100427D01*
X159431D01*
Y101427D01*
X158431Y102427D01*
X159431Y103428D01*
Y104428D01*
X158431D01*
X157431Y103428D01*
X156431Y104428D01*
X155431D01*
Y103428D01*
X156431Y102427D01*
X155431Y101427D01*
Y100427D01*
X156427Y112057D02*
X157427D01*
X158427Y113057D01*
X159427Y112057D01*
X160427D01*
Y113057D01*
X159427Y114057D01*
X160427Y115057D01*
Y116057D01*
X159427D01*
X158427Y115057D01*
X157427Y116057D01*
X156427D01*
Y115057D01*
X157427Y114057D01*
X156427Y113057D01*
Y112057D01*
X153852Y112108D02*
X154852D01*
X155852Y113108D01*
X156852Y112108D01*
X157852D01*
Y113108D01*
X156852Y114108D01*
X157852Y115108D01*
Y116108D01*
X156852D01*
X155852Y115108D01*
X154852Y116108D01*
X153852D01*
Y115108D01*
X154852Y114108D01*
X153852Y113108D01*
Y112108D01*
X151544Y110967D02*
X152544D01*
X153544Y111967D01*
X154544Y110967D01*
X155544D01*
Y111967D01*
X154544Y112967D01*
X155544Y113967D01*
Y114967D01*
X154544D01*
X153544Y113967D01*
X152544Y114967D01*
X151544D01*
Y113967D01*
X152544Y112967D01*
X151544Y111967D01*
Y110967D01*
X150833Y108492D02*
X151833D01*
X152833Y109492D01*
X153833Y108492D01*
X154833D01*
Y109492D01*
X153833Y110492D01*
X154833Y111492D01*
Y112492D01*
X153833D01*
X152833Y111492D01*
X151833Y112492D01*
X150833D01*
Y111492D01*
X151833Y110492D01*
X150833Y109492D01*
Y108492D01*
X148258D02*
X149258D01*
X150258Y109492D01*
X151258Y108492D01*
X152258D01*
Y109492D01*
X151258Y110492D01*
X152258Y111492D01*
Y112492D01*
X151258D01*
X150258Y111492D01*
X149258Y112492D01*
X148258D01*
Y111492D01*
X149258Y110492D01*
X148258Y109492D01*
Y108492D01*
X145683D02*
X146683D01*
X147683Y109492D01*
X148683Y108492D01*
X149683D01*
Y109492D01*
X148683Y110492D01*
X149683Y111492D01*
Y112492D01*
X148683D01*
X147683Y111492D01*
X146683Y112492D01*
X145683D01*
Y111492D01*
X146683Y110492D01*
X145683Y109492D01*
Y108492D01*
X143108D02*
X144108D01*
X145108Y109492D01*
X146108Y108492D01*
X147108D01*
Y109492D01*
X146108Y110492D01*
X147108Y111492D01*
Y112492D01*
X146108D01*
X145108Y111492D01*
X144108Y112492D01*
X143108D01*
Y111492D01*
X144108Y110492D01*
X143108Y109492D01*
Y108492D01*
X142265Y110925D02*
X143265D01*
X144265Y111925D01*
X145265Y110925D01*
X146265D01*
Y111925D01*
X145265Y112925D01*
X146265Y113925D01*
Y114925D01*
X145265D01*
X144265Y113925D01*
X143265Y114925D01*
X142265D01*
Y113925D01*
X143265Y112925D01*
X142265Y111925D01*
Y110925D01*
X142599Y113478D02*
X143599D01*
X144599Y114478D01*
X145599Y113478D01*
X146599D01*
Y114478D01*
X145599Y115478D01*
X146599Y116478D01*
Y117478D01*
X145599D01*
X144599Y116478D01*
X143599Y117478D01*
X142599D01*
Y116478D01*
X143599Y115478D01*
X142599Y114478D01*
Y113478D01*
X142807Y116044D02*
X143807D01*
X144807Y117044D01*
X145807Y116044D01*
X146807D01*
Y117044D01*
X145807Y118044D01*
X146807Y119044D01*
Y120044D01*
X145807D01*
X144807Y119044D01*
X143807Y120044D01*
X142807D01*
Y119044D01*
X143807Y118044D01*
X142807Y117044D01*
Y116044D01*
X163276Y111609D02*
X164276D01*
X165276Y112609D01*
X166276Y111609D01*
X167276D01*
Y112609D01*
X166276Y113609D01*
X167276Y114609D01*
Y115609D01*
X166276D01*
X165276Y114609D01*
X164276Y115609D01*
X163276D01*
Y114609D01*
X164276Y113609D01*
X163276Y112609D01*
Y111609D01*
X161100Y112200D02*
X162100D01*
X163100Y113200D01*
X164100Y112200D01*
X165100D01*
Y113200D01*
X164100Y114200D01*
X165100Y115200D01*
Y116200D01*
X164100D01*
X163100Y115200D01*
X162100Y116200D01*
X161100D01*
Y115200D01*
X162100Y114200D01*
X161100Y113200D01*
Y112200D01*
X158600Y112300D02*
X159600D01*
X160600Y113300D01*
X161600Y112300D01*
X162600D01*
Y113300D01*
X161600Y114300D01*
X162600Y115300D01*
Y116300D01*
X161600D01*
X160600Y115300D01*
X159600Y116300D01*
X158600D01*
Y115300D01*
X159600Y114300D01*
X158600Y113300D01*
Y112300D01*
X157613Y109342D02*
X158613D01*
X159613Y110342D01*
X160613Y109342D01*
X161613D01*
Y110342D01*
X160613Y111342D01*
X161613Y112341D01*
Y113341D01*
X160613D01*
X159613Y112341D01*
X158613Y113341D01*
X157613D01*
Y112341D01*
X158613Y111342D01*
X157613Y110342D01*
Y109342D01*
X157709Y106769D02*
X158709D01*
X159709Y107768D01*
X160709Y106769D01*
X161709D01*
Y107768D01*
X160709Y108768D01*
X161709Y109768D01*
Y110768D01*
X160709D01*
X159709Y109768D01*
X158709Y110768D01*
X157709D01*
Y109768D01*
X158709Y108768D01*
X157709Y107768D01*
Y106769D01*
X157613Y104195D02*
X158613D01*
X159613Y105195D01*
X160613Y104195D01*
X161613D01*
Y105195D01*
X160613Y106195D01*
X161613Y107195D01*
Y108195D01*
X160613D01*
X159613Y107195D01*
X158613Y108195D01*
X157613D01*
Y107195D01*
X158613Y106195D01*
X157613Y105195D01*
Y104195D01*
X157636Y101621D02*
X158636D01*
X159636Y102621D01*
X160636Y101621D01*
X161636D01*
Y102621D01*
X160636Y103621D01*
X161636Y104621D01*
Y105621D01*
X160636D01*
X159636Y104621D01*
X158636Y105621D01*
X157636D01*
Y104621D01*
X158636Y103621D01*
X157636Y102621D01*
Y101621D01*
X159918Y100427D02*
X160918D01*
X161918Y101427D01*
X162918Y100427D01*
X163918D01*
Y101427D01*
X162918Y102427D01*
X163918Y103428D01*
Y104428D01*
X162918D01*
X161918Y103428D01*
X160918Y104428D01*
X159918D01*
Y103428D01*
X160918Y102427D01*
X159918Y101427D01*
Y100427D01*
X162492Y100471D02*
X163492D01*
X164492Y101471D01*
X165492Y100471D01*
X166492D01*
Y101471D01*
X165492Y102471D01*
X166492Y103471D01*
Y104471D01*
X165492D01*
X164492Y103471D01*
X163492Y104471D01*
X162492D01*
Y103471D01*
X163492Y102471D01*
X162492Y101471D01*
Y100471D01*
X169687Y101549D02*
X170687D01*
X171687Y102549D01*
X172687Y101549D01*
X173687D01*
Y102549D01*
X172687Y103549D01*
X173687Y104549D01*
Y105549D01*
X172687D01*
X171687Y104549D01*
X170687Y105549D01*
X169687D01*
Y104549D01*
X170687Y103549D01*
X169687Y102549D01*
Y101549D01*
X170324Y104043D02*
X171324D01*
X172324Y105043D01*
X173324Y104043D01*
X174324D01*
Y105043D01*
X173324Y106043D01*
X174324Y107043D01*
Y108043D01*
X173324D01*
X172324Y107043D01*
X171324Y108043D01*
X170324D01*
Y107043D01*
X171324Y106043D01*
X170324Y105043D01*
Y104043D01*
X172899D02*
X173899D01*
X174899Y105043D01*
X175899Y104043D01*
X176899D01*
Y105043D01*
X175899Y106043D01*
X176899Y107043D01*
Y108043D01*
X175899D01*
X174899Y107043D01*
X173899Y108043D01*
X172899D01*
Y107043D01*
X173899Y106043D01*
X172899Y105043D01*
Y104043D01*
X175473D02*
X176473D01*
X177473Y105043D01*
X178473Y104043D01*
X179473D01*
Y105043D01*
X178473Y106043D01*
X179473Y107043D01*
Y108043D01*
X178473D01*
X177473Y107043D01*
X176473Y108043D01*
X175473D01*
Y107043D01*
X176473Y106043D01*
X175473Y105043D01*
Y104043D01*
X178048Y104036D02*
X179048D01*
X180048Y105036D01*
X181048Y104036D01*
X182048D01*
Y105036D01*
X181048Y106036D01*
X182048Y107036D01*
Y108036D01*
X181048D01*
X180048Y107036D01*
X179048Y108036D01*
X178048D01*
Y107036D01*
X179048Y106036D01*
X178048Y105036D01*
Y104036D01*
X180623D02*
X181623D01*
X182623Y105036D01*
X183623Y104036D01*
X184623D01*
Y105036D01*
X183623Y106036D01*
X184623Y107036D01*
Y108036D01*
X183623D01*
X182623Y107036D01*
X181623Y108036D01*
X180623D01*
Y107036D01*
X181623Y106036D01*
X180623Y105036D01*
Y104036D01*
X192384Y105056D02*
X193384D01*
X194384Y106056D01*
X195384Y105056D01*
X196384D01*
Y106056D01*
X195384Y107056D01*
X196384Y108056D01*
Y109056D01*
X195384D01*
X194384Y108056D01*
X193384Y109056D01*
X192384D01*
Y108056D01*
X193384Y107056D01*
X192384Y106056D01*
Y105056D01*
X192414Y107631D02*
X193414D01*
X194414Y108631D01*
X195414Y107631D01*
X196414D01*
Y108631D01*
X195414Y109631D01*
X196414Y110631D01*
Y111631D01*
X195414D01*
X194414Y110631D01*
X193414Y111631D01*
X192414D01*
Y110631D01*
X193414Y109631D01*
X192414Y108631D01*
Y107631D01*
X182011Y109167D02*
X183011D01*
X184011Y110167D01*
X185011Y109167D01*
X186011D01*
Y110167D01*
X185011Y111167D01*
X186011Y112167D01*
Y113167D01*
X185011D01*
X184011Y112167D01*
X183011Y113167D01*
X182011D01*
Y112167D01*
X183011Y111167D01*
X182011Y110167D01*
Y109167D01*
X179528Y108485D02*
X180528D01*
X181528Y109485D01*
X182528Y108485D01*
X183528D01*
Y109485D01*
X182528Y110485D01*
X183528Y111485D01*
Y112485D01*
X182528D01*
X181528Y111485D01*
X180528Y112485D01*
X179528D01*
Y111485D01*
X180528Y110485D01*
X179528Y109485D01*
Y108485D01*
X176953Y108492D02*
X177953D01*
X178953Y109492D01*
X179953Y108492D01*
X180953D01*
Y109492D01*
X179953Y110492D01*
X180953Y111492D01*
Y112492D01*
X179953D01*
X178953Y111492D01*
X177953Y112492D01*
X176953D01*
Y111492D01*
X177953Y110492D01*
X176953Y109492D01*
Y108492D01*
X174379D02*
X175379D01*
X176379Y109492D01*
X177378Y108492D01*
X178378D01*
Y109492D01*
X177378Y110492D01*
X178378Y111492D01*
Y112492D01*
X177378D01*
X176379Y111492D01*
X175379Y112492D01*
X174379D01*
Y111492D01*
X175379Y110492D01*
X174379Y109492D01*
Y108492D01*
X171804D02*
X172804D01*
X173804Y109492D01*
X174804Y108492D01*
X175804D01*
Y109492D01*
X174804Y110492D01*
X175804Y111492D01*
Y112492D01*
X174804D01*
X173804Y111492D01*
X172804Y112492D01*
X171804D01*
Y111492D01*
X172804Y110492D01*
X171804Y109492D01*
Y108492D01*
X169687Y109958D02*
X170687D01*
X171687Y110958D01*
X172687Y109958D01*
X173687D01*
Y110958D01*
X172687Y111958D01*
X173687Y112958D01*
Y113958D01*
X172687D01*
X171687Y112958D01*
X170687Y113958D01*
X169687D01*
Y112958D01*
X170687Y111958D01*
X169687Y110958D01*
Y109958D01*
X-1100Y102000D02*
X-100D01*
X900Y103000D01*
X1900Y102000D01*
X2900D01*
Y103000D01*
X1900Y104000D01*
X2900Y105000D01*
Y106000D01*
X1900D01*
X900Y105000D01*
X-100Y106000D01*
X-1100D01*
Y105000D01*
X-100Y104000D01*
X-1100Y103000D01*
Y102000D01*
X26359Y144246D02*
X27359D01*
X28359Y145246D01*
X29359Y144246D01*
X30359D01*
Y145246D01*
X29359Y146246D01*
X30359Y147246D01*
Y148246D01*
X29359D01*
X28359Y147246D01*
X27359Y148246D01*
X26359D01*
Y147246D01*
X27359Y146246D01*
X26359Y145246D01*
Y144246D01*
X24268Y142743D02*
X25268D01*
X26268Y143743D01*
X27268Y142743D01*
X28268D01*
Y143743D01*
X27268Y144743D01*
X28268Y145743D01*
Y146743D01*
X27268D01*
X26268Y145743D01*
X25268Y146743D01*
X24268D01*
Y145743D01*
X25268Y144743D01*
X24268Y143743D01*
Y142743D01*
X23289Y140361D02*
X24289D01*
X25289Y141361D01*
X26289Y140361D01*
X27289D01*
Y141361D01*
X26289Y142361D01*
X27289Y143361D01*
Y144361D01*
X26289D01*
X25289Y143361D01*
X24289Y144361D01*
X23289D01*
Y143361D01*
X24289Y142361D01*
X23289Y141361D01*
Y140361D01*
X23718Y137823D02*
X24718D01*
X25718Y138823D01*
X26718Y137823D01*
X27718D01*
Y138823D01*
X26718Y139823D01*
X27718Y140823D01*
Y141823D01*
X26718D01*
X25718Y140823D01*
X24718Y141823D01*
X23718D01*
Y140823D01*
X24718Y139823D01*
X23718Y138823D01*
Y137823D01*
X25424Y135894D02*
X26424D01*
X27424Y136894D01*
X28424Y135894D01*
X29424D01*
Y136894D01*
X28424Y137894D01*
X29424Y138894D01*
Y139894D01*
X28424D01*
X27424Y138894D01*
X26424Y139894D01*
X25424D01*
Y138894D01*
X26424Y137894D01*
X25424Y136894D01*
Y135894D01*
X25729Y133337D02*
X26729D01*
X27729Y134337D01*
X28729Y133337D01*
X29729D01*
Y134337D01*
X28729Y135337D01*
X29729Y136337D01*
Y137337D01*
X28729D01*
X27729Y136337D01*
X26729Y137337D01*
X25729D01*
Y136337D01*
X26729Y135337D01*
X25729Y134337D01*
Y133337D01*
Y130763D02*
X26729D01*
X27729Y131763D01*
X28729Y130763D01*
X29729D01*
Y131763D01*
X28729Y132763D01*
X29729Y133763D01*
Y134763D01*
X28729D01*
X27729Y133763D01*
X26729Y134763D01*
X25729D01*
Y133763D01*
X26729Y132763D01*
X25729Y131763D01*
Y130763D01*
Y128188D02*
X26729D01*
X27729Y129188D01*
X28729Y128188D01*
X29729D01*
Y129188D01*
X28729Y130188D01*
X29729Y131188D01*
Y132188D01*
X28729D01*
X27729Y131188D01*
X26729Y132188D01*
X25729D01*
Y131188D01*
X26729Y130188D01*
X25729Y129188D01*
Y128188D01*
Y125613D02*
X26729D01*
X27729Y126613D01*
X28729Y125613D01*
X29729D01*
Y126613D01*
X28729Y127613D01*
X29729Y128613D01*
Y129613D01*
X28729D01*
X27729Y128613D01*
X26729Y129613D01*
X25729D01*
Y128613D01*
X26729Y127613D01*
X25729Y126613D01*
Y125613D01*
Y123038D02*
X26729D01*
X27729Y124038D01*
X28729Y123038D01*
X29729D01*
Y124038D01*
X28729Y125038D01*
X29729Y126038D01*
Y127038D01*
X28729D01*
X27729Y126038D01*
X26729Y127038D01*
X25729D01*
Y126038D01*
X26729Y125038D01*
X25729Y124038D01*
Y123038D01*
Y120463D02*
X26729D01*
X27729Y121463D01*
X28729Y120463D01*
X29729D01*
Y121463D01*
X28729Y122463D01*
X29729Y123463D01*
Y124463D01*
X28729D01*
X27729Y123463D01*
X26729Y124463D01*
X25729D01*
Y123463D01*
X26729Y122463D01*
X25729Y121463D01*
Y120463D01*
Y117888D02*
X26729D01*
X27729Y118888D01*
X28729Y117888D01*
X29729D01*
Y118888D01*
X28729Y119888D01*
X29729Y120888D01*
Y121888D01*
X28729D01*
X27729Y120888D01*
X26729Y121888D01*
X25729D01*
Y120888D01*
X26729Y119888D01*
X25729Y118888D01*
Y117888D01*
Y115314D02*
X26729D01*
X27729Y116314D01*
X28729Y115314D01*
X29729D01*
Y116314D01*
X28729Y117314D01*
X29729Y118314D01*
Y119314D01*
X28729D01*
X27729Y118314D01*
X26729Y119314D01*
X25729D01*
Y118314D01*
X26729Y117314D01*
X25729Y116314D01*
Y115314D01*
Y112739D02*
X26729D01*
X27729Y113739D01*
X28729Y112739D01*
X29729D01*
Y113739D01*
X28729Y114739D01*
X29729Y115739D01*
Y116739D01*
X28729D01*
X27729Y115739D01*
X26729Y116739D01*
X25729D01*
Y115739D01*
X26729Y114739D01*
X25729Y113739D01*
Y112739D01*
X24778Y110346D02*
X25778D01*
X26778Y111346D01*
X27778Y110346D01*
X28778D01*
Y111346D01*
X27778Y112346D01*
X28778Y113346D01*
Y114346D01*
X27778D01*
X26778Y113346D01*
X25778Y114346D01*
X24778D01*
Y113346D01*
X25778Y112346D01*
X24778Y111346D01*
Y110346D01*
X23581Y108066D02*
X24581D01*
X25581Y109066D01*
X26581Y108066D01*
X27581D01*
Y109066D01*
X26581Y110066D01*
X27581Y111066D01*
Y112066D01*
X26581D01*
X25581Y111066D01*
X24581Y112066D01*
X23581D01*
Y111066D01*
X24581Y110066D01*
X23581Y109066D01*
Y108066D01*
X21006D02*
X22006D01*
X23006Y109066D01*
X24006Y108066D01*
X25006D01*
Y109066D01*
X24006Y110066D01*
X25006Y111066D01*
Y112066D01*
X24006D01*
X23006Y111066D01*
X22006Y112066D01*
X21006D01*
Y111066D01*
X22006Y110066D01*
X21006Y109066D01*
Y108066D01*
X18431D02*
X19431D01*
X20431Y109066D01*
X21431Y108066D01*
X22431D01*
Y109066D01*
X21431Y110066D01*
X22431Y111066D01*
Y112066D01*
X21431D01*
X20431Y111066D01*
X19431Y112066D01*
X18431D01*
Y111066D01*
X19431Y110066D01*
X18431Y109066D01*
Y108066D01*
X15857D02*
X16857D01*
X17857Y109066D01*
X18857Y108066D01*
X19857D01*
Y109066D01*
X18857Y110066D01*
X19857Y111066D01*
Y112066D01*
X18857D01*
X17857Y111066D01*
X16857Y112066D01*
X15857D01*
Y111066D01*
X16857Y110066D01*
X15857Y109066D01*
Y108066D01*
X13289Y108259D02*
X14289D01*
X15289Y109259D01*
X16289Y108259D01*
X17289D01*
Y109259D01*
X16289Y110259D01*
X17289Y111259D01*
Y112259D01*
X16289D01*
X15289Y111259D01*
X14289Y112259D01*
X13289D01*
Y111259D01*
X14289Y110259D01*
X13289Y109259D01*
Y108259D01*
X12053Y110518D02*
X13053D01*
X14053Y111518D01*
X15053Y110518D01*
X16053D01*
Y111518D01*
X15053Y112518D01*
X16053Y113518D01*
Y114518D01*
X15053D01*
X14053Y113518D01*
X13053Y114518D01*
X12053D01*
Y113518D01*
X13053Y112518D01*
X12053Y111518D01*
Y110518D01*
X9478Y110533D02*
X10478D01*
X11478Y111533D01*
X12478Y110533D01*
X13478D01*
Y111533D01*
X12478Y112533D01*
X13478Y113533D01*
Y114533D01*
X12478D01*
X11478Y113533D01*
X10478Y114533D01*
X9478D01*
Y113533D01*
X10478Y112533D01*
X9478Y111533D01*
Y110533D01*
X6903D02*
X7903D01*
X8903Y111533D01*
X9903Y110533D01*
X10903D01*
Y111533D01*
X9903Y112533D01*
X10903Y113533D01*
Y114533D01*
X9903D01*
X8903Y113533D01*
X7903Y114533D01*
X6903D01*
Y113533D01*
X7903Y112533D01*
X6903Y111533D01*
Y110533D01*
X4328D02*
X5328D01*
X6328Y111533D01*
X7328Y110533D01*
X8328D01*
Y111533D01*
X7328Y112533D01*
X8328Y113533D01*
Y114533D01*
X7328D01*
X6328Y113533D01*
X5328Y114533D01*
X4328D01*
Y113533D01*
X5328Y112533D01*
X4328Y111533D01*
Y110533D01*
X1754D02*
X2754D01*
X3754Y111533D01*
X4754Y110533D01*
X5754D01*
Y111533D01*
X4754Y112533D01*
X5754Y113533D01*
Y114533D01*
X4754D01*
X3754Y113533D01*
X2754Y114533D01*
X1754D01*
Y113533D01*
X2754Y112533D01*
X1754Y111533D01*
Y110533D01*
X-821D02*
X179D01*
X1179Y111533D01*
X2179Y110533D01*
X3179D01*
Y111533D01*
X2179Y112533D01*
X3179Y113533D01*
Y114533D01*
X2179D01*
X1179Y113533D01*
X179Y114533D01*
X-821D01*
Y113533D01*
X179Y112533D01*
X-821Y111533D01*
Y110533D01*
X1200Y102000D02*
X2200D01*
X3200Y103000D01*
X4200Y102000D01*
X5200D01*
Y103000D01*
X4200Y104000D01*
X5200Y105000D01*
Y106000D01*
X4200D01*
X3200Y105000D01*
X2200Y106000D01*
X1200D01*
Y105000D01*
X2200Y104000D01*
X1200Y103000D01*
Y102000D01*
X3415Y102002D02*
X4415D01*
X5415Y103002D01*
X6415Y102002D01*
X7415D01*
Y103002D01*
X6415Y104002D01*
X7415Y105002D01*
Y106002D01*
X6415D01*
X5415Y105002D01*
X4415Y106002D01*
X3415D01*
Y105002D01*
X4415Y104002D01*
X3415Y103002D01*
Y102002D01*
X5990D02*
X6989D01*
X7989Y103002D01*
X8990Y102002D01*
X9990D01*
Y103002D01*
X8990Y104002D01*
X9990Y105002D01*
Y106002D01*
X8990D01*
X7989Y105002D01*
X6989Y106002D01*
X5990D01*
Y105002D01*
X6989Y104002D01*
X5990Y103002D01*
Y102002D01*
X8564D02*
X9564D01*
X10564Y103002D01*
X11564Y102002D01*
X12564D01*
Y103002D01*
X11564Y104002D01*
X12564Y105002D01*
Y106002D01*
X11564D01*
X10564Y105002D01*
X9564Y106002D01*
X8564D01*
Y105002D01*
X9564Y104002D01*
X8564Y103002D01*
Y102002D01*
X11139D02*
X12139D01*
X13139Y103002D01*
X14139Y102002D01*
X15139D01*
Y103002D01*
X14139Y104002D01*
X15139Y105002D01*
Y106002D01*
X14139D01*
X13139Y105002D01*
X12139Y106002D01*
X11139D01*
Y105002D01*
X12139Y104002D01*
X11139Y103002D01*
Y102002D01*
X13289Y103419D02*
X14289D01*
X15289Y104419D01*
X16289Y103419D01*
X17289D01*
Y104419D01*
X16289Y105419D01*
X17289Y106419D01*
Y107419D01*
X16289D01*
X15289Y106419D01*
X14289Y107419D01*
X13289D01*
Y106419D01*
X14289Y105419D01*
X13289Y104419D01*
Y103419D01*
X15640Y104469D02*
X16640D01*
X17640Y105469D01*
X18640Y104469D01*
X19640D01*
Y105469D01*
X18640Y106469D01*
X19640Y107469D01*
Y108469D01*
X18640D01*
X17640Y107469D01*
X16640Y108469D01*
X15640D01*
Y107469D01*
X16640Y106469D01*
X15640Y105469D01*
Y104469D01*
X18215D02*
X19215D01*
X20215Y105469D01*
X21215Y104469D01*
X22215D01*
Y105469D01*
X21215Y106469D01*
X22215Y107469D01*
Y108469D01*
X21215D01*
X20215Y107469D01*
X19215Y108469D01*
X18215D01*
Y107469D01*
X19215Y106469D01*
X18215Y105469D01*
Y104469D01*
X20790D02*
X21790D01*
X22790Y105469D01*
X23790Y104469D01*
X24790D01*
Y105469D01*
X23790Y106469D01*
X24790Y107469D01*
Y108469D01*
X23790D01*
X22790Y107469D01*
X21790Y108469D01*
X20790D01*
Y107469D01*
X21790Y106469D01*
X20790Y105469D01*
Y104469D01*
X23365D02*
X24364D01*
X25365Y105469D01*
X26364Y104469D01*
X27365D01*
Y105469D01*
X26364Y106469D01*
X27365Y107469D01*
Y108469D01*
X26364D01*
X25365Y107469D01*
X24364Y108469D01*
X23365D01*
Y107469D01*
X24364Y106469D01*
X23365Y105469D01*
Y104469D01*
X25919Y104143D02*
X26919D01*
X27919Y105143D01*
X28919Y104143D01*
X29919D01*
Y105143D01*
X28919Y106143D01*
X29919Y107143D01*
Y108143D01*
X28919D01*
X27919Y107143D01*
X26919Y108143D01*
X25919D01*
Y107143D01*
X26919Y106143D01*
X25919Y105143D01*
Y104143D01*
X28493Y104109D02*
X29493D01*
X30493Y105109D01*
X31493Y104109D01*
X32493D01*
Y105109D01*
X31493Y106109D01*
X32493Y107109D01*
Y108109D01*
X31493D01*
X30493Y107109D01*
X29493Y108109D01*
X28493D01*
Y107109D01*
X29493Y106109D01*
X28493Y105109D01*
Y104109D01*
X31041Y103735D02*
X32041D01*
X33041Y104735D01*
X34041Y103735D01*
X35041D01*
Y104735D01*
X34041Y105735D01*
X35041Y106735D01*
Y107735D01*
X34041D01*
X33041Y106735D01*
X32041Y107735D01*
X31041D01*
Y106735D01*
X32041Y105735D01*
X31041Y104735D01*
Y103735D01*
X33615D02*
X34615D01*
X35615Y104735D01*
X36615Y103735D01*
X37615D01*
Y104735D01*
X36615Y105735D01*
X37615Y106735D01*
Y107735D01*
X36615D01*
X35615Y106735D01*
X34615Y107735D01*
X33615D01*
Y106735D01*
X34615Y105735D01*
X33615Y104735D01*
Y103735D01*
X36190D02*
X37190D01*
X38190Y104735D01*
X39190Y103735D01*
X40190D01*
Y104735D01*
X39190Y105735D01*
X40190Y106735D01*
Y107735D01*
X39190D01*
X38190Y106735D01*
X37190Y107735D01*
X36190D01*
Y106735D01*
X37190Y105735D01*
X36190Y104735D01*
Y103735D01*
X38658Y104469D02*
X39658D01*
X40658Y105469D01*
X41658Y104469D01*
X42658D01*
Y105469D01*
X41658Y106469D01*
X42658Y107469D01*
Y108469D01*
X41658D01*
X40658Y107469D01*
X39658Y108469D01*
X38658D01*
Y107469D01*
X39658Y106469D01*
X38658Y105469D01*
Y104469D01*
X41233D02*
X42233D01*
X43233Y105469D01*
X44233Y104469D01*
X45233D01*
Y105469D01*
X44233Y106469D01*
X45233Y107469D01*
Y108469D01*
X44233D01*
X43233Y107469D01*
X42233Y108469D01*
X41233D01*
Y107469D01*
X42233Y106469D01*
X41233Y105469D01*
Y104469D01*
X51675Y106578D02*
X52675D01*
X53675Y107578D01*
X54675Y106578D01*
X55675D01*
Y107578D01*
X54675Y108578D01*
X55675Y109578D01*
Y110578D01*
X54675D01*
X53675Y109578D01*
X52675Y110578D01*
X51675D01*
Y109578D01*
X52675Y108578D01*
X51675Y107578D01*
Y106578D01*
X40423Y108066D02*
X41423D01*
X42423Y109066D01*
X43423Y108066D01*
X44423D01*
Y109066D01*
X43423Y110066D01*
X44423Y111066D01*
Y112066D01*
X43423D01*
X42423Y111066D01*
X41423Y112066D01*
X40423D01*
Y111066D01*
X41423Y110066D01*
X40423Y109066D01*
Y108066D01*
X37887Y108507D02*
X38886D01*
X39887Y109507D01*
X40887Y108507D01*
X41886D01*
Y109507D01*
X40887Y110507D01*
X41886Y111507D01*
Y112507D01*
X40887D01*
X39887Y111507D01*
X38886Y112507D01*
X37887D01*
Y111507D01*
X38886Y110507D01*
X37887Y109507D01*
Y108507D01*
X35329Y108801D02*
X36329D01*
X37328Y109801D01*
X38328Y108801D01*
X39329D01*
Y109801D01*
X38328Y110801D01*
X39329Y111801D01*
Y112801D01*
X38328D01*
X37328Y111801D01*
X36329Y112801D01*
X35329D01*
Y111801D01*
X36329Y110801D01*
X35329Y109801D01*
Y108801D01*
X32754D02*
X33754D01*
X34754Y109801D01*
X35754Y108801D01*
X36754D01*
Y109801D01*
X35754Y110801D01*
X36754Y111801D01*
Y112801D01*
X35754D01*
X34754Y111801D01*
X33754Y112801D01*
X32754D01*
Y111801D01*
X33754Y110801D01*
X32754Y109801D01*
Y108801D01*
X30187Y108592D02*
X31187D01*
X32187Y109592D01*
X33187Y108592D01*
X34187D01*
Y109592D01*
X33187Y110592D01*
X34187Y111592D01*
Y112592D01*
X33187D01*
X32187Y111592D01*
X31187Y112592D01*
X30187D01*
Y111592D01*
X31187Y110592D01*
X30187Y109592D01*
Y108592D01*
X30254Y111166D02*
X31254D01*
X32254Y112166D01*
X33254Y111166D01*
X34254D01*
Y112166D01*
X33254Y113166D01*
X34254Y114166D01*
Y115166D01*
X33254D01*
X32254Y114166D01*
X31254Y115166D01*
X30254D01*
Y114166D01*
X31254Y113166D01*
X30254Y112166D01*
Y111166D01*
X29326Y113568D02*
X30326D01*
X31326Y114568D01*
X32326Y113568D01*
X33326D01*
Y114568D01*
X32326Y115568D01*
X33326Y116568D01*
Y117568D01*
X32326D01*
X31326Y116568D01*
X30326Y117568D01*
X29326D01*
Y116568D01*
X30326Y115568D01*
X29326Y114568D01*
Y113568D01*
Y116142D02*
X30326D01*
X31326Y117142D01*
X32326Y116142D01*
X33326D01*
Y117142D01*
X32326Y118142D01*
X33326Y119142D01*
Y120142D01*
X32326D01*
X31326Y119142D01*
X30326Y120142D01*
X29326D01*
Y119142D01*
X30326Y118142D01*
X29326Y117142D01*
Y116142D01*
Y118717D02*
X30326D01*
X31326Y119717D01*
X32326Y118717D01*
X33326D01*
Y119717D01*
X32326Y120717D01*
X33326Y121717D01*
Y122717D01*
X32326D01*
X31326Y121717D01*
X30326Y122717D01*
X29326D01*
Y121717D01*
X30326Y120717D01*
X29326Y119717D01*
Y118717D01*
Y121292D02*
X30326D01*
X31326Y122292D01*
X32326Y121292D01*
X33326D01*
Y122292D01*
X32326Y123292D01*
X33326Y124292D01*
Y125292D01*
X32326D01*
X31326Y124292D01*
X30326Y125292D01*
X29326D01*
Y124292D01*
X30326Y123292D01*
X29326Y122292D01*
Y121292D01*
Y123867D02*
X30326D01*
X31326Y124867D01*
X32326Y123867D01*
X33326D01*
Y124867D01*
X32326Y125867D01*
X33326Y126867D01*
Y127867D01*
X32326D01*
X31326Y126867D01*
X30326Y127867D01*
X29326D01*
Y126867D01*
X30326Y125867D01*
X29326Y124867D01*
Y123867D01*
Y126442D02*
X30326D01*
X31326Y127442D01*
X32326Y126442D01*
X33326D01*
Y127442D01*
X32326Y128442D01*
X33326Y129442D01*
Y130442D01*
X32326D01*
X31326Y129442D01*
X30326Y130442D01*
X29326D01*
Y129442D01*
X30326Y128442D01*
X29326Y127442D01*
Y126442D01*
Y129016D02*
X30326D01*
X31326Y130016D01*
X32326Y129016D01*
X33326D01*
Y130016D01*
X32326Y131016D01*
X33326Y132016D01*
Y133016D01*
X32326D01*
X31326Y132016D01*
X30326Y133016D01*
X29326D01*
Y132016D01*
X30326Y131016D01*
X29326Y130016D01*
Y129016D01*
Y131591D02*
X30326D01*
X31326Y132591D01*
X32326Y131591D01*
X33326D01*
Y132591D01*
X32326Y133591D01*
X33326Y134591D01*
Y135591D01*
X32326D01*
X31326Y134591D01*
X30326Y135591D01*
X29326D01*
Y134591D01*
X30326Y133591D01*
X29326Y132591D01*
Y131591D01*
Y134166D02*
X30326D01*
X31326Y135166D01*
X32326Y134166D01*
X33326D01*
Y135166D01*
X32326Y136166D01*
X33326Y137166D01*
Y138166D01*
X32326D01*
X31326Y137166D01*
X30326Y138166D01*
X29326D01*
Y137166D01*
X30326Y136166D01*
X29326Y135166D01*
Y134166D01*
X30861Y136233D02*
X31861D01*
X32861Y137233D01*
X33861Y136233D01*
X34861D01*
Y137233D01*
X33861Y138233D01*
X34861Y139233D01*
Y140233D01*
X33861D01*
X32861Y139233D01*
X31861Y140233D01*
X30861D01*
Y139233D01*
X31861Y138233D01*
X30861Y137233D01*
Y136233D01*
X32339Y138342D02*
X33339D01*
X34339Y139342D01*
X35339Y138342D01*
X36339D01*
Y139342D01*
X35339Y140342D01*
X36339Y141342D01*
Y142342D01*
X35339D01*
X34339Y141342D01*
X33339Y142342D01*
X32339D01*
Y141342D01*
X33339Y140342D01*
X32339Y139342D01*
Y138342D01*
X32477Y140913D02*
X33477D01*
X34477Y141913D01*
X35477Y140913D01*
X36477D01*
Y141913D01*
X35477Y142913D01*
X36477Y143913D01*
Y144913D01*
X35477D01*
X34477Y143913D01*
X33477Y144913D01*
X32477D01*
Y143913D01*
X33477Y142913D01*
X32477Y141913D01*
Y140913D01*
X31214Y143156D02*
X32214D01*
X33214Y144156D01*
X34214Y143156D01*
X35214D01*
Y144156D01*
X34214Y145156D01*
X35214Y146156D01*
Y147156D01*
X34214D01*
X33214Y146156D01*
X32214Y147156D01*
X31214D01*
Y146156D01*
X32214Y145156D01*
X31214Y144156D01*
Y143156D01*
X28966Y144412D02*
X29966D01*
X30966Y145412D01*
X31966Y144412D01*
X32966D01*
Y145412D01*
X31966Y146412D01*
X32966Y147412D01*
Y148412D01*
X31966D01*
X30966Y147412D01*
X29966Y148412D01*
X28966D01*
Y147412D01*
X29966Y146412D01*
X28966Y145412D01*
Y144412D01*
X148606Y119079D02*
Y118079D01*
X150606D01*
Y119079D01*
X151606D01*
Y121079D01*
X150606D01*
Y122079D01*
X148606D01*
Y121079D01*
X147606D01*
Y119079D01*
X148606D01*
X105693Y107661D02*
Y106661D01*
X107693D01*
Y107661D01*
X108693D01*
Y109661D01*
X107693D01*
Y110661D01*
X105693D01*
Y109661D01*
X104693D01*
Y107661D01*
X105693D01*
X168752Y128484D02*
Y127484D01*
X170752D01*
Y128484D01*
X171752D01*
Y130484D01*
X170752D01*
Y131484D01*
X168752D01*
Y130484D01*
X167752D01*
Y128484D01*
X168752D01*
X96244Y67110D02*
Y66110D01*
X98244D01*
Y67110D01*
X99244D01*
Y69110D01*
X98244D01*
Y70110D01*
X96244D01*
Y69110D01*
X95244D01*
Y67110D01*
X96244D01*
X128921Y153331D02*
Y152331D01*
X130921D01*
Y153331D01*
X131921D01*
Y155331D01*
X130921D01*
Y156331D01*
X128921D01*
Y155331D01*
X127921D01*
Y153331D01*
X128921D01*
X82858Y123902D02*
Y122902D01*
X84858D01*
Y123902D01*
X85858D01*
Y125902D01*
X84858D01*
Y126902D01*
X82858D01*
Y125902D01*
X81858D01*
Y123902D01*
X82858D01*
X92701Y149000D02*
Y148000D01*
X94701D01*
Y149000D01*
X95701D01*
Y151000D01*
X94701D01*
Y152000D01*
X92701D01*
Y151000D01*
X91701D01*
Y149000D01*
X92701D01*
X196244Y138705D02*
Y137705D01*
X198244D01*
Y138705D01*
X199244D01*
Y140705D01*
X198244D01*
Y141705D01*
X196244D01*
Y140705D01*
X195244D01*
Y138705D01*
X196244D01*
X190339Y156874D02*
Y155874D01*
X192339D01*
Y156874D01*
X193339D01*
Y158874D01*
X192339D01*
Y159874D01*
X190339D01*
Y158874D01*
X189339D01*
Y156874D01*
X190339D01*
D75*
X206724Y91260D02*
G03*
X206724Y91260I-2000J0D01*
G01*
Y125276D02*
G03*
X206724Y125276I-2000J0D01*
G01*
M02*
