G04*
G04 #@! TF.GenerationSoftware,Altium Limited,Altium Designer,24.9.1 (31)*
G04*
G04 Layer_Color=65535*
%FSLAX25Y25*%
%MOIN*%
G70*
G04*
G04 #@! TF.SameCoordinates,A3C4BDD5-98FE-4EBF-97C8-16CFD852CAFA*
G04*
G04*
G04 #@! TF.FilePolarity,Positive*
G04*
G01*
G75*
%ADD10C,0.00787*%
%ADD11C,0.00984*%
%ADD12C,0.01004*%
%ADD13C,0.01000*%
%ADD14C,0.02362*%
%ADD15C,0.00500*%
%ADD16C,0.00394*%
%ADD17C,0.00602*%
D10*
X86024Y73524D02*
X85236D01*
X86024D01*
X180512Y96555D02*
X179724D01*
X180512D01*
X16929Y108268D02*
X16142D01*
X16929D01*
X156693Y162008D02*
X170079D01*
X156693Y135630D02*
X170079D01*
X156693D02*
Y162008D01*
X170079Y135630D02*
Y162008D01*
X124016Y101969D02*
X143701D01*
X124016Y114567D02*
X143701D01*
X124016Y101969D02*
Y114567D01*
X143701Y101969D02*
Y114567D01*
X136870Y20693D02*
Y25810D01*
X139428D01*
X140281Y24957D01*
Y23251D01*
X139428Y22399D01*
X136870D01*
X145397Y25810D02*
X141987D01*
Y20693D01*
X145397D01*
X141987Y23251D02*
X143692D01*
X150514Y24957D02*
X149661Y25810D01*
X147956D01*
X147103Y24957D01*
Y24104D01*
X147956Y23251D01*
X149661D01*
X150514Y22399D01*
Y21546D01*
X149661Y20693D01*
X147956D01*
X147103Y21546D01*
X160747Y24957D02*
X159894Y25810D01*
X158189D01*
X157336Y24957D01*
Y21546D01*
X158189Y20693D01*
X159894D01*
X160747Y21546D01*
X162452Y25810D02*
Y20693D01*
Y23251D01*
X163305Y24104D01*
X165011D01*
X165863Y23251D01*
Y20693D01*
X168421Y24104D02*
X170127D01*
X170980Y23251D01*
Y20693D01*
X168421D01*
X167569Y21546D01*
X168421Y22399D01*
X170980D01*
X172685Y18988D02*
Y24104D01*
X175243D01*
X176096Y23251D01*
Y21546D01*
X175243Y20693D01*
X172685D01*
X178655Y24957D02*
Y24104D01*
X177802D01*
X179507D01*
X178655D01*
Y21546D01*
X179507Y20693D01*
X184624D02*
X182918D01*
X182065Y21546D01*
Y23251D01*
X182918Y24104D01*
X184624D01*
X185476Y23251D01*
Y22399D01*
X182065D01*
X187182Y24104D02*
Y20693D01*
Y22399D01*
X188035Y23251D01*
X188887Y24104D01*
X189740D01*
X150787Y200394D02*
Y204723D01*
X152231Y203280D01*
X153674Y204723D01*
Y200394D01*
X155838Y203280D02*
X157281D01*
X158003Y202558D01*
Y200394D01*
X155838D01*
X155117Y201115D01*
X155838Y201837D01*
X158003D01*
X159446Y200394D02*
X160889D01*
X160168D01*
Y203280D01*
X159446D01*
X163054Y200394D02*
Y203280D01*
X165218D01*
X165940Y202558D01*
Y200394D01*
X167383Y204723D02*
Y200394D01*
X169548D01*
X170269Y201115D01*
Y201837D01*
Y202558D01*
X169548Y203280D01*
X167383D01*
X172434Y200394D02*
X173877D01*
X174599Y201115D01*
Y202558D01*
X173877Y203280D01*
X172434D01*
X171712Y202558D01*
Y201115D01*
X172434Y200394D01*
X176763Y203280D02*
X178206D01*
X178928Y202558D01*
Y200394D01*
X176763D01*
X176042Y201115D01*
X176763Y201837D01*
X178928D01*
X180371Y203280D02*
Y200394D01*
Y201837D01*
X181093Y202558D01*
X181814Y203280D01*
X182536D01*
X187586Y204723D02*
Y200394D01*
X185422D01*
X184700Y201115D01*
Y202558D01*
X185422Y203280D01*
X187586D01*
X78347Y207742D02*
Y212072D01*
X80511D01*
X81233Y211350D01*
Y209907D01*
X80511Y209185D01*
X78347D01*
X79790D02*
X81233Y207742D01*
X85562Y212072D02*
X82676D01*
Y209907D01*
X84119D01*
X82676D01*
Y207742D01*
X94221Y212072D02*
X91334D01*
Y209907D01*
X92778D01*
X91334D01*
Y207742D01*
X95664Y210629D02*
Y207742D01*
Y209185D01*
X96385Y209907D01*
X97107Y210629D01*
X97828D01*
X100715Y207742D02*
X102158D01*
X102879Y208464D01*
Y209907D01*
X102158Y210629D01*
X100715D01*
X99993Y209907D01*
Y208464D01*
X100715Y207742D01*
X104322D02*
Y210629D01*
X106487D01*
X107209Y209907D01*
Y207742D01*
X109373Y211350D02*
Y210629D01*
X108652D01*
X110095D01*
X109373D01*
Y208464D01*
X110095Y207742D01*
X119475Y212072D02*
X116589D01*
Y207742D01*
X119475D01*
X116589Y209907D02*
X118032D01*
X120918Y207742D02*
Y210629D01*
X123083D01*
X123804Y209907D01*
Y207742D01*
X128133Y212072D02*
Y207742D01*
X125969D01*
X125247Y208464D01*
Y209907D01*
X125969Y210629D01*
X128133D01*
X133906Y212072D02*
Y207742D01*
X135349Y209185D01*
X136792Y207742D01*
Y212072D01*
X138957Y207742D02*
X140400D01*
X141121Y208464D01*
Y209907D01*
X140400Y210629D01*
X138957D01*
X138235Y209907D01*
Y208464D01*
X138957Y207742D01*
X142565Y210629D02*
Y207742D01*
Y209185D01*
X143286Y209907D01*
X144008Y210629D01*
X144729D01*
X146894Y207742D02*
Y212072D01*
Y209185D02*
X149058Y210629D01*
X146894Y209185D02*
X149058Y207742D01*
X151223D02*
X153388D01*
X154109Y208464D01*
X153388Y209185D01*
X151945D01*
X151223Y209907D01*
X151945Y210629D01*
X154109D01*
X155552Y212072D02*
Y207742D01*
Y209907D01*
X156274Y210629D01*
X157717D01*
X158439Y209907D01*
Y207742D01*
X160603D02*
X162047D01*
X162768Y208464D01*
Y209907D01*
X162047Y210629D01*
X160603D01*
X159882Y209907D01*
Y208464D01*
X160603Y207742D01*
X164211Y206299D02*
Y210629D01*
X166376D01*
X167097Y209907D01*
Y208464D01*
X166376Y207742D01*
X164211D01*
X172870Y212072D02*
Y209185D01*
X174313Y207742D01*
X175756Y209185D01*
Y212072D01*
X177199Y207742D02*
X178642D01*
X177921D01*
Y212072D01*
X177199Y211350D01*
X180807Y207742D02*
Y208464D01*
X181528D01*
Y207742D01*
X180807D01*
X184415Y211350D02*
X185136Y212072D01*
X186579D01*
X187301Y211350D01*
Y208464D01*
X186579Y207742D01*
X185136D01*
X184415Y208464D01*
Y211350D01*
X112992Y193175D02*
Y197505D01*
X114435Y196062D01*
X115878Y197505D01*
Y193175D01*
X117321D02*
X118764D01*
X118043D01*
Y196062D01*
X117321D01*
X123815D02*
X121651D01*
X120929Y195340D01*
Y193897D01*
X121651Y193175D01*
X123815D01*
X125259Y197505D02*
Y193175D01*
Y195340D01*
X125980Y196062D01*
X127423D01*
X128145Y195340D01*
Y193175D01*
X130309Y196062D02*
X131753D01*
X132474Y195340D01*
Y193175D01*
X130309D01*
X129588Y193897D01*
X130309Y194618D01*
X132474D01*
X136082Y193175D02*
X134639D01*
X133917Y193897D01*
Y195340D01*
X134639Y196062D01*
X136082D01*
X136803Y195340D01*
Y194618D01*
X133917D01*
X138246Y193175D02*
X139690D01*
X138968D01*
Y197505D01*
X138246D01*
X146184D02*
X149070D01*
Y196783D01*
X146184Y193897D01*
Y193175D01*
X149070D01*
X150513Y197505D02*
Y193175D01*
Y195340D01*
X151234Y196062D01*
X152678D01*
X153399Y195340D01*
Y193175D01*
X157007D02*
X155564D01*
X154842Y193897D01*
Y195340D01*
X155564Y196062D01*
X157007D01*
X157728Y195340D01*
Y194618D01*
X154842D01*
X159171Y193175D02*
Y196062D01*
X161336D01*
X162058Y195340D01*
Y193175D01*
X164944Y191732D02*
X165665D01*
X166387Y192454D01*
Y196062D01*
X164222D01*
X163501Y195340D01*
Y193897D01*
X164222Y193175D01*
X166387D01*
X175046D02*
X172159D01*
X175046Y196062D01*
Y196783D01*
X174324Y197505D01*
X172881D01*
X172159Y196783D01*
X176489D02*
X177210Y197505D01*
X178653D01*
X179375Y196783D01*
Y193897D01*
X178653Y193175D01*
X177210D01*
X176489Y193897D01*
Y196783D01*
X183704Y193175D02*
X180818D01*
X183704Y196062D01*
Y196783D01*
X182983Y197505D01*
X181539D01*
X180818Y196783D01*
X187312Y193175D02*
Y197505D01*
X185147Y195340D01*
X188033D01*
D11*
X175689Y135827D02*
X174951Y136253D01*
Y135400D01*
X175689Y135827D01*
X122549Y97539D02*
X121811Y97966D01*
Y97113D01*
X122549Y97539D01*
D12*
X201681Y185039D02*
X200931Y185472D01*
Y184606D01*
X201681Y185039D01*
X131602D02*
X130852Y185472D01*
Y184606D01*
X131602Y185039D01*
X64772Y141240D02*
X64022Y141673D01*
Y140807D01*
X64772Y141240D01*
X101878Y24705D02*
X101128Y25138D01*
Y24272D01*
X101878Y24705D01*
X30421Y158661D02*
X29671Y159094D01*
Y158228D01*
X30421Y158661D01*
D13*
X86105Y173228D02*
X85548D01*
X86105D01*
X79806D02*
X79249D01*
X79806D01*
X67207D02*
X66651D01*
X67207D01*
X60908D02*
X60352D01*
X60908D01*
X41236Y30118D02*
X40614D01*
X41236D01*
X196181Y163228D02*
Y183228D01*
X206181Y163228D02*
Y183228D01*
X196181Y163228D02*
X206181D01*
X196181Y183228D02*
X206181D01*
X126102Y163228D02*
Y183228D01*
X136102Y163228D02*
Y183228D01*
X126102Y163228D02*
X136102D01*
X126102Y183228D02*
X136102D01*
X42461Y146240D02*
X62461D01*
X42461Y136240D02*
X62461D01*
X42461D02*
Y146240D01*
X62461Y136240D02*
Y146240D01*
X103189Y19705D02*
X123189D01*
X103189Y29705D02*
X123189D01*
Y19705D02*
Y29705D01*
X103189Y19705D02*
Y29705D01*
X44094Y17323D02*
X83504D01*
X44094Y42323D02*
X83504D01*
Y17323D02*
Y42323D01*
X44094Y17323D02*
Y42323D01*
X24921Y136850D02*
Y156850D01*
X34921Y136850D02*
Y156850D01*
X24921Y136850D02*
X34921D01*
X24921Y156850D02*
X34921D01*
X40640Y56450D02*
Y62448D01*
X42639Y60448D01*
X44639Y62448D01*
Y56450D01*
X46638D02*
Y62448D01*
X49637D01*
X50637Y61448D01*
Y59449D01*
X49637Y58449D01*
X46638D01*
X52636Y56450D02*
X54636D01*
X53636D01*
Y62448D01*
X52636Y61448D01*
X146970Y133708D02*
Y128709D01*
X147970Y127710D01*
X149969D01*
X150969Y128709D01*
Y133708D01*
X152968Y132708D02*
X153968Y133708D01*
X155967D01*
X156967Y132708D01*
Y131708D01*
X155967Y130709D01*
X154967D01*
X155967D01*
X156967Y129709D01*
Y128709D01*
X155967Y127710D01*
X153968D01*
X152968Y128709D01*
X122100Y131952D02*
Y126953D01*
X123100Y125953D01*
X125099D01*
X126099Y126953D01*
Y131952D01*
X128098Y125953D02*
X130097D01*
X129098D01*
Y131952D01*
X128098Y130952D01*
X139640Y92369D02*
Y88370D01*
X141640Y86371D01*
X143639Y88370D01*
Y92369D01*
X149637Y91369D02*
X148637Y92369D01*
X146638D01*
X145638Y91369D01*
Y87371D01*
X146638Y86371D01*
X148637D01*
X149637Y87371D01*
X155635Y91369D02*
X154636Y92369D01*
X152636D01*
X151637Y91369D01*
Y87371D01*
X152636Y86371D01*
X154636D01*
X155635Y87371D01*
X125074Y70472D02*
X129072D01*
X127073Y72472D02*
Y68473D01*
X135070Y73471D02*
X131071D01*
Y70472D01*
X133071Y71472D01*
X134071D01*
X135070Y70472D01*
Y68473D01*
X134071Y67473D01*
X132071D01*
X131071Y68473D01*
X137070Y73471D02*
Y69473D01*
X139069Y67473D01*
X141068Y69473D01*
Y73471D01*
X155450Y72865D02*
X154450Y73865D01*
X152451D01*
X151451Y72865D01*
Y68867D01*
X152451Y67867D01*
X154450D01*
X155450Y68867D01*
Y70866D01*
X153451D01*
X157449Y67867D02*
Y73865D01*
X161448Y67867D01*
Y73865D01*
X163447D02*
Y67867D01*
X166447D01*
X167446Y68867D01*
Y72865D01*
X166447Y73865D01*
X163447D01*
X77299Y140105D02*
X81297D01*
X79298D01*
Y134107D01*
X83297D02*
Y140105D01*
X86296D01*
X87295Y139106D01*
Y137106D01*
X86296Y136107D01*
X83297D01*
X89295Y134107D02*
X91294D01*
X90294D01*
Y140105D01*
X89295Y139106D01*
X94293Y140105D02*
X98292D01*
Y139106D01*
X94293Y135107D01*
Y134107D01*
X115291Y14810D02*
X119290D01*
X117290D01*
Y8812D01*
X121289D02*
Y14810D01*
X124288D01*
X125288Y13810D01*
Y11811D01*
X124288Y10811D01*
X121289D01*
X127287Y8812D02*
X129286D01*
X128287D01*
Y14810D01*
X127287Y13810D01*
X136284Y14810D02*
X134285Y13810D01*
X132285Y11811D01*
Y9812D01*
X133285Y8812D01*
X135284D01*
X136284Y9812D01*
Y10811D01*
X135284Y11811D01*
X132285D01*
X98182Y172711D02*
Y176710D01*
Y174711D01*
X104180D01*
Y178709D02*
X98182D01*
Y181708D01*
X99182Y182708D01*
X101181D01*
X102181Y181708D01*
Y178709D01*
X98182Y188706D02*
X99182Y186707D01*
X101181Y184707D01*
X103180D01*
X104180Y185707D01*
Y187706D01*
X103180Y188706D01*
X102181D01*
X101181Y187706D01*
Y184707D01*
X139733Y41277D02*
X138733Y40277D01*
Y38278D01*
X139733Y37278D01*
X143732D01*
X144731Y38278D01*
Y40277D01*
X143732Y41277D01*
X138733Y43276D02*
Y47275D01*
Y45276D01*
X144731D01*
X139733Y53273D02*
X138733Y52273D01*
Y50274D01*
X139733Y49274D01*
X140733D01*
X141732Y50274D01*
Y52273D01*
X142732Y53273D01*
X143732D01*
X144731Y52273D01*
Y50274D01*
X143732Y49274D01*
X132920Y37278D02*
X126922D01*
Y40277D01*
X127922Y41277D01*
X129921D01*
X130921Y40277D01*
Y37278D01*
Y39277D02*
X132920Y41277D01*
X126922Y43276D02*
X132920Y47275D01*
X126922D02*
X132920Y43276D01*
X126922Y49274D02*
X132920D01*
Y52273D01*
X131921Y53273D01*
X127922D01*
X126922Y52273D01*
Y49274D01*
X156542Y37278D02*
X150544D01*
Y40277D01*
X151544Y41277D01*
X153543D01*
X154543Y40277D01*
Y37278D01*
Y39277D02*
X156542Y41277D01*
X150544Y43276D02*
Y47275D01*
Y45276D01*
X156542D01*
X151544Y53273D02*
X150544Y52273D01*
Y50274D01*
X151544Y49274D01*
X152544D01*
X153543Y50274D01*
Y52273D01*
X154543Y53273D01*
X155543D01*
X156542Y52273D01*
Y50274D01*
X155543Y49274D01*
X110781Y172711D02*
Y176710D01*
Y174711D01*
X116779D01*
Y178709D02*
X110781D01*
Y181708D01*
X111780Y182708D01*
X113779D01*
X114779Y181708D01*
Y178709D01*
X116779Y188706D02*
Y184707D01*
X112780Y188706D01*
X111780D01*
X110781Y187706D01*
Y185707D01*
X111780Y184707D01*
X115111Y37278D02*
Y41277D01*
Y39277D01*
X121109D01*
X115111Y43276D02*
X121109Y47275D01*
X115111D02*
X121109Y43276D01*
X115111Y49274D02*
X121109D01*
Y52273D01*
X120110Y53273D01*
X116111D01*
X115111Y52273D01*
Y49274D01*
X109298Y61143D02*
X103300D01*
Y64142D01*
X104300Y65142D01*
X106299D01*
X107299Y64142D01*
Y61143D01*
Y63143D02*
X109298Y65142D01*
X108299Y67141D02*
X109298Y68141D01*
Y70140D01*
X108299Y71140D01*
X104300D01*
X103300Y70140D01*
Y68141D01*
X104300Y67141D01*
X105299D01*
X106299Y68141D01*
Y71140D01*
X183191Y130859D02*
Y136857D01*
X186190D01*
X187189Y135858D01*
Y133858D01*
X186190Y132859D01*
X183191D01*
X185190D02*
X187189Y130859D01*
X189189Y135858D02*
X190188Y136857D01*
X192188D01*
X193187Y135858D01*
Y134858D01*
X192188Y133858D01*
X193187Y132859D01*
Y131859D01*
X192188Y130859D01*
X190188D01*
X189189Y131859D01*
Y132859D01*
X190188Y133858D01*
X189189Y134858D01*
Y135858D01*
X190188Y133858D02*
X192188D01*
X111143Y71804D02*
Y77802D01*
X114142D01*
X115142Y76802D01*
Y74803D01*
X114142Y73804D01*
X111143D01*
X113143D02*
X115142Y71804D01*
X117141Y77802D02*
X121140D01*
Y76802D01*
X117141Y72804D01*
Y71804D01*
X153663Y95426D02*
Y101424D01*
X156662D01*
X157662Y100425D01*
Y98425D01*
X156662Y97426D01*
X153663D01*
X155662D02*
X157662Y95426D01*
X163660Y101424D02*
X161660Y100425D01*
X159661Y98425D01*
Y96426D01*
X160661Y95426D01*
X162660D01*
X163660Y96426D01*
Y97426D01*
X162660Y98425D01*
X159661D01*
X111537Y100151D02*
Y106149D01*
X114536D01*
X115536Y105149D01*
Y103150D01*
X114536Y102150D01*
X111537D01*
X113536D02*
X115536Y100151D01*
X121534Y106149D02*
X117535D01*
Y103150D01*
X119535Y104149D01*
X120534D01*
X121534Y103150D01*
Y101150D01*
X120534Y100151D01*
X118535D01*
X117535Y101150D01*
X178466Y79678D02*
Y85676D01*
X181465D01*
X182465Y84676D01*
Y82677D01*
X181465Y81678D01*
X178466D01*
X180465D02*
X182465Y79678D01*
X187463D02*
Y85676D01*
X184464Y82677D01*
X188463D01*
X153663Y114717D02*
Y120716D01*
X156662D01*
X157662Y119716D01*
Y117717D01*
X156662Y116717D01*
X153663D01*
X155662D02*
X157662Y114717D01*
X159661Y119716D02*
X160661Y120716D01*
X162660D01*
X163660Y119716D01*
Y118716D01*
X162660Y117717D01*
X161660D01*
X162660D01*
X163660Y116717D01*
Y115717D01*
X162660Y114717D01*
X160661D01*
X159661Y115717D01*
X108905Y105238D02*
X102907D01*
Y108237D01*
X103906Y109237D01*
X105905D01*
X106905Y108237D01*
Y105238D01*
Y107237D02*
X108905Y109237D01*
Y115235D02*
Y111236D01*
X104906Y115235D01*
X103906D01*
X102907Y114235D01*
Y112236D01*
X103906Y111236D01*
X56149Y155298D02*
X50151D01*
Y158297D01*
X51150Y159296D01*
X53150D01*
X54149Y158297D01*
Y155298D01*
Y157297D02*
X56149Y159296D01*
Y161296D02*
Y163295D01*
Y162295D01*
X50151D01*
X51150Y161296D01*
X50151Y170293D02*
Y166294D01*
X53150D01*
X52150Y168293D01*
Y169293D01*
X53150Y170293D01*
X55149D01*
X56149Y169293D01*
Y167294D01*
X55149Y166294D01*
X47487Y155298D02*
X41489D01*
Y158297D01*
X42489Y159296D01*
X44488D01*
X45488Y158297D01*
Y155298D01*
Y157297D02*
X47487Y159296D01*
Y161296D02*
Y163295D01*
Y162295D01*
X41489D01*
X42489Y161296D01*
X47487Y169293D02*
X41489D01*
X44488Y166294D01*
Y170293D01*
X96306Y144471D02*
X90308D01*
Y147470D01*
X91308Y148470D01*
X93307D01*
X94307Y147470D01*
Y144471D01*
Y146470D02*
X96306Y148470D01*
Y150469D02*
Y152468D01*
Y151469D01*
X90308D01*
X91308Y150469D01*
Y155467D02*
X90308Y156467D01*
Y158466D01*
X91308Y159466D01*
X92307D01*
X93307Y158466D01*
Y157467D01*
Y158466D01*
X94307Y159466D01*
X95306D01*
X96306Y158466D01*
Y156467D01*
X95306Y155467D01*
X104967Y144471D02*
X98970D01*
Y147470D01*
X99969Y148470D01*
X101969D01*
X102968Y147470D01*
Y144471D01*
Y146470D02*
X104967Y148470D01*
Y150469D02*
Y152468D01*
Y151469D01*
X98970D01*
X99969Y150469D01*
X104967Y159466D02*
Y155467D01*
X100969Y159466D01*
X99969D01*
X98970Y158466D01*
Y156467D01*
X99969Y155467D01*
X188826Y162143D02*
X182828D01*
Y165142D01*
X183827Y166142D01*
X185827D01*
X186826Y165142D01*
Y162143D01*
Y164142D02*
X188826Y166142D01*
Y168141D02*
Y170140D01*
Y169141D01*
X182828D01*
X183827Y168141D01*
X15597Y71924D02*
X9599D01*
X11599Y73923D01*
X9599Y75923D01*
X15597D01*
Y77922D02*
X9599D01*
Y80921D01*
X10599Y81921D01*
X12598D01*
X13598Y80921D01*
Y77922D01*
X15597Y86919D02*
X9599D01*
X12598Y83920D01*
Y87919D01*
X103026Y120229D02*
Y126227D01*
X105026Y124228D01*
X107025Y126227D01*
Y120229D01*
X109024D02*
Y126227D01*
X112023D01*
X113023Y125228D01*
Y123228D01*
X112023Y122229D01*
X109024D01*
X119021Y120229D02*
X115022D01*
X119021Y124228D01*
Y125228D01*
X118021Y126227D01*
X116022D01*
X115022Y125228D01*
X25347Y115686D02*
X31345D01*
Y119685D01*
Y121684D02*
Y123684D01*
Y122684D01*
X25347D01*
X26347Y121684D01*
X129709Y160873D02*
X127710D01*
X128709D01*
Y155875D01*
X127710Y154875D01*
X126710D01*
X125710Y155875D01*
X131708Y159873D02*
X132708Y160873D01*
X134707D01*
X135707Y159873D01*
Y158874D01*
X134707Y157874D01*
X135707Y156874D01*
Y155875D01*
X134707Y154875D01*
X132708D01*
X131708Y155875D01*
Y156874D01*
X132708Y157874D01*
X131708Y158874D01*
Y159873D01*
X132708Y157874D02*
X134707D01*
X199394Y160873D02*
X197395D01*
X198394D01*
Y155875D01*
X197395Y154875D01*
X196395D01*
X195395Y155875D01*
X201393Y160873D02*
X205392D01*
Y159873D01*
X201393Y155875D01*
Y154875D01*
X125544Y22918D02*
Y20918D01*
Y21918D01*
X130543D01*
X131542Y20918D01*
Y19919D01*
X130543Y18919D01*
X125544Y28916D02*
Y24917D01*
X128543D01*
X127544Y26916D01*
Y27916D01*
X128543Y28916D01*
X130543D01*
X131542Y27916D01*
Y25917D01*
X130543Y24917D01*
X6481Y130952D02*
X4481D01*
X5481D01*
Y125953D01*
X4481Y124954D01*
X3482D01*
X2482Y125953D01*
X11479Y124954D02*
Y130952D01*
X8480Y127953D01*
X12479D01*
X35092Y21244D02*
Y19245D01*
Y20245D01*
X40090D01*
X41090Y19245D01*
Y18245D01*
X40090Y17246D01*
X36091Y23244D02*
X35092Y24243D01*
Y26243D01*
X36091Y27242D01*
X37091D01*
X38091Y26243D01*
Y25243D01*
Y26243D01*
X39090Y27242D01*
X40090D01*
X41090Y26243D01*
Y24243D01*
X40090Y23244D01*
X28922Y134495D02*
X26922D01*
X27922D01*
Y129497D01*
X26922Y128497D01*
X25923D01*
X24923Y129497D01*
X34920Y128497D02*
X30921D01*
X34920Y132496D01*
Y133495D01*
X33920Y134495D01*
X31921D01*
X30921Y133495D01*
X209842Y86070D02*
X207843D01*
X208843D01*
Y81072D01*
X207843Y80072D01*
X206843D01*
X205844Y81072D01*
X211842Y80072D02*
X213841D01*
X212842D01*
Y86070D01*
X211842Y85070D01*
X65505Y176104D02*
X71503D01*
Y179103D01*
X70503Y180103D01*
X66505D01*
X65505Y179103D01*
Y176104D01*
X71503Y185101D02*
X65505D01*
X68504Y182102D01*
Y186101D01*
X57237Y176104D02*
X63235D01*
Y179103D01*
X62236Y180103D01*
X58237D01*
X57237Y179103D01*
Y176104D01*
X58237Y182102D02*
X57237Y183102D01*
Y185101D01*
X58237Y186101D01*
X59237D01*
X60236Y185101D01*
Y184101D01*
Y185101D01*
X61236Y186101D01*
X62236D01*
X63235Y185101D01*
Y183102D01*
X62236Y182102D01*
X76135Y175710D02*
X82133D01*
Y178709D01*
X81133Y179709D01*
X77135D01*
X76135Y178709D01*
Y175710D01*
X82133Y185707D02*
Y181708D01*
X78134Y185707D01*
X77135D01*
X76135Y184707D01*
Y182708D01*
X77135Y181708D01*
X84403Y175923D02*
X90401D01*
Y178922D01*
X89401Y179921D01*
X85402D01*
X84403Y178922D01*
Y175923D01*
X90401Y181921D02*
Y183920D01*
Y182920D01*
X84403D01*
X85402Y181921D01*
X139733Y168942D02*
X138733Y167942D01*
Y165943D01*
X139733Y164943D01*
X143732D01*
X144731Y165943D01*
Y167942D01*
X143732Y168942D01*
X144731Y170941D02*
Y172941D01*
Y171941D01*
X138733D01*
X139733Y170941D01*
X144731Y179938D02*
Y175940D01*
X140733Y179938D01*
X139733D01*
X138733Y178939D01*
Y176939D01*
X139733Y175940D01*
X157737Y170110D02*
X156737Y171109D01*
X154738D01*
X153738Y170110D01*
Y166111D01*
X154738Y165111D01*
X156737D01*
X157737Y166111D01*
X159736Y165111D02*
X161736D01*
X160736D01*
Y171109D01*
X159736Y170110D01*
X164735Y165111D02*
X166734D01*
X165734D01*
Y171109D01*
X164735Y170110D01*
X34615Y98607D02*
X33615Y97607D01*
Y95608D01*
X34615Y94608D01*
X38614D01*
X39613Y95608D01*
Y97607D01*
X38614Y98607D01*
Y100606D02*
X39613Y101606D01*
Y103605D01*
X38614Y104605D01*
X34615D01*
X33615Y103605D01*
Y101606D01*
X34615Y100606D01*
X35614D01*
X36614Y101606D01*
Y104605D01*
X34516Y49591D02*
X33517Y48591D01*
Y46592D01*
X34516Y45592D01*
X38515D01*
X39515Y46592D01*
Y48591D01*
X38515Y49591D01*
X34516Y51590D02*
X33517Y52590D01*
Y54589D01*
X34516Y55589D01*
X35516D01*
X36516Y54589D01*
X37515Y55589D01*
X38515D01*
X39515Y54589D01*
Y52590D01*
X38515Y51590D01*
X37515D01*
X36516Y52590D01*
X35516Y51590D01*
X34516D01*
X36516Y52590D02*
Y54589D01*
X126953Y89795D02*
X125953Y90794D01*
X123954D01*
X122954Y89795D01*
Y85796D01*
X123954Y84796D01*
X125953D01*
X126953Y85796D01*
X128952Y90794D02*
X132951D01*
Y89795D01*
X128952Y85796D01*
Y84796D01*
X173591Y102150D02*
X172591Y101150D01*
Y99151D01*
X173591Y98151D01*
X177590D01*
X178590Y99151D01*
Y101150D01*
X177590Y102150D01*
X172591Y108148D02*
X173591Y106149D01*
X175591Y104149D01*
X177590D01*
X178590Y105149D01*
Y107148D01*
X177590Y108148D01*
X176590D01*
X175591Y107148D01*
Y104149D01*
X200575Y147669D02*
X199575Y148668D01*
X197576D01*
X196576Y147669D01*
Y143670D01*
X197576Y142670D01*
X199575D01*
X200575Y143670D01*
X206573Y148668D02*
X202574D01*
Y145669D01*
X204574Y146669D01*
X205574D01*
X206573Y145669D01*
Y143670D01*
X205574Y142670D01*
X203574D01*
X202574Y143670D01*
X157662Y178771D02*
X156662Y179771D01*
X154663D01*
X153663Y178771D01*
Y174772D01*
X154663Y173773D01*
X156662D01*
X157662Y174772D01*
X162660Y173773D02*
Y179771D01*
X159661Y176772D01*
X163660D01*
X157662Y187432D02*
X156662Y188432D01*
X154663D01*
X153663Y187432D01*
Y183434D01*
X154663Y182434D01*
X156662D01*
X157662Y183434D01*
X159661Y187432D02*
X160661Y188432D01*
X162660D01*
X163660Y187432D01*
Y186433D01*
X162660Y185433D01*
X161660D01*
X162660D01*
X163660Y184433D01*
Y183434D01*
X162660Y182434D01*
X160661D01*
X159661Y183434D01*
X133040Y141520D02*
X132040Y140520D01*
Y138521D01*
X133040Y137521D01*
X137039D01*
X138038Y138521D01*
Y140520D01*
X137039Y141520D01*
X138038Y147518D02*
Y143519D01*
X134040Y147518D01*
X133040D01*
X132040Y146518D01*
Y144519D01*
X133040Y143519D01*
X173591Y118110D02*
X172591Y117111D01*
Y115111D01*
X173591Y114111D01*
X177590D01*
X178590Y115111D01*
Y117111D01*
X177590Y118110D01*
X178590Y120110D02*
Y122109D01*
Y121109D01*
X172591D01*
X173591Y120110D01*
D14*
X129134Y105905D02*
X128689Y106829D01*
X127690Y107057D01*
X126889Y106418D01*
Y105393D01*
X127690Y104754D01*
X128689Y104982D01*
X129134Y105905D01*
D15*
X182795Y95177D02*
Y121358D01*
X196043Y90669D02*
X197854D01*
X211595D02*
X216535D01*
X211595Y125866D02*
X216535D01*
X196043D02*
X197854D01*
D16*
X83071Y171063D02*
X88583D01*
Y159646D02*
Y171063D01*
X83071Y159646D02*
X88583D01*
X83071D02*
Y171063D01*
X76772D02*
X82284D01*
Y159646D02*
Y171063D01*
X76772Y159646D02*
X82284D01*
X76772D02*
Y171063D01*
X64173D02*
X69685D01*
Y159646D02*
Y171063D01*
X64173Y159646D02*
X69685D01*
X64173D02*
Y171063D01*
X57874D02*
X63386D01*
Y159646D02*
Y171063D01*
X57874Y159646D02*
X63386D01*
X57874D02*
Y171063D01*
D17*
X48492Y121850D02*
Y118570D01*
X49148Y117914D01*
X50460D01*
X51116Y118570D01*
Y121850D01*
X55051Y117914D02*
X52428D01*
X55051Y120538D01*
Y121194D01*
X54396Y121850D01*
X53084D01*
X52428Y121194D01*
X4922Y146603D02*
X7546D01*
X8858Y147915D01*
X7546Y149226D01*
X4922D01*
X5578Y153162D02*
X4922Y152506D01*
Y151194D01*
X5578Y150539D01*
X8202D01*
X8858Y151194D01*
Y152506D01*
X8202Y153162D01*
X5578Y157098D02*
X4922Y156442D01*
Y155130D01*
X5578Y154474D01*
X8202D01*
X8858Y155130D01*
Y156442D01*
X8202Y157098D01*
X37567Y3347D02*
X40191D01*
X38879Y4658D02*
Y2035D01*
X44127Y5314D02*
X41503D01*
Y3347D01*
X42815Y4002D01*
X43471D01*
X44127Y3347D01*
Y2035D01*
X43471Y1379D01*
X42159D01*
X41503Y2035D01*
X45439Y5314D02*
Y2691D01*
X46751Y1379D01*
X48063Y2691D01*
Y5314D01*
X5381Y135467D02*
X4725Y134811D01*
Y133499D01*
X5381Y132843D01*
X8005D01*
X8661Y133499D01*
Y134811D01*
X8005Y135467D01*
X6693D01*
Y134155D01*
X8661Y136779D02*
X4725D01*
X8661Y139402D01*
X4725D01*
Y140714D02*
X8661D01*
Y142682D01*
X8005Y143338D01*
X5381D01*
X4725Y142682D01*
Y140714D01*
X82317Y4658D02*
X81661Y5314D01*
X80349D01*
X79693Y4658D01*
Y2035D01*
X80349Y1379D01*
X81661D01*
X82317Y2035D01*
Y3347D01*
X81005D01*
X83629Y1379D02*
Y5314D01*
X86253Y1379D01*
Y5314D01*
X87565D02*
Y1379D01*
X89533D01*
X90189Y2035D01*
Y4658D01*
X89533Y5314D01*
X87565D01*
X162404Y39369D02*
X165028D01*
X163716D01*
Y35434D01*
X166340D02*
Y39369D01*
X168307D01*
X168963Y38713D01*
Y37402D01*
X168307Y36746D01*
X166340D01*
X170275Y35434D02*
X171587D01*
X170931D01*
Y39369D01*
X170275Y38713D01*
X176179Y39369D02*
X173555D01*
Y37402D01*
X174867Y38058D01*
X175523D01*
X176179Y37402D01*
Y36090D01*
X175523Y35434D01*
X174211D01*
X173555Y36090D01*
X199412Y49212D02*
X202035D01*
X200724D01*
Y45276D01*
X203347D02*
Y49212D01*
X205315D01*
X205971Y48556D01*
Y47244D01*
X205315Y46588D01*
X203347D01*
X207283Y45276D02*
X208595D01*
X207939D01*
Y49212D01*
X207283Y48556D01*
X212531Y45276D02*
Y49212D01*
X210563Y47244D01*
X213187D01*
X162010Y52362D02*
X164634D01*
X163322D01*
Y48426D01*
X165946D02*
Y52362D01*
X167914D01*
X168570Y51706D01*
Y50394D01*
X167914Y49738D01*
X165946D01*
X169882Y48426D02*
X171194D01*
X170537D01*
Y52362D01*
X169882Y51706D01*
X173161D02*
X173817Y52362D01*
X175129D01*
X175785Y51706D01*
Y51050D01*
X175129Y50394D01*
X174473D01*
X175129D01*
X175785Y49738D01*
Y49082D01*
X175129Y48426D01*
X173817D01*
X173161Y49082D01*
X200068Y38976D02*
X202692D01*
X201379D01*
Y35040D01*
X204003D02*
Y38976D01*
X205971D01*
X206627Y38320D01*
Y37008D01*
X205971Y36352D01*
X204003D01*
X207939Y35040D02*
X209251D01*
X208595D01*
Y38976D01*
X207939Y38320D01*
X211219Y35040D02*
X212531D01*
X211875D01*
Y38976D01*
X211219Y38320D01*
X162010Y63385D02*
X164634D01*
X163322D01*
Y59449D01*
X165946D02*
Y63385D01*
X167914D01*
X168570Y62729D01*
Y61417D01*
X167914Y60761D01*
X165946D01*
X169882Y59449D02*
X171194D01*
X170537D01*
Y63385D01*
X169882Y62729D01*
X173161D02*
X173817Y63385D01*
X175129D01*
X175785Y62729D01*
Y60105D01*
X175129Y59449D01*
X173817D01*
X173161Y60105D01*
Y62729D01*
X68144Y4658D02*
X67488Y5314D01*
X66176D01*
X65520Y4658D01*
Y4002D01*
X66176Y3347D01*
X67488D01*
X68144Y2691D01*
Y2035D01*
X67488Y1379D01*
X66176D01*
X65520Y2035D01*
X72080Y4658D02*
X71424Y5314D01*
X70112D01*
X69456Y4658D01*
Y2035D01*
X70112Y1379D01*
X71424D01*
X72080Y2035D01*
X73391Y5314D02*
Y1379D01*
X76015D01*
X54364Y4658D02*
X53708Y5314D01*
X52397D01*
X51740Y4658D01*
Y4002D01*
X52397Y3347D01*
X53708D01*
X54364Y2691D01*
Y2035D01*
X53708Y1379D01*
X52397D01*
X51740Y2035D01*
X55676Y5314D02*
Y1379D01*
X57644D01*
X58300Y2035D01*
Y4658D01*
X57644Y5314D01*
X55676D01*
X59612Y1379D02*
Y4002D01*
X60924Y5314D01*
X62236Y4002D01*
Y1379D01*
Y3347D01*
X59612D01*
X6890Y160894D02*
Y163518D01*
X5578Y162206D02*
X8202D01*
X4922Y167454D02*
Y164830D01*
X6890D01*
X6234Y166142D01*
Y166798D01*
X6890Y167454D01*
X8202D01*
X8858Y166798D01*
Y165486D01*
X8202Y164830D01*
X4922Y168766D02*
X7546D01*
X8858Y170078D01*
X7546Y171389D01*
X4922D01*
X199084Y62598D02*
X201708D01*
X200396D01*
Y58662D01*
X203019D02*
Y62598D01*
X204987D01*
X205643Y61942D01*
Y60630D01*
X204987Y59974D01*
X203019D01*
X209579Y58662D02*
X206955D01*
X209579Y61286D01*
Y61942D01*
X208923Y62598D01*
X207611D01*
X206955Y61942D01*
X210891D02*
X211547Y62598D01*
X212859D01*
X213515Y61942D01*
Y61286D01*
X212859Y60630D01*
X212203D01*
X212859D01*
X213515Y59974D01*
Y59318D01*
X212859Y58662D01*
X211547D01*
X210891Y59318D01*
X72047Y50461D02*
X68111D01*
Y52429D01*
X68767Y53084D01*
X70079D01*
X70735Y52429D01*
Y50461D01*
Y51773D02*
X72047Y53084D01*
Y54396D02*
Y55708D01*
Y55052D01*
X68111D01*
X68767Y54396D01*
X72047Y57676D02*
Y58988D01*
Y58332D01*
X68111D01*
X68767Y57676D01*
X60236Y50198D02*
X56300D01*
Y52166D01*
X56956Y52822D01*
X58268D01*
X58924Y52166D01*
Y50198D01*
Y51510D02*
X60236Y52822D01*
Y54134D02*
Y55446D01*
Y54790D01*
X56300D01*
X56956Y54134D01*
Y57414D02*
X56300Y58070D01*
Y59382D01*
X56956Y60038D01*
X59580D01*
X60236Y59382D01*
Y58070D01*
X59580Y57414D01*
X56956D01*
X42685Y130020D02*
Y133956D01*
X43997Y132644D01*
X45309Y133956D01*
Y130020D01*
X46621D02*
Y133956D01*
X48589D01*
X49245Y133300D01*
Y131988D01*
X48589Y131332D01*
X46621D01*
X50557Y133300D02*
X51213Y133956D01*
X52525D01*
X53181Y133300D01*
Y132644D01*
X52525Y131988D01*
X51869D01*
X52525D01*
X53181Y131332D01*
Y130676D01*
X52525Y130020D01*
X51213D01*
X50557Y130676D01*
X44816Y152165D02*
X43505D01*
X44161D01*
Y148885D01*
X43505Y148229D01*
X42849D01*
X42193Y148885D01*
X48752Y152165D02*
X47440Y151509D01*
X46128Y150197D01*
Y148885D01*
X46784Y148229D01*
X48096D01*
X48752Y148885D01*
Y149541D01*
X48096Y150197D01*
X46128D01*
X68767Y120505D02*
X68111Y121161D01*
X66799D01*
X66143Y120505D01*
Y117881D01*
X66799Y117225D01*
X68111D01*
X68767Y117881D01*
X70079Y117225D02*
X71391D01*
X70735D01*
Y121161D01*
X70079Y120505D01*
X73359D02*
X74015Y121161D01*
X75327D01*
X75983Y120505D01*
Y117881D01*
X75327Y117225D01*
X74015D01*
X73359Y117881D01*
Y120505D01*
M02*
