G04*
G04 #@! TF.GenerationSoftware,Altium Limited,Altium Designer,24.9.1 (31)*
G04*
G04 Layer_Physical_Order=1*
G04 Layer_Color=255*
%FSLAX25Y25*%
%MOIN*%
G70*
G04*
G04 #@! TF.SameCoordinates,AE1E5416-9686-4E21-8CD7-455353439681*
G04*
G04*
G04 #@! TF.FilePolarity,Positive*
G04*
G01*
G75*
%ADD13C,0.01000*%
%ADD18R,0.03740X0.03937*%
%ADD19R,0.03543X0.02362*%
%ADD20R,0.03543X0.05906*%
%ADD21R,0.03543X0.04724*%
%ADD22R,0.03543X0.03347*%
%ADD23R,0.13780X0.05906*%
%ADD24R,0.03347X0.03543*%
%ADD25R,0.07087X0.02756*%
%ADD26R,0.04724X0.03543*%
%ADD27R,0.05906X0.03543*%
%ADD28R,0.02362X0.03543*%
%ADD29R,0.03937X0.03740*%
%ADD30R,0.02598X0.02441*%
%ADD31R,0.02874X0.02008*%
%ADD32R,0.07874X0.12598*%
%ADD33R,0.07874X0.03543*%
%ADD34R,0.03150X0.03150*%
%ADD35R,0.01772X0.05709*%
%ADD60C,0.01575*%
%ADD61C,0.07874*%
%ADD62C,0.01968*%
%ADD63C,0.01772*%
%ADD64C,0.00898*%
%ADD65C,0.00636*%
%ADD66C,0.06693*%
%ADD67C,0.21654*%
%ADD68O,0.12795X0.05315*%
%ADD69O,0.11221X0.05315*%
%ADD70C,0.02756*%
%ADD71C,0.01772*%
%ADD72C,0.05000*%
G36*
X206693Y216535D02*
X207662Y216535D01*
X209564Y216157D01*
X211355Y215415D01*
X212967Y214338D01*
X214338Y212967D01*
X215415Y211355D01*
X216157Y209564D01*
X216535Y207662D01*
X216535Y206693D01*
X216535Y206693D01*
X216535Y206693D01*
Y9843D01*
Y8873D01*
X216157Y6972D01*
X215415Y5180D01*
X214338Y3568D01*
X212967Y2197D01*
X211355Y1120D01*
X209564Y378D01*
X207662Y0D01*
X9843D01*
X8873Y-0D01*
X6972Y378D01*
X5180Y1120D01*
X3568Y2197D01*
X2197Y3568D01*
X1120Y5180D01*
X378Y6972D01*
X-0Y8873D01*
X0Y9843D01*
Y93685D01*
X6087D01*
Y94818D01*
X8087D01*
Y93685D01*
X14976D01*
Y96638D01*
X13844D01*
Y98638D01*
X14976D01*
Y101591D01*
X8087D01*
Y100458D01*
X6087D01*
Y101591D01*
X0D01*
Y104815D01*
X14476D01*
Y107300D01*
X27591D01*
Y106921D01*
X31465D01*
Y107300D01*
X32531D01*
Y106547D01*
X39595D01*
Y107300D01*
X44240D01*
X44276Y106315D01*
X44276Y105597D01*
Y104937D01*
X45408D01*
Y102937D01*
X44276D01*
Y101559D01*
X44488D01*
Y98441D01*
X44488Y97441D01*
X44488Y96441D01*
X44488Y93110D01*
X44488Y92110D01*
X44488Y88779D01*
X44488Y87779D01*
X44488Y84449D01*
X44488Y83449D01*
X44488Y80118D01*
X44133Y79265D01*
X44094D01*
X43592Y79165D01*
X43166Y78881D01*
X34111Y69826D01*
X33827Y69400D01*
X33727Y68898D01*
Y40769D01*
X33827Y40267D01*
X34111Y39841D01*
X38947Y35005D01*
X38819Y34528D01*
Y33384D01*
X39115Y32278D01*
X39687Y31287D01*
X40497Y30478D01*
X41488Y29906D01*
X42593Y29609D01*
X43738D01*
X44843Y29906D01*
X45834Y30478D01*
X46643Y31287D01*
X47216Y32278D01*
X47512Y33384D01*
Y34528D01*
X47216Y35633D01*
X46643Y36625D01*
X45834Y37434D01*
X44843Y38006D01*
X43738Y38302D01*
X42593D01*
X41488Y38006D01*
X40497Y37434D01*
X40364Y37301D01*
X36352Y41313D01*
Y68354D01*
X43991Y75993D01*
X44488Y75787D01*
Y75787D01*
X53150D01*
Y79118D01*
X53150Y80118D01*
X53150Y81118D01*
X53150Y84449D01*
X53150Y85449D01*
X53150Y88779D01*
X53150Y89780D01*
X53150Y93110D01*
X53150Y94110D01*
X53150Y97441D01*
X53150Y98441D01*
Y101559D01*
X53362D01*
Y102937D01*
X52230D01*
Y104937D01*
X53362D01*
Y105597D01*
X53362Y106315D01*
X52862Y107108D01*
Y109428D01*
X53362Y110221D01*
X53362Y110939D01*
Y111598D01*
X52230D01*
Y113598D01*
X53362D01*
Y114976D01*
X49819D01*
Y113844D01*
X47819D01*
Y114976D01*
X44276D01*
Y113598D01*
X45408D01*
Y111598D01*
X44276D01*
Y110939D01*
X44276Y110221D01*
X44240Y109235D01*
X39595D01*
Y109988D01*
X32531D01*
Y109988D01*
X31532Y109876D01*
X31465Y109942D01*
Y110543D01*
X31465Y110929D01*
Y113551D01*
X30495D01*
Y138022D01*
X31406Y138266D01*
X32283Y138772D01*
X32999Y139489D01*
X33506Y140366D01*
X33768Y141344D01*
Y142357D01*
X33506Y143335D01*
X32999Y144212D01*
X32283Y144928D01*
X31406Y145435D01*
X30428Y145697D01*
X29415D01*
X28437Y145435D01*
X27560Y144928D01*
X26843Y144212D01*
X26337Y143335D01*
X26075Y142357D01*
Y141344D01*
X26337Y140366D01*
X26843Y139489D01*
X27560Y138772D01*
X28437Y138266D01*
X28560Y138233D01*
Y113551D01*
X27591D01*
Y110929D01*
X27591Y110543D01*
Y109942D01*
X26883Y109235D01*
X14476D01*
Y111721D01*
X0D01*
Y114945D01*
X6087D01*
Y116077D01*
X8087D01*
Y114945D01*
X14976D01*
Y117898D01*
X13844D01*
Y119898D01*
X14976D01*
Y122850D01*
X8087D01*
Y121718D01*
X6087D01*
Y122850D01*
X0D01*
Y206693D01*
Y207662D01*
X378Y209564D01*
X1120Y211355D01*
X2197Y212967D01*
X3568Y214338D01*
X5180Y215415D01*
X6972Y216157D01*
X8873Y216535D01*
X9843Y216535D01*
X9843Y216535D01*
X206693Y216535D01*
D02*
G37*
%LPC*%
G36*
X170563Y183185D02*
X168095D01*
Y180815D01*
X170563D01*
Y183185D01*
D02*
G37*
G36*
X69504Y171079D02*
X67429D01*
Y169004D01*
X69504D01*
Y171079D01*
D02*
G37*
G36*
X63205D02*
X61130D01*
Y169004D01*
X63205D01*
Y171079D01*
D02*
G37*
G36*
X66429D02*
X64354D01*
Y169004D01*
X66429D01*
Y171079D01*
D02*
G37*
G36*
X60130D02*
X58055D01*
Y169004D01*
X60130D01*
Y171079D01*
D02*
G37*
G36*
X69504Y168004D02*
X67429D01*
Y165929D01*
X69504D01*
Y168004D01*
D02*
G37*
G36*
X66429D02*
X64354D01*
Y165929D01*
X66429D01*
Y168004D01*
D02*
G37*
G36*
X63205D02*
X61130D01*
Y165929D01*
X63205D01*
Y168004D01*
D02*
G37*
G36*
X60130D02*
X58055D01*
Y165929D01*
X60130D01*
Y168004D01*
D02*
G37*
G36*
X170563Y167217D02*
X168095D01*
Y164847D01*
X170563D01*
Y167217D01*
D02*
G37*
G36*
X144996Y163008D02*
X142626D01*
Y160539D01*
X144996D01*
Y163008D01*
D02*
G37*
G36*
X141626D02*
X139256D01*
Y160539D01*
X141626D01*
Y163008D01*
D02*
G37*
G36*
X174031Y183185D02*
X173301Y183185D01*
X171563D01*
Y180315D01*
X171063D01*
Y179815D01*
X168095D01*
Y177886D01*
X168095Y177165D01*
X168095Y176445D01*
Y174516D01*
X171063D01*
Y173516D01*
X168095D01*
Y171587D01*
X168095Y170587D01*
X168095Y170146D01*
Y168217D01*
X171063D01*
Y167717D01*
X171563D01*
Y164847D01*
X173301D01*
X174031Y164847D01*
X174064Y164854D01*
X175064Y164060D01*
Y160433D01*
X170472D01*
Y155315D01*
X179921D01*
Y156068D01*
X182480D01*
Y155413D01*
X187598D01*
Y155413D01*
X188498Y155656D01*
X188598Y155664D01*
X189190Y155073D01*
X189988Y154613D01*
X190878Y154374D01*
X191799D01*
X192690Y154613D01*
X193488Y155073D01*
X194139Y155725D01*
X194600Y156523D01*
X194839Y157413D01*
Y158335D01*
X194736Y158717D01*
X198128Y162109D01*
X198519Y162695D01*
X198657Y163386D01*
Y168821D01*
X198674Y168826D01*
X199751Y169448D01*
X200631Y170327D01*
X201253Y171405D01*
X201575Y172606D01*
Y173850D01*
X201253Y175052D01*
X200631Y176129D01*
X199751Y177009D01*
X198674Y177631D01*
X197472Y177953D01*
X196228D01*
X195027Y177631D01*
X193949Y177009D01*
X193070Y176129D01*
X192448Y175052D01*
X192126Y173850D01*
Y172606D01*
X192448Y171405D01*
X193070Y170327D01*
X193949Y169448D01*
X195027Y168826D01*
X195044Y168821D01*
Y164134D01*
X192182Y161272D01*
X191799Y161374D01*
X190878D01*
X189988Y161135D01*
X189190Y160675D01*
X188598Y160084D01*
X188498Y160092D01*
X187598Y160335D01*
Y160335D01*
X182480D01*
Y159680D01*
X179921D01*
Y160433D01*
X178676D01*
Y165059D01*
X179724D01*
Y170374D01*
X179724D01*
X179724Y171358D01*
X179724D01*
Y176673D01*
X179724D01*
Y177657D01*
X179724D01*
Y182972D01*
X174943D01*
X174031Y183185D01*
D02*
G37*
G36*
X88189Y164567D02*
X83465D01*
Y159843D01*
X84514D01*
Y158661D01*
X83268D01*
Y153740D01*
X88386D01*
Y158661D01*
X87139D01*
Y159843D01*
X88189D01*
Y164567D01*
D02*
G37*
G36*
X81890D02*
X77165D01*
Y159843D01*
X78215D01*
Y158661D01*
X76968D01*
Y153740D01*
X82087D01*
Y158661D01*
X80840D01*
Y159843D01*
X81890D01*
Y164567D01*
D02*
G37*
G36*
X69291D02*
X64567D01*
Y159843D01*
X65617D01*
Y158661D01*
X64370D01*
Y153740D01*
X69488D01*
Y158661D01*
X68242D01*
Y159843D01*
X69291D01*
Y164567D01*
D02*
G37*
G36*
X62992D02*
X58268D01*
Y159843D01*
X59317D01*
Y158661D01*
X58071D01*
Y153740D01*
X63189D01*
Y158661D01*
X61942D01*
Y159843D01*
X62992D01*
Y164567D01*
D02*
G37*
G36*
X94162Y153500D02*
X93240D01*
X92350Y153261D01*
X91552Y152801D01*
X90900Y152149D01*
X90673Y151755D01*
X88386D01*
Y152559D01*
X83268D01*
Y151804D01*
X82087D01*
Y152559D01*
X76968D01*
Y147638D01*
X82087D01*
Y148392D01*
X83268D01*
Y147638D01*
X88386D01*
Y148343D01*
X90616D01*
X90900Y147851D01*
X91552Y147199D01*
X92350Y146739D01*
X93240Y146500D01*
X94162D01*
X95052Y146739D01*
X95850Y147199D01*
X96501Y147851D01*
X96962Y148649D01*
X97201Y149539D01*
Y150461D01*
X96962Y151351D01*
X96501Y152149D01*
X95850Y152801D01*
X95052Y153261D01*
X94162Y153500D01*
D02*
G37*
G36*
X30494Y156197D02*
X29349D01*
X28244Y155901D01*
X27253Y155328D01*
X26443Y154519D01*
X25871Y153528D01*
X25575Y152423D01*
Y151278D01*
X25871Y150173D01*
X26443Y149182D01*
X27253Y148372D01*
X28244Y147800D01*
X29349Y147504D01*
X30494D01*
X31599Y147800D01*
X32579Y148366D01*
X32952Y148292D01*
X58071D01*
Y147638D01*
X63189D01*
Y152559D01*
X58071D01*
Y151905D01*
X34268D01*
Y152423D01*
X33972Y153528D01*
X33399Y154519D01*
X32590Y155328D01*
X31599Y155901D01*
X30494Y156197D01*
D02*
G37*
G36*
X130425Y177953D02*
X129181D01*
X127980Y177631D01*
X126902Y177009D01*
X126023Y176129D01*
X125401Y175052D01*
X125079Y173850D01*
Y172606D01*
X125401Y171405D01*
X126023Y170327D01*
X126902Y169448D01*
X127980Y168826D01*
X128115Y168790D01*
Y157329D01*
X127772Y157131D01*
X127121Y156480D01*
X126660Y155682D01*
X126421Y154791D01*
Y153870D01*
X126660Y152980D01*
X127121Y152182D01*
X127772Y151530D01*
X128570Y151069D01*
X129461Y150831D01*
X130382D01*
X131272Y151069D01*
X132070Y151530D01*
X132722Y152182D01*
X132863Y152426D01*
X139469D01*
Y151378D01*
X144783D01*
Y152328D01*
X146850D01*
Y141732D01*
X156299D01*
Y147012D01*
X170472D01*
Y146260D01*
X179921D01*
Y151378D01*
X170472D01*
Y150625D01*
X156299D01*
Y155905D01*
X148797D01*
X148622Y155940D01*
X145759D01*
X144966Y156940D01*
X144996Y157071D01*
X144996Y157802D01*
Y159539D01*
X139256D01*
Y157802D01*
X139256Y157071D01*
X139263Y157039D01*
X138470Y156039D01*
X132977D01*
X132722Y156480D01*
X132070Y157131D01*
X131728Y157329D01*
Y168884D01*
X132704Y169448D01*
X133584Y170327D01*
X134206Y171405D01*
X134528Y172606D01*
Y173850D01*
X134206Y175052D01*
X133584Y176129D01*
X132704Y177009D01*
X131627Y177631D01*
X130425Y177953D01*
D02*
G37*
G36*
X194110Y148539D02*
X191642D01*
Y146169D01*
X194110D01*
Y148539D01*
D02*
G37*
G36*
X180134Y142535D02*
X175697D01*
Y140264D01*
X180134D01*
Y142535D01*
D02*
G37*
G36*
X174697D02*
X170260D01*
Y140264D01*
X174697D01*
Y142535D01*
D02*
G37*
G36*
X180134Y139264D02*
X175697D01*
Y136992D01*
X180134D01*
Y139264D01*
D02*
G37*
G36*
X174697D02*
X170260D01*
Y136992D01*
X174697D01*
Y139264D01*
D02*
G37*
G36*
X138697Y138598D02*
X136327D01*
Y136130D01*
X138697D01*
Y138598D01*
D02*
G37*
G36*
X135327D02*
X132957D01*
Y136130D01*
X135327D01*
Y138598D01*
D02*
G37*
G36*
X205724Y137417D02*
X203551D01*
Y135146D01*
X205724D01*
Y137417D01*
D02*
G37*
G36*
Y134146D02*
X203551D01*
Y131874D01*
X205724D01*
Y134146D01*
D02*
G37*
G36*
X187598Y154232D02*
X182480D01*
Y149311D01*
X182480D01*
Y148327D01*
X182480D01*
Y143012D01*
X185438D01*
X190022Y138427D01*
X190608Y138036D01*
X191299Y137898D01*
X193775D01*
X194488Y137205D01*
Y132087D01*
X195644D01*
Y128341D01*
X195027Y128031D01*
X194644Y127954D01*
X193971Y128470D01*
X193081Y128839D01*
X192126Y128965D01*
X188886D01*
Y125276D01*
X188386D01*
Y124776D01*
X181023D01*
X181082Y124321D01*
X181451Y123431D01*
X182037Y122667D01*
X182801Y122081D01*
X183580Y121758D01*
X183697Y121697D01*
X184120Y120647D01*
X184051Y120480D01*
X185137D01*
X185213Y120650D01*
X185343Y120843D01*
X185500Y121008D01*
X185689Y121150D01*
X185894Y121256D01*
X186114Y121323D01*
X186346Y121358D01*
X186579Y121350D01*
X186803Y121303D01*
X187020Y121221D01*
X187221Y121098D01*
X187398Y120949D01*
X187547Y120768D01*
X190601D01*
X190752Y120949D01*
X190929Y121098D01*
X191130Y121221D01*
X191347Y121303D01*
X191571Y121350D01*
X191803Y121358D01*
X192035Y121323D01*
X192256Y121256D01*
X192461Y121150D01*
X192650Y121008D01*
X192807Y120843D01*
X192937Y120650D01*
X193032Y120437D01*
X193091Y120213D01*
X193110Y119980D01*
X193091Y119748D01*
X193032Y119524D01*
X192937Y119311D01*
X192807Y119118D01*
X192650Y118953D01*
X192461Y118811D01*
X192256Y118705D01*
X192035Y118638D01*
X191803Y118602D01*
X191571Y118610D01*
X191347Y118658D01*
X191130Y118740D01*
X190929Y118862D01*
X190752Y119012D01*
X190602Y119193D01*
X187547D01*
X187398Y119012D01*
X187221Y118862D01*
X187020Y118740D01*
X186803Y118658D01*
X186579Y118610D01*
X186346Y118602D01*
X186114Y118638D01*
X185894Y118705D01*
X185689Y118811D01*
X185500Y118953D01*
X185343Y119118D01*
X185213Y119311D01*
X185137Y119480D01*
X184051D01*
X184401Y118633D01*
X184717Y118318D01*
X184604Y118199D01*
X184577Y118157D01*
X184401Y117981D01*
X184308Y117756D01*
X184281Y117717D01*
X184186Y117505D01*
X184168Y117424D01*
X184132Y117350D01*
X184118Y117297D01*
X184039Y117107D01*
Y116908D01*
X184023Y116720D01*
X184033Y116634D01*
X184023Y116548D01*
X184039Y116359D01*
Y116161D01*
X184118Y115971D01*
X184132Y115918D01*
X184168Y115844D01*
X184186Y115763D01*
X184281Y115550D01*
X184308Y115512D01*
X184401Y115287D01*
X184577Y115111D01*
X184604Y115068D01*
X184717Y114950D01*
X184401Y114634D01*
X184039Y113760D01*
Y112814D01*
X184401Y111940D01*
X184825Y111005D01*
X184539Y110315D01*
Y109662D01*
X179301D01*
X179265Y109669D01*
X171841D01*
X170874Y110663D01*
X170874Y113365D01*
X171374Y114157D01*
X171374Y114482D01*
Y116626D01*
X165634D01*
X165634Y114157D01*
X166134Y113365D01*
X166134Y113157D01*
Y110716D01*
X165159Y109754D01*
X164772Y110492D01*
Y113295D01*
X160425D01*
Y108752D01*
X160425D01*
X160425Y107783D01*
X160425D01*
Y103240D01*
X164772D01*
Y105873D01*
X164961Y106081D01*
X165872Y106062D01*
X166078Y105922D01*
X166134Y105849D01*
X166134Y103171D01*
X165634Y102378D01*
X165634Y102054D01*
Y99910D01*
X171374D01*
X171374Y102378D01*
X170874Y103171D01*
X170874Y103378D01*
Y106787D01*
X170890Y106866D01*
X178765D01*
X178802Y106859D01*
X183545D01*
X183908Y106731D01*
X184071Y106651D01*
X184560Y106114D01*
X184630Y105894D01*
X184664Y105854D01*
X184669Y105803D01*
X184779Y105598D01*
X184526Y104762D01*
X184331Y104561D01*
X182776D01*
X182273Y104461D01*
X181847Y104176D01*
X173481Y95810D01*
X173197Y95384D01*
X173097Y94882D01*
X172354Y94193D01*
X171850D01*
Y89303D01*
X171850Y89272D01*
X171774Y88303D01*
X171638D01*
Y86130D01*
X174409D01*
X177181D01*
Y88303D01*
X177044D01*
X176969Y89272D01*
X176969Y89303D01*
Y94193D01*
X176969D01*
X176577Y95193D01*
X182986Y101602D01*
X183489Y101507D01*
X183775Y101206D01*
X183853Y101060D01*
X184068Y100444D01*
X184039Y100375D01*
Y100176D01*
X184023Y99988D01*
X184033Y99902D01*
X184023Y99815D01*
X184039Y99627D01*
Y99429D01*
X184118Y99238D01*
X184132Y99185D01*
X184168Y99111D01*
X184186Y99031D01*
X184281Y98818D01*
X184308Y98779D01*
X184401Y98555D01*
X184577Y98379D01*
X184604Y98336D01*
X184717Y98218D01*
X184401Y97902D01*
X184051Y97055D01*
X185137D01*
X185213Y97224D01*
X185343Y97417D01*
X185500Y97583D01*
X185689Y97724D01*
X185894Y97831D01*
X186114Y97898D01*
X186346Y97933D01*
X186579Y97925D01*
X186803Y97878D01*
X187020Y97795D01*
X187221Y97673D01*
X187398Y97524D01*
X187547Y97342D01*
X190602D01*
X190752Y97524D01*
X190929Y97673D01*
X191130Y97795D01*
X191347Y97878D01*
X191571Y97925D01*
X191803Y97933D01*
X192035Y97898D01*
X192256Y97831D01*
X192461Y97724D01*
X192650Y97583D01*
X192807Y97417D01*
X192937Y97224D01*
X193012Y97055D01*
X194099D01*
X193748Y97902D01*
X193433Y98218D01*
X193545Y98336D01*
X193572Y98379D01*
X193748Y98555D01*
X193841Y98779D01*
X193869Y98818D01*
X193963Y99031D01*
X193981Y99111D01*
X194018Y99185D01*
X194031Y99238D01*
X194110Y99429D01*
Y99627D01*
X194126Y99815D01*
X194116Y99902D01*
X194126Y99988D01*
X194110Y100176D01*
Y100375D01*
X194031Y100565D01*
X194018Y100618D01*
X193981Y100692D01*
X193963Y100772D01*
X193869Y100985D01*
X193841Y101024D01*
X193748Y101249D01*
X193572Y101425D01*
X193545Y101467D01*
X193433Y101585D01*
X193748Y101901D01*
X194110Y102775D01*
Y103721D01*
X193748Y104595D01*
X193324Y105531D01*
X193610Y106221D01*
Y106968D01*
X193324Y107658D01*
X193309Y107703D01*
X193198Y108173D01*
X193303Y108841D01*
X193424Y109038D01*
X193432Y109086D01*
X193467Y109122D01*
X193554Y109338D01*
X193553Y109388D01*
X193581Y109430D01*
X193609Y109565D01*
X193610Y109567D01*
Y109570D01*
X193628Y109658D01*
X193620Y109701D01*
X193639Y109740D01*
X193651Y109973D01*
X193633Y110022D01*
X193647Y110073D01*
X193615Y110305D01*
X193610Y110313D01*
Y110315D01*
X193594Y110354D01*
X193597Y110387D01*
X193530Y110611D01*
X193497Y110653D01*
X193492Y110706D01*
X193386Y110911D01*
X193607Y111739D01*
X193608Y111741D01*
X193822Y111975D01*
X194783D01*
X195286Y112075D01*
X195712Y112359D01*
X197885Y114532D01*
X198169Y114958D01*
X198269Y115461D01*
Y122189D01*
X198832Y122490D01*
X199269Y122585D01*
X199927Y122081D01*
X200817Y121712D01*
X201772Y121587D01*
X204224D01*
Y125276D01*
Y128965D01*
X201772D01*
X200817Y128839D01*
X199927Y128470D01*
X199269Y127966D01*
X198832Y128061D01*
X198269Y128362D01*
Y132087D01*
X199378D01*
X199409Y132087D01*
X200378Y132010D01*
Y131874D01*
X202551D01*
Y134646D01*
Y137417D01*
X201120D01*
X200518Y138334D01*
X200523Y138417D01*
X200744Y139244D01*
Y140165D01*
X200506Y141056D01*
X200045Y141854D01*
X199393Y142505D01*
X198595Y142966D01*
X197705Y143205D01*
X196783D01*
X195893Y142966D01*
X195345Y142650D01*
X195121Y142520D01*
X195121D01*
X195143Y142533D01*
X194958Y142529D01*
X194869Y142544D01*
X194476Y142656D01*
X194159Y142897D01*
X194110Y143443D01*
X194110Y143743D01*
Y145169D01*
X191142D01*
Y145669D01*
X190642D01*
Y148539D01*
X188173D01*
X188173Y148539D01*
Y148539D01*
X187600Y149284D01*
X187598Y149311D01*
X187598D01*
Y154232D01*
D02*
G37*
G36*
X69307Y128756D02*
X67626D01*
Y126484D01*
X69307D01*
Y128756D01*
D02*
G37*
G36*
X42610D02*
X40929D01*
Y126484D01*
X42610D01*
Y128756D01*
D02*
G37*
G36*
X207677Y128965D02*
X205224D01*
Y125776D01*
X211300D01*
X211241Y126230D01*
X210872Y127120D01*
X210286Y127884D01*
X209522Y128470D01*
X208632Y128839D01*
X207677Y128965D01*
D02*
G37*
G36*
X187886D02*
X184646D01*
X183691Y128839D01*
X182801Y128470D01*
X182037Y127884D01*
X181451Y127120D01*
X181082Y126230D01*
X181022Y125776D01*
X187886D01*
Y128965D01*
D02*
G37*
G36*
X69307Y125484D02*
X67626D01*
Y123213D01*
X69307D01*
Y125484D01*
D02*
G37*
G36*
X66626Y128756D02*
X62114D01*
Y125984D01*
Y123213D01*
X66626D01*
Y125984D01*
Y128756D01*
D02*
G37*
G36*
X61114D02*
X55618D01*
Y125984D01*
Y123213D01*
X61114D01*
Y125984D01*
Y128756D01*
D02*
G37*
G36*
X54618D02*
X49122D01*
Y125984D01*
Y123213D01*
X54618D01*
Y125984D01*
Y128756D01*
D02*
G37*
G36*
X48122D02*
X43610D01*
Y125984D01*
Y123213D01*
X48122D01*
Y125984D01*
Y128756D01*
D02*
G37*
G36*
X42610Y125484D02*
X40929D01*
Y123213D01*
X42610D01*
Y125484D01*
D02*
G37*
G36*
X211300Y124776D02*
X205224D01*
Y121587D01*
X207677D01*
X208632Y121712D01*
X209522Y122081D01*
X210286Y122667D01*
X210872Y123431D01*
X211241Y124321D01*
X211300Y124776D01*
D02*
G37*
G36*
X98925Y122457D02*
Y120776D01*
X101197D01*
Y122457D01*
X98925D01*
D02*
G37*
G36*
X79618Y120980D02*
X77150D01*
Y118610D01*
X79618D01*
Y120980D01*
D02*
G37*
G36*
X171374Y120095D02*
X169004D01*
Y117626D01*
X171374D01*
Y120095D01*
D02*
G37*
G36*
X168004D02*
X165634D01*
Y117626D01*
X168004D01*
Y120095D01*
D02*
G37*
G36*
X96457Y174935D02*
X81890D01*
X81388Y174835D01*
X80962Y174550D01*
X78599Y172188D01*
X78315Y171762D01*
X78215Y171260D01*
Y170866D01*
X77165D01*
Y166142D01*
X81890D01*
Y170866D01*
X81890D01*
X81626Y171502D01*
X82433Y172309D01*
X95913D01*
X128796Y139427D01*
Y122638D01*
X123435D01*
Y117376D01*
X122511Y116993D01*
X110900Y128604D01*
Y147722D01*
X110800Y148225D01*
X110515Y148651D01*
X89734Y169432D01*
X89308Y169717D01*
X88806Y169817D01*
X88189D01*
Y170866D01*
X83465D01*
Y166142D01*
X88189D01*
Y166142D01*
X89189Y166264D01*
X108275Y147179D01*
Y128060D01*
X108375Y127558D01*
X108659Y127132D01*
X130814Y104977D01*
X131240Y104693D01*
X131742Y104593D01*
X135677D01*
X137649Y102620D01*
X137349Y101506D01*
X136994Y101394D01*
Y101394D01*
X135608D01*
Y97539D01*
Y93685D01*
X136994D01*
Y93898D01*
X141781D01*
Y94185D01*
X143994D01*
Y100894D01*
X143442D01*
Y106866D01*
X154307D01*
X154323Y106787D01*
Y103240D01*
X158669D01*
Y107783D01*
X158669D01*
X158669Y108752D01*
X158669D01*
Y113295D01*
X154323D01*
Y109749D01*
X154307Y109669D01*
X143442D01*
Y115642D01*
X143994D01*
Y121016D01*
X144994Y121316D01*
X146106Y120204D01*
Y119618D01*
X146345Y118728D01*
X146806Y117930D01*
X147457Y117278D01*
X148255Y116817D01*
X149145Y116579D01*
X150067D01*
X150957Y116817D01*
X151755Y117278D01*
X152407Y117930D01*
X152868Y118728D01*
X153106Y119618D01*
Y120539D01*
X152868Y121430D01*
X152407Y122228D01*
X151755Y122879D01*
X150957Y123340D01*
X150067Y123579D01*
X149145D01*
X148255Y123340D01*
X148144Y123276D01*
X146807Y124612D01*
X146221Y125004D01*
X145530Y125141D01*
X141108D01*
X140416Y125004D01*
X139830Y124612D01*
X138929Y123711D01*
X138538Y123125D01*
X138441Y122638D01*
X137013D01*
Y126969D01*
X138484D01*
Y127798D01*
X166684D01*
X166951Y127335D01*
X167603Y126683D01*
X168401Y126223D01*
X169291Y125984D01*
X170213D01*
X171103Y126223D01*
X171901Y126683D01*
X172553Y127335D01*
X173014Y128133D01*
X173252Y129024D01*
Y129945D01*
X173014Y130835D01*
X172553Y131633D01*
X171901Y132285D01*
X171103Y132746D01*
X170213Y132984D01*
X169291D01*
X168401Y132746D01*
X167603Y132285D01*
X166951Y131633D01*
X166823Y131411D01*
X139378D01*
X138638Y132411D01*
X138697Y132661D01*
X138697Y133392D01*
Y135130D01*
X132957D01*
Y133392D01*
X132957Y132661D01*
X133169Y131749D01*
Y126969D01*
X133400D01*
Y122850D01*
X133108D01*
Y118996D01*
Y115142D01*
X134494D01*
Y115354D01*
X141774D01*
Y109168D01*
X141838Y108849D01*
X142019Y108579D01*
X142330Y108268D01*
X142019Y107957D01*
X141838Y107686D01*
X141774Y107367D01*
Y103578D01*
X140774Y103208D01*
X137149Y106834D01*
X136723Y107118D01*
X136221Y107218D01*
X132286D01*
X125074Y114430D01*
X125456Y115354D01*
X130722D01*
Y115142D01*
X132108D01*
Y118996D01*
Y122850D01*
X131421D01*
Y139971D01*
X131321Y140473D01*
X131036Y140899D01*
X97385Y174550D01*
X96959Y174835D01*
X96457Y174935D01*
D02*
G37*
G36*
X69488Y152559D02*
X64370D01*
Y147638D01*
X69488D01*
Y147638D01*
X70263Y147959D01*
X92888Y125334D01*
Y117303D01*
X91964Y116921D01*
X90383Y118502D01*
X89797Y118893D01*
X89106Y119031D01*
X88779D01*
Y120768D01*
X86846D01*
Y122900D01*
X86820Y123031D01*
X87120Y123551D01*
X87358Y124441D01*
Y125362D01*
X87120Y126252D01*
X86659Y127051D01*
X86007Y127702D01*
X85209Y128163D01*
X84319Y128402D01*
X83398D01*
X82507Y128163D01*
X81709Y127702D01*
X81058Y127051D01*
X80597Y126252D01*
X80358Y125362D01*
Y124441D01*
X80597Y123551D01*
X81058Y122752D01*
X81709Y122101D01*
X81918Y121980D01*
X81650Y120980D01*
X80618D01*
Y118110D01*
Y115240D01*
X81087D01*
X81890Y114764D01*
X81890Y114240D01*
Y112172D01*
X80265Y110547D01*
X79980Y110122D01*
X79880Y109619D01*
Y86791D01*
X76599Y83510D01*
X76315Y83084D01*
X76215Y82582D01*
Y68622D01*
X64023Y56431D01*
X47244D01*
X46742Y56331D01*
X46316Y56046D01*
X42237Y51968D01*
X41953Y51542D01*
X41853Y51039D01*
Y50105D01*
X41488Y50007D01*
X40497Y49435D01*
X39687Y48625D01*
X39115Y47634D01*
X38819Y46529D01*
Y45384D01*
X39115Y44279D01*
X39687Y43288D01*
X40497Y42479D01*
X41488Y41906D01*
X42593Y41610D01*
X43738D01*
X44843Y41906D01*
X45834Y42479D01*
X46643Y43288D01*
X47216Y44279D01*
X47512Y45384D01*
Y46529D01*
X47216Y47634D01*
X46643Y48625D01*
X45834Y49435D01*
X45198Y49802D01*
X44953Y50770D01*
X44986Y51004D01*
X47788Y53806D01*
X64567D01*
X65069Y53905D01*
X65495Y54190D01*
X77275Y65970D01*
X78199Y65588D01*
Y53678D01*
X73875Y49353D01*
X73590Y48928D01*
X73491Y48425D01*
Y42913D01*
X73590Y42411D01*
X73875Y41985D01*
X77358Y38502D01*
X77094Y38044D01*
X76772Y36843D01*
Y35598D01*
X77094Y34397D01*
X77716Y33320D01*
X78595Y32440D01*
X79672Y31818D01*
X80874Y31496D01*
X82118D01*
X83320Y31818D01*
X84397Y32440D01*
X85277Y33320D01*
X85899Y34397D01*
X86221Y35598D01*
Y36843D01*
X85899Y38044D01*
X85277Y39121D01*
X84397Y40001D01*
X83320Y40623D01*
X82118Y40945D01*
X80874D01*
X79672Y40623D01*
X79214Y40358D01*
X76116Y43457D01*
Y45600D01*
X77094Y45814D01*
X77716Y44737D01*
X78595Y43857D01*
X79672Y43235D01*
X80874Y42913D01*
X82118D01*
X83320Y43235D01*
X84397Y43857D01*
X85277Y44737D01*
X85899Y45814D01*
X86221Y47016D01*
Y48260D01*
X85899Y49461D01*
X85277Y50539D01*
X84397Y51418D01*
X83320Y52040D01*
X82809Y52177D01*
Y75575D01*
X85220D01*
Y76707D01*
X87221D01*
Y75575D01*
X90764D01*
Y76953D01*
X89631D01*
Y78953D01*
X90764D01*
Y80331D01*
X91499Y80971D01*
X98078D01*
X104134Y74915D01*
Y71850D01*
X109252D01*
Y72998D01*
X110844D01*
Y71850D01*
X115765D01*
Y76968D01*
X110844D01*
Y75624D01*
X109252D01*
Y76772D01*
X105990D01*
X99550Y83212D01*
X99124Y83496D01*
X98622Y83596D01*
X91004D01*
X90551Y84449D01*
X91004Y85302D01*
X98622D01*
X99124Y85401D01*
X99550Y85686D01*
X105990Y92126D01*
X109252D01*
X109411Y91887D01*
X109827Y91059D01*
Y88689D01*
X112795D01*
Y88189D01*
X113295D01*
Y85319D01*
X115033D01*
X115764Y85319D01*
X116676Y85532D01*
X121457D01*
Y86483D01*
X124114D01*
X124767Y86613D01*
X125320Y86983D01*
X130372Y92034D01*
X131296Y91652D01*
Y88253D01*
X120011Y76968D01*
X116946D01*
Y71850D01*
X121867D01*
Y75112D01*
X133536Y86782D01*
X133821Y87207D01*
X133921Y87710D01*
Y93685D01*
X134608D01*
Y97539D01*
Y101394D01*
X133222D01*
Y101181D01*
X131814D01*
Y101388D01*
X131684Y102041D01*
X131315Y102594D01*
X124041Y109868D01*
X123487Y110238D01*
X122835Y110367D01*
X109749D01*
X109494Y110810D01*
X108842Y111462D01*
X108044Y111923D01*
X107154Y112161D01*
X106232D01*
X105342Y111923D01*
X104544Y111462D01*
X103892Y110810D01*
X103431Y110012D01*
X103193Y109122D01*
Y108201D01*
X103431Y107310D01*
X103892Y106512D01*
X104544Y105861D01*
X104987Y105605D01*
Y103150D01*
X104134D01*
Y98228D01*
X109252D01*
Y103150D01*
X108399D01*
Y105605D01*
X108842Y105861D01*
X109494Y106512D01*
X109749Y106955D01*
X122128D01*
X126978Y102105D01*
X126596Y101181D01*
X123435D01*
Y95801D01*
X121260D01*
Y97047D01*
X116339D01*
Y91929D01*
X121260D01*
Y93176D01*
X124026D01*
X124528Y93275D01*
X124954Y93560D01*
X125179Y93786D01*
X125849Y93710D01*
X126231Y92719D01*
X123407Y89895D01*
X121457D01*
Y90847D01*
X116676D01*
X115764Y91059D01*
X115471D01*
X115157Y91929D01*
X115157Y92059D01*
Y97047D01*
X110236D01*
Y97047D01*
X109252D01*
Y97047D01*
X104134D01*
Y93982D01*
X98078Y87927D01*
X90907D01*
X90551Y88779D01*
X90551Y88779D01*
X90551D01*
X90551Y88779D01*
Y91254D01*
X91873Y92576D01*
X92158Y93002D01*
X92257Y93504D01*
Y104992D01*
X94653Y107388D01*
X95653Y106974D01*
Y104905D01*
Y102272D01*
X98425D01*
X101197D01*
Y104905D01*
Y107768D01*
X98425D01*
Y108768D01*
X101197D01*
Y110811D01*
Y114264D01*
X98425D01*
Y115264D01*
X101197D01*
Y118095D01*
Y119776D01*
X98425D01*
Y120276D01*
X97925D01*
Y122457D01*
X95654Y122457D01*
X95513Y123399D01*
Y125878D01*
X95414Y126380D01*
X95129Y126806D01*
X70908Y151027D01*
X70483Y151311D01*
X69980Y151411D01*
X69488D01*
Y152559D01*
D02*
G37*
G36*
X79618Y117610D02*
X77150D01*
Y115240D01*
X79618D01*
Y117610D01*
D02*
G37*
G36*
X22457Y100803D02*
X20185D01*
Y99122D01*
X22457D01*
Y100803D01*
D02*
G37*
G36*
X19185D02*
X16913D01*
Y99122D01*
X19185D01*
Y100803D01*
D02*
G37*
G36*
X101197Y101272D02*
X98425D01*
X95653D01*
Y97819D01*
Y96760D01*
X98425D01*
X101197D01*
Y97819D01*
Y101272D01*
D02*
G37*
G36*
X171374Y98909D02*
X169004D01*
Y96441D01*
X171374D01*
Y98909D01*
D02*
G37*
G36*
X168004D02*
X165634D01*
Y96441D01*
X168004D01*
Y98909D01*
D02*
G37*
G36*
X194099Y96055D02*
X193012D01*
X192937Y95886D01*
X192807Y95693D01*
X192650Y95528D01*
X192461Y95386D01*
X192256Y95280D01*
X192035Y95213D01*
X191803Y95177D01*
X191571Y95185D01*
X191347Y95232D01*
X191130Y95315D01*
X190929Y95437D01*
X190752Y95587D01*
X190602Y95768D01*
X187547D01*
X187398Y95587D01*
X187221Y95437D01*
X187020Y95315D01*
X186803Y95232D01*
X186579Y95185D01*
X186346Y95177D01*
X186114Y95213D01*
X185894Y95280D01*
X185689Y95386D01*
X185500Y95528D01*
X185343Y95693D01*
X185213Y95886D01*
X185137Y96055D01*
X184051D01*
X184120Y95888D01*
X183697Y94839D01*
X183580Y94777D01*
X182801Y94455D01*
X182037Y93868D01*
X181451Y93104D01*
X181082Y92215D01*
X181023Y91760D01*
X188386D01*
X195749D01*
X195689Y92215D01*
X195321Y93104D01*
X194735Y93868D01*
X194219Y94264D01*
X193748Y95208D01*
X194099Y96055D01*
D02*
G37*
G36*
X101197Y95760D02*
X98925D01*
Y94079D01*
X101197D01*
Y95760D01*
D02*
G37*
G36*
X97925D02*
X95653D01*
Y94079D01*
X97925D01*
Y95760D01*
D02*
G37*
G36*
X22457Y98122D02*
X19685D01*
X16913D01*
Y96441D01*
Y93610D01*
X19685D01*
X22457D01*
Y96441D01*
Y98122D01*
D02*
G37*
G36*
X207677Y94949D02*
X205224D01*
Y91760D01*
X211300D01*
X211241Y92215D01*
X210872Y93104D01*
X210286Y93868D01*
X209522Y94455D01*
X208632Y94823D01*
X207677Y94949D01*
D02*
G37*
G36*
X204224D02*
X201772D01*
X200817Y94823D01*
X199927Y94455D01*
X199163Y93868D01*
X198577Y93104D01*
X198208Y92215D01*
X198148Y91760D01*
X204224D01*
Y94949D01*
D02*
G37*
G36*
X211300Y90760D02*
X205224D01*
Y87571D01*
X207677D01*
X208632Y87696D01*
X209522Y88065D01*
X210286Y88651D01*
X210872Y89415D01*
X211241Y90305D01*
X211300Y90760D01*
D02*
G37*
G36*
X204224D02*
X198148D01*
X198208Y90305D01*
X198577Y89415D01*
X199163Y88651D01*
X199927Y88065D01*
X200817Y87696D01*
X201772Y87571D01*
X204224D01*
Y90760D01*
D02*
G37*
G36*
X195749D02*
X188886D01*
Y87571D01*
X192126D01*
X193081Y87696D01*
X193971Y88065D01*
X194735Y88651D01*
X195321Y89415D01*
X195689Y90305D01*
X195749Y90760D01*
D02*
G37*
G36*
X187886D02*
X181022D01*
X181082Y90305D01*
X181451Y89415D01*
X182037Y88651D01*
X182801Y88065D01*
X183691Y87696D01*
X184646Y87571D01*
X187886D01*
Y90760D01*
D02*
G37*
G36*
X22457Y92610D02*
X19685D01*
X16913D01*
Y89157D01*
Y87114D01*
X19685D01*
X22457D01*
Y89157D01*
Y92610D01*
D02*
G37*
G36*
X112295Y87689D02*
X109827D01*
Y85319D01*
X112295D01*
Y87689D01*
D02*
G37*
G36*
X177181Y85130D02*
X174909D01*
Y82957D01*
X177181D01*
Y85130D01*
D02*
G37*
G36*
X173909D02*
X171638D01*
Y82957D01*
X173909D01*
Y85130D01*
D02*
G37*
G36*
X22457Y86114D02*
X19685D01*
X16913D01*
Y83252D01*
Y80618D01*
X19685D01*
X22457D01*
Y83252D01*
Y86114D01*
D02*
G37*
G36*
Y79618D02*
X19685D01*
X16913D01*
Y76165D01*
Y75106D01*
X19685D01*
X22457D01*
Y76165D01*
Y79618D01*
D02*
G37*
G36*
Y74106D02*
X20185D01*
Y72425D01*
X22457D01*
Y74106D01*
D02*
G37*
G36*
X19185D02*
X16913D01*
Y72425D01*
X19185D01*
Y74106D01*
D02*
G37*
G36*
X69307Y69701D02*
X67626D01*
Y67429D01*
X69307D01*
Y69701D01*
D02*
G37*
G36*
X42610D02*
X40929D01*
Y67429D01*
X42610D01*
Y69701D01*
D02*
G37*
G36*
X97705Y71610D02*
X96783D01*
X95893Y71372D01*
X95095Y70911D01*
X94443Y70259D01*
X93983Y69461D01*
X93744Y68571D01*
Y67650D01*
X93983Y66759D01*
X94443Y65961D01*
X95095Y65310D01*
X95893Y64849D01*
X96783Y64610D01*
X97705D01*
X98595Y64849D01*
X99393Y65310D01*
X100045Y65961D01*
X100271Y66353D01*
X104134D01*
Y65748D01*
X109252D01*
Y70669D01*
X104134D01*
Y69966D01*
X100214D01*
X100045Y70259D01*
X99393Y70911D01*
X98595Y71372D01*
X97705Y71610D01*
D02*
G37*
G36*
X69307Y66429D02*
X67626D01*
Y64157D01*
X69307D01*
Y66429D01*
D02*
G37*
G36*
X66626Y69701D02*
X62114D01*
Y66929D01*
Y64157D01*
X66626D01*
Y66929D01*
Y69701D01*
D02*
G37*
G36*
X61114D02*
X55618D01*
Y66929D01*
Y64157D01*
X61114D01*
Y66929D01*
Y69701D01*
D02*
G37*
G36*
X54618D02*
X49122D01*
Y66929D01*
Y64157D01*
X54618D01*
Y66929D01*
Y69701D01*
D02*
G37*
G36*
X48122D02*
X43610D01*
Y66929D01*
Y64157D01*
X48122D01*
Y66929D01*
Y69701D01*
D02*
G37*
G36*
X42610Y66429D02*
X40929D01*
Y64157D01*
X42610D01*
Y66429D01*
D02*
G37*
G36*
X53738Y50303D02*
X53665D01*
Y46457D01*
X57512D01*
Y46529D01*
X57216Y47634D01*
X56643Y48625D01*
X55834Y49435D01*
X54843Y50007D01*
X53738Y50303D01*
D02*
G37*
G36*
X52665D02*
X52593D01*
X51488Y50007D01*
X50497Y49435D01*
X49687Y48625D01*
X49115Y47634D01*
X48819Y46529D01*
Y46457D01*
X52665D01*
Y50303D01*
D02*
G37*
G36*
X57512Y45457D02*
X53665D01*
Y41610D01*
X53738D01*
X54843Y41906D01*
X55834Y42479D01*
X56643Y43288D01*
X57216Y44279D01*
X57512Y45384D01*
Y45457D01*
D02*
G37*
G36*
X52665D02*
X48819D01*
Y45384D01*
X49115Y44279D01*
X49687Y43288D01*
X50497Y42479D01*
X51488Y41906D01*
X52593Y41610D01*
X52665D01*
Y45457D01*
D02*
G37*
G36*
X53738Y38302D02*
X53665D01*
Y34456D01*
X57512D01*
Y34528D01*
X57216Y35633D01*
X56643Y36625D01*
X55834Y37434D01*
X54843Y38006D01*
X53738Y38302D01*
D02*
G37*
G36*
X52665D02*
X52593D01*
X51488Y38006D01*
X50497Y37434D01*
X49687Y36625D01*
X49115Y35633D01*
X48819Y34528D01*
Y34456D01*
X52665D01*
Y38302D01*
D02*
G37*
G36*
X57512Y33456D02*
X53665D01*
Y29609D01*
X53738D01*
X54843Y29906D01*
X55834Y30478D01*
X56643Y31287D01*
X57216Y32278D01*
X57512Y33384D01*
Y33456D01*
D02*
G37*
G36*
X52665D02*
X48819D01*
Y33384D01*
X49115Y32278D01*
X49687Y31287D01*
X50497Y30478D01*
X51488Y29906D01*
X52593Y29609D01*
X52665D01*
Y33456D01*
D02*
G37*
%LPD*%
G36*
X192035Y117976D02*
X192256Y117909D01*
X192461Y117803D01*
X192650Y117661D01*
X192807Y117496D01*
X192937Y117303D01*
X193032Y117091D01*
X193091Y116866D01*
X193110Y116634D01*
X193091Y116402D01*
X193032Y116177D01*
X192937Y115965D01*
X192807Y115772D01*
X192650Y115606D01*
X192461Y115465D01*
X192256Y115358D01*
X192035Y115291D01*
X191803Y115256D01*
X191571Y115264D01*
X191347Y115311D01*
X191130Y115394D01*
X190929Y115516D01*
X190752Y115665D01*
X190602Y115847D01*
X187547D01*
X187398Y115665D01*
X187221Y115516D01*
X187020Y115394D01*
X186803Y115311D01*
X186579Y115264D01*
X186346Y115256D01*
X186114Y115291D01*
X185894Y115358D01*
X185689Y115465D01*
X185500Y115606D01*
X185343Y115772D01*
X185213Y115965D01*
X185118Y116177D01*
X185059Y116402D01*
X185039Y116634D01*
X185059Y116866D01*
X185118Y117091D01*
X185213Y117303D01*
X185343Y117496D01*
X185500Y117661D01*
X185689Y117803D01*
X185894Y117909D01*
X186114Y117976D01*
X186346Y118012D01*
X186579Y118004D01*
X186803Y117957D01*
X187020Y117874D01*
X187221Y117752D01*
X187398Y117602D01*
X187547Y117421D01*
X190601D01*
X190752Y117602D01*
X190929Y117752D01*
X191130Y117874D01*
X191347Y117957D01*
X191571Y118004D01*
X191803Y118012D01*
X192035Y117976D01*
D02*
G37*
G36*
X191969Y111299D02*
X192197Y111240D01*
X192409Y111146D01*
X192602Y111012D01*
X192768Y110850D01*
X192905Y110661D01*
X193012Y110457D01*
X193079Y110232D01*
X193110Y110000D01*
X193098Y109768D01*
X193051Y109539D01*
X192965Y109323D01*
X192842Y109126D01*
X192689Y108949D01*
X192508Y108803D01*
X192303Y108689D01*
X192083Y108610D01*
X191854Y108571D01*
X191622Y108567D01*
X191390Y108606D01*
X191177Y108681D01*
X191175Y108681D01*
X187795Y106535D01*
X187768Y106315D01*
X187701Y106091D01*
X187598Y105882D01*
X187461Y105693D01*
X187295Y105532D01*
X187102Y105398D01*
X186894Y105299D01*
X186665Y105236D01*
X186433Y105217D01*
X186201Y105232D01*
X185976Y105287D01*
X185764Y105382D01*
X185567Y105508D01*
X185398Y105669D01*
X185256Y105854D01*
X185146Y106059D01*
X185075Y106280D01*
X185043Y106512D01*
X185047Y106744D01*
X185094Y106972D01*
X185177Y107193D01*
X185295Y107394D01*
X185445Y107571D01*
X185622Y107720D01*
X185823Y107839D01*
X186043Y107921D01*
X186272Y107965D01*
X186504Y107968D01*
X186736Y107937D01*
X186949Y107866D01*
X190354Y110028D01*
X190386Y110244D01*
X190457Y110468D01*
X190563Y110677D01*
X190705Y110862D01*
X190874Y111024D01*
X191067Y111150D01*
X191279Y111244D01*
X191504Y111303D01*
X191736Y111323D01*
X191969Y111299D01*
D02*
G37*
G36*
X192035Y101244D02*
X192256Y101177D01*
X192461Y101071D01*
X192650Y100929D01*
X192807Y100764D01*
X192937Y100571D01*
X193032Y100358D01*
X193091Y100134D01*
X193110Y99902D01*
X193091Y99669D01*
X193032Y99445D01*
X192937Y99232D01*
X192807Y99039D01*
X192650Y98874D01*
X192461Y98732D01*
X192256Y98626D01*
X192035Y98559D01*
X191803Y98524D01*
X191571Y98532D01*
X191347Y98579D01*
X191130Y98661D01*
X190929Y98783D01*
X190752Y98933D01*
X190602Y99114D01*
X187547D01*
X187398Y98933D01*
X187221Y98783D01*
X187020Y98661D01*
X186803Y98579D01*
X186579Y98532D01*
X186346Y98524D01*
X186114Y98559D01*
X185894Y98626D01*
X185689Y98732D01*
X185500Y98874D01*
X185343Y99039D01*
X185213Y99232D01*
X185118Y99445D01*
X185059Y99669D01*
X185039Y99902D01*
X185059Y100134D01*
X185118Y100358D01*
X185213Y100571D01*
X185343Y100764D01*
X185500Y100929D01*
X185689Y101071D01*
X185894Y101177D01*
X186114Y101244D01*
X186346Y101279D01*
X186579Y101272D01*
X186803Y101224D01*
X187020Y101142D01*
X187221Y101020D01*
X187398Y100870D01*
X187547Y100689D01*
X190601D01*
X190752Y100870D01*
X190929Y101020D01*
X191130Y101142D01*
X191347Y101224D01*
X191571Y101272D01*
X191803Y101279D01*
X192035Y101244D01*
D02*
G37*
D13*
X130108Y118996D02*
Y139971D01*
X96457Y173622D02*
X130108Y139971D01*
X81890Y173622D02*
X96457D01*
X109587Y128060D02*
Y147722D01*
Y128060D02*
X131742Y105905D01*
X140108Y97539D02*
Y102018D01*
X136221Y105905D02*
X140108Y102018D01*
X131742Y105905D02*
X136221D01*
X85827Y168504D02*
X88806D01*
X109587Y147722D01*
X69980Y150098D02*
X94201Y125878D01*
Y108792D02*
Y125878D01*
X90945Y105536D02*
X94201Y108792D01*
X88386Y90945D02*
X90945Y93504D01*
Y105536D01*
X83177Y111604D02*
Y111721D01*
X81193Y86247D02*
Y109619D01*
X83177Y111604D01*
Y111721D02*
X84055Y112598D01*
X64567Y55118D02*
X77528Y68079D01*
Y82582D01*
X81193Y86247D01*
X84055Y112598D02*
X86221D01*
X47244Y55118D02*
X64567D01*
X43165Y51039D02*
X47244Y55118D01*
X43165Y45957D02*
Y51039D01*
X35039Y40769D02*
Y68898D01*
X41853Y33956D02*
X43165D01*
X35039Y40769D02*
X41853Y33956D01*
X35039Y68898D02*
X44094Y77953D01*
X48819D01*
X83177Y85425D02*
Y85736D01*
X79512Y81760D02*
X83177Y85425D01*
X84055Y86614D02*
X98622D01*
X79512Y53134D02*
Y81760D01*
X83177Y85736D02*
X84055Y86614D01*
X74803Y42913D02*
Y48425D01*
X79512Y53134D01*
X74803Y42913D02*
X81496Y36220D01*
X79528Y171260D02*
X81890Y173622D01*
X79528Y168504D02*
Y171260D01*
X84055Y82284D02*
X86221D01*
X81496Y79724D02*
X84055Y82284D01*
X81496Y47638D02*
Y79724D01*
X119406Y74508D02*
X132608Y87710D01*
Y97539D01*
X119406Y74410D02*
Y74508D01*
X113206Y74311D02*
X113304Y74410D01*
X106693Y74311D02*
X113206D01*
X86221Y82284D02*
X98622D01*
X106595Y74311D01*
X106693D01*
X98622Y86614D02*
X106595Y94587D01*
X106693D02*
X112598D01*
X106595D02*
X106693D01*
X66929Y150098D02*
X69980D01*
X86221Y90945D02*
X88386D01*
X84055D02*
X86221D01*
X191732Y113287D02*
X194783D01*
X196957Y115461D01*
X174409Y94882D02*
X182776Y103248D01*
X186417D01*
X85827Y156201D02*
Y162205D01*
X79528Y156201D02*
Y162205D01*
X66929Y156201D02*
Y162205D01*
X60630Y156201D02*
Y162205D01*
X118799Y94488D02*
X124026D01*
X125108Y95571D01*
Y97539D01*
X112598Y94587D02*
X112697Y94488D01*
X196957Y115461D02*
Y133472D01*
X174409Y91339D02*
Y94488D01*
X196957Y133079D02*
X198130Y134252D01*
D18*
X168504Y99410D02*
D03*
Y105315D02*
D03*
X168504Y111221D02*
D03*
Y117126D02*
D03*
X135827Y129724D02*
D03*
Y135630D02*
D03*
X142126Y154134D02*
D03*
Y160039D02*
D03*
D19*
X19685Y98622D02*
D03*
Y74606D02*
D03*
X98425Y120276D02*
D03*
Y96260D02*
D03*
D20*
X19685Y93110D02*
D03*
Y80118D02*
D03*
X98425Y114764D02*
D03*
Y101772D02*
D03*
D21*
X19685Y86614D02*
D03*
X98425Y108268D02*
D03*
D22*
X106693Y74311D02*
D03*
Y68209D02*
D03*
X60630Y156201D02*
D03*
Y150098D02*
D03*
X66929D02*
D03*
Y156201D02*
D03*
X174409Y91732D02*
D03*
Y85630D02*
D03*
X106693Y100689D02*
D03*
Y94587D02*
D03*
X185039Y151772D02*
D03*
Y157874D02*
D03*
X85827Y150098D02*
D03*
Y156201D02*
D03*
X79528Y150098D02*
D03*
Y156201D02*
D03*
D23*
X7087Y97638D02*
D03*
Y118898D02*
D03*
Y108268D02*
D03*
D24*
X113304Y74410D02*
D03*
X119406D02*
D03*
X156496Y105512D02*
D03*
X162598D02*
D03*
X156496Y111024D02*
D03*
X162598D02*
D03*
X118799Y94488D02*
D03*
X112697D02*
D03*
X203051Y134646D02*
D03*
X196949D02*
D03*
D25*
X48819Y77953D02*
D03*
X86221D02*
D03*
Y82284D02*
D03*
Y86614D02*
D03*
Y90945D02*
D03*
Y95276D02*
D03*
Y99606D02*
D03*
Y103937D02*
D03*
Y108268D02*
D03*
Y112598D02*
D03*
X48819Y82284D02*
D03*
Y86614D02*
D03*
Y90945D02*
D03*
Y95276D02*
D03*
Y99606D02*
D03*
Y103937D02*
D03*
Y108268D02*
D03*
Y112598D02*
D03*
D26*
X55118Y125984D02*
D03*
Y66929D02*
D03*
D27*
X61614Y125984D02*
D03*
X48622D02*
D03*
Y66929D02*
D03*
X61614D02*
D03*
D28*
X67126Y125984D02*
D03*
X43110D02*
D03*
Y66929D02*
D03*
X67126D02*
D03*
D29*
X112795Y88189D02*
D03*
X118701D02*
D03*
X86024Y118110D02*
D03*
X80118D02*
D03*
X176969Y167717D02*
D03*
X171063D02*
D03*
X191142Y145669D02*
D03*
X185236D02*
D03*
X176969Y180315D02*
D03*
X171063D02*
D03*
X176969Y174016D02*
D03*
X171063D02*
D03*
D30*
X37795Y108268D02*
D03*
X34331D02*
D03*
D31*
X29528Y108425D02*
D03*
Y112047D02*
D03*
D32*
X151575Y148819D02*
D03*
D33*
X175197Y157874D02*
D03*
Y148819D02*
D03*
Y139764D02*
D03*
D34*
X85827Y162205D02*
D03*
Y168504D02*
D03*
X79528Y162205D02*
D03*
Y168504D02*
D03*
X66929Y162205D02*
D03*
Y168504D02*
D03*
X60630Y162205D02*
D03*
Y168504D02*
D03*
D35*
X125108Y97539D02*
D03*
X127608D02*
D03*
X130108D02*
D03*
X132608D02*
D03*
X135108D02*
D03*
X137608D02*
D03*
X140108D02*
D03*
X142608D02*
D03*
X125108Y118996D02*
D03*
X127608D02*
D03*
X130108D02*
D03*
X132608D02*
D03*
X135108D02*
D03*
X137608D02*
D03*
X140108D02*
D03*
X142608D02*
D03*
D60*
X140952Y113175D02*
D03*
Y110600D02*
D03*
X141119Y108031D02*
D03*
X140952Y105462D02*
D03*
X142203Y93372D02*
D03*
X144666Y94122D02*
D03*
X144807Y96693D02*
D03*
Y99268D02*
D03*
X144265Y101785D02*
D03*
Y104360D02*
D03*
X146213Y106043D02*
D03*
X151363D02*
D03*
X153510Y104623D02*
D03*
X154856Y102427D02*
D03*
X157431D02*
D03*
X158427Y114057D02*
D03*
X155852Y114108D02*
D03*
X153544Y112967D02*
D03*
X152833Y110492D02*
D03*
X150258D02*
D03*
X147683D02*
D03*
X145108D02*
D03*
X144265Y112925D02*
D03*
X144599Y115478D02*
D03*
X144807Y118044D02*
D03*
X165276Y113609D02*
D03*
X163100Y114200D02*
D03*
X160600Y114300D02*
D03*
X159613Y111342D02*
D03*
X159709Y108768D02*
D03*
X159613Y106195D02*
D03*
X159636Y103621D02*
D03*
X161918Y102427D02*
D03*
X164492Y102471D02*
D03*
X171687Y103549D02*
D03*
X172324Y106043D02*
D03*
X174899D02*
D03*
X177473D02*
D03*
X180048Y106036D02*
D03*
X182623D02*
D03*
X194384Y107056D02*
D03*
X194414Y109631D02*
D03*
X184011Y111167D02*
D03*
X181528Y110485D02*
D03*
X178953Y110492D02*
D03*
X176379D02*
D03*
X173804D02*
D03*
X171687Y111958D02*
D03*
X900Y104000D02*
D03*
X28359Y146246D02*
D03*
X26268Y144743D02*
D03*
X25289Y142361D02*
D03*
X25718Y139823D02*
D03*
X27424Y137894D02*
D03*
X27729Y135337D02*
D03*
Y132763D02*
D03*
Y130188D02*
D03*
Y127613D02*
D03*
Y125038D02*
D03*
Y122463D02*
D03*
Y119888D02*
D03*
Y117314D02*
D03*
Y114739D02*
D03*
X26778Y112346D02*
D03*
X25581Y110066D02*
D03*
X23006D02*
D03*
X20431D02*
D03*
X17857D02*
D03*
X15289Y110259D02*
D03*
X14053Y112518D02*
D03*
X11478Y112533D02*
D03*
X8903D02*
D03*
X6328D02*
D03*
X3754D02*
D03*
X1179D02*
D03*
X3200Y104000D02*
D03*
X5415Y104002D02*
D03*
X7989D02*
D03*
X10564D02*
D03*
X13139D02*
D03*
X15289Y105419D02*
D03*
X17640Y106469D02*
D03*
X20215D02*
D03*
X22790D02*
D03*
X25365D02*
D03*
X27919Y106143D02*
D03*
X30493Y106109D02*
D03*
X33041Y105735D02*
D03*
X35615D02*
D03*
X38190D02*
D03*
X40658Y106469D02*
D03*
X43233D02*
D03*
X53675Y108578D02*
D03*
X42423Y110066D02*
D03*
X39887Y110507D02*
D03*
X37328Y110801D02*
D03*
X34754D02*
D03*
X32187Y110592D02*
D03*
X32254Y113166D02*
D03*
X31326Y115568D02*
D03*
Y118142D02*
D03*
Y120717D02*
D03*
Y123292D02*
D03*
Y125867D02*
D03*
Y128442D02*
D03*
Y131016D02*
D03*
Y133591D02*
D03*
Y136166D02*
D03*
X32861Y138233D02*
D03*
X34339Y140342D02*
D03*
X34477Y142913D02*
D03*
X33214Y145156D02*
D03*
X30966Y146412D02*
D03*
D61*
X196850Y173228D02*
D03*
X81496Y36220D02*
D03*
Y47638D02*
D03*
X129803Y173228D02*
D03*
D62*
X141108Y123335D02*
X145530D01*
X148786Y120079D02*
X149606D01*
X140207Y122434D02*
X141108Y123335D01*
X145530D02*
X148786Y120079D01*
X135947Y129604D02*
X169632D01*
X169752Y129484D01*
X135207Y128864D02*
X135947Y129604D01*
X135207Y119095D02*
Y128864D01*
X135108Y118996D02*
X135207Y119095D01*
X140207D02*
Y122434D01*
X140108Y118996D02*
X140207Y119095D01*
X91732Y109815D02*
Y114598D01*
X86221Y108268D02*
X86614Y108661D01*
X90579D01*
X89106Y117224D02*
X91732Y114598D01*
X90579Y108661D02*
X91732Y109815D01*
X87008Y117224D02*
X89106D01*
X97293Y68160D02*
X106644D01*
X106693Y68209D01*
X97244Y68110D02*
X97293Y68160D01*
X196850Y163386D02*
Y173228D01*
X129921Y172047D02*
X130709Y172835D01*
X129921Y154331D02*
Y172047D01*
X130020Y154232D02*
X142028D01*
X129921Y154331D02*
X130020Y154232D01*
X142028D02*
X142126Y154134D01*
X191339Y157874D02*
X196850Y163386D01*
X176870Y158661D02*
Y167717D01*
X85039Y118996D02*
Y122900D01*
X83858Y124081D02*
Y124902D01*
X85039Y118996D02*
X85925Y118110D01*
X86024D01*
X83858Y124081D02*
X85039Y122900D01*
X29921Y151850D02*
X31200D01*
X32952Y150098D02*
X60630D01*
X31200Y151850D02*
X32952Y150098D01*
X86221Y103937D02*
Y108268D01*
X148622Y154134D02*
X151575Y151181D01*
X142126Y154134D02*
X148622D01*
X151575Y148819D02*
Y151181D01*
Y148819D02*
X175197D01*
X191299Y139705D02*
X197244D01*
X185335Y145669D02*
X191299Y139705D01*
X185236Y145669D02*
X185335D01*
X176083Y157874D02*
X185039D01*
X176083D02*
X176870Y158661D01*
X175197Y157874D02*
X176083D01*
X176969Y174016D02*
Y180315D01*
X176969Y174016D02*
X176969Y174016D01*
X176969Y167717D02*
Y174016D01*
X185039Y157874D02*
X185039Y157874D01*
X191339D01*
X185039Y151772D02*
X185138Y151673D01*
Y145768D02*
X185236Y145669D01*
X185138Y145768D02*
Y151673D01*
D63*
X130108Y97539D02*
Y101388D01*
X122835Y108661D02*
X130108Y101388D01*
Y94183D02*
Y97539D01*
X106693Y108661D02*
X122835D01*
X106693Y100689D02*
Y108661D01*
X138583Y118898D02*
X140108D01*
X124114Y88189D02*
X130108Y94183D01*
X118701Y88189D02*
X124114D01*
X93652Y150049D02*
X93701Y150000D01*
X85876Y150049D02*
X93652D01*
X85827Y150098D02*
X85876Y150049D01*
X79528Y150098D02*
X85827D01*
X140108Y118898D02*
Y118996D01*
D64*
X7087Y108268D02*
X29370D01*
X29528Y108425D01*
X29685Y108268D01*
X34331D01*
X29528Y112047D02*
Y141752D01*
X37795Y108268D02*
X48819D01*
X48819Y108268D01*
X50394Y108268D02*
X50394Y108268D01*
D65*
X154808Y107700D02*
X155141Y107367D01*
X142608Y107367D02*
X142941Y107700D01*
X142608Y97539D02*
Y107367D01*
X142941Y107700D02*
X154808D01*
X155141Y106867D02*
X156496Y105512D01*
X155141Y106867D02*
Y107367D01*
X162598Y111024D02*
X163954Y109668D01*
Y109208D02*
Y109668D01*
X164326Y108835D02*
X165204D01*
X165204Y108835D01*
X166579D01*
X166952Y109668D02*
X168504Y111221D01*
X165674Y107700D02*
X166579D01*
X165674Y107700D02*
X165674Y107700D01*
X163954Y107327D02*
X164326Y107700D01*
X163954Y109208D02*
X164326Y108835D01*
X163954Y106867D02*
Y107327D01*
X162598Y105512D02*
X163954Y106867D01*
X166579Y107700D02*
X166952Y107327D01*
X166952Y109208D02*
Y109668D01*
X166952Y106867D02*
Y107327D01*
Y106867D02*
X168504Y105315D01*
X166579Y108835D02*
X166952Y109208D01*
X164326Y107700D02*
X165674D01*
X170056Y107327D02*
X170429Y107700D01*
X170056Y106867D02*
Y107327D01*
X168504Y105315D02*
X170056Y106867D01*
X168504Y111221D02*
X170056Y109668D01*
Y109208D02*
X170429Y108835D01*
X170056Y109208D02*
Y109668D01*
X170429Y108835D02*
X179265D01*
X170429Y107700D02*
X178794D01*
X185211Y107693D02*
X186309Y106595D01*
X178802Y107693D02*
X185211D01*
X178794Y107700D02*
X178802Y107693D01*
X179272Y108828D02*
X184985D01*
X186309Y106595D02*
X186417D01*
X186097Y109941D02*
X186417D01*
X184985Y108828D02*
X186097Y109941D01*
X179265Y108835D02*
X179272Y108828D01*
X154808Y108835D02*
X155141Y109168D01*
X142941Y108835D02*
X154808D01*
X142608Y109168D02*
X142941Y108835D01*
X142608Y109168D02*
Y118996D01*
X155141Y109168D02*
Y109668D01*
X156496Y111024D01*
D66*
X43165Y33956D02*
D03*
X53165D02*
D03*
Y45957D02*
D03*
X43165D02*
D03*
X29921Y141850D02*
D03*
Y151850D02*
D03*
D67*
X15748Y15748D02*
D03*
X200787D02*
D03*
Y200787D02*
D03*
X15748D02*
D03*
D68*
X188386Y91260D02*
D03*
Y125276D02*
D03*
D69*
X204724Y91260D02*
D03*
Y125276D02*
D03*
D70*
X186417Y96555D02*
D03*
Y99902D02*
D03*
Y103248D02*
D03*
Y106595D02*
D03*
Y109941D02*
D03*
Y113287D02*
D03*
Y116634D02*
D03*
Y119980D02*
D03*
X191732D02*
D03*
Y116634D02*
D03*
Y113287D02*
D03*
Y109941D02*
D03*
Y106595D02*
D03*
Y103248D02*
D03*
Y99902D02*
D03*
Y96555D02*
D03*
D71*
X153937Y116929D02*
D03*
X212992Y187795D02*
D03*
X207086Y175984D02*
D03*
X212992Y164173D02*
D03*
X207086Y152362D02*
D03*
X212992Y140551D02*
D03*
Y116929D02*
D03*
X207086Y105118D02*
D03*
X212992Y93307D02*
D03*
X207086Y81496D02*
D03*
X212992Y69685D02*
D03*
Y46063D02*
D03*
X207086Y34252D02*
D03*
X212992Y22441D02*
D03*
X201181Y187795D02*
D03*
Y164173D02*
D03*
X195275Y152362D02*
D03*
X201181Y116929D02*
D03*
X195275Y81496D02*
D03*
X201181Y46063D02*
D03*
X195275Y34252D02*
D03*
X183465Y199606D02*
D03*
X189370Y187795D02*
D03*
X183465Y175984D02*
D03*
X189370Y164173D02*
D03*
X183465Y81496D02*
D03*
Y34252D02*
D03*
X189370Y22441D02*
D03*
X183465Y10630D02*
D03*
X171653Y199606D02*
D03*
X177559Y187795D02*
D03*
X171653Y152362D02*
D03*
X177559Y116929D02*
D03*
X171653Y34252D02*
D03*
X177559Y22441D02*
D03*
X171653Y10630D02*
D03*
X159842Y199606D02*
D03*
X165748Y187795D02*
D03*
X159842Y175984D02*
D03*
X165748Y164173D02*
D03*
X159842Y152362D02*
D03*
X165748Y140551D02*
D03*
Y93307D02*
D03*
X159842Y34252D02*
D03*
X165748Y22441D02*
D03*
X159842Y10630D02*
D03*
X148031Y199606D02*
D03*
X153937Y187795D02*
D03*
X148031Y175984D02*
D03*
X153937Y164173D02*
D03*
Y140551D02*
D03*
Y93307D02*
D03*
Y22441D02*
D03*
X148031Y10630D02*
D03*
X136220Y199606D02*
D03*
X142126Y187795D02*
D03*
X136220Y175984D02*
D03*
X142126Y164173D02*
D03*
Y140551D02*
D03*
X136220Y81496D02*
D03*
Y57874D02*
D03*
Y10630D02*
D03*
X124409Y199606D02*
D03*
X130315Y187795D02*
D03*
X124409Y175984D02*
D03*
Y152362D02*
D03*
Y128740D02*
D03*
X130315Y69685D02*
D03*
X112598Y199606D02*
D03*
X118504Y187795D02*
D03*
X112598Y175984D02*
D03*
X118504Y164173D02*
D03*
X112598Y152362D02*
D03*
X118504Y140551D02*
D03*
X112598Y128740D02*
D03*
Y105118D02*
D03*
Y81496D02*
D03*
X118504Y69685D02*
D03*
X100787Y199606D02*
D03*
X106693Y187795D02*
D03*
X100787Y175984D02*
D03*
Y152362D02*
D03*
X106693Y140551D02*
D03*
X100787Y128740D02*
D03*
X106693Y116929D02*
D03*
X100787Y57874D02*
D03*
Y10630D02*
D03*
X88976Y199606D02*
D03*
X94882Y187795D02*
D03*
X88976Y175984D02*
D03*
X94882Y140551D02*
D03*
Y93307D02*
D03*
X88976Y57874D02*
D03*
X94882Y46063D02*
D03*
Y22441D02*
D03*
X88976Y10630D02*
D03*
X77165Y199606D02*
D03*
X83071Y187795D02*
D03*
X77165Y175984D02*
D03*
X83071Y140551D02*
D03*
X77165Y128740D02*
D03*
Y105118D02*
D03*
Y57874D02*
D03*
X83071Y22441D02*
D03*
X77165Y10630D02*
D03*
X65354Y199606D02*
D03*
X71260Y187795D02*
D03*
X65354Y175984D02*
D03*
X71260Y164173D02*
D03*
Y140551D02*
D03*
Y116929D02*
D03*
X65354Y105118D02*
D03*
X71260Y93307D02*
D03*
X65354Y81496D02*
D03*
X71260Y69685D02*
D03*
Y46063D02*
D03*
X65354Y34252D02*
D03*
X71260Y22441D02*
D03*
X65354Y10630D02*
D03*
X53543Y199606D02*
D03*
X59449Y187795D02*
D03*
X53543Y175984D02*
D03*
X59449Y140551D02*
D03*
Y116929D02*
D03*
Y93307D02*
D03*
X53543Y57874D02*
D03*
X59449Y46063D02*
D03*
Y22441D02*
D03*
X53543Y10630D02*
D03*
X41732Y199606D02*
D03*
X47638Y187795D02*
D03*
X41732Y175984D02*
D03*
X47638Y164173D02*
D03*
Y140551D02*
D03*
Y116929D02*
D03*
X41732Y81496D02*
D03*
Y57874D02*
D03*
X47638Y22441D02*
D03*
X41732Y10630D02*
D03*
X29921Y199606D02*
D03*
X35827Y187795D02*
D03*
X29921Y175984D02*
D03*
X35827Y164173D02*
D03*
Y93307D02*
D03*
X29921Y81496D02*
D03*
Y57874D02*
D03*
Y34252D02*
D03*
X35827Y22441D02*
D03*
X29921Y10630D02*
D03*
X24016Y187795D02*
D03*
X18110Y175984D02*
D03*
X24016Y164173D02*
D03*
X18110Y152362D02*
D03*
Y128740D02*
D03*
X24016Y93307D02*
D03*
Y69685D02*
D03*
X18110Y57874D02*
D03*
X24016Y46063D02*
D03*
X18110Y34252D02*
D03*
X12205Y187795D02*
D03*
X6299Y175984D02*
D03*
X12205Y164173D02*
D03*
X6299Y152362D02*
D03*
X12205Y140551D02*
D03*
X6299Y128740D02*
D03*
Y81496D02*
D03*
X12205Y69685D02*
D03*
X6299Y57874D02*
D03*
X12205Y46063D02*
D03*
X6299Y34252D02*
D03*
D72*
X149606Y120079D02*
D03*
X106693Y108661D02*
D03*
X169752Y129484D02*
D03*
X97244Y68110D02*
D03*
X129921Y154331D02*
D03*
X83858Y124902D02*
D03*
X93701Y150000D02*
D03*
X197244Y139705D02*
D03*
X191339Y157874D02*
D03*
M02*
