G04*
G04 #@! TF.GenerationSoftware,Altium Limited,Altium Designer,24.9.1 (31)*
G04*
G04 Layer_Physical_Order=3*
G04 Layer_Color=16440176*
%FSLAX25Y25*%
%MOIN*%
G70*
G04*
G04 #@! TF.SameCoordinates,AE1E5416-9686-4E21-8CD7-455353439681*
G04*
G04*
G04 #@! TF.FilePolarity,Positive*
G04*
G01*
G75*
%ADD60C,0.01575*%
%ADD62C,0.01968*%
%ADD66C,0.06693*%
%ADD67C,0.21654*%
%ADD68O,0.12795X0.05315*%
%ADD69O,0.11221X0.05315*%
%ADD70C,0.02756*%
%ADD71C,0.01772*%
%ADD72C,0.05000*%
G36*
X206693Y216535D02*
X207662Y216535D01*
X209564Y216157D01*
X211355Y215415D01*
X212967Y214338D01*
X214338Y212967D01*
X215415Y211355D01*
X216157Y209564D01*
X216535Y207662D01*
X216535Y206693D01*
X216535Y206693D01*
X216535Y206693D01*
Y187240D01*
X214998D01*
X214878Y187420D01*
Y188170D01*
X214591Y188863D01*
X214060Y189394D01*
X213367Y189681D01*
X212617D01*
X211924Y189394D01*
X211393Y188863D01*
X211106Y188170D01*
Y187420D01*
X210986Y187240D01*
X203425D01*
X203078Y188195D01*
X203516Y189162D01*
X203663Y189286D01*
X205327Y189827D01*
X206986Y190672D01*
X208492Y191767D01*
X209808Y193083D01*
X210903Y194589D01*
X211748Y196247D01*
X212323Y198018D01*
X212614Y199857D01*
Y201718D01*
X212323Y203557D01*
X211748Y205327D01*
X210903Y206986D01*
X209808Y208492D01*
X208492Y209808D01*
X206986Y210903D01*
X205327Y211748D01*
X203557Y212323D01*
X201718Y212614D01*
X199857D01*
X198018Y212323D01*
X196247Y211748D01*
X194589Y210903D01*
X193083Y209808D01*
X191767Y208492D01*
X190672Y206986D01*
X189827Y205327D01*
X189252Y203557D01*
X188961Y201718D01*
Y199857D01*
X189252Y198018D01*
X189827Y196247D01*
X190672Y194589D01*
X191767Y193083D01*
X193083Y191767D01*
X194589Y190672D01*
X196247Y189827D01*
X198018Y189252D01*
X198621Y189156D01*
X199276Y188198D01*
X199030Y187240D01*
X191376D01*
X191256Y187420D01*
Y188170D01*
X190969Y188863D01*
X190438Y189394D01*
X189745Y189681D01*
X188995D01*
X188302Y189394D01*
X187771Y188863D01*
X187484Y188170D01*
Y187420D01*
X187364Y187240D01*
X179565D01*
X179445Y187420D01*
Y188170D01*
X179158Y188863D01*
X178627Y189394D01*
X177934Y189681D01*
X177184D01*
X176491Y189394D01*
X175960Y188863D01*
X175673Y188170D01*
Y187420D01*
X175924Y186815D01*
X173295Y184186D01*
X173074Y183855D01*
X172996Y183465D01*
Y164989D01*
X168570Y160564D01*
X168349Y160233D01*
X168272Y159843D01*
X168272Y155905D01*
X168349Y155515D01*
X168570Y155184D01*
X170190Y153565D01*
X170055Y153430D01*
X169768Y152737D01*
Y151987D01*
X170055Y151294D01*
X170585Y150763D01*
X171278Y150476D01*
X172029D01*
X172722Y150763D01*
X173252Y151294D01*
X173539Y151987D01*
Y152737D01*
X173660Y152917D01*
X189532D01*
Y148780D01*
X181607Y140854D01*
X179316D01*
X178624Y140717D01*
X178039Y140325D01*
X170595Y132882D01*
X170213Y132984D01*
X169291D01*
X168401Y132746D01*
X167603Y132285D01*
X166951Y131633D01*
X166491Y130835D01*
X166252Y129945D01*
Y129024D01*
X166491Y128133D01*
X166951Y127335D01*
X167603Y126683D01*
X168401Y126223D01*
X169291Y125984D01*
X170213D01*
X171103Y126223D01*
X171901Y126683D01*
X172553Y127335D01*
X173014Y128133D01*
X173252Y129024D01*
Y129945D01*
X173150Y130327D01*
X180064Y137241D01*
X182355D01*
X183046Y137379D01*
X183632Y137771D01*
X192616Y146754D01*
X193007Y147340D01*
X193145Y148031D01*
Y150411D01*
X194145Y150826D01*
X194207Y150763D01*
X194900Y150476D01*
X195651D01*
X196344Y150763D01*
X196874Y151294D01*
X197161Y151987D01*
Y152737D01*
X197282Y152917D01*
X205080D01*
X205201Y152737D01*
Y151987D01*
X205488Y151294D01*
X206018Y150763D01*
X206711Y150476D01*
X207462D01*
X208155Y150763D01*
X208685Y151294D01*
X208972Y151987D01*
Y152737D01*
X209093Y152917D01*
X216535D01*
Y9843D01*
Y8873D01*
X216157Y6972D01*
X215415Y5180D01*
X214338Y3568D01*
X212967Y2197D01*
X211355Y1120D01*
X209564Y378D01*
X207662Y0D01*
X9843D01*
X8873Y-0D01*
X6972Y378D01*
X5180Y1120D01*
X3568Y2197D01*
X2197Y3568D01*
X1120Y5180D01*
X378Y6972D01*
X-0Y8873D01*
X0Y9843D01*
Y101849D01*
X544Y102213D01*
X1256D01*
X1912Y102485D01*
X2050Y102622D01*
X2187Y102485D01*
X2844Y102213D01*
X3556D01*
X4213Y102485D01*
X4309Y102581D01*
X4402Y102487D01*
X5059Y102215D01*
X5770D01*
X6427Y102487D01*
X6702Y102762D01*
X6977Y102487D01*
X7634Y102215D01*
X8345D01*
X9002Y102487D01*
X9277Y102762D01*
X9552Y102487D01*
X10209Y102215D01*
X10920D01*
X11577Y102487D01*
X11852Y102762D01*
X12127Y102487D01*
X12784Y102215D01*
X13495D01*
X14152Y102487D01*
X14654Y102990D01*
X14922Y103637D01*
X14933Y103632D01*
X15644D01*
X16301Y103904D01*
X16804Y104407D01*
X16972Y104811D01*
X17285Y104682D01*
X17996D01*
X18653Y104954D01*
X18927Y105229D01*
X19202Y104954D01*
X19859Y104682D01*
X20570D01*
X21227Y104954D01*
X21502Y105229D01*
X21777Y104954D01*
X22434Y104682D01*
X23145D01*
X23802Y104954D01*
X24077Y105229D01*
X24352Y104954D01*
X25009Y104682D01*
X25720D01*
X26377Y104954D01*
X26478Y105055D01*
X26906Y104628D01*
X27563Y104355D01*
X28274D01*
X28931Y104628D01*
X29189Y104885D01*
X29481Y104593D01*
X30138Y104321D01*
X30849D01*
X31506Y104593D01*
X31580Y104668D01*
X32028Y104219D01*
X32685Y103947D01*
X33396D01*
X34053Y104219D01*
X34328Y104494D01*
X34603Y104219D01*
X35260Y103947D01*
X35971D01*
X36628Y104219D01*
X36903Y104494D01*
X37178Y104219D01*
X37835Y103947D01*
X38546D01*
X39203Y104219D01*
X39706Y104722D01*
X39779Y104899D01*
X40303Y104682D01*
X41014D01*
X41671Y104954D01*
X41945Y105229D01*
X42220Y104954D01*
X42877Y104682D01*
X43588D01*
X44245Y104954D01*
X44748Y105456D01*
X45020Y106113D01*
Y106825D01*
X44748Y107482D01*
X44245Y107984D01*
X43939Y109054D01*
X44211Y109711D01*
Y110422D01*
X43939Y111079D01*
X43436Y111582D01*
X42779Y111854D01*
X42068D01*
X41411Y111582D01*
X41375Y111546D01*
X40899Y112023D01*
X40242Y112295D01*
X39531D01*
X38874Y112023D01*
X38754Y111903D01*
X38341Y112316D01*
X37684Y112588D01*
X36973D01*
X36316Y112316D01*
X36041Y112041D01*
X35766Y112316D01*
X35109Y112588D01*
X34966D01*
X34340Y112739D01*
X34042Y113512D01*
Y113521D01*
X33770Y114178D01*
X33267Y114681D01*
X32948Y114813D01*
X33114Y115212D01*
Y115923D01*
X32842Y116580D01*
X32567Y116855D01*
X32842Y117130D01*
X33114Y117787D01*
Y118498D01*
X32842Y119155D01*
X32567Y119430D01*
X32842Y119705D01*
X33114Y120362D01*
Y121073D01*
X32842Y121730D01*
X32567Y122005D01*
X32842Y122280D01*
X33114Y122936D01*
Y123647D01*
X32842Y124304D01*
X32567Y124579D01*
X32842Y124854D01*
X33114Y125511D01*
Y126222D01*
X32842Y126879D01*
X32567Y127154D01*
X32842Y127429D01*
X33114Y128086D01*
Y128797D01*
X32842Y129454D01*
X32567Y129729D01*
X32842Y130004D01*
X33114Y130661D01*
Y131372D01*
X32842Y132029D01*
X32567Y132304D01*
X32842Y132579D01*
X33114Y133236D01*
Y133947D01*
X32842Y134604D01*
X32567Y134879D01*
X32842Y135153D01*
X33114Y135810D01*
Y136446D01*
X33217D01*
X33873Y136718D01*
X34376Y137221D01*
X34648Y137878D01*
Y138554D01*
X34695D01*
X35352Y138826D01*
X35855Y139329D01*
X36127Y139986D01*
Y140697D01*
X35855Y141354D01*
X35650Y141558D01*
X35992Y141900D01*
X36265Y142557D01*
Y143268D01*
X35992Y143925D01*
X35489Y144428D01*
X34941Y144655D01*
X35002Y144801D01*
Y145512D01*
X34729Y146169D01*
X34227Y146672D01*
X33570Y146944D01*
X32858D01*
X32707Y146881D01*
X32482Y147425D01*
X31979Y147927D01*
X31322Y148199D01*
X30611D01*
X29954Y147927D01*
X29579Y147553D01*
X29371Y147761D01*
X28714Y148033D01*
X28003D01*
X27346Y147761D01*
X26843Y147259D01*
X26571Y146602D01*
Y146530D01*
X25913D01*
X25256Y146258D01*
X24753Y145755D01*
X24481Y145098D01*
Y144387D01*
X24631Y144024D01*
X24277Y143877D01*
X23774Y143374D01*
X23502Y142717D01*
Y142006D01*
X23774Y141349D01*
X24245Y140878D01*
X24203Y140835D01*
X23931Y140178D01*
Y139467D01*
X24203Y138810D01*
X24706Y138307D01*
X25363Y138035D01*
X25637D01*
Y137538D01*
X25909Y136881D01*
X26327Y136463D01*
X26213Y136350D01*
X25941Y135693D01*
Y134982D01*
X26213Y134325D01*
X26489Y134050D01*
X26213Y133775D01*
X25941Y133118D01*
Y132407D01*
X26213Y131750D01*
X26489Y131475D01*
X26213Y131200D01*
X25941Y130543D01*
Y129832D01*
X26213Y129175D01*
X26489Y128900D01*
X26213Y128625D01*
X25941Y127968D01*
Y127257D01*
X26213Y126600D01*
X26489Y126326D01*
X26213Y126050D01*
X25941Y125394D01*
Y124682D01*
X26213Y124026D01*
X26489Y123751D01*
X26213Y123476D01*
X25941Y122819D01*
Y122108D01*
X26213Y121451D01*
X26489Y121176D01*
X26213Y120901D01*
X25941Y120244D01*
Y119533D01*
X26213Y118876D01*
X26489Y118601D01*
X26213Y118326D01*
X25941Y117669D01*
Y116958D01*
X26213Y116301D01*
X26489Y116026D01*
X26213Y115751D01*
X25941Y115094D01*
Y114383D01*
X26100Y114000D01*
X25765Y113861D01*
X25263Y113359D01*
X24991Y112702D01*
Y112024D01*
X24895Y111935D01*
X24119Y111481D01*
X24019Y111582D01*
X23362Y111854D01*
X22651D01*
X21994Y111582D01*
X21719Y111307D01*
X21444Y111582D01*
X20787Y111854D01*
X20076D01*
X19419Y111582D01*
X19144Y111307D01*
X18869Y111582D01*
X18212Y111854D01*
X17501D01*
X16844Y111582D01*
X16669Y111407D01*
X16301Y111775D01*
X15771Y111994D01*
X15840Y112162D01*
Y112873D01*
X15568Y113530D01*
X15065Y114033D01*
X14408Y114305D01*
X13697D01*
X13040Y114033D01*
X12773Y113766D01*
X12490Y114048D01*
X11834Y114321D01*
X11123D01*
X10466Y114048D01*
X10191Y113774D01*
X9916Y114048D01*
X9259Y114321D01*
X8548D01*
X7891Y114048D01*
X7616Y113774D01*
X7341Y114048D01*
X6684Y114321D01*
X5973D01*
X5316Y114048D01*
X5041Y113774D01*
X4766Y114048D01*
X4109Y114321D01*
X3398D01*
X2741Y114048D01*
X2466Y113774D01*
X2191Y114048D01*
X1534Y114321D01*
X823D01*
X0Y115062D01*
Y206693D01*
Y207662D01*
X378Y209564D01*
X1120Y211355D01*
X2197Y212967D01*
X3568Y214338D01*
X5180Y215415D01*
X6972Y216157D01*
X8873Y216535D01*
X9843Y216535D01*
X9843Y216535D01*
X206693Y216535D01*
D02*
G37*
G36*
X216535Y153937D02*
X208179D01*
X208155Y153961D01*
X207462Y154248D01*
X206711D01*
X206018Y153961D01*
X205995Y153937D01*
X196368D01*
X196344Y153961D01*
X195651Y154248D01*
X194900D01*
X194207Y153961D01*
X194184Y153937D01*
X172746D01*
X172722Y153961D01*
X172029Y154248D01*
X171278D01*
X171045Y154151D01*
X169291Y155905D01*
X169291Y159843D01*
X174016Y164567D01*
Y183465D01*
X176672Y186121D01*
X177184Y185909D01*
X177934D01*
X178627Y186196D01*
X178651Y186221D01*
X188278D01*
X188302Y186196D01*
X188995Y185909D01*
X189745D01*
X190438Y186196D01*
X190462Y186221D01*
X200089D01*
X200113Y186196D01*
X200806Y185909D01*
X201556D01*
X202249Y186196D01*
X202273Y186221D01*
X211900D01*
X211924Y186196D01*
X212617Y185909D01*
X213367D01*
X214060Y186196D01*
X214084Y186221D01*
X216535D01*
Y153937D01*
D02*
G37*
%LPC*%
G36*
X183840Y201492D02*
X183089D01*
X182396Y201205D01*
X181866Y200674D01*
X181579Y199981D01*
Y199231D01*
X181866Y198538D01*
X182396Y198008D01*
X183089Y197720D01*
X183840D01*
X184533Y198008D01*
X185063Y198538D01*
X185350Y199231D01*
Y199981D01*
X185063Y200674D01*
X184533Y201205D01*
X183840Y201492D01*
D02*
G37*
G36*
X172029D02*
X171278D01*
X170585Y201205D01*
X170055Y200674D01*
X169768Y199981D01*
Y199231D01*
X170055Y198538D01*
X170585Y198008D01*
X171278Y197720D01*
X172029D01*
X172722Y198008D01*
X173252Y198538D01*
X173539Y199231D01*
Y199981D01*
X173252Y200674D01*
X172722Y201205D01*
X172029Y201492D01*
D02*
G37*
G36*
X160218D02*
X159467D01*
X158774Y201205D01*
X158244Y200674D01*
X157957Y199981D01*
Y199231D01*
X158244Y198538D01*
X158774Y198008D01*
X159467Y197720D01*
X160218D01*
X160911Y198008D01*
X161441Y198538D01*
X161728Y199231D01*
Y199981D01*
X161441Y200674D01*
X160911Y201205D01*
X160218Y201492D01*
D02*
G37*
G36*
X148407D02*
X147656D01*
X146963Y201205D01*
X146433Y200674D01*
X146146Y199981D01*
Y199231D01*
X146433Y198538D01*
X146963Y198008D01*
X147656Y197720D01*
X148407D01*
X149100Y198008D01*
X149630Y198538D01*
X149917Y199231D01*
Y199981D01*
X149630Y200674D01*
X149100Y201205D01*
X148407Y201492D01*
D02*
G37*
G36*
X136595D02*
X135845D01*
X135152Y201205D01*
X134622Y200674D01*
X134335Y199981D01*
Y199231D01*
X134622Y198538D01*
X135152Y198008D01*
X135845Y197720D01*
X136595D01*
X137289Y198008D01*
X137819Y198538D01*
X138106Y199231D01*
Y199981D01*
X137819Y200674D01*
X137289Y201205D01*
X136595Y201492D01*
D02*
G37*
G36*
X124785D02*
X124034D01*
X123341Y201205D01*
X122811Y200674D01*
X122524Y199981D01*
Y199231D01*
X122811Y198538D01*
X123341Y198008D01*
X124034Y197720D01*
X124785D01*
X125478Y198008D01*
X126008Y198538D01*
X126295Y199231D01*
Y199981D01*
X126008Y200674D01*
X125478Y201205D01*
X124785Y201492D01*
D02*
G37*
G36*
X112973D02*
X112223D01*
X111530Y201205D01*
X111000Y200674D01*
X110713Y199981D01*
Y199231D01*
X111000Y198538D01*
X111530Y198008D01*
X112223Y197720D01*
X112973D01*
X113667Y198008D01*
X114197Y198538D01*
X114484Y199231D01*
Y199981D01*
X114197Y200674D01*
X113667Y201205D01*
X112973Y201492D01*
D02*
G37*
G36*
X101163D02*
X100412D01*
X99719Y201205D01*
X99189Y200674D01*
X98901Y199981D01*
Y199231D01*
X99189Y198538D01*
X99719Y198008D01*
X100412Y197720D01*
X101163D01*
X101856Y198008D01*
X102386Y198538D01*
X102673Y199231D01*
Y199981D01*
X102386Y200674D01*
X101856Y201205D01*
X101163Y201492D01*
D02*
G37*
G36*
X89351D02*
X88601D01*
X87908Y201205D01*
X87378Y200674D01*
X87090Y199981D01*
Y199231D01*
X87378Y198538D01*
X87908Y198008D01*
X88601Y197720D01*
X89351D01*
X90045Y198008D01*
X90575Y198538D01*
X90862Y199231D01*
Y199981D01*
X90575Y200674D01*
X90045Y201205D01*
X89351Y201492D01*
D02*
G37*
G36*
X77540D02*
X76790D01*
X76097Y201205D01*
X75567Y200674D01*
X75279Y199981D01*
Y199231D01*
X75567Y198538D01*
X76097Y198008D01*
X76790Y197720D01*
X77540D01*
X78233Y198008D01*
X78764Y198538D01*
X79051Y199231D01*
Y199981D01*
X78764Y200674D01*
X78233Y201205D01*
X77540Y201492D01*
D02*
G37*
G36*
X65729D02*
X64979D01*
X64286Y201205D01*
X63756Y200674D01*
X63468Y199981D01*
Y199231D01*
X63756Y198538D01*
X64286Y198008D01*
X64979Y197720D01*
X65729D01*
X66422Y198008D01*
X66953Y198538D01*
X67240Y199231D01*
Y199981D01*
X66953Y200674D01*
X66422Y201205D01*
X65729Y201492D01*
D02*
G37*
G36*
X53918D02*
X53168D01*
X52475Y201205D01*
X51945Y200674D01*
X51657Y199981D01*
Y199231D01*
X51945Y198538D01*
X52475Y198008D01*
X53168Y197720D01*
X53918D01*
X54611Y198008D01*
X55142Y198538D01*
X55429Y199231D01*
Y199981D01*
X55142Y200674D01*
X54611Y201205D01*
X53918Y201492D01*
D02*
G37*
G36*
X42107D02*
X41357D01*
X40664Y201205D01*
X40134Y200674D01*
X39846Y199981D01*
Y199231D01*
X40134Y198538D01*
X40664Y198008D01*
X41357Y197720D01*
X42107D01*
X42801Y198008D01*
X43331Y198538D01*
X43618Y199231D01*
Y199981D01*
X43331Y200674D01*
X42801Y201205D01*
X42107Y201492D01*
D02*
G37*
G36*
X16679Y212614D02*
X14817D01*
X12979Y212323D01*
X11208Y211748D01*
X9550Y210903D01*
X8043Y209808D01*
X6727Y208492D01*
X5633Y206986D01*
X4788Y205327D01*
X4213Y203557D01*
X3921Y201718D01*
Y199857D01*
X4213Y198018D01*
X4788Y196247D01*
X5633Y194589D01*
X6727Y193083D01*
X8043Y191767D01*
X9550Y190672D01*
X10562Y190156D01*
X10704Y188962D01*
X10606Y188863D01*
X10319Y188170D01*
Y187420D01*
X10606Y186727D01*
X11136Y186196D01*
X11830Y185909D01*
X12580D01*
X13273Y186196D01*
X13803Y186727D01*
X14090Y187420D01*
Y188063D01*
X14162Y188248D01*
X14817Y188961D01*
X16679D01*
X18518Y189252D01*
X20288Y189827D01*
X21947Y190672D01*
X23453Y191767D01*
X24769Y193083D01*
X25863Y194589D01*
X26708Y196247D01*
X27284Y198018D01*
X27331Y198318D01*
X28068Y198482D01*
X28371Y198490D01*
X28853Y198008D01*
X29546Y197720D01*
X30296D01*
X30989Y198008D01*
X31520Y198538D01*
X31807Y199231D01*
Y199981D01*
X31520Y200674D01*
X30989Y201205D01*
X30296Y201492D01*
X29546D01*
X28853Y201205D01*
X28575Y200927D01*
X27575Y201284D01*
Y201718D01*
X27284Y203557D01*
X26708Y205327D01*
X25863Y206986D01*
X24769Y208492D01*
X23453Y209808D01*
X21947Y210903D01*
X20288Y211748D01*
X18518Y212323D01*
X16679Y212614D01*
D02*
G37*
G36*
X166123Y189681D02*
X165373D01*
X164680Y189394D01*
X164149Y188863D01*
X163862Y188170D01*
Y187420D01*
X164149Y186727D01*
X164680Y186196D01*
X165373Y185909D01*
X166123D01*
X166816Y186196D01*
X167347Y186727D01*
X167634Y187420D01*
Y188170D01*
X167347Y188863D01*
X166816Y189394D01*
X166123Y189681D01*
D02*
G37*
G36*
X154312D02*
X153562D01*
X152869Y189394D01*
X152338Y188863D01*
X152051Y188170D01*
Y187420D01*
X152338Y186727D01*
X152869Y186196D01*
X153562Y185909D01*
X154312D01*
X155005Y186196D01*
X155536Y186727D01*
X155823Y187420D01*
Y188170D01*
X155536Y188863D01*
X155005Y189394D01*
X154312Y189681D01*
D02*
G37*
G36*
X142501D02*
X141751D01*
X141058Y189394D01*
X140527Y188863D01*
X140240Y188170D01*
Y187420D01*
X140527Y186727D01*
X141058Y186196D01*
X141751Y185909D01*
X142501D01*
X143194Y186196D01*
X143725Y186727D01*
X144012Y187420D01*
Y188170D01*
X143725Y188863D01*
X143194Y189394D01*
X142501Y189681D01*
D02*
G37*
G36*
X130690D02*
X129940D01*
X129247Y189394D01*
X128716Y188863D01*
X128429Y188170D01*
Y187420D01*
X128716Y186727D01*
X129247Y186196D01*
X129940Y185909D01*
X130690D01*
X131383Y186196D01*
X131914Y186727D01*
X132201Y187420D01*
Y188170D01*
X131914Y188863D01*
X131383Y189394D01*
X130690Y189681D01*
D02*
G37*
G36*
X118879D02*
X118129D01*
X117436Y189394D01*
X116905Y188863D01*
X116618Y188170D01*
Y187420D01*
X116905Y186727D01*
X117436Y186196D01*
X118129Y185909D01*
X118879D01*
X119572Y186196D01*
X120103Y186727D01*
X120390Y187420D01*
Y188170D01*
X120103Y188863D01*
X119572Y189394D01*
X118879Y189681D01*
D02*
G37*
G36*
X107068D02*
X106318D01*
X105625Y189394D01*
X105094Y188863D01*
X104807Y188170D01*
Y187420D01*
X105094Y186727D01*
X105625Y186196D01*
X106318Y185909D01*
X107068D01*
X107761Y186196D01*
X108292Y186727D01*
X108579Y187420D01*
Y188170D01*
X108292Y188863D01*
X107761Y189394D01*
X107068Y189681D01*
D02*
G37*
G36*
X95257D02*
X94507D01*
X93814Y189394D01*
X93283Y188863D01*
X92996Y188170D01*
Y187420D01*
X93283Y186727D01*
X93814Y186196D01*
X94507Y185909D01*
X95257D01*
X95950Y186196D01*
X96481Y186727D01*
X96768Y187420D01*
Y188170D01*
X96481Y188863D01*
X95950Y189394D01*
X95257Y189681D01*
D02*
G37*
G36*
X83446D02*
X82696D01*
X82003Y189394D01*
X81472Y188863D01*
X81185Y188170D01*
Y187420D01*
X81472Y186727D01*
X82003Y186196D01*
X82696Y185909D01*
X83446D01*
X84139Y186196D01*
X84670Y186727D01*
X84957Y187420D01*
Y188170D01*
X84670Y188863D01*
X84139Y189394D01*
X83446Y189681D01*
D02*
G37*
G36*
X71635D02*
X70885D01*
X70192Y189394D01*
X69661Y188863D01*
X69374Y188170D01*
Y187420D01*
X69661Y186727D01*
X70192Y186196D01*
X70885Y185909D01*
X71635D01*
X72328Y186196D01*
X72859Y186727D01*
X73146Y187420D01*
Y188170D01*
X72859Y188863D01*
X72328Y189394D01*
X71635Y189681D01*
D02*
G37*
G36*
X59824D02*
X59074D01*
X58381Y189394D01*
X57850Y188863D01*
X57563Y188170D01*
Y187420D01*
X57850Y186727D01*
X58381Y186196D01*
X59074Y185909D01*
X59824D01*
X60517Y186196D01*
X61048Y186727D01*
X61335Y187420D01*
Y188170D01*
X61048Y188863D01*
X60517Y189394D01*
X59824Y189681D01*
D02*
G37*
G36*
X48013D02*
X47263D01*
X46569Y189394D01*
X46039Y188863D01*
X45752Y188170D01*
Y187420D01*
X46039Y186727D01*
X46569Y186196D01*
X47263Y185909D01*
X48013D01*
X48706Y186196D01*
X49237Y186727D01*
X49524Y187420D01*
Y188170D01*
X49237Y188863D01*
X48706Y189394D01*
X48013Y189681D01*
D02*
G37*
G36*
X36202D02*
X35452D01*
X34758Y189394D01*
X34228Y188863D01*
X33941Y188170D01*
Y187420D01*
X34228Y186727D01*
X34758Y186196D01*
X35452Y185909D01*
X36202D01*
X36895Y186196D01*
X37426Y186727D01*
X37712Y187420D01*
Y188170D01*
X37426Y188863D01*
X36895Y189394D01*
X36202Y189681D01*
D02*
G37*
G36*
X24391D02*
X23641D01*
X22948Y189394D01*
X22417Y188863D01*
X22130Y188170D01*
Y187420D01*
X22417Y186727D01*
X22948Y186196D01*
X23641Y185909D01*
X24391D01*
X25084Y186196D01*
X25614Y186727D01*
X25901Y187420D01*
Y188170D01*
X25614Y188863D01*
X25084Y189394D01*
X24391Y189681D01*
D02*
G37*
G36*
X160218Y177870D02*
X159467D01*
X158774Y177583D01*
X158244Y177052D01*
X157957Y176359D01*
Y175609D01*
X158244Y174916D01*
X158774Y174385D01*
X159467Y174098D01*
X160218D01*
X160911Y174385D01*
X161441Y174916D01*
X161728Y175609D01*
Y176359D01*
X161441Y177052D01*
X160911Y177583D01*
X160218Y177870D01*
D02*
G37*
G36*
X148407D02*
X147656D01*
X146963Y177583D01*
X146433Y177052D01*
X146146Y176359D01*
Y175609D01*
X146433Y174916D01*
X146963Y174385D01*
X147656Y174098D01*
X148407D01*
X149100Y174385D01*
X149630Y174916D01*
X149917Y175609D01*
Y176359D01*
X149630Y177052D01*
X149100Y177583D01*
X148407Y177870D01*
D02*
G37*
G36*
X136595D02*
X135845D01*
X135152Y177583D01*
X134622Y177052D01*
X134335Y176359D01*
Y175609D01*
X134622Y174916D01*
X135152Y174385D01*
X135845Y174098D01*
X136595D01*
X137289Y174385D01*
X137819Y174916D01*
X138106Y175609D01*
Y176359D01*
X137819Y177052D01*
X137289Y177583D01*
X136595Y177870D01*
D02*
G37*
G36*
X124785D02*
X124034D01*
X123341Y177583D01*
X122811Y177052D01*
X122524Y176359D01*
Y175609D01*
X122811Y174916D01*
X123341Y174385D01*
X124034Y174098D01*
X124785D01*
X125478Y174385D01*
X126008Y174916D01*
X126295Y175609D01*
Y176359D01*
X126008Y177052D01*
X125478Y177583D01*
X124785Y177870D01*
D02*
G37*
G36*
X112973D02*
X112223D01*
X111530Y177583D01*
X111000Y177052D01*
X110713Y176359D01*
Y175609D01*
X111000Y174916D01*
X111530Y174385D01*
X112223Y174098D01*
X112973D01*
X113667Y174385D01*
X114197Y174916D01*
X114484Y175609D01*
Y176359D01*
X114197Y177052D01*
X113667Y177583D01*
X112973Y177870D01*
D02*
G37*
G36*
X101163D02*
X100412D01*
X99719Y177583D01*
X99189Y177052D01*
X98901Y176359D01*
Y175609D01*
X99189Y174916D01*
X99719Y174385D01*
X100412Y174098D01*
X101163D01*
X101856Y174385D01*
X102386Y174916D01*
X102673Y175609D01*
Y176359D01*
X102386Y177052D01*
X101856Y177583D01*
X101163Y177870D01*
D02*
G37*
G36*
X89351D02*
X88601D01*
X87908Y177583D01*
X87378Y177052D01*
X87090Y176359D01*
Y175609D01*
X87378Y174916D01*
X87908Y174385D01*
X88601Y174098D01*
X89351D01*
X90045Y174385D01*
X90575Y174916D01*
X90862Y175609D01*
Y176359D01*
X90575Y177052D01*
X90045Y177583D01*
X89351Y177870D01*
D02*
G37*
G36*
X77540D02*
X76790D01*
X76097Y177583D01*
X75567Y177052D01*
X75279Y176359D01*
Y175609D01*
X75567Y174916D01*
X76097Y174385D01*
X76790Y174098D01*
X77540D01*
X78233Y174385D01*
X78764Y174916D01*
X79051Y175609D01*
Y176359D01*
X78764Y177052D01*
X78233Y177583D01*
X77540Y177870D01*
D02*
G37*
G36*
X65729D02*
X64979D01*
X64286Y177583D01*
X63756Y177052D01*
X63468Y176359D01*
Y175609D01*
X63756Y174916D01*
X64286Y174385D01*
X64979Y174098D01*
X65729D01*
X66422Y174385D01*
X66953Y174916D01*
X67240Y175609D01*
Y176359D01*
X66953Y177052D01*
X66422Y177583D01*
X65729Y177870D01*
D02*
G37*
G36*
X53918D02*
X53168D01*
X52475Y177583D01*
X51945Y177052D01*
X51657Y176359D01*
Y175609D01*
X51945Y174916D01*
X52475Y174385D01*
X53168Y174098D01*
X53918D01*
X54611Y174385D01*
X55142Y174916D01*
X55429Y175609D01*
Y176359D01*
X55142Y177052D01*
X54611Y177583D01*
X53918Y177870D01*
D02*
G37*
G36*
X42107D02*
X41357D01*
X40664Y177583D01*
X40134Y177052D01*
X39846Y176359D01*
Y175609D01*
X40134Y174916D01*
X40664Y174385D01*
X41357Y174098D01*
X42107D01*
X42801Y174385D01*
X43331Y174916D01*
X43618Y175609D01*
Y176359D01*
X43331Y177052D01*
X42801Y177583D01*
X42107Y177870D01*
D02*
G37*
G36*
X30296D02*
X29546D01*
X28853Y177583D01*
X28322Y177052D01*
X28035Y176359D01*
Y175609D01*
X28322Y174916D01*
X28853Y174385D01*
X29546Y174098D01*
X30296D01*
X30989Y174385D01*
X31520Y174916D01*
X31807Y175609D01*
Y176359D01*
X31520Y177052D01*
X30989Y177583D01*
X30296Y177870D01*
D02*
G37*
G36*
X18485D02*
X17735D01*
X17042Y177583D01*
X16511Y177052D01*
X16224Y176359D01*
Y175609D01*
X16511Y174916D01*
X17042Y174385D01*
X17735Y174098D01*
X18485D01*
X19178Y174385D01*
X19709Y174916D01*
X19996Y175609D01*
Y176359D01*
X19709Y177052D01*
X19178Y177583D01*
X18485Y177870D01*
D02*
G37*
G36*
X6674D02*
X5924D01*
X5231Y177583D01*
X4701Y177052D01*
X4413Y176359D01*
Y175609D01*
X4701Y174916D01*
X5231Y174385D01*
X5924Y174098D01*
X6674D01*
X7367Y174385D01*
X7898Y174916D01*
X8185Y175609D01*
Y176359D01*
X7898Y177052D01*
X7367Y177583D01*
X6674Y177870D01*
D02*
G37*
G36*
X166123Y166059D02*
X165373D01*
X164680Y165772D01*
X164149Y165241D01*
X163862Y164548D01*
Y163798D01*
X164149Y163105D01*
X164680Y162574D01*
X165373Y162287D01*
X166123D01*
X166816Y162574D01*
X167347Y163105D01*
X167634Y163798D01*
Y164548D01*
X167347Y165241D01*
X166816Y165772D01*
X166123Y166059D01*
D02*
G37*
G36*
X154312D02*
X153562D01*
X152869Y165772D01*
X152338Y165241D01*
X152051Y164548D01*
Y163798D01*
X152338Y163105D01*
X152869Y162574D01*
X153562Y162287D01*
X154312D01*
X155005Y162574D01*
X155536Y163105D01*
X155823Y163798D01*
Y164548D01*
X155536Y165241D01*
X155005Y165772D01*
X154312Y166059D01*
D02*
G37*
G36*
X142501D02*
X141751D01*
X141058Y165772D01*
X140527Y165241D01*
X140240Y164548D01*
Y163798D01*
X140527Y163105D01*
X141058Y162574D01*
X141751Y162287D01*
X142501D01*
X143194Y162574D01*
X143725Y163105D01*
X144012Y163798D01*
Y164548D01*
X143725Y165241D01*
X143194Y165772D01*
X142501Y166059D01*
D02*
G37*
G36*
X118879D02*
X118129D01*
X117436Y165772D01*
X116905Y165241D01*
X116618Y164548D01*
Y163798D01*
X116905Y163105D01*
X117436Y162574D01*
X118129Y162287D01*
X118879D01*
X119572Y162574D01*
X120103Y163105D01*
X120390Y163798D01*
Y164548D01*
X120103Y165241D01*
X119572Y165772D01*
X118879Y166059D01*
D02*
G37*
G36*
X71635D02*
X70885D01*
X70192Y165772D01*
X69661Y165241D01*
X69374Y164548D01*
Y163798D01*
X69661Y163105D01*
X70192Y162574D01*
X70885Y162287D01*
X71635D01*
X72328Y162574D01*
X72859Y163105D01*
X73146Y163798D01*
Y164548D01*
X72859Y165241D01*
X72328Y165772D01*
X71635Y166059D01*
D02*
G37*
G36*
X48013D02*
X47263D01*
X46569Y165772D01*
X46039Y165241D01*
X45752Y164548D01*
Y163798D01*
X46039Y163105D01*
X46569Y162574D01*
X47263Y162287D01*
X48013D01*
X48706Y162574D01*
X49237Y163105D01*
X49524Y163798D01*
Y164548D01*
X49237Y165241D01*
X48706Y165772D01*
X48013Y166059D01*
D02*
G37*
G36*
X36202D02*
X35452D01*
X34758Y165772D01*
X34228Y165241D01*
X33941Y164548D01*
Y163798D01*
X34228Y163105D01*
X34758Y162574D01*
X35452Y162287D01*
X36202D01*
X36895Y162574D01*
X37426Y163105D01*
X37712Y163798D01*
Y164548D01*
X37426Y165241D01*
X36895Y165772D01*
X36202Y166059D01*
D02*
G37*
G36*
X24391D02*
X23641D01*
X22948Y165772D01*
X22417Y165241D01*
X22130Y164548D01*
Y163798D01*
X22417Y163105D01*
X22948Y162574D01*
X23641Y162287D01*
X24391D01*
X25084Y162574D01*
X25614Y163105D01*
X25901Y163798D01*
Y164548D01*
X25614Y165241D01*
X25084Y165772D01*
X24391Y166059D01*
D02*
G37*
G36*
X12580D02*
X11830D01*
X11136Y165772D01*
X10606Y165241D01*
X10319Y164548D01*
Y163798D01*
X10606Y163105D01*
X11136Y162574D01*
X11830Y162287D01*
X12580D01*
X13273Y162574D01*
X13803Y163105D01*
X14090Y163798D01*
Y164548D01*
X13803Y165241D01*
X13273Y165772D01*
X12580Y166059D01*
D02*
G37*
G36*
X160218Y154248D02*
X159467D01*
X158774Y153961D01*
X158244Y153430D01*
X157957Y152737D01*
Y151987D01*
X158244Y151294D01*
X158774Y150763D01*
X159467Y150476D01*
X160218D01*
X160911Y150763D01*
X161441Y151294D01*
X161728Y151987D01*
Y152737D01*
X161441Y153430D01*
X160911Y153961D01*
X160218Y154248D01*
D02*
G37*
G36*
X18485D02*
X17735D01*
X17042Y153961D01*
X16511Y153430D01*
X16224Y152737D01*
Y151987D01*
X16511Y151294D01*
X17042Y150763D01*
X17735Y150476D01*
X18485D01*
X19178Y150763D01*
X19709Y151294D01*
X19996Y151987D01*
Y152737D01*
X19709Y153430D01*
X19178Y153961D01*
X18485Y154248D01*
D02*
G37*
G36*
X6674D02*
X5924D01*
X5231Y153961D01*
X4701Y153430D01*
X4413Y152737D01*
Y151987D01*
X4701Y151294D01*
X5231Y150763D01*
X5924Y150476D01*
X6674D01*
X7367Y150763D01*
X7898Y151294D01*
X8185Y151987D01*
Y152737D01*
X7898Y153430D01*
X7367Y153961D01*
X6674Y154248D01*
D02*
G37*
G36*
X213367Y142437D02*
X212617D01*
X211924Y142150D01*
X211393Y141619D01*
X211106Y140926D01*
Y140176D01*
X211393Y139483D01*
X211924Y138952D01*
X212617Y138665D01*
X213367D01*
X214060Y138952D01*
X214591Y139483D01*
X214878Y140176D01*
Y140926D01*
X214591Y141619D01*
X214060Y142150D01*
X213367Y142437D01*
D02*
G37*
G36*
X166123D02*
X165373D01*
X164680Y142150D01*
X164149Y141619D01*
X163862Y140926D01*
Y140176D01*
X164149Y139483D01*
X164680Y138952D01*
X165373Y138665D01*
X166123D01*
X166816Y138952D01*
X167347Y139483D01*
X167634Y140176D01*
Y140926D01*
X167347Y141619D01*
X166816Y142150D01*
X166123Y142437D01*
D02*
G37*
G36*
X154312D02*
X153562D01*
X152869Y142150D01*
X152338Y141619D01*
X152051Y140926D01*
Y140176D01*
X152338Y139483D01*
X152869Y138952D01*
X153562Y138665D01*
X154312D01*
X155005Y138952D01*
X155536Y139483D01*
X155823Y140176D01*
Y140926D01*
X155536Y141619D01*
X155005Y142150D01*
X154312Y142437D01*
D02*
G37*
G36*
X142501D02*
X141751D01*
X141058Y142150D01*
X140527Y141619D01*
X140240Y140926D01*
Y140176D01*
X140527Y139483D01*
X141058Y138952D01*
X141751Y138665D01*
X142501D01*
X143194Y138952D01*
X143725Y139483D01*
X144012Y140176D01*
Y140926D01*
X143725Y141619D01*
X143194Y142150D01*
X142501Y142437D01*
D02*
G37*
G36*
X83446D02*
X82696D01*
X82003Y142150D01*
X81472Y141619D01*
X81185Y140926D01*
Y140176D01*
X81472Y139483D01*
X82003Y138952D01*
X82696Y138665D01*
X83446D01*
X84139Y138952D01*
X84670Y139483D01*
X84957Y140176D01*
Y140926D01*
X84670Y141619D01*
X84139Y142150D01*
X83446Y142437D01*
D02*
G37*
G36*
X71635D02*
X70885D01*
X70192Y142150D01*
X69661Y141619D01*
X69374Y140926D01*
Y140176D01*
X69661Y139483D01*
X70192Y138952D01*
X70885Y138665D01*
X71635D01*
X72328Y138952D01*
X72859Y139483D01*
X73146Y140176D01*
Y140926D01*
X72859Y141619D01*
X72328Y142150D01*
X71635Y142437D01*
D02*
G37*
G36*
X59824D02*
X59074D01*
X58381Y142150D01*
X57850Y141619D01*
X57563Y140926D01*
Y140176D01*
X57850Y139483D01*
X58381Y138952D01*
X59074Y138665D01*
X59824D01*
X60517Y138952D01*
X61048Y139483D01*
X61335Y140176D01*
Y140926D01*
X61048Y141619D01*
X60517Y142150D01*
X59824Y142437D01*
D02*
G37*
G36*
X48013D02*
X47263D01*
X46569Y142150D01*
X46039Y141619D01*
X45752Y140926D01*
Y140176D01*
X46039Y139483D01*
X46569Y138952D01*
X47263Y138665D01*
X48013D01*
X48706Y138952D01*
X49237Y139483D01*
X49524Y140176D01*
Y140926D01*
X49237Y141619D01*
X48706Y142150D01*
X48013Y142437D01*
D02*
G37*
G36*
X12580D02*
X11830D01*
X11136Y142150D01*
X10606Y141619D01*
X10319Y140926D01*
Y140176D01*
X10606Y139483D01*
X11136Y138952D01*
X11830Y138665D01*
X12580D01*
X13273Y138952D01*
X13803Y139483D01*
X14090Y140176D01*
Y140926D01*
X13803Y141619D01*
X13273Y142150D01*
X12580Y142437D01*
D02*
G37*
G36*
X197705Y143205D02*
X196783D01*
X195893Y142966D01*
X195095Y142505D01*
X194443Y141854D01*
X193983Y141056D01*
X193744Y140165D01*
Y139244D01*
X193983Y138354D01*
X194443Y137556D01*
X195095Y136904D01*
X195438Y136706D01*
Y128545D01*
X195380Y128491D01*
X194438Y128112D01*
X193971Y128470D01*
X193081Y128839D01*
X192126Y128965D01*
X184646D01*
X183691Y128839D01*
X182801Y128470D01*
X182037Y127884D01*
X181451Y127120D01*
X181082Y126230D01*
X180957Y125276D01*
X181082Y124321D01*
X181451Y123431D01*
X182037Y122667D01*
X182801Y122081D01*
X183580Y121758D01*
X183697Y121697D01*
X184120Y120647D01*
X184039Y120453D01*
Y119507D01*
X184401Y118633D01*
X184728Y118307D01*
X184401Y117981D01*
X184039Y117107D01*
Y116161D01*
X184401Y115287D01*
X184728Y114961D01*
X184401Y114634D01*
X184039Y113760D01*
Y112954D01*
X183655D01*
X182999Y112682D01*
X182496Y112179D01*
X182439Y112042D01*
X181884Y112272D01*
X181173D01*
X180516Y112000D01*
X180244Y111729D01*
X179966Y112007D01*
X179309Y112280D01*
X178598D01*
X177941Y112007D01*
X177666Y111733D01*
X177391Y112007D01*
X176734Y112280D01*
X176023D01*
X175366Y112007D01*
X175091Y111733D01*
X174816Y112007D01*
X174159Y112280D01*
X173474D01*
Y112313D01*
X173202Y112970D01*
X172699Y113473D01*
X172042Y113745D01*
X171331D01*
X170674Y113473D01*
X170171Y112970D01*
X169899Y112313D01*
Y111602D01*
X170171Y110945D01*
X170674Y110442D01*
X171331Y110170D01*
X172016D01*
Y110137D01*
X172288Y109480D01*
X172791Y108977D01*
X173348Y108746D01*
X173448Y108705D01*
X173785Y107824D01*
X173336Y107559D01*
X172679Y107831D01*
X171968D01*
X171311Y107559D01*
X170808Y107056D01*
X170536Y106399D01*
Y105688D01*
X170777Y105106D01*
X170674Y105064D01*
X170171Y104561D01*
X169899Y103904D01*
Y103193D01*
X170171Y102536D01*
X170674Y102033D01*
X171331Y101761D01*
X172042D01*
X172699Y102033D01*
X173202Y102536D01*
X173474Y103193D01*
Y103633D01*
X174087Y104186D01*
X174383Y104322D01*
X174543Y104256D01*
X175254D01*
X175911Y104528D01*
X176186Y104803D01*
X176461Y104528D01*
X177118Y104256D01*
X177829D01*
X178486Y104528D01*
X178757Y104799D01*
X179036Y104521D01*
X179693Y104249D01*
X180404D01*
X181061Y104521D01*
X181336Y104796D01*
X181611Y104521D01*
X182267Y104249D01*
X182978D01*
X183216Y104347D01*
X183701Y103979D01*
X184039Y103618D01*
Y102775D01*
X184401Y101901D01*
X184728Y101575D01*
X184401Y101249D01*
X184039Y100375D01*
Y99429D01*
X184401Y98555D01*
X184728Y98228D01*
X184401Y97902D01*
X184039Y97028D01*
Y96082D01*
X184120Y95888D01*
X183697Y94839D01*
X183580Y94777D01*
X182801Y94455D01*
X182037Y93868D01*
X181451Y93104D01*
X181082Y92215D01*
X180957Y91260D01*
X181082Y90305D01*
X181451Y89415D01*
X182037Y88651D01*
X182801Y88065D01*
X183691Y87696D01*
X184646Y87571D01*
X192126D01*
X193081Y87696D01*
X193971Y88065D01*
X194735Y88651D01*
X195321Y89415D01*
X195689Y90305D01*
X195815Y91260D01*
X195689Y92215D01*
X195321Y93104D01*
X194735Y93868D01*
X194219Y94264D01*
X193748Y95208D01*
X194110Y96082D01*
Y97028D01*
X193938Y97443D01*
X193793Y97977D01*
X194268Y98775D01*
X198521Y103028D01*
X198913Y103614D01*
X199050Y104306D01*
Y114978D01*
X200050Y115393D01*
X200113Y115330D01*
X200806Y115043D01*
X201556D01*
X202249Y115330D01*
X202780Y115861D01*
X203067Y116554D01*
Y117304D01*
X202780Y117997D01*
X202249Y118528D01*
X201556Y118815D01*
X200806D01*
X200113Y118528D01*
X200050Y118465D01*
X199050Y118880D01*
Y121493D01*
X199592Y121856D01*
X200050Y122030D01*
X200817Y121712D01*
X201772Y121587D01*
X207677D01*
X208632Y121712D01*
X209522Y122081D01*
X210286Y122667D01*
X210872Y123431D01*
X211241Y124321D01*
X211366Y125276D01*
X211241Y126230D01*
X210872Y127120D01*
X210286Y127884D01*
X209522Y128470D01*
X208632Y128839D01*
X207677Y128965D01*
X201772D01*
X200817Y128839D01*
X200050Y128522D01*
X199592Y128695D01*
X199050Y129058D01*
Y136706D01*
X199393Y136904D01*
X200045Y137556D01*
X200506Y138354D01*
X200744Y139244D01*
Y140165D01*
X200506Y141056D01*
X200045Y141854D01*
X199393Y142505D01*
X198595Y142966D01*
X197705Y143205D01*
D02*
G37*
G36*
X77540Y130626D02*
X76790D01*
X76097Y130339D01*
X75567Y129808D01*
X75279Y129115D01*
Y128365D01*
X75567Y127672D01*
X76097Y127141D01*
X76790Y126854D01*
X77540D01*
X78233Y127141D01*
X78764Y127672D01*
X79051Y128365D01*
Y129115D01*
X78764Y129808D01*
X78233Y130339D01*
X77540Y130626D01*
D02*
G37*
G36*
X18485D02*
X17735D01*
X17042Y130339D01*
X16511Y129808D01*
X16224Y129115D01*
Y128365D01*
X16511Y127672D01*
X17042Y127141D01*
X17735Y126854D01*
X18485D01*
X19178Y127141D01*
X19709Y127672D01*
X19996Y128365D01*
Y129115D01*
X19709Y129808D01*
X19178Y130339D01*
X18485Y130626D01*
D02*
G37*
G36*
X6674D02*
X5924D01*
X5231Y130339D01*
X4701Y129808D01*
X4413Y129115D01*
Y128365D01*
X4701Y127672D01*
X5231Y127141D01*
X5924Y126854D01*
X6674D01*
X7367Y127141D01*
X7898Y127672D01*
X8185Y128365D01*
Y129115D01*
X7898Y129808D01*
X7367Y130339D01*
X6674Y130626D01*
D02*
G37*
G36*
X213367Y118815D02*
X212617D01*
X211924Y118528D01*
X211393Y117997D01*
X211106Y117304D01*
Y116554D01*
X211393Y115861D01*
X211924Y115330D01*
X212617Y115043D01*
X213367D01*
X214060Y115330D01*
X214591Y115861D01*
X214878Y116554D01*
Y117304D01*
X214591Y117997D01*
X214060Y118528D01*
X213367Y118815D01*
D02*
G37*
G36*
X177934D02*
X177184D01*
X176491Y118528D01*
X175960Y117997D01*
X175673Y117304D01*
Y116554D01*
X175960Y115861D01*
X176491Y115330D01*
X177184Y115043D01*
X177934D01*
X178627Y115330D01*
X179158Y115861D01*
X179445Y116554D01*
Y117304D01*
X179158Y117997D01*
X178627Y118528D01*
X177934Y118815D01*
D02*
G37*
G36*
X71635D02*
X70885D01*
X70192Y118528D01*
X69661Y117997D01*
X69374Y117304D01*
Y116554D01*
X69661Y115861D01*
X70192Y115330D01*
X70885Y115043D01*
X71635D01*
X72328Y115330D01*
X72859Y115861D01*
X73146Y116554D01*
Y117304D01*
X72859Y117997D01*
X72328Y118528D01*
X71635Y118815D01*
D02*
G37*
G36*
X59824D02*
X59074D01*
X58381Y118528D01*
X57850Y117997D01*
X57563Y117304D01*
Y116554D01*
X57850Y115861D01*
X58381Y115330D01*
X59074Y115043D01*
X59824D01*
X60517Y115330D01*
X61048Y115861D01*
X61335Y116554D01*
Y117304D01*
X61048Y117997D01*
X60517Y118528D01*
X59824Y118815D01*
D02*
G37*
G36*
X48013D02*
X47263D01*
X46569Y118528D01*
X46039Y117997D01*
X45752Y117304D01*
Y116554D01*
X46039Y115861D01*
X46569Y115330D01*
X47263Y115043D01*
X48013D01*
X48706Y115330D01*
X49237Y115861D01*
X49524Y116554D01*
Y117304D01*
X49237Y117997D01*
X48706Y118528D01*
X48013Y118815D01*
D02*
G37*
G36*
X119291Y158106D02*
X94095D01*
X93704Y158029D01*
X93374Y157808D01*
X88649Y153083D01*
X88428Y152752D01*
X88350Y152362D01*
Y70866D01*
Y67323D01*
X88428Y66933D01*
X88649Y66602D01*
X95736Y59515D01*
X96066Y59294D01*
X96457Y59217D01*
X98220D01*
X98901Y58249D01*
Y57499D01*
X99189Y56806D01*
X99719Y56275D01*
X100412Y55988D01*
X101163D01*
X101856Y56275D01*
X102386Y56806D01*
X102673Y57499D01*
Y58249D01*
X103355Y59217D01*
X125197D01*
X125587Y59294D01*
X125918Y59515D01*
X162532Y96129D01*
X162753Y96460D01*
X162831Y96850D01*
Y100225D01*
X162970Y100382D01*
X163654Y100792D01*
X163808Y100820D01*
X164137Y100684D01*
X164848D01*
X165505Y100956D01*
X166008Y101459D01*
X166280Y102116D01*
Y102827D01*
X166008Y103484D01*
X165505Y103987D01*
X164848Y104259D01*
X164137D01*
X163480Y103987D01*
X163183Y103690D01*
X162930Y103943D01*
X162274Y104215D01*
X161574D01*
X161540Y104249D01*
X161016Y105071D01*
X161128Y105183D01*
X161400Y105840D01*
Y106551D01*
X161128Y107208D01*
X160902Y107434D01*
X161224Y107756D01*
X161496Y108413D01*
Y109124D01*
X161224Y109781D01*
X160902Y110103D01*
X161128Y110329D01*
X161400Y110986D01*
Y111697D01*
X161215Y112143D01*
X162063Y112709D01*
X162088Y112685D01*
X162744Y112413D01*
X163455D01*
X163802Y112556D01*
X164264Y112094D01*
X164921Y111822D01*
X165632D01*
X166289Y112094D01*
X166791Y112597D01*
X167064Y113254D01*
Y113965D01*
X166791Y114622D01*
X166289Y115124D01*
X165632Y115397D01*
X164921D01*
X164575Y115253D01*
X164112Y115715D01*
X163455Y115987D01*
X162831Y116270D01*
Y126772D01*
X162753Y127162D01*
X162532Y127493D01*
X157020Y133004D01*
X156689Y133225D01*
X156299Y133303D01*
X144517D01*
X126267Y151553D01*
X126148Y151632D01*
X126295Y151987D01*
Y152737D01*
X126008Y153430D01*
X125478Y153961D01*
X124785Y154248D01*
X124034D01*
X123679Y154101D01*
X123600Y154220D01*
X120012Y157808D01*
X119682Y158029D01*
X119291Y158106D01*
D02*
G37*
G36*
X54030Y110365D02*
X53319D01*
X52662Y110093D01*
X52160Y109590D01*
X51887Y108933D01*
Y108222D01*
X52160Y107565D01*
X52662Y107063D01*
X53319Y106790D01*
X54030D01*
X54687Y107063D01*
X55190Y107565D01*
X55462Y108222D01*
Y108933D01*
X55190Y109590D01*
X54687Y110093D01*
X54030Y110365D01*
D02*
G37*
G36*
X207462Y107004D02*
X206711D01*
X206018Y106717D01*
X205488Y106186D01*
X205201Y105493D01*
Y104743D01*
X205488Y104050D01*
X206018Y103519D01*
X206711Y103232D01*
X207462D01*
X208155Y103519D01*
X208685Y104050D01*
X208972Y104743D01*
Y105493D01*
X208685Y106186D01*
X208155Y106717D01*
X207462Y107004D01*
D02*
G37*
G36*
X77540D02*
X76790D01*
X76097Y106717D01*
X75567Y106186D01*
X75279Y105493D01*
Y104743D01*
X75567Y104050D01*
X76097Y103519D01*
X76790Y103232D01*
X77540D01*
X78233Y103519D01*
X78764Y104050D01*
X79051Y104743D01*
Y105493D01*
X78764Y106186D01*
X78233Y106717D01*
X77540Y107004D01*
D02*
G37*
G36*
X65729D02*
X64979D01*
X64286Y106717D01*
X63756Y106186D01*
X63468Y105493D01*
Y104743D01*
X63756Y104050D01*
X64286Y103519D01*
X64979Y103232D01*
X65729D01*
X66422Y103519D01*
X66953Y104050D01*
X67240Y104743D01*
Y105493D01*
X66953Y106186D01*
X66422Y106717D01*
X65729Y107004D01*
D02*
G37*
G36*
X213367Y95193D02*
X212617D01*
X211924Y94906D01*
X211393Y94375D01*
X211311Y94175D01*
X210697Y93992D01*
X210182Y93948D01*
X209522Y94455D01*
X208632Y94823D01*
X207677Y94949D01*
X201772D01*
X200817Y94823D01*
X199927Y94455D01*
X199163Y93868D01*
X198577Y93104D01*
X198208Y92215D01*
X198083Y91260D01*
X198208Y90305D01*
X198577Y89415D01*
X199163Y88651D01*
X199927Y88065D01*
X200817Y87696D01*
X201772Y87571D01*
X207677D01*
X208632Y87696D01*
X209522Y88065D01*
X210286Y88651D01*
X210872Y89415D01*
X211241Y90305D01*
X211326Y90956D01*
X211383Y91028D01*
X212041Y91452D01*
X212338Y91536D01*
X212617Y91421D01*
X213367D01*
X214060Y91708D01*
X214591Y92239D01*
X214878Y92932D01*
Y93682D01*
X214591Y94375D01*
X214060Y94906D01*
X213367Y95193D01*
D02*
G37*
G36*
X166123D02*
X165373D01*
X164680Y94906D01*
X164149Y94375D01*
X163862Y93682D01*
Y92932D01*
X164149Y92239D01*
X164680Y91708D01*
X165373Y91421D01*
X166123D01*
X166816Y91708D01*
X167347Y92239D01*
X167634Y92932D01*
Y93682D01*
X167347Y94375D01*
X166816Y94906D01*
X166123Y95193D01*
D02*
G37*
G36*
X71635D02*
X70885D01*
X70192Y94906D01*
X69661Y94375D01*
X69374Y93682D01*
Y92932D01*
X69661Y92239D01*
X70192Y91708D01*
X70885Y91421D01*
X71635D01*
X72328Y91708D01*
X72859Y92239D01*
X73146Y92932D01*
Y93682D01*
X72859Y94375D01*
X72328Y94906D01*
X71635Y95193D01*
D02*
G37*
G36*
X59824D02*
X59074D01*
X58381Y94906D01*
X57850Y94375D01*
X57563Y93682D01*
Y92932D01*
X57850Y92239D01*
X58381Y91708D01*
X59074Y91421D01*
X59824D01*
X60517Y91708D01*
X61048Y92239D01*
X61335Y92932D01*
Y93682D01*
X61048Y94375D01*
X60517Y94906D01*
X59824Y95193D01*
D02*
G37*
G36*
X36202D02*
X35452D01*
X34758Y94906D01*
X34228Y94375D01*
X33941Y93682D01*
Y92932D01*
X34228Y92239D01*
X34758Y91708D01*
X35452Y91421D01*
X36202D01*
X36895Y91708D01*
X37426Y92239D01*
X37712Y92932D01*
Y93682D01*
X37426Y94375D01*
X36895Y94906D01*
X36202Y95193D01*
D02*
G37*
G36*
X24391D02*
X23641D01*
X22948Y94906D01*
X22417Y94375D01*
X22130Y93682D01*
Y92932D01*
X22417Y92239D01*
X22948Y91708D01*
X23641Y91421D01*
X24391D01*
X25084Y91708D01*
X25614Y92239D01*
X25901Y92932D01*
Y93682D01*
X25614Y94375D01*
X25084Y94906D01*
X24391Y95193D01*
D02*
G37*
G36*
X207462Y83382D02*
X206711D01*
X206018Y83095D01*
X205488Y82564D01*
X205201Y81871D01*
Y81121D01*
X205488Y80428D01*
X206018Y79897D01*
X206711Y79610D01*
X207462D01*
X208155Y79897D01*
X208685Y80428D01*
X208972Y81121D01*
Y81871D01*
X208685Y82564D01*
X208155Y83095D01*
X207462Y83382D01*
D02*
G37*
G36*
X195651D02*
X194900D01*
X194207Y83095D01*
X193677Y82564D01*
X193390Y81871D01*
Y81121D01*
X193677Y80428D01*
X194207Y79897D01*
X194900Y79610D01*
X195651D01*
X196344Y79897D01*
X196874Y80428D01*
X197161Y81121D01*
Y81871D01*
X196874Y82564D01*
X196344Y83095D01*
X195651Y83382D01*
D02*
G37*
G36*
X183840D02*
X183089D01*
X182396Y83095D01*
X181866Y82564D01*
X181579Y81871D01*
Y81121D01*
X181866Y80428D01*
X182396Y79897D01*
X183089Y79610D01*
X183840D01*
X184533Y79897D01*
X185063Y80428D01*
X185350Y81121D01*
Y81871D01*
X185063Y82564D01*
X184533Y83095D01*
X183840Y83382D01*
D02*
G37*
G36*
X65729D02*
X64979D01*
X64286Y83095D01*
X63756Y82564D01*
X63468Y81871D01*
Y81121D01*
X63756Y80428D01*
X64286Y79897D01*
X64979Y79610D01*
X65729D01*
X66422Y79897D01*
X66953Y80428D01*
X67240Y81121D01*
Y81871D01*
X66953Y82564D01*
X66422Y83095D01*
X65729Y83382D01*
D02*
G37*
G36*
X42107D02*
X41357D01*
X40664Y83095D01*
X40134Y82564D01*
X39846Y81871D01*
Y81121D01*
X40134Y80428D01*
X40664Y79897D01*
X41357Y79610D01*
X42107D01*
X42801Y79897D01*
X43331Y80428D01*
X43618Y81121D01*
Y81871D01*
X43331Y82564D01*
X42801Y83095D01*
X42107Y83382D01*
D02*
G37*
G36*
X30296D02*
X29546D01*
X28853Y83095D01*
X28322Y82564D01*
X28035Y81871D01*
Y81121D01*
X28322Y80428D01*
X28853Y79897D01*
X29546Y79610D01*
X30296D01*
X30989Y79897D01*
X31520Y80428D01*
X31807Y81121D01*
Y81871D01*
X31520Y82564D01*
X30989Y83095D01*
X30296Y83382D01*
D02*
G37*
G36*
X6674D02*
X5924D01*
X5231Y83095D01*
X4701Y82564D01*
X4413Y81871D01*
Y81121D01*
X4701Y80428D01*
X5231Y79897D01*
X5924Y79610D01*
X6674D01*
X7367Y79897D01*
X7898Y80428D01*
X8185Y81121D01*
Y81871D01*
X7898Y82564D01*
X7367Y83095D01*
X6674Y83382D01*
D02*
G37*
G36*
X213367Y71571D02*
X212617D01*
X211924Y71284D01*
X211393Y70753D01*
X211106Y70060D01*
Y69310D01*
X211393Y68617D01*
X211924Y68086D01*
X212617Y67799D01*
X213367D01*
X214060Y68086D01*
X214591Y68617D01*
X214878Y69310D01*
Y70060D01*
X214591Y70753D01*
X214060Y71284D01*
X213367Y71571D01*
D02*
G37*
G36*
X71635D02*
X70885D01*
X70192Y71284D01*
X69661Y70753D01*
X69374Y70060D01*
Y69310D01*
X69661Y68617D01*
X70192Y68086D01*
X70885Y67799D01*
X71635D01*
X72328Y68086D01*
X72859Y68617D01*
X73146Y69310D01*
Y70060D01*
X72859Y70753D01*
X72328Y71284D01*
X71635Y71571D01*
D02*
G37*
G36*
X24391D02*
X23641D01*
X22948Y71284D01*
X22417Y70753D01*
X22130Y70060D01*
Y69310D01*
X22417Y68617D01*
X22948Y68086D01*
X23641Y67799D01*
X24391D01*
X25084Y68086D01*
X25614Y68617D01*
X25901Y69310D01*
Y70060D01*
X25614Y70753D01*
X25084Y71284D01*
X24391Y71571D01*
D02*
G37*
G36*
X12580D02*
X11830D01*
X11136Y71284D01*
X10606Y70753D01*
X10319Y70060D01*
Y69310D01*
X10606Y68617D01*
X11136Y68086D01*
X11830Y67799D01*
X12580D01*
X13273Y68086D01*
X13803Y68617D01*
X14090Y69310D01*
Y70060D01*
X13803Y70753D01*
X13273Y71284D01*
X12580Y71571D01*
D02*
G37*
G36*
X136595Y59760D02*
X135845D01*
X135152Y59473D01*
X134622Y58942D01*
X134335Y58249D01*
Y57499D01*
X134622Y56806D01*
X135152Y56275D01*
X135845Y55988D01*
X136595D01*
X137289Y56275D01*
X137819Y56806D01*
X138106Y57499D01*
Y58249D01*
X137819Y58942D01*
X137289Y59473D01*
X136595Y59760D01*
D02*
G37*
G36*
X89351D02*
X88601D01*
X87908Y59473D01*
X87378Y58942D01*
X87090Y58249D01*
Y57499D01*
X87378Y56806D01*
X87908Y56275D01*
X88601Y55988D01*
X89351D01*
X90045Y56275D01*
X90575Y56806D01*
X90862Y57499D01*
Y58249D01*
X90575Y58942D01*
X90045Y59473D01*
X89351Y59760D01*
D02*
G37*
G36*
X77540D02*
X76790D01*
X76097Y59473D01*
X75567Y58942D01*
X75279Y58249D01*
Y57499D01*
X75567Y56806D01*
X76097Y56275D01*
X76790Y55988D01*
X77540D01*
X78233Y56275D01*
X78764Y56806D01*
X79051Y57499D01*
Y58249D01*
X78764Y58942D01*
X78233Y59473D01*
X77540Y59760D01*
D02*
G37*
G36*
X53918D02*
X53168D01*
X52475Y59473D01*
X51945Y58942D01*
X51657Y58249D01*
Y57499D01*
X51945Y56806D01*
X52475Y56275D01*
X53168Y55988D01*
X53918D01*
X54611Y56275D01*
X55142Y56806D01*
X55429Y57499D01*
Y58249D01*
X55142Y58942D01*
X54611Y59473D01*
X53918Y59760D01*
D02*
G37*
G36*
X42107D02*
X41357D01*
X40664Y59473D01*
X40134Y58942D01*
X39846Y58249D01*
Y57499D01*
X40134Y56806D01*
X40664Y56275D01*
X41357Y55988D01*
X42107D01*
X42801Y56275D01*
X43331Y56806D01*
X43618Y57499D01*
Y58249D01*
X43331Y58942D01*
X42801Y59473D01*
X42107Y59760D01*
D02*
G37*
G36*
X30296D02*
X29546D01*
X28853Y59473D01*
X28322Y58942D01*
X28035Y58249D01*
Y57499D01*
X28322Y56806D01*
X28853Y56275D01*
X29546Y55988D01*
X30296D01*
X30989Y56275D01*
X31520Y56806D01*
X31807Y57499D01*
Y58249D01*
X31520Y58942D01*
X30989Y59473D01*
X30296Y59760D01*
D02*
G37*
G36*
X18485D02*
X17735D01*
X17042Y59473D01*
X16511Y58942D01*
X16224Y58249D01*
Y57499D01*
X16511Y56806D01*
X17042Y56275D01*
X17735Y55988D01*
X18485D01*
X19178Y56275D01*
X19709Y56806D01*
X19996Y57499D01*
Y58249D01*
X19709Y58942D01*
X19178Y59473D01*
X18485Y59760D01*
D02*
G37*
G36*
X6674D02*
X5924D01*
X5231Y59473D01*
X4701Y58942D01*
X4413Y58249D01*
Y57499D01*
X4701Y56806D01*
X5231Y56275D01*
X5924Y55988D01*
X6674D01*
X7367Y56275D01*
X7898Y56806D01*
X8185Y57499D01*
Y58249D01*
X7898Y58942D01*
X7367Y59473D01*
X6674Y59760D01*
D02*
G37*
G36*
X213367Y47949D02*
X212617D01*
X211924Y47662D01*
X211393Y47131D01*
X211106Y46438D01*
Y45688D01*
X211393Y44995D01*
X211924Y44464D01*
X212617Y44177D01*
X213367D01*
X214060Y44464D01*
X214591Y44995D01*
X214878Y45688D01*
Y46438D01*
X214591Y47131D01*
X214060Y47662D01*
X213367Y47949D01*
D02*
G37*
G36*
X201556D02*
X200806D01*
X200113Y47662D01*
X199582Y47131D01*
X199295Y46438D01*
Y45688D01*
X199582Y44995D01*
X200113Y44464D01*
X200806Y44177D01*
X201556D01*
X202249Y44464D01*
X202780Y44995D01*
X203067Y45688D01*
Y46438D01*
X202780Y47131D01*
X202249Y47662D01*
X201556Y47949D01*
D02*
G37*
G36*
X95257D02*
X94507D01*
X93814Y47662D01*
X93283Y47131D01*
X92996Y46438D01*
Y45688D01*
X93283Y44995D01*
X93814Y44464D01*
X94507Y44177D01*
X95257D01*
X95950Y44464D01*
X96481Y44995D01*
X96768Y45688D01*
Y46438D01*
X96481Y47131D01*
X95950Y47662D01*
X95257Y47949D01*
D02*
G37*
G36*
X71635D02*
X70885D01*
X70192Y47662D01*
X69661Y47131D01*
X69374Y46438D01*
Y45688D01*
X69661Y44995D01*
X70192Y44464D01*
X70885Y44177D01*
X71635D01*
X72328Y44464D01*
X72859Y44995D01*
X73146Y45688D01*
Y46438D01*
X72859Y47131D01*
X72328Y47662D01*
X71635Y47949D01*
D02*
G37*
G36*
X53738Y50303D02*
X52593D01*
X51488Y50007D01*
X50497Y49435D01*
X49687Y48625D01*
X49115Y47634D01*
X48819Y46529D01*
Y45384D01*
X49115Y44279D01*
X49687Y43288D01*
X50497Y42479D01*
X51488Y41906D01*
X52593Y41610D01*
X53738D01*
X54843Y41906D01*
X55834Y42479D01*
X56643Y43288D01*
X57216Y44279D01*
X58317Y44527D01*
X58381Y44464D01*
X59074Y44177D01*
X59824D01*
X60517Y44464D01*
X61048Y44995D01*
X61335Y45688D01*
Y46438D01*
X61048Y47131D01*
X60517Y47662D01*
X59824Y47949D01*
X59074D01*
X58381Y47662D01*
X58272Y47554D01*
X57734Y47595D01*
X57124Y47793D01*
X56643Y48625D01*
X55834Y49435D01*
X54843Y50007D01*
X53738Y50303D01*
D02*
G37*
G36*
X24391Y47949D02*
X23641D01*
X22948Y47662D01*
X22417Y47131D01*
X22130Y46438D01*
Y45688D01*
X22417Y44995D01*
X22948Y44464D01*
X23641Y44177D01*
X24391D01*
X25084Y44464D01*
X25614Y44995D01*
X25901Y45688D01*
Y46438D01*
X25614Y47131D01*
X25084Y47662D01*
X24391Y47949D01*
D02*
G37*
G36*
X12580D02*
X11830D01*
X11136Y47662D01*
X10606Y47131D01*
X10319Y46438D01*
Y45688D01*
X10606Y44995D01*
X11136Y44464D01*
X11830Y44177D01*
X12580D01*
X13273Y44464D01*
X13803Y44995D01*
X14090Y45688D01*
Y46438D01*
X13803Y47131D01*
X13273Y47662D01*
X12580Y47949D01*
D02*
G37*
G36*
X43738Y50303D02*
X42593D01*
X41488Y50007D01*
X40497Y49435D01*
X39687Y48625D01*
X39115Y47634D01*
X38819Y46529D01*
Y45384D01*
X39115Y44279D01*
X39687Y43288D01*
X40497Y42479D01*
X41488Y41906D01*
X42593Y41610D01*
X43738D01*
X44843Y41906D01*
X45834Y42479D01*
X46643Y43288D01*
X47216Y44279D01*
X47512Y45384D01*
Y46529D01*
X47216Y47634D01*
X46643Y48625D01*
X45834Y49435D01*
X44843Y50007D01*
X43738Y50303D01*
D02*
G37*
G36*
X207462Y36138D02*
X206711D01*
X206018Y35851D01*
X205488Y35320D01*
X205201Y34627D01*
Y33877D01*
X205488Y33184D01*
X206018Y32653D01*
X206711Y32366D01*
X207462D01*
X208155Y32653D01*
X208685Y33184D01*
X208972Y33877D01*
Y34627D01*
X208685Y35320D01*
X208155Y35851D01*
X207462Y36138D01*
D02*
G37*
G36*
X195651D02*
X194900D01*
X194207Y35851D01*
X193677Y35320D01*
X193390Y34627D01*
Y33877D01*
X193677Y33184D01*
X194207Y32653D01*
X194900Y32366D01*
X195651D01*
X196344Y32653D01*
X196874Y33184D01*
X197161Y33877D01*
Y34627D01*
X196874Y35320D01*
X196344Y35851D01*
X195651Y36138D01*
D02*
G37*
G36*
X183840D02*
X183089D01*
X182396Y35851D01*
X181866Y35320D01*
X181579Y34627D01*
Y33877D01*
X181866Y33184D01*
X182396Y32653D01*
X183089Y32366D01*
X183840D01*
X184533Y32653D01*
X185063Y33184D01*
X185350Y33877D01*
Y34627D01*
X185063Y35320D01*
X184533Y35851D01*
X183840Y36138D01*
D02*
G37*
G36*
X172029D02*
X171278D01*
X170585Y35851D01*
X170055Y35320D01*
X169768Y34627D01*
Y33877D01*
X170055Y33184D01*
X170585Y32653D01*
X171278Y32366D01*
X172029D01*
X172722Y32653D01*
X173252Y33184D01*
X173539Y33877D01*
Y34627D01*
X173252Y35320D01*
X172722Y35851D01*
X172029Y36138D01*
D02*
G37*
G36*
X160218D02*
X159467D01*
X158774Y35851D01*
X158244Y35320D01*
X157957Y34627D01*
Y33877D01*
X158244Y33184D01*
X158774Y32653D01*
X159467Y32366D01*
X160218D01*
X160911Y32653D01*
X161441Y33184D01*
X161728Y33877D01*
Y34627D01*
X161441Y35320D01*
X160911Y35851D01*
X160218Y36138D01*
D02*
G37*
G36*
X65729D02*
X64979D01*
X64286Y35851D01*
X63756Y35320D01*
X63468Y34627D01*
Y33877D01*
X63756Y33184D01*
X64286Y32653D01*
X64979Y32366D01*
X65729D01*
X66422Y32653D01*
X66953Y33184D01*
X67240Y33877D01*
Y34627D01*
X66953Y35320D01*
X66422Y35851D01*
X65729Y36138D01*
D02*
G37*
G36*
X30296D02*
X29546D01*
X28853Y35851D01*
X28322Y35320D01*
X28035Y34627D01*
Y33877D01*
X28322Y33184D01*
X28853Y32653D01*
X29546Y32366D01*
X30296D01*
X30989Y32653D01*
X31520Y33184D01*
X31807Y33877D01*
Y34627D01*
X31520Y35320D01*
X30989Y35851D01*
X30296Y36138D01*
D02*
G37*
G36*
X18485D02*
X17735D01*
X17042Y35851D01*
X16511Y35320D01*
X16224Y34627D01*
Y33877D01*
X16511Y33184D01*
X17042Y32653D01*
X17735Y32366D01*
X18485D01*
X19178Y32653D01*
X19709Y33184D01*
X19996Y33877D01*
Y34627D01*
X19709Y35320D01*
X19178Y35851D01*
X18485Y36138D01*
D02*
G37*
G36*
X6674D02*
X5924D01*
X5231Y35851D01*
X4701Y35320D01*
X4413Y34627D01*
Y33877D01*
X4701Y33184D01*
X5231Y32653D01*
X5924Y32366D01*
X6674D01*
X7367Y32653D01*
X7898Y33184D01*
X8185Y33877D01*
Y34627D01*
X7898Y35320D01*
X7367Y35851D01*
X6674Y36138D01*
D02*
G37*
G36*
X53738Y38302D02*
X52593D01*
X51488Y38006D01*
X50497Y37434D01*
X49687Y36625D01*
X49115Y35633D01*
X48819Y34528D01*
Y33384D01*
X49115Y32278D01*
X49687Y31287D01*
X50497Y30478D01*
X51488Y29906D01*
X52593Y29609D01*
X53738D01*
X54843Y29906D01*
X55834Y30478D01*
X56643Y31287D01*
X57216Y32278D01*
X57512Y33384D01*
Y34528D01*
X57216Y35633D01*
X56643Y36625D01*
X55834Y37434D01*
X54843Y38006D01*
X53738Y38302D01*
D02*
G37*
G36*
X43738D02*
X42593D01*
X41488Y38006D01*
X40497Y37434D01*
X39687Y36625D01*
X39115Y35633D01*
X38819Y34528D01*
Y33384D01*
X39115Y32278D01*
X39687Y31287D01*
X40497Y30478D01*
X41488Y29906D01*
X42593Y29609D01*
X43738D01*
X44843Y29906D01*
X45834Y30478D01*
X46643Y31287D01*
X47216Y32278D01*
X47512Y33384D01*
Y34528D01*
X47216Y35633D01*
X46643Y36625D01*
X45834Y37434D01*
X44843Y38006D01*
X43738Y38302D01*
D02*
G37*
G36*
X201718Y27575D02*
X199857D01*
X198018Y27284D01*
X196247Y26708D01*
X194589Y25863D01*
X193083Y24769D01*
X191984Y23671D01*
X191348Y23569D01*
X190739Y23739D01*
X190438Y24040D01*
X189745Y24327D01*
X188995D01*
X188302Y24040D01*
X187771Y23509D01*
X187484Y22816D01*
Y22066D01*
X187771Y21373D01*
X188302Y20842D01*
X188995Y20555D01*
X189589Y19555D01*
X189252Y18518D01*
X188961Y16679D01*
Y14817D01*
X189252Y12979D01*
X189827Y11208D01*
X190672Y9550D01*
X191767Y8043D01*
X193083Y6727D01*
X194589Y5633D01*
X196247Y4788D01*
X198018Y4213D01*
X199857Y3921D01*
X201718D01*
X203557Y4213D01*
X205327Y4788D01*
X206986Y5633D01*
X208492Y6727D01*
X209808Y8043D01*
X210903Y9550D01*
X211748Y11208D01*
X212323Y12979D01*
X212614Y14817D01*
Y16679D01*
X212323Y18518D01*
X211919Y19762D01*
X212526Y20452D01*
X212712Y20555D01*
X213367D01*
X214060Y20842D01*
X214591Y21373D01*
X214878Y22066D01*
Y22816D01*
X214591Y23509D01*
X214060Y24040D01*
X213367Y24327D01*
X212617D01*
X211924Y24040D01*
X211393Y23509D01*
X211252Y23167D01*
X210237Y22950D01*
X210166Y22960D01*
X209808Y23453D01*
X208492Y24769D01*
X206986Y25863D01*
X205327Y26708D01*
X203557Y27284D01*
X201718Y27575D01*
D02*
G37*
G36*
X177934Y24327D02*
X177184D01*
X176491Y24040D01*
X175960Y23509D01*
X175673Y22816D01*
Y22066D01*
X175960Y21373D01*
X176491Y20842D01*
X177184Y20555D01*
X177934D01*
X178627Y20842D01*
X179158Y21373D01*
X179445Y22066D01*
Y22816D01*
X179158Y23509D01*
X178627Y24040D01*
X177934Y24327D01*
D02*
G37*
G36*
X166123D02*
X165373D01*
X164680Y24040D01*
X164149Y23509D01*
X163862Y22816D01*
Y22066D01*
X164149Y21373D01*
X164680Y20842D01*
X165373Y20555D01*
X166123D01*
X166816Y20842D01*
X167347Y21373D01*
X167634Y22066D01*
Y22816D01*
X167347Y23509D01*
X166816Y24040D01*
X166123Y24327D01*
D02*
G37*
G36*
X154312D02*
X153562D01*
X152869Y24040D01*
X152338Y23509D01*
X152051Y22816D01*
Y22066D01*
X152338Y21373D01*
X152869Y20842D01*
X153562Y20555D01*
X154312D01*
X155005Y20842D01*
X155536Y21373D01*
X155823Y22066D01*
Y22816D01*
X155536Y23509D01*
X155005Y24040D01*
X154312Y24327D01*
D02*
G37*
G36*
X95257D02*
X94507D01*
X93814Y24040D01*
X93283Y23509D01*
X92996Y22816D01*
Y22066D01*
X93283Y21373D01*
X93814Y20842D01*
X94507Y20555D01*
X95257D01*
X95950Y20842D01*
X96481Y21373D01*
X96768Y22066D01*
Y22816D01*
X96481Y23509D01*
X95950Y24040D01*
X95257Y24327D01*
D02*
G37*
G36*
X83446D02*
X82696D01*
X82003Y24040D01*
X81472Y23509D01*
X81185Y22816D01*
Y22066D01*
X81472Y21373D01*
X82003Y20842D01*
X82696Y20555D01*
X83446D01*
X84139Y20842D01*
X84670Y21373D01*
X84957Y22066D01*
Y22816D01*
X84670Y23509D01*
X84139Y24040D01*
X83446Y24327D01*
D02*
G37*
G36*
X71635D02*
X70885D01*
X70192Y24040D01*
X69661Y23509D01*
X69374Y22816D01*
Y22066D01*
X69661Y21373D01*
X70192Y20842D01*
X70885Y20555D01*
X71635D01*
X72328Y20842D01*
X72859Y21373D01*
X73146Y22066D01*
Y22816D01*
X72859Y23509D01*
X72328Y24040D01*
X71635Y24327D01*
D02*
G37*
G36*
X59824D02*
X59074D01*
X58381Y24040D01*
X57850Y23509D01*
X57563Y22816D01*
Y22066D01*
X57850Y21373D01*
X58381Y20842D01*
X59074Y20555D01*
X59824D01*
X60517Y20842D01*
X61048Y21373D01*
X61335Y22066D01*
Y22816D01*
X61048Y23509D01*
X60517Y24040D01*
X59824Y24327D01*
D02*
G37*
G36*
X48013D02*
X47263D01*
X46569Y24040D01*
X46039Y23509D01*
X45752Y22816D01*
Y22066D01*
X46039Y21373D01*
X46569Y20842D01*
X47263Y20555D01*
X48013D01*
X48706Y20842D01*
X49237Y21373D01*
X49524Y22066D01*
Y22816D01*
X49237Y23509D01*
X48706Y24040D01*
X48013Y24327D01*
D02*
G37*
G36*
X36202D02*
X35452D01*
X34758Y24040D01*
X34228Y23509D01*
X33941Y22816D01*
Y22066D01*
X34228Y21373D01*
X34758Y20842D01*
X35452Y20555D01*
X36202D01*
X36895Y20842D01*
X37426Y21373D01*
X37712Y22066D01*
Y22816D01*
X37426Y23509D01*
X36895Y24040D01*
X36202Y24327D01*
D02*
G37*
G36*
X183840Y12516D02*
X183089D01*
X182396Y12229D01*
X181866Y11698D01*
X181579Y11005D01*
Y10255D01*
X181866Y9562D01*
X182396Y9031D01*
X183089Y8744D01*
X183840D01*
X184533Y9031D01*
X185063Y9562D01*
X185350Y10255D01*
Y11005D01*
X185063Y11698D01*
X184533Y12229D01*
X183840Y12516D01*
D02*
G37*
G36*
X172029D02*
X171278D01*
X170585Y12229D01*
X170055Y11698D01*
X169768Y11005D01*
Y10255D01*
X170055Y9562D01*
X170585Y9031D01*
X171278Y8744D01*
X172029D01*
X172722Y9031D01*
X173252Y9562D01*
X173539Y10255D01*
Y11005D01*
X173252Y11698D01*
X172722Y12229D01*
X172029Y12516D01*
D02*
G37*
G36*
X160218D02*
X159467D01*
X158774Y12229D01*
X158244Y11698D01*
X157957Y11005D01*
Y10255D01*
X158244Y9562D01*
X158774Y9031D01*
X159467Y8744D01*
X160218D01*
X160911Y9031D01*
X161441Y9562D01*
X161728Y10255D01*
Y11005D01*
X161441Y11698D01*
X160911Y12229D01*
X160218Y12516D01*
D02*
G37*
G36*
X148407D02*
X147656D01*
X146963Y12229D01*
X146433Y11698D01*
X146146Y11005D01*
Y10255D01*
X146433Y9562D01*
X146963Y9031D01*
X147656Y8744D01*
X148407D01*
X149100Y9031D01*
X149630Y9562D01*
X149917Y10255D01*
Y11005D01*
X149630Y11698D01*
X149100Y12229D01*
X148407Y12516D01*
D02*
G37*
G36*
X136595D02*
X135845D01*
X135152Y12229D01*
X134622Y11698D01*
X134335Y11005D01*
Y10255D01*
X134622Y9562D01*
X135152Y9031D01*
X135845Y8744D01*
X136595D01*
X137289Y9031D01*
X137819Y9562D01*
X138106Y10255D01*
Y11005D01*
X137819Y11698D01*
X137289Y12229D01*
X136595Y12516D01*
D02*
G37*
G36*
X101163D02*
X100412D01*
X99719Y12229D01*
X99189Y11698D01*
X98901Y11005D01*
Y10255D01*
X99189Y9562D01*
X99719Y9031D01*
X100412Y8744D01*
X101163D01*
X101856Y9031D01*
X102386Y9562D01*
X102673Y10255D01*
Y11005D01*
X102386Y11698D01*
X101856Y12229D01*
X101163Y12516D01*
D02*
G37*
G36*
X89351D02*
X88601D01*
X87908Y12229D01*
X87378Y11698D01*
X87090Y11005D01*
Y10255D01*
X87378Y9562D01*
X87908Y9031D01*
X88601Y8744D01*
X89351D01*
X90045Y9031D01*
X90575Y9562D01*
X90862Y10255D01*
Y11005D01*
X90575Y11698D01*
X90045Y12229D01*
X89351Y12516D01*
D02*
G37*
G36*
X77540D02*
X76790D01*
X76097Y12229D01*
X75567Y11698D01*
X75279Y11005D01*
Y10255D01*
X75567Y9562D01*
X76097Y9031D01*
X76790Y8744D01*
X77540D01*
X78233Y9031D01*
X78764Y9562D01*
X79051Y10255D01*
Y11005D01*
X78764Y11698D01*
X78233Y12229D01*
X77540Y12516D01*
D02*
G37*
G36*
X65729D02*
X64979D01*
X64286Y12229D01*
X63756Y11698D01*
X63468Y11005D01*
Y10255D01*
X63756Y9562D01*
X64286Y9031D01*
X64979Y8744D01*
X65729D01*
X66422Y9031D01*
X66953Y9562D01*
X67240Y10255D01*
Y11005D01*
X66953Y11698D01*
X66422Y12229D01*
X65729Y12516D01*
D02*
G37*
G36*
X53918D02*
X53168D01*
X52475Y12229D01*
X51945Y11698D01*
X51657Y11005D01*
Y10255D01*
X51945Y9562D01*
X52475Y9031D01*
X53168Y8744D01*
X53918D01*
X54611Y9031D01*
X55142Y9562D01*
X55429Y10255D01*
Y11005D01*
X55142Y11698D01*
X54611Y12229D01*
X53918Y12516D01*
D02*
G37*
G36*
X42107D02*
X41357D01*
X40664Y12229D01*
X40134Y11698D01*
X39846Y11005D01*
Y10255D01*
X40134Y9562D01*
X40664Y9031D01*
X41357Y8744D01*
X42107D01*
X42801Y9031D01*
X43331Y9562D01*
X43618Y10255D01*
Y11005D01*
X43331Y11698D01*
X42801Y12229D01*
X42107Y12516D01*
D02*
G37*
G36*
X30296D02*
X29546D01*
X28853Y12229D01*
X28322Y11698D01*
X28035Y11005D01*
Y10255D01*
X28322Y9562D01*
X28853Y9031D01*
X29546Y8744D01*
X30296D01*
X30989Y9031D01*
X31520Y9562D01*
X31807Y10255D01*
Y11005D01*
X31520Y11698D01*
X30989Y12229D01*
X30296Y12516D01*
D02*
G37*
G36*
X16679Y27575D02*
X14817D01*
X12979Y27284D01*
X11208Y26708D01*
X9550Y25863D01*
X8043Y24769D01*
X6727Y23453D01*
X5633Y21947D01*
X4788Y20288D01*
X4213Y18518D01*
X3921Y16679D01*
Y14817D01*
X4213Y12979D01*
X4788Y11208D01*
X5633Y9550D01*
X6727Y8043D01*
X8043Y6727D01*
X9550Y5633D01*
X11208Y4788D01*
X12979Y4213D01*
X14817Y3921D01*
X16679D01*
X18518Y4213D01*
X20288Y4788D01*
X21947Y5633D01*
X23453Y6727D01*
X24769Y8043D01*
X25863Y9550D01*
X26708Y11208D01*
X27284Y12979D01*
X27575Y14817D01*
Y16679D01*
X27284Y18518D01*
X26708Y20288D01*
X25863Y21947D01*
X24769Y23453D01*
X23453Y24769D01*
X21947Y25863D01*
X20288Y26708D01*
X18518Y27284D01*
X16679Y27575D01*
D02*
G37*
%LPD*%
G36*
X122879Y153499D02*
X122811Y153430D01*
X122524Y152737D01*
Y151987D01*
X122811Y151294D01*
X123341Y150763D01*
X124034Y150476D01*
X124785D01*
X125478Y150763D01*
X125546Y150832D01*
X144095Y132283D01*
X156299D01*
X161811Y126772D01*
Y116270D01*
X161311Y115940D01*
X160956Y116087D01*
X160245D01*
X159588Y115815D01*
X159372Y115600D01*
X158782Y115844D01*
X158071D01*
X157414Y115572D01*
X157165Y115323D01*
X156865Y115623D01*
X156208Y115895D01*
X156000D01*
X155722Y116311D01*
X155823Y116554D01*
Y117304D01*
X155536Y117997D01*
X155005Y118528D01*
X154312Y118815D01*
X153562D01*
X152869Y118528D01*
X152338Y117997D01*
X152051Y117304D01*
Y116554D01*
X152338Y115861D01*
X152869Y115330D01*
X153121Y115226D01*
X153133Y115138D01*
X153071Y114705D01*
X152532Y114482D01*
X152029Y113979D01*
X151757Y113322D01*
Y112611D01*
X151980Y112073D01*
X151820Y112007D01*
X151546Y111733D01*
X151271Y112007D01*
X150614Y112280D01*
X149903D01*
X149246Y112007D01*
X148971Y111733D01*
X148696Y112007D01*
X148039Y112280D01*
X147328D01*
X146671Y112007D01*
X146396Y111733D01*
X146121Y112007D01*
X145864Y112114D01*
X146052Y112569D01*
Y113280D01*
X145780Y113937D01*
X145683Y114034D01*
X146114Y114465D01*
X146386Y115122D01*
Y115833D01*
X146114Y116490D01*
X145947Y116657D01*
X146322Y117032D01*
X146594Y117689D01*
Y118400D01*
X146322Y119057D01*
X145819Y119560D01*
X145162Y119832D01*
X144451D01*
X143794Y119560D01*
X143291Y119057D01*
X143019Y118400D01*
Y117689D01*
X143291Y117032D01*
X143458Y116865D01*
X143084Y116490D01*
X142812Y115833D01*
Y115122D01*
X142989Y114693D01*
X142856Y114458D01*
X142768Y114417D01*
X142268Y114387D01*
X141964Y114691D01*
X141307Y114963D01*
X140596D01*
X139939Y114691D01*
X139436Y114188D01*
X139164Y113531D01*
Y112820D01*
X139436Y112163D01*
X139711Y111888D01*
X139436Y111613D01*
X139164Y110956D01*
Y110245D01*
X139436Y109588D01*
X139792Y109232D01*
X139603Y109044D01*
X139331Y108387D01*
Y107676D01*
X139603Y107019D01*
X139792Y106830D01*
X139436Y106474D01*
X139164Y105817D01*
Y105106D01*
X139436Y104449D01*
X139939Y103946D01*
X140596Y103674D01*
X141307D01*
X141964Y103946D01*
X141990Y103973D01*
X142077Y103978D01*
X142551Y103826D01*
X142750Y103347D01*
X143025Y103072D01*
X142750Y102797D01*
X142478Y102140D01*
Y101429D01*
X142750Y100773D01*
X143252Y100270D01*
X143282Y100257D01*
X143019Y99623D01*
Y98912D01*
X143291Y98255D01*
X143566Y97980D01*
X143291Y97706D01*
X143019Y97049D01*
Y96337D01*
X143291Y95680D01*
X143494Y95478D01*
X143151Y95135D01*
X143073Y94947D01*
X142559Y95160D01*
X141848D01*
X141191Y94888D01*
X140688Y94385D01*
X140416Y93728D01*
Y93017D01*
X140688Y92360D01*
X141191Y91857D01*
X141848Y91585D01*
X142559D01*
X143216Y91857D01*
X143718Y92360D01*
X143796Y92548D01*
X144311Y92335D01*
X145022D01*
X145679Y92607D01*
X146181Y93110D01*
X146454Y93766D01*
Y94478D01*
X146181Y95135D01*
X145979Y95337D01*
X146322Y95680D01*
X146594Y96337D01*
Y97049D01*
X146322Y97706D01*
X146047Y97980D01*
X146322Y98255D01*
X146594Y98912D01*
Y99623D01*
X146322Y100280D01*
X145819Y100783D01*
X145790Y100795D01*
X146052Y101429D01*
Y102140D01*
X145780Y102797D01*
X145505Y103072D01*
X145780Y103347D01*
X146052Y104004D01*
Y104256D01*
X146569D01*
X147226Y104528D01*
X147728Y105031D01*
X148001Y105688D01*
Y106399D01*
X147728Y107056D01*
X147226Y107559D01*
X146569Y107831D01*
X145858D01*
X145201Y107559D01*
X144698Y107056D01*
X144426Y106399D01*
Y106147D01*
X143909D01*
X143252Y105875D01*
X143226Y105849D01*
X143140Y105843D01*
X142665Y105995D01*
X142467Y106474D01*
X142278Y106663D01*
X142634Y107019D01*
X142906Y107676D01*
Y108387D01*
X142634Y109044D01*
X142278Y109399D01*
X142467Y109588D01*
X142739Y110245D01*
Y110956D01*
X142555Y111400D01*
X142979Y111683D01*
X143252Y111410D01*
X143510Y111303D01*
X143321Y110848D01*
Y110137D01*
X143593Y109480D01*
X144096Y108977D01*
X144753Y108705D01*
X145464D01*
X146121Y108977D01*
X146396Y109252D01*
X146671Y108977D01*
X147328Y108705D01*
X148039D01*
X148696Y108977D01*
X148971Y109252D01*
X149246Y108977D01*
X149903Y108705D01*
X150614D01*
X151271Y108977D01*
X151546Y109252D01*
X151820Y108977D01*
X152477Y108705D01*
X153188D01*
X153845Y108977D01*
X154348Y109480D01*
X154620Y110137D01*
Y110848D01*
X154398Y111386D01*
X154557Y111451D01*
X155060Y111954D01*
X155253Y112422D01*
X155497Y112320D01*
X156208D01*
X156865Y112593D01*
X157114Y112842D01*
X157414Y112541D01*
X158063Y112273D01*
X157825Y111697D01*
Y110986D01*
X158097Y110329D01*
X158419Y110007D01*
X158194Y109781D01*
X157921Y109124D01*
Y108413D01*
X158194Y107756D01*
X158419Y107530D01*
X158097Y107208D01*
X157825Y106551D01*
Y105840D01*
X158097Y105183D01*
X158384Y104896D01*
X158121Y104633D01*
X157924Y104158D01*
X157786Y104215D01*
X157075D01*
X156418Y103943D01*
X156143Y103668D01*
X155868Y103943D01*
X155266Y104192D01*
X155298Y104267D01*
Y104978D01*
X155025Y105635D01*
X154523Y106138D01*
X153866Y106410D01*
X153155D01*
X153147Y106407D01*
X152878Y107056D01*
X152375Y107559D01*
X151718Y107831D01*
X151007D01*
X150350Y107559D01*
X149847Y107056D01*
X149575Y106399D01*
Y105688D01*
X149847Y105031D01*
X150350Y104528D01*
X151007Y104256D01*
X151718D01*
X151726Y104259D01*
X151995Y103610D01*
X152498Y103107D01*
X153100Y102858D01*
X153068Y102783D01*
Y102072D01*
X153341Y101415D01*
X153843Y100912D01*
X154500Y100640D01*
X155211D01*
X155868Y100912D01*
X156143Y101187D01*
X156418Y100912D01*
X157075Y100640D01*
X157786D01*
X158443Y100912D01*
X158946Y101415D01*
X159143Y101891D01*
X159281Y101833D01*
X159992D01*
X160195Y101917D01*
X160403Y101415D01*
X160905Y100912D01*
X161562Y100640D01*
X161811D01*
Y96850D01*
X125197Y60236D01*
X96457D01*
X89370Y67323D01*
Y70866D01*
Y152362D01*
X94095Y157087D01*
X119291D01*
X122879Y153499D01*
D02*
G37*
%LPC*%
G36*
X112973Y154248D02*
X112223D01*
X111530Y153961D01*
X111000Y153430D01*
X110713Y152737D01*
Y151987D01*
X111000Y151294D01*
X111530Y150763D01*
X112223Y150476D01*
X112973D01*
X113667Y150763D01*
X114197Y151294D01*
X114484Y151987D01*
Y152737D01*
X114197Y153430D01*
X113667Y153961D01*
X112973Y154248D01*
D02*
G37*
G36*
X101163D02*
X100412D01*
X99719Y153961D01*
X99189Y153430D01*
X98901Y152737D01*
Y151987D01*
X99189Y151294D01*
X99719Y150763D01*
X100412Y150476D01*
X101163D01*
X101856Y150763D01*
X102386Y151294D01*
X102673Y151987D01*
Y152737D01*
X102386Y153430D01*
X101856Y153961D01*
X101163Y154248D01*
D02*
G37*
G36*
X118879Y142437D02*
X118129D01*
X117436Y142150D01*
X116905Y141619D01*
X116618Y140926D01*
Y140176D01*
X116905Y139483D01*
X117436Y138952D01*
X118129Y138665D01*
X118879D01*
X119572Y138952D01*
X120103Y139483D01*
X120390Y140176D01*
Y140926D01*
X120103Y141619D01*
X119572Y142150D01*
X118879Y142437D01*
D02*
G37*
G36*
X107068D02*
X106318D01*
X105625Y142150D01*
X105094Y141619D01*
X104807Y140926D01*
Y140176D01*
X105094Y139483D01*
X105625Y138952D01*
X106318Y138665D01*
X107068D01*
X107761Y138952D01*
X108292Y139483D01*
X108579Y140176D01*
Y140926D01*
X108292Y141619D01*
X107761Y142150D01*
X107068Y142437D01*
D02*
G37*
G36*
X95257D02*
X94507D01*
X93814Y142150D01*
X93283Y141619D01*
X92996Y140926D01*
Y140176D01*
X93283Y139483D01*
X93814Y138952D01*
X94507Y138665D01*
X95257D01*
X95950Y138952D01*
X96481Y139483D01*
X96768Y140176D01*
Y140926D01*
X96481Y141619D01*
X95950Y142150D01*
X95257Y142437D01*
D02*
G37*
G36*
X124785Y130626D02*
X124034D01*
X123341Y130339D01*
X122811Y129808D01*
X122524Y129115D01*
Y128365D01*
X122811Y127672D01*
X123341Y127141D01*
X124034Y126854D01*
X124785D01*
X125478Y127141D01*
X126008Y127672D01*
X126295Y128365D01*
Y129115D01*
X126008Y129808D01*
X125478Y130339D01*
X124785Y130626D01*
D02*
G37*
G36*
X112973D02*
X112223D01*
X111530Y130339D01*
X111000Y129808D01*
X110713Y129115D01*
Y128365D01*
X111000Y127672D01*
X111530Y127141D01*
X112223Y126854D01*
X112973D01*
X113667Y127141D01*
X114197Y127672D01*
X114484Y128365D01*
Y129115D01*
X114197Y129808D01*
X113667Y130339D01*
X112973Y130626D01*
D02*
G37*
G36*
X101163D02*
X100412D01*
X99719Y130339D01*
X99189Y129808D01*
X98901Y129115D01*
Y128365D01*
X99189Y127672D01*
X99719Y127141D01*
X100412Y126854D01*
X101163D01*
X101856Y127141D01*
X102386Y127672D01*
X102673Y128365D01*
Y129115D01*
X102386Y129808D01*
X101856Y130339D01*
X101163Y130626D01*
D02*
G37*
G36*
X107068Y118815D02*
X106318D01*
X105625Y118528D01*
X105094Y117997D01*
X104807Y117304D01*
Y116554D01*
X105094Y115861D01*
X105625Y115330D01*
X106318Y115043D01*
X107068D01*
X107761Y115330D01*
X108292Y115861D01*
X108579Y116554D01*
Y117304D01*
X108292Y117997D01*
X107761Y118528D01*
X107068Y118815D01*
D02*
G37*
G36*
X112973Y107004D02*
X112223D01*
X111530Y106717D01*
X111000Y106186D01*
X110713Y105493D01*
Y104743D01*
X111000Y104050D01*
X111530Y103519D01*
X112223Y103232D01*
X112973D01*
X113667Y103519D01*
X114197Y104050D01*
X114484Y104743D01*
Y105493D01*
X114197Y106186D01*
X113667Y106717D01*
X112973Y107004D01*
D02*
G37*
G36*
X154312Y95193D02*
X153562D01*
X152869Y94906D01*
X152338Y94375D01*
X152051Y93682D01*
Y92932D01*
X152338Y92239D01*
X152869Y91708D01*
X153562Y91421D01*
X154312D01*
X155005Y91708D01*
X155536Y92239D01*
X155823Y92932D01*
Y93682D01*
X155536Y94375D01*
X155005Y94906D01*
X154312Y95193D01*
D02*
G37*
G36*
X95257D02*
X94507D01*
X93814Y94906D01*
X93283Y94375D01*
X92996Y93682D01*
Y92932D01*
X93283Y92239D01*
X93814Y91708D01*
X94507Y91421D01*
X95257D01*
X95950Y91708D01*
X96481Y92239D01*
X96768Y92932D01*
Y93682D01*
X96481Y94375D01*
X95950Y94906D01*
X95257Y95193D01*
D02*
G37*
G36*
X136595Y83382D02*
X135845D01*
X135152Y83095D01*
X134622Y82564D01*
X134335Y81871D01*
Y81121D01*
X134622Y80428D01*
X135152Y79897D01*
X135845Y79610D01*
X136595D01*
X137289Y79897D01*
X137819Y80428D01*
X138106Y81121D01*
Y81871D01*
X137819Y82564D01*
X137289Y83095D01*
X136595Y83382D01*
D02*
G37*
G36*
X112973D02*
X112223D01*
X111530Y83095D01*
X111000Y82564D01*
X110713Y81871D01*
Y81121D01*
X111000Y80428D01*
X111530Y79897D01*
X112223Y79610D01*
X112973D01*
X113667Y79897D01*
X114197Y80428D01*
X114484Y81121D01*
Y81871D01*
X114197Y82564D01*
X113667Y83095D01*
X112973Y83382D01*
D02*
G37*
G36*
X130690Y71571D02*
X129940D01*
X129247Y71284D01*
X128716Y70753D01*
X128429Y70060D01*
Y69310D01*
X128716Y68617D01*
X129247Y68086D01*
X129940Y67799D01*
X130690D01*
X131383Y68086D01*
X131914Y68617D01*
X132201Y69310D01*
Y70060D01*
X131914Y70753D01*
X131383Y71284D01*
X130690Y71571D01*
D02*
G37*
G36*
X118879D02*
X118129D01*
X117436Y71284D01*
X116905Y70753D01*
X116618Y70060D01*
Y69310D01*
X116905Y68617D01*
X117436Y68086D01*
X118129Y67799D01*
X118879D01*
X119572Y68086D01*
X120103Y68617D01*
X120390Y69310D01*
Y70060D01*
X120103Y70753D01*
X119572Y71284D01*
X118879Y71571D01*
D02*
G37*
G36*
X207462Y177870D02*
X206711D01*
X206018Y177583D01*
X205488Y177052D01*
X205201Y176359D01*
Y175609D01*
X205488Y174916D01*
X206018Y174385D01*
X206711Y174098D01*
X207462D01*
X208155Y174385D01*
X208685Y174916D01*
X208972Y175609D01*
Y176359D01*
X208685Y177052D01*
X208155Y177583D01*
X207462Y177870D01*
D02*
G37*
G36*
X183840D02*
X183089D01*
X182396Y177583D01*
X181866Y177052D01*
X181579Y176359D01*
Y175609D01*
X181866Y174916D01*
X182396Y174385D01*
X183089Y174098D01*
X183840D01*
X184533Y174385D01*
X185063Y174916D01*
X185350Y175609D01*
Y176359D01*
X185063Y177052D01*
X184533Y177583D01*
X183840Y177870D01*
D02*
G37*
G36*
X213367Y166059D02*
X212617D01*
X211924Y165772D01*
X211393Y165241D01*
X211106Y164548D01*
Y163798D01*
X211393Y163105D01*
X211924Y162574D01*
X212617Y162287D01*
X213367D01*
X214060Y162574D01*
X214591Y163105D01*
X214878Y163798D01*
Y164548D01*
X214591Y165241D01*
X214060Y165772D01*
X213367Y166059D01*
D02*
G37*
G36*
X201556D02*
X200806D01*
X200113Y165772D01*
X199582Y165241D01*
X199295Y164548D01*
Y163798D01*
X199582Y163105D01*
X200113Y162574D01*
X200806Y162287D01*
X201556D01*
X202249Y162574D01*
X202780Y163105D01*
X203067Y163798D01*
Y164548D01*
X202780Y165241D01*
X202249Y165772D01*
X201556Y166059D01*
D02*
G37*
G36*
X189745D02*
X188995D01*
X188302Y165772D01*
X187771Y165241D01*
X187484Y164548D01*
Y163798D01*
X187771Y163105D01*
X188302Y162574D01*
X188995Y162287D01*
X189745D01*
X190438Y162574D01*
X190969Y163105D01*
X191256Y163798D01*
Y164548D01*
X190969Y165241D01*
X190438Y165772D01*
X189745Y166059D01*
D02*
G37*
%LPD*%
D60*
X140952Y113175D02*
D03*
Y110600D02*
D03*
X141119Y108031D02*
D03*
X140952Y105462D02*
D03*
X142203Y93372D02*
D03*
X144666Y94122D02*
D03*
X144807Y96693D02*
D03*
Y99268D02*
D03*
X144265Y101785D02*
D03*
Y104360D02*
D03*
X146213Y106043D02*
D03*
X151363D02*
D03*
X153510Y104623D02*
D03*
X154856Y102427D02*
D03*
X157431D02*
D03*
X158427Y114057D02*
D03*
X155852Y114108D02*
D03*
X153544Y112967D02*
D03*
X152833Y110492D02*
D03*
X150258D02*
D03*
X147683D02*
D03*
X145108D02*
D03*
X144265Y112925D02*
D03*
X144599Y115478D02*
D03*
X144807Y118044D02*
D03*
X165276Y113609D02*
D03*
X163100Y114200D02*
D03*
X160600Y114300D02*
D03*
X159613Y111342D02*
D03*
X159709Y108768D02*
D03*
X159613Y106195D02*
D03*
X159636Y103621D02*
D03*
X161918Y102427D02*
D03*
X164492Y102471D02*
D03*
X171687Y103549D02*
D03*
X172324Y106043D02*
D03*
X174899D02*
D03*
X177473D02*
D03*
X180048Y106036D02*
D03*
X182623D02*
D03*
X194384Y107056D02*
D03*
X194414Y109631D02*
D03*
X184011Y111167D02*
D03*
X181528Y110485D02*
D03*
X178953Y110492D02*
D03*
X176379D02*
D03*
X173804D02*
D03*
X171687Y111958D02*
D03*
X900Y104000D02*
D03*
X28359Y146246D02*
D03*
X26268Y144743D02*
D03*
X25289Y142361D02*
D03*
X25718Y139823D02*
D03*
X27424Y137894D02*
D03*
X27729Y135337D02*
D03*
Y132763D02*
D03*
Y130188D02*
D03*
Y127613D02*
D03*
Y125038D02*
D03*
Y122463D02*
D03*
Y119888D02*
D03*
Y117314D02*
D03*
Y114739D02*
D03*
X26778Y112346D02*
D03*
X25581Y110066D02*
D03*
X23006D02*
D03*
X20431D02*
D03*
X17857D02*
D03*
X15289Y110259D02*
D03*
X14053Y112518D02*
D03*
X11478Y112533D02*
D03*
X8903D02*
D03*
X6328D02*
D03*
X3754D02*
D03*
X1179D02*
D03*
X3200Y104000D02*
D03*
X5415Y104002D02*
D03*
X7989D02*
D03*
X10564D02*
D03*
X13139D02*
D03*
X15289Y105419D02*
D03*
X17640Y106469D02*
D03*
X20215D02*
D03*
X22790D02*
D03*
X25365D02*
D03*
X27919Y106143D02*
D03*
X30493Y106109D02*
D03*
X33041Y105735D02*
D03*
X35615D02*
D03*
X38190D02*
D03*
X40658Y106469D02*
D03*
X43233D02*
D03*
X53675Y108578D02*
D03*
X42423Y110066D02*
D03*
X39887Y110507D02*
D03*
X37328Y110801D02*
D03*
X34754D02*
D03*
X32187Y110592D02*
D03*
X32254Y113166D02*
D03*
X31326Y115568D02*
D03*
Y118142D02*
D03*
Y120717D02*
D03*
Y123292D02*
D03*
Y125867D02*
D03*
Y128442D02*
D03*
Y131016D02*
D03*
Y133591D02*
D03*
Y136166D02*
D03*
X32861Y138233D02*
D03*
X34339Y140342D02*
D03*
X34477Y142913D02*
D03*
X33214Y145156D02*
D03*
X30966Y146412D02*
D03*
D62*
X182355Y139048D02*
X191339Y148031D01*
X169752Y129484D02*
X179316Y139048D01*
X182355D01*
X191339Y148031D02*
Y157874D01*
X186417Y99902D02*
X191732D01*
X186417Y116634D02*
X191732D01*
X197244Y116535D02*
Y139705D01*
Y104306D02*
Y116535D01*
X191732Y116634D02*
X191831Y116535D01*
X197244D01*
X192991Y100052D02*
X197244Y104306D01*
D66*
X43165Y33956D02*
D03*
X53165D02*
D03*
Y45957D02*
D03*
X43165D02*
D03*
X29921Y141850D02*
D03*
Y151850D02*
D03*
D67*
X15748Y15748D02*
D03*
X200787D02*
D03*
Y200787D02*
D03*
X15748D02*
D03*
D68*
X188386Y91260D02*
D03*
Y125276D02*
D03*
D69*
X204724Y91260D02*
D03*
Y125276D02*
D03*
D70*
X186417Y96555D02*
D03*
Y99902D02*
D03*
Y103248D02*
D03*
Y106595D02*
D03*
Y109941D02*
D03*
Y113287D02*
D03*
Y116634D02*
D03*
Y119980D02*
D03*
X191732D02*
D03*
Y116634D02*
D03*
Y113287D02*
D03*
Y109941D02*
D03*
Y106595D02*
D03*
Y103248D02*
D03*
Y99902D02*
D03*
Y96555D02*
D03*
D71*
X153937Y116929D02*
D03*
X212992Y187795D02*
D03*
X207086Y175984D02*
D03*
X212992Y164173D02*
D03*
X207086Y152362D02*
D03*
X212992Y140551D02*
D03*
Y116929D02*
D03*
X207086Y105118D02*
D03*
X212992Y93307D02*
D03*
X207086Y81496D02*
D03*
X212992Y69685D02*
D03*
Y46063D02*
D03*
X207086Y34252D02*
D03*
X212992Y22441D02*
D03*
X201181Y187795D02*
D03*
Y164173D02*
D03*
X195275Y152362D02*
D03*
X201181Y116929D02*
D03*
X195275Y81496D02*
D03*
X201181Y46063D02*
D03*
X195275Y34252D02*
D03*
X183465Y199606D02*
D03*
X189370Y187795D02*
D03*
X183465Y175984D02*
D03*
X189370Y164173D02*
D03*
X183465Y81496D02*
D03*
Y34252D02*
D03*
X189370Y22441D02*
D03*
X183465Y10630D02*
D03*
X171653Y199606D02*
D03*
X177559Y187795D02*
D03*
X171653Y152362D02*
D03*
X177559Y116929D02*
D03*
X171653Y34252D02*
D03*
X177559Y22441D02*
D03*
X171653Y10630D02*
D03*
X159842Y199606D02*
D03*
X165748Y187795D02*
D03*
X159842Y175984D02*
D03*
X165748Y164173D02*
D03*
X159842Y152362D02*
D03*
X165748Y140551D02*
D03*
Y93307D02*
D03*
X159842Y34252D02*
D03*
X165748Y22441D02*
D03*
X159842Y10630D02*
D03*
X148031Y199606D02*
D03*
X153937Y187795D02*
D03*
X148031Y175984D02*
D03*
X153937Y164173D02*
D03*
Y140551D02*
D03*
Y93307D02*
D03*
Y22441D02*
D03*
X148031Y10630D02*
D03*
X136220Y199606D02*
D03*
X142126Y187795D02*
D03*
X136220Y175984D02*
D03*
X142126Y164173D02*
D03*
Y140551D02*
D03*
X136220Y81496D02*
D03*
Y57874D02*
D03*
Y10630D02*
D03*
X124409Y199606D02*
D03*
X130315Y187795D02*
D03*
X124409Y175984D02*
D03*
Y152362D02*
D03*
Y128740D02*
D03*
X130315Y69685D02*
D03*
X112598Y199606D02*
D03*
X118504Y187795D02*
D03*
X112598Y175984D02*
D03*
X118504Y164173D02*
D03*
X112598Y152362D02*
D03*
X118504Y140551D02*
D03*
X112598Y128740D02*
D03*
Y105118D02*
D03*
Y81496D02*
D03*
X118504Y69685D02*
D03*
X100787Y199606D02*
D03*
X106693Y187795D02*
D03*
X100787Y175984D02*
D03*
Y152362D02*
D03*
X106693Y140551D02*
D03*
X100787Y128740D02*
D03*
X106693Y116929D02*
D03*
X100787Y57874D02*
D03*
Y10630D02*
D03*
X88976Y199606D02*
D03*
X94882Y187795D02*
D03*
X88976Y175984D02*
D03*
X94882Y140551D02*
D03*
Y93307D02*
D03*
X88976Y57874D02*
D03*
X94882Y46063D02*
D03*
Y22441D02*
D03*
X88976Y10630D02*
D03*
X77165Y199606D02*
D03*
X83071Y187795D02*
D03*
X77165Y175984D02*
D03*
X83071Y140551D02*
D03*
X77165Y128740D02*
D03*
Y105118D02*
D03*
Y57874D02*
D03*
X83071Y22441D02*
D03*
X77165Y10630D02*
D03*
X65354Y199606D02*
D03*
X71260Y187795D02*
D03*
X65354Y175984D02*
D03*
X71260Y164173D02*
D03*
Y140551D02*
D03*
Y116929D02*
D03*
X65354Y105118D02*
D03*
X71260Y93307D02*
D03*
X65354Y81496D02*
D03*
X71260Y69685D02*
D03*
Y46063D02*
D03*
X65354Y34252D02*
D03*
X71260Y22441D02*
D03*
X65354Y10630D02*
D03*
X53543Y199606D02*
D03*
X59449Y187795D02*
D03*
X53543Y175984D02*
D03*
X59449Y140551D02*
D03*
Y116929D02*
D03*
Y93307D02*
D03*
X53543Y57874D02*
D03*
X59449Y46063D02*
D03*
Y22441D02*
D03*
X53543Y10630D02*
D03*
X41732Y199606D02*
D03*
X47638Y187795D02*
D03*
X41732Y175984D02*
D03*
X47638Y164173D02*
D03*
Y140551D02*
D03*
Y116929D02*
D03*
X41732Y81496D02*
D03*
Y57874D02*
D03*
X47638Y22441D02*
D03*
X41732Y10630D02*
D03*
X29921Y199606D02*
D03*
X35827Y187795D02*
D03*
X29921Y175984D02*
D03*
X35827Y164173D02*
D03*
Y93307D02*
D03*
X29921Y81496D02*
D03*
Y57874D02*
D03*
Y34252D02*
D03*
X35827Y22441D02*
D03*
X29921Y10630D02*
D03*
X24016Y187795D02*
D03*
X18110Y175984D02*
D03*
X24016Y164173D02*
D03*
X18110Y152362D02*
D03*
Y128740D02*
D03*
X24016Y93307D02*
D03*
Y69685D02*
D03*
X18110Y57874D02*
D03*
X24016Y46063D02*
D03*
X18110Y34252D02*
D03*
X12205Y187795D02*
D03*
X6299Y175984D02*
D03*
X12205Y164173D02*
D03*
X6299Y152362D02*
D03*
X12205Y140551D02*
D03*
X6299Y128740D02*
D03*
Y81496D02*
D03*
X12205Y69685D02*
D03*
X6299Y57874D02*
D03*
X12205Y46063D02*
D03*
X6299Y34252D02*
D03*
D72*
X149606Y120079D02*
D03*
X106693Y108661D02*
D03*
X169752Y129484D02*
D03*
X97244Y68110D02*
D03*
X129921Y154331D02*
D03*
X83858Y124902D02*
D03*
X93701Y150000D02*
D03*
X197244Y139705D02*
D03*
X191339Y157874D02*
D03*
M02*
