M48
;Layer_Color=9474304
;FILE_FORMAT=2:4
INCH,TZ
;TYPE=PLATED
T01F00S00C0.0118
T02F00S00C0.0177
T03F00S00C0.0280
T05F00S00C0.0402
T06F00S00C0.0433
T07F00S00C0.1339
%
T01
X21299Y2244
Y4606
Y6969
Y9331
Y11693
X20118
X20709Y10512
Y8150
X19528
X18346
X17165
X16575Y9331
X15394
Y11693
X15984Y12874
X17756Y11693
X13622Y10512
X12441
X11850Y11693
X10669
X11260Y12874
X10079
X7717
X7126Y11693
X5945
X6535Y10512
X7717
X7126Y9331
X9488
X9213Y10197
X9685Y6535
X10118Y5984
X10591Y4291
X12992Y4252
X13976Y4291
X15079Y4252
X14803Y3425
X15984
X17165
X17283Y4331
X16299
X17165Y5787
X16575Y6969
X18937
X20118
X20709Y5787
X20118Y4606
X20709Y3425
X18937Y2244
X17756
X16575
X15394
X14213
X13031
X13622Y3425
X12441
Y1063
X13622
X14803
X15984
X17165
X18346
X10079
X8898
X9650Y2083
X8307Y2244
X7126
X6535Y3425
X6220Y5276
X6535Y5787
X8307Y4606
X8898Y3425
X12283Y6417
X13031Y6969
X12441Y8150
X2992
X3583Y9331
X2402
X2488Y10567
X2192
X1897
X1606Y10518
X1387Y10321
X1091
X796
X501
X205
X110Y11333
X405
X701
X996
X1291
X1570Y11236
X1825Y11086
X2120
X2415
X2600Y11316
X2693Y11596
Y11892
Y12187
Y12482
Y12777
Y13073
Y13368
X3212Y13230
Y12935
Y12640
Y12344
Y12049
Y11754
X3237Y11460
X3307Y11173
X3602Y11152
X3897Y11160
X4183Y11086
X4248Y10567
X3960Y10504
X3665Y10494
X3369
X3076Y10531
X2781Y10537
X2402Y11693
X3583
X4764
X1811Y12874
X630
Y8150
X1220Y6969
X2402
X2992Y5787
X1811
X630
X1220Y4606
X2402
X3583
X2992Y3425
X1811
X630
X3583Y2244
X4173Y1063
X2992
X5354Y3425
X3212Y13525
X3360Y13781
X3516Y14032
X3518Y14327
X3368Y14581
X2746Y14674
X2529Y14474
X2447Y14190
X2524Y13905
X2693Y13663
X2402Y16417
X3583
X4764
X5354Y17598
X4173
X2992
X1811
X630
X1220Y18780
X2402
X3583
X4764
X5354Y19961
X4173
X2992
X630Y15236
X7126Y16417
X7717Y17598
X6535
X7126Y18780
X8307
X9488
X10669
X11850
X13031
X14213
X15394
X16575
X17756
X18937
X19528Y17598
X20709
Y15236
X19528
X18937Y16417
X18346Y17598
Y19961
X17165
X15984
X14803
X13622
X12441
X11260
X10079
X8898
X7717
X6535
X5945Y18780
X8307Y14055
X9488
X10669
X14213
X15394
X16575
X17165Y15236
X15984
X16575Y16417
X15394
X14213
X14803Y17598
X15984
X12441
X13622Y15236
X21299Y16417
Y18780
Y14055
T02
X18642Y9656
Y9990
Y10325
Y10659
Y10994
Y11329
Y11663
Y11998
X19173
Y11663
Y11329
Y10994
Y10659
Y10325
Y9990
Y9656
T03
X7457Y5352
X10974Y6122
X11575Y7520
X10089Y8219
X9616Y7795
X10738Y8917
X10630Y11142
X11850Y11102
X14291Y12638
X14724Y8937
Y6850
X13622Y6969
X15633Y7163
X8386Y12490
X4890Y4731
X2283Y16929
X9291Y16181
X9370Y15000
X19134Y15787
X19724Y13970
T05
X5880Y3012
X6880
X7880
X4880
T06
X10819Y2470
X11819
X4746Y14124
X2992Y14185
Y15185
X5746Y14124
X13110Y16823
Y17823
X20118
Y16823
T07
X20079Y1575
X1575
Y20079
X20079
M30
