G04*
G04 #@! TF.GenerationSoftware,Altium Limited,Altium Designer,24.9.1 (31)*
G04*
G04 Layer_Color=8388736*
%FSLAX25Y25*%
%MOIN*%
G70*
G04*
G04 #@! TF.SameCoordinates,A3C4BDD5-98FE-4EBF-97C8-16CFD852CAFA*
G04*
G04*
G04 #@! TF.FilePolarity,Negative*
G04*
G01*
G75*
%ADD18R,0.07887X0.03556*%
%ADD19R,0.05524X0.04343*%
%ADD20R,0.06706X0.04343*%
%ADD21R,0.03162X0.04343*%
%ADD22R,0.04343X0.04147*%
%ADD23C,0.08674*%
%ADD24R,0.04540X0.04737*%
%ADD25R,0.04147X0.04343*%
%ADD26R,0.04737X0.04540*%
%ADD27R,0.04343X0.05524*%
%ADD28R,0.04343X0.06706*%
%ADD29R,0.04343X0.03162*%
%ADD30R,0.03398X0.03241*%
%ADD31R,0.03674X0.02808*%
%ADD32R,0.08674X0.13398*%
%ADD33R,0.08674X0.04343*%
%ADD34R,0.03950X0.03950*%
%ADD35R,0.14580X0.06706*%
%ADD36R,0.02572X0.06509*%
%ADD37C,0.22453*%
%ADD38O,0.13595X0.06115*%
%ADD39O,0.12020X0.06115*%
%ADD40C,0.03150*%
%ADD41C,0.07493*%
%ADD42C,0.07099*%
D18*
X48819Y77953D02*
D03*
X86221D02*
D03*
Y82284D02*
D03*
Y86614D02*
D03*
Y90945D02*
D03*
Y95276D02*
D03*
Y99606D02*
D03*
Y103937D02*
D03*
Y108268D02*
D03*
Y112598D02*
D03*
X48819Y82284D02*
D03*
Y86614D02*
D03*
Y90945D02*
D03*
Y95276D02*
D03*
Y99606D02*
D03*
Y103937D02*
D03*
Y108268D02*
D03*
Y112598D02*
D03*
D19*
X55118Y125984D02*
D03*
Y66929D02*
D03*
D20*
X61614Y125984D02*
D03*
X48622D02*
D03*
Y66929D02*
D03*
X61614D02*
D03*
D21*
X67126Y125984D02*
D03*
X43110D02*
D03*
Y66929D02*
D03*
X67126D02*
D03*
D22*
X66929Y150098D02*
D03*
Y156201D02*
D03*
X60630Y150098D02*
D03*
Y156201D02*
D03*
X174409Y91732D02*
D03*
Y85630D02*
D03*
X106693Y75295D02*
D03*
Y81398D02*
D03*
Y100689D02*
D03*
Y94587D02*
D03*
X185039Y151772D02*
D03*
Y157874D02*
D03*
X85827Y150098D02*
D03*
Y156201D02*
D03*
X79528Y150098D02*
D03*
Y156201D02*
D03*
D23*
X135827Y80709D02*
D03*
X192913Y61024D02*
D03*
X192913Y49213D02*
D03*
X192913Y37402D02*
D03*
X181102Y37402D02*
D03*
Y49213D02*
D03*
Y61024D02*
D03*
X159449Y80709D02*
D03*
X147638D02*
D03*
X141732Y61024D02*
D03*
X153543D02*
D03*
X129921D02*
D03*
X118110D02*
D03*
X70866Y138189D02*
D03*
X108189Y11811D02*
D03*
X114173Y167323D02*
D03*
X102362D02*
D03*
X78799Y10827D02*
D03*
X68799D02*
D03*
X58799D02*
D03*
X48799D02*
D03*
X15748Y141850D02*
D03*
Y161850D02*
D03*
Y151850D02*
D03*
D24*
X168504Y105315D02*
D03*
Y99410D02*
D03*
X168504Y117126D02*
D03*
Y111221D02*
D03*
X135039Y126575D02*
D03*
Y132480D02*
D03*
X142126Y154134D02*
D03*
Y160039D02*
D03*
X38878Y40551D02*
D03*
Y34646D02*
D03*
D25*
X156496Y105512D02*
D03*
X162598D02*
D03*
X156496Y111024D02*
D03*
X162598D02*
D03*
X118799Y94488D02*
D03*
X112697D02*
D03*
X118799Y81890D02*
D03*
X112697D02*
D03*
X75000Y47047D02*
D03*
X68898D02*
D03*
X56988D02*
D03*
X63090D02*
D03*
X203051Y134646D02*
D03*
X196949D02*
D03*
D26*
X112795Y88189D02*
D03*
X118701D02*
D03*
X86024Y118110D02*
D03*
X80118D02*
D03*
X176969Y167717D02*
D03*
X171063D02*
D03*
X191142Y145669D02*
D03*
X185236D02*
D03*
X176969Y180315D02*
D03*
X171063D02*
D03*
X176969Y174016D02*
D03*
X171063D02*
D03*
D27*
X98425Y108268D02*
D03*
X19685Y86614D02*
D03*
D28*
X98425Y101772D02*
D03*
Y114764D02*
D03*
X19685Y80118D02*
D03*
Y93110D02*
D03*
D29*
X98425Y96260D02*
D03*
Y120276D02*
D03*
X19685Y74606D02*
D03*
Y98622D02*
D03*
D30*
X37795Y108268D02*
D03*
X34331D02*
D03*
D31*
X29528Y108425D02*
D03*
Y112047D02*
D03*
D32*
X151575Y148819D02*
D03*
D33*
X175197Y157874D02*
D03*
Y148819D02*
D03*
Y139764D02*
D03*
D34*
X85827Y162205D02*
D03*
Y168504D02*
D03*
X79528Y162205D02*
D03*
Y168504D02*
D03*
X66929Y162205D02*
D03*
Y168504D02*
D03*
X60630Y162205D02*
D03*
Y168504D02*
D03*
D35*
X7087Y108268D02*
D03*
Y118898D02*
D03*
Y97638D02*
D03*
D36*
X125108Y97539D02*
D03*
X127608D02*
D03*
X130108D02*
D03*
X132608D02*
D03*
X135108D02*
D03*
X137608D02*
D03*
X140108D02*
D03*
X142608D02*
D03*
X125108Y118996D02*
D03*
X127608D02*
D03*
X130108D02*
D03*
X132608D02*
D03*
X135108D02*
D03*
X137608D02*
D03*
X140108D02*
D03*
X142608D02*
D03*
D37*
X15748Y15748D02*
D03*
X200787D02*
D03*
Y200787D02*
D03*
X15748D02*
D03*
D38*
X188386Y91260D02*
D03*
Y125276D02*
D03*
D39*
X204724Y91260D02*
D03*
Y125276D02*
D03*
D40*
X186417Y96555D02*
D03*
Y99902D02*
D03*
Y103248D02*
D03*
Y106595D02*
D03*
Y109941D02*
D03*
Y113287D02*
D03*
Y116634D02*
D03*
Y119980D02*
D03*
X191732D02*
D03*
Y116634D02*
D03*
Y113287D02*
D03*
Y109941D02*
D03*
Y106595D02*
D03*
Y103248D02*
D03*
Y99902D02*
D03*
Y96555D02*
D03*
D41*
X201181Y168228D02*
D03*
Y178228D02*
D03*
X131102Y168228D02*
D03*
Y178228D02*
D03*
X47461Y141240D02*
D03*
X57461D02*
D03*
X118189Y24705D02*
D03*
X108189D02*
D03*
X29921Y141850D02*
D03*
Y151850D02*
D03*
D42*
X78799Y30118D02*
D03*
X68799D02*
D03*
X58799D02*
D03*
X48799D02*
D03*
M02*
