G04*
G04 #@! TF.GenerationSoftware,Altium Limited,Altium Designer,24.9.1 (31)*
G04*
G04 Layer_Physical_Order=3*
G04 Layer_Color=16440176*
%FSLAX25Y25*%
%MOIN*%
G70*
G04*
G04 #@! TF.SameCoordinates,A3C4BDD5-98FE-4EBF-97C8-16CFD852CAFA*
G04*
G04*
G04 #@! TF.FilePolarity,Positive*
G04*
G01*
G75*
%ADD62C,0.01968*%
%ADD66C,0.21654*%
%ADD67O,0.12795X0.05315*%
%ADD68O,0.11221X0.05315*%
%ADD69C,0.02756*%
%ADD70C,0.06693*%
%ADD71C,0.06299*%
%ADD72C,0.01772*%
%ADD73C,0.05000*%
G36*
X206693Y216535D02*
X207662Y216535D01*
X209564Y216157D01*
X211355Y215415D01*
X212967Y214338D01*
X214338Y212967D01*
X215415Y211355D01*
X216157Y209564D01*
X216535Y207662D01*
X216535Y206693D01*
X216535Y206693D01*
X216535Y206693D01*
Y187240D01*
X214998D01*
X214878Y187420D01*
Y188170D01*
X214591Y188863D01*
X214060Y189394D01*
X213367Y189681D01*
X212617D01*
X211924Y189394D01*
X211393Y188863D01*
X211106Y188170D01*
Y187420D01*
X210986Y187240D01*
X191376D01*
X191256Y187420D01*
Y188170D01*
X190969Y188863D01*
X190438Y189394D01*
X189745Y189681D01*
X188995D01*
X188302Y189394D01*
X187771Y188863D01*
X187484Y188170D01*
Y187420D01*
X187364Y187240D01*
X179565D01*
X179445Y187420D01*
Y188170D01*
X179158Y188863D01*
X178627Y189394D01*
X177934Y189681D01*
X177184D01*
X176491Y189394D01*
X175960Y188863D01*
X175673Y188170D01*
Y187420D01*
X175924Y186815D01*
X175924Y186815D01*
X173366Y184257D01*
X173365Y184256D01*
X173364Y184255D01*
X173309Y184172D01*
X173239Y184102D01*
X173239Y184102D01*
X173239Y184101D01*
X173238Y184101D01*
X173200Y184009D01*
X173145Y183926D01*
X173145Y183925D01*
X173144Y183924D01*
X173144Y183924D01*
X173143Y183918D01*
X173077Y183759D01*
X173074Y183754D01*
X173073Y183748D01*
X173069Y183743D01*
X173069Y183743D01*
X173052Y183650D01*
X173016Y183563D01*
X173016Y183463D01*
X172996Y183364D01*
Y165192D01*
X172996Y164989D01*
X168641Y160635D01*
X168585Y160551D01*
X168514Y160479D01*
X168514Y160479D01*
X168481Y160399D01*
X168431Y160328D01*
X168431Y160327D01*
X168428Y160315D01*
X168421Y160304D01*
X168419Y160298D01*
X168419Y160298D01*
X168353Y160137D01*
X168353Y160137D01*
X168349Y160132D01*
X168330Y160034D01*
X168291Y159942D01*
Y159933D01*
X168288Y159925D01*
X168288Y159924D01*
X168290Y159832D01*
X168272Y159742D01*
Y159642D01*
X168272Y159642D01*
X168272Y156106D01*
X168272Y156106D01*
X168272Y156006D01*
X168291Y155907D01*
X168291Y155807D01*
X168330Y155714D01*
X168349Y155616D01*
X168353Y155611D01*
X168353Y155611D01*
X168419Y155450D01*
X168420Y155444D01*
X168476Y155361D01*
X168515Y155268D01*
X168586Y155197D01*
X168641Y155114D01*
X170190Y153565D01*
X170055Y153430D01*
X169768Y152737D01*
Y151987D01*
X170055Y151294D01*
X170585Y150763D01*
X171278Y150476D01*
X172029D01*
X172722Y150763D01*
X173252Y151294D01*
X173539Y151987D01*
Y152737D01*
X173660Y152917D01*
X189532D01*
Y148780D01*
X163779Y123027D01*
X160795Y126011D01*
X160911Y127141D01*
X161441Y127672D01*
X161728Y128365D01*
Y129115D01*
X161441Y129808D01*
X160911Y130339D01*
X160218Y130626D01*
X159467D01*
X158774Y130339D01*
X158244Y129808D01*
X157957Y129115D01*
X157889Y128352D01*
X157033Y128184D01*
X145912D01*
X145714Y128527D01*
X145062Y129179D01*
X144264Y129639D01*
X143374Y129878D01*
X142453D01*
X142070Y129776D01*
X101277Y170569D01*
X100691Y170960D01*
X100000Y171098D01*
X25833D01*
X25635Y171440D01*
X24984Y172092D01*
X24186Y172553D01*
X23295Y172791D01*
X22374D01*
X21484Y172553D01*
X20686Y172092D01*
X20034Y171440D01*
X19573Y170642D01*
X19335Y169752D01*
Y168831D01*
X19573Y167940D01*
X20034Y167142D01*
X20686Y166491D01*
X21484Y166030D01*
X21726Y165965D01*
X21857Y165828D01*
X22252Y164844D01*
X22252Y164842D01*
X22130Y164548D01*
Y163798D01*
X22417Y163105D01*
X22948Y162574D01*
X23641Y162287D01*
X24391D01*
X25084Y162574D01*
X25614Y163105D01*
X25901Y163798D01*
Y164548D01*
X25614Y165241D01*
X25324Y165532D01*
X25137Y166058D01*
X25270Y166777D01*
X25635Y167142D01*
X25833Y167485D01*
X50322D01*
X50598Y167320D01*
X51098Y166632D01*
X51112Y166501D01*
X51117Y166464D01*
X51112Y166433D01*
X51113Y166427D01*
X51121Y166397D01*
X51118Y166366D01*
X51120Y166350D01*
X51129Y166323D01*
X51129Y166220D01*
X51130Y166212D01*
X51133Y166205D01*
Y166203D01*
X51153Y166156D01*
X51159Y166105D01*
X51160Y166104D01*
X51160Y166097D01*
X51163Y166089D01*
X51213Y165999D01*
X51218Y165971D01*
X51224Y165957D01*
X51224Y165957D01*
X51227Y165945D01*
X51262Y165892D01*
X51264Y165888D01*
X51284Y165829D01*
X51284Y165829D01*
X51307Y165802D01*
X51321Y165769D01*
X51380Y165710D01*
X51383Y165704D01*
X51393Y165697D01*
X51448Y165614D01*
X51519Y165543D01*
X51519Y165543D01*
X87563Y129499D01*
Y71014D01*
X87565Y71005D01*
Y70914D01*
X87583Y70825D01*
Y70815D01*
X87585Y70806D01*
X87585Y70796D01*
X87587Y70786D01*
X87589Y70696D01*
X87608Y70607D01*
X87608Y70598D01*
X87784Y69794D01*
X87789Y69782D01*
X87789Y69781D01*
X87820Y69712D01*
X87836Y69628D01*
X87841Y69616D01*
X87903Y69521D01*
X87949Y69417D01*
X88012Y69356D01*
X88060Y69283D01*
X88154Y69220D01*
X88235Y69141D01*
X88317Y69109D01*
X88389Y69060D01*
X88500Y69037D01*
X88606Y68996D01*
X88619Y68993D01*
X88705Y68995D01*
X88779Y68980D01*
X88779Y68980D01*
X88792Y68977D01*
X96335Y68928D01*
X127446Y68723D01*
X127607Y68754D01*
X127769Y68773D01*
X128547Y69026D01*
X128716Y68617D01*
X129247Y68086D01*
X129940Y67799D01*
X130690D01*
X131383Y68086D01*
X131862Y68565D01*
X132216Y68567D01*
X132928Y68451D01*
X132959Y68334D01*
X133420Y67536D01*
X134071Y66884D01*
X133619Y65994D01*
X82818Y15192D01*
X58228D01*
X50606Y22815D01*
Y26370D01*
X51347Y26798D01*
X52120Y27570D01*
X52666Y28516D01*
X52949Y29572D01*
Y30664D01*
X52735Y31463D01*
X52894Y31794D01*
X53136Y32108D01*
X53448Y32366D01*
X53918D01*
X54224Y32493D01*
X54891Y31765D01*
X54927Y31702D01*
X54650Y30664D01*
Y29572D01*
X54932Y28516D01*
X55479Y27570D01*
X56251Y26798D01*
X57197Y26251D01*
X58253Y25969D01*
X59346D01*
X60401Y26251D01*
X61347Y26798D01*
X62120Y27570D01*
X62666Y28516D01*
X62949Y29572D01*
Y30664D01*
X62666Y31720D01*
X62120Y32666D01*
X61347Y33439D01*
X60401Y33985D01*
X59346Y34268D01*
X58253D01*
X57197Y33985D01*
X56353Y33497D01*
X55906Y33681D01*
X55429Y34031D01*
Y34627D01*
X55142Y35320D01*
X54611Y35851D01*
X53918Y36138D01*
X53168D01*
X52475Y35851D01*
X51945Y35320D01*
X51657Y34627D01*
Y34414D01*
X50679Y33824D01*
X50401Y33985D01*
X49345Y34268D01*
X48253D01*
X47197Y33985D01*
X46251Y33439D01*
X45479Y32666D01*
X44932Y31720D01*
X44650Y30664D01*
Y29572D01*
X44932Y28516D01*
X45479Y27570D01*
X46251Y26798D01*
X46993Y26370D01*
Y22067D01*
X47130Y21376D01*
X47522Y20790D01*
X56203Y12109D01*
X56789Y11717D01*
X57480Y11580D01*
X83566D01*
X84257Y11717D01*
X84843Y12109D01*
X93610Y20875D01*
X94610Y20461D01*
Y20452D01*
X94897Y19759D01*
X95428Y19228D01*
X96121Y18941D01*
X96871D01*
X97564Y19228D01*
X98094Y19759D01*
X98382Y20452D01*
Y21202D01*
X98094Y21895D01*
X97564Y22426D01*
X96871Y22713D01*
X96862D01*
X96447Y23713D01*
X137197Y64462D01*
X137588Y65048D01*
X137726Y65739D01*
Y66513D01*
X138370Y66884D01*
X139021Y67536D01*
X139482Y68334D01*
X139720Y69224D01*
Y70146D01*
X139618Y70528D01*
X162926Y93836D01*
X163862Y93358D01*
Y92932D01*
X164149Y92239D01*
X164680Y91708D01*
X165373Y91421D01*
X166123D01*
X166816Y91708D01*
X167347Y92239D01*
X167634Y92932D01*
Y93682D01*
X167347Y94375D01*
X166816Y94906D01*
X166123Y95193D01*
X165697D01*
X165391Y95562D01*
X165178Y96025D01*
X165157Y96117D01*
X165448Y96553D01*
X165586Y97244D01*
Y119724D01*
X192616Y146754D01*
X193007Y147340D01*
X193145Y148031D01*
Y150411D01*
X194145Y150826D01*
X194207Y150763D01*
X194900Y150476D01*
X195651D01*
X196344Y150763D01*
X196874Y151294D01*
X197161Y151987D01*
Y152737D01*
X197282Y152917D01*
X205080D01*
X205201Y152737D01*
Y151987D01*
X205488Y151294D01*
X206018Y150763D01*
X206711Y150476D01*
X207462D01*
X208155Y150763D01*
X208685Y151294D01*
X208972Y151987D01*
Y152737D01*
X209093Y152917D01*
X216535D01*
Y9843D01*
Y8873D01*
X216157Y6972D01*
X215415Y5180D01*
X214338Y3568D01*
X212967Y2197D01*
X211355Y1120D01*
X209564Y378D01*
X207662Y0D01*
X9843D01*
X8873Y-0D01*
X6972Y378D01*
X5180Y1120D01*
X3568Y2197D01*
X2197Y3568D01*
X1120Y5180D01*
X378Y6972D01*
X-0Y8873D01*
X0Y9843D01*
Y101181D01*
X986Y101609D01*
X1679Y101322D01*
X2429D01*
X3122Y101609D01*
X3531Y102017D01*
X3939Y101609D01*
X4632Y101322D01*
X5382D01*
X6075Y101609D01*
X6483Y102017D01*
X6891Y101609D01*
X7585Y101322D01*
X8335D01*
X9028Y101609D01*
X9436Y102017D01*
X9844Y101609D01*
X10537Y101322D01*
X11287D01*
X11981Y101609D01*
X12389Y102017D01*
X12797Y101609D01*
X13490Y101322D01*
X14240D01*
X14933Y101609D01*
X15464Y102139D01*
X15751Y102832D01*
Y103299D01*
X16433D01*
X17126Y103586D01*
X17856Y104047D01*
X18595Y103788D01*
X19345D01*
X20038Y104076D01*
X20446Y104484D01*
X20854Y104076D01*
X21547Y103788D01*
X22298D01*
X22991Y104076D01*
X23399Y104484D01*
X23807Y104076D01*
X24500Y103788D01*
X25251D01*
X25944Y104076D01*
X26744Y103770D01*
X27437Y103483D01*
X28187D01*
X28881Y103770D01*
X29261Y104151D01*
X29696Y103715D01*
X30389Y103428D01*
X31140D01*
X31833Y103715D01*
X32625Y103341D01*
X33318Y103054D01*
X34069D01*
X34762Y103341D01*
X35170Y103749D01*
X35578Y103341D01*
X36271Y103054D01*
X37021D01*
X37714Y103341D01*
X38172Y103798D01*
X38529Y103441D01*
X39222Y103154D01*
X39972D01*
X40666Y103441D01*
X41196Y103972D01*
X42106Y103788D01*
X42856D01*
X43549Y104076D01*
X44080Y104606D01*
X44367Y105299D01*
Y106049D01*
X44080Y106742D01*
X43549Y107273D01*
X42856Y107560D01*
X42106D01*
X41413Y107273D01*
X40882Y106742D01*
X39972Y106926D01*
X39222D01*
X38529Y106639D01*
X38072Y106181D01*
X37714Y106539D01*
X37021Y106826D01*
X36271D01*
X35578Y106539D01*
X35170Y106130D01*
X34762Y106539D01*
X34069Y106826D01*
X33318D01*
X32625Y106539D01*
X31833Y106913D01*
X31140Y107200D01*
X30389D01*
X29696Y106913D01*
X29316Y106532D01*
X28881Y106968D01*
X28187Y107255D01*
X27437D01*
X26744Y106968D01*
X25944Y107273D01*
X25251Y107560D01*
X24500D01*
X23807Y107273D01*
X23399Y106865D01*
X22991Y107273D01*
X22298Y107560D01*
X21547D01*
X20854Y107273D01*
X20446Y106865D01*
X20038Y107273D01*
X19345Y107560D01*
X18595D01*
X17902Y107273D01*
X17172Y106812D01*
X16433Y107071D01*
X15683D01*
X14990Y106784D01*
X14459Y106253D01*
X14172Y105560D01*
Y105093D01*
X13490D01*
X12797Y104806D01*
X12389Y104398D01*
X11981Y104806D01*
X11287Y105093D01*
X10537D01*
X9844Y104806D01*
X9436Y104398D01*
X9028Y104806D01*
X8335Y105093D01*
X7585D01*
X6891Y104806D01*
X6483Y104398D01*
X6075Y104806D01*
X5382Y105093D01*
X4632D01*
X3939Y104806D01*
X3531Y104398D01*
X3122Y104806D01*
X2429Y105093D01*
X1679D01*
X986Y104806D01*
X0Y105235D01*
Y110661D01*
X727Y111442D01*
X1477D01*
X2170Y111729D01*
X2578Y112137D01*
X2986Y111729D01*
X3679Y111442D01*
X4430D01*
X5123Y111729D01*
X5531Y112137D01*
X5939Y111729D01*
X6632Y111442D01*
X7382D01*
X8075Y111729D01*
X8484Y112137D01*
X8892Y111729D01*
X9585Y111442D01*
X10335D01*
X11028Y111729D01*
X11436Y112137D01*
X11844Y111729D01*
X12538Y111442D01*
X13288D01*
X13930Y111708D01*
X14103Y111290D01*
X14634Y110760D01*
X15327Y110473D01*
X16077D01*
X16648Y109793D01*
X17178Y109263D01*
X17872Y108975D01*
X18622D01*
X19315Y109263D01*
X19723Y109671D01*
X20131Y109263D01*
X20824Y108975D01*
X21575D01*
X22268Y109263D01*
X22676Y109671D01*
X23084Y109263D01*
X23777Y108975D01*
X24527D01*
X25220Y109263D01*
X25751Y109793D01*
X26038Y110486D01*
X26380Y111275D01*
X27073Y111562D01*
X27604Y112092D01*
X27891Y112785D01*
Y113535D01*
X27614Y114204D01*
X28002Y114365D01*
X28533Y114895D01*
X28820Y115588D01*
Y116338D01*
X28533Y117031D01*
X28125Y117439D01*
X28533Y117848D01*
X28820Y118541D01*
Y119291D01*
X28533Y119984D01*
X28125Y120392D01*
X28533Y120800D01*
X28820Y121494D01*
Y122244D01*
X28533Y122937D01*
X28125Y123345D01*
X28533Y123753D01*
X28820Y124446D01*
Y125197D01*
X28533Y125890D01*
X28125Y126298D01*
X28533Y126706D01*
X28820Y127399D01*
Y128149D01*
X28533Y128842D01*
X28125Y129251D01*
X28533Y129659D01*
X28820Y130352D01*
Y131102D01*
X28533Y131795D01*
X28125Y132203D01*
X28533Y132611D01*
X28820Y133305D01*
Y134055D01*
X28533Y134748D01*
X28125Y135156D01*
X28533Y135564D01*
X28820Y136257D01*
Y136610D01*
X29174Y137208D01*
X29697Y137504D01*
X30290D01*
X30622Y137002D01*
X30740Y136540D01*
X30522Y136322D01*
X30235Y135629D01*
Y134879D01*
X30522Y134186D01*
X30931Y133778D01*
X30522Y133370D01*
X30235Y132677D01*
Y131926D01*
X30522Y131233D01*
X30931Y130825D01*
X30522Y130417D01*
X30235Y129724D01*
Y128974D01*
X30522Y128280D01*
X30931Y127872D01*
X30522Y127464D01*
X30235Y126771D01*
Y126021D01*
X30522Y125328D01*
X30931Y124920D01*
X30522Y124512D01*
X30235Y123818D01*
Y123068D01*
X30522Y122375D01*
X30931Y121967D01*
X30522Y121559D01*
X30235Y120866D01*
Y120115D01*
X30522Y119422D01*
X30931Y119014D01*
X30522Y118606D01*
X30235Y117913D01*
Y117163D01*
X30522Y116470D01*
X31051Y115941D01*
X30775Y115664D01*
X30487Y114971D01*
Y114221D01*
X30775Y113528D01*
X31305Y112997D01*
X31186Y112102D01*
Y111352D01*
X31473Y110659D01*
X32004Y110128D01*
X32697Y109841D01*
X33447D01*
X34140Y110128D01*
X34440Y110428D01*
X34949Y109920D01*
X35642Y109633D01*
X36393D01*
X37086Y109920D01*
X37532Y110366D01*
X37901Y109997D01*
X38594Y109710D01*
X39344D01*
X40230Y109793D01*
X40761Y109263D01*
X41454Y108975D01*
X42204D01*
X42897Y109263D01*
X43428Y109793D01*
X43715Y110486D01*
Y111236D01*
X43428Y111930D01*
X42897Y112460D01*
X42204Y112747D01*
X41454D01*
X40568Y112664D01*
X40037Y113194D01*
X39344Y113481D01*
X38594D01*
X37901Y113194D01*
X37455Y112748D01*
X37086Y113117D01*
X36393Y113404D01*
X35642D01*
X34949Y113117D01*
X34698Y112866D01*
X33972Y113528D01*
X34259Y114221D01*
Y114523D01*
X35183Y115155D01*
X35452Y115043D01*
X36202D01*
X36895Y115330D01*
X37426Y115861D01*
X37712Y116554D01*
Y117304D01*
X37426Y117997D01*
X36895Y118528D01*
X36202Y118815D01*
X35452D01*
X34962Y118612D01*
X33992Y119068D01*
X33795Y119603D01*
X34007Y120115D01*
Y120866D01*
X33720Y121559D01*
X33312Y121967D01*
X33720Y122375D01*
X34007Y123068D01*
Y123818D01*
X33720Y124512D01*
X33312Y124920D01*
X33720Y125328D01*
X34007Y126021D01*
Y126771D01*
X33720Y127464D01*
X33312Y127872D01*
X33720Y128280D01*
X34007Y128974D01*
Y129724D01*
X33720Y130417D01*
X33312Y130825D01*
X33720Y131233D01*
X34007Y131926D01*
Y132677D01*
X33720Y133370D01*
X33312Y133778D01*
X33720Y134186D01*
X34007Y134879D01*
Y135629D01*
X33922Y135835D01*
X33980Y135922D01*
X34673Y136209D01*
X35203Y136739D01*
X35490Y137432D01*
Y138182D01*
X35443Y138297D01*
X35533Y138433D01*
X36226Y138720D01*
X36757Y139250D01*
X37044Y139943D01*
Y140693D01*
X36757Y141387D01*
X36360Y141784D01*
X36779Y142203D01*
X37066Y142896D01*
Y143646D01*
X36779Y144339D01*
X36248Y144870D01*
X35562Y145437D01*
Y146187D01*
X35275Y146880D01*
X34744Y147411D01*
X34051Y147698D01*
X33301D01*
X32608Y147411D01*
X32077Y146880D01*
X32034Y146775D01*
X31740Y146184D01*
X30790Y146117D01*
X30494Y146197D01*
X30273D01*
X29349Y146360D01*
X29349Y147111D01*
X29062Y147804D01*
X28532Y148334D01*
X27838Y148621D01*
X27088D01*
X26395Y148334D01*
X25864Y147804D01*
X25577Y147111D01*
Y146626D01*
X24911D01*
X24218Y146339D01*
X23688Y145809D01*
X23401Y145115D01*
Y144365D01*
X23403Y143501D01*
X22873Y142971D01*
X22585Y142278D01*
Y141527D01*
X22873Y140834D01*
X23403Y140304D01*
X23356Y139427D01*
Y138677D01*
X23643Y137984D01*
X24173Y137453D01*
X24866Y137166D01*
X24942D01*
X25048Y137007D01*
Y136257D01*
X25335Y135564D01*
X25743Y135156D01*
X25335Y134748D01*
X25048Y134055D01*
Y133305D01*
X25335Y132611D01*
X25743Y132203D01*
X25335Y131795D01*
X25048Y131102D01*
Y130352D01*
X25335Y129659D01*
X25743Y129251D01*
X25335Y128842D01*
X25048Y128149D01*
Y127399D01*
X25335Y126706D01*
X25743Y126298D01*
X25335Y125890D01*
X25048Y125197D01*
Y124446D01*
X25335Y123753D01*
X25743Y123345D01*
X25335Y122937D01*
X25048Y122244D01*
Y121494D01*
X25335Y120800D01*
X25743Y120392D01*
X25335Y119984D01*
X25166Y119576D01*
X24391Y118815D01*
X23641D01*
X22948Y118528D01*
X22417Y117997D01*
X22130Y117304D01*
Y116554D01*
X22417Y115861D01*
X22948Y115330D01*
X23641Y115043D01*
X23807D01*
X24053Y114708D01*
X24329Y114043D01*
X24119Y113535D01*
X23777Y112747D01*
X23084Y112460D01*
X22676Y112052D01*
X22268Y112460D01*
X21575Y112747D01*
X20824D01*
X20131Y112460D01*
X19723Y112052D01*
X19315Y112460D01*
X18622Y112747D01*
X17872D01*
X17300Y113427D01*
X16770Y113957D01*
X16077Y114244D01*
X15327D01*
X14684Y113978D01*
X14511Y114396D01*
X13981Y114927D01*
X13288Y115214D01*
X12538D01*
X11844Y114927D01*
X11436Y114518D01*
X11028Y114927D01*
X10335Y115214D01*
X9585D01*
X8892Y114927D01*
X8484Y114518D01*
X8075Y114927D01*
X7382Y115214D01*
X6632D01*
X5939Y114927D01*
X5531Y114518D01*
X5123Y114927D01*
X4430Y115214D01*
X3679D01*
X2986Y114927D01*
X2578Y114518D01*
X2170Y114927D01*
X1477Y115214D01*
X727D01*
X0Y115995D01*
Y206693D01*
Y207662D01*
X378Y209564D01*
X1120Y211355D01*
X2197Y212967D01*
X3568Y214338D01*
X5180Y215415D01*
X6972Y216157D01*
X8873Y216535D01*
X9843Y216535D01*
X9843Y216535D01*
X206693Y216535D01*
D02*
G37*
G36*
X216535Y153937D02*
X208179D01*
X208155Y153961D01*
X207462Y154248D01*
X206711D01*
X206018Y153961D01*
X205995Y153937D01*
X196368D01*
X196344Y153961D01*
X195651Y154248D01*
X194900D01*
X194207Y153961D01*
X194184Y153937D01*
X172746D01*
X172722Y153961D01*
X172029Y154248D01*
X171278D01*
X171045Y154151D01*
X169362Y155834D01*
X169361Y155840D01*
X169295Y156001D01*
X169291Y156006D01*
X169291Y156106D01*
X169291Y156106D01*
X169291Y159642D01*
X169291Y159642D01*
Y159742D01*
X169291Y159742D01*
X169295Y159747D01*
X169361Y159908D01*
X169362Y159913D01*
X169362Y159914D01*
X169362Y159914D01*
X173717Y164268D01*
X173717Y164268D01*
X174016Y164567D01*
X174016Y165192D01*
Y183364D01*
X174016Y183364D01*
X174019Y183369D01*
X174086Y183530D01*
X174087Y183535D01*
X174087Y183536D01*
X174087Y183536D01*
X176645Y186094D01*
X176645D01*
X176987Y185977D01*
X177184Y185909D01*
X177934Y185909D01*
X178627Y186196D01*
X178651Y186221D01*
X188278D01*
X188302Y186196D01*
X188995Y185909D01*
X189745D01*
X190438Y186196D01*
X190462Y186221D01*
X211900D01*
X211924Y186196D01*
X212617Y185909D01*
X213367D01*
X214060Y186196D01*
X214084Y186221D01*
X216535D01*
Y153937D01*
D02*
G37*
G36*
X139516Y127221D02*
X139413Y126839D01*
Y125917D01*
X139652Y125027D01*
X140113Y124229D01*
X140764Y123577D01*
X141562Y123117D01*
X142453Y122878D01*
X143374D01*
X144264Y123117D01*
X145062Y123577D01*
X145714Y124229D01*
X145912Y124572D01*
X157126D01*
X161973Y119724D01*
Y97992D01*
X156759Y92778D01*
X155823Y93256D01*
Y93682D01*
X155536Y94375D01*
X155005Y94906D01*
X154312Y95193D01*
X153562D01*
X152869Y94906D01*
X152338Y94375D01*
X152051Y93682D01*
Y92932D01*
X152338Y92239D01*
X152869Y91708D01*
X153562Y91421D01*
X153988D01*
X154466Y90485D01*
X151196Y87215D01*
X150396Y87829D01*
X150506Y88019D01*
X150744Y88909D01*
Y89831D01*
X150506Y90721D01*
X150045Y91519D01*
X149393Y92171D01*
X148595Y92632D01*
X147705Y92870D01*
X146783D01*
X145893Y92632D01*
X145095Y92171D01*
X144443Y91519D01*
X143983Y90721D01*
X143744Y89831D01*
Y88909D01*
X143983Y88019D01*
X144443Y87221D01*
X145095Y86569D01*
X145893Y86109D01*
X146783Y85870D01*
X147705D01*
X148595Y86109D01*
X148785Y86218D01*
X149399Y85418D01*
X137064Y73083D01*
X136681Y73185D01*
X135760D01*
X134870Y72947D01*
X134071Y72486D01*
X133420Y71834D01*
X132959Y71036D01*
X132928Y70919D01*
X132216Y70802D01*
X131862Y70805D01*
X131383Y71284D01*
X130690Y71571D01*
X129940D01*
X129247Y71284D01*
X128716Y70753D01*
X128429Y70060D01*
X127453Y69743D01*
X96341Y69947D01*
X88799Y69997D01*
X88785Y69999D01*
X88780Y70012D01*
X88604Y70816D01*
X88604Y70826D01*
X88585Y70914D01*
Y71005D01*
X88583Y71014D01*
Y129499D01*
Y129921D01*
X52240Y166264D01*
X52240Y166264D01*
X52169Y166335D01*
X52169Y166335D01*
X52166Y166348D01*
X52161Y166362D01*
X52153Y166372D01*
X52153Y166372D01*
X52133Y166402D01*
X52130Y166411D01*
X52129Y166420D01*
X52133Y166469D01*
X52131Y166485D01*
X52130Y166491D01*
X52131Y166496D01*
X52148Y166651D01*
X52150Y166655D01*
X52646Y167331D01*
X52916Y167485D01*
X99252D01*
X139516Y127221D01*
D02*
G37*
%LPC*%
G36*
X183840Y201492D02*
X183089D01*
X182396Y201205D01*
X181866Y200674D01*
X181579Y199981D01*
Y199231D01*
X181866Y198538D01*
X182396Y198008D01*
X183089Y197720D01*
X183840D01*
X184533Y198008D01*
X185063Y198538D01*
X185350Y199231D01*
Y199981D01*
X185063Y200674D01*
X184533Y201205D01*
X183840Y201492D01*
D02*
G37*
G36*
X172029D02*
X171278D01*
X170585Y201205D01*
X170055Y200674D01*
X169768Y199981D01*
Y199231D01*
X170055Y198538D01*
X170585Y198008D01*
X171278Y197720D01*
X172029D01*
X172722Y198008D01*
X173252Y198538D01*
X173539Y199231D01*
Y199981D01*
X173252Y200674D01*
X172722Y201205D01*
X172029Y201492D01*
D02*
G37*
G36*
X160218D02*
X159467D01*
X158774Y201205D01*
X158244Y200674D01*
X157957Y199981D01*
Y199231D01*
X158244Y198538D01*
X158774Y198008D01*
X159467Y197720D01*
X160218D01*
X160911Y198008D01*
X161441Y198538D01*
X161728Y199231D01*
Y199981D01*
X161441Y200674D01*
X160911Y201205D01*
X160218Y201492D01*
D02*
G37*
G36*
X148407D02*
X147656D01*
X146963Y201205D01*
X146433Y200674D01*
X146146Y199981D01*
Y199231D01*
X146433Y198538D01*
X146963Y198008D01*
X147656Y197720D01*
X148407D01*
X149100Y198008D01*
X149630Y198538D01*
X149917Y199231D01*
Y199981D01*
X149630Y200674D01*
X149100Y201205D01*
X148407Y201492D01*
D02*
G37*
G36*
X136595D02*
X135845D01*
X135152Y201205D01*
X134622Y200674D01*
X134335Y199981D01*
Y199231D01*
X134622Y198538D01*
X135152Y198008D01*
X135845Y197720D01*
X136595D01*
X137289Y198008D01*
X137819Y198538D01*
X138106Y199231D01*
Y199981D01*
X137819Y200674D01*
X137289Y201205D01*
X136595Y201492D01*
D02*
G37*
G36*
X124785D02*
X124034D01*
X123341Y201205D01*
X122811Y200674D01*
X122524Y199981D01*
Y199231D01*
X122811Y198538D01*
X123341Y198008D01*
X124034Y197720D01*
X124785D01*
X125478Y198008D01*
X126008Y198538D01*
X126295Y199231D01*
Y199981D01*
X126008Y200674D01*
X125478Y201205D01*
X124785Y201492D01*
D02*
G37*
G36*
X112973D02*
X112223D01*
X111530Y201205D01*
X111000Y200674D01*
X110713Y199981D01*
Y199231D01*
X111000Y198538D01*
X111530Y198008D01*
X112223Y197720D01*
X112973D01*
X113667Y198008D01*
X114197Y198538D01*
X114484Y199231D01*
Y199981D01*
X114197Y200674D01*
X113667Y201205D01*
X112973Y201492D01*
D02*
G37*
G36*
X101163D02*
X100412D01*
X99719Y201205D01*
X99189Y200674D01*
X98901Y199981D01*
Y199231D01*
X99189Y198538D01*
X99719Y198008D01*
X100412Y197720D01*
X101163D01*
X101856Y198008D01*
X102386Y198538D01*
X102673Y199231D01*
Y199981D01*
X102386Y200674D01*
X101856Y201205D01*
X101163Y201492D01*
D02*
G37*
G36*
X89351D02*
X88601D01*
X87908Y201205D01*
X87378Y200674D01*
X87090Y199981D01*
Y199231D01*
X87378Y198538D01*
X87908Y198008D01*
X88601Y197720D01*
X89351D01*
X90045Y198008D01*
X90575Y198538D01*
X90862Y199231D01*
Y199981D01*
X90575Y200674D01*
X90045Y201205D01*
X89351Y201492D01*
D02*
G37*
G36*
X77540D02*
X76790D01*
X76097Y201205D01*
X75567Y200674D01*
X75279Y199981D01*
Y199231D01*
X75567Y198538D01*
X76097Y198008D01*
X76790Y197720D01*
X77540D01*
X78233Y198008D01*
X78764Y198538D01*
X79051Y199231D01*
Y199981D01*
X78764Y200674D01*
X78233Y201205D01*
X77540Y201492D01*
D02*
G37*
G36*
X65729D02*
X64979D01*
X64286Y201205D01*
X63756Y200674D01*
X63468Y199981D01*
Y199231D01*
X63756Y198538D01*
X64286Y198008D01*
X64979Y197720D01*
X65729D01*
X66422Y198008D01*
X66953Y198538D01*
X67240Y199231D01*
Y199981D01*
X66953Y200674D01*
X66422Y201205D01*
X65729Y201492D01*
D02*
G37*
G36*
X53918D02*
X53168D01*
X52475Y201205D01*
X51945Y200674D01*
X51657Y199981D01*
Y199231D01*
X51945Y198538D01*
X52475Y198008D01*
X53168Y197720D01*
X53918D01*
X54611Y198008D01*
X55142Y198538D01*
X55429Y199231D01*
Y199981D01*
X55142Y200674D01*
X54611Y201205D01*
X53918Y201492D01*
D02*
G37*
G36*
X42107D02*
X41357D01*
X40664Y201205D01*
X40134Y200674D01*
X39846Y199981D01*
Y199231D01*
X40134Y198538D01*
X40664Y198008D01*
X41357Y197720D01*
X42107D01*
X42801Y198008D01*
X43331Y198538D01*
X43618Y199231D01*
Y199981D01*
X43331Y200674D01*
X42801Y201205D01*
X42107Y201492D01*
D02*
G37*
G36*
X16679Y212614D02*
X14817D01*
X12979Y212323D01*
X11208Y211748D01*
X9550Y210903D01*
X8043Y209808D01*
X6727Y208492D01*
X5633Y206986D01*
X4788Y205327D01*
X4213Y203557D01*
X3921Y201718D01*
Y199857D01*
X4213Y198018D01*
X4788Y196247D01*
X5633Y194589D01*
X6727Y193083D01*
X8043Y191767D01*
X9550Y190672D01*
X10562Y190156D01*
X10704Y188962D01*
X10606Y188863D01*
X10319Y188170D01*
Y187420D01*
X10606Y186727D01*
X11136Y186196D01*
X11830Y185909D01*
X12580D01*
X13273Y186196D01*
X13803Y186727D01*
X14090Y187420D01*
Y188063D01*
X14162Y188248D01*
X14817Y188961D01*
X16679D01*
X18518Y189252D01*
X20288Y189827D01*
X21947Y190672D01*
X23453Y191767D01*
X24769Y193083D01*
X25863Y194589D01*
X26708Y196247D01*
X27284Y198018D01*
X27331Y198318D01*
X28068Y198482D01*
X28371Y198490D01*
X28853Y198008D01*
X29546Y197720D01*
X30296D01*
X30989Y198008D01*
X31520Y198538D01*
X31807Y199231D01*
Y199981D01*
X31520Y200674D01*
X30989Y201205D01*
X30296Y201492D01*
X29546D01*
X28853Y201205D01*
X28575Y200927D01*
X27575Y201284D01*
Y201718D01*
X27284Y203557D01*
X26708Y205327D01*
X25863Y206986D01*
X24769Y208492D01*
X23453Y209808D01*
X21947Y210903D01*
X20288Y211748D01*
X18518Y212323D01*
X16679Y212614D01*
D02*
G37*
G36*
X201718D02*
X199857D01*
X198018Y212323D01*
X196247Y211748D01*
X194589Y210903D01*
X193083Y209808D01*
X191767Y208492D01*
X190672Y206986D01*
X189827Y205327D01*
X189252Y203557D01*
X188961Y201718D01*
Y199857D01*
X189252Y198018D01*
X189827Y196247D01*
X190672Y194589D01*
X191767Y193083D01*
X193083Y191767D01*
X194589Y190672D01*
X196247Y189827D01*
X198018Y189252D01*
X199857Y188961D01*
X201718D01*
X203557Y189252D01*
X205327Y189827D01*
X206986Y190672D01*
X208492Y191767D01*
X209808Y193083D01*
X210903Y194589D01*
X211748Y196247D01*
X212323Y198018D01*
X212614Y199857D01*
Y201718D01*
X212323Y203557D01*
X211748Y205327D01*
X210903Y206986D01*
X209808Y208492D01*
X208492Y209808D01*
X206986Y210903D01*
X205327Y211748D01*
X203557Y212323D01*
X201718Y212614D01*
D02*
G37*
G36*
X166123Y189681D02*
X165373D01*
X164680Y189394D01*
X164149Y188863D01*
X163862Y188170D01*
Y187420D01*
X164149Y186727D01*
X164680Y186196D01*
X165373Y185909D01*
X166123D01*
X166816Y186196D01*
X167347Y186727D01*
X167634Y187420D01*
Y188170D01*
X167347Y188863D01*
X166816Y189394D01*
X166123Y189681D01*
D02*
G37*
G36*
X154312D02*
X153562D01*
X152869Y189394D01*
X152338Y188863D01*
X152051Y188170D01*
Y187420D01*
X152338Y186727D01*
X152869Y186196D01*
X153562Y185909D01*
X154312D01*
X155005Y186196D01*
X155536Y186727D01*
X155823Y187420D01*
Y188170D01*
X155536Y188863D01*
X155005Y189394D01*
X154312Y189681D01*
D02*
G37*
G36*
X142501D02*
X141751D01*
X141058Y189394D01*
X140527Y188863D01*
X140240Y188170D01*
Y187420D01*
X140527Y186727D01*
X141058Y186196D01*
X141751Y185909D01*
X142501D01*
X143194Y186196D01*
X143725Y186727D01*
X144012Y187420D01*
Y188170D01*
X143725Y188863D01*
X143194Y189394D01*
X142501Y189681D01*
D02*
G37*
G36*
X130690D02*
X129940D01*
X129247Y189394D01*
X128716Y188863D01*
X128429Y188170D01*
Y187420D01*
X128716Y186727D01*
X129247Y186196D01*
X129940Y185909D01*
X130690D01*
X131383Y186196D01*
X131914Y186727D01*
X132201Y187420D01*
Y188170D01*
X131914Y188863D01*
X131383Y189394D01*
X130690Y189681D01*
D02*
G37*
G36*
X118879D02*
X118129D01*
X117436Y189394D01*
X116905Y188863D01*
X116618Y188170D01*
Y187420D01*
X116905Y186727D01*
X117436Y186196D01*
X118129Y185909D01*
X118879D01*
X119572Y186196D01*
X120103Y186727D01*
X120390Y187420D01*
Y188170D01*
X120103Y188863D01*
X119572Y189394D01*
X118879Y189681D01*
D02*
G37*
G36*
X107068D02*
X106318D01*
X105625Y189394D01*
X105094Y188863D01*
X104807Y188170D01*
Y187420D01*
X105094Y186727D01*
X105625Y186196D01*
X106318Y185909D01*
X107068D01*
X107761Y186196D01*
X108292Y186727D01*
X108579Y187420D01*
Y188170D01*
X108292Y188863D01*
X107761Y189394D01*
X107068Y189681D01*
D02*
G37*
G36*
X95257D02*
X94507D01*
X93814Y189394D01*
X93283Y188863D01*
X92996Y188170D01*
Y187420D01*
X93283Y186727D01*
X93814Y186196D01*
X94507Y185909D01*
X95257D01*
X95950Y186196D01*
X96481Y186727D01*
X96768Y187420D01*
Y188170D01*
X96481Y188863D01*
X95950Y189394D01*
X95257Y189681D01*
D02*
G37*
G36*
X83446D02*
X82696D01*
X82003Y189394D01*
X81472Y188863D01*
X81185Y188170D01*
Y187420D01*
X81472Y186727D01*
X82003Y186196D01*
X82696Y185909D01*
X83446D01*
X84139Y186196D01*
X84670Y186727D01*
X84957Y187420D01*
Y188170D01*
X84670Y188863D01*
X84139Y189394D01*
X83446Y189681D01*
D02*
G37*
G36*
X71635D02*
X70885D01*
X70192Y189394D01*
X69661Y188863D01*
X69374Y188170D01*
Y187420D01*
X69661Y186727D01*
X70192Y186196D01*
X70885Y185909D01*
X71635D01*
X72328Y186196D01*
X72859Y186727D01*
X73146Y187420D01*
Y188170D01*
X72859Y188863D01*
X72328Y189394D01*
X71635Y189681D01*
D02*
G37*
G36*
X59824D02*
X59074D01*
X58381Y189394D01*
X57850Y188863D01*
X57563Y188170D01*
Y187420D01*
X57850Y186727D01*
X58381Y186196D01*
X59074Y185909D01*
X59824D01*
X60517Y186196D01*
X61048Y186727D01*
X61335Y187420D01*
Y188170D01*
X61048Y188863D01*
X60517Y189394D01*
X59824Y189681D01*
D02*
G37*
G36*
X48013D02*
X47263D01*
X46569Y189394D01*
X46039Y188863D01*
X45752Y188170D01*
Y187420D01*
X46039Y186727D01*
X46569Y186196D01*
X47263Y185909D01*
X48013D01*
X48706Y186196D01*
X49237Y186727D01*
X49524Y187420D01*
Y188170D01*
X49237Y188863D01*
X48706Y189394D01*
X48013Y189681D01*
D02*
G37*
G36*
X36202D02*
X35452D01*
X34758Y189394D01*
X34228Y188863D01*
X33941Y188170D01*
Y187420D01*
X34228Y186727D01*
X34758Y186196D01*
X35452Y185909D01*
X36202D01*
X36895Y186196D01*
X37426Y186727D01*
X37712Y187420D01*
Y188170D01*
X37426Y188863D01*
X36895Y189394D01*
X36202Y189681D01*
D02*
G37*
G36*
X24391D02*
X23641D01*
X22948Y189394D01*
X22417Y188863D01*
X22130Y188170D01*
Y187420D01*
X22417Y186727D01*
X22948Y186196D01*
X23641Y185909D01*
X24391D01*
X25084Y186196D01*
X25614Y186727D01*
X25901Y187420D01*
Y188170D01*
X25614Y188863D01*
X25084Y189394D01*
X24391Y189681D01*
D02*
G37*
G36*
X160218Y177870D02*
X159467D01*
X158774Y177583D01*
X158244Y177052D01*
X157957Y176359D01*
Y175609D01*
X158244Y174916D01*
X158774Y174385D01*
X159467Y174098D01*
X160218D01*
X160911Y174385D01*
X161441Y174916D01*
X161728Y175609D01*
Y176359D01*
X161441Y177052D01*
X160911Y177583D01*
X160218Y177870D01*
D02*
G37*
G36*
X148407D02*
X147656D01*
X146963Y177583D01*
X146433Y177052D01*
X146146Y176359D01*
Y175609D01*
X146433Y174916D01*
X146963Y174385D01*
X147656Y174098D01*
X148407D01*
X149100Y174385D01*
X149630Y174916D01*
X149917Y175609D01*
Y176359D01*
X149630Y177052D01*
X149100Y177583D01*
X148407Y177870D01*
D02*
G37*
G36*
X124785D02*
X124034D01*
X123341Y177583D01*
X122811Y177052D01*
X122524Y176359D01*
Y175609D01*
X122811Y174916D01*
X123341Y174385D01*
X124034Y174098D01*
X124785D01*
X125478Y174385D01*
X126008Y174916D01*
X126295Y175609D01*
Y176359D01*
X126008Y177052D01*
X125478Y177583D01*
X124785Y177870D01*
D02*
G37*
G36*
X77540D02*
X76790D01*
X76097Y177583D01*
X75567Y177052D01*
X75279Y176359D01*
Y175609D01*
X75567Y174916D01*
X76097Y174385D01*
X76790Y174098D01*
X77540D01*
X78233Y174385D01*
X78764Y174916D01*
X79051Y175609D01*
Y176359D01*
X78764Y177052D01*
X78233Y177583D01*
X77540Y177870D01*
D02*
G37*
G36*
X65729D02*
X64979D01*
X64286Y177583D01*
X63756Y177052D01*
X63468Y176359D01*
Y175609D01*
X63756Y174916D01*
X64286Y174385D01*
X64979Y174098D01*
X65729D01*
X66422Y174385D01*
X66953Y174916D01*
X67240Y175609D01*
Y176359D01*
X66953Y177052D01*
X66422Y177583D01*
X65729Y177870D01*
D02*
G37*
G36*
X53918D02*
X53168D01*
X52475Y177583D01*
X51945Y177052D01*
X51657Y176359D01*
Y175609D01*
X51945Y174916D01*
X52475Y174385D01*
X53168Y174098D01*
X53918D01*
X54611Y174385D01*
X55142Y174916D01*
X55429Y175609D01*
Y176359D01*
X55142Y177052D01*
X54611Y177583D01*
X53918Y177870D01*
D02*
G37*
G36*
X42107D02*
X41357D01*
X40664Y177583D01*
X40134Y177052D01*
X39846Y176359D01*
Y175609D01*
X40134Y174916D01*
X40664Y174385D01*
X41357Y174098D01*
X42107D01*
X42801Y174385D01*
X43331Y174916D01*
X43618Y175609D01*
Y176359D01*
X43331Y177052D01*
X42801Y177583D01*
X42107Y177870D01*
D02*
G37*
G36*
X30296D02*
X29546D01*
X28853Y177583D01*
X28322Y177052D01*
X28035Y176359D01*
Y175609D01*
X28322Y174916D01*
X28853Y174385D01*
X29546Y174098D01*
X30296D01*
X30989Y174385D01*
X31520Y174916D01*
X31807Y175609D01*
Y176359D01*
X31520Y177052D01*
X30989Y177583D01*
X30296Y177870D01*
D02*
G37*
G36*
X18485D02*
X17735D01*
X17042Y177583D01*
X16511Y177052D01*
X16224Y176359D01*
Y175609D01*
X16511Y174916D01*
X17042Y174385D01*
X17735Y174098D01*
X18485D01*
X19178Y174385D01*
X19709Y174916D01*
X19996Y175609D01*
Y176359D01*
X19709Y177052D01*
X19178Y177583D01*
X18485Y177870D01*
D02*
G37*
G36*
X6674D02*
X5924D01*
X5231Y177583D01*
X4701Y177052D01*
X4413Y176359D01*
Y175609D01*
X4701Y174916D01*
X5231Y174385D01*
X5924Y174098D01*
X6674D01*
X7367Y174385D01*
X7898Y174916D01*
X8185Y175609D01*
Y176359D01*
X7898Y177052D01*
X7367Y177583D01*
X6674Y177870D01*
D02*
G37*
G36*
X131675Y172575D02*
X130530D01*
X129425Y172279D01*
X128434Y171706D01*
X127624Y170897D01*
X127052Y169906D01*
X126756Y168801D01*
Y167656D01*
X127052Y166551D01*
X127624Y165560D01*
X128434Y164750D01*
X129425Y164178D01*
X130530Y163882D01*
X131675D01*
X132780Y164178D01*
X133771Y164750D01*
X134580Y165560D01*
X135153Y166551D01*
X135449Y167656D01*
Y168801D01*
X135153Y169906D01*
X134580Y170897D01*
X133771Y171706D01*
X132780Y172279D01*
X131675Y172575D01*
D02*
G37*
G36*
X166123Y166059D02*
X165373D01*
X164680Y165772D01*
X164149Y165241D01*
X163862Y164548D01*
Y163798D01*
X164149Y163105D01*
X164680Y162574D01*
X165373Y162287D01*
X166123D01*
X166816Y162574D01*
X167347Y163105D01*
X167634Y163798D01*
Y164548D01*
X167347Y165241D01*
X166816Y165772D01*
X166123Y166059D01*
D02*
G37*
G36*
X154312D02*
X153562D01*
X152869Y165772D01*
X152338Y165241D01*
X152051Y164548D01*
Y163798D01*
X152338Y163105D01*
X152869Y162574D01*
X153562Y162287D01*
X154312D01*
X155005Y162574D01*
X155536Y163105D01*
X155823Y163798D01*
Y164548D01*
X155536Y165241D01*
X155005Y165772D01*
X154312Y166059D01*
D02*
G37*
G36*
X142501D02*
X141751D01*
X141058Y165772D01*
X140527Y165241D01*
X140240Y164548D01*
Y163798D01*
X140527Y163105D01*
X141058Y162574D01*
X141751Y162287D01*
X142501D01*
X143194Y162574D01*
X143725Y163105D01*
X144012Y163798D01*
Y164548D01*
X143725Y165241D01*
X143194Y165772D01*
X142501Y166059D01*
D02*
G37*
G36*
X48013D02*
X47263D01*
X46569Y165772D01*
X46039Y165241D01*
X45752Y164548D01*
Y163798D01*
X46039Y163105D01*
X46569Y162574D01*
X47263Y162287D01*
X48013D01*
X48706Y162574D01*
X49237Y163105D01*
X49524Y163798D01*
Y164548D01*
X49237Y165241D01*
X48706Y165772D01*
X48013Y166059D01*
D02*
G37*
G36*
X36202D02*
X35452D01*
X34758Y165772D01*
X34228Y165241D01*
X33941Y164548D01*
Y163798D01*
X34228Y163105D01*
X34758Y162574D01*
X35452Y162287D01*
X36202D01*
X36895Y162574D01*
X37426Y163105D01*
X37712Y163798D01*
Y164548D01*
X37426Y165241D01*
X36895Y165772D01*
X36202Y166059D01*
D02*
G37*
G36*
X160218Y154248D02*
X159467D01*
X158774Y153961D01*
X158244Y153430D01*
X157957Y152737D01*
Y151987D01*
X158244Y151294D01*
X158774Y150763D01*
X159467Y150476D01*
X160218D01*
X160911Y150763D01*
X161441Y151294D01*
X161728Y151987D01*
Y152737D01*
X161441Y153430D01*
X160911Y153961D01*
X160218Y154248D01*
D02*
G37*
G36*
X136595D02*
X135845D01*
X135152Y153961D01*
X134622Y153430D01*
X134335Y152737D01*
Y151987D01*
X134622Y151294D01*
X135152Y150763D01*
X135845Y150476D01*
X136595D01*
X137289Y150763D01*
X137819Y151294D01*
X138106Y151987D01*
Y152737D01*
X137819Y153430D01*
X137289Y153961D01*
X136595Y154248D01*
D02*
G37*
G36*
X6674D02*
X5924D01*
X5231Y153961D01*
X4701Y153430D01*
X4413Y152737D01*
Y151987D01*
X4701Y151294D01*
X5231Y150763D01*
X5924Y150476D01*
X6674D01*
X7367Y150763D01*
X7898Y151294D01*
X8185Y151987D01*
Y152737D01*
X7898Y153430D01*
X7367Y153961D01*
X6674Y154248D01*
D02*
G37*
G36*
X213367Y142437D02*
X212617D01*
X211924Y142150D01*
X211393Y141619D01*
X211106Y140926D01*
Y140176D01*
X211393Y139483D01*
X211924Y138952D01*
X212617Y138665D01*
X213367D01*
X214060Y138952D01*
X214591Y139483D01*
X214878Y140176D01*
Y140926D01*
X214591Y141619D01*
X214060Y142150D01*
X213367Y142437D01*
D02*
G37*
G36*
X166123D02*
X165373D01*
X164680Y142150D01*
X164149Y141619D01*
X163862Y140926D01*
Y140176D01*
X164149Y139483D01*
X164680Y138952D01*
X165373Y138665D01*
X166123D01*
X166816Y138952D01*
X167347Y139483D01*
X167634Y140176D01*
Y140926D01*
X167347Y141619D01*
X166816Y142150D01*
X166123Y142437D01*
D02*
G37*
G36*
X154312D02*
X153562D01*
X152869Y142150D01*
X152338Y141619D01*
X152051Y140926D01*
Y140176D01*
X152338Y139483D01*
X152869Y138952D01*
X153562Y138665D01*
X154312D01*
X155005Y138952D01*
X155536Y139483D01*
X155823Y140176D01*
Y140926D01*
X155536Y141619D01*
X155005Y142150D01*
X154312Y142437D01*
D02*
G37*
G36*
X142501D02*
X141751D01*
X141058Y142150D01*
X140527Y141619D01*
X140240Y140926D01*
Y140176D01*
X140527Y139483D01*
X141058Y138952D01*
X141751Y138665D01*
X142501D01*
X143194Y138952D01*
X143725Y139483D01*
X144012Y140176D01*
Y140926D01*
X143725Y141619D01*
X143194Y142150D01*
X142501Y142437D01*
D02*
G37*
G36*
X58033Y145587D02*
X56888D01*
X55783Y145290D01*
X54792Y144718D01*
X53983Y143909D01*
X53410Y142918D01*
X53114Y141812D01*
Y140668D01*
X53410Y139562D01*
X53983Y138571D01*
X54792Y137762D01*
X55783Y137190D01*
X56888Y136894D01*
X58033D01*
X59138Y137190D01*
X60129Y137762D01*
X60939Y138571D01*
X61511Y139562D01*
X61807Y140668D01*
Y141812D01*
X61511Y142918D01*
X60939Y143909D01*
X60129Y144718D01*
X59138Y145290D01*
X58033Y145587D01*
D02*
G37*
G36*
X48033D02*
X46888D01*
X45783Y145290D01*
X44792Y144718D01*
X43983Y143909D01*
X43410Y142918D01*
X43114Y141812D01*
Y140668D01*
X43410Y139562D01*
X43983Y138571D01*
X44792Y137762D01*
X45783Y137190D01*
X46888Y136894D01*
X48033D01*
X49138Y137190D01*
X50129Y137762D01*
X50939Y138571D01*
X51511Y139562D01*
X51807Y140668D01*
Y141812D01*
X51511Y142918D01*
X50939Y143909D01*
X50129Y144718D01*
X49138Y145290D01*
X48033Y145587D01*
D02*
G37*
G36*
X197705Y143205D02*
X196783D01*
X195893Y142966D01*
X195095Y142505D01*
X194443Y141854D01*
X193983Y141056D01*
X193744Y140165D01*
Y139244D01*
X193983Y138354D01*
X194443Y137556D01*
X195095Y136904D01*
X195438Y136706D01*
Y128545D01*
X195380Y128491D01*
X194438Y128112D01*
X193971Y128470D01*
X193081Y128839D01*
X192126Y128965D01*
X184646D01*
X183691Y128839D01*
X182801Y128470D01*
X182037Y127884D01*
X181451Y127120D01*
X181082Y126230D01*
X180957Y125276D01*
X181082Y124321D01*
X181451Y123431D01*
X182037Y122667D01*
X182801Y122081D01*
X183580Y121758D01*
X183697Y121697D01*
X184120Y120647D01*
X184039Y120453D01*
Y119507D01*
X184401Y118633D01*
X184728Y118307D01*
X184401Y117981D01*
X184039Y117107D01*
Y116161D01*
X184401Y115287D01*
X184728Y114961D01*
X184401Y114634D01*
X184039Y113760D01*
Y112814D01*
X184401Y111940D01*
X184825Y111005D01*
X184539Y110315D01*
Y109567D01*
X184825Y108877D01*
X185292Y108268D01*
X184825Y107658D01*
X184539Y106968D01*
Y106221D01*
X184825Y105531D01*
X184401Y104595D01*
X184039Y103721D01*
Y102775D01*
X184401Y101901D01*
X184728Y101575D01*
X184401Y101249D01*
X184039Y100375D01*
Y99429D01*
X184401Y98555D01*
X184728Y98228D01*
X184401Y97902D01*
X184039Y97028D01*
Y96082D01*
X184120Y95888D01*
X183697Y94839D01*
X183580Y94777D01*
X182801Y94455D01*
X182037Y93868D01*
X181451Y93104D01*
X181082Y92215D01*
X180957Y91260D01*
X181082Y90305D01*
X181451Y89415D01*
X182037Y88651D01*
X182801Y88065D01*
X183691Y87696D01*
X184646Y87571D01*
X192126D01*
X193081Y87696D01*
X193971Y88065D01*
X194735Y88651D01*
X195321Y89415D01*
X195689Y90305D01*
X195815Y91260D01*
X195689Y92215D01*
X195321Y93104D01*
X194735Y93868D01*
X194219Y94264D01*
X193748Y95208D01*
X194110Y96082D01*
Y97028D01*
X193938Y97443D01*
X193793Y97977D01*
X194268Y98775D01*
X198521Y103028D01*
X198913Y103614D01*
X199050Y104306D01*
Y114978D01*
X200050Y115393D01*
X200113Y115330D01*
X200806Y115043D01*
X201556D01*
X202249Y115330D01*
X202780Y115861D01*
X203067Y116554D01*
Y117304D01*
X202780Y117997D01*
X202249Y118528D01*
X201556Y118815D01*
X200806D01*
X200113Y118528D01*
X200050Y118465D01*
X199050Y118880D01*
Y121493D01*
X199592Y121856D01*
X200050Y122030D01*
X200817Y121712D01*
X201772Y121587D01*
X207677D01*
X208632Y121712D01*
X209522Y122081D01*
X210286Y122667D01*
X210872Y123431D01*
X211241Y124321D01*
X211366Y125276D01*
X211241Y126230D01*
X210872Y127120D01*
X210286Y127884D01*
X209522Y128470D01*
X208632Y128839D01*
X207677Y128965D01*
X201772D01*
X200817Y128839D01*
X200050Y128522D01*
X199592Y128695D01*
X199050Y129058D01*
Y136706D01*
X199393Y136904D01*
X200045Y137556D01*
X200506Y138354D01*
X200744Y139244D01*
Y140165D01*
X200506Y141056D01*
X200045Y141854D01*
X199393Y142505D01*
X198595Y142966D01*
X197705Y143205D01*
D02*
G37*
G36*
X77540Y130626D02*
X76790D01*
X76097Y130339D01*
X75567Y129808D01*
X75279Y129115D01*
Y128365D01*
X75567Y127672D01*
X76097Y127141D01*
X76790Y126854D01*
X77540D01*
X78233Y127141D01*
X78764Y127672D01*
X79051Y128365D01*
Y129115D01*
X78764Y129808D01*
X78233Y130339D01*
X77540Y130626D01*
D02*
G37*
G36*
X18485D02*
X17735D01*
X17042Y130339D01*
X16511Y129808D01*
X16224Y129115D01*
Y128365D01*
X16511Y127672D01*
X17042Y127141D01*
X17735Y126854D01*
X18485D01*
X19178Y127141D01*
X19709Y127672D01*
X19996Y128365D01*
Y129115D01*
X19709Y129808D01*
X19178Y130339D01*
X18485Y130626D01*
D02*
G37*
G36*
X6674D02*
X5924D01*
X5231Y130339D01*
X4701Y129808D01*
X4413Y129115D01*
Y128365D01*
X4701Y127672D01*
X5231Y127141D01*
X5924Y126854D01*
X6674D01*
X7367Y127141D01*
X7898Y127672D01*
X8185Y128365D01*
Y129115D01*
X7898Y129808D01*
X7367Y130339D01*
X6674Y130626D01*
D02*
G37*
G36*
X213367Y118815D02*
X212617D01*
X211924Y118528D01*
X211393Y117997D01*
X211106Y117304D01*
Y116554D01*
X211393Y115861D01*
X211924Y115330D01*
X212617Y115043D01*
X213367D01*
X214060Y115330D01*
X214591Y115861D01*
X214878Y116554D01*
Y117304D01*
X214591Y117997D01*
X214060Y118528D01*
X213367Y118815D01*
D02*
G37*
G36*
X177934D02*
X177184D01*
X176491Y118528D01*
X175960Y117997D01*
X175673Y117304D01*
Y116554D01*
X175960Y115861D01*
X176491Y115330D01*
X177184Y115043D01*
X177934D01*
X178627Y115330D01*
X179158Y115861D01*
X179445Y116554D01*
Y117304D01*
X179158Y117997D01*
X178627Y118528D01*
X177934Y118815D01*
D02*
G37*
G36*
X71635D02*
X70885D01*
X70192Y118528D01*
X69661Y117997D01*
X69374Y117304D01*
Y116554D01*
X69661Y115861D01*
X70192Y115330D01*
X70885Y115043D01*
X71635D01*
X72328Y115330D01*
X72859Y115861D01*
X73146Y116554D01*
Y117304D01*
X72859Y117997D01*
X72328Y118528D01*
X71635Y118815D01*
D02*
G37*
G36*
X59824D02*
X59074D01*
X58381Y118528D01*
X57850Y117997D01*
X57563Y117304D01*
Y116554D01*
X57850Y115861D01*
X58381Y115330D01*
X59074Y115043D01*
X59824D01*
X60517Y115330D01*
X61048Y115861D01*
X61335Y116554D01*
Y117304D01*
X61048Y117997D01*
X60517Y118528D01*
X59824Y118815D01*
D02*
G37*
G36*
X48013D02*
X47263D01*
X46569Y118528D01*
X46039Y117997D01*
X45752Y117304D01*
Y116554D01*
X46039Y115861D01*
X46569Y115330D01*
X47263Y115043D01*
X48013D01*
X48706Y115330D01*
X49237Y115861D01*
X49524Y116554D01*
Y117304D01*
X49237Y117997D01*
X48706Y118528D01*
X48013Y118815D01*
D02*
G37*
G36*
X207462Y107004D02*
X206711D01*
X206018Y106717D01*
X205488Y106186D01*
X205201Y105493D01*
Y104743D01*
X205488Y104050D01*
X206018Y103519D01*
X206711Y103232D01*
X207462D01*
X208155Y103519D01*
X208685Y104050D01*
X208972Y104743D01*
Y105493D01*
X208685Y106186D01*
X208155Y106717D01*
X207462Y107004D01*
D02*
G37*
G36*
X77540D02*
X76790D01*
X76097Y106717D01*
X75567Y106186D01*
X75279Y105493D01*
Y104743D01*
X75567Y104050D01*
X76097Y103519D01*
X76790Y103232D01*
X77540D01*
X78233Y103519D01*
X78764Y104050D01*
X79051Y104743D01*
Y105493D01*
X78764Y106186D01*
X78233Y106717D01*
X77540Y107004D01*
D02*
G37*
G36*
X65729D02*
X64979D01*
X64286Y106717D01*
X63756Y106186D01*
X63468Y105493D01*
Y104743D01*
X63756Y104050D01*
X64286Y103519D01*
X64979Y103232D01*
X65729D01*
X66422Y103519D01*
X66953Y104050D01*
X67240Y104743D01*
Y105493D01*
X66953Y106186D01*
X66422Y106717D01*
X65729Y107004D01*
D02*
G37*
G36*
X213367Y95193D02*
X212617D01*
X211924Y94906D01*
X211393Y94375D01*
X211311Y94175D01*
X210697Y93992D01*
X210182Y93948D01*
X209522Y94455D01*
X208632Y94823D01*
X207677Y94949D01*
X201772D01*
X200817Y94823D01*
X199927Y94455D01*
X199163Y93868D01*
X198577Y93104D01*
X198208Y92215D01*
X198083Y91260D01*
X198208Y90305D01*
X198577Y89415D01*
X199163Y88651D01*
X199927Y88065D01*
X200817Y87696D01*
X201772Y87571D01*
X207677D01*
X208632Y87696D01*
X209522Y88065D01*
X210286Y88651D01*
X210872Y89415D01*
X211241Y90305D01*
X211326Y90956D01*
X211383Y91028D01*
X212041Y91452D01*
X212338Y91536D01*
X212617Y91421D01*
X213367D01*
X214060Y91708D01*
X214591Y92239D01*
X214878Y92932D01*
Y93682D01*
X214591Y94375D01*
X214060Y94906D01*
X213367Y95193D01*
D02*
G37*
G36*
X71635D02*
X70885D01*
X70192Y94906D01*
X69661Y94375D01*
X69374Y93682D01*
Y92932D01*
X69661Y92239D01*
X70192Y91708D01*
X70885Y91421D01*
X71635D01*
X72328Y91708D01*
X72859Y92239D01*
X73146Y92932D01*
Y93682D01*
X72859Y94375D01*
X72328Y94906D01*
X71635Y95193D01*
D02*
G37*
G36*
X36202D02*
X35452D01*
X34758Y94906D01*
X34228Y94375D01*
X33941Y93682D01*
Y92932D01*
X34228Y92239D01*
X34758Y91708D01*
X35452Y91421D01*
X36202D01*
X36895Y91708D01*
X37426Y92239D01*
X37712Y92932D01*
Y93682D01*
X37426Y94375D01*
X36895Y94906D01*
X36202Y95193D01*
D02*
G37*
G36*
X24391D02*
X23641D01*
X22948Y94906D01*
X22417Y94375D01*
X22130Y93682D01*
Y92932D01*
X22417Y92239D01*
X22948Y91708D01*
X23641Y91421D01*
X24391D01*
X25084Y91708D01*
X25614Y92239D01*
X25901Y92932D01*
Y93682D01*
X25614Y94375D01*
X25084Y94906D01*
X24391Y95193D01*
D02*
G37*
G36*
X207462Y83382D02*
X206711D01*
X206018Y83095D01*
X205488Y82564D01*
X205201Y81871D01*
Y81121D01*
X205488Y80428D01*
X206018Y79897D01*
X206711Y79610D01*
X207462D01*
X208155Y79897D01*
X208685Y80428D01*
X208972Y81121D01*
Y81871D01*
X208685Y82564D01*
X208155Y83095D01*
X207462Y83382D01*
D02*
G37*
G36*
X195651D02*
X194900D01*
X194207Y83095D01*
X193677Y82564D01*
X193390Y81871D01*
Y81121D01*
X193677Y80428D01*
X194207Y79897D01*
X194900Y79610D01*
X195651D01*
X196344Y79897D01*
X196874Y80428D01*
X197161Y81121D01*
Y81871D01*
X196874Y82564D01*
X196344Y83095D01*
X195651Y83382D01*
D02*
G37*
G36*
X183840D02*
X183089D01*
X182396Y83095D01*
X181866Y82564D01*
X181579Y81871D01*
Y81121D01*
X181866Y80428D01*
X182396Y79897D01*
X183089Y79610D01*
X183840D01*
X184533Y79897D01*
X185063Y80428D01*
X185350Y81121D01*
Y81871D01*
X185063Y82564D01*
X184533Y83095D01*
X183840Y83382D01*
D02*
G37*
G36*
X172029D02*
X171278D01*
X170585Y83095D01*
X170055Y82564D01*
X169768Y81871D01*
Y81121D01*
X170055Y80428D01*
X170585Y79897D01*
X171278Y79610D01*
X172029D01*
X172722Y79897D01*
X173252Y80428D01*
X173539Y81121D01*
Y81871D01*
X173252Y82564D01*
X172722Y83095D01*
X172029Y83382D01*
D02*
G37*
G36*
X30296D02*
X29546D01*
X28853Y83095D01*
X28322Y82564D01*
X28035Y81871D01*
Y81121D01*
X28322Y80428D01*
X28853Y79897D01*
X29546Y79610D01*
X30296D01*
X30989Y79897D01*
X31520Y80428D01*
X31807Y81121D01*
Y81871D01*
X31520Y82564D01*
X30989Y83095D01*
X30296Y83382D01*
D02*
G37*
G36*
X6674D02*
X5924D01*
X5231Y83095D01*
X4701Y82564D01*
X4413Y81871D01*
Y81121D01*
X4701Y80428D01*
X5231Y79897D01*
X5924Y79610D01*
X6674D01*
X7367Y79897D01*
X7898Y80428D01*
X8185Y81121D01*
Y81871D01*
X7898Y82564D01*
X7367Y83095D01*
X6674Y83382D01*
D02*
G37*
G36*
X213367Y71571D02*
X212617D01*
X211924Y71284D01*
X211393Y70753D01*
X211106Y70060D01*
Y69310D01*
X211393Y68617D01*
X211924Y68086D01*
X212617Y67799D01*
X213367D01*
X214060Y68086D01*
X214591Y68617D01*
X214878Y69310D01*
Y70060D01*
X214591Y70753D01*
X214060Y71284D01*
X213367Y71571D01*
D02*
G37*
G36*
X201556D02*
X200806D01*
X200113Y71284D01*
X199582Y70753D01*
X199295Y70060D01*
Y69310D01*
X199582Y68617D01*
X200113Y68086D01*
X200806Y67799D01*
X201556D01*
X202249Y68086D01*
X202780Y68617D01*
X203067Y69310D01*
Y70060D01*
X202780Y70753D01*
X202249Y71284D01*
X201556Y71571D01*
D02*
G37*
G36*
X189745D02*
X188995D01*
X188302Y71284D01*
X187771Y70753D01*
X187484Y70060D01*
Y69310D01*
X187771Y68617D01*
X188302Y68086D01*
X188995Y67799D01*
X189745D01*
X190438Y68086D01*
X190969Y68617D01*
X191256Y69310D01*
Y70060D01*
X190969Y70753D01*
X190438Y71284D01*
X189745Y71571D01*
D02*
G37*
G36*
X166123D02*
X165373D01*
X164680Y71284D01*
X164149Y70753D01*
X163862Y70060D01*
Y69310D01*
X164149Y68617D01*
X164680Y68086D01*
X165373Y67799D01*
X166123D01*
X166816Y68086D01*
X167347Y68617D01*
X167634Y69310D01*
Y70060D01*
X167347Y70753D01*
X166816Y71284D01*
X166123Y71571D01*
D02*
G37*
G36*
X24391D02*
X23641D01*
X22948Y71284D01*
X22417Y70753D01*
X22130Y70060D01*
Y69310D01*
X22417Y68617D01*
X22948Y68086D01*
X23641Y67799D01*
X24391D01*
X25084Y68086D01*
X25614Y68617D01*
X25901Y69310D01*
Y70060D01*
X25614Y70753D01*
X25084Y71284D01*
X24391Y71571D01*
D02*
G37*
G36*
X12580D02*
X11830D01*
X11136Y71284D01*
X10606Y70753D01*
X10319Y70060D01*
Y69310D01*
X10606Y68617D01*
X11136Y68086D01*
X11830Y67799D01*
X12580D01*
X13273Y68086D01*
X13803Y68617D01*
X14090Y69310D01*
Y70060D01*
X13803Y70753D01*
X13273Y71284D01*
X12580Y71571D01*
D02*
G37*
G36*
X147705Y72004D02*
X146783D01*
X145893Y71765D01*
X145095Y71305D01*
X144443Y70653D01*
X143983Y69855D01*
X143744Y68965D01*
Y68043D01*
X143983Y67153D01*
X144443Y66355D01*
X145095Y65703D01*
X145893Y65242D01*
X146783Y65004D01*
X147705D01*
X148595Y65242D01*
X149393Y65703D01*
X150045Y66355D01*
X150506Y67153D01*
X150744Y68043D01*
Y68965D01*
X150506Y69855D01*
X150045Y70653D01*
X149393Y71305D01*
X148595Y71765D01*
X147705Y72004D01*
D02*
G37*
G36*
X97225Y67240D02*
X96475D01*
X95782Y66953D01*
X95252Y66423D01*
X94965Y65729D01*
Y64979D01*
X95252Y64286D01*
X95782Y63756D01*
X96475Y63468D01*
X97225D01*
X97919Y63756D01*
X98449Y64286D01*
X98736Y64979D01*
Y65729D01*
X98449Y66423D01*
X97919Y66953D01*
X97225Y67240D01*
D02*
G37*
G36*
X123210Y66059D02*
X122459D01*
X121766Y65772D01*
X121236Y65241D01*
X120949Y64548D01*
Y63798D01*
X121236Y63105D01*
X121766Y62574D01*
X122459Y62287D01*
X123210D01*
X123903Y62574D01*
X124433Y63105D01*
X124721Y63798D01*
Y64548D01*
X124433Y65241D01*
X123903Y65772D01*
X123210Y66059D01*
D02*
G37*
G36*
X101556Y61728D02*
X100806D01*
X100113Y61441D01*
X99582Y60911D01*
X99295Y60218D01*
Y59467D01*
X99582Y58774D01*
X100113Y58244D01*
X100806Y57957D01*
X101556D01*
X102249Y58244D01*
X102780Y58774D01*
X103067Y59467D01*
Y60218D01*
X102780Y60911D01*
X102249Y61441D01*
X101556Y61728D01*
D02*
G37*
G36*
X110205Y64720D02*
X109283D01*
X108393Y64482D01*
X107595Y64021D01*
X106943Y63370D01*
X106483Y62571D01*
X106244Y61681D01*
Y60760D01*
X106483Y59869D01*
X106943Y59071D01*
X107595Y58420D01*
X108393Y57959D01*
X109283Y57721D01*
X110205D01*
X111095Y57959D01*
X111893Y58420D01*
X112545Y59071D01*
X113006Y59869D01*
X113244Y60760D01*
Y61681D01*
X113006Y62571D01*
X112545Y63370D01*
X111893Y64021D01*
X111095Y64482D01*
X110205Y64720D01*
D02*
G37*
G36*
X207462Y59760D02*
X206711D01*
X206018Y59473D01*
X205488Y58942D01*
X205201Y58249D01*
Y57499D01*
X205488Y56806D01*
X206018Y56275D01*
X206711Y55988D01*
X207462D01*
X208155Y56275D01*
X208685Y56806D01*
X208972Y57499D01*
Y58249D01*
X208685Y58942D01*
X208155Y59473D01*
X207462Y59760D01*
D02*
G37*
G36*
X172029D02*
X171278D01*
X170585Y59473D01*
X170055Y58942D01*
X169768Y58249D01*
Y57499D01*
X170055Y56806D01*
X170585Y56275D01*
X171278Y55988D01*
X172029D01*
X172722Y56275D01*
X173252Y56806D01*
X173539Y57499D01*
Y58249D01*
X173252Y58942D01*
X172722Y59473D01*
X172029Y59760D01*
D02*
G37*
G36*
X65729D02*
X64979D01*
X64286Y59473D01*
X63756Y58942D01*
X63468Y58249D01*
Y57499D01*
X63756Y56806D01*
X64286Y56275D01*
X64979Y55988D01*
X65729D01*
X66422Y56275D01*
X66953Y56806D01*
X67240Y57499D01*
Y58249D01*
X66953Y58942D01*
X66422Y59473D01*
X65729Y59760D01*
D02*
G37*
G36*
X30296D02*
X29546D01*
X28853Y59473D01*
X28322Y58942D01*
X28035Y58249D01*
Y57499D01*
X28322Y56806D01*
X28853Y56275D01*
X29546Y55988D01*
X30296D01*
X30989Y56275D01*
X31520Y56806D01*
X31807Y57499D01*
Y58249D01*
X31520Y58942D01*
X30989Y59473D01*
X30296Y59760D01*
D02*
G37*
G36*
X18485D02*
X17735D01*
X17042Y59473D01*
X16511Y58942D01*
X16224Y58249D01*
Y57499D01*
X16511Y56806D01*
X17042Y56275D01*
X17735Y55988D01*
X18485D01*
X19178Y56275D01*
X19709Y56806D01*
X19996Y57499D01*
Y58249D01*
X19709Y58942D01*
X19178Y59473D01*
X18485Y59760D01*
D02*
G37*
G36*
X6674D02*
X5924D01*
X5231Y59473D01*
X4701Y58942D01*
X4413Y58249D01*
Y57499D01*
X4701Y56806D01*
X5231Y56275D01*
X5924Y55988D01*
X6674D01*
X7367Y56275D01*
X7898Y56806D01*
X8185Y57499D01*
Y58249D01*
X7898Y58942D01*
X7367Y59473D01*
X6674Y59760D01*
D02*
G37*
G36*
X62580Y54642D02*
X61830D01*
X61137Y54355D01*
X60606Y53824D01*
X60319Y53131D01*
Y52381D01*
X60606Y51688D01*
X61137Y51157D01*
X61830Y50870D01*
X62580D01*
X63273Y51157D01*
X63803Y51688D01*
X64091Y52381D01*
Y53131D01*
X63803Y53824D01*
X63273Y54355D01*
X62580Y54642D01*
D02*
G37*
G36*
X213367Y47949D02*
X212617D01*
X211924Y47662D01*
X211393Y47131D01*
X211106Y46438D01*
Y45688D01*
X211393Y44995D01*
X211924Y44464D01*
X212617Y44177D01*
X213367D01*
X214060Y44464D01*
X214591Y44995D01*
X214878Y45688D01*
Y46438D01*
X214591Y47131D01*
X214060Y47662D01*
X213367Y47949D01*
D02*
G37*
G36*
X201556D02*
X200806D01*
X200113Y47662D01*
X199582Y47131D01*
X199295Y46438D01*
Y45688D01*
X199582Y44995D01*
X200113Y44464D01*
X200806Y44177D01*
X201556D01*
X202249Y44464D01*
X202780Y44995D01*
X203067Y45688D01*
Y46438D01*
X202780Y47131D01*
X202249Y47662D01*
X201556Y47949D01*
D02*
G37*
G36*
X83446D02*
X82696D01*
X82003Y47662D01*
X81472Y47131D01*
X81185Y46438D01*
Y45688D01*
X81472Y44995D01*
X82003Y44464D01*
X82696Y44177D01*
X83446D01*
X84139Y44464D01*
X84670Y44995D01*
X84957Y45688D01*
Y46438D01*
X84670Y47131D01*
X84139Y47662D01*
X83446Y47949D01*
D02*
G37*
G36*
X36202D02*
X35452D01*
X34758Y47662D01*
X34228Y47131D01*
X33941Y46438D01*
Y45688D01*
X34228Y44995D01*
X34758Y44464D01*
X35452Y44177D01*
X36202D01*
X36895Y44464D01*
X37426Y44995D01*
X37712Y45688D01*
Y46438D01*
X37426Y47131D01*
X36895Y47662D01*
X36202Y47949D01*
D02*
G37*
G36*
X24391D02*
X23641D01*
X22948Y47662D01*
X22417Y47131D01*
X22130Y46438D01*
Y45688D01*
X22417Y44995D01*
X22948Y44464D01*
X23641Y44177D01*
X24391D01*
X25084Y44464D01*
X25614Y44995D01*
X25901Y45688D01*
Y46438D01*
X25614Y47131D01*
X25084Y47662D01*
X24391Y47949D01*
D02*
G37*
G36*
X12580D02*
X11830D01*
X11136Y47662D01*
X10606Y47131D01*
X10319Y46438D01*
Y45688D01*
X10606Y44995D01*
X11136Y44464D01*
X11830Y44177D01*
X12580D01*
X13273Y44464D01*
X13803Y44995D01*
X14090Y45688D01*
Y46438D01*
X13803Y47131D01*
X13273Y47662D01*
X12580Y47949D01*
D02*
G37*
G36*
X173210Y45193D02*
X172459D01*
X171766Y44906D01*
X171236Y44375D01*
X170949Y43682D01*
Y42932D01*
X171236Y42239D01*
X171766Y41708D01*
X172459Y41421D01*
X173210D01*
X173903Y41708D01*
X174433Y42239D01*
X174721Y42932D01*
Y43682D01*
X174433Y44375D01*
X173903Y44906D01*
X173210Y45193D01*
D02*
G37*
G36*
X163367D02*
X162617D01*
X161924Y44906D01*
X161393Y44375D01*
X161106Y43682D01*
Y42932D01*
X161393Y42239D01*
X161924Y41708D01*
X162617Y41421D01*
X163367D01*
X164060Y41708D01*
X164591Y42239D01*
X164878Y42932D01*
Y43682D01*
X164591Y44375D01*
X164060Y44906D01*
X163367Y45193D01*
D02*
G37*
G36*
X140139Y44799D02*
X139389D01*
X138696Y44512D01*
X138165Y43982D01*
X137878Y43288D01*
Y42538D01*
X138165Y41845D01*
X138696Y41315D01*
X139389Y41028D01*
X140139D01*
X140832Y41315D01*
X141363Y41845D01*
X141650Y42538D01*
Y43288D01*
X141363Y43982D01*
X140832Y44512D01*
X140139Y44799D01*
D02*
G37*
G36*
X106281D02*
X105530D01*
X104837Y44512D01*
X104307Y43982D01*
X104020Y43288D01*
Y42538D01*
X104307Y41845D01*
X104837Y41315D01*
X105530Y41028D01*
X106281D01*
X106974Y41315D01*
X107504Y41845D01*
X107791Y42538D01*
Y43288D01*
X107504Y43982D01*
X106974Y44512D01*
X106281Y44799D01*
D02*
G37*
G36*
X151163Y44405D02*
X150412D01*
X149719Y44118D01*
X149189Y43588D01*
X148902Y42895D01*
Y42145D01*
X149189Y41451D01*
X149719Y40921D01*
X150412Y40634D01*
X151163D01*
X151856Y40921D01*
X152386Y41451D01*
X152673Y42145D01*
Y42895D01*
X152386Y43588D01*
X151856Y44118D01*
X151163Y44405D01*
D02*
G37*
G36*
X130296D02*
X129546D01*
X128853Y44118D01*
X128323Y43588D01*
X128035Y42895D01*
Y42145D01*
X128323Y41451D01*
X128853Y40921D01*
X129546Y40634D01*
X130296D01*
X130990Y40921D01*
X131520Y41451D01*
X131807Y42145D01*
Y42895D01*
X131520Y43588D01*
X130990Y44118D01*
X130296Y44405D01*
D02*
G37*
G36*
X207462Y36138D02*
X206711D01*
X206018Y35851D01*
X205488Y35320D01*
X205201Y34627D01*
Y33877D01*
X205488Y33184D01*
X206018Y32653D01*
X206711Y32366D01*
X207462D01*
X208155Y32653D01*
X208685Y33184D01*
X208972Y33877D01*
Y34627D01*
X208685Y35320D01*
X208155Y35851D01*
X207462Y36138D01*
D02*
G37*
G36*
X172029D02*
X171278D01*
X170585Y35851D01*
X170055Y35320D01*
X169768Y34627D01*
Y33877D01*
X170055Y33184D01*
X170585Y32653D01*
X171278Y32366D01*
X172029D01*
X172722Y32653D01*
X173252Y33184D01*
X173539Y33877D01*
Y34627D01*
X173252Y35320D01*
X172722Y35851D01*
X172029Y36138D01*
D02*
G37*
G36*
X160218D02*
X159467D01*
X158774Y35851D01*
X158244Y35320D01*
X157957Y34627D01*
Y33877D01*
X158244Y33184D01*
X158774Y32653D01*
X159467Y32366D01*
X160218D01*
X160911Y32653D01*
X161441Y33184D01*
X161728Y33877D01*
Y34627D01*
X161441Y35320D01*
X160911Y35851D01*
X160218Y36138D01*
D02*
G37*
G36*
X148407D02*
X147656D01*
X146963Y35851D01*
X146433Y35320D01*
X146146Y34627D01*
Y33877D01*
X146433Y33184D01*
X146963Y32653D01*
X147656Y32366D01*
X148407D01*
X149100Y32653D01*
X149630Y33184D01*
X149917Y33877D01*
Y34627D01*
X149630Y35320D01*
X149100Y35851D01*
X148407Y36138D01*
D02*
G37*
G36*
X136595D02*
X135845D01*
X135152Y35851D01*
X134622Y35320D01*
X134335Y34627D01*
Y33877D01*
X134622Y33184D01*
X135152Y32653D01*
X135845Y32366D01*
X136595D01*
X137289Y32653D01*
X137819Y33184D01*
X138106Y33877D01*
Y34627D01*
X137819Y35320D01*
X137289Y35851D01*
X136595Y36138D01*
D02*
G37*
G36*
X124785D02*
X124034D01*
X123341Y35851D01*
X122811Y35320D01*
X122524Y34627D01*
Y33877D01*
X122811Y33184D01*
X123341Y32653D01*
X124034Y32366D01*
X124785D01*
X125478Y32653D01*
X126008Y33184D01*
X126295Y33877D01*
Y34627D01*
X126008Y35320D01*
X125478Y35851D01*
X124785Y36138D01*
D02*
G37*
G36*
X89351D02*
X88601D01*
X87908Y35851D01*
X87378Y35320D01*
X87090Y34627D01*
Y33877D01*
X87378Y33184D01*
X87908Y32653D01*
X88601Y32366D01*
X89351D01*
X90045Y32653D01*
X90575Y33184D01*
X90862Y33877D01*
Y34627D01*
X90575Y35320D01*
X90045Y35851D01*
X89351Y36138D01*
D02*
G37*
G36*
X30296D02*
X29546D01*
X28853Y35851D01*
X28322Y35320D01*
X28035Y34627D01*
Y33877D01*
X28322Y33184D01*
X28853Y32653D01*
X29546Y32366D01*
X30296D01*
X30989Y32653D01*
X31520Y33184D01*
X31807Y33877D01*
Y34627D01*
X31520Y35320D01*
X30989Y35851D01*
X30296Y36138D01*
D02*
G37*
G36*
X18485D02*
X17735D01*
X17042Y35851D01*
X16511Y35320D01*
X16224Y34627D01*
Y33877D01*
X16511Y33184D01*
X17042Y32653D01*
X17735Y32366D01*
X18485D01*
X19178Y32653D01*
X19709Y33184D01*
X19996Y33877D01*
Y34627D01*
X19709Y35320D01*
X19178Y35851D01*
X18485Y36138D01*
D02*
G37*
G36*
X6674D02*
X5924D01*
X5231Y35851D01*
X4701Y35320D01*
X4413Y34627D01*
Y33877D01*
X4701Y33184D01*
X5231Y32653D01*
X5924Y32366D01*
X6674D01*
X7367Y32653D01*
X7898Y33184D01*
X8185Y33877D01*
Y34627D01*
X7898Y35320D01*
X7367Y35851D01*
X6674Y36138D01*
D02*
G37*
G36*
X79346Y34268D02*
X78253D01*
X77197Y33985D01*
X76251Y33439D01*
X75479Y32666D01*
X74932Y31720D01*
X74650Y30664D01*
Y29572D01*
X74932Y28516D01*
X75479Y27570D01*
X76251Y26798D01*
X77197Y26251D01*
X78253Y25969D01*
X79346D01*
X80401Y26251D01*
X81347Y26798D01*
X82120Y27570D01*
X82666Y28516D01*
X82949Y29572D01*
Y30664D01*
X82666Y31720D01*
X82120Y32666D01*
X81347Y33439D01*
X80401Y33985D01*
X79346Y34268D01*
D02*
G37*
G36*
X65729Y36138D02*
X64979D01*
X64286Y35851D01*
X63756Y35320D01*
X63468Y34627D01*
Y33877D01*
X63756Y33184D01*
X64286Y32653D01*
X64311Y32643D01*
X64899Y31769D01*
X64852Y31419D01*
X64650Y30664D01*
Y29572D01*
X64932Y28516D01*
X65479Y27570D01*
X66251Y26798D01*
X67198Y26251D01*
X68253Y25969D01*
X69345D01*
X70401Y26251D01*
X71347Y26798D01*
X72120Y27570D01*
X72666Y28516D01*
X72949Y29572D01*
Y30664D01*
X72666Y31720D01*
X72120Y32666D01*
X71347Y33439D01*
X70401Y33985D01*
X69345Y34268D01*
X68253D01*
X67849Y34160D01*
X67240Y34627D01*
X66953Y35320D01*
X66422Y35851D01*
X65729Y36138D01*
D02*
G37*
G36*
X201718Y27575D02*
X199857D01*
X198018Y27284D01*
X196247Y26708D01*
X194589Y25863D01*
X193083Y24769D01*
X191984Y23671D01*
X191348Y23569D01*
X190739Y23739D01*
X190438Y24040D01*
X189745Y24327D01*
X188995D01*
X188302Y24040D01*
X187771Y23509D01*
X187484Y22816D01*
Y22066D01*
X187771Y21373D01*
X188302Y20842D01*
X188995Y20555D01*
X189589Y19555D01*
X189252Y18518D01*
X188961Y16679D01*
Y14817D01*
X189252Y12979D01*
X189827Y11208D01*
X190672Y9550D01*
X191767Y8043D01*
X193083Y6727D01*
X194589Y5633D01*
X196247Y4788D01*
X198018Y4213D01*
X199857Y3921D01*
X201718D01*
X203557Y4213D01*
X205327Y4788D01*
X206986Y5633D01*
X208492Y6727D01*
X209808Y8043D01*
X210903Y9550D01*
X211748Y11208D01*
X212323Y12979D01*
X212614Y14817D01*
Y16679D01*
X212323Y18518D01*
X211919Y19762D01*
X212526Y20452D01*
X212712Y20555D01*
X213367D01*
X214060Y20842D01*
X214591Y21373D01*
X214878Y22066D01*
Y22816D01*
X214591Y23509D01*
X214060Y24040D01*
X213367Y24327D01*
X212617D01*
X211924Y24040D01*
X211393Y23509D01*
X211252Y23167D01*
X210237Y22950D01*
X210166Y22960D01*
X209808Y23453D01*
X208492Y24769D01*
X206986Y25863D01*
X205327Y26708D01*
X203557Y27284D01*
X201718Y27575D01*
D02*
G37*
G36*
X177934Y24327D02*
X177184D01*
X176491Y24040D01*
X175960Y23509D01*
X175673Y22816D01*
Y22066D01*
X175960Y21373D01*
X176491Y20842D01*
X177184Y20555D01*
X177934D01*
X178627Y20842D01*
X179158Y21373D01*
X179445Y22066D01*
Y22816D01*
X179158Y23509D01*
X178627Y24040D01*
X177934Y24327D01*
D02*
G37*
G36*
X166123D02*
X165373D01*
X164680Y24040D01*
X164149Y23509D01*
X163862Y22816D01*
Y22066D01*
X164149Y21373D01*
X164680Y20842D01*
X165373Y20555D01*
X166123D01*
X166816Y20842D01*
X167347Y21373D01*
X167634Y22066D01*
Y22816D01*
X167347Y23509D01*
X166816Y24040D01*
X166123Y24327D01*
D02*
G37*
G36*
X154312D02*
X153562D01*
X152869Y24040D01*
X152338Y23509D01*
X152051Y22816D01*
Y22066D01*
X152338Y21373D01*
X152869Y20842D01*
X153562Y20555D01*
X154312D01*
X155005Y20842D01*
X155536Y21373D01*
X155823Y22066D01*
Y22816D01*
X155536Y23509D01*
X155005Y24040D01*
X154312Y24327D01*
D02*
G37*
G36*
X142501D02*
X141751D01*
X141058Y24040D01*
X140527Y23509D01*
X140240Y22816D01*
Y22066D01*
X140527Y21373D01*
X141058Y20842D01*
X141751Y20555D01*
X142501D01*
X143194Y20842D01*
X143725Y21373D01*
X144012Y22066D01*
Y22816D01*
X143725Y23509D01*
X143194Y24040D01*
X142501Y24327D01*
D02*
G37*
G36*
X130690D02*
X129940D01*
X129247Y24040D01*
X128716Y23509D01*
X128429Y22816D01*
Y22066D01*
X128716Y21373D01*
X129247Y20842D01*
X129940Y20555D01*
X130690D01*
X131383Y20842D01*
X131914Y21373D01*
X132201Y22066D01*
Y22816D01*
X131914Y23509D01*
X131383Y24040D01*
X130690Y24327D01*
D02*
G37*
G36*
X83446D02*
X82696D01*
X82003Y24040D01*
X81472Y23509D01*
X81185Y22816D01*
Y22066D01*
X81472Y21373D01*
X82003Y20842D01*
X82696Y20555D01*
X83446D01*
X84139Y20842D01*
X84670Y21373D01*
X84957Y22066D01*
Y22816D01*
X84670Y23509D01*
X84139Y24040D01*
X83446Y24327D01*
D02*
G37*
G36*
X71635D02*
X70885D01*
X70192Y24040D01*
X69661Y23509D01*
X69374Y22816D01*
Y22066D01*
X69661Y21373D01*
X70192Y20842D01*
X70885Y20555D01*
X71635D01*
X72328Y20842D01*
X72859Y21373D01*
X73146Y22066D01*
Y22816D01*
X72859Y23509D01*
X72328Y24040D01*
X71635Y24327D01*
D02*
G37*
G36*
X36202D02*
X35452D01*
X34758Y24040D01*
X34228Y23509D01*
X33941Y22816D01*
Y22066D01*
X34228Y21373D01*
X34758Y20842D01*
X35452Y20555D01*
X36202D01*
X36895Y20842D01*
X37426Y21373D01*
X37712Y22066D01*
Y22816D01*
X37426Y23509D01*
X36895Y24040D01*
X36202Y24327D01*
D02*
G37*
G36*
X118761Y29051D02*
X117617D01*
X116511Y28755D01*
X115520Y28183D01*
X114711Y27373D01*
X114139Y26382D01*
X113842Y25277D01*
Y24133D01*
X114139Y23027D01*
X114711Y22036D01*
X115520Y21227D01*
X116511Y20654D01*
X117617Y20358D01*
X118761D01*
X119867Y20654D01*
X120858Y21227D01*
X121667Y22036D01*
X122239Y23027D01*
X122535Y24133D01*
Y25277D01*
X122239Y26382D01*
X121667Y27373D01*
X120858Y28183D01*
X119867Y28755D01*
X118761Y29051D01*
D02*
G37*
G36*
X108761D02*
X107617D01*
X106511Y28755D01*
X105520Y28183D01*
X104711Y27373D01*
X104139Y26382D01*
X103842Y25277D01*
Y24133D01*
X104139Y23027D01*
X104711Y22036D01*
X105520Y21227D01*
X106511Y20654D01*
X107617Y20358D01*
X108761D01*
X109867Y20654D01*
X110858Y21227D01*
X111667Y22036D01*
X112239Y23027D01*
X112535Y24133D01*
Y25277D01*
X112239Y26382D01*
X111667Y27373D01*
X110858Y28183D01*
X109867Y28755D01*
X108761Y29051D01*
D02*
G37*
G36*
X183840Y12516D02*
X183089D01*
X182396Y12229D01*
X181866Y11698D01*
X181579Y11005D01*
Y10255D01*
X181866Y9562D01*
X182396Y9031D01*
X183089Y8744D01*
X183840D01*
X184533Y9031D01*
X185063Y9562D01*
X185350Y10255D01*
Y11005D01*
X185063Y11698D01*
X184533Y12229D01*
X183840Y12516D01*
D02*
G37*
G36*
X172029D02*
X171278D01*
X170585Y12229D01*
X170055Y11698D01*
X169768Y11005D01*
Y10255D01*
X170055Y9562D01*
X170585Y9031D01*
X171278Y8744D01*
X172029D01*
X172722Y9031D01*
X173252Y9562D01*
X173539Y10255D01*
Y11005D01*
X173252Y11698D01*
X172722Y12229D01*
X172029Y12516D01*
D02*
G37*
G36*
X160218D02*
X159467D01*
X158774Y12229D01*
X158244Y11698D01*
X157957Y11005D01*
Y10255D01*
X158244Y9562D01*
X158774Y9031D01*
X159467Y8744D01*
X160218D01*
X160911Y9031D01*
X161441Y9562D01*
X161728Y10255D01*
Y11005D01*
X161441Y11698D01*
X160911Y12229D01*
X160218Y12516D01*
D02*
G37*
G36*
X148407D02*
X147656D01*
X146963Y12229D01*
X146433Y11698D01*
X146146Y11005D01*
Y10255D01*
X146433Y9562D01*
X146963Y9031D01*
X147656Y8744D01*
X148407D01*
X149100Y9031D01*
X149630Y9562D01*
X149917Y10255D01*
Y11005D01*
X149630Y11698D01*
X149100Y12229D01*
X148407Y12516D01*
D02*
G37*
G36*
X136595D02*
X135845D01*
X135152Y12229D01*
X134622Y11698D01*
X134335Y11005D01*
Y10255D01*
X134622Y9562D01*
X135152Y9031D01*
X135845Y8744D01*
X136595D01*
X137289Y9031D01*
X137819Y9562D01*
X138106Y10255D01*
Y11005D01*
X137819Y11698D01*
X137289Y12229D01*
X136595Y12516D01*
D02*
G37*
G36*
X124785D02*
X124034D01*
X123341Y12229D01*
X122811Y11698D01*
X122524Y11005D01*
Y10255D01*
X122811Y9562D01*
X123341Y9031D01*
X124034Y8744D01*
X124785D01*
X125478Y9031D01*
X126008Y9562D01*
X126295Y10255D01*
Y11005D01*
X126008Y11698D01*
X125478Y12229D01*
X124785Y12516D01*
D02*
G37*
G36*
X101163D02*
X100412D01*
X99719Y12229D01*
X99189Y11698D01*
X98901Y11005D01*
Y10255D01*
X99189Y9562D01*
X99719Y9031D01*
X100412Y8744D01*
X101163D01*
X101856Y9031D01*
X102386Y9562D01*
X102673Y10255D01*
Y11005D01*
X102386Y11698D01*
X101856Y12229D01*
X101163Y12516D01*
D02*
G37*
G36*
X89351D02*
X88601D01*
X87908Y12229D01*
X87378Y11698D01*
X87090Y11005D01*
Y10255D01*
X87378Y9562D01*
X87908Y9031D01*
X88601Y8744D01*
X89351D01*
X90045Y9031D01*
X90575Y9562D01*
X90862Y10255D01*
Y11005D01*
X90575Y11698D01*
X90045Y12229D01*
X89351Y12516D01*
D02*
G37*
G36*
X42107D02*
X41357D01*
X40664Y12229D01*
X40134Y11698D01*
X39846Y11005D01*
Y10255D01*
X40134Y9562D01*
X40664Y9031D01*
X41357Y8744D01*
X42107D01*
X42801Y9031D01*
X43331Y9562D01*
X43618Y10255D01*
Y11005D01*
X43331Y11698D01*
X42801Y12229D01*
X42107Y12516D01*
D02*
G37*
G36*
X30296D02*
X29546D01*
X28853Y12229D01*
X28322Y11698D01*
X28035Y11005D01*
Y10255D01*
X28322Y9562D01*
X28853Y9031D01*
X29546Y8744D01*
X30296D01*
X30989Y9031D01*
X31520Y9562D01*
X31807Y10255D01*
Y11005D01*
X31520Y11698D01*
X30989Y12229D01*
X30296Y12516D01*
D02*
G37*
G36*
X16679Y27575D02*
X14817D01*
X12979Y27284D01*
X11208Y26708D01*
X9550Y25863D01*
X8043Y24769D01*
X6727Y23453D01*
X5633Y21947D01*
X4788Y20288D01*
X4213Y18518D01*
X3921Y16679D01*
Y14817D01*
X4213Y12979D01*
X4788Y11208D01*
X5633Y9550D01*
X6727Y8043D01*
X8043Y6727D01*
X9550Y5633D01*
X11208Y4788D01*
X12979Y4213D01*
X14817Y3921D01*
X16679D01*
X18518Y4213D01*
X20288Y4788D01*
X21947Y5633D01*
X23453Y6727D01*
X24769Y8043D01*
X25863Y9550D01*
X26708Y11208D01*
X27284Y12979D01*
X27575Y14817D01*
Y16679D01*
X27284Y18518D01*
X26708Y20288D01*
X25863Y21947D01*
X24769Y23453D01*
X23453Y24769D01*
X21947Y25863D01*
X20288Y26708D01*
X18518Y27284D01*
X16679Y27575D01*
D02*
G37*
G36*
X207462Y177870D02*
X206711D01*
X206018Y177583D01*
X205488Y177052D01*
X205201Y176359D01*
Y175609D01*
X205488Y174916D01*
X206018Y174385D01*
X206711Y174098D01*
X207462D01*
X208155Y174385D01*
X208685Y174916D01*
X208972Y175609D01*
Y176359D01*
X208685Y177052D01*
X208155Y177583D01*
X207462Y177870D01*
D02*
G37*
G36*
X195651D02*
X194900D01*
X194207Y177583D01*
X193677Y177052D01*
X193390Y176359D01*
Y175609D01*
X193677Y174916D01*
X194207Y174385D01*
X194900Y174098D01*
X195651D01*
X196344Y174385D01*
X196874Y174916D01*
X197161Y175609D01*
Y176359D01*
X196874Y177052D01*
X196344Y177583D01*
X195651Y177870D01*
D02*
G37*
G36*
X183840D02*
X183089D01*
X182396Y177583D01*
X181866Y177052D01*
X181579Y176359D01*
Y175609D01*
X181866Y174916D01*
X182396Y174385D01*
X183089Y174098D01*
X183840D01*
X184533Y174385D01*
X185063Y174916D01*
X185350Y175609D01*
Y176359D01*
X185063Y177052D01*
X184533Y177583D01*
X183840Y177870D01*
D02*
G37*
G36*
X201753Y172575D02*
X200609D01*
X199503Y172279D01*
X198512Y171706D01*
X197703Y170897D01*
X197131Y169906D01*
X196835Y168801D01*
Y167656D01*
X197131Y166551D01*
X197703Y165560D01*
X198512Y164750D01*
X199503Y164178D01*
X200609Y163882D01*
X201753D01*
X202859Y164178D01*
X203850Y164750D01*
X204659Y165560D01*
X205231Y166551D01*
X205528Y167656D01*
Y168801D01*
X205231Y169906D01*
X204659Y170897D01*
X203850Y171706D01*
X202859Y172279D01*
X201753Y172575D01*
D02*
G37*
G36*
X213367Y166059D02*
X212617D01*
X211924Y165772D01*
X211393Y165241D01*
X211106Y164548D01*
Y163798D01*
X211393Y163105D01*
X211924Y162574D01*
X212617Y162287D01*
X213367D01*
X214060Y162574D01*
X214591Y163105D01*
X214878Y163798D01*
Y164548D01*
X214591Y165241D01*
X214060Y165772D01*
X213367Y166059D01*
D02*
G37*
G36*
X189745D02*
X188995D01*
X188302Y165772D01*
X187771Y165241D01*
X187484Y164548D01*
Y163798D01*
X187771Y163105D01*
X188302Y162574D01*
X188995Y162287D01*
X189745D01*
X190438Y162574D01*
X190969Y163105D01*
X191256Y163798D01*
Y164548D01*
X190969Y165241D01*
X190438Y165772D01*
X189745Y166059D01*
D02*
G37*
G36*
X71635D02*
X70885D01*
X70192Y165772D01*
X69661Y165241D01*
X69374Y164548D01*
Y163798D01*
X69661Y163105D01*
X70192Y162574D01*
X70885Y162287D01*
X71635D01*
X72328Y162574D01*
X72859Y163105D01*
X73146Y163798D01*
Y164548D01*
X72859Y165241D01*
X72328Y165772D01*
X71635Y166059D01*
D02*
G37*
G36*
X93374Y165311D02*
X92453D01*
X91562Y165073D01*
X90764Y164612D01*
X90113Y163960D01*
X89652Y163162D01*
X89413Y162272D01*
Y161350D01*
X89652Y160460D01*
X90113Y159662D01*
X90764Y159010D01*
X91562Y158549D01*
X92453Y158311D01*
X93374D01*
X94264Y158549D01*
X95062Y159010D01*
X95714Y159662D01*
X96175Y160460D01*
X96413Y161350D01*
Y162272D01*
X96175Y163162D01*
X95714Y163960D01*
X95062Y164612D01*
X94264Y165073D01*
X93374Y165311D01*
D02*
G37*
G36*
X107068Y142437D02*
X106318D01*
X105625Y142150D01*
X105094Y141619D01*
X104807Y140926D01*
Y140176D01*
X105094Y139483D01*
X105625Y138952D01*
X106318Y138665D01*
X107068D01*
X107761Y138952D01*
X108292Y139483D01*
X108579Y140176D01*
Y140926D01*
X108292Y141619D01*
X107761Y142150D01*
X107068Y142437D01*
D02*
G37*
G36*
X95257D02*
X94507D01*
X93814Y142150D01*
X93283Y141619D01*
X92996Y140926D01*
Y140176D01*
X93283Y139483D01*
X93814Y138952D01*
X94507Y138665D01*
X95257D01*
X95950Y138952D01*
X96481Y139483D01*
X96768Y140176D01*
Y140926D01*
X96481Y141619D01*
X95950Y142150D01*
X95257Y142437D01*
D02*
G37*
G36*
X83446D02*
X82696D01*
X82003Y142150D01*
X81472Y141619D01*
X81185Y140926D01*
Y140176D01*
X81472Y139483D01*
X82003Y138952D01*
X82696Y138665D01*
X83446D01*
X84139Y138952D01*
X84670Y139483D01*
X84957Y140176D01*
Y140926D01*
X84670Y141619D01*
X84139Y142150D01*
X83446Y142437D01*
D02*
G37*
G36*
X112973Y130626D02*
X112223D01*
X111530Y130339D01*
X111000Y129808D01*
X110713Y129115D01*
Y128365D01*
X111000Y127672D01*
X111530Y127141D01*
X112223Y126854D01*
X112973D01*
X113667Y127141D01*
X114197Y127672D01*
X114484Y128365D01*
Y129115D01*
X114197Y129808D01*
X113667Y130339D01*
X112973Y130626D01*
D02*
G37*
G36*
X101163D02*
X100412D01*
X99719Y130339D01*
X99189Y129808D01*
X98901Y129115D01*
Y128365D01*
X99189Y127672D01*
X99719Y127141D01*
X100412Y126854D01*
X101163D01*
X101856Y127141D01*
X102386Y127672D01*
X102673Y128365D01*
Y129115D01*
X102386Y129808D01*
X101856Y130339D01*
X101163Y130626D01*
D02*
G37*
G36*
X154312Y118815D02*
X153562D01*
X152869Y118528D01*
X152338Y117997D01*
X152051Y117304D01*
Y116554D01*
X152338Y115861D01*
X152869Y115330D01*
X153562Y115043D01*
X154312D01*
X155005Y115330D01*
X155536Y115861D01*
X155823Y116554D01*
Y117304D01*
X155536Y117997D01*
X155005Y118528D01*
X154312Y118815D01*
D02*
G37*
G36*
X118879D02*
X118129D01*
X117436Y118528D01*
X116905Y117997D01*
X116618Y117304D01*
Y116554D01*
X116905Y115861D01*
X117436Y115330D01*
X118129Y115043D01*
X118879D01*
X119572Y115330D01*
X120103Y115861D01*
X120390Y116554D01*
Y117304D01*
X120103Y117997D01*
X119572Y118528D01*
X118879Y118815D01*
D02*
G37*
G36*
X107068D02*
X106318D01*
X105625Y118528D01*
X105094Y117997D01*
X104807Y117304D01*
Y116554D01*
X105094Y115861D01*
X105179Y115776D01*
X104948Y114679D01*
X104150Y114218D01*
X103498Y113566D01*
X103038Y112768D01*
X102799Y111878D01*
Y110957D01*
X103038Y110066D01*
X103498Y109268D01*
X104150Y108617D01*
X104948Y108156D01*
X105838Y107917D01*
X106760D01*
X107650Y108156D01*
X108448Y108617D01*
X109100Y109268D01*
X109561Y110066D01*
X109799Y110957D01*
Y111878D01*
X109561Y112768D01*
X109100Y113566D01*
X108448Y114218D01*
X108131Y114401D01*
X108039Y114631D01*
X107996Y115555D01*
X108003Y115572D01*
X108292Y115861D01*
X108579Y116554D01*
Y117304D01*
X108292Y117997D01*
X107761Y118528D01*
X107068Y118815D01*
D02*
G37*
G36*
X136595Y107004D02*
X135845D01*
X135152Y106717D01*
X134622Y106186D01*
X134335Y105493D01*
Y104743D01*
X134622Y104050D01*
X135152Y103519D01*
X135845Y103232D01*
X136595D01*
X137289Y103519D01*
X137819Y104050D01*
X138106Y104743D01*
Y105493D01*
X137819Y106186D01*
X137289Y106717D01*
X136595Y107004D01*
D02*
G37*
G36*
X124785D02*
X124034D01*
X123341Y106717D01*
X122811Y106186D01*
X122524Y105493D01*
Y104743D01*
X122811Y104050D01*
X123341Y103519D01*
X124034Y103232D01*
X124785D01*
X125478Y103519D01*
X126008Y104050D01*
X126295Y104743D01*
Y105493D01*
X126008Y106186D01*
X125478Y106717D01*
X124785Y107004D01*
D02*
G37*
G36*
X92501Y103854D02*
X91751D01*
X91058Y103567D01*
X90527Y103037D01*
X90240Y102344D01*
Y101593D01*
X90527Y100900D01*
X91058Y100370D01*
X91751Y100083D01*
X92501D01*
X93194Y100370D01*
X93725Y100900D01*
X94012Y101593D01*
Y102344D01*
X93725Y103037D01*
X93194Y103567D01*
X92501Y103854D01*
D02*
G37*
G36*
X95257Y95193D02*
X94507D01*
X93814Y94906D01*
X93283Y94375D01*
X92996Y93682D01*
Y92932D01*
X93283Y92239D01*
X93814Y91708D01*
X94507Y91421D01*
X95257D01*
X95950Y91708D01*
X96481Y92239D01*
X96768Y92932D01*
Y93682D01*
X96481Y94375D01*
X95950Y94906D01*
X95257Y95193D01*
D02*
G37*
G36*
X107843Y92673D02*
X106921D01*
X106031Y92435D01*
X105233Y91974D01*
X104581Y91322D01*
X104120Y90524D01*
X103882Y89634D01*
Y88713D01*
X104120Y87822D01*
X104581Y87024D01*
X105233Y86373D01*
X106031Y85912D01*
X106921Y85673D01*
X107843D01*
X108733Y85912D01*
X109531Y86373D01*
X110183Y87024D01*
X110643Y87822D01*
X110882Y88713D01*
Y89634D01*
X110643Y90524D01*
X110183Y91322D01*
X109531Y91974D01*
X108733Y92435D01*
X107843Y92673D01*
D02*
G37*
G36*
X124785Y83382D02*
X124034D01*
X123341Y83095D01*
X122811Y82564D01*
X122524Y81871D01*
Y81121D01*
X122811Y80428D01*
X123341Y79897D01*
X124034Y79610D01*
X124785D01*
X125478Y79897D01*
X126008Y80428D01*
X126295Y81121D01*
Y81871D01*
X126008Y82564D01*
X125478Y83095D01*
X124785Y83382D01*
D02*
G37*
G36*
X101347Y85685D02*
X100425D01*
X99535Y85447D01*
X98737Y84986D01*
X98085Y84334D01*
X97624Y83536D01*
X97386Y82646D01*
Y82283D01*
X96692Y81529D01*
X96423Y81453D01*
X95701D01*
X94810Y81214D01*
X94012Y80753D01*
X93361Y80102D01*
X92900Y79304D01*
X92661Y78413D01*
Y77492D01*
X92900Y76602D01*
X93361Y75804D01*
X94012Y75152D01*
X94810Y74691D01*
X95701Y74453D01*
X96622D01*
X97512Y74691D01*
X98311Y75152D01*
X98962Y75804D01*
X99423Y76602D01*
X99661Y77492D01*
Y77854D01*
X100355Y78609D01*
X100624Y78685D01*
X101347D01*
X102237Y78924D01*
X103035Y79384D01*
X103686Y80036D01*
X104147Y80834D01*
X104386Y81724D01*
Y82646D01*
X104147Y83536D01*
X103686Y84334D01*
X103035Y84986D01*
X102237Y85447D01*
X101347Y85685D01*
D02*
G37*
%LPD*%
D62*
X186417Y99902D02*
X191732D01*
X186417Y116634D02*
X191732D01*
X197244Y116535D02*
Y139705D01*
Y104306D02*
Y116535D01*
X191732Y116634D02*
X191831Y116535D01*
X197244D01*
X83566Y13386D02*
X135919Y65739D01*
Y69384D01*
X57480Y13386D02*
X83566D01*
X135919Y69384D02*
X163779Y97244D01*
X48799Y22067D02*
Y31535D01*
Y22067D02*
X57480Y13386D01*
X22835Y169291D02*
X100000D01*
X163779Y97244D02*
Y120472D01*
X100000Y169291D02*
X142913Y126378D01*
X157874D01*
X163779Y120472D01*
X191339Y148031D02*
Y157874D01*
X163779Y120472D02*
X191339Y148031D01*
X192991Y100052D02*
X197244Y104306D01*
D66*
X15748Y15748D02*
D03*
X200787D02*
D03*
Y200787D02*
D03*
X15748D02*
D03*
D67*
X188386Y91260D02*
D03*
Y125276D02*
D03*
D68*
X204724Y91260D02*
D03*
Y125276D02*
D03*
D69*
X186417Y96555D02*
D03*
Y99902D02*
D03*
Y103248D02*
D03*
Y106595D02*
D03*
Y109941D02*
D03*
Y113287D02*
D03*
Y116634D02*
D03*
Y119980D02*
D03*
X191732D02*
D03*
Y116634D02*
D03*
Y113287D02*
D03*
Y109941D02*
D03*
Y106595D02*
D03*
Y103248D02*
D03*
Y99902D02*
D03*
Y96555D02*
D03*
D70*
X201181Y168228D02*
D03*
Y178228D02*
D03*
X131102Y168228D02*
D03*
Y178228D02*
D03*
X47461Y141240D02*
D03*
X57461D02*
D03*
X118189Y24705D02*
D03*
X108189D02*
D03*
X29921Y141850D02*
D03*
Y151850D02*
D03*
D71*
X78799Y30118D02*
D03*
X68799D02*
D03*
X58799D02*
D03*
X48799D02*
D03*
D72*
X96496Y20827D02*
D03*
X62205Y52756D02*
D03*
X92126Y101969D02*
D03*
X129921Y42520D02*
D03*
X139764Y42913D02*
D03*
X150787Y42520D02*
D03*
X162992Y43307D02*
D03*
X172835D02*
D03*
X105905Y42913D02*
D03*
X101181Y59842D02*
D03*
X122835Y64173D02*
D03*
X96850Y65354D02*
D03*
X212992Y187795D02*
D03*
X207086Y175984D02*
D03*
X212992Y164173D02*
D03*
X207086Y152362D02*
D03*
X212992Y140551D02*
D03*
Y116929D02*
D03*
X207086Y105118D02*
D03*
X212992Y93307D02*
D03*
X207086Y81496D02*
D03*
X212992Y69685D02*
D03*
X207086Y57874D02*
D03*
X212992Y46063D02*
D03*
X207086Y34252D02*
D03*
X212992Y22441D02*
D03*
X195275Y175984D02*
D03*
Y152362D02*
D03*
X201181Y116929D02*
D03*
X195275Y81496D02*
D03*
X201181Y69685D02*
D03*
Y46063D02*
D03*
X183465Y199606D02*
D03*
X189370Y187795D02*
D03*
X183465Y175984D02*
D03*
X189370Y164173D02*
D03*
X183465Y81496D02*
D03*
X189370Y69685D02*
D03*
Y22441D02*
D03*
X183465Y10630D02*
D03*
X171653Y199606D02*
D03*
X177559Y187795D02*
D03*
X171653Y152362D02*
D03*
X177559Y116929D02*
D03*
X171653Y81496D02*
D03*
Y57874D02*
D03*
Y34252D02*
D03*
X177559Y22441D02*
D03*
X171653Y10630D02*
D03*
X159842Y199606D02*
D03*
X165748Y187795D02*
D03*
X159842Y175984D02*
D03*
X165748Y164173D02*
D03*
X159842Y152362D02*
D03*
X165748Y140551D02*
D03*
X159842Y128740D02*
D03*
X165748Y93307D02*
D03*
Y69685D02*
D03*
X159842Y34252D02*
D03*
X165748Y22441D02*
D03*
X159842Y10630D02*
D03*
X148031Y199606D02*
D03*
X153937Y187795D02*
D03*
X148031Y175984D02*
D03*
X153937Y164173D02*
D03*
Y140551D02*
D03*
Y116929D02*
D03*
Y93307D02*
D03*
X148031Y34252D02*
D03*
X153937Y22441D02*
D03*
X148031Y10630D02*
D03*
X136220Y199606D02*
D03*
X142126Y187795D02*
D03*
Y164173D02*
D03*
X136220Y152362D02*
D03*
X142126Y140551D02*
D03*
X136220Y105118D02*
D03*
Y34252D02*
D03*
X142126Y22441D02*
D03*
X136220Y10630D02*
D03*
X124409Y199606D02*
D03*
X130315Y187795D02*
D03*
X124409Y175984D02*
D03*
Y105118D02*
D03*
Y81496D02*
D03*
X130315Y69685D02*
D03*
X124409Y34252D02*
D03*
X130315Y22441D02*
D03*
X124409Y10630D02*
D03*
X112598Y199606D02*
D03*
X118504Y187795D02*
D03*
X112598Y128740D02*
D03*
X118504Y116929D02*
D03*
X100787Y199606D02*
D03*
X106693Y187795D02*
D03*
Y140551D02*
D03*
X100787Y128740D02*
D03*
X106693Y116929D02*
D03*
X100787Y10630D02*
D03*
X88976Y199606D02*
D03*
X94882Y187795D02*
D03*
Y140551D02*
D03*
Y93307D02*
D03*
X88976Y34252D02*
D03*
Y10630D02*
D03*
X77165Y199606D02*
D03*
X83071Y187795D02*
D03*
X77165Y175984D02*
D03*
X83071Y140551D02*
D03*
X77165Y128740D02*
D03*
Y105118D02*
D03*
X83071Y46063D02*
D03*
Y22441D02*
D03*
X65354Y199606D02*
D03*
X71260Y187795D02*
D03*
X65354Y175984D02*
D03*
X71260Y164173D02*
D03*
Y116929D02*
D03*
X65354Y105118D02*
D03*
X71260Y93307D02*
D03*
X65354Y57874D02*
D03*
Y34252D02*
D03*
X71260Y22441D02*
D03*
X53543Y199606D02*
D03*
X59449Y187795D02*
D03*
X53543Y175984D02*
D03*
X59449Y116929D02*
D03*
X53543Y34252D02*
D03*
X41732Y199606D02*
D03*
X47638Y187795D02*
D03*
X41732Y175984D02*
D03*
X47638Y164173D02*
D03*
Y116929D02*
D03*
X41732Y10630D02*
D03*
X29921Y199606D02*
D03*
X35827Y187795D02*
D03*
X29921Y175984D02*
D03*
X35827Y164173D02*
D03*
Y116929D02*
D03*
Y93307D02*
D03*
X29921Y81496D02*
D03*
Y57874D02*
D03*
X35827Y46063D02*
D03*
X29921Y34252D02*
D03*
X35827Y22441D02*
D03*
X29921Y10630D02*
D03*
X24016Y187795D02*
D03*
X18110Y175984D02*
D03*
X24016Y164173D02*
D03*
X18110Y128740D02*
D03*
X24016Y116929D02*
D03*
Y93307D02*
D03*
Y69685D02*
D03*
X18110Y57874D02*
D03*
X24016Y46063D02*
D03*
X18110Y34252D02*
D03*
X12205Y187795D02*
D03*
X6299Y175984D02*
D03*
Y152362D02*
D03*
Y128740D02*
D03*
Y81496D02*
D03*
X12205Y69685D02*
D03*
X6299Y57874D02*
D03*
X12205Y46063D02*
D03*
X6299Y34252D02*
D03*
X27463Y146735D02*
D03*
X25286Y144740D02*
D03*
X24471Y141902D02*
D03*
X25241Y139052D02*
D03*
X26934Y136632D02*
D03*
Y133680D02*
D03*
Y130727D02*
D03*
Y127774D02*
D03*
Y124821D02*
D03*
Y121869D02*
D03*
Y118916D02*
D03*
Y115963D02*
D03*
X26005Y113160D02*
D03*
X24152Y110861D02*
D03*
X21199D02*
D03*
X18247D02*
D03*
X15702Y112359D02*
D03*
X12913Y113328D02*
D03*
X9960D02*
D03*
X7007D02*
D03*
X4054D02*
D03*
X1102D02*
D03*
X2054Y103208D02*
D03*
X5007D02*
D03*
X7960D02*
D03*
X10912D02*
D03*
X13865D02*
D03*
X16058Y105185D02*
D03*
X18970Y105674D02*
D03*
X21923D02*
D03*
X24875D02*
D03*
X27812Y105369D02*
D03*
X30765Y105314D02*
D03*
X33694Y104940D02*
D03*
X36646D02*
D03*
X39597Y105040D02*
D03*
X42481Y105674D02*
D03*
X41829Y110861D02*
D03*
X38969Y111596D02*
D03*
X36017Y111519D02*
D03*
X33072Y111727D02*
D03*
X32373Y114596D02*
D03*
X32121Y117538D02*
D03*
Y120491D02*
D03*
Y123443D02*
D03*
Y126396D02*
D03*
Y129349D02*
D03*
Y132301D02*
D03*
Y135254D02*
D03*
X33604Y137807D02*
D03*
X35158Y140318D02*
D03*
X35180Y143271D02*
D03*
X33676Y145812D02*
D03*
D73*
X74567Y53522D02*
D03*
X96161Y77953D02*
D03*
X83858Y124902D02*
D03*
X100886Y82185D02*
D03*
X109744Y61221D02*
D03*
X107382Y89173D02*
D03*
X147244Y89370D02*
D03*
X93701Y150000D02*
D03*
X92913Y161811D02*
D03*
X147244Y68504D02*
D03*
X106299Y111417D02*
D03*
X156327Y71626D02*
D03*
X136221Y69685D02*
D03*
X115748Y75197D02*
D03*
X118504Y111024D02*
D03*
X48903Y47315D02*
D03*
X22835Y169291D02*
D03*
X197244Y139705D02*
D03*
X142913Y126378D02*
D03*
X191339Y157874D02*
D03*
M02*
