G04*
G04 #@! TF.GenerationSoftware,Altium Limited,Altium Designer,24.9.1 (31)*
G04*
G04 Layer_Color=32768*
%FSLAX25Y25*%
%MOIN*%
G70*
G04*
G04 #@! TF.SameCoordinates,AE1E5416-9686-4E21-8CD7-455353439681*
G04*
G04*
G04 #@! TF.FilePolarity,Positive*
G04*
G01*
G75*
%ADD73C,0.00197*%
D73*
X20669Y83990D02*
X18701D01*
X19357Y84646D01*
X18701Y85302D01*
X20669D01*
Y85958D02*
X18701D01*
Y86942D01*
X19029Y87270D01*
X19685D01*
X20013Y86942D01*
Y85958D01*
X20669Y88910D02*
X18701D01*
X19685Y87926D01*
Y89238D01*
X99409Y105644D02*
X97441D01*
X98097Y106300D01*
X97441Y106956D01*
X99409D01*
Y107612D02*
X97441D01*
Y108596D01*
X97769Y108924D01*
X98425D01*
X98753Y108596D01*
Y107612D01*
X99409Y110891D02*
Y109580D01*
X98097Y110891D01*
X97769D01*
X97441Y110564D01*
Y109908D01*
X97769Y109580D01*
X57742Y126968D02*
Y125000D01*
X57086Y125656D01*
X56430Y125000D01*
Y126968D01*
X55774D02*
Y125000D01*
X54790D01*
X54462Y125328D01*
Y125984D01*
X54790Y126312D01*
X55774D01*
X53806Y125328D02*
X53478Y125000D01*
X52822D01*
X52494Y125328D01*
Y125656D01*
X52822Y125984D01*
X53150D01*
X52822D01*
X52494Y126312D01*
Y126640D01*
X52822Y126968D01*
X53478D01*
X53806Y126640D01*
X57414Y67913D02*
Y65945D01*
X56758Y66601D01*
X56102Y65945D01*
Y67913D01*
X55446D02*
Y65945D01*
X54462D01*
X54134Y66273D01*
Y66929D01*
X54462Y67257D01*
X55446D01*
X53478Y67913D02*
X52822D01*
X53150D01*
Y65945D01*
X53478Y66273D01*
M02*
