G04*
G04 #@! TF.GenerationSoftware,Altium Limited,Altium Designer,24.9.1 (31)*
G04*
G04 Layer_Color=8421504*
%FSLAX25Y25*%
%MOIN*%
G70*
G04*
G04 #@! TF.SameCoordinates,AE1E5416-9686-4E21-8CD7-455353439681*
G04*
G04*
G04 #@! TF.FilePolarity,Positive*
G04*
G01*
G75*
%ADD18R,0.03740X0.03937*%
%ADD19R,0.03543X0.02362*%
%ADD20R,0.03543X0.05906*%
%ADD21R,0.03543X0.04724*%
%ADD22R,0.03543X0.03347*%
%ADD23R,0.13780X0.05906*%
%ADD24R,0.03347X0.03543*%
%ADD25R,0.07087X0.02756*%
%ADD26R,0.04724X0.03543*%
%ADD27R,0.05906X0.03543*%
%ADD28R,0.02362X0.03543*%
%ADD29R,0.03937X0.03740*%
%ADD30R,0.02598X0.02441*%
%ADD31R,0.02874X0.02008*%
%ADD32R,0.07874X0.12598*%
%ADD33R,0.07874X0.03543*%
%ADD34R,0.03150X0.03150*%
%ADD35R,0.01772X0.05709*%
D18*
X168504Y99410D02*
D03*
Y105315D02*
D03*
X168504Y111221D02*
D03*
Y117126D02*
D03*
X135827Y129724D02*
D03*
Y135630D02*
D03*
X142126Y154134D02*
D03*
Y160039D02*
D03*
D19*
X19685Y98622D02*
D03*
Y74606D02*
D03*
X98425Y120276D02*
D03*
Y96260D02*
D03*
D20*
X19685Y93110D02*
D03*
Y80118D02*
D03*
X98425Y114764D02*
D03*
Y101772D02*
D03*
D21*
X19685Y86614D02*
D03*
X98425Y108268D02*
D03*
D22*
X106693Y74311D02*
D03*
Y68209D02*
D03*
X60630Y156201D02*
D03*
Y150098D02*
D03*
X66929D02*
D03*
Y156201D02*
D03*
X174409Y91732D02*
D03*
Y85630D02*
D03*
X106693Y100689D02*
D03*
Y94587D02*
D03*
X185039Y151772D02*
D03*
Y157874D02*
D03*
X85827Y150098D02*
D03*
Y156201D02*
D03*
X79528Y150098D02*
D03*
Y156201D02*
D03*
D23*
X7087Y97638D02*
D03*
Y118898D02*
D03*
Y108268D02*
D03*
D24*
X113304Y74410D02*
D03*
X119406D02*
D03*
X156496Y105512D02*
D03*
X162598D02*
D03*
X156496Y111024D02*
D03*
X162598D02*
D03*
X118799Y94488D02*
D03*
X112697D02*
D03*
X203051Y134646D02*
D03*
X196949D02*
D03*
D25*
X48819Y77953D02*
D03*
X86221D02*
D03*
Y82284D02*
D03*
Y86614D02*
D03*
Y90945D02*
D03*
Y95276D02*
D03*
Y99606D02*
D03*
Y103937D02*
D03*
Y108268D02*
D03*
Y112598D02*
D03*
X48819Y82284D02*
D03*
Y86614D02*
D03*
Y90945D02*
D03*
Y95276D02*
D03*
Y99606D02*
D03*
Y103937D02*
D03*
Y108268D02*
D03*
Y112598D02*
D03*
D26*
X55118Y125984D02*
D03*
Y66929D02*
D03*
D27*
X61614Y125984D02*
D03*
X48622D02*
D03*
Y66929D02*
D03*
X61614D02*
D03*
D28*
X67126Y125984D02*
D03*
X43110D02*
D03*
Y66929D02*
D03*
X67126D02*
D03*
D29*
X112795Y88189D02*
D03*
X118701D02*
D03*
X86024Y118110D02*
D03*
X80118D02*
D03*
X176969Y167717D02*
D03*
X171063D02*
D03*
X191142Y145669D02*
D03*
X185236D02*
D03*
X176969Y180315D02*
D03*
X171063D02*
D03*
X176969Y174016D02*
D03*
X171063D02*
D03*
D30*
X37795Y108268D02*
D03*
X34331D02*
D03*
D31*
X29528Y108425D02*
D03*
Y112047D02*
D03*
D32*
X151575Y148819D02*
D03*
D33*
X175197Y157874D02*
D03*
Y148819D02*
D03*
Y139764D02*
D03*
D34*
X85827Y162205D02*
D03*
Y168504D02*
D03*
X79528Y162205D02*
D03*
Y168504D02*
D03*
X66929Y162205D02*
D03*
Y168504D02*
D03*
X60630Y162205D02*
D03*
Y168504D02*
D03*
D35*
X125108Y97539D02*
D03*
X127608D02*
D03*
X130108D02*
D03*
X132608D02*
D03*
X135108D02*
D03*
X137608D02*
D03*
X140108D02*
D03*
X142608D02*
D03*
X125108Y118996D02*
D03*
X127608D02*
D03*
X130108D02*
D03*
X132608D02*
D03*
X135108D02*
D03*
X137608D02*
D03*
X140108D02*
D03*
X142608D02*
D03*
M02*
