G04*
G04 #@! TF.GenerationSoftware,Altium Limited,Altium Designer,24.9.1 (31)*
G04*
G04 Layer_Physical_Order=2*
G04 Layer_Color=36540*
%FSLAX25Y25*%
%MOIN*%
G70*
G04*
G04 #@! TF.SameCoordinates,A3C4BDD5-98FE-4EBF-97C8-16CFD852CAFA*
G04*
G04*
G04 #@! TF.FilePolarity,Positive*
G04*
G01*
G75*
%ADD66C,0.21654*%
%ADD67O,0.12795X0.05315*%
%ADD68O,0.11221X0.05315*%
%ADD69C,0.02756*%
%ADD70C,0.06693*%
%ADD71C,0.06299*%
%ADD72C,0.01772*%
%ADD73C,0.05000*%
G36*
X206693Y216535D02*
X207662Y216535D01*
X209564Y216157D01*
X211355Y215415D01*
X212967Y214338D01*
X214338Y212967D01*
X215415Y211355D01*
X216157Y209564D01*
X216535Y207662D01*
X216535Y206693D01*
X216535Y206693D01*
X216535Y206693D01*
Y9843D01*
Y8873D01*
X216157Y6972D01*
X215415Y5180D01*
X214338Y3568D01*
X212967Y2197D01*
X211355Y1120D01*
X209564Y378D01*
X207662Y0D01*
X8873D01*
X6972Y378D01*
X5180Y1120D01*
X3568Y2197D01*
X2197Y3568D01*
X1120Y5180D01*
X378Y6972D01*
X0Y8873D01*
Y9843D01*
Y206693D01*
Y207662D01*
X378Y209564D01*
X1120Y211355D01*
X2197Y212967D01*
X3568Y214338D01*
X5180Y215415D01*
X6972Y216157D01*
X8873Y216535D01*
X9842Y216535D01*
X9843Y216535D01*
X206693Y216535D01*
D02*
G37*
%LPC*%
G36*
X201753Y182575D02*
X200609D01*
X199503Y182279D01*
X198512Y181706D01*
X197703Y180897D01*
X197131Y179906D01*
X196835Y178801D01*
Y177656D01*
X197131Y176551D01*
X197703Y175560D01*
X198512Y174750D01*
X199503Y174178D01*
X200609Y173882D01*
X201753D01*
X202859Y174178D01*
X203850Y174750D01*
X204659Y175560D01*
X205231Y176551D01*
X205528Y177656D01*
Y178801D01*
X205231Y179906D01*
X204659Y180897D01*
X203850Y181706D01*
X202859Y182279D01*
X201753Y182575D01*
D02*
G37*
G36*
X131675D02*
X130530D01*
X129425Y182279D01*
X128434Y181706D01*
X127624Y180897D01*
X127052Y179906D01*
X126756Y178801D01*
Y177656D01*
X127052Y176551D01*
X127624Y175560D01*
X128434Y174750D01*
X129425Y174178D01*
X130530Y173882D01*
X131675D01*
X132780Y174178D01*
X133771Y174750D01*
X134580Y175560D01*
X135153Y176551D01*
X135449Y177656D01*
Y178801D01*
X135153Y179906D01*
X134580Y180897D01*
X133771Y181706D01*
X132780Y182279D01*
X131675Y182575D01*
D02*
G37*
G36*
X201753Y172575D02*
X201681D01*
Y168728D01*
X205528D01*
Y168801D01*
X205231Y169906D01*
X204659Y170897D01*
X203850Y171706D01*
X202859Y172279D01*
X201753Y172575D01*
D02*
G37*
G36*
X131675D02*
X131602D01*
Y168728D01*
X135449D01*
Y168801D01*
X135153Y169906D01*
X134580Y170897D01*
X133771Y171706D01*
X132780Y172279D01*
X131675Y172575D01*
D02*
G37*
G36*
X130602D02*
X130530D01*
X129425Y172279D01*
X128434Y171706D01*
X127624Y170897D01*
X127052Y169906D01*
X126756Y168801D01*
Y168728D01*
X130602D01*
Y172575D01*
D02*
G37*
G36*
X200681D02*
X200609D01*
X199503Y172279D01*
X198512Y171706D01*
X197703Y170897D01*
X197131Y169906D01*
X196835Y168801D01*
Y168728D01*
X200681D01*
Y172575D01*
D02*
G37*
G36*
X23295Y172791D02*
X22374D01*
X21484Y172553D01*
X20686Y172092D01*
X20034Y171440D01*
X19573Y170642D01*
X19335Y169752D01*
Y168831D01*
X19573Y167940D01*
X20034Y167142D01*
X20686Y166491D01*
X21484Y166030D01*
X22374Y165791D01*
X23295D01*
X24186Y166030D01*
X24984Y166491D01*
X25635Y167142D01*
X26096Y167940D01*
X26335Y168831D01*
Y169752D01*
X26096Y170642D01*
X25635Y171440D01*
X24984Y172092D01*
X24186Y172553D01*
X23295Y172791D01*
D02*
G37*
G36*
X205528Y167728D02*
X201681D01*
Y163882D01*
X201753D01*
X202859Y164178D01*
X203850Y164750D01*
X204659Y165560D01*
X205231Y166551D01*
X205528Y167656D01*
Y167728D01*
D02*
G37*
G36*
X200681D02*
X196835D01*
Y167656D01*
X197131Y166551D01*
X197703Y165560D01*
X198512Y164750D01*
X199503Y164178D01*
X200609Y163882D01*
X200681D01*
Y167728D01*
D02*
G37*
G36*
X135449D02*
X131602D01*
Y163882D01*
X131675D01*
X132780Y164178D01*
X133771Y164750D01*
X134580Y165560D01*
X135153Y166551D01*
X135449Y167656D01*
Y167728D01*
D02*
G37*
G36*
X130602D02*
X126756D01*
Y167656D01*
X127052Y166551D01*
X127624Y165560D01*
X128434Y164750D01*
X129425Y164178D01*
X130530Y163882D01*
X130602D01*
Y167728D01*
D02*
G37*
G36*
X93374Y165311D02*
X92453D01*
X91562Y165073D01*
X90764Y164612D01*
X90113Y163960D01*
X89652Y163162D01*
X89413Y162272D01*
Y161350D01*
X89652Y160460D01*
X90113Y159662D01*
X90764Y159010D01*
X91562Y158549D01*
X92453Y158311D01*
X93374D01*
X94264Y158549D01*
X95062Y159010D01*
X95714Y159662D01*
X96175Y160460D01*
X96413Y161350D01*
Y162272D01*
X96175Y163162D01*
X95714Y163960D01*
X95062Y164612D01*
X94264Y165073D01*
X93374Y165311D01*
D02*
G37*
G36*
X191799Y161374D02*
X190878D01*
X189988Y161135D01*
X189190Y160675D01*
X188538Y160023D01*
X188077Y159225D01*
X187839Y158335D01*
Y157413D01*
X188077Y156523D01*
X188538Y155725D01*
X189190Y155073D01*
X189988Y154613D01*
X190878Y154374D01*
X191799D01*
X192690Y154613D01*
X193488Y155073D01*
X194139Y155725D01*
X194600Y156523D01*
X194839Y157413D01*
Y158335D01*
X194600Y159225D01*
X194139Y160023D01*
X193488Y160675D01*
X192690Y161135D01*
X191799Y161374D01*
D02*
G37*
G36*
X30494Y156197D02*
X29349D01*
X28244Y155901D01*
X27253Y155328D01*
X26443Y154519D01*
X25871Y153528D01*
X25575Y152423D01*
Y151278D01*
X25871Y150173D01*
X26443Y149182D01*
X27253Y148372D01*
X28244Y147800D01*
X29349Y147504D01*
X30494D01*
X31599Y147800D01*
X32590Y148372D01*
X33399Y149182D01*
X33972Y150173D01*
X34268Y151278D01*
Y152423D01*
X33972Y153528D01*
X33399Y154519D01*
X32590Y155328D01*
X31599Y155901D01*
X30494Y156197D01*
D02*
G37*
G36*
X94162Y153500D02*
X93240D01*
X92350Y153261D01*
X91552Y152801D01*
X90900Y152149D01*
X90439Y151351D01*
X90201Y150461D01*
Y149539D01*
X90439Y148649D01*
X90900Y147851D01*
X91552Y147199D01*
X92350Y146739D01*
X93240Y146500D01*
X94162D01*
X95052Y146739D01*
X95850Y147199D01*
X96501Y147851D01*
X96962Y148649D01*
X97201Y149539D01*
Y150461D01*
X96962Y151351D01*
X96501Y152149D01*
X95850Y152801D01*
X95052Y153261D01*
X94162Y153500D01*
D02*
G37*
G36*
X48033Y145587D02*
X47961D01*
Y141740D01*
X51807D01*
Y141812D01*
X51511Y142918D01*
X50939Y143909D01*
X50129Y144718D01*
X49138Y145290D01*
X48033Y145587D01*
D02*
G37*
G36*
X46961D02*
X46888D01*
X45783Y145290D01*
X44792Y144718D01*
X43983Y143909D01*
X43410Y142918D01*
X43114Y141812D01*
Y141740D01*
X46961D01*
Y145587D01*
D02*
G37*
G36*
X30428Y145697D02*
X29415D01*
X28437Y145435D01*
X27560Y144928D01*
X26843Y144212D01*
X26337Y143335D01*
X26075Y142357D01*
Y141344D01*
X26337Y140366D01*
X26843Y139489D01*
X27560Y138772D01*
X28437Y138266D01*
X29415Y138004D01*
X30428D01*
X31406Y138266D01*
X32283Y138772D01*
X32999Y139489D01*
X33506Y140366D01*
X33768Y141344D01*
Y142357D01*
X33506Y143335D01*
X32999Y144212D01*
X32283Y144928D01*
X31406Y145435D01*
X30428Y145697D01*
D02*
G37*
G36*
X58033Y145587D02*
X56888D01*
X55783Y145290D01*
X54792Y144718D01*
X53983Y143909D01*
X53410Y142918D01*
X53114Y141812D01*
Y140668D01*
X53410Y139562D01*
X53983Y138571D01*
X54792Y137762D01*
X55783Y137190D01*
X56888Y136894D01*
X58033D01*
X59138Y137190D01*
X60129Y137762D01*
X60939Y138571D01*
X61511Y139562D01*
X61807Y140668D01*
Y141812D01*
X61511Y142918D01*
X60939Y143909D01*
X60129Y144718D01*
X59138Y145290D01*
X58033Y145587D01*
D02*
G37*
G36*
X51807Y140740D02*
X47961D01*
Y136894D01*
X48033D01*
X49138Y137190D01*
X50129Y137762D01*
X50939Y138571D01*
X51511Y139562D01*
X51807Y140668D01*
Y140740D01*
D02*
G37*
G36*
X46961D02*
X43114D01*
Y140668D01*
X43410Y139562D01*
X43983Y138571D01*
X44792Y137762D01*
X45783Y137190D01*
X46888Y136894D01*
X46961D01*
Y140740D01*
D02*
G37*
G36*
X197705Y143205D02*
X196783D01*
X195893Y142966D01*
X195095Y142505D01*
X194443Y141854D01*
X193983Y141056D01*
X193744Y140165D01*
Y139244D01*
X193983Y138354D01*
X194443Y137556D01*
X195095Y136904D01*
X195893Y136443D01*
X196783Y136205D01*
X197705D01*
X198595Y136443D01*
X199393Y136904D01*
X200045Y137556D01*
X200506Y138354D01*
X200744Y139244D01*
Y140165D01*
X200506Y141056D01*
X200045Y141854D01*
X199393Y142505D01*
X198595Y142966D01*
X197705Y143205D01*
D02*
G37*
G36*
X207677Y128965D02*
X205224D01*
Y125776D01*
X211300D01*
X211241Y126230D01*
X210872Y127120D01*
X210286Y127884D01*
X209522Y128470D01*
X208632Y128839D01*
X207677Y128965D01*
D02*
G37*
G36*
X192126D02*
X188886D01*
Y125776D01*
X195749D01*
X195689Y126230D01*
X195321Y127120D01*
X194735Y127884D01*
X193971Y128470D01*
X193081Y128839D01*
X192126Y128965D01*
D02*
G37*
G36*
X204224D02*
X201772D01*
X200817Y128839D01*
X199927Y128470D01*
X199163Y127884D01*
X198577Y127120D01*
X198208Y126230D01*
X198148Y125776D01*
X204224D01*
Y128965D01*
D02*
G37*
G36*
X187886D02*
X184646D01*
X183691Y128839D01*
X182801Y128470D01*
X182037Y127884D01*
X181451Y127120D01*
X181082Y126230D01*
X181022Y125776D01*
X187886D01*
Y128965D01*
D02*
G37*
G36*
X143374Y129878D02*
X142453D01*
X141562Y129639D01*
X140764Y129179D01*
X140113Y128527D01*
X139652Y127729D01*
X139413Y126839D01*
Y125917D01*
X139652Y125027D01*
X140113Y124229D01*
X140764Y123577D01*
X141562Y123117D01*
X142453Y122878D01*
X143374D01*
X144264Y123117D01*
X145062Y123577D01*
X145714Y124229D01*
X146175Y125027D01*
X146413Y125917D01*
Y126839D01*
X146175Y127729D01*
X145714Y128527D01*
X145062Y129179D01*
X144264Y129639D01*
X143374Y129878D01*
D02*
G37*
G36*
X211300Y124776D02*
X205224D01*
Y121587D01*
X207677D01*
X208632Y121712D01*
X209522Y122081D01*
X210286Y122667D01*
X210872Y123431D01*
X211241Y124321D01*
X211300Y124776D01*
D02*
G37*
G36*
X204224D02*
X198148D01*
X198208Y124321D01*
X198577Y123431D01*
X199163Y122667D01*
X199927Y122081D01*
X200817Y121712D01*
X201772Y121587D01*
X204224D01*
Y124776D01*
D02*
G37*
G36*
X84319Y128402D02*
X83398D01*
X82507Y128163D01*
X81709Y127702D01*
X81058Y127051D01*
X80597Y126252D01*
X80358Y125362D01*
Y124441D01*
X80597Y123551D01*
X81058Y122752D01*
X81709Y122101D01*
X82507Y121640D01*
X83398Y121402D01*
X84319D01*
X85209Y121640D01*
X86007Y122101D01*
X86659Y122752D01*
X87120Y123551D01*
X87358Y124441D01*
Y125362D01*
X87120Y126252D01*
X86659Y127051D01*
X86007Y127702D01*
X85209Y128163D01*
X84319Y128402D01*
D02*
G37*
G36*
X106760Y114917D02*
X105838D01*
X104948Y114679D01*
X104150Y114218D01*
X103498Y113566D01*
X103038Y112768D01*
X102799Y111878D01*
Y110957D01*
X103038Y110066D01*
X103498Y109268D01*
X104150Y108617D01*
X104948Y108156D01*
X105838Y107917D01*
X106760D01*
X107650Y108156D01*
X108448Y108617D01*
X109100Y109268D01*
X109561Y110066D01*
X109799Y110957D01*
Y111878D01*
X109561Y112768D01*
X109100Y113566D01*
X108448Y114218D01*
X107650Y114679D01*
X106760Y114917D01*
D02*
G37*
G36*
X118965Y114524D02*
X118043D01*
X117153Y114285D01*
X116355Y113824D01*
X115703Y113173D01*
X115243Y112375D01*
X115004Y111484D01*
Y110563D01*
X115243Y109673D01*
X115703Y108875D01*
X116355Y108223D01*
X117153Y107762D01*
X118043Y107524D01*
X118965D01*
X119855Y107762D01*
X120653Y108223D01*
X121305Y108875D01*
X121765Y109673D01*
X122004Y110563D01*
Y111484D01*
X121765Y112375D01*
X121305Y113173D01*
X120653Y113824D01*
X119855Y114285D01*
X118965Y114524D01*
D02*
G37*
G36*
X207677Y94949D02*
X205224D01*
Y91760D01*
X211300D01*
X211241Y92215D01*
X210872Y93104D01*
X210286Y93868D01*
X209522Y94455D01*
X208632Y94823D01*
X207677Y94949D01*
D02*
G37*
G36*
X204224D02*
X201772D01*
X200817Y94823D01*
X199927Y94455D01*
X199163Y93868D01*
X198577Y93104D01*
X198208Y92215D01*
X198148Y91760D01*
X204224D01*
Y94949D01*
D02*
G37*
G36*
X195749Y124776D02*
X188386D01*
X181023D01*
X181082Y124321D01*
X181451Y123431D01*
X182037Y122667D01*
X182801Y122081D01*
X183580Y121758D01*
X183697Y121697D01*
X184120Y120647D01*
X184051Y120480D01*
X186417D01*
Y119480D01*
X184051D01*
X184401Y118633D01*
X184728Y118307D01*
X184401Y117981D01*
X184039Y117107D01*
Y116161D01*
X184401Y115287D01*
X184728Y114961D01*
X184401Y114634D01*
X184039Y113760D01*
Y112814D01*
X184401Y111940D01*
X184825Y111005D01*
X184539Y110315D01*
Y109567D01*
X184825Y108877D01*
X185292Y108268D01*
X184825Y107658D01*
X184539Y106968D01*
Y106221D01*
X184825Y105531D01*
X184401Y104595D01*
X184039Y103721D01*
Y102775D01*
X184401Y101901D01*
X184728Y101575D01*
X184401Y101249D01*
X184039Y100375D01*
Y99429D01*
X184401Y98555D01*
X184728Y98228D01*
X184401Y97902D01*
X184051Y97055D01*
X186417D01*
Y96055D01*
X184051D01*
X184120Y95888D01*
X183697Y94839D01*
X183580Y94777D01*
X182801Y94455D01*
X182037Y93868D01*
X181451Y93104D01*
X181082Y92215D01*
X181023Y91760D01*
X188386D01*
X195749D01*
X195689Y92215D01*
X195321Y93104D01*
X194735Y93868D01*
X194219Y94264D01*
X193748Y95208D01*
X194099Y96055D01*
X191732D01*
Y97055D01*
X194099D01*
X193748Y97902D01*
X193422Y98228D01*
X193748Y98555D01*
X194110Y99429D01*
Y100375D01*
X193748Y101249D01*
X193422Y101575D01*
X193748Y101901D01*
X194110Y102775D01*
Y103721D01*
X193748Y104595D01*
X193324Y105531D01*
X193610Y106221D01*
Y106968D01*
X193324Y107658D01*
X192858Y108268D01*
X193324Y108877D01*
X193610Y109567D01*
Y110315D01*
X193324Y111005D01*
X193748Y111940D01*
X194110Y112814D01*
Y113760D01*
X193748Y114634D01*
X193422Y114961D01*
X193748Y115287D01*
X194110Y116161D01*
Y117107D01*
X193748Y117981D01*
X193422Y118307D01*
X193748Y118633D01*
X194099Y119480D01*
X191732D01*
Y120480D01*
X194099D01*
X193748Y121327D01*
X194219Y122271D01*
X194735Y122667D01*
X195321Y123431D01*
X195689Y124321D01*
X195749Y124776D01*
D02*
G37*
G36*
X211300Y90760D02*
X205224D01*
Y87571D01*
X207677D01*
X208632Y87696D01*
X209522Y88065D01*
X210286Y88651D01*
X210872Y89415D01*
X211241Y90305D01*
X211300Y90760D01*
D02*
G37*
G36*
X204224D02*
X198148D01*
X198208Y90305D01*
X198577Y89415D01*
X199163Y88651D01*
X199927Y88065D01*
X200817Y87696D01*
X201772Y87571D01*
X204224D01*
Y90760D01*
D02*
G37*
G36*
X195749D02*
X188886D01*
Y87571D01*
X192126D01*
X193081Y87696D01*
X193971Y88065D01*
X194735Y88651D01*
X195321Y89415D01*
X195689Y90305D01*
X195749Y90760D01*
D02*
G37*
G36*
X187886D02*
X181022D01*
X181082Y90305D01*
X181451Y89415D01*
X182037Y88651D01*
X182801Y88065D01*
X183691Y87696D01*
X184646Y87571D01*
X187886D01*
Y90760D01*
D02*
G37*
G36*
X147705Y92870D02*
X146783D01*
X145893Y92632D01*
X145095Y92171D01*
X144443Y91519D01*
X143983Y90721D01*
X143744Y89831D01*
Y88909D01*
X143983Y88019D01*
X144443Y87221D01*
X145095Y86569D01*
X145893Y86109D01*
X146783Y85870D01*
X147705D01*
X148595Y86109D01*
X149393Y86569D01*
X150045Y87221D01*
X150506Y88019D01*
X150744Y88909D01*
Y89831D01*
X150506Y90721D01*
X150045Y91519D01*
X149393Y92171D01*
X148595Y92632D01*
X147705Y92870D01*
D02*
G37*
G36*
X107843Y92673D02*
X106921D01*
X106031Y92435D01*
X105233Y91974D01*
X104581Y91322D01*
X104120Y90524D01*
X103882Y89634D01*
Y88713D01*
X104120Y87822D01*
X104581Y87024D01*
X105233Y86373D01*
X106031Y85912D01*
X106921Y85673D01*
X107843D01*
X108733Y85912D01*
X109531Y86373D01*
X110183Y87024D01*
X110643Y87822D01*
X110882Y88713D01*
Y89634D01*
X110643Y90524D01*
X110183Y91322D01*
X109531Y91974D01*
X108733Y92435D01*
X107843Y92673D01*
D02*
G37*
G36*
X116209Y78697D02*
X115287D01*
X114397Y78458D01*
X113599Y77998D01*
X112947Y77346D01*
X112487Y76548D01*
X112248Y75658D01*
Y74736D01*
X112487Y73846D01*
X112947Y73048D01*
X113599Y72396D01*
X114397Y71935D01*
X115287Y71697D01*
X116209D01*
X117099Y71935D01*
X117897Y72396D01*
X118549Y73048D01*
X119009Y73846D01*
X119248Y74736D01*
Y75658D01*
X119009Y76548D01*
X118549Y77346D01*
X117897Y77998D01*
X117099Y78458D01*
X116209Y78697D01*
D02*
G37*
G36*
X156788Y75126D02*
X155866D01*
X154976Y74888D01*
X154178Y74427D01*
X153526Y73775D01*
X153065Y72977D01*
X152827Y72087D01*
Y71165D01*
X153065Y70275D01*
X153526Y69477D01*
X154178Y68825D01*
X154976Y68365D01*
X155866Y68126D01*
X156788D01*
X157678Y68365D01*
X158476Y68825D01*
X159127Y69477D01*
X159588Y70275D01*
X159827Y71165D01*
Y72087D01*
X159588Y72977D01*
X159127Y73775D01*
X158476Y74427D01*
X157678Y74888D01*
X156788Y75126D01*
D02*
G37*
G36*
X136681Y73185D02*
X135760D01*
X134870Y72947D01*
X134071Y72486D01*
X133420Y71834D01*
X132959Y71036D01*
X132720Y70146D01*
Y69224D01*
X132959Y68334D01*
X133420Y67536D01*
X134071Y66884D01*
X134870Y66424D01*
X135760Y66185D01*
X136681D01*
X137571Y66424D01*
X138370Y66884D01*
X139021Y67536D01*
X139482Y68334D01*
X139720Y69224D01*
Y70146D01*
X139482Y71036D01*
X139021Y71834D01*
X138370Y72486D01*
X137571Y72947D01*
X136681Y73185D01*
D02*
G37*
G36*
X147705Y72004D02*
X146783D01*
X145893Y71765D01*
X145095Y71305D01*
X144443Y70653D01*
X143983Y69855D01*
X143744Y68965D01*
Y68043D01*
X143983Y67153D01*
X144443Y66355D01*
X145095Y65703D01*
X145893Y65242D01*
X146783Y65004D01*
X147705D01*
X148595Y65242D01*
X149393Y65703D01*
X150045Y66355D01*
X150506Y67153D01*
X150744Y68043D01*
Y68965D01*
X150506Y69855D01*
X150045Y70653D01*
X149393Y71305D01*
X148595Y71765D01*
X147705Y72004D01*
D02*
G37*
G36*
X110205Y64720D02*
X109283D01*
X108393Y64482D01*
X107595Y64021D01*
X106943Y63370D01*
X106483Y62571D01*
X106244Y61681D01*
Y60760D01*
X106483Y59869D01*
X106943Y59071D01*
X107595Y58420D01*
X108393Y57959D01*
X109283Y57721D01*
X110205D01*
X111095Y57959D01*
X111893Y58420D01*
X112545Y59071D01*
X113006Y59869D01*
X113244Y60760D01*
Y61681D01*
X113006Y62571D01*
X112545Y63370D01*
X111893Y64021D01*
X111095Y64482D01*
X110205Y64720D01*
D02*
G37*
G36*
X75027Y57022D02*
X74106D01*
X73216Y56784D01*
X72417Y56323D01*
X71766Y55671D01*
X71305Y54873D01*
X71066Y53983D01*
Y53061D01*
X71305Y52171D01*
X71766Y51373D01*
X72417Y50722D01*
X73216Y50261D01*
X74106Y50022D01*
X75027D01*
X75917Y50261D01*
X76715Y50722D01*
X77367Y51373D01*
X77828Y52171D01*
X78066Y53061D01*
Y53983D01*
X77828Y54873D01*
X77367Y55671D01*
X76715Y56323D01*
X75917Y56784D01*
X75027Y57022D01*
D02*
G37*
G36*
X49364Y50815D02*
X48442D01*
X47552Y50576D01*
X46754Y50116D01*
X46102Y49464D01*
X45641Y48666D01*
X45403Y47776D01*
Y46854D01*
X45641Y45964D01*
X46102Y45166D01*
X46754Y44514D01*
X47552Y44053D01*
X48442Y43815D01*
X49364D01*
X50254Y44053D01*
X51052Y44514D01*
X51704Y45166D01*
X52164Y45964D01*
X52403Y46854D01*
Y47776D01*
X52164Y48666D01*
X51704Y49464D01*
X51052Y50116D01*
X50254Y50576D01*
X49364Y50815D01*
D02*
G37*
G36*
X79346Y34268D02*
X79299D01*
Y30618D01*
X82949D01*
Y30664D01*
X82666Y31720D01*
X82120Y32666D01*
X81347Y33439D01*
X80401Y33985D01*
X79346Y34268D01*
D02*
G37*
G36*
X78299D02*
X78253D01*
X77197Y33985D01*
X76251Y33439D01*
X75479Y32666D01*
X74932Y31720D01*
X74650Y30664D01*
Y30618D01*
X78299D01*
Y34268D01*
D02*
G37*
G36*
X82949Y29618D02*
X79299D01*
Y25969D01*
X79346D01*
X80401Y26251D01*
X81347Y26798D01*
X82120Y27570D01*
X82666Y28516D01*
X82949Y29572D01*
Y29618D01*
D02*
G37*
G36*
X78299D02*
X74650D01*
Y29572D01*
X74932Y28516D01*
X75479Y27570D01*
X76251Y26798D01*
X77197Y26251D01*
X78253Y25969D01*
X78299D01*
Y29618D01*
D02*
G37*
G36*
X69345Y34268D02*
X68253D01*
X67198Y33985D01*
X66251Y33439D01*
X65479Y32666D01*
X64932Y31720D01*
X64650Y30664D01*
Y29572D01*
X64932Y28516D01*
X65479Y27570D01*
X66251Y26798D01*
X67198Y26251D01*
X68253Y25969D01*
X69345D01*
X70401Y26251D01*
X71347Y26798D01*
X72120Y27570D01*
X72666Y28516D01*
X72949Y29572D01*
Y30664D01*
X72666Y31720D01*
X72120Y32666D01*
X71347Y33439D01*
X70401Y33985D01*
X69345Y34268D01*
D02*
G37*
G36*
X59346D02*
X58253D01*
X57197Y33985D01*
X56251Y33439D01*
X55479Y32666D01*
X54932Y31720D01*
X54650Y30664D01*
Y29572D01*
X54932Y28516D01*
X55479Y27570D01*
X56251Y26798D01*
X57197Y26251D01*
X58253Y25969D01*
X59346D01*
X60401Y26251D01*
X61347Y26798D01*
X62120Y27570D01*
X62666Y28516D01*
X62949Y29572D01*
Y30664D01*
X62666Y31720D01*
X62120Y32666D01*
X61347Y33439D01*
X60401Y33985D01*
X59346Y34268D01*
D02*
G37*
G36*
X49345D02*
X48253D01*
X47197Y33985D01*
X46251Y33439D01*
X45479Y32666D01*
X44932Y31720D01*
X44650Y30664D01*
Y29572D01*
X44932Y28516D01*
X45479Y27570D01*
X46251Y26798D01*
X47197Y26251D01*
X48253Y25969D01*
X49345D01*
X50401Y26251D01*
X51347Y26798D01*
X52120Y27570D01*
X52666Y28516D01*
X52949Y29572D01*
Y30664D01*
X52666Y31720D01*
X52120Y32666D01*
X51347Y33439D01*
X50401Y33985D01*
X49345Y34268D01*
D02*
G37*
G36*
X118761Y29051D02*
X118689D01*
Y25205D01*
X122535D01*
Y25277D01*
X122239Y26382D01*
X121667Y27373D01*
X120858Y28183D01*
X119867Y28755D01*
X118761Y29051D01*
D02*
G37*
G36*
X117689D02*
X117617D01*
X116511Y28755D01*
X115520Y28183D01*
X114711Y27373D01*
X114139Y26382D01*
X113842Y25277D01*
Y25205D01*
X117689D01*
Y29051D01*
D02*
G37*
G36*
X122535Y24205D02*
X118689D01*
Y20358D01*
X118761D01*
X119867Y20654D01*
X120858Y21227D01*
X121667Y22036D01*
X122239Y23027D01*
X122535Y24133D01*
Y24205D01*
D02*
G37*
G36*
X117689D02*
X113842D01*
Y24133D01*
X114139Y23027D01*
X114711Y22036D01*
X115520Y21227D01*
X116511Y20654D01*
X117617Y20358D01*
X117689D01*
Y24205D01*
D02*
G37*
G36*
X108761Y29051D02*
X107617D01*
X106511Y28755D01*
X105520Y28183D01*
X104711Y27373D01*
X104139Y26382D01*
X103842Y25277D01*
Y24133D01*
X104139Y23027D01*
X104711Y22036D01*
X105520Y21227D01*
X106511Y20654D01*
X107617Y20358D01*
X108761D01*
X109867Y20654D01*
X110858Y21227D01*
X111667Y22036D01*
X112239Y23027D01*
X112535Y24133D01*
Y25277D01*
X112239Y26382D01*
X111667Y27373D01*
X110858Y28183D01*
X109867Y28755D01*
X108761Y29051D01*
D02*
G37*
%LPD*%
D66*
X15748Y15748D02*
D03*
X200787D02*
D03*
Y200787D02*
D03*
X15748D02*
D03*
D67*
X188386Y91260D02*
D03*
Y125276D02*
D03*
D68*
X204724Y91260D02*
D03*
Y125276D02*
D03*
D69*
X186417Y96555D02*
D03*
Y99902D02*
D03*
Y103248D02*
D03*
Y106595D02*
D03*
Y109941D02*
D03*
Y113287D02*
D03*
Y116634D02*
D03*
Y119980D02*
D03*
X191732D02*
D03*
Y116634D02*
D03*
Y113287D02*
D03*
Y109941D02*
D03*
Y106595D02*
D03*
Y103248D02*
D03*
Y99902D02*
D03*
Y96555D02*
D03*
D70*
X201181Y168228D02*
D03*
Y178228D02*
D03*
X131102Y168228D02*
D03*
Y178228D02*
D03*
X47461Y141240D02*
D03*
X57461D02*
D03*
X118189Y24705D02*
D03*
X108189D02*
D03*
X29921Y141850D02*
D03*
Y151850D02*
D03*
D71*
X78799Y30118D02*
D03*
X68799D02*
D03*
X58799D02*
D03*
X48799D02*
D03*
D72*
X96496Y20827D02*
D03*
X62205Y52756D02*
D03*
X92126Y101969D02*
D03*
X129921Y42520D02*
D03*
X139764Y42913D02*
D03*
X150787Y42520D02*
D03*
X162992Y43307D02*
D03*
X172835D02*
D03*
X105905Y42913D02*
D03*
X101181Y59842D02*
D03*
X122835Y64173D02*
D03*
X96850Y65354D02*
D03*
X212992Y187795D02*
D03*
X207086Y175984D02*
D03*
X212992Y164173D02*
D03*
X207086Y152362D02*
D03*
X212992Y140551D02*
D03*
Y116929D02*
D03*
X207086Y105118D02*
D03*
X212992Y93307D02*
D03*
X207086Y81496D02*
D03*
X212992Y69685D02*
D03*
X207086Y57874D02*
D03*
X212992Y46063D02*
D03*
X207086Y34252D02*
D03*
X212992Y22441D02*
D03*
X195275Y175984D02*
D03*
Y152362D02*
D03*
X201181Y116929D02*
D03*
X195275Y81496D02*
D03*
X201181Y69685D02*
D03*
Y46063D02*
D03*
X183465Y199606D02*
D03*
X189370Y187795D02*
D03*
X183465Y175984D02*
D03*
X189370Y164173D02*
D03*
X183465Y81496D02*
D03*
X189370Y69685D02*
D03*
Y22441D02*
D03*
X183465Y10630D02*
D03*
X171653Y199606D02*
D03*
X177559Y187795D02*
D03*
X171653Y152362D02*
D03*
X177559Y116929D02*
D03*
X171653Y81496D02*
D03*
Y57874D02*
D03*
Y34252D02*
D03*
X177559Y22441D02*
D03*
X171653Y10630D02*
D03*
X159842Y199606D02*
D03*
X165748Y187795D02*
D03*
X159842Y175984D02*
D03*
X165748Y164173D02*
D03*
X159842Y152362D02*
D03*
X165748Y140551D02*
D03*
X159842Y128740D02*
D03*
X165748Y93307D02*
D03*
Y69685D02*
D03*
X159842Y34252D02*
D03*
X165748Y22441D02*
D03*
X159842Y10630D02*
D03*
X148031Y199606D02*
D03*
X153937Y187795D02*
D03*
X148031Y175984D02*
D03*
X153937Y164173D02*
D03*
Y140551D02*
D03*
Y116929D02*
D03*
Y93307D02*
D03*
X148031Y34252D02*
D03*
X153937Y22441D02*
D03*
X148031Y10630D02*
D03*
X136220Y199606D02*
D03*
X142126Y187795D02*
D03*
Y164173D02*
D03*
X136220Y152362D02*
D03*
X142126Y140551D02*
D03*
X136220Y105118D02*
D03*
Y34252D02*
D03*
X142126Y22441D02*
D03*
X136220Y10630D02*
D03*
X124409Y199606D02*
D03*
X130315Y187795D02*
D03*
X124409Y175984D02*
D03*
Y105118D02*
D03*
Y81496D02*
D03*
X130315Y69685D02*
D03*
X124409Y34252D02*
D03*
X130315Y22441D02*
D03*
X124409Y10630D02*
D03*
X112598Y199606D02*
D03*
X118504Y187795D02*
D03*
X112598Y128740D02*
D03*
X118504Y116929D02*
D03*
X100787Y199606D02*
D03*
X106693Y187795D02*
D03*
Y140551D02*
D03*
X100787Y128740D02*
D03*
X106693Y116929D02*
D03*
X100787Y10630D02*
D03*
X88976Y199606D02*
D03*
X94882Y187795D02*
D03*
Y140551D02*
D03*
Y93307D02*
D03*
X88976Y34252D02*
D03*
Y10630D02*
D03*
X77165Y199606D02*
D03*
X83071Y187795D02*
D03*
X77165Y175984D02*
D03*
X83071Y140551D02*
D03*
X77165Y128740D02*
D03*
Y105118D02*
D03*
X83071Y46063D02*
D03*
Y22441D02*
D03*
X65354Y199606D02*
D03*
X71260Y187795D02*
D03*
X65354Y175984D02*
D03*
X71260Y164173D02*
D03*
Y116929D02*
D03*
X65354Y105118D02*
D03*
X71260Y93307D02*
D03*
X65354Y57874D02*
D03*
Y34252D02*
D03*
X71260Y22441D02*
D03*
X53543Y199606D02*
D03*
X59449Y187795D02*
D03*
X53543Y175984D02*
D03*
X59449Y116929D02*
D03*
X53543Y34252D02*
D03*
X41732Y199606D02*
D03*
X47638Y187795D02*
D03*
X41732Y175984D02*
D03*
X47638Y164173D02*
D03*
Y116929D02*
D03*
X41732Y10630D02*
D03*
X29921Y199606D02*
D03*
X35827Y187795D02*
D03*
X29921Y175984D02*
D03*
X35827Y164173D02*
D03*
Y116929D02*
D03*
Y93307D02*
D03*
X29921Y81496D02*
D03*
Y57874D02*
D03*
X35827Y46063D02*
D03*
X29921Y34252D02*
D03*
X35827Y22441D02*
D03*
X29921Y10630D02*
D03*
X24016Y187795D02*
D03*
X18110Y175984D02*
D03*
X24016Y164173D02*
D03*
X18110Y128740D02*
D03*
X24016Y116929D02*
D03*
Y93307D02*
D03*
Y69685D02*
D03*
X18110Y57874D02*
D03*
X24016Y46063D02*
D03*
X18110Y34252D02*
D03*
X12205Y187795D02*
D03*
X6299Y175984D02*
D03*
Y152362D02*
D03*
Y128740D02*
D03*
Y81496D02*
D03*
X12205Y69685D02*
D03*
X6299Y57874D02*
D03*
X12205Y46063D02*
D03*
X6299Y34252D02*
D03*
X27463Y146735D02*
D03*
X25286Y144740D02*
D03*
X24471Y141902D02*
D03*
X25241Y139052D02*
D03*
X26934Y136632D02*
D03*
Y133680D02*
D03*
Y130727D02*
D03*
Y127774D02*
D03*
Y124821D02*
D03*
Y121869D02*
D03*
Y118916D02*
D03*
Y115963D02*
D03*
X26005Y113160D02*
D03*
X24152Y110861D02*
D03*
X21199D02*
D03*
X18247D02*
D03*
X15702Y112359D02*
D03*
X12913Y113328D02*
D03*
X9960D02*
D03*
X7007D02*
D03*
X4054D02*
D03*
X1102D02*
D03*
X2054Y103208D02*
D03*
X5007D02*
D03*
X7960D02*
D03*
X10912D02*
D03*
X13865D02*
D03*
X16058Y105185D02*
D03*
X18970Y105674D02*
D03*
X21923D02*
D03*
X24875D02*
D03*
X27812Y105369D02*
D03*
X30765Y105314D02*
D03*
X33694Y104940D02*
D03*
X36646D02*
D03*
X39597Y105040D02*
D03*
X42481Y105674D02*
D03*
X41829Y110861D02*
D03*
X38969Y111596D02*
D03*
X36017Y111519D02*
D03*
X33072Y111727D02*
D03*
X32373Y114596D02*
D03*
X32121Y117538D02*
D03*
Y120491D02*
D03*
Y123443D02*
D03*
Y126396D02*
D03*
Y129349D02*
D03*
Y132301D02*
D03*
Y135254D02*
D03*
X33604Y137807D02*
D03*
X35158Y140318D02*
D03*
X35180Y143271D02*
D03*
X33676Y145812D02*
D03*
D73*
X74567Y53522D02*
D03*
X96161Y77953D02*
D03*
X83858Y124902D02*
D03*
X100886Y82185D02*
D03*
X109744Y61221D02*
D03*
X107382Y89173D02*
D03*
X147244Y89370D02*
D03*
X93701Y150000D02*
D03*
X92913Y161811D02*
D03*
X147244Y68504D02*
D03*
X106299Y111417D02*
D03*
X156327Y71626D02*
D03*
X136221Y69685D02*
D03*
X115748Y75197D02*
D03*
X118504Y111024D02*
D03*
X48903Y47315D02*
D03*
X22835Y169291D02*
D03*
X197244Y139705D02*
D03*
X142913Y126378D02*
D03*
X191339Y157874D02*
D03*
M02*
