G04*
G04 #@! TF.GenerationSoftware,Altium Limited,Altium Designer,24.9.1 (31)*
G04*
G04 Layer_Color=8388736*
%FSLAX25Y25*%
%MOIN*%
G70*
G04*
G04 #@! TF.SameCoordinates,BE83DA22-E0C5-4DDF-BF2C-7847B46FCBB1*
G04*
G04*
G04 #@! TF.FilePolarity,Positive*
G04*
G01*
G75*
%ADD14C,0.00394*%
%ADD61C,0.00197*%
D14*
X261729Y64173D02*
X263895D01*
X262812Y63090D02*
Y65256D01*
X255906Y61358D02*
Y63524D01*
X254823Y62441D02*
X256988D01*
X226434Y56240D02*
Y58406D01*
X225352Y57323D02*
X227517D01*
X218445Y59055D02*
X220611D01*
X219528Y57972D02*
Y60138D01*
X310728Y59055D02*
X312894D01*
X311811Y57972D02*
Y60138D01*
X162303Y57087D02*
X164469D01*
X163386Y56004D02*
Y58169D01*
X157480Y57972D02*
Y60138D01*
X156398Y59055D02*
X158563D01*
X150492Y61024D02*
X152657D01*
X151575Y59941D02*
Y62106D01*
X150492Y38346D02*
X152657D01*
X151575Y37264D02*
Y39429D01*
X150492Y30709D02*
X152657D01*
X151575Y29626D02*
Y31791D01*
X145669Y57972D02*
Y60138D01*
X144587Y59055D02*
X146752D01*
X138681Y57087D02*
X140847D01*
X139764Y56004D02*
Y58169D01*
D61*
X259072Y62205D02*
Y66142D01*
X266552Y62205D02*
Y66142D01*
X259072D02*
X266552D01*
X259072Y62205D02*
X266552D01*
X253937Y58701D02*
X257874D01*
X253937Y66181D02*
X257874D01*
X253937Y58701D02*
Y66181D01*
X257874Y58701D02*
Y66181D01*
X224466Y53583D02*
X228403D01*
X224466Y61063D02*
X228403D01*
X224466Y53583D02*
Y61063D01*
X228403Y53583D02*
Y61063D01*
X215788Y57087D02*
Y61024D01*
X223268Y57087D02*
Y61024D01*
X215788D02*
X223268D01*
X215788Y57087D02*
X223268D01*
X143504Y17126D02*
X171457D01*
X143504D02*
Y22244D01*
X171457D01*
Y17126D02*
Y22244D01*
X308071Y57087D02*
Y61024D01*
X315551Y57087D02*
Y61024D01*
X308071D02*
X315551D01*
X308071Y57087D02*
X315551D01*
X171457Y95866D02*
Y100984D01*
X143504D02*
X171457D01*
X143504Y95866D02*
Y100984D01*
Y95866D02*
X171457D01*
X289567D02*
Y100984D01*
X261614D02*
X289567D01*
X261614Y95866D02*
Y100984D01*
Y95866D02*
X289567D01*
Y17126D02*
Y22244D01*
X261614D02*
X289567D01*
X261614Y17126D02*
Y22244D01*
Y17126D02*
X289567D01*
X165354Y53347D02*
Y60827D01*
X161417Y53347D02*
Y60827D01*
X165354D01*
X161417Y53347D02*
X165354D01*
X153740Y61024D02*
X161221D01*
X153740Y57087D02*
X161221D01*
X153740D02*
Y61024D01*
X161221Y57087D02*
Y61024D01*
X153543Y57284D02*
Y64764D01*
X149606Y57284D02*
Y64764D01*
X153543D01*
X149606Y57284D02*
X153543D01*
X149606Y34606D02*
Y42087D01*
X153543Y34606D02*
Y42087D01*
X149606Y34606D02*
X153543D01*
X149606Y42087D02*
X153543D01*
X149606Y26969D02*
Y34449D01*
X153543Y26969D02*
Y34449D01*
X149606Y26969D02*
X153543D01*
X149606Y34449D02*
X153543D01*
X141929Y61024D02*
X149409D01*
X141929Y57087D02*
X149409D01*
X141929D02*
Y61024D01*
X149409Y57087D02*
Y61024D01*
X141732Y53347D02*
Y60827D01*
X137795Y53347D02*
Y60827D01*
X141732D01*
X137795Y53347D02*
X141732D01*
M02*
