G04*
G04 #@! TF.GenerationSoftware,Altium Limited,Altium Designer,24.9.1 (31)*
G04*
G04 Layer_Color=32768*
%FSLAX25Y25*%
%MOIN*%
G70*
G04*
G04 #@! TF.SameCoordinates,BE83DA22-E0C5-4DDF-BF2C-7847B46FCBB1*
G04*
G04*
G04 #@! TF.FilePolarity,Positive*
G04*
G01*
G75*
%ADD14C,0.00394*%
%ADD61C,0.00197*%
D14*
X252756Y50591D02*
Y54134D01*
X250984Y52362D02*
X254528D01*
X243515Y61614D02*
X247452D01*
X245484Y59646D02*
Y63583D01*
X240945Y75689D02*
Y79232D01*
X239173Y77461D02*
X242717D01*
X238138Y36957D02*
X241681D01*
X239910Y35185D02*
Y38728D01*
D61*
X246850Y55315D02*
X258661D01*
X246850Y49409D02*
X258661D01*
X246850D02*
Y55315D01*
X258661Y49409D02*
Y55315D01*
X168619Y53543D02*
X179643D01*
Y64567D01*
X168619D02*
X179643D01*
X168619Y53543D02*
Y64567D01*
X316083Y53524D02*
X320925D01*
X316083Y61122D02*
X320925D01*
Y53524D02*
Y61122D01*
X316083Y53524D02*
Y61122D01*
X273622Y53543D02*
Y64567D01*
X284646D01*
Y53543D02*
Y64567D01*
X273622Y53543D02*
X284646D01*
X380984Y44488D02*
Y73622D01*
X326535D02*
X380984D01*
X326535Y44488D02*
Y73622D01*
Y44488D02*
X380984D01*
X229601Y61476D02*
X237199D01*
X229601Y56634D02*
X237199D01*
Y61476D01*
X229601Y56634D02*
Y61476D01*
X238397Y56299D02*
Y66929D01*
X252570Y56299D02*
Y66929D01*
X238397D02*
X252570D01*
X238397Y56299D02*
X252570D01*
X203566Y53543D02*
X214590D01*
Y64567D01*
X203566D02*
X214590D01*
X203566Y53543D02*
Y64567D01*
X238189Y71752D02*
X243701D01*
X238189Y83169D02*
X243701D01*
X238189Y71752D02*
Y83169D01*
X243701Y71752D02*
Y83169D01*
X245618Y34201D02*
Y39713D01*
X234201Y34201D02*
Y39713D01*
Y34201D02*
X245618D01*
X234201Y39713D02*
X245618D01*
M02*
