G04*
G04 #@! TF.GenerationSoftware,Altium Limited,Altium Designer,24.9.1 (31)*
G04*
G04 Layer_Color=8388736*
%FSLAX25Y25*%
%MOIN*%
G70*
G04*
G04 #@! TF.SameCoordinates,BE83DA22-E0C5-4DDF-BF2C-7847B46FCBB1*
G04*
G04*
G04 #@! TF.FilePolarity,Negative*
G04*
G01*
G75*
%ADD32R,0.04737X0.04540*%
%ADD33R,0.03398X0.03241*%
%ADD34R,0.03241X0.03398*%
%ADD35R,0.01575X0.01968*%
%ADD36R,0.01968X0.01968*%
%ADD37R,0.03162X0.04343*%
%ADD38R,0.06706X0.04343*%
%ADD39R,0.05524X0.04343*%
%ADD40R,0.03674X0.02808*%
%ADD41R,0.07099X0.03359*%
%ADD42R,0.10052X0.03359*%
%ADD43R,0.14580X0.06706*%
%ADD44R,0.02808X0.03674*%
%ADD45R,0.04147X0.02375*%
%ADD46R,0.26391X0.26391*%
%ADD47R,0.04343X0.04147*%
%ADD48R,0.03950X0.03950*%
%ADD49R,0.04147X0.04343*%
%ADD50C,0.07887*%
%ADD51C,0.22453*%
%ADD52C,0.01575*%
%ADD53C,0.02572*%
G36*
X281299Y61732D02*
X280394Y60827D01*
X277874D01*
X276969Y61732D01*
Y63583D01*
X281299D01*
Y61732D01*
D02*
G37*
G36*
X176296D02*
X175391Y60827D01*
X172871D01*
X171966Y61732D01*
Y63583D01*
X176296D01*
Y61732D01*
D02*
G37*
G36*
X211244Y61732D02*
X210338Y60827D01*
X207818D01*
X206913Y61732D01*
Y63583D01*
X211244D01*
Y61732D01*
D02*
G37*
G36*
X283661Y58071D02*
X282087D01*
Y60039D01*
X283661D01*
Y58071D01*
D02*
G37*
G36*
X276181D02*
X274606D01*
Y60039D01*
X276181D01*
Y58071D01*
D02*
G37*
G36*
X178658D02*
X177084D01*
Y60039D01*
X178658D01*
Y58071D01*
D02*
G37*
G36*
X171178D02*
X169603D01*
Y60039D01*
X171178D01*
Y58071D01*
D02*
G37*
G36*
X213606Y58071D02*
X212031D01*
Y60039D01*
X213606D01*
Y58071D01*
D02*
G37*
G36*
X206125D02*
X204551D01*
Y60039D01*
X206125D01*
Y58071D01*
D02*
G37*
G36*
X281299Y56378D02*
Y54528D01*
X276969D01*
Y56378D01*
X277874Y57284D01*
X280394D01*
X281299Y56378D01*
D02*
G37*
G36*
X176296D02*
Y54528D01*
X171966D01*
Y56378D01*
X172871Y57284D01*
X175391D01*
X176296Y56378D01*
D02*
G37*
G36*
X211244Y56378D02*
Y54527D01*
X206913D01*
Y56378D01*
X207818Y57284D01*
X210338D01*
X211244Y56378D01*
D02*
G37*
D32*
X249803Y52362D02*
D03*
X255709D02*
D03*
D33*
X261080Y64173D02*
D03*
X264544D02*
D03*
X217796Y59055D02*
D03*
X221260D02*
D03*
X310079D02*
D03*
X313543D02*
D03*
X155748Y59055D02*
D03*
X159213D02*
D03*
X143937D02*
D03*
X147402D02*
D03*
D34*
X255906Y60709D02*
D03*
Y64173D02*
D03*
X226434Y55590D02*
D03*
Y59055D02*
D03*
X163386Y58819D02*
D03*
Y55354D02*
D03*
X151575Y62756D02*
D03*
Y59291D02*
D03*
Y36614D02*
D03*
Y40079D02*
D03*
Y28976D02*
D03*
Y32441D02*
D03*
X139764Y58819D02*
D03*
Y55354D02*
D03*
D35*
X177871Y59055D02*
D03*
X170391D02*
D03*
X275394D02*
D03*
X282874D02*
D03*
X212818Y59055D02*
D03*
X205338D02*
D03*
D36*
X174131Y62402D02*
D03*
Y55709D02*
D03*
X279134D02*
D03*
Y62402D02*
D03*
X209078Y62402D02*
D03*
Y55709D02*
D03*
D37*
X145472Y19685D02*
D03*
X169488D02*
D03*
Y98425D02*
D03*
X145472D02*
D03*
X287598D02*
D03*
X263583D02*
D03*
X287598Y19685D02*
D03*
X263583D02*
D03*
D38*
X150984D02*
D03*
X163976D02*
D03*
Y98425D02*
D03*
X150984D02*
D03*
X282087D02*
D03*
X269094D02*
D03*
X282087Y19685D02*
D03*
X269094D02*
D03*
D39*
X157480D02*
D03*
Y98425D02*
D03*
X275590D02*
D03*
Y19685D02*
D03*
D40*
X318504Y55512D02*
D03*
Y59134D02*
D03*
D41*
X302461Y63779D02*
D03*
Y59055D02*
D03*
Y54331D02*
D03*
X290453D02*
D03*
Y59055D02*
D03*
X184843D02*
D03*
Y54331D02*
D03*
X196850D02*
D03*
Y59055D02*
D03*
Y63779D02*
D03*
D42*
X291929D02*
D03*
X186319D02*
D03*
D43*
X335630Y69685D02*
D03*
Y48425D02*
D03*
Y59055D02*
D03*
D44*
X235211D02*
D03*
X231589D02*
D03*
D45*
X241055Y64173D02*
D03*
Y61614D02*
D03*
Y59055D02*
D03*
X249913Y64173D02*
D03*
Y61614D02*
D03*
Y59055D02*
D03*
D46*
X114173Y94488D02*
D03*
Y23622D02*
D03*
X43307Y94488D02*
D03*
Y23622D02*
D03*
D47*
X240945Y74410D02*
D03*
Y80512D02*
D03*
D48*
X223760Y36957D02*
D03*
X230059D02*
D03*
D49*
X242961D02*
D03*
X236858D02*
D03*
D50*
X85827Y59055D02*
D03*
D51*
X322835Y19685D02*
D03*
Y98425D02*
D03*
X15748Y59055D02*
D03*
D52*
X341600Y54400D02*
D03*
X154500Y29000D02*
D03*
X148500Y28000D02*
D03*
X112000Y54000D02*
D03*
X104500D02*
D03*
X108500Y51000D02*
D03*
X100500Y53500D02*
D03*
X93000Y54000D02*
D03*
X96500Y51500D02*
D03*
X177500Y53500D02*
D03*
X171000D02*
D03*
X174000Y52500D02*
D03*
X177500Y65000D02*
D03*
X171000D02*
D03*
X174000Y65500D02*
D03*
X282500Y65000D02*
D03*
X276000D02*
D03*
X279000Y65500D02*
D03*
X282500Y53500D02*
D03*
X276000D02*
D03*
X279000Y52500D02*
D03*
X212500Y65000D02*
D03*
X206000D02*
D03*
X209000Y65500D02*
D03*
X206000Y53000D02*
D03*
X213000Y53500D02*
D03*
X209000Y52500D02*
D03*
X151500Y56300D02*
D03*
X153936Y56251D02*
D03*
X156508Y56149D02*
D03*
X159083D02*
D03*
X160492Y53993D02*
D03*
X161061Y51482D02*
D03*
X160981Y48909D02*
D03*
X160157Y46469D02*
D03*
X158592Y44425D02*
D03*
X156441Y43011D02*
D03*
X153894Y42633D02*
D03*
X151355Y43064D02*
D03*
X148853Y42458D02*
D03*
X146383Y43185D02*
D03*
X144278Y44668D02*
D03*
X142821Y46790D02*
D03*
X142133Y49272D02*
D03*
X142089Y51846D02*
D03*
X142670Y54354D02*
D03*
X144517Y56149D02*
D03*
X147092D02*
D03*
X149200Y56100D02*
D03*
X192475Y61476D02*
D03*
X192015Y58943D02*
D03*
X202903Y56730D02*
D03*
X205455Y56385D02*
D03*
X205720Y61725D02*
D03*
X203169Y61380D02*
D03*
X178359Y61725D02*
D03*
X179341Y56538D02*
D03*
X189444Y56973D02*
D03*
X189678Y59537D02*
D03*
X285346Y61380D02*
D03*
X282795Y61725D02*
D03*
X282441Y56385D02*
D03*
X284993Y56730D02*
D03*
X295055Y56973D02*
D03*
X295288Y59537D02*
D03*
X340310Y63694D02*
D03*
X337736D02*
D03*
X335161D02*
D03*
X332586D02*
D03*
X330011D02*
D03*
X327499Y63127D02*
D03*
X325608Y61380D02*
D03*
X323033D02*
D03*
X320480Y61716D02*
D03*
X317908Y61824D02*
D03*
X315333Y61864D02*
D03*
X312760Y61962D02*
D03*
X310186D02*
D03*
X307651Y61510D02*
D03*
X297716Y60790D02*
D03*
X297625Y58217D02*
D03*
X306804Y56586D02*
D03*
X309341Y56149D02*
D03*
X311915Y56214D02*
D03*
X314489Y56149D02*
D03*
X322180Y56730D02*
D03*
X324755D02*
D03*
X327128Y55731D02*
D03*
X329342Y54416D02*
D03*
X331917D02*
D03*
X334492D02*
D03*
X337066D02*
D03*
X339300Y54400D02*
D03*
X233890Y62115D02*
D03*
X231316Y62178D02*
D03*
X228814Y61568D02*
D03*
X226283Y62040D02*
D03*
X223784Y61419D02*
D03*
X221268Y61962D02*
D03*
X218693D02*
D03*
X216119Y61886D02*
D03*
X213549Y61725D02*
D03*
X213985Y56460D02*
D03*
X216541Y56149D02*
D03*
X219116Y56153D02*
D03*
X221691Y56149D02*
D03*
X229343Y56501D02*
D03*
X231854Y55932D02*
D03*
X234429D02*
D03*
X236995Y56150D02*
D03*
X239533Y56582D02*
D03*
X242108D02*
D03*
X244335Y57873D02*
D03*
X244293Y60448D02*
D03*
X236860Y62050D02*
D03*
X84229Y64053D02*
D03*
X82048Y62684D02*
D03*
X80781Y60443D02*
D03*
X80717Y57869D02*
D03*
X81900Y55582D02*
D03*
X84032Y54138D02*
D03*
X86594Y53882D02*
D03*
X88969Y54875D02*
D03*
X90755Y56730D02*
D03*
X93330D02*
D03*
X100884Y56149D02*
D03*
X103458D02*
D03*
X110994Y56730D02*
D03*
X113568D02*
D03*
X116143D02*
D03*
X118718D02*
D03*
X121293D02*
D03*
X123868D02*
D03*
X126443D02*
D03*
X129017D02*
D03*
X131592D02*
D03*
X134162Y56577D02*
D03*
X136732Y56730D02*
D03*
X136857Y54158D02*
D03*
X137439Y51650D02*
D03*
X137528Y49077D02*
D03*
X137987Y46543D02*
D03*
X138986Y44170D02*
D03*
X140466Y42063D02*
D03*
X142328Y40285D02*
D03*
X148668Y36188D02*
D03*
Y33613D02*
D03*
X148689Y31039D02*
D03*
X154481Y31839D02*
D03*
X154337Y34409D02*
D03*
X154481Y36980D02*
D03*
X159117Y39192D02*
D03*
X161243Y40645D02*
D03*
X163044Y42484D02*
D03*
X164428Y44656D02*
D03*
X165292Y47081D02*
D03*
X165665Y49629D02*
D03*
X165711Y52203D02*
D03*
X166292Y54712D02*
D03*
X167891Y56730D02*
D03*
X170443Y56385D02*
D03*
X170863Y61725D02*
D03*
X168312Y61380D02*
D03*
X165737D02*
D03*
X163197Y61804D02*
D03*
X160626Y61939D02*
D03*
X158051Y61962D02*
D03*
X155477D02*
D03*
X147788D02*
D03*
X145213D02*
D03*
X142638D02*
D03*
X140068Y61804D02*
D03*
X137522Y61424D02*
D03*
X134947Y61380D02*
D03*
X132372D02*
D03*
X129798D02*
D03*
X127223D02*
D03*
X124648D02*
D03*
X122073D02*
D03*
X119498D02*
D03*
X116924D02*
D03*
X114349D02*
D03*
X111774D02*
D03*
X109234Y61804D02*
D03*
X106661Y61727D02*
D03*
X104096Y61962D02*
D03*
X101522D02*
D03*
X98948Y61885D02*
D03*
X96374Y61804D02*
D03*
X93835Y61380D02*
D03*
X91260D02*
D03*
X89265Y63008D02*
D03*
X86972Y64179D02*
D03*
X256093Y67158D02*
D03*
X253558Y66708D02*
D03*
X250984Y66647D02*
D03*
X248409D02*
D03*
X246554Y64861D02*
D03*
X246964Y62319D02*
D03*
X259694Y61284D02*
D03*
X262269Y61267D02*
D03*
X264844D02*
D03*
X267411Y61465D02*
D03*
X268235Y59026D02*
D03*
X270155Y57311D02*
D03*
X272664Y56730D02*
D03*
X275215Y56385D02*
D03*
X275900Y61800D02*
D03*
X273570Y61380D02*
D03*
X271760Y63212D02*
D03*
X270328Y65352D02*
D03*
X267978Y66404D02*
D03*
X265493Y67080D02*
D03*
X262919Y67015D02*
D03*
X260346Y67080D02*
D03*
X258300Y67100D02*
D03*
D53*
X133465Y59055D02*
D03*
M02*
