G04*
G04 #@! TF.GenerationSoftware,Altium Limited,Altium Designer,24.9.1 (31)*
G04*
G04 Layer_Color=32896*
%FSLAX25Y25*%
%MOIN*%
G70*
G04*
G04 #@! TF.SameCoordinates,D730F02F-FD74-4FC1-B03C-3973BC9D0968*
G04*
G04*
G04 #@! TF.FilePolarity,Positive*
G04*
G01*
G75*
%ADD14C,0.00602*%
G36*
X274644Y27688D02*
X274765D01*
Y26479D01*
X274644D01*
Y26358D01*
X273555D01*
Y21641D01*
X273676D01*
Y21520D01*
X274644D01*
Y21399D01*
X274765D01*
Y20311D01*
X274644D01*
Y20190D01*
X270653D01*
Y20311D01*
X270532D01*
Y20432D01*
X270653D01*
Y20552D01*
Y20915D01*
X270532D01*
Y21036D01*
X270653D01*
Y21520D01*
X271620D01*
Y21641D01*
X271741D01*
Y26358D01*
X270653D01*
Y26479D01*
X270532D01*
Y26600D01*
X270653D01*
Y26842D01*
X270532D01*
Y26963D01*
X270653D01*
Y27809D01*
X274644D01*
Y27688D01*
D02*
G37*
G36*
X269080Y20190D02*
X263880D01*
Y21520D01*
X267145D01*
Y21641D01*
X267266D01*
Y23576D01*
X267145D01*
Y23697D01*
X264122D01*
Y24907D01*
X264243D01*
Y25027D01*
X267266D01*
Y26358D01*
X263880D01*
Y27809D01*
X269080D01*
Y20190D01*
D02*
G37*
G36*
X262307Y26963D02*
Y26842D01*
Y20190D01*
X257228D01*
Y20311D01*
X257107D01*
Y20674D01*
X257228D01*
Y21036D01*
X257107D01*
Y21399D01*
X257228D01*
Y21520D01*
X260372D01*
Y21641D01*
X260493D01*
Y23576D01*
X260372D01*
Y23697D01*
X257348D01*
Y24907D01*
X257470D01*
Y25027D01*
X260493D01*
Y26237D01*
X260372D01*
Y26358D01*
X257228D01*
Y26842D01*
X257107D01*
Y27446D01*
X257228D01*
Y27567D01*
X257107D01*
Y27688D01*
X257228D01*
Y27809D01*
X262307D01*
Y26963D01*
D02*
G37*
G36*
X255534Y20190D02*
X250455D01*
Y20311D01*
X250334D01*
Y21399D01*
X250455D01*
Y21520D01*
X253599D01*
Y21641D01*
X253720D01*
Y23576D01*
X253599D01*
Y23697D01*
X250938D01*
Y23576D01*
X250817D01*
Y23697D01*
X250575D01*
Y24907D01*
X250696D01*
Y25027D01*
X253720D01*
Y26358D01*
X250455D01*
Y26479D01*
X250334D01*
Y27688D01*
X250455D01*
Y27809D01*
X255534D01*
Y20190D01*
D02*
G37*
G36*
X240295Y18859D02*
X240416D01*
Y17892D01*
X240295D01*
Y17771D01*
X240174D01*
Y17650D01*
X239932D01*
Y17771D01*
X239811D01*
Y17650D01*
X238481D01*
Y12570D01*
X236909D01*
Y15957D01*
Y16078D01*
Y17650D01*
X236667D01*
Y17771D01*
X236183D01*
Y17650D01*
X235215D01*
Y17771D01*
X234974D01*
Y18859D01*
X235094D01*
Y18980D01*
X240295D01*
Y18859D01*
D02*
G37*
G36*
X274523Y12570D02*
X273072D01*
Y16561D01*
X272951D01*
Y16440D01*
X272830D01*
Y16198D01*
X272709D01*
Y15957D01*
X272588D01*
Y15715D01*
X272467D01*
Y15231D01*
X272346D01*
Y14989D01*
X272225D01*
Y14747D01*
X272104D01*
Y14505D01*
X271983D01*
Y14142D01*
X270774D01*
Y14505D01*
X270653D01*
Y14747D01*
X270532D01*
Y15110D01*
X270411D01*
Y15352D01*
X270290D01*
Y15594D01*
X270169D01*
Y15957D01*
X270048D01*
Y16319D01*
X269927D01*
Y16440D01*
X269806D01*
Y16682D01*
X269685D01*
Y15110D01*
Y14989D01*
Y12570D01*
X268113D01*
Y18980D01*
X269927D01*
Y18859D01*
X270048D01*
Y18617D01*
X270169D01*
Y18255D01*
X270290D01*
Y18013D01*
X270411D01*
Y17771D01*
X270532D01*
Y17529D01*
X270653D01*
Y17166D01*
X270774D01*
Y16924D01*
X270895D01*
Y16561D01*
X271015D01*
Y16319D01*
X271136D01*
Y15957D01*
X271257D01*
Y15836D01*
X271378D01*
Y15957D01*
X271499D01*
Y16319D01*
X271620D01*
Y16561D01*
X271741D01*
Y16803D01*
X271862D01*
Y17045D01*
X271983D01*
Y17408D01*
X272104D01*
Y17650D01*
X272225D01*
Y17892D01*
X272346D01*
Y18134D01*
X272467D01*
Y18496D01*
X272588D01*
Y18859D01*
X272830D01*
Y18980D01*
X274523D01*
Y12570D01*
D02*
G37*
G36*
X260251Y18859D02*
X260372D01*
Y12691D01*
X260251D01*
Y12570D01*
X258921D01*
Y12691D01*
X258800D01*
Y14384D01*
X258921D01*
Y14505D01*
X258800D01*
Y15957D01*
X258921D01*
Y16078D01*
X258800D01*
Y16440D01*
X258679D01*
Y16319D01*
X258558D01*
Y16078D01*
X258437D01*
Y15957D01*
Y15836D01*
X258316D01*
Y15473D01*
X258195D01*
Y15110D01*
X258074D01*
Y14868D01*
X257953D01*
Y14626D01*
X257832D01*
Y14263D01*
X257711D01*
Y14142D01*
X256623D01*
Y14263D01*
X256502D01*
Y14626D01*
X256381D01*
Y14989D01*
X256260D01*
Y15231D01*
X256139D01*
Y15594D01*
X256018D01*
Y15715D01*
X255897D01*
Y16198D01*
X255776D01*
Y16440D01*
X255655D01*
Y16561D01*
X255534D01*
Y16682D01*
X255413D01*
Y12570D01*
X253962D01*
Y12691D01*
X253841D01*
Y18859D01*
X253962D01*
Y18980D01*
X255655D01*
Y18859D01*
X255776D01*
Y18738D01*
X255897D01*
Y18375D01*
X256018D01*
Y18134D01*
X256139D01*
Y17892D01*
X256260D01*
Y17650D01*
X256381D01*
Y17287D01*
X256502D01*
Y17045D01*
X256623D01*
Y16682D01*
X256744D01*
Y16561D01*
X256865D01*
Y16319D01*
X256986D01*
Y15836D01*
X257107D01*
Y15957D01*
X257228D01*
Y16198D01*
X257348D01*
Y16440D01*
X257470D01*
Y16682D01*
X257590D01*
Y16924D01*
X257711D01*
Y17166D01*
X257832D01*
Y17529D01*
X257953D01*
Y17771D01*
X258074D01*
Y18013D01*
X258195D01*
Y18255D01*
X258316D01*
Y18617D01*
X258437D01*
Y18859D01*
X258558D01*
Y18980D01*
X260251D01*
Y18859D01*
D02*
G37*
G36*
X264605Y18980D02*
X264968D01*
Y18859D01*
X265210D01*
Y18738D01*
X265452D01*
Y18617D01*
X265815D01*
Y18496D01*
X265936D01*
Y18255D01*
X266057D01*
Y18134D01*
X266178D01*
Y18013D01*
X266299D01*
Y17892D01*
X266420D01*
Y17650D01*
X266540D01*
Y17408D01*
X266661D01*
Y17166D01*
X266782D01*
Y16924D01*
X266903D01*
Y14505D01*
X266782D01*
Y14263D01*
X266661D01*
Y14021D01*
X266540D01*
Y13780D01*
X266420D01*
Y13538D01*
X266299D01*
Y13417D01*
X266178D01*
Y13296D01*
X266057D01*
Y13175D01*
X265936D01*
Y13054D01*
X265694D01*
Y12933D01*
X265573D01*
Y12812D01*
X265452D01*
Y12691D01*
X265210D01*
Y12570D01*
X264605D01*
Y12449D01*
X264243D01*
Y12328D01*
X263275D01*
Y12449D01*
X262912D01*
Y12570D01*
X262307D01*
Y12691D01*
X262065D01*
Y12812D01*
X261824D01*
Y12933D01*
X261703D01*
Y14263D01*
X261582D01*
Y14384D01*
X261945D01*
Y14263D01*
X262065D01*
Y14142D01*
X262307D01*
Y14021D01*
X262428D01*
Y13901D01*
X262549D01*
Y13780D01*
X262791D01*
Y13659D01*
X264243D01*
Y13780D01*
X264484D01*
Y13901D01*
X264726D01*
Y14021D01*
X264847D01*
Y14263D01*
X264968D01*
Y14505D01*
X265089D01*
Y14747D01*
X265210D01*
Y14868D01*
X265331D01*
Y16440D01*
X265210D01*
Y16682D01*
X265089D01*
Y17045D01*
X264968D01*
Y17166D01*
X264847D01*
Y17408D01*
X264726D01*
Y17529D01*
X264605D01*
Y17650D01*
X264363D01*
Y17771D01*
X264122D01*
Y17892D01*
X263033D01*
Y17771D01*
X262791D01*
Y17650D01*
X262549D01*
Y17529D01*
X262307D01*
Y17408D01*
X262186D01*
Y17287D01*
X262065D01*
Y17166D01*
X261824D01*
Y17045D01*
X261703D01*
Y18617D01*
X261824D01*
Y18738D01*
X262307D01*
Y18859D01*
X262428D01*
Y18980D01*
X263033D01*
Y19101D01*
X264605D01*
Y18980D01*
D02*
G37*
G36*
X250696Y18859D02*
X250817D01*
Y18738D01*
X250938D01*
Y18375D01*
X251059D01*
Y18013D01*
X251180D01*
Y17650D01*
X251301D01*
Y17287D01*
X251422D01*
Y16924D01*
X251543D01*
Y16803D01*
X251664D01*
Y16319D01*
X251785D01*
Y15836D01*
X251906D01*
Y15594D01*
X252027D01*
Y15352D01*
X252148D01*
Y14989D01*
X252269D01*
Y14505D01*
X252390D01*
Y14263D01*
X252511D01*
Y14021D01*
X252632D01*
Y13659D01*
X252753D01*
Y13175D01*
X252873D01*
Y12933D01*
X252994D01*
Y12570D01*
X251422D01*
Y12933D01*
X251301D01*
Y13175D01*
X251180D01*
Y13659D01*
X251059D01*
Y13780D01*
X248761D01*
Y13538D01*
X248640D01*
Y13296D01*
X248519D01*
Y12812D01*
X248398D01*
Y12570D01*
X246705D01*
Y12691D01*
X246826D01*
Y13054D01*
X246947D01*
Y13296D01*
X247068D01*
Y13538D01*
X247189D01*
Y14142D01*
X247310D01*
Y14384D01*
X247431D01*
Y14747D01*
X247552D01*
Y14989D01*
X247673D01*
Y15352D01*
X247794D01*
Y15715D01*
Y15836D01*
X247915D01*
Y16078D01*
X248036D01*
Y16319D01*
X248157D01*
Y16682D01*
X248278D01*
Y17166D01*
X248398D01*
Y17408D01*
X248519D01*
Y17771D01*
X248640D01*
Y18013D01*
X248761D01*
Y18496D01*
X248882D01*
Y18859D01*
X249124D01*
Y18980D01*
X250696D01*
Y18859D01*
D02*
G37*
G36*
X233764D02*
X233885D01*
Y18738D01*
Y18617D01*
Y12570D01*
X229410D01*
Y13659D01*
X229531D01*
Y13780D01*
X232313D01*
Y15231D01*
X232192D01*
Y15352D01*
X229652D01*
Y16561D01*
X232313D01*
Y17650D01*
X229773D01*
Y17771D01*
X229410D01*
Y18859D01*
X229531D01*
Y18980D01*
X233764D01*
Y18859D01*
D02*
G37*
G36*
X227959D02*
X228080D01*
Y12570D01*
X226507D01*
Y14989D01*
X225782D01*
Y14868D01*
X225661D01*
Y14747D01*
X225540D01*
Y14626D01*
X225419D01*
Y14263D01*
X225298D01*
Y14142D01*
X225177D01*
Y14021D01*
X225056D01*
Y13780D01*
X224935D01*
Y13659D01*
X224814D01*
Y13417D01*
X224693D01*
Y13296D01*
X224572D01*
Y13175D01*
X224451D01*
Y13054D01*
X224330D01*
Y12812D01*
X224209D01*
Y12570D01*
X222274D01*
Y12691D01*
X222395D01*
Y12933D01*
X222516D01*
Y13054D01*
X222637D01*
Y13175D01*
X222758D01*
Y13417D01*
X222879D01*
Y13659D01*
X223121D01*
Y13901D01*
X223242D01*
Y14021D01*
X223363D01*
Y14263D01*
X223484D01*
Y14384D01*
X223604D01*
Y14505D01*
X223726D01*
Y14747D01*
X223846D01*
Y14868D01*
X223967D01*
Y15110D01*
X224088D01*
Y15231D01*
X224209D01*
Y15473D01*
X223967D01*
Y15594D01*
X223846D01*
Y15715D01*
X223726D01*
Y15836D01*
X223484D01*
Y15957D01*
X223363D01*
Y16198D01*
X223242D01*
Y16440D01*
X223121D01*
Y16803D01*
X223000D01*
Y17650D01*
X223121D01*
Y17892D01*
X223242D01*
Y18134D01*
X223363D01*
Y18255D01*
X223484D01*
Y18375D01*
X223604D01*
Y18496D01*
X223726D01*
Y18617D01*
X223846D01*
Y18738D01*
X224330D01*
Y18859D01*
X224693D01*
Y18980D01*
X227959D01*
Y18859D01*
D02*
G37*
G36*
X244165Y18980D02*
X244649D01*
Y18738D01*
X245133D01*
Y18617D01*
X245375D01*
Y18375D01*
X245617D01*
Y18134D01*
X245738D01*
Y18013D01*
X245859D01*
Y17771D01*
X245980D01*
Y17650D01*
X246100D01*
Y16440D01*
X245980D01*
Y16198D01*
X245859D01*
Y16078D01*
X245738D01*
Y15836D01*
X245617D01*
Y15715D01*
X245496D01*
Y15594D01*
X245254D01*
Y15473D01*
X245133D01*
Y15352D01*
X244891D01*
Y15231D01*
X244407D01*
Y15110D01*
X243923D01*
Y14989D01*
X243440D01*
Y14868D01*
X243077D01*
Y14747D01*
X242714D01*
Y14505D01*
X242593D01*
Y14263D01*
X242472D01*
Y14142D01*
X242593D01*
Y13901D01*
X242714D01*
Y13780D01*
X242835D01*
Y13659D01*
X244770D01*
Y13780D01*
X245012D01*
Y13901D01*
X245254D01*
Y14021D01*
X245496D01*
Y14142D01*
X245617D01*
Y14263D01*
X245859D01*
Y14384D01*
X246100D01*
Y12812D01*
X245859D01*
Y12691D01*
X245375D01*
Y12570D01*
X244649D01*
Y12449D01*
X244407D01*
Y12328D01*
X243077D01*
Y12449D01*
X242835D01*
Y12570D01*
X242230D01*
Y12691D01*
X241988D01*
Y12812D01*
X241867D01*
Y12933D01*
X241746D01*
Y13054D01*
X241505D01*
Y13175D01*
X241384D01*
Y13296D01*
X241263D01*
Y13417D01*
X241142D01*
Y13780D01*
X241021D01*
Y14021D01*
X240900D01*
Y15110D01*
X241021D01*
Y15352D01*
X241142D01*
Y15594D01*
X241263D01*
Y15715D01*
X241384D01*
Y15836D01*
X241505D01*
Y15957D01*
X241746D01*
Y16198D01*
X242230D01*
Y16319D01*
X242714D01*
Y16440D01*
X242956D01*
Y16561D01*
X243682D01*
Y16682D01*
X244044D01*
Y16803D01*
X244165D01*
Y16924D01*
X244407D01*
Y17166D01*
X244528D01*
Y17408D01*
X244407D01*
Y17650D01*
X244165D01*
Y17771D01*
X243923D01*
Y17892D01*
X242472D01*
Y17771D01*
X242351D01*
Y17650D01*
X241867D01*
Y17529D01*
X241625D01*
Y17408D01*
X241505D01*
Y17287D01*
X241384D01*
Y17166D01*
X241142D01*
Y18738D01*
X241625D01*
Y18859D01*
X241746D01*
Y18980D01*
X242472D01*
Y19101D01*
X244165D01*
Y18980D01*
D02*
G37*
G36*
X222879Y6039D02*
X222395D01*
Y8337D01*
X222274D01*
Y8458D01*
X221790D01*
Y8337D01*
X221669D01*
Y8458D01*
X221549D01*
Y8337D01*
X221427D01*
Y8458D01*
X220460D01*
Y8337D01*
X220097D01*
Y6039D01*
X219613D01*
Y10514D01*
Y10635D01*
Y10756D01*
X220097D01*
Y10635D01*
X220218D01*
Y10514D01*
X220097D01*
Y8942D01*
X222395D01*
Y9305D01*
X222274D01*
Y9426D01*
X222395D01*
Y10514D01*
X222274D01*
Y10635D01*
X222395D01*
Y10756D01*
X222879D01*
Y6039D01*
D02*
G37*
G36*
X254325D02*
X253841D01*
Y10030D01*
X253599D01*
Y9909D01*
X253478D01*
Y9667D01*
X253357D01*
Y9305D01*
X253236D01*
Y9063D01*
X253115D01*
Y8821D01*
X252994D01*
Y8579D01*
X252873D01*
Y8458D01*
X252753D01*
Y8095D01*
X252632D01*
Y7853D01*
X252511D01*
Y7611D01*
X252390D01*
Y7490D01*
X252269D01*
Y7128D01*
X252148D01*
Y6765D01*
X252027D01*
Y6644D01*
X251906D01*
Y6402D01*
X251785D01*
Y6160D01*
X251664D01*
Y6039D01*
X250938D01*
Y9546D01*
Y9667D01*
Y10756D01*
X251422D01*
Y10635D01*
X251543D01*
Y8700D01*
X251422D01*
Y8337D01*
X251543D01*
Y7974D01*
X251422D01*
Y7732D01*
X251543D01*
Y7369D01*
X251422D01*
Y7128D01*
X251664D01*
Y7248D01*
X251785D01*
Y7611D01*
X251906D01*
Y7732D01*
X252027D01*
Y7974D01*
X252148D01*
Y8216D01*
X252269D01*
Y8579D01*
X252390D01*
Y8821D01*
X252511D01*
Y9063D01*
X252632D01*
Y9305D01*
X252753D01*
Y9667D01*
X252873D01*
Y9788D01*
X252994D01*
Y10030D01*
X253115D01*
Y10272D01*
X253236D01*
Y10514D01*
X253357D01*
Y10756D01*
X254325D01*
Y6039D01*
D02*
G37*
G36*
X231587D02*
X231103D01*
Y6886D01*
X230982D01*
Y7006D01*
X231103D01*
Y8942D01*
X230982D01*
Y9063D01*
X231103D01*
Y9426D01*
X230982D01*
Y9667D01*
X231103D01*
Y10030D01*
X230861D01*
Y9667D01*
X230740D01*
Y9546D01*
X230619D01*
Y9305D01*
X230499D01*
Y9063D01*
X230378D01*
Y8700D01*
X230257D01*
Y8579D01*
X230136D01*
Y8216D01*
X230015D01*
Y8095D01*
X229894D01*
Y7732D01*
X229773D01*
Y7490D01*
X229652D01*
Y7248D01*
X229531D01*
Y7128D01*
X229410D01*
Y6765D01*
X229289D01*
Y6523D01*
X229168D01*
Y6281D01*
X229047D01*
Y6039D01*
X228321D01*
Y6160D01*
Y6281D01*
Y6523D01*
X228201D01*
Y6644D01*
X228321D01*
Y7006D01*
X228201D01*
Y7128D01*
X228321D01*
Y10756D01*
X228805D01*
Y7128D01*
X229047D01*
Y7490D01*
X229168D01*
Y7611D01*
X229289D01*
Y7974D01*
X229410D01*
Y8216D01*
X229531D01*
Y8458D01*
X229652D01*
Y8700D01*
X229773D01*
Y8942D01*
X229894D01*
Y9305D01*
X230015D01*
Y9546D01*
X230136D01*
Y9788D01*
X230257D01*
Y9909D01*
X230378D01*
Y10272D01*
X230499D01*
Y10514D01*
X230619D01*
Y10635D01*
X230740D01*
Y10756D01*
X231587D01*
Y6039D01*
D02*
G37*
G36*
X267024Y7248D02*
X266903D01*
Y6765D01*
X266782D01*
Y6644D01*
X266661D01*
Y6523D01*
X266540D01*
Y6402D01*
X266420D01*
Y6160D01*
X266057D01*
Y6039D01*
X264726D01*
Y6160D01*
X264363D01*
Y6281D01*
X264243D01*
Y6402D01*
X264122D01*
Y6523D01*
X264001D01*
Y6644D01*
X263880D01*
Y6886D01*
X263759D01*
Y7732D01*
X263638D01*
Y10756D01*
X264243D01*
Y7974D01*
Y7853D01*
Y7248D01*
X264363D01*
Y6886D01*
X264484D01*
Y6765D01*
X264605D01*
Y6644D01*
X264726D01*
Y6523D01*
X265936D01*
Y6644D01*
X266178D01*
Y6886D01*
X266299D01*
Y7128D01*
X266420D01*
Y10756D01*
X267024D01*
Y7248D01*
D02*
G37*
G36*
X225661Y10877D02*
X226024D01*
Y10756D01*
X226265D01*
Y10635D01*
X226386D01*
Y10514D01*
X226628D01*
Y10393D01*
X226749D01*
Y10272D01*
X226870D01*
Y10151D01*
X226991D01*
Y9788D01*
X227112D01*
Y9667D01*
X227233D01*
Y9305D01*
X227354D01*
Y7732D01*
X227233D01*
Y7248D01*
X227112D01*
Y7128D01*
X226991D01*
Y6765D01*
X226870D01*
Y6644D01*
X226749D01*
Y6523D01*
X226507D01*
Y6402D01*
X226386D01*
Y6281D01*
X226265D01*
Y6160D01*
X226024D01*
Y6039D01*
X224330D01*
Y6160D01*
X224088D01*
Y6281D01*
X223846D01*
Y6402D01*
X223726D01*
Y7006D01*
X223967D01*
Y6886D01*
X224209D01*
Y6765D01*
X224330D01*
Y6644D01*
X224572D01*
Y6523D01*
X225782D01*
Y6644D01*
X226144D01*
Y6765D01*
X226265D01*
Y7006D01*
X226386D01*
Y7128D01*
X226507D01*
Y7369D01*
X226628D01*
Y7611D01*
X226749D01*
Y8216D01*
X226870D01*
Y8700D01*
X226749D01*
Y9184D01*
X226628D01*
Y9667D01*
X226507D01*
Y9788D01*
X226386D01*
Y10030D01*
X226265D01*
Y10151D01*
X226144D01*
Y10272D01*
X225903D01*
Y10393D01*
X225661D01*
Y10514D01*
X224814D01*
Y10393D01*
X224572D01*
Y10272D01*
X224209D01*
Y10151D01*
X224088D01*
Y10030D01*
X223967D01*
Y9909D01*
X223726D01*
Y10514D01*
X223846D01*
Y10635D01*
X224088D01*
Y10756D01*
X224330D01*
Y10877D01*
X224693D01*
Y10998D01*
X225661D01*
Y10877D01*
D02*
G37*
G36*
X273797D02*
X274039D01*
Y10756D01*
X274160D01*
Y10635D01*
X274523D01*
Y10514D01*
X274644D01*
Y10272D01*
X274765D01*
Y10151D01*
X274886D01*
Y9063D01*
X274765D01*
Y8821D01*
X274644D01*
Y8700D01*
X274523D01*
Y8579D01*
X274402D01*
Y8458D01*
X274039D01*
Y8337D01*
X273797D01*
Y8216D01*
X273072D01*
Y8095D01*
X272588D01*
Y7974D01*
X272467D01*
Y7853D01*
X272225D01*
Y7490D01*
X272104D01*
Y7248D01*
X272225D01*
Y6886D01*
X272346D01*
Y6765D01*
X272467D01*
Y6644D01*
X272709D01*
Y6523D01*
X273918D01*
Y6644D01*
X274281D01*
Y6765D01*
X274523D01*
Y6886D01*
X274644D01*
Y7006D01*
X275007D01*
Y6402D01*
X274886D01*
Y6281D01*
X274644D01*
Y6160D01*
X274281D01*
Y6039D01*
X272467D01*
Y6160D01*
X272346D01*
Y6281D01*
X272104D01*
Y6402D01*
X271983D01*
Y6523D01*
X271862D01*
Y6644D01*
X271741D01*
Y7006D01*
X271620D01*
Y7248D01*
X271499D01*
Y7732D01*
X271620D01*
Y7974D01*
X271741D01*
Y8216D01*
X271862D01*
Y8337D01*
X271983D01*
Y8458D01*
X272104D01*
Y8579D01*
X272467D01*
Y8700D01*
X273072D01*
Y8821D01*
X273434D01*
Y8942D01*
X273918D01*
Y9063D01*
X274039D01*
Y9184D01*
X274281D01*
Y10030D01*
X274160D01*
Y10272D01*
X273918D01*
Y10393D01*
X273676D01*
Y10514D01*
X272709D01*
Y10393D01*
X272467D01*
Y10272D01*
X272104D01*
Y10151D01*
X271862D01*
Y10030D01*
X271741D01*
Y10635D01*
X271983D01*
Y10756D01*
X272225D01*
Y10877D01*
X272588D01*
Y10998D01*
X273797D01*
Y10877D01*
D02*
G37*
G36*
X271136Y10272D02*
X269564D01*
Y6039D01*
X269080D01*
Y10272D01*
X267508D01*
Y10756D01*
X271136D01*
Y10272D01*
D02*
G37*
G36*
X262549Y10635D02*
X262670D01*
Y6039D01*
X260493D01*
Y6160D01*
X260130D01*
Y6281D01*
X259888D01*
Y6402D01*
X259768D01*
Y6523D01*
X259647D01*
Y6644D01*
X259405D01*
Y7006D01*
X259284D01*
Y7128D01*
X259163D01*
Y7369D01*
X259042D01*
Y7732D01*
X258921D01*
Y9063D01*
X259042D01*
Y9426D01*
X259163D01*
Y9667D01*
X259284D01*
Y9909D01*
X259405D01*
Y10151D01*
X259526D01*
Y10272D01*
X259768D01*
Y10393D01*
X259888D01*
Y10514D01*
X260251D01*
Y10635D01*
X260735D01*
Y10756D01*
X262549D01*
Y10635D01*
D02*
G37*
G36*
X257953Y6039D02*
X255050D01*
Y6402D01*
X255171D01*
Y6523D01*
X257348D01*
Y8337D01*
X257228D01*
Y8458D01*
X255292D01*
Y8337D01*
X255171D01*
Y8458D01*
X255050D01*
Y8821D01*
X255171D01*
Y8942D01*
X257348D01*
Y10272D01*
X255171D01*
Y10393D01*
X255050D01*
Y10756D01*
X257953D01*
Y6039D01*
D02*
G37*
G36*
X250334Y10635D02*
X250455D01*
Y10393D01*
X250334D01*
Y10272D01*
X248882D01*
Y10151D01*
X248761D01*
Y6039D01*
X248278D01*
Y9788D01*
Y9909D01*
Y10272D01*
X246705D01*
Y10756D01*
X250334D01*
Y10635D01*
D02*
G37*
G36*
X243923Y6039D02*
X241505D01*
Y6160D01*
X241263D01*
Y6281D01*
X241142D01*
Y6402D01*
X241021D01*
Y6523D01*
X240900D01*
Y6644D01*
X240779D01*
Y6886D01*
X240658D01*
Y7974D01*
Y8095D01*
X240779D01*
Y8216D01*
X240900D01*
Y8458D01*
X241021D01*
Y8579D01*
X241142D01*
Y8700D01*
X241625D01*
Y8821D01*
X241505D01*
Y8942D01*
X241263D01*
Y9184D01*
X241142D01*
Y9546D01*
X241021D01*
Y10151D01*
X241142D01*
Y10393D01*
X241263D01*
Y10514D01*
X241505D01*
Y10635D01*
X241746D01*
Y10756D01*
X243923D01*
Y6039D01*
D02*
G37*
G36*
X239932Y7611D02*
Y7490D01*
Y6039D01*
X239448D01*
Y6160D01*
X239328D01*
Y6281D01*
X239448D01*
Y6402D01*
X239328D01*
Y7611D01*
X239448D01*
Y7732D01*
X239328D01*
Y7853D01*
X238481D01*
Y7732D01*
X238360D01*
Y7611D01*
X238239D01*
Y7490D01*
X238118D01*
Y7369D01*
X237997D01*
Y7128D01*
X237876D01*
Y7006D01*
X237755D01*
Y6886D01*
X237634D01*
Y6644D01*
X237513D01*
Y6523D01*
X237392D01*
Y6281D01*
X237271D01*
Y6160D01*
X237151D01*
Y6039D01*
X236425D01*
Y6160D01*
X236546D01*
Y6402D01*
X236667D01*
Y6523D01*
X236788D01*
Y6644D01*
X236909D01*
Y6765D01*
X237030D01*
Y7006D01*
X237151D01*
Y7128D01*
X237271D01*
Y7248D01*
X237392D01*
Y7490D01*
X237513D01*
Y7611D01*
X237634D01*
Y7732D01*
X237755D01*
Y7853D01*
X237876D01*
Y8216D01*
X237513D01*
Y8458D01*
X237392D01*
Y8579D01*
X237271D01*
Y8700D01*
X237151D01*
Y8942D01*
X237030D01*
Y10030D01*
X237151D01*
Y10151D01*
X237271D01*
Y10272D01*
X237392D01*
Y10393D01*
X237513D01*
Y10514D01*
X237634D01*
Y10635D01*
X237997D01*
Y10756D01*
X239932D01*
Y7611D01*
D02*
G37*
G36*
X234732Y10514D02*
X234853D01*
Y10151D01*
X234974D01*
Y10030D01*
Y9909D01*
X235094D01*
Y9305D01*
X235215D01*
Y9063D01*
X235336D01*
Y8700D01*
X235457D01*
Y8458D01*
X235578D01*
Y7974D01*
X235699D01*
Y7490D01*
X235820D01*
Y7128D01*
X235941D01*
Y6644D01*
X236062D01*
Y6523D01*
X236183D01*
Y6039D01*
X235941D01*
Y5918D01*
X235820D01*
Y6039D01*
X235699D01*
Y6281D01*
X235578D01*
Y6765D01*
X235457D01*
Y7006D01*
X235336D01*
Y7369D01*
X233401D01*
Y7248D01*
X233280D01*
Y6886D01*
X233159D01*
Y6644D01*
X233038D01*
Y6160D01*
X232917D01*
Y6039D01*
X232434D01*
Y6523D01*
X232555D01*
Y7006D01*
X232676D01*
Y7248D01*
X232796D01*
Y7490D01*
X232917D01*
Y7974D01*
X233038D01*
Y8458D01*
X233159D01*
Y8700D01*
X233280D01*
Y9063D01*
X233401D01*
Y9305D01*
X233522D01*
Y9909D01*
X233643D01*
Y10151D01*
X233764D01*
Y10514D01*
X233885D01*
Y10635D01*
X234006D01*
Y10756D01*
X234732D01*
Y10514D01*
D02*
G37*
G36*
X291909Y31091D02*
X292447D01*
Y31064D01*
X292824D01*
Y31037D01*
X293013D01*
Y31010D01*
X293201D01*
Y30983D01*
X293389D01*
Y30956D01*
X293578D01*
Y30929D01*
X293712D01*
Y30902D01*
X293874D01*
Y30876D01*
X294008D01*
Y30849D01*
X294143D01*
Y30822D01*
X294251D01*
Y30795D01*
X294385D01*
Y30768D01*
X294493D01*
Y30741D01*
X294601D01*
Y30714D01*
X294708D01*
Y30687D01*
X294816D01*
Y30660D01*
X294923D01*
Y30633D01*
X295004D01*
Y30606D01*
X295112D01*
Y30580D01*
X295193D01*
Y30553D01*
X295273D01*
Y30526D01*
X295381D01*
Y30499D01*
X295462D01*
Y30472D01*
X295542D01*
Y30445D01*
X295623D01*
Y30418D01*
X295704D01*
Y30391D01*
X295785D01*
Y30364D01*
X295865D01*
Y30337D01*
X295919D01*
Y30310D01*
X296000D01*
Y30283D01*
X296081D01*
Y30257D01*
X296134D01*
Y30230D01*
X296215D01*
Y30203D01*
X296269D01*
Y30176D01*
X296350D01*
Y30149D01*
X296404D01*
Y30122D01*
X296484D01*
Y30095D01*
X296538D01*
Y30068D01*
X296619D01*
Y30041D01*
X296673D01*
Y30014D01*
X296727D01*
Y29987D01*
X296780D01*
Y29961D01*
X296861D01*
Y29934D01*
X296915D01*
Y29907D01*
X296969D01*
Y29880D01*
X297023D01*
Y29853D01*
X297103D01*
Y29826D01*
X297157D01*
Y29799D01*
X297211D01*
Y29772D01*
X297265D01*
Y29745D01*
X297319D01*
Y29718D01*
X297373D01*
Y29691D01*
X297426D01*
Y29664D01*
X297480D01*
Y29638D01*
X297534D01*
Y29611D01*
X297588D01*
Y29584D01*
X297642D01*
Y29557D01*
X297695D01*
Y29530D01*
X297749D01*
Y29503D01*
X297803D01*
Y29476D01*
X297830D01*
Y29449D01*
X297884D01*
Y29422D01*
X297938D01*
Y29395D01*
X297991D01*
Y29368D01*
X298045D01*
Y29342D01*
X298072D01*
Y29315D01*
X298126D01*
Y29288D01*
X298180D01*
Y29261D01*
X298207D01*
Y29234D01*
X298261D01*
Y29207D01*
X298314D01*
Y29180D01*
X298341D01*
Y29153D01*
X298395D01*
Y29126D01*
X298449D01*
Y29099D01*
X298476D01*
Y29072D01*
X298530D01*
Y29045D01*
X298584D01*
Y29019D01*
X298610D01*
Y28992D01*
X298664D01*
Y28965D01*
X298691D01*
Y28938D01*
X298745D01*
Y28911D01*
X298772D01*
Y28884D01*
X298826D01*
Y28857D01*
X298853D01*
Y28830D01*
X298907D01*
Y28803D01*
X298934D01*
Y28776D01*
X298987D01*
Y28749D01*
X299014D01*
Y28723D01*
X299041D01*
Y28695D01*
X299095D01*
Y28669D01*
X299122D01*
Y28642D01*
X299176D01*
Y28615D01*
X299203D01*
Y28588D01*
X299256D01*
Y28561D01*
X299283D01*
Y28534D01*
X299310D01*
Y28507D01*
X299364D01*
Y28480D01*
X299391D01*
Y28453D01*
X299418D01*
Y28426D01*
X299472D01*
Y28400D01*
X299499D01*
Y28373D01*
X299526D01*
Y28346D01*
X299579D01*
Y28319D01*
X299606D01*
Y28292D01*
X299633D01*
Y28265D01*
X299687D01*
Y28238D01*
X299714D01*
Y28211D01*
X299741D01*
Y28184D01*
X299768D01*
Y28157D01*
X299822D01*
Y28130D01*
X299849D01*
Y28104D01*
X299875D01*
Y28076D01*
X299902D01*
Y28050D01*
X299929D01*
Y28023D01*
X299983D01*
Y27996D01*
X300010D01*
Y27969D01*
X300037D01*
Y27942D01*
X300064D01*
Y27915D01*
X300091D01*
Y27888D01*
X300118D01*
Y27861D01*
X300145D01*
Y27834D01*
X300198D01*
Y27807D01*
X300225D01*
Y27781D01*
X300252D01*
Y27754D01*
X300279D01*
Y27727D01*
X300306D01*
Y27700D01*
X300333D01*
Y27673D01*
X300360D01*
Y27646D01*
X300387D01*
Y27619D01*
X300441D01*
Y27592D01*
X300467D01*
Y27565D01*
X300494D01*
Y27538D01*
X300521D01*
Y27511D01*
X300548D01*
Y27485D01*
X300575D01*
Y27457D01*
X300602D01*
Y27431D01*
X300629D01*
Y27404D01*
X300656D01*
Y27377D01*
X300683D01*
Y27350D01*
X300710D01*
Y27323D01*
X300737D01*
Y27296D01*
X300764D01*
Y27269D01*
X300791D01*
Y27242D01*
X300817D01*
Y27215D01*
X300844D01*
Y27188D01*
X300871D01*
Y27161D01*
X300898D01*
Y27135D01*
X300925D01*
Y27108D01*
X300952D01*
Y27081D01*
X300979D01*
Y27054D01*
X301006D01*
Y27027D01*
X301033D01*
Y27000D01*
X301060D01*
Y26973D01*
X301086D01*
Y26946D01*
X301113D01*
Y26919D01*
X301140D01*
Y26892D01*
X301167D01*
Y26866D01*
X301194D01*
Y26838D01*
X301221D01*
Y26812D01*
X301248D01*
Y26785D01*
X301275D01*
Y26731D01*
X301302D01*
Y26704D01*
X301329D01*
Y26677D01*
X301356D01*
Y26650D01*
X301383D01*
Y26623D01*
X301410D01*
Y26596D01*
X301436D01*
Y26569D01*
X301463D01*
Y26542D01*
X301490D01*
Y26516D01*
X301517D01*
Y26489D01*
X301544D01*
Y26435D01*
X301571D01*
Y26408D01*
X301598D01*
Y26381D01*
X301625D01*
Y26354D01*
X301652D01*
Y26327D01*
X301679D01*
Y26300D01*
X301706D01*
Y26273D01*
X301732D01*
Y26219D01*
X301759D01*
Y26193D01*
X301786D01*
Y26166D01*
X301813D01*
Y26139D01*
X301840D01*
Y26085D01*
X301867D01*
Y26058D01*
X301894D01*
Y26031D01*
X301921D01*
Y26004D01*
X301948D01*
Y25950D01*
X301975D01*
Y25923D01*
X302002D01*
Y25897D01*
X302028D01*
Y25843D01*
X302055D01*
Y25816D01*
X302082D01*
Y25789D01*
X302109D01*
Y25762D01*
X302136D01*
Y25708D01*
X302163D01*
Y25681D01*
X302190D01*
Y25627D01*
X302217D01*
Y25600D01*
X302244D01*
Y25574D01*
X302271D01*
Y25520D01*
X302298D01*
Y25493D01*
X302325D01*
Y25439D01*
X302351D01*
Y25412D01*
X302378D01*
Y25385D01*
X302405D01*
Y25331D01*
X302432D01*
Y25304D01*
X302459D01*
Y25251D01*
X302486D01*
Y25224D01*
X302513D01*
Y25170D01*
X302540D01*
Y25143D01*
X302567D01*
Y25089D01*
X302594D01*
Y25062D01*
X302621D01*
Y25008D01*
X302647D01*
Y24982D01*
X302674D01*
Y24928D01*
X302701D01*
Y24901D01*
X302728D01*
Y24847D01*
X302755D01*
Y24793D01*
X302782D01*
Y24766D01*
X302809D01*
Y24712D01*
X302836D01*
Y24686D01*
X302863D01*
Y24632D01*
X302890D01*
Y24578D01*
X302917D01*
Y24551D01*
X302943D01*
Y24497D01*
X302970D01*
Y24443D01*
X302997D01*
Y24416D01*
X303024D01*
Y24363D01*
X303051D01*
Y24309D01*
X303078D01*
Y24255D01*
X303105D01*
Y24228D01*
X303132D01*
Y24174D01*
X303159D01*
Y24120D01*
X303186D01*
Y24067D01*
X303213D01*
Y24013D01*
X303240D01*
Y23959D01*
X303267D01*
Y23905D01*
X303293D01*
Y23851D01*
X303320D01*
Y23797D01*
X303347D01*
Y23743D01*
X303374D01*
Y23690D01*
X303401D01*
Y23636D01*
X303428D01*
Y23582D01*
X303455D01*
Y23528D01*
X303482D01*
Y23474D01*
X303509D01*
Y23421D01*
X303536D01*
Y23367D01*
X303562D01*
Y23313D01*
X303589D01*
Y23259D01*
X303616D01*
Y23178D01*
X303643D01*
Y23124D01*
X303670D01*
Y23071D01*
X303697D01*
Y22963D01*
X303724D01*
Y22909D01*
X303751D01*
Y22855D01*
X303778D01*
Y22775D01*
X303805D01*
Y22721D01*
X303832D01*
Y22640D01*
X303859D01*
Y22586D01*
X303886D01*
Y22505D01*
X303912D01*
Y22425D01*
X303939D01*
Y22371D01*
X303966D01*
Y22290D01*
X303993D01*
Y22209D01*
X304020D01*
Y22156D01*
X304047D01*
Y22075D01*
X304074D01*
Y21994D01*
X304101D01*
Y21913D01*
X304128D01*
Y21833D01*
X304155D01*
Y21752D01*
X304182D01*
Y21671D01*
X304208D01*
Y21590D01*
X304235D01*
Y21510D01*
X304262D01*
Y21429D01*
X304289D01*
Y21321D01*
X304316D01*
Y21214D01*
X304343D01*
Y21133D01*
X304370D01*
Y21025D01*
X304397D01*
Y20918D01*
X304424D01*
Y20810D01*
X304451D01*
Y20675D01*
X304478D01*
Y20568D01*
X304504D01*
Y20433D01*
X304531D01*
Y20299D01*
X304558D01*
Y20164D01*
X304585D01*
Y20030D01*
X304612D01*
Y19868D01*
X304639D01*
Y19680D01*
X304666D01*
Y19491D01*
X304693D01*
Y19276D01*
X304720D01*
Y19061D01*
X304747D01*
Y18765D01*
X304774D01*
Y18334D01*
X304801D01*
Y16908D01*
X304774D01*
Y16504D01*
X304747D01*
Y16235D01*
X304720D01*
Y15992D01*
X304693D01*
Y15777D01*
X304666D01*
Y15589D01*
X304639D01*
Y15427D01*
X304612D01*
Y15266D01*
X304585D01*
Y15131D01*
X304558D01*
Y14997D01*
X304531D01*
Y14862D01*
X304504D01*
Y14728D01*
X304478D01*
Y14620D01*
X304451D01*
Y14512D01*
X304424D01*
Y14405D01*
X304397D01*
Y14297D01*
X304370D01*
Y14189D01*
X304343D01*
Y14082D01*
X304316D01*
Y14001D01*
X304289D01*
Y13893D01*
X304262D01*
Y13813D01*
X304235D01*
Y13732D01*
X304208D01*
Y13651D01*
X304182D01*
Y13544D01*
X304155D01*
Y13463D01*
X304128D01*
Y13382D01*
X304101D01*
Y13301D01*
X304074D01*
Y13247D01*
X304047D01*
Y13167D01*
X304020D01*
Y13086D01*
X303993D01*
Y13005D01*
X303966D01*
Y12951D01*
X303939D01*
Y12871D01*
X303912D01*
Y12790D01*
X303886D01*
Y12736D01*
X303859D01*
Y12655D01*
X303832D01*
Y12601D01*
X303805D01*
Y12521D01*
X303778D01*
Y12467D01*
X303751D01*
Y12413D01*
X303724D01*
Y12332D01*
X303697D01*
Y12279D01*
X303670D01*
Y12225D01*
X303643D01*
Y12144D01*
X303616D01*
Y12090D01*
X303589D01*
Y12036D01*
X303562D01*
Y11982D01*
X303536D01*
Y11929D01*
X303509D01*
Y11875D01*
X303482D01*
Y11794D01*
X303455D01*
Y11740D01*
X303428D01*
Y11687D01*
X303401D01*
Y11633D01*
X303374D01*
Y11579D01*
X303347D01*
Y11525D01*
X303320D01*
Y11471D01*
X303293D01*
Y11417D01*
X303267D01*
Y11364D01*
X303240D01*
Y11337D01*
X303213D01*
Y11283D01*
X303186D01*
Y11229D01*
X303159D01*
Y11175D01*
X303132D01*
Y11121D01*
X303105D01*
Y11067D01*
X303078D01*
Y11040D01*
X303051D01*
Y10987D01*
X303024D01*
Y10933D01*
X302997D01*
Y10879D01*
X302970D01*
Y10852D01*
X302943D01*
Y10798D01*
X302917D01*
Y10745D01*
X302890D01*
Y10718D01*
X302863D01*
Y10664D01*
X302836D01*
Y10610D01*
X302809D01*
Y10583D01*
X302782D01*
Y10529D01*
X302755D01*
Y10475D01*
X302728D01*
Y10448D01*
X302701D01*
Y10395D01*
X302674D01*
Y10368D01*
X302647D01*
Y10314D01*
X302621D01*
Y10287D01*
X302594D01*
Y10233D01*
X302567D01*
Y10206D01*
X302540D01*
Y10152D01*
X302513D01*
Y10125D01*
X302486D01*
Y10072D01*
X302459D01*
Y10045D01*
X302432D01*
Y9991D01*
X302405D01*
Y9964D01*
X302378D01*
Y9910D01*
X302351D01*
Y9883D01*
X302325D01*
Y9856D01*
X302298D01*
Y9803D01*
X302271D01*
Y9776D01*
X302244D01*
Y9749D01*
X302217D01*
Y9695D01*
X302190D01*
Y9668D01*
X302163D01*
Y9614D01*
X302136D01*
Y9587D01*
X302109D01*
Y9560D01*
X302082D01*
Y9506D01*
X302055D01*
Y9480D01*
X302028D01*
Y9453D01*
X302002D01*
Y9399D01*
X301975D01*
Y9372D01*
X301948D01*
Y9345D01*
X301921D01*
Y9318D01*
X301894D01*
Y9291D01*
X301867D01*
Y9237D01*
X301840D01*
Y9210D01*
X301813D01*
Y9183D01*
X301786D01*
Y9157D01*
X301759D01*
Y9103D01*
X301732D01*
Y9076D01*
X301706D01*
Y9049D01*
X301679D01*
Y9022D01*
X301652D01*
Y8968D01*
X301625D01*
Y8941D01*
X301598D01*
Y8914D01*
X301571D01*
Y8888D01*
X301544D01*
Y8861D01*
X301517D01*
Y8834D01*
X301490D01*
Y8807D01*
X301463D01*
Y8753D01*
X301436D01*
Y8726D01*
X301410D01*
Y8699D01*
X301383D01*
Y8672D01*
X301356D01*
Y8645D01*
X301329D01*
Y8618D01*
X301302D01*
Y8591D01*
X301275D01*
Y8564D01*
X301248D01*
Y8538D01*
X301221D01*
Y8484D01*
X301194D01*
Y8457D01*
X301167D01*
Y8430D01*
X301140D01*
Y8403D01*
X301113D01*
Y8376D01*
X301086D01*
Y8349D01*
X301060D01*
Y8322D01*
X301033D01*
Y8295D01*
X301006D01*
Y8269D01*
X300979D01*
Y8242D01*
X300952D01*
Y8215D01*
X300925D01*
Y8188D01*
X300898D01*
Y8161D01*
X300871D01*
Y8134D01*
X300844D01*
Y8107D01*
X300817D01*
Y8080D01*
X300791D01*
Y8053D01*
X300764D01*
Y8026D01*
X300737D01*
Y7999D01*
X300710D01*
Y7972D01*
X300683D01*
Y7946D01*
X300656D01*
Y7919D01*
X300629D01*
Y7892D01*
X300602D01*
Y7865D01*
X300575D01*
Y7838D01*
X300548D01*
Y7811D01*
X300521D01*
Y7784D01*
X300467D01*
Y7730D01*
X300414D01*
Y7703D01*
X300387D01*
Y7676D01*
X300360D01*
Y7649D01*
X300333D01*
Y7623D01*
X300306D01*
Y7596D01*
X300279D01*
Y7569D01*
X300252D01*
Y7542D01*
X300225D01*
Y7515D01*
X300171D01*
Y7488D01*
X300145D01*
Y7461D01*
X300118D01*
Y7434D01*
X300091D01*
Y7407D01*
X300064D01*
Y7380D01*
X300037D01*
Y7353D01*
X300010D01*
Y7327D01*
X299956D01*
Y7300D01*
X299929D01*
Y7273D01*
X299902D01*
Y7246D01*
X299875D01*
Y7219D01*
X299849D01*
Y7192D01*
X299795D01*
Y7165D01*
X299768D01*
Y7138D01*
X299741D01*
Y7111D01*
X299714D01*
Y7084D01*
X299660D01*
Y7057D01*
X299633D01*
Y7030D01*
X299606D01*
Y7004D01*
X299552D01*
Y6977D01*
X299526D01*
Y6950D01*
X299499D01*
Y6923D01*
X299472D01*
Y6896D01*
X299418D01*
Y6869D01*
X299391D01*
Y6842D01*
X299337D01*
Y6815D01*
X299310D01*
Y6788D01*
X299283D01*
Y6761D01*
X299230D01*
Y6734D01*
X299203D01*
Y6707D01*
X299176D01*
Y6681D01*
X299122D01*
Y6654D01*
X299095D01*
Y6627D01*
X299041D01*
Y6600D01*
X299014D01*
Y6573D01*
X298960D01*
Y6546D01*
X298934D01*
Y6519D01*
X298880D01*
Y6492D01*
X298853D01*
Y6465D01*
X298799D01*
Y6438D01*
X298772D01*
Y6412D01*
X298718D01*
Y6385D01*
X298691D01*
Y6358D01*
X298637D01*
Y6331D01*
X298610D01*
Y6304D01*
X298557D01*
Y6277D01*
X298503D01*
Y6250D01*
X298476D01*
Y6223D01*
X298422D01*
Y6196D01*
X298395D01*
Y6169D01*
X298341D01*
Y6142D01*
X298288D01*
Y6115D01*
X298234D01*
Y6089D01*
X298207D01*
Y6062D01*
X298153D01*
Y6035D01*
X298099D01*
Y6008D01*
X298072D01*
Y5981D01*
X298018D01*
Y5954D01*
X297965D01*
Y5927D01*
X297911D01*
Y5900D01*
X297884D01*
Y5873D01*
X297830D01*
Y5846D01*
X297776D01*
Y5819D01*
X297722D01*
Y5793D01*
X297669D01*
Y5766D01*
X297615D01*
Y5739D01*
X297561D01*
Y5712D01*
X297507D01*
Y5685D01*
X297480D01*
Y5658D01*
X297426D01*
Y5631D01*
X297373D01*
Y5604D01*
X297292D01*
Y5577D01*
X297265D01*
Y5550D01*
X297184D01*
Y5523D01*
X297157D01*
Y5496D01*
X297077D01*
Y5469D01*
X297023D01*
Y5443D01*
X296969D01*
Y5416D01*
X296915D01*
Y5389D01*
X296861D01*
Y5362D01*
X296780D01*
Y5335D01*
X296727D01*
Y5308D01*
X296673D01*
Y5281D01*
X296619D01*
Y5254D01*
X296538D01*
Y5227D01*
X296484D01*
Y5200D01*
X296404D01*
Y5173D01*
X296350D01*
Y5147D01*
X296269D01*
Y5120D01*
X296215D01*
Y5093D01*
X296134D01*
Y5066D01*
X296054D01*
Y5039D01*
X296000D01*
Y5012D01*
X295919D01*
Y4985D01*
X295838D01*
Y4958D01*
X295758D01*
Y4931D01*
X295677D01*
Y4904D01*
X295596D01*
Y4877D01*
X295515D01*
Y4851D01*
X295435D01*
Y4824D01*
X295354D01*
Y4797D01*
X295246D01*
Y4770D01*
X295166D01*
Y4743D01*
X295058D01*
Y4716D01*
X294950D01*
Y4689D01*
X294870D01*
Y4662D01*
X294762D01*
Y4635D01*
X294654D01*
Y4608D01*
X294547D01*
Y4581D01*
X294439D01*
Y4555D01*
X294331D01*
Y4528D01*
X294197D01*
Y4501D01*
X294089D01*
Y4474D01*
X293955D01*
Y4447D01*
X293793D01*
Y4420D01*
X293658D01*
Y4393D01*
X293497D01*
Y4366D01*
X293336D01*
Y4339D01*
X293120D01*
Y4312D01*
X292905D01*
Y4285D01*
X292690D01*
Y4258D01*
X292340D01*
Y4231D01*
X291990D01*
Y4205D01*
X290671D01*
Y4231D01*
X290267D01*
Y4258D01*
X289998D01*
Y4285D01*
X289729D01*
Y4312D01*
X289514D01*
Y4339D01*
X289325D01*
Y4366D01*
X289137D01*
Y4393D01*
X289002D01*
Y4420D01*
X288868D01*
Y4447D01*
X288706D01*
Y4474D01*
X288599D01*
Y4501D01*
X288464D01*
Y4528D01*
X288330D01*
Y4555D01*
X288222D01*
Y4581D01*
X288114D01*
Y4608D01*
X288007D01*
Y4635D01*
X287899D01*
Y4662D01*
X287818D01*
Y4689D01*
X287711D01*
Y4716D01*
X287630D01*
Y4743D01*
X287522D01*
Y4770D01*
X287442D01*
Y4797D01*
X287361D01*
Y4824D01*
X287280D01*
Y4851D01*
X287199D01*
Y4877D01*
X287119D01*
Y4904D01*
X287038D01*
Y4931D01*
X286930D01*
Y4958D01*
X286876D01*
Y4985D01*
X286796D01*
Y5012D01*
X286715D01*
Y5039D01*
X286634D01*
Y5066D01*
X286580D01*
Y5093D01*
X286500D01*
Y5120D01*
X286419D01*
Y5147D01*
X286365D01*
Y5173D01*
X286284D01*
Y5200D01*
X286230D01*
Y5227D01*
X286150D01*
Y5254D01*
X286096D01*
Y5281D01*
X286042D01*
Y5308D01*
X285961D01*
Y5335D01*
X285908D01*
Y5362D01*
X285854D01*
Y5389D01*
X285800D01*
Y5416D01*
X285719D01*
Y5443D01*
X285665D01*
Y5469D01*
X285612D01*
Y5496D01*
X285558D01*
Y5523D01*
X285504D01*
Y5550D01*
X285450D01*
Y5577D01*
X285396D01*
Y5604D01*
X285342D01*
Y5631D01*
X285289D01*
Y5658D01*
X285235D01*
Y5685D01*
X285181D01*
Y5712D01*
X285127D01*
Y5739D01*
X285073D01*
Y5766D01*
X285019D01*
Y5793D01*
X284993D01*
Y5819D01*
X284939D01*
Y5846D01*
X284885D01*
Y5873D01*
X284831D01*
Y5900D01*
X284777D01*
Y5927D01*
X284723D01*
Y5954D01*
X284696D01*
Y5981D01*
X284643D01*
Y6008D01*
X284589D01*
Y6035D01*
X284535D01*
Y6062D01*
X284508D01*
Y6089D01*
X284454D01*
Y6115D01*
X284400D01*
Y6142D01*
X284373D01*
Y6169D01*
X284320D01*
Y6196D01*
X284266D01*
Y6223D01*
X284239D01*
Y6250D01*
X284185D01*
Y6277D01*
X284158D01*
Y6304D01*
X284104D01*
Y6331D01*
X284077D01*
Y6358D01*
X284024D01*
Y6385D01*
X283970D01*
Y6412D01*
X283943D01*
Y6438D01*
X283889D01*
Y6465D01*
X283862D01*
Y6492D01*
X283808D01*
Y6519D01*
X283781D01*
Y6546D01*
X283728D01*
Y6573D01*
X283701D01*
Y6600D01*
X283647D01*
Y6627D01*
X283620D01*
Y6654D01*
X283593D01*
Y6681D01*
X283539D01*
Y6707D01*
X283512D01*
Y6734D01*
X283485D01*
Y6761D01*
X283432D01*
Y6788D01*
X283405D01*
Y6815D01*
X283351D01*
Y6842D01*
X283324D01*
Y6869D01*
X283297D01*
Y6896D01*
X283243D01*
Y6923D01*
X283216D01*
Y6950D01*
X283189D01*
Y6977D01*
X283136D01*
Y7004D01*
X283109D01*
Y7030D01*
X283082D01*
Y7057D01*
X283055D01*
Y7084D01*
X283001D01*
Y7111D01*
X282974D01*
Y7138D01*
X282947D01*
Y7165D01*
X282920D01*
Y7192D01*
X282866D01*
Y7219D01*
X282839D01*
Y7246D01*
X282812D01*
Y7273D01*
X282786D01*
Y7300D01*
X282759D01*
Y7327D01*
X282705D01*
Y7353D01*
X282678D01*
Y7380D01*
X282651D01*
Y7407D01*
X282624D01*
Y7434D01*
X282597D01*
Y7461D01*
X282543D01*
Y7488D01*
X282517D01*
Y7515D01*
X282490D01*
Y7542D01*
X282463D01*
Y7569D01*
X282436D01*
Y7596D01*
X282409D01*
Y7623D01*
X282382D01*
Y7649D01*
X282355D01*
Y7676D01*
X282301D01*
Y7703D01*
X282274D01*
Y7730D01*
X282247D01*
Y7757D01*
X282220D01*
Y7784D01*
X282193D01*
Y7811D01*
X282167D01*
Y7838D01*
X282140D01*
Y7865D01*
X282113D01*
Y7892D01*
X282086D01*
Y7919D01*
X282059D01*
Y7946D01*
X282032D01*
Y7972D01*
X282005D01*
Y7999D01*
X281978D01*
Y8026D01*
X281951D01*
Y8053D01*
X281897D01*
Y8080D01*
X281871D01*
Y8107D01*
X281844D01*
Y8134D01*
X281817D01*
Y8161D01*
X281790D01*
Y8188D01*
X281763D01*
Y8242D01*
X281709D01*
Y8295D01*
X281682D01*
Y8322D01*
X281655D01*
Y8349D01*
X281628D01*
Y8376D01*
X281601D01*
Y8403D01*
X281575D01*
Y8430D01*
X281548D01*
Y8457D01*
X281521D01*
Y8484D01*
X281494D01*
Y8511D01*
X281467D01*
Y8538D01*
X281440D01*
Y8564D01*
X281413D01*
Y8591D01*
X281386D01*
Y8645D01*
X281359D01*
Y8672D01*
X281332D01*
Y8699D01*
X281305D01*
Y8726D01*
X281278D01*
Y8753D01*
X281252D01*
Y8780D01*
X281225D01*
Y8807D01*
X281198D01*
Y8861D01*
X281171D01*
Y8888D01*
X281144D01*
Y8914D01*
X281117D01*
Y8941D01*
X281090D01*
Y8968D01*
X281063D01*
Y9022D01*
X281036D01*
Y9049D01*
X281009D01*
Y9076D01*
X280982D01*
Y9103D01*
X280956D01*
Y9130D01*
X280929D01*
Y9183D01*
X280902D01*
Y9210D01*
X280875D01*
Y9237D01*
X280848D01*
Y9264D01*
X280821D01*
Y9291D01*
X280794D01*
Y9345D01*
X280767D01*
Y9372D01*
X280740D01*
Y9399D01*
X280713D01*
Y9426D01*
X280686D01*
Y9480D01*
X280660D01*
Y9506D01*
X280632D01*
Y9533D01*
X280606D01*
Y9587D01*
X280579D01*
Y9614D01*
X280552D01*
Y9641D01*
X280525D01*
Y9668D01*
X280498D01*
Y9722D01*
X280471D01*
Y9749D01*
X280444D01*
Y9803D01*
X280417D01*
Y9829D01*
X280390D01*
Y9856D01*
X280363D01*
Y9910D01*
X280336D01*
Y9937D01*
X280310D01*
Y9964D01*
X280283D01*
Y10018D01*
X280256D01*
Y10045D01*
X280229D01*
Y10099D01*
X280202D01*
Y10125D01*
X280175D01*
Y10179D01*
X280148D01*
Y10206D01*
X280121D01*
Y10260D01*
X280094D01*
Y10287D01*
X280067D01*
Y10341D01*
X280041D01*
Y10368D01*
X280013D01*
Y10422D01*
X279987D01*
Y10475D01*
X279960D01*
Y10502D01*
X279933D01*
Y10556D01*
X279906D01*
Y10583D01*
X279879D01*
Y10637D01*
X279852D01*
Y10691D01*
X279825D01*
Y10718D01*
X279798D01*
Y10771D01*
X279771D01*
Y10825D01*
X279744D01*
Y10879D01*
X279717D01*
Y10906D01*
X279691D01*
Y10960D01*
X279664D01*
Y11014D01*
X279637D01*
Y11067D01*
X279610D01*
Y11094D01*
X279583D01*
Y11148D01*
X279556D01*
Y11202D01*
X279529D01*
Y11256D01*
X279502D01*
Y11310D01*
X279475D01*
Y11337D01*
X279448D01*
Y11390D01*
X279421D01*
Y11444D01*
X279395D01*
Y11498D01*
X279368D01*
Y11552D01*
X279341D01*
Y11606D01*
X279314D01*
Y11660D01*
X279287D01*
Y11713D01*
X279260D01*
Y11767D01*
X279233D01*
Y11821D01*
X279206D01*
Y11875D01*
X279179D01*
Y11929D01*
X279152D01*
Y11982D01*
X279125D01*
Y12036D01*
X279099D01*
Y12090D01*
X279072D01*
Y12171D01*
X279045D01*
Y12225D01*
X279018D01*
Y12332D01*
X278991D01*
Y12386D01*
X278964D01*
Y12440D01*
X278937D01*
Y12521D01*
X278910D01*
Y12575D01*
X278883D01*
Y12655D01*
X278856D01*
Y12709D01*
X278829D01*
Y12790D01*
X278802D01*
Y12844D01*
X278776D01*
Y12924D01*
X278749D01*
Y13005D01*
X278722D01*
Y13059D01*
X278695D01*
Y13140D01*
X278668D01*
Y13220D01*
X278641D01*
Y13301D01*
X278614D01*
Y13382D01*
X278587D01*
Y13463D01*
X278560D01*
Y13544D01*
X278533D01*
Y13651D01*
X278506D01*
Y13732D01*
X278480D01*
Y13813D01*
X278453D01*
Y13920D01*
X278426D01*
Y14001D01*
X278399D01*
Y14109D01*
X278372D01*
Y14189D01*
X278345D01*
Y14297D01*
X278318D01*
Y14405D01*
X278291D01*
Y14512D01*
X278264D01*
Y14620D01*
X278237D01*
Y14728D01*
X278210D01*
Y14862D01*
X278183D01*
Y14997D01*
X278156D01*
Y15131D01*
X278130D01*
Y15266D01*
X278103D01*
Y15427D01*
X278076D01*
Y15589D01*
X278049D01*
Y15777D01*
X278022D01*
Y15992D01*
X277995D01*
Y16208D01*
X277968D01*
Y16504D01*
X277941D01*
Y16827D01*
X277914D01*
Y17392D01*
X277887D01*
Y18065D01*
X277914D01*
Y18630D01*
X277941D01*
Y18980D01*
X277968D01*
Y19222D01*
X277995D01*
Y19437D01*
X278022D01*
Y19626D01*
X278049D01*
Y19814D01*
X278076D01*
Y19976D01*
X278103D01*
Y20137D01*
X278130D01*
Y20272D01*
X278156D01*
Y20406D01*
X278183D01*
Y20514D01*
X278210D01*
Y20649D01*
X278237D01*
Y20756D01*
X278264D01*
Y20864D01*
X278291D01*
Y20971D01*
X278318D01*
Y21079D01*
X278345D01*
Y21187D01*
X278372D01*
Y21268D01*
X278399D01*
Y21375D01*
X278426D01*
Y21456D01*
X278453D01*
Y21564D01*
X278480D01*
Y21644D01*
X278506D01*
Y21725D01*
X278533D01*
Y21806D01*
X278560D01*
Y21887D01*
X278587D01*
Y21967D01*
X278614D01*
Y22048D01*
X278641D01*
Y22129D01*
X278668D01*
Y22209D01*
X278695D01*
Y22263D01*
X278722D01*
Y22344D01*
X278749D01*
Y22425D01*
X278776D01*
Y22479D01*
X278802D01*
Y22559D01*
X278829D01*
Y22613D01*
X278856D01*
Y22694D01*
X278883D01*
Y22748D01*
X278910D01*
Y22828D01*
X278937D01*
Y22882D01*
X278964D01*
Y22936D01*
X278991D01*
Y23017D01*
X279018D01*
Y23071D01*
X279045D01*
Y23124D01*
X279072D01*
Y23178D01*
X279099D01*
Y23259D01*
X279125D01*
Y23313D01*
X279152D01*
Y23367D01*
X279179D01*
Y23421D01*
X279206D01*
Y23474D01*
X279233D01*
Y23528D01*
X279260D01*
Y23582D01*
X279287D01*
Y23636D01*
X279314D01*
Y23717D01*
X279341D01*
Y23743D01*
X279368D01*
Y23797D01*
X279395D01*
Y23851D01*
X279421D01*
Y23905D01*
X279448D01*
Y23959D01*
X279475D01*
Y24013D01*
X279502D01*
Y24067D01*
X279529D01*
Y24120D01*
X279556D01*
Y24174D01*
X279583D01*
Y24228D01*
X279610D01*
Y24255D01*
X279637D01*
Y24309D01*
X279664D01*
Y24363D01*
X279691D01*
Y24416D01*
X279717D01*
Y24470D01*
X279744D01*
Y24497D01*
X279771D01*
Y24551D01*
X279798D01*
Y24605D01*
X279825D01*
Y24632D01*
X279852D01*
Y24686D01*
X279879D01*
Y24739D01*
X279906D01*
Y24766D01*
X279933D01*
Y24820D01*
X279960D01*
Y24874D01*
X279987D01*
Y24901D01*
X280013D01*
Y24955D01*
X280041D01*
Y24982D01*
X280067D01*
Y25035D01*
X280094D01*
Y25062D01*
X280121D01*
Y25116D01*
X280148D01*
Y25143D01*
X280175D01*
Y25197D01*
X280202D01*
Y25224D01*
X280229D01*
Y25278D01*
X280256D01*
Y25304D01*
X280283D01*
Y25358D01*
X280310D01*
Y25385D01*
X280336D01*
Y25439D01*
X280363D01*
Y25466D01*
X280390D01*
Y25493D01*
X280417D01*
Y25547D01*
X280444D01*
Y25574D01*
X280471D01*
Y25627D01*
X280498D01*
Y25654D01*
X280525D01*
Y25681D01*
X280552D01*
Y25735D01*
X280579D01*
Y25762D01*
X280606D01*
Y25789D01*
X280632D01*
Y25816D01*
X280660D01*
Y25870D01*
X280686D01*
Y25897D01*
X280713D01*
Y25923D01*
X280740D01*
Y25977D01*
X280767D01*
Y26004D01*
X280794D01*
Y26031D01*
X280821D01*
Y26058D01*
X280848D01*
Y26112D01*
X280875D01*
Y26139D01*
X280902D01*
Y26166D01*
X280929D01*
Y26193D01*
X280956D01*
Y26246D01*
X280982D01*
Y26273D01*
X281009D01*
Y26300D01*
X281036D01*
Y26327D01*
X281063D01*
Y26354D01*
X281090D01*
Y26381D01*
X281117D01*
Y26408D01*
X281144D01*
Y26462D01*
X281171D01*
Y26489D01*
X281198D01*
Y26516D01*
X281225D01*
Y26542D01*
X281252D01*
Y26569D01*
X281278D01*
Y26596D01*
X281305D01*
Y26623D01*
X281332D01*
Y26677D01*
X281359D01*
Y26704D01*
X281386D01*
Y26731D01*
X281413D01*
Y26758D01*
X281440D01*
Y26785D01*
X281467D01*
Y26812D01*
X281494D01*
Y26838D01*
X281521D01*
Y26866D01*
X281548D01*
Y26892D01*
X281575D01*
Y26919D01*
X281601D01*
Y26946D01*
X281628D01*
Y26973D01*
X281655D01*
Y27000D01*
X281682D01*
Y27027D01*
X281709D01*
Y27054D01*
X281736D01*
Y27081D01*
X281763D01*
Y27108D01*
X281790D01*
Y27135D01*
X281817D01*
Y27161D01*
X281844D01*
Y27215D01*
X281897D01*
Y27242D01*
X281924D01*
Y27269D01*
X281951D01*
Y27296D01*
X281978D01*
Y27323D01*
X282005D01*
Y27350D01*
X282032D01*
Y27377D01*
X282059D01*
Y27404D01*
X282086D01*
Y27431D01*
X282113D01*
Y27457D01*
X282140D01*
Y27485D01*
X282167D01*
Y27511D01*
X282193D01*
Y27538D01*
X282220D01*
Y27565D01*
X282247D01*
Y27592D01*
X282274D01*
Y27619D01*
X282301D01*
Y27646D01*
X282355D01*
Y27673D01*
X282382D01*
Y27700D01*
X282409D01*
Y27727D01*
X282436D01*
Y27754D01*
X282463D01*
Y27781D01*
X282490D01*
Y27807D01*
X282517D01*
Y27834D01*
X282543D01*
Y27861D01*
X282597D01*
Y27888D01*
X282624D01*
Y27915D01*
X282651D01*
Y27942D01*
X282678D01*
Y27969D01*
X282705D01*
Y27996D01*
X282732D01*
Y28023D01*
X282786D01*
Y28050D01*
X282812D01*
Y28076D01*
X282839D01*
Y28104D01*
X282866D01*
Y28130D01*
X282920D01*
Y28157D01*
X282947D01*
Y28184D01*
X282974D01*
Y28211D01*
X283001D01*
Y28238D01*
X283055D01*
Y28265D01*
X283082D01*
Y28292D01*
X283109D01*
Y28319D01*
X283136D01*
Y28346D01*
X283189D01*
Y28373D01*
X283216D01*
Y28400D01*
X283243D01*
Y28426D01*
X283297D01*
Y28453D01*
X283324D01*
Y28480D01*
X283351D01*
Y28507D01*
X283405D01*
Y28534D01*
X283432D01*
Y28561D01*
X283458D01*
Y28588D01*
X283512D01*
Y28615D01*
X283539D01*
Y28642D01*
X283566D01*
Y28669D01*
X283620D01*
Y28695D01*
X283647D01*
Y28723D01*
X283701D01*
Y28749D01*
X283728D01*
Y28776D01*
X283781D01*
Y28803D01*
X283808D01*
Y28830D01*
X283862D01*
Y28857D01*
X283889D01*
Y28884D01*
X283943D01*
Y28911D01*
X283970D01*
Y28938D01*
X284024D01*
Y28965D01*
X284050D01*
Y28992D01*
X284104D01*
Y29019D01*
X284158D01*
Y29045D01*
X284185D01*
Y29072D01*
X284239D01*
Y29099D01*
X284266D01*
Y29126D01*
X284320D01*
Y29153D01*
X284373D01*
Y29180D01*
X284400D01*
Y29207D01*
X284454D01*
Y29234D01*
X284508D01*
Y29261D01*
X284535D01*
Y29288D01*
X284589D01*
Y29315D01*
X284616D01*
Y29342D01*
X284669D01*
Y29368D01*
X284723D01*
Y29395D01*
X284777D01*
Y29422D01*
X284831D01*
Y29449D01*
X284858D01*
Y29476D01*
X284912D01*
Y29503D01*
X284966D01*
Y29530D01*
X285019D01*
Y29557D01*
X285073D01*
Y29584D01*
X285127D01*
Y29611D01*
X285154D01*
Y29638D01*
X285235D01*
Y29664D01*
X285262D01*
Y29691D01*
X285315D01*
Y29718D01*
X285396D01*
Y29745D01*
X285423D01*
Y29772D01*
X285504D01*
Y29799D01*
X285558D01*
Y29826D01*
X285612D01*
Y29853D01*
X285665D01*
Y29880D01*
X285719D01*
Y29907D01*
X285773D01*
Y29934D01*
X285854D01*
Y29961D01*
X285908D01*
Y29987D01*
X285961D01*
Y30014D01*
X286042D01*
Y30041D01*
X286096D01*
Y30068D01*
X286177D01*
Y30095D01*
X286230D01*
Y30122D01*
X286311D01*
Y30149D01*
X286365D01*
Y30176D01*
X286446D01*
Y30203D01*
X286500D01*
Y30230D01*
X286580D01*
Y30257D01*
X286634D01*
Y30283D01*
X286715D01*
Y30310D01*
X286796D01*
Y30337D01*
X286849D01*
Y30364D01*
X286930D01*
Y30391D01*
X287011D01*
Y30418D01*
X287092D01*
Y30445D01*
X287172D01*
Y30472D01*
X287253D01*
Y30499D01*
X287334D01*
Y30526D01*
X287442D01*
Y30553D01*
X287522D01*
Y30580D01*
X287603D01*
Y30606D01*
X287711D01*
Y30633D01*
X287791D01*
Y30660D01*
X287926D01*
Y30687D01*
X288007D01*
Y30714D01*
X288141D01*
Y30741D01*
X288222D01*
Y30768D01*
X288357D01*
Y30795D01*
X288491D01*
Y30822D01*
X288599D01*
Y30849D01*
X288733D01*
Y30876D01*
X288895D01*
Y30902D01*
X289029D01*
Y30929D01*
X289191D01*
Y30956D01*
X289352D01*
Y30983D01*
X289541D01*
Y31010D01*
X289756D01*
Y31037D01*
X290025D01*
Y31064D01*
X290267D01*
Y31091D01*
X290806D01*
Y31118D01*
X291909D01*
Y31091D01*
D02*
G37*
%LPC*%
G36*
X250092Y17045D02*
X249850D01*
Y16924D01*
X249729D01*
Y16803D01*
Y16682D01*
Y16440D01*
X249608D01*
Y16319D01*
X249487D01*
Y15957D01*
X249366D01*
Y15473D01*
X249245D01*
Y14989D01*
X250575D01*
Y15594D01*
X250455D01*
Y15836D01*
X250334D01*
Y16198D01*
X250213D01*
Y16440D01*
X250092D01*
Y17045D01*
D02*
G37*
G36*
X226386Y17771D02*
X225903D01*
Y17650D01*
X224935D01*
Y17529D01*
X224814D01*
Y17287D01*
X224693D01*
Y16682D01*
X224814D01*
Y16440D01*
X224935D01*
Y16319D01*
X225298D01*
Y16198D01*
X226507D01*
Y17650D01*
X226386D01*
Y17771D01*
D02*
G37*
G36*
X262065Y10272D02*
X260614D01*
Y10151D01*
X260372D01*
Y10030D01*
X260130D01*
Y9909D01*
X260009D01*
Y9788D01*
X259888D01*
Y9546D01*
X259768D01*
Y9426D01*
X259647D01*
Y9063D01*
X259526D01*
Y7611D01*
X259647D01*
Y7490D01*
X259768D01*
Y7128D01*
X259888D01*
Y7006D01*
X260009D01*
Y6886D01*
X260130D01*
Y6765D01*
X260372D01*
Y6644D01*
X260614D01*
Y6523D01*
X262065D01*
Y10272D01*
D02*
G37*
G36*
X243319D02*
X241746D01*
Y10030D01*
X241625D01*
Y9909D01*
Y9184D01*
X241746D01*
Y9063D01*
X241988D01*
Y8942D01*
X243319D01*
Y10272D01*
D02*
G37*
G36*
X243198Y8458D02*
X242593D01*
Y8337D01*
X242230D01*
Y8458D01*
X241988D01*
Y8337D01*
X241625D01*
Y8216D01*
X241505D01*
Y8095D01*
X241263D01*
Y7732D01*
X241142D01*
Y7369D01*
X241263D01*
Y6886D01*
X241384D01*
Y6765D01*
X241505D01*
Y6644D01*
X241746D01*
Y6523D01*
X243319D01*
Y7128D01*
Y7248D01*
Y8337D01*
X243198D01*
Y8458D01*
D02*
G37*
G36*
X239328Y10272D02*
X237997D01*
Y10151D01*
X237876D01*
Y10030D01*
X237755D01*
Y9788D01*
X237634D01*
Y9063D01*
X237755D01*
Y8700D01*
X237997D01*
Y8579D01*
X238118D01*
Y8458D01*
X238602D01*
Y8337D01*
X238723D01*
Y8458D01*
X238844D01*
Y8337D01*
X239207D01*
Y8458D01*
X239328D01*
Y8579D01*
X239448D01*
Y8700D01*
X239328D01*
Y8942D01*
Y9063D01*
Y10272D01*
D02*
G37*
G36*
X234490Y10030D02*
X234248D01*
Y9909D01*
X234127D01*
Y9788D01*
Y9667D01*
Y9546D01*
X234006D01*
Y8942D01*
X233885D01*
Y8821D01*
X233764D01*
Y8337D01*
X233643D01*
Y8095D01*
X233522D01*
Y7974D01*
X233643D01*
Y7853D01*
X235094D01*
Y8337D01*
X234974D01*
Y8579D01*
X234853D01*
Y8942D01*
X234732D01*
Y9184D01*
X234611D01*
Y9667D01*
X234490D01*
Y10030D01*
D02*
G37*
G36*
X291855Y30203D02*
X290806D01*
Y30176D01*
X290294D01*
Y30149D01*
X289998D01*
Y30122D01*
X289810D01*
Y30095D01*
X289595D01*
Y30068D01*
X289406D01*
Y30041D01*
X289245D01*
Y30014D01*
X289083D01*
Y29987D01*
X288949D01*
Y29961D01*
X288787D01*
Y29934D01*
X288706D01*
Y29907D01*
X288572D01*
Y29880D01*
X288464D01*
Y29853D01*
X288330D01*
Y29826D01*
X288249D01*
Y29799D01*
X288114D01*
Y29772D01*
X288034D01*
Y29745D01*
X287926D01*
Y29718D01*
X287845D01*
Y29691D01*
X287738D01*
Y29664D01*
X287657D01*
Y29638D01*
X287576D01*
Y29611D01*
X287495D01*
Y29584D01*
X287415D01*
Y29557D01*
X287334D01*
Y29530D01*
X287253D01*
Y29503D01*
X287199D01*
Y29476D01*
X287119D01*
Y29449D01*
X287038D01*
Y29422D01*
X286957D01*
Y29395D01*
X286903D01*
Y29368D01*
X286823D01*
Y29342D01*
X286742D01*
Y29315D01*
X286688D01*
Y29288D01*
X286634D01*
Y29261D01*
X286553D01*
Y29234D01*
X286500D01*
Y29207D01*
X286419D01*
Y29180D01*
X286365D01*
Y29153D01*
X286311D01*
Y29126D01*
X286230D01*
Y29099D01*
X286177D01*
Y29072D01*
X286123D01*
Y29045D01*
X286069D01*
Y29019D01*
X286015D01*
Y28992D01*
X285961D01*
Y28965D01*
X285908D01*
Y28938D01*
X285827D01*
Y28911D01*
X285773D01*
Y28884D01*
X285719D01*
Y28857D01*
X285665D01*
Y28830D01*
X285612D01*
Y28803D01*
X285585D01*
Y28776D01*
X285531D01*
Y28749D01*
X285477D01*
Y28723D01*
X285423D01*
Y28695D01*
X285369D01*
Y28669D01*
X285315D01*
Y28642D01*
X285262D01*
Y28615D01*
X285235D01*
Y28588D01*
X285181D01*
Y28561D01*
X285127D01*
Y28534D01*
X285073D01*
Y28507D01*
X285046D01*
Y28480D01*
X284993D01*
Y28453D01*
X284939D01*
Y28426D01*
X284912D01*
Y28400D01*
X284858D01*
Y28373D01*
X284804D01*
Y28346D01*
X284777D01*
Y28319D01*
X284723D01*
Y28292D01*
X284696D01*
Y28265D01*
X284643D01*
Y28238D01*
X284589D01*
Y28211D01*
X284562D01*
Y28184D01*
X284508D01*
Y28157D01*
X284481D01*
Y28130D01*
X284427D01*
Y28104D01*
X284400D01*
Y28076D01*
X284347D01*
Y28050D01*
X284320D01*
Y28023D01*
X284266D01*
Y27996D01*
X284239D01*
Y27969D01*
X284185D01*
Y27942D01*
X284158D01*
Y27915D01*
X284104D01*
Y27888D01*
X284077D01*
Y27861D01*
X284050D01*
Y27834D01*
X283997D01*
Y27807D01*
X283970D01*
Y27781D01*
X283943D01*
Y27754D01*
X283889D01*
Y27727D01*
X283862D01*
Y27700D01*
X283835D01*
Y27673D01*
X283781D01*
Y27646D01*
X283754D01*
Y27619D01*
X283728D01*
Y27592D01*
X283674D01*
Y27565D01*
X283647D01*
Y27538D01*
X283620D01*
Y27511D01*
X283566D01*
Y27485D01*
X283539D01*
Y27457D01*
X283512D01*
Y27431D01*
X283485D01*
Y27404D01*
X283432D01*
Y27377D01*
X283405D01*
Y27350D01*
X283378D01*
Y27323D01*
X283351D01*
Y27296D01*
X283324D01*
Y27269D01*
X283270D01*
Y27242D01*
X283243D01*
Y27215D01*
X283216D01*
Y27188D01*
X283189D01*
Y27161D01*
X283162D01*
Y27135D01*
X283109D01*
Y27108D01*
X283082D01*
Y27081D01*
X283055D01*
Y27054D01*
X283028D01*
Y27027D01*
X283001D01*
Y27000D01*
X282974D01*
Y26973D01*
X282947D01*
Y26946D01*
X282920D01*
Y26919D01*
X282866D01*
Y26892D01*
X282839D01*
Y26866D01*
X282812D01*
Y26838D01*
X282786D01*
Y26812D01*
X282759D01*
Y26785D01*
X282732D01*
Y26758D01*
X282705D01*
Y26731D01*
X282678D01*
Y26704D01*
X282651D01*
Y26677D01*
X282624D01*
Y26650D01*
X282597D01*
Y26623D01*
X282570D01*
Y26596D01*
X282543D01*
Y26569D01*
X282517D01*
Y26542D01*
X282490D01*
Y26516D01*
X282463D01*
Y26489D01*
X282436D01*
Y26462D01*
X282409D01*
Y26435D01*
X282382D01*
Y26408D01*
X282355D01*
Y26381D01*
X282328D01*
Y26354D01*
X282301D01*
Y26327D01*
X282274D01*
Y26300D01*
X282247D01*
Y26273D01*
X282220D01*
Y26246D01*
X282193D01*
Y26219D01*
X282167D01*
Y26193D01*
X282140D01*
Y26166D01*
X282113D01*
Y26139D01*
X282086D01*
Y26112D01*
X282059D01*
Y26085D01*
X282032D01*
Y26058D01*
X282005D01*
Y26031D01*
X281978D01*
Y25977D01*
X281951D01*
Y25950D01*
X281924D01*
Y25923D01*
X281897D01*
Y25897D01*
X281871D01*
Y25870D01*
X281844D01*
Y25843D01*
X281817D01*
Y25816D01*
X281790D01*
Y25762D01*
X281763D01*
Y25735D01*
X281736D01*
Y25708D01*
X281709D01*
Y25681D01*
X281682D01*
Y25654D01*
X281655D01*
Y25627D01*
X281628D01*
Y25574D01*
X281601D01*
Y25547D01*
X281575D01*
Y25520D01*
X281548D01*
Y25493D01*
X281521D01*
Y25439D01*
X281494D01*
Y25412D01*
X281467D01*
Y25385D01*
X281440D01*
Y25331D01*
X281413D01*
Y25304D01*
X281386D01*
Y25278D01*
X281359D01*
Y25224D01*
X281332D01*
Y25197D01*
X281305D01*
Y25170D01*
X281278D01*
Y25116D01*
X281252D01*
Y25089D01*
X281225D01*
Y25062D01*
X281198D01*
Y25008D01*
X281171D01*
Y24982D01*
X281144D01*
Y24955D01*
X281117D01*
Y24901D01*
X281090D01*
Y24874D01*
X281063D01*
Y24820D01*
X281036D01*
Y24793D01*
X281009D01*
Y24766D01*
X280982D01*
Y24712D01*
X280956D01*
Y24686D01*
X280929D01*
Y24632D01*
X280902D01*
Y24605D01*
X280875D01*
Y24551D01*
X280848D01*
Y24524D01*
X280821D01*
Y24470D01*
X280794D01*
Y24443D01*
X280767D01*
Y24389D01*
X280740D01*
Y24336D01*
X280713D01*
Y24309D01*
X280686D01*
Y24255D01*
X280660D01*
Y24228D01*
X280632D01*
Y24174D01*
X280606D01*
Y24120D01*
X280579D01*
Y24093D01*
X280552D01*
Y24040D01*
X280525D01*
Y23986D01*
X280498D01*
Y23932D01*
X280471D01*
Y23905D01*
X280444D01*
Y23851D01*
X280417D01*
Y23797D01*
X280390D01*
Y23743D01*
X280363D01*
Y23717D01*
X280336D01*
Y23663D01*
X280310D01*
Y23609D01*
X280283D01*
Y23555D01*
X280256D01*
Y23501D01*
X280229D01*
Y23448D01*
X280202D01*
Y23394D01*
X280175D01*
Y23340D01*
X280148D01*
Y23286D01*
X280121D01*
Y23232D01*
X280094D01*
Y23178D01*
X280067D01*
Y23124D01*
X280041D01*
Y23071D01*
X280013D01*
Y23017D01*
X279987D01*
Y22963D01*
X279960D01*
Y22909D01*
X279933D01*
Y22828D01*
X279906D01*
Y22775D01*
X279879D01*
Y22721D01*
X279852D01*
Y22667D01*
X279825D01*
Y22586D01*
X279798D01*
Y22532D01*
X279771D01*
Y22479D01*
X279744D01*
Y22398D01*
X279717D01*
Y22344D01*
X279691D01*
Y22263D01*
X279664D01*
Y22209D01*
X279637D01*
Y22129D01*
X279610D01*
Y22048D01*
X279583D01*
Y21967D01*
X279556D01*
Y21913D01*
X279529D01*
Y21833D01*
X279502D01*
Y21752D01*
X279475D01*
Y21671D01*
X279448D01*
Y21590D01*
X279421D01*
Y21510D01*
X279395D01*
Y21429D01*
X279368D01*
Y21348D01*
X279341D01*
Y21241D01*
X279314D01*
Y21160D01*
X279287D01*
Y21079D01*
X279260D01*
Y20971D01*
X279233D01*
Y20864D01*
X279206D01*
Y20756D01*
X279179D01*
Y20649D01*
X279152D01*
Y20541D01*
X279125D01*
Y20433D01*
X279099D01*
Y20299D01*
X279072D01*
Y20191D01*
X279045D01*
Y20056D01*
X279018D01*
Y19895D01*
X278991D01*
Y19734D01*
X278964D01*
Y19572D01*
X278937D01*
Y19384D01*
X278910D01*
Y19168D01*
X278883D01*
Y18926D01*
X278856D01*
Y18630D01*
X278829D01*
Y18226D01*
X278802D01*
Y17042D01*
X278829D01*
Y16665D01*
X278856D01*
Y16396D01*
X278883D01*
Y16154D01*
X278910D01*
Y15966D01*
X278937D01*
Y15777D01*
X278964D01*
Y15589D01*
X278991D01*
Y15454D01*
X279018D01*
Y15293D01*
X279045D01*
Y15158D01*
X279072D01*
Y15024D01*
X279099D01*
Y14916D01*
X279125D01*
Y14782D01*
X279152D01*
Y14674D01*
X279179D01*
Y14566D01*
X279206D01*
Y14485D01*
X279233D01*
Y14378D01*
X279260D01*
Y14270D01*
X279287D01*
Y14189D01*
X279314D01*
Y14109D01*
X279341D01*
Y14001D01*
X279368D01*
Y13920D01*
X279395D01*
Y13839D01*
X279421D01*
Y13759D01*
X279448D01*
Y13678D01*
X279475D01*
Y13597D01*
X279502D01*
Y13517D01*
X279529D01*
Y13436D01*
X279556D01*
Y13355D01*
X279583D01*
Y13301D01*
X279610D01*
Y13220D01*
X279637D01*
Y13140D01*
X279664D01*
Y13086D01*
X279691D01*
Y13005D01*
X279717D01*
Y12951D01*
X279744D01*
Y12871D01*
X279771D01*
Y12817D01*
X279798D01*
Y12736D01*
X279825D01*
Y12682D01*
X279852D01*
Y12628D01*
X279879D01*
Y12548D01*
X279906D01*
Y12494D01*
X279933D01*
Y12440D01*
X279960D01*
Y12386D01*
X279987D01*
Y12332D01*
X280013D01*
Y12279D01*
X280041D01*
Y12225D01*
X280067D01*
Y12171D01*
X280094D01*
Y12117D01*
X280121D01*
Y12063D01*
X280148D01*
Y12009D01*
X280175D01*
Y11956D01*
X280202D01*
Y11902D01*
X280229D01*
Y11848D01*
X280256D01*
Y11794D01*
X280283D01*
Y11740D01*
X280310D01*
Y11687D01*
X280336D01*
Y11660D01*
X280363D01*
Y11606D01*
X280390D01*
Y11552D01*
X280417D01*
Y11498D01*
X280444D01*
Y11444D01*
X280471D01*
Y11417D01*
X280498D01*
Y11364D01*
X280525D01*
Y11310D01*
X280552D01*
Y11256D01*
X280579D01*
Y11229D01*
X280606D01*
Y11175D01*
X280632D01*
Y11148D01*
X280660D01*
Y11094D01*
X280686D01*
Y11040D01*
X280713D01*
Y11014D01*
X280740D01*
Y10960D01*
X280767D01*
Y10906D01*
X280794D01*
Y10879D01*
X280821D01*
Y10825D01*
X280848D01*
Y10798D01*
X280875D01*
Y10745D01*
X280902D01*
Y10718D01*
X280929D01*
Y10664D01*
X280956D01*
Y10637D01*
X280982D01*
Y10583D01*
X281009D01*
Y10556D01*
X281036D01*
Y10502D01*
X281063D01*
Y10475D01*
X281090D01*
Y10448D01*
X281117D01*
Y10395D01*
X281144D01*
Y10368D01*
X281171D01*
Y10314D01*
X281198D01*
Y10287D01*
X281225D01*
Y10260D01*
X281252D01*
Y10206D01*
X281278D01*
Y10179D01*
X281305D01*
Y10152D01*
X281332D01*
Y10099D01*
X281359D01*
Y10072D01*
X281386D01*
Y10045D01*
X281413D01*
Y9991D01*
X281440D01*
Y9964D01*
X281467D01*
Y9937D01*
X281494D01*
Y9910D01*
X281521D01*
Y9856D01*
X281548D01*
Y9829D01*
X281575D01*
Y9803D01*
X281601D01*
Y9776D01*
X281628D01*
Y9722D01*
X281655D01*
Y9695D01*
X281682D01*
Y9668D01*
X281709D01*
Y9641D01*
X281736D01*
Y9614D01*
X281763D01*
Y9560D01*
X281790D01*
Y9533D01*
X281817D01*
Y9506D01*
X281844D01*
Y9480D01*
X281871D01*
Y9453D01*
X281897D01*
Y9426D01*
X281924D01*
Y9372D01*
X281951D01*
Y9345D01*
X281978D01*
Y9318D01*
X282005D01*
Y9291D01*
X282032D01*
Y9264D01*
X282059D01*
Y9237D01*
X282086D01*
Y9210D01*
X282113D01*
Y9183D01*
X282140D01*
Y9157D01*
X282167D01*
Y9130D01*
X282193D01*
Y9076D01*
X282220D01*
Y9049D01*
X282247D01*
Y9022D01*
X282274D01*
Y8995D01*
X282301D01*
Y8968D01*
X282328D01*
Y8941D01*
X282355D01*
Y8914D01*
X282382D01*
Y8888D01*
X282409D01*
Y8861D01*
X282436D01*
Y8834D01*
X282463D01*
Y8807D01*
X282490D01*
Y8780D01*
X282517D01*
Y8753D01*
X282543D01*
Y8726D01*
X282570D01*
Y8699D01*
X282597D01*
Y8672D01*
X282624D01*
Y8645D01*
X282651D01*
Y8618D01*
X282678D01*
Y8591D01*
X282705D01*
Y8564D01*
X282732D01*
Y8538D01*
X282759D01*
Y8511D01*
X282786D01*
Y8484D01*
X282839D01*
Y8457D01*
X282866D01*
Y8430D01*
X282893D01*
Y8403D01*
X282920D01*
Y8376D01*
X282947D01*
Y8349D01*
X282974D01*
Y8322D01*
X283001D01*
Y8295D01*
X283028D01*
Y8269D01*
X283082D01*
Y8242D01*
X283109D01*
Y8215D01*
X283136D01*
Y8188D01*
X283162D01*
Y8161D01*
X283189D01*
Y8134D01*
X283216D01*
Y8107D01*
X283270D01*
Y8080D01*
X283297D01*
Y8053D01*
X283324D01*
Y8026D01*
X283351D01*
Y7999D01*
X283378D01*
Y7972D01*
X283432D01*
Y7946D01*
X283458D01*
Y7919D01*
X283485D01*
Y7892D01*
X283512D01*
Y7865D01*
X283566D01*
Y7838D01*
X283593D01*
Y7811D01*
X283620D01*
Y7784D01*
X283674D01*
Y7757D01*
X283701D01*
Y7730D01*
X283728D01*
Y7703D01*
X283754D01*
Y7676D01*
X283808D01*
Y7649D01*
X283835D01*
Y7623D01*
X283862D01*
Y7596D01*
X283916D01*
Y7569D01*
X283943D01*
Y7542D01*
X283970D01*
Y7515D01*
X284024D01*
Y7488D01*
X284050D01*
Y7461D01*
X284077D01*
Y7434D01*
X284131D01*
Y7407D01*
X284158D01*
Y7380D01*
X284212D01*
Y7353D01*
X284239D01*
Y7327D01*
X284293D01*
Y7300D01*
X284320D01*
Y7273D01*
X284373D01*
Y7246D01*
X284400D01*
Y7219D01*
X284427D01*
Y7192D01*
X284481D01*
Y7165D01*
X284508D01*
Y7138D01*
X284562D01*
Y7111D01*
X284616D01*
Y7084D01*
X284643D01*
Y7057D01*
X284696D01*
Y7030D01*
X284723D01*
Y7004D01*
X284777D01*
Y6977D01*
X284831D01*
Y6950D01*
X284858D01*
Y6923D01*
X284912D01*
Y6896D01*
X284966D01*
Y6869D01*
X284993D01*
Y6842D01*
X285046D01*
Y6815D01*
X285100D01*
Y6788D01*
X285127D01*
Y6761D01*
X285181D01*
Y6734D01*
X285235D01*
Y6707D01*
X285289D01*
Y6681D01*
X285342D01*
Y6654D01*
X285396D01*
Y6627D01*
X285423D01*
Y6600D01*
X285477D01*
Y6573D01*
X285531D01*
Y6546D01*
X285585D01*
Y6519D01*
X285638D01*
Y6492D01*
X285692D01*
Y6465D01*
X285746D01*
Y6438D01*
X285800D01*
Y6412D01*
X285854D01*
Y6385D01*
X285908D01*
Y6358D01*
X285961D01*
Y6331D01*
X286015D01*
Y6304D01*
X286069D01*
Y6277D01*
X286150D01*
Y6250D01*
X286204D01*
Y6223D01*
X286257D01*
Y6196D01*
X286311D01*
Y6169D01*
X286365D01*
Y6142D01*
X286446D01*
Y6115D01*
X286500D01*
Y6089D01*
X286580D01*
Y6062D01*
X286634D01*
Y6035D01*
X286688D01*
Y6008D01*
X286769D01*
Y5981D01*
X286849D01*
Y5954D01*
X286930D01*
Y5927D01*
X286984D01*
Y5900D01*
X287065D01*
Y5873D01*
X287145D01*
Y5846D01*
X287226D01*
Y5819D01*
X287307D01*
Y5793D01*
X287388D01*
Y5766D01*
X287469D01*
Y5739D01*
X287549D01*
Y5712D01*
X287657D01*
Y5685D01*
X287738D01*
Y5658D01*
X287818D01*
Y5631D01*
X287926D01*
Y5604D01*
X288007D01*
Y5577D01*
X288114D01*
Y5550D01*
X288195D01*
Y5523D01*
X288303D01*
Y5496D01*
X288410D01*
Y5469D01*
X288518D01*
Y5443D01*
X288626D01*
Y5416D01*
X288733D01*
Y5389D01*
X288868D01*
Y5362D01*
X289002D01*
Y5335D01*
X289164D01*
Y5308D01*
X289325D01*
Y5281D01*
X289487D01*
Y5254D01*
X289648D01*
Y5227D01*
X289891D01*
Y5200D01*
X290133D01*
Y5173D01*
X290456D01*
Y5147D01*
X290779D01*
Y5120D01*
X291936D01*
Y5147D01*
X292313D01*
Y5173D01*
X292555D01*
Y5200D01*
X292824D01*
Y5227D01*
X293039D01*
Y5254D01*
X293228D01*
Y5281D01*
X293389D01*
Y5308D01*
X293551D01*
Y5335D01*
X293685D01*
Y5362D01*
X293847D01*
Y5389D01*
X293982D01*
Y5416D01*
X294116D01*
Y5443D01*
X294224D01*
Y5469D01*
X294331D01*
Y5496D01*
X294439D01*
Y5523D01*
X294547D01*
Y5550D01*
X294654D01*
Y5577D01*
X294735D01*
Y5604D01*
X294843D01*
Y5631D01*
X294923D01*
Y5658D01*
X295004D01*
Y5685D01*
X295085D01*
Y5712D01*
X295193D01*
Y5739D01*
X295273D01*
Y5766D01*
X295354D01*
Y5793D01*
X295435D01*
Y5819D01*
X295489D01*
Y5846D01*
X295569D01*
Y5873D01*
X295650D01*
Y5900D01*
X295731D01*
Y5927D01*
X295812D01*
Y5954D01*
X295865D01*
Y5981D01*
X295946D01*
Y6008D01*
X296000D01*
Y6035D01*
X296081D01*
Y6062D01*
X296134D01*
Y6089D01*
X296215D01*
Y6115D01*
X296269D01*
Y6142D01*
X296350D01*
Y6169D01*
X296404D01*
Y6196D01*
X296458D01*
Y6223D01*
X296511D01*
Y6250D01*
X296592D01*
Y6277D01*
X296646D01*
Y6304D01*
X296700D01*
Y6331D01*
X296754D01*
Y6358D01*
X296807D01*
Y6385D01*
X296861D01*
Y6412D01*
X296915D01*
Y6438D01*
X296969D01*
Y6465D01*
X297023D01*
Y6492D01*
X297077D01*
Y6519D01*
X297130D01*
Y6546D01*
X297184D01*
Y6573D01*
X297238D01*
Y6600D01*
X297265D01*
Y6627D01*
X297319D01*
Y6654D01*
X297373D01*
Y6681D01*
X297426D01*
Y6707D01*
X297480D01*
Y6734D01*
X297534D01*
Y6761D01*
X297561D01*
Y6788D01*
X297615D01*
Y6815D01*
X297669D01*
Y6842D01*
X297722D01*
Y6869D01*
X297749D01*
Y6896D01*
X297803D01*
Y6923D01*
X297857D01*
Y6950D01*
X297884D01*
Y6977D01*
X297938D01*
Y7004D01*
X297991D01*
Y7030D01*
X298018D01*
Y7057D01*
X298072D01*
Y7084D01*
X298099D01*
Y7111D01*
X298153D01*
Y7138D01*
X298207D01*
Y7165D01*
X298234D01*
Y7192D01*
X298288D01*
Y7219D01*
X298314D01*
Y7246D01*
X298341D01*
Y7273D01*
X298395D01*
Y7300D01*
X298449D01*
Y7327D01*
X298476D01*
Y7353D01*
X298503D01*
Y7380D01*
X298557D01*
Y7407D01*
X298584D01*
Y7434D01*
X298637D01*
Y7461D01*
X298664D01*
Y7488D01*
X298691D01*
Y7515D01*
X298745D01*
Y7542D01*
X298772D01*
Y7569D01*
X298826D01*
Y7596D01*
X298853D01*
Y7623D01*
X298880D01*
Y7649D01*
X298934D01*
Y7676D01*
X298960D01*
Y7703D01*
X298987D01*
Y7730D01*
X299041D01*
Y7757D01*
X299068D01*
Y7784D01*
X299095D01*
Y7811D01*
X299122D01*
Y7838D01*
X299176D01*
Y7865D01*
X299203D01*
Y7892D01*
X299230D01*
Y7919D01*
X299256D01*
Y7946D01*
X299310D01*
Y7972D01*
X299337D01*
Y7999D01*
X299364D01*
Y8026D01*
X299391D01*
Y8053D01*
X299418D01*
Y8080D01*
X299472D01*
Y8107D01*
X299499D01*
Y8134D01*
X299526D01*
Y8161D01*
X299552D01*
Y8188D01*
X299579D01*
Y8215D01*
X299606D01*
Y8242D01*
X299660D01*
Y8269D01*
X299687D01*
Y8295D01*
X299714D01*
Y8322D01*
X299741D01*
Y8349D01*
X299768D01*
Y8376D01*
X299795D01*
Y8403D01*
X299822D01*
Y8430D01*
X299849D01*
Y8457D01*
X299875D01*
Y8484D01*
X299902D01*
Y8511D01*
X299956D01*
Y8538D01*
X299983D01*
Y8564D01*
X300010D01*
Y8591D01*
X300037D01*
Y8618D01*
X300064D01*
Y8645D01*
X300091D01*
Y8672D01*
X300118D01*
Y8699D01*
X300145D01*
Y8726D01*
X300171D01*
Y8753D01*
X300198D01*
Y8780D01*
X300225D01*
Y8807D01*
X300252D01*
Y8834D01*
X300279D01*
Y8861D01*
X300306D01*
Y8888D01*
X300333D01*
Y8914D01*
X300360D01*
Y8941D01*
X300387D01*
Y8968D01*
X300414D01*
Y8995D01*
X300441D01*
Y9022D01*
X300467D01*
Y9049D01*
X300494D01*
Y9076D01*
X300521D01*
Y9103D01*
X300548D01*
Y9130D01*
X300575D01*
Y9157D01*
X300602D01*
Y9210D01*
X300629D01*
Y9237D01*
X300656D01*
Y9264D01*
X300683D01*
Y9291D01*
X300710D01*
Y9318D01*
X300737D01*
Y9345D01*
X300764D01*
Y9372D01*
X300791D01*
Y9399D01*
X300817D01*
Y9426D01*
X300844D01*
Y9480D01*
X300871D01*
Y9506D01*
X300898D01*
Y9533D01*
X300925D01*
Y9560D01*
X300952D01*
Y9587D01*
X300979D01*
Y9641D01*
X301006D01*
Y9668D01*
X301033D01*
Y9695D01*
X301060D01*
Y9722D01*
X301086D01*
Y9749D01*
X301113D01*
Y9803D01*
X301140D01*
Y9829D01*
X301167D01*
Y9856D01*
X301194D01*
Y9883D01*
X301221D01*
Y9937D01*
X301248D01*
Y9964D01*
X301275D01*
Y9991D01*
X301302D01*
Y10045D01*
X301329D01*
Y10072D01*
X301356D01*
Y10099D01*
X301383D01*
Y10152D01*
X301410D01*
Y10179D01*
X301436D01*
Y10206D01*
X301463D01*
Y10260D01*
X301490D01*
Y10287D01*
X301517D01*
Y10314D01*
X301544D01*
Y10368D01*
X301571D01*
Y10395D01*
X301598D01*
Y10448D01*
X301625D01*
Y10475D01*
X301652D01*
Y10502D01*
X301679D01*
Y10556D01*
X301706D01*
Y10583D01*
X301732D01*
Y10637D01*
X301759D01*
Y10664D01*
X301786D01*
Y10718D01*
X301813D01*
Y10745D01*
X301840D01*
Y10798D01*
X301867D01*
Y10825D01*
X301894D01*
Y10879D01*
X301921D01*
Y10906D01*
X301948D01*
Y10960D01*
X301975D01*
Y10987D01*
X302002D01*
Y11040D01*
X302028D01*
Y11094D01*
X302055D01*
Y11121D01*
X302082D01*
Y11175D01*
X302109D01*
Y11229D01*
X302136D01*
Y11256D01*
X302163D01*
Y11310D01*
X302190D01*
Y11364D01*
X302217D01*
Y11390D01*
X302244D01*
Y11444D01*
X302271D01*
Y11498D01*
X302298D01*
Y11552D01*
X302325D01*
Y11579D01*
X302351D01*
Y11633D01*
X302378D01*
Y11687D01*
X302405D01*
Y11740D01*
X302432D01*
Y11794D01*
X302459D01*
Y11848D01*
X302486D01*
Y11902D01*
X302513D01*
Y11929D01*
X302540D01*
Y12009D01*
X302567D01*
Y12063D01*
X302594D01*
Y12090D01*
X302621D01*
Y12171D01*
X302647D01*
Y12225D01*
X302674D01*
Y12279D01*
X302701D01*
Y12332D01*
X302728D01*
Y12386D01*
X302755D01*
Y12440D01*
X302782D01*
Y12494D01*
X302809D01*
Y12575D01*
X302836D01*
Y12628D01*
X302863D01*
Y12682D01*
X302890D01*
Y12763D01*
X302917D01*
Y12817D01*
X302943D01*
Y12898D01*
X302970D01*
Y12951D01*
X302997D01*
Y13005D01*
X303024D01*
Y13086D01*
X303051D01*
Y13167D01*
X303078D01*
Y13220D01*
X303105D01*
Y13301D01*
X303132D01*
Y13382D01*
X303159D01*
Y13436D01*
X303186D01*
Y13517D01*
X303213D01*
Y13597D01*
X303240D01*
Y13678D01*
X303267D01*
Y13759D01*
X303293D01*
Y13839D01*
X303320D01*
Y13920D01*
X303347D01*
Y14001D01*
X303374D01*
Y14109D01*
X303401D01*
Y14189D01*
X303428D01*
Y14297D01*
X303455D01*
Y14378D01*
X303482D01*
Y14485D01*
X303509D01*
Y14593D01*
X303536D01*
Y14701D01*
X303562D01*
Y14808D01*
X303589D01*
Y14916D01*
X303616D01*
Y15051D01*
X303643D01*
Y15185D01*
X303670D01*
Y15320D01*
X303697D01*
Y15454D01*
X303724D01*
Y15616D01*
X303751D01*
Y15777D01*
X303778D01*
Y15966D01*
X303805D01*
Y16154D01*
X303832D01*
Y16396D01*
X303859D01*
Y16692D01*
X303886D01*
Y17284D01*
X303912D01*
Y17957D01*
X303886D01*
Y18522D01*
X303859D01*
Y18845D01*
X303832D01*
Y19115D01*
X303805D01*
Y19330D01*
X303778D01*
Y19518D01*
X303751D01*
Y19680D01*
X303724D01*
Y19841D01*
X303697D01*
Y19976D01*
X303670D01*
Y20137D01*
X303643D01*
Y20245D01*
X303616D01*
Y20379D01*
X303589D01*
Y20487D01*
X303562D01*
Y20622D01*
X303536D01*
Y20729D01*
X303509D01*
Y20837D01*
X303482D01*
Y20918D01*
X303455D01*
Y21025D01*
X303428D01*
Y21133D01*
X303401D01*
Y21214D01*
X303374D01*
Y21321D01*
X303347D01*
Y21402D01*
X303320D01*
Y21483D01*
X303293D01*
Y21564D01*
X303267D01*
Y21644D01*
X303240D01*
Y21725D01*
X303213D01*
Y21806D01*
X303186D01*
Y21860D01*
X303159D01*
Y21940D01*
X303132D01*
Y22021D01*
X303105D01*
Y22075D01*
X303078D01*
Y22156D01*
X303051D01*
Y22209D01*
X303024D01*
Y22290D01*
X302997D01*
Y22344D01*
X302970D01*
Y22425D01*
X302943D01*
Y22479D01*
X302917D01*
Y22559D01*
X302890D01*
Y22613D01*
X302863D01*
Y22667D01*
X302836D01*
Y22721D01*
X302809D01*
Y22802D01*
X302782D01*
Y22855D01*
X302755D01*
Y22909D01*
X302728D01*
Y22963D01*
X302701D01*
Y23017D01*
X302674D01*
Y23071D01*
X302647D01*
Y23151D01*
X302621D01*
Y23205D01*
X302594D01*
Y23259D01*
X302567D01*
Y23313D01*
X302540D01*
Y23367D01*
X302513D01*
Y23421D01*
X302486D01*
Y23474D01*
X302459D01*
Y23501D01*
X302432D01*
Y23555D01*
X302405D01*
Y23609D01*
X302378D01*
Y23663D01*
X302351D01*
Y23717D01*
X302325D01*
Y23770D01*
X302298D01*
Y23824D01*
X302271D01*
Y23851D01*
X302244D01*
Y23905D01*
X302217D01*
Y23959D01*
X302190D01*
Y23986D01*
X302163D01*
Y24040D01*
X302136D01*
Y24093D01*
X302109D01*
Y24120D01*
X302082D01*
Y24174D01*
X302055D01*
Y24228D01*
X302028D01*
Y24255D01*
X302002D01*
Y24309D01*
X301975D01*
Y24336D01*
X301948D01*
Y24389D01*
X301921D01*
Y24443D01*
X301894D01*
Y24470D01*
X301867D01*
Y24524D01*
X301840D01*
Y24551D01*
X301813D01*
Y24605D01*
X301786D01*
Y24632D01*
X301759D01*
Y24686D01*
X301732D01*
Y24712D01*
X301706D01*
Y24766D01*
X301679D01*
Y24793D01*
X301652D01*
Y24847D01*
X301625D01*
Y24874D01*
X301598D01*
Y24901D01*
X301571D01*
Y24955D01*
X301544D01*
Y24982D01*
X301517D01*
Y25035D01*
X301490D01*
Y25062D01*
X301463D01*
Y25089D01*
X301436D01*
Y25143D01*
X301410D01*
Y25170D01*
X301383D01*
Y25197D01*
X301356D01*
Y25251D01*
X301329D01*
Y25278D01*
X301302D01*
Y25304D01*
X301275D01*
Y25358D01*
X301248D01*
Y25385D01*
X301221D01*
Y25412D01*
X301194D01*
Y25439D01*
X301167D01*
Y25493D01*
X301140D01*
Y25520D01*
X301113D01*
Y25547D01*
X301086D01*
Y25574D01*
X301060D01*
Y25627D01*
X301033D01*
Y25654D01*
X301006D01*
Y25681D01*
X300979D01*
Y25708D01*
X300952D01*
Y25762D01*
X300925D01*
Y25789D01*
X300898D01*
Y25816D01*
X300871D01*
Y25843D01*
X300844D01*
Y25870D01*
X300817D01*
Y25897D01*
X300791D01*
Y25923D01*
X300764D01*
Y25977D01*
X300737D01*
Y26004D01*
X300710D01*
Y26031D01*
X300683D01*
Y26058D01*
X300656D01*
Y26085D01*
X300629D01*
Y26112D01*
X300602D01*
Y26139D01*
X300575D01*
Y26166D01*
X300548D01*
Y26193D01*
X300521D01*
Y26219D01*
X300494D01*
Y26246D01*
X300467D01*
Y26273D01*
X300441D01*
Y26300D01*
X300414D01*
Y26327D01*
X300387D01*
Y26354D01*
X300360D01*
Y26381D01*
X300333D01*
Y26408D01*
X300306D01*
Y26435D01*
X300279D01*
Y26489D01*
X300252D01*
Y26516D01*
X300225D01*
Y26542D01*
X300171D01*
Y26569D01*
X300145D01*
Y26596D01*
X300118D01*
Y26623D01*
X300091D01*
Y26650D01*
X300064D01*
Y26677D01*
X300037D01*
Y26704D01*
X300010D01*
Y26731D01*
X299983D01*
Y26758D01*
X299956D01*
Y26785D01*
X299929D01*
Y26812D01*
X299902D01*
Y26838D01*
X299875D01*
Y26866D01*
X299849D01*
Y26892D01*
X299822D01*
Y26919D01*
X299795D01*
Y26946D01*
X299768D01*
Y26973D01*
X299741D01*
Y27000D01*
X299714D01*
Y27027D01*
X299660D01*
Y27054D01*
X299633D01*
Y27081D01*
X299606D01*
Y27108D01*
X299579D01*
Y27135D01*
X299552D01*
Y27161D01*
X299526D01*
Y27188D01*
X299499D01*
Y27215D01*
X299445D01*
Y27242D01*
X299418D01*
Y27269D01*
X299391D01*
Y27296D01*
X299364D01*
Y27323D01*
X299337D01*
Y27350D01*
X299310D01*
Y27377D01*
X299256D01*
Y27404D01*
X299230D01*
Y27431D01*
X299203D01*
Y27457D01*
X299176D01*
Y27485D01*
X299122D01*
Y27511D01*
X299095D01*
Y27538D01*
X299068D01*
Y27565D01*
X299041D01*
Y27592D01*
X298987D01*
Y27619D01*
X298960D01*
Y27646D01*
X298934D01*
Y27673D01*
X298880D01*
Y27700D01*
X298853D01*
Y27727D01*
X298826D01*
Y27754D01*
X298772D01*
Y27781D01*
X298745D01*
Y27807D01*
X298691D01*
Y27834D01*
X298664D01*
Y27861D01*
X298637D01*
Y27888D01*
X298584D01*
Y27915D01*
X298557D01*
Y27942D01*
X298503D01*
Y27969D01*
X298476D01*
Y27996D01*
X298449D01*
Y28023D01*
X298395D01*
Y28050D01*
X298341D01*
Y28076D01*
X298314D01*
Y28104D01*
X298261D01*
Y28130D01*
X298234D01*
Y28157D01*
X298180D01*
Y28184D01*
X298153D01*
Y28211D01*
X298099D01*
Y28238D01*
X298072D01*
Y28265D01*
X298018D01*
Y28292D01*
X297991D01*
Y28319D01*
X297938D01*
Y28346D01*
X297884D01*
Y28373D01*
X297857D01*
Y28400D01*
X297803D01*
Y28426D01*
X297749D01*
Y28453D01*
X297722D01*
Y28480D01*
X297669D01*
Y28507D01*
X297615D01*
Y28534D01*
X297561D01*
Y28561D01*
X297534D01*
Y28588D01*
X297480D01*
Y28615D01*
X297426D01*
Y28642D01*
X297373D01*
Y28669D01*
X297319D01*
Y28695D01*
X297292D01*
Y28723D01*
X297238D01*
Y28749D01*
X297184D01*
Y28776D01*
X297130D01*
Y28803D01*
X297077D01*
Y28830D01*
X297023D01*
Y28857D01*
X296969D01*
Y28884D01*
X296915D01*
Y28911D01*
X296861D01*
Y28938D01*
X296807D01*
Y28965D01*
X296754D01*
Y28992D01*
X296673D01*
Y29019D01*
X296619D01*
Y29045D01*
X296565D01*
Y29072D01*
X296511D01*
Y29099D01*
X296458D01*
Y29126D01*
X296377D01*
Y29153D01*
X296323D01*
Y29180D01*
X296269D01*
Y29207D01*
X296188D01*
Y29234D01*
X296134D01*
Y29261D01*
X296054D01*
Y29288D01*
X296000D01*
Y29315D01*
X295919D01*
Y29342D01*
X295865D01*
Y29368D01*
X295785D01*
Y29395D01*
X295704D01*
Y29422D01*
X295650D01*
Y29449D01*
X295569D01*
Y29476D01*
X295489D01*
Y29503D01*
X295408D01*
Y29530D01*
X295354D01*
Y29557D01*
X295246D01*
Y29584D01*
X295166D01*
Y29611D01*
X295085D01*
Y29638D01*
X295004D01*
Y29664D01*
X294923D01*
Y29691D01*
X294843D01*
Y29718D01*
X294735D01*
Y29745D01*
X294654D01*
Y29772D01*
X294547D01*
Y29799D01*
X294439D01*
Y29826D01*
X294331D01*
Y29853D01*
X294224D01*
Y29880D01*
X294116D01*
Y29907D01*
X293982D01*
Y29934D01*
X293874D01*
Y29961D01*
X293712D01*
Y29987D01*
X293578D01*
Y30014D01*
X293443D01*
Y30041D01*
X293255D01*
Y30068D01*
X293066D01*
Y30095D01*
X292851D01*
Y30122D01*
X292582D01*
Y30149D01*
X292367D01*
Y30176D01*
X291855D01*
Y30203D01*
D02*
G37*
%LPD*%
G36*
X292124Y27996D02*
X292447D01*
Y27969D01*
X292690D01*
Y27942D01*
X292851D01*
Y27915D01*
X293039D01*
Y27888D01*
X293201D01*
Y27861D01*
X293362D01*
Y27834D01*
X293497D01*
Y27807D01*
X293632D01*
Y27781D01*
X293739D01*
Y27754D01*
X293847D01*
Y27727D01*
X293955D01*
Y27700D01*
X294062D01*
Y27673D01*
X294170D01*
Y27646D01*
X294278D01*
Y27619D01*
X294358D01*
Y27592D01*
X294439D01*
Y27565D01*
X294520D01*
Y27538D01*
X294601D01*
Y27511D01*
X294681D01*
Y27485D01*
X294762D01*
Y27457D01*
X294843D01*
Y27431D01*
X294897D01*
Y27404D01*
X294977D01*
Y27377D01*
X295058D01*
Y27350D01*
X295112D01*
Y27323D01*
X295193D01*
Y27296D01*
X295273D01*
Y27269D01*
X295327D01*
Y27242D01*
X295381D01*
Y27215D01*
X295462D01*
Y27188D01*
X295515D01*
Y27161D01*
X295569D01*
Y27135D01*
X295650D01*
Y27108D01*
X295704D01*
Y27081D01*
X295758D01*
Y27054D01*
X295812D01*
Y27027D01*
X295865D01*
Y27000D01*
X295919D01*
Y26973D01*
X295973D01*
Y26946D01*
X296027D01*
Y26919D01*
X296081D01*
Y26892D01*
X296134D01*
Y26866D01*
X296188D01*
Y26838D01*
X296242D01*
Y26812D01*
X296296D01*
Y26785D01*
X296323D01*
Y26758D01*
X296377D01*
Y26731D01*
X296430D01*
Y26704D01*
X296458D01*
Y26677D01*
X296511D01*
Y26650D01*
X296565D01*
Y26623D01*
X296619D01*
Y26596D01*
X296646D01*
Y26569D01*
X296700D01*
Y26542D01*
X296754D01*
Y26516D01*
X296780D01*
Y26489D01*
X296834D01*
Y26462D01*
X296861D01*
Y26435D01*
X296915D01*
Y26408D01*
X296969D01*
Y26381D01*
X296996D01*
Y26354D01*
X297050D01*
Y26327D01*
X297077D01*
Y26300D01*
X297130D01*
Y26273D01*
X297157D01*
Y26246D01*
X297211D01*
Y26219D01*
X297238D01*
Y26193D01*
X297292D01*
Y26166D01*
X297319D01*
Y26139D01*
X297346D01*
Y26112D01*
X297399D01*
Y26085D01*
X297426D01*
Y26058D01*
X297480D01*
Y26031D01*
X297507D01*
Y26004D01*
X297534D01*
Y25977D01*
X297588D01*
Y25950D01*
X297615D01*
Y25923D01*
X297642D01*
Y25897D01*
X297695D01*
Y25870D01*
X297722D01*
Y25843D01*
X297749D01*
Y25816D01*
X297803D01*
Y25789D01*
X297830D01*
Y25762D01*
X297857D01*
Y25735D01*
X297884D01*
Y25708D01*
X297911D01*
Y25681D01*
X297965D01*
Y25654D01*
X297991D01*
Y25627D01*
X298018D01*
Y25600D01*
X298045D01*
Y25574D01*
X298099D01*
Y25547D01*
X298126D01*
Y25520D01*
X298153D01*
Y25493D01*
X298180D01*
Y25466D01*
X298207D01*
Y25439D01*
X298234D01*
Y25412D01*
X298261D01*
Y25385D01*
X298314D01*
Y25358D01*
X298341D01*
Y25331D01*
X298368D01*
Y25304D01*
X298395D01*
Y25278D01*
X298422D01*
Y25251D01*
X298449D01*
Y25224D01*
X298476D01*
Y25197D01*
X298503D01*
Y25170D01*
X298530D01*
Y25143D01*
X298557D01*
Y25116D01*
X298584D01*
Y25089D01*
X298610D01*
Y25062D01*
X298637D01*
Y25035D01*
X298664D01*
Y25008D01*
X298691D01*
Y24982D01*
X298718D01*
Y24955D01*
X298745D01*
Y24928D01*
X298772D01*
Y24901D01*
X298799D01*
Y24874D01*
X298826D01*
Y24847D01*
X298853D01*
Y24820D01*
X298880D01*
Y24793D01*
X298907D01*
Y24766D01*
X298934D01*
Y24739D01*
X298960D01*
Y24712D01*
X298987D01*
Y24686D01*
X299014D01*
Y24659D01*
X299041D01*
Y24632D01*
X299068D01*
Y24578D01*
X299095D01*
Y24551D01*
X299122D01*
Y24524D01*
X299149D01*
Y24497D01*
X299176D01*
Y24470D01*
X299203D01*
Y24443D01*
X299230D01*
Y24416D01*
X299256D01*
Y24363D01*
X299283D01*
Y24336D01*
X299310D01*
Y24309D01*
X299337D01*
Y24282D01*
X299364D01*
Y24228D01*
X299391D01*
Y24201D01*
X299418D01*
Y24174D01*
X299445D01*
Y24147D01*
X299472D01*
Y24093D01*
X299499D01*
Y24067D01*
X299526D01*
Y24040D01*
X299552D01*
Y24013D01*
X299579D01*
Y23959D01*
X299606D01*
Y23932D01*
X299633D01*
Y23905D01*
X299660D01*
Y23851D01*
X299687D01*
Y23824D01*
X299714D01*
Y23797D01*
X299741D01*
Y23743D01*
X299768D01*
Y23717D01*
X299795D01*
Y23663D01*
X299822D01*
Y23636D01*
X299849D01*
Y23609D01*
X299875D01*
Y23555D01*
X299902D01*
Y23528D01*
X299929D01*
Y23474D01*
X299956D01*
Y23448D01*
X299983D01*
Y23394D01*
X300010D01*
Y23367D01*
X300037D01*
Y23313D01*
X300064D01*
Y23286D01*
X300091D01*
Y23232D01*
X300118D01*
Y23205D01*
X300145D01*
Y23151D01*
X300171D01*
Y23098D01*
X300198D01*
Y23071D01*
X300225D01*
Y23017D01*
X300252D01*
Y22990D01*
X300279D01*
Y22936D01*
X300306D01*
Y22882D01*
X300333D01*
Y22828D01*
X300360D01*
Y22802D01*
X300387D01*
Y22748D01*
X300414D01*
Y22694D01*
X300441D01*
Y22640D01*
X300467D01*
Y22613D01*
X300494D01*
Y22559D01*
X300521D01*
Y22505D01*
X300548D01*
Y22452D01*
X300575D01*
Y22398D01*
X300602D01*
Y22344D01*
X300629D01*
Y22290D01*
X300656D01*
Y22236D01*
X300683D01*
Y22183D01*
X300710D01*
Y22129D01*
X300737D01*
Y22075D01*
X300764D01*
Y22021D01*
X300791D01*
Y21967D01*
X300817D01*
Y21887D01*
X300844D01*
Y21833D01*
X300871D01*
Y21779D01*
X300898D01*
Y21725D01*
X300925D01*
Y21644D01*
X300952D01*
Y21590D01*
X300979D01*
Y21510D01*
X301006D01*
Y21456D01*
X301033D01*
Y21375D01*
X301060D01*
Y21321D01*
X301086D01*
Y21241D01*
X301113D01*
Y21160D01*
X301140D01*
Y21079D01*
X301167D01*
Y20998D01*
X301194D01*
Y20918D01*
X301221D01*
Y20837D01*
X301248D01*
Y20756D01*
X301275D01*
Y20675D01*
X301302D01*
Y20568D01*
X301329D01*
Y20487D01*
X301356D01*
Y20379D01*
X301383D01*
Y20272D01*
X301410D01*
Y20164D01*
X301436D01*
Y20056D01*
X301463D01*
Y19949D01*
X301490D01*
Y19814D01*
X301517D01*
Y19707D01*
X301544D01*
Y19572D01*
X301571D01*
Y19410D01*
X301598D01*
Y19249D01*
X301625D01*
Y19061D01*
X301652D01*
Y18845D01*
X301679D01*
Y18576D01*
X301706D01*
Y18172D01*
X301732D01*
Y17150D01*
X301706D01*
Y16746D01*
X301679D01*
Y16504D01*
X301652D01*
Y16289D01*
X301625D01*
Y16100D01*
X301598D01*
Y15939D01*
X301571D01*
Y15777D01*
X301544D01*
Y15643D01*
X301517D01*
Y15508D01*
X301490D01*
Y15401D01*
X301463D01*
Y15266D01*
X301436D01*
Y15158D01*
X301410D01*
Y15051D01*
X301383D01*
Y14943D01*
X301356D01*
Y14862D01*
X301329D01*
Y14755D01*
X301302D01*
Y14674D01*
X301275D01*
Y14566D01*
X301248D01*
Y14485D01*
X301221D01*
Y14405D01*
X301194D01*
Y14324D01*
X301167D01*
Y14270D01*
X301140D01*
Y14189D01*
X301113D01*
Y14109D01*
X301086D01*
Y14028D01*
X301060D01*
Y13974D01*
X301033D01*
Y13893D01*
X301006D01*
Y13839D01*
X300979D01*
Y13759D01*
X300952D01*
Y13705D01*
X300925D01*
Y13624D01*
X300898D01*
Y13570D01*
X300871D01*
Y13517D01*
X300844D01*
Y13463D01*
X300817D01*
Y13382D01*
X300791D01*
Y13328D01*
X300764D01*
Y13274D01*
X300737D01*
Y13220D01*
X300710D01*
Y13167D01*
X300683D01*
Y13113D01*
X300656D01*
Y13059D01*
X300629D01*
Y13005D01*
X300602D01*
Y12951D01*
X300575D01*
Y12898D01*
X300548D01*
Y12844D01*
X300521D01*
Y12790D01*
X300494D01*
Y12736D01*
X300467D01*
Y12709D01*
X300441D01*
Y12655D01*
X300414D01*
Y12601D01*
X300387D01*
Y12548D01*
X300360D01*
Y12494D01*
X300333D01*
Y12467D01*
X300306D01*
Y12413D01*
X300279D01*
Y12359D01*
X300252D01*
Y12332D01*
X300225D01*
Y12279D01*
X300198D01*
Y12225D01*
X300171D01*
Y12198D01*
X300145D01*
Y12144D01*
X300118D01*
Y12117D01*
X300091D01*
Y12063D01*
X300064D01*
Y12009D01*
X300037D01*
Y11982D01*
X300010D01*
Y11929D01*
X299983D01*
Y11902D01*
X299956D01*
Y11848D01*
X299929D01*
Y11821D01*
X299902D01*
Y11767D01*
X299875D01*
Y11740D01*
X299849D01*
Y11713D01*
X299822D01*
Y11660D01*
X299795D01*
Y11633D01*
X299768D01*
Y11579D01*
X299741D01*
Y11552D01*
X299714D01*
Y11525D01*
X299687D01*
Y11471D01*
X299660D01*
Y11444D01*
X299633D01*
Y11417D01*
X299606D01*
Y11364D01*
X299579D01*
Y11337D01*
X299552D01*
Y11310D01*
X299526D01*
Y11256D01*
X299499D01*
Y11229D01*
X299472D01*
Y11202D01*
X299445D01*
Y11175D01*
X299418D01*
Y11121D01*
X299391D01*
Y11094D01*
X299364D01*
Y11067D01*
X299337D01*
Y11040D01*
X299310D01*
Y10987D01*
X299283D01*
Y10960D01*
X299256D01*
Y10933D01*
X299230D01*
Y10906D01*
X299203D01*
Y10879D01*
X299176D01*
Y10852D01*
X299149D01*
Y10798D01*
X299122D01*
Y10771D01*
X299095D01*
Y10745D01*
X299068D01*
Y10718D01*
X299041D01*
Y10691D01*
X299014D01*
Y10664D01*
X298987D01*
Y10637D01*
X298960D01*
Y10610D01*
X298934D01*
Y10583D01*
X298907D01*
Y10556D01*
X298880D01*
Y10502D01*
X298853D01*
Y10475D01*
X298826D01*
Y10448D01*
X298799D01*
Y10422D01*
X298772D01*
Y10395D01*
X298745D01*
Y10368D01*
X298718D01*
Y10341D01*
X298691D01*
Y10314D01*
X298664D01*
Y10287D01*
X298637D01*
Y10260D01*
X298610D01*
Y10233D01*
X298584D01*
Y10206D01*
X298557D01*
Y10179D01*
X298530D01*
Y10152D01*
X298503D01*
Y10125D01*
X298476D01*
Y10099D01*
X298422D01*
Y10072D01*
X298395D01*
Y10045D01*
X298368D01*
Y10018D01*
X298341D01*
Y9991D01*
X298314D01*
Y9964D01*
X298288D01*
Y9937D01*
X298261D01*
Y9910D01*
X298234D01*
Y9883D01*
X298207D01*
Y9856D01*
X298180D01*
Y9829D01*
X298126D01*
Y9803D01*
X298099D01*
Y9776D01*
X298072D01*
Y9749D01*
X298045D01*
Y9722D01*
X298018D01*
Y9695D01*
X297991D01*
Y9668D01*
X297938D01*
Y9641D01*
X297911D01*
Y9614D01*
X297884D01*
Y9587D01*
X297857D01*
Y9560D01*
X297803D01*
Y9533D01*
X297776D01*
Y9506D01*
X297749D01*
Y9480D01*
X297722D01*
Y9453D01*
X297669D01*
Y9426D01*
X297642D01*
Y9399D01*
X297615D01*
Y9372D01*
X297561D01*
Y9345D01*
X297534D01*
Y9318D01*
X297507D01*
Y9291D01*
X297453D01*
Y9264D01*
X297426D01*
Y9237D01*
X297373D01*
Y9210D01*
X297346D01*
Y9183D01*
X297319D01*
Y9157D01*
X297265D01*
Y9130D01*
X297238D01*
Y9103D01*
X297184D01*
Y9076D01*
X297157D01*
Y9049D01*
X297103D01*
Y9022D01*
X297077D01*
Y8995D01*
X297023D01*
Y8968D01*
X296996D01*
Y8941D01*
X296942D01*
Y8914D01*
X296915D01*
Y8888D01*
X296861D01*
Y8861D01*
X296807D01*
Y8834D01*
X296780D01*
Y8807D01*
X296727D01*
Y8780D01*
X296700D01*
Y8753D01*
X296646D01*
Y8726D01*
X296592D01*
Y8699D01*
X296538D01*
Y8672D01*
X296511D01*
Y8645D01*
X296458D01*
Y8618D01*
X296404D01*
Y8591D01*
X296350D01*
Y8564D01*
X296323D01*
Y8538D01*
X296269D01*
Y8511D01*
X296215D01*
Y8484D01*
X296161D01*
Y8457D01*
X296108D01*
Y8430D01*
X296054D01*
Y8403D01*
X296000D01*
Y8376D01*
X295946D01*
Y8349D01*
X295892D01*
Y8322D01*
X295838D01*
Y8295D01*
X295758D01*
Y8269D01*
X295704D01*
Y8242D01*
X295650D01*
Y8215D01*
X295596D01*
Y8188D01*
X295542D01*
Y8161D01*
X295462D01*
Y8134D01*
X295408D01*
Y8107D01*
X295354D01*
Y8080D01*
X295273D01*
Y8053D01*
X295219D01*
Y8026D01*
X295139D01*
Y7999D01*
X295085D01*
Y7972D01*
X295004D01*
Y7946D01*
X294923D01*
Y7919D01*
X294870D01*
Y7892D01*
X294789D01*
Y7865D01*
X294708D01*
Y7838D01*
X294627D01*
Y7811D01*
X294547D01*
Y7784D01*
X294466D01*
Y7757D01*
X294385D01*
Y7730D01*
X294278D01*
Y7703D01*
X294197D01*
Y7676D01*
X294089D01*
Y7649D01*
X293982D01*
Y7623D01*
X293901D01*
Y7596D01*
X293766D01*
Y7569D01*
X293658D01*
Y7542D01*
X293524D01*
Y7515D01*
X293389D01*
Y7488D01*
X293255D01*
Y7461D01*
X293120D01*
Y7434D01*
X292959D01*
Y7407D01*
X292770D01*
Y7380D01*
X292582D01*
Y7353D01*
X292313D01*
Y7327D01*
X291990D01*
Y7300D01*
X290671D01*
Y7327D01*
X290375D01*
Y7353D01*
X290133D01*
Y7380D01*
X289891D01*
Y7407D01*
X289729D01*
Y7434D01*
X289568D01*
Y7461D01*
X289406D01*
Y7488D01*
X289299D01*
Y7515D01*
X289164D01*
Y7542D01*
X289056D01*
Y7569D01*
X288949D01*
Y7596D01*
X288841D01*
Y7623D01*
X288733D01*
Y7649D01*
X288626D01*
Y7676D01*
X288518D01*
Y7703D01*
X288437D01*
Y7730D01*
X288330D01*
Y7757D01*
X288249D01*
Y7784D01*
X288168D01*
Y7811D01*
X288088D01*
Y7838D01*
X288007D01*
Y7865D01*
X287926D01*
Y7892D01*
X287845D01*
Y7919D01*
X287765D01*
Y7946D01*
X287711D01*
Y7972D01*
X287630D01*
Y7999D01*
X287576D01*
Y8026D01*
X287495D01*
Y8053D01*
X287442D01*
Y8080D01*
X287361D01*
Y8107D01*
X287307D01*
Y8134D01*
X287253D01*
Y8161D01*
X287199D01*
Y8188D01*
X287119D01*
Y8215D01*
X287065D01*
Y8242D01*
X287011D01*
Y8269D01*
X286957D01*
Y8295D01*
X286903D01*
Y8322D01*
X286849D01*
Y8349D01*
X286796D01*
Y8376D01*
X286742D01*
Y8403D01*
X286688D01*
Y8430D01*
X286634D01*
Y8457D01*
X286580D01*
Y8484D01*
X286526D01*
Y8511D01*
X286473D01*
Y8538D01*
X286419D01*
Y8564D01*
X286365D01*
Y8591D01*
X286311D01*
Y8618D01*
X286284D01*
Y8645D01*
X286230D01*
Y8672D01*
X286177D01*
Y8699D01*
X286123D01*
Y8726D01*
X286096D01*
Y8753D01*
X286042D01*
Y8780D01*
X285988D01*
Y8807D01*
X285934D01*
Y8834D01*
X285908D01*
Y8861D01*
X285854D01*
Y8888D01*
X285827D01*
Y8914D01*
X285773D01*
Y8941D01*
X285746D01*
Y8968D01*
X285692D01*
Y8995D01*
X285638D01*
Y9022D01*
X285612D01*
Y9049D01*
X285558D01*
Y9076D01*
X285531D01*
Y9103D01*
X285477D01*
Y9130D01*
X285450D01*
Y9157D01*
X285423D01*
Y9183D01*
X285369D01*
Y9210D01*
X285342D01*
Y9237D01*
X285289D01*
Y9264D01*
X285262D01*
Y9291D01*
X285235D01*
Y9318D01*
X285181D01*
Y9345D01*
X285154D01*
Y9372D01*
X285127D01*
Y9399D01*
X285073D01*
Y9426D01*
X285046D01*
Y9453D01*
X285019D01*
Y9480D01*
X284966D01*
Y9506D01*
X284939D01*
Y9533D01*
X284912D01*
Y9560D01*
X284858D01*
Y9587D01*
X284831D01*
Y9614D01*
X284804D01*
Y9641D01*
X284777D01*
Y9668D01*
X284723D01*
Y9695D01*
X284696D01*
Y9722D01*
X284669D01*
Y9749D01*
X284643D01*
Y9776D01*
X284616D01*
Y9803D01*
X284562D01*
Y9829D01*
X284535D01*
Y9856D01*
X284508D01*
Y9883D01*
X284481D01*
Y9910D01*
X284454D01*
Y9937D01*
X284427D01*
Y9964D01*
X284373D01*
Y9991D01*
X284347D01*
Y10018D01*
X284320D01*
Y10045D01*
X284293D01*
Y10072D01*
X284266D01*
Y10099D01*
X284239D01*
Y10125D01*
X284212D01*
Y10152D01*
X284185D01*
Y10179D01*
X284158D01*
Y10206D01*
X284131D01*
Y10233D01*
X284104D01*
Y10260D01*
X284077D01*
Y10287D01*
X284050D01*
Y10314D01*
X284024D01*
Y10341D01*
X283997D01*
Y10368D01*
X283970D01*
Y10395D01*
X283943D01*
Y10422D01*
X283916D01*
Y10448D01*
X283889D01*
Y10475D01*
X283862D01*
Y10502D01*
X283835D01*
Y10529D01*
X283808D01*
Y10556D01*
X283781D01*
Y10583D01*
X283754D01*
Y10610D01*
X283728D01*
Y10637D01*
X283701D01*
Y10664D01*
X283674D01*
Y10691D01*
X283647D01*
Y10718D01*
X283620D01*
Y10771D01*
X283593D01*
Y10798D01*
X283566D01*
Y10825D01*
X283539D01*
Y10852D01*
X283512D01*
Y10879D01*
X283485D01*
Y10906D01*
X283458D01*
Y10933D01*
X283432D01*
Y10987D01*
X283405D01*
Y11014D01*
X283378D01*
Y11040D01*
X283351D01*
Y11067D01*
X283324D01*
Y11094D01*
X283297D01*
Y11148D01*
X283270D01*
Y11175D01*
X283243D01*
Y11202D01*
X283216D01*
Y11229D01*
X283189D01*
Y11283D01*
X283162D01*
Y11310D01*
X283136D01*
Y11337D01*
X283109D01*
Y11364D01*
X283082D01*
Y11417D01*
X283055D01*
Y11444D01*
X283028D01*
Y11471D01*
X283001D01*
Y11525D01*
X282974D01*
Y11552D01*
X282947D01*
Y11606D01*
X282920D01*
Y11633D01*
X282893D01*
Y11660D01*
X282866D01*
Y11713D01*
X282839D01*
Y11740D01*
X282812D01*
Y11794D01*
X282786D01*
Y11821D01*
X282759D01*
Y11848D01*
X282732D01*
Y11902D01*
X282705D01*
Y11929D01*
X282678D01*
Y11982D01*
X282651D01*
Y12036D01*
X282624D01*
Y12063D01*
X282597D01*
Y12117D01*
X282570D01*
Y12144D01*
X282543D01*
Y12198D01*
X282517D01*
Y12225D01*
X282490D01*
Y12279D01*
X282463D01*
Y12332D01*
X282436D01*
Y12386D01*
X282463D01*
Y12413D01*
X282517D01*
Y12440D01*
X282543D01*
Y12467D01*
X282597D01*
Y12494D01*
X282651D01*
Y12467D01*
X282678D01*
Y12413D01*
X282705D01*
Y12359D01*
X282732D01*
Y12332D01*
X282759D01*
Y12279D01*
X282786D01*
Y12252D01*
X282812D01*
Y12198D01*
X282839D01*
Y12171D01*
X282866D01*
Y12117D01*
X282893D01*
Y12090D01*
X282920D01*
Y12036D01*
X282947D01*
Y12009D01*
X282974D01*
Y11956D01*
X283001D01*
Y11929D01*
X283028D01*
Y11875D01*
X283055D01*
Y11848D01*
X283082D01*
Y11794D01*
X283109D01*
Y11767D01*
X283136D01*
Y11713D01*
X283162D01*
Y11687D01*
X283189D01*
Y11660D01*
X283216D01*
Y11606D01*
X283243D01*
Y11579D01*
X283270D01*
Y11552D01*
X283297D01*
Y11498D01*
X283324D01*
Y11471D01*
X283351D01*
Y11444D01*
X283378D01*
Y11417D01*
X283405D01*
Y11364D01*
X283432D01*
Y11337D01*
X283458D01*
Y11310D01*
X283485D01*
Y11283D01*
X283512D01*
Y11229D01*
X283539D01*
Y11202D01*
X283566D01*
Y11175D01*
X283593D01*
Y11148D01*
X283620D01*
Y11121D01*
X283647D01*
Y11094D01*
X283674D01*
Y11040D01*
X283701D01*
Y11014D01*
X283728D01*
Y10987D01*
X283754D01*
Y10960D01*
X283781D01*
Y10933D01*
X283808D01*
Y10906D01*
X283835D01*
Y10879D01*
X283862D01*
Y10825D01*
X283889D01*
Y10798D01*
X283916D01*
Y10771D01*
X283943D01*
Y10745D01*
X283970D01*
Y10718D01*
X283997D01*
Y10691D01*
X284024D01*
Y10664D01*
X284050D01*
Y10637D01*
X284077D01*
Y10610D01*
X284104D01*
Y10583D01*
X284131D01*
Y10556D01*
X284158D01*
Y10529D01*
X284185D01*
Y10502D01*
X284212D01*
Y10475D01*
X284239D01*
Y10448D01*
X284266D01*
Y10422D01*
X284293D01*
Y10395D01*
X284320D01*
Y10368D01*
X284347D01*
Y10341D01*
X284373D01*
Y10314D01*
X284400D01*
Y10287D01*
X284427D01*
Y10260D01*
X284454D01*
Y10233D01*
X284481D01*
Y10206D01*
X284508D01*
Y10179D01*
X284535D01*
Y10152D01*
X284589D01*
Y10125D01*
X284616D01*
Y10099D01*
X284643D01*
Y10072D01*
X284669D01*
Y10045D01*
X284696D01*
Y10018D01*
X284723D01*
Y9991D01*
X284750D01*
Y9964D01*
X284804D01*
Y9937D01*
X284831D01*
Y9910D01*
X284858D01*
Y9883D01*
X284885D01*
Y9856D01*
X284912D01*
Y9829D01*
X284966D01*
Y9803D01*
X284993D01*
Y9776D01*
X285019D01*
Y9749D01*
X285046D01*
Y9722D01*
X285100D01*
Y9695D01*
X285127D01*
Y9668D01*
X285154D01*
Y9641D01*
X285181D01*
Y9614D01*
X285235D01*
Y9587D01*
X285262D01*
Y9560D01*
X285289D01*
Y9533D01*
X285342D01*
Y9506D01*
X285369D01*
Y9480D01*
X285423D01*
Y9453D01*
X285450D01*
Y9426D01*
X285477D01*
Y9399D01*
X285531D01*
Y9372D01*
X285558D01*
Y9345D01*
X285612D01*
Y9318D01*
X285638D01*
Y9291D01*
X285692D01*
Y9264D01*
X285719D01*
Y9237D01*
X285773D01*
Y9210D01*
X285800D01*
Y9183D01*
X285854D01*
Y9157D01*
X285881D01*
Y9130D01*
X285934D01*
Y9103D01*
X285988D01*
Y9076D01*
X286015D01*
Y9049D01*
X286069D01*
Y9022D01*
X286123D01*
Y8995D01*
X286150D01*
Y8968D01*
X286204D01*
Y8941D01*
X286257D01*
Y8914D01*
X286284D01*
Y8888D01*
X286338D01*
Y8861D01*
X286392D01*
Y8834D01*
X286446D01*
Y8807D01*
X286500D01*
Y8780D01*
X286553D01*
Y8753D01*
X286580D01*
Y8726D01*
X286634D01*
Y8699D01*
X286688D01*
Y8672D01*
X286742D01*
Y8645D01*
X286796D01*
Y8618D01*
X286876D01*
Y8591D01*
X286930D01*
Y8564D01*
X286984D01*
Y8538D01*
X287038D01*
Y8511D01*
X287092D01*
Y8484D01*
X287145D01*
Y8457D01*
X287199D01*
Y8430D01*
X287280D01*
Y8403D01*
X287334D01*
Y8376D01*
X287388D01*
Y8349D01*
X287469D01*
Y8322D01*
X287522D01*
Y8295D01*
X287603D01*
Y8269D01*
X287657D01*
Y8242D01*
X287738D01*
Y8215D01*
X287791D01*
Y8188D01*
X287872D01*
Y8161D01*
X287953D01*
Y8134D01*
X288034D01*
Y8107D01*
X288114D01*
Y8080D01*
X288195D01*
Y8053D01*
X288276D01*
Y8026D01*
X288357D01*
Y7999D01*
X288437D01*
Y7972D01*
X288518D01*
Y7946D01*
X288626D01*
Y7919D01*
X288706D01*
Y7892D01*
X288814D01*
Y7865D01*
X288922D01*
Y7838D01*
X289029D01*
Y7811D01*
X289137D01*
Y7784D01*
X289272D01*
Y7757D01*
X289406D01*
Y7730D01*
X289541D01*
Y7703D01*
X289675D01*
Y7676D01*
X289864D01*
Y7649D01*
X290052D01*
Y7623D01*
X290294D01*
Y7596D01*
X290564D01*
Y7569D01*
X290940D01*
Y7542D01*
X291721D01*
Y7569D01*
X292151D01*
Y7596D01*
X292421D01*
Y7623D01*
X292663D01*
Y7649D01*
X292851D01*
Y7676D01*
X293013D01*
Y7703D01*
X293174D01*
Y7730D01*
X293309D01*
Y7757D01*
X293443D01*
Y7784D01*
X293578D01*
Y7811D01*
X293685D01*
Y7838D01*
X293793D01*
Y7865D01*
X293901D01*
Y7892D01*
X294008D01*
Y7919D01*
X294116D01*
Y7946D01*
X294197D01*
Y7972D01*
X294304D01*
Y7999D01*
X294385D01*
Y8026D01*
X294466D01*
Y8053D01*
X294547D01*
Y8080D01*
X294627D01*
Y8107D01*
X294708D01*
Y8134D01*
X294789D01*
Y8161D01*
X294843D01*
Y8188D01*
X294923D01*
Y8215D01*
X295004D01*
Y8242D01*
X295058D01*
Y8269D01*
X295139D01*
Y8295D01*
X295193D01*
Y8322D01*
X295273D01*
Y8349D01*
X295327D01*
Y8376D01*
X295381D01*
Y8403D01*
X295462D01*
Y8430D01*
X295515D01*
Y8457D01*
X295569D01*
Y8484D01*
X295623D01*
Y8511D01*
X295677D01*
Y8538D01*
X295731D01*
Y8564D01*
X295785D01*
Y8591D01*
X295838D01*
Y8618D01*
X295892D01*
Y8645D01*
X295919D01*
Y12306D01*
X293578D01*
Y12279D01*
X293551D01*
Y12252D01*
X293524D01*
Y12225D01*
X293497D01*
Y12198D01*
X293470D01*
Y12171D01*
X293416D01*
Y12144D01*
X293389D01*
Y12117D01*
X293362D01*
Y12090D01*
X293336D01*
Y12063D01*
X293309D01*
Y12036D01*
X293282D01*
Y12009D01*
X293228D01*
Y11982D01*
X293201D01*
Y11956D01*
X293174D01*
Y11929D01*
X293147D01*
Y11902D01*
X293120D01*
Y11875D01*
X293093D01*
Y11848D01*
X293039D01*
Y11821D01*
X293013D01*
Y11794D01*
X292986D01*
Y11767D01*
X292959D01*
Y11740D01*
X292932D01*
Y11713D01*
X292905D01*
Y11687D01*
X292851D01*
Y11660D01*
X292824D01*
Y11633D01*
X292797D01*
Y11606D01*
X292770D01*
Y11579D01*
X292743D01*
Y11552D01*
X292717D01*
Y11525D01*
X292690D01*
Y11498D01*
X292636D01*
Y11471D01*
X292609D01*
Y11444D01*
X292582D01*
Y11417D01*
X292555D01*
Y11390D01*
X292528D01*
Y11364D01*
X292501D01*
Y11337D01*
X292447D01*
Y11310D01*
X292421D01*
Y11283D01*
X292394D01*
Y11256D01*
X292367D01*
Y11229D01*
X292340D01*
Y11202D01*
X292313D01*
Y11175D01*
X292259D01*
Y11148D01*
X292232D01*
Y11121D01*
X292205D01*
Y11094D01*
X292178D01*
Y11067D01*
X292151D01*
Y11040D01*
X292124D01*
Y11014D01*
X292071D01*
Y10987D01*
X292044D01*
Y10960D01*
X292017D01*
Y10933D01*
X291990D01*
Y10906D01*
X291963D01*
Y10879D01*
X291936D01*
Y10852D01*
X291882D01*
Y10825D01*
X291855D01*
Y10798D01*
X291828D01*
Y10771D01*
X291802D01*
Y10745D01*
X291775D01*
Y10718D01*
X291748D01*
Y10691D01*
X291694D01*
Y10664D01*
X291667D01*
Y10637D01*
X291640D01*
Y10610D01*
X291613D01*
Y10583D01*
X291586D01*
Y10556D01*
X291559D01*
Y10529D01*
X291506D01*
Y10502D01*
X291478D01*
Y10475D01*
X291452D01*
Y10448D01*
X291425D01*
Y10422D01*
X291398D01*
Y10395D01*
X291371D01*
Y10368D01*
X291317D01*
Y10341D01*
X291290D01*
Y10314D01*
X291263D01*
Y10287D01*
X291236D01*
Y10260D01*
X291209D01*
Y10233D01*
X291182D01*
Y10206D01*
X291156D01*
Y10179D01*
X291102D01*
Y10152D01*
X291075D01*
Y10125D01*
X291048D01*
Y10099D01*
X291021D01*
Y10072D01*
X290994D01*
Y10045D01*
X290967D01*
Y10018D01*
X290913D01*
Y9991D01*
X290886D01*
Y9964D01*
X290860D01*
Y9937D01*
X290833D01*
Y9910D01*
X290806D01*
Y9883D01*
X290779D01*
Y9856D01*
X290806D01*
Y9776D01*
X290833D01*
Y9426D01*
X290806D01*
Y9345D01*
X290779D01*
Y9291D01*
X290752D01*
Y9237D01*
X290725D01*
Y9210D01*
X290698D01*
Y9157D01*
X290671D01*
Y9130D01*
X290644D01*
Y9103D01*
X290617D01*
Y9076D01*
X290590D01*
Y9049D01*
X290564D01*
Y9022D01*
X290510D01*
Y8995D01*
X290456D01*
Y8968D01*
X290429D01*
Y8941D01*
X290348D01*
Y8914D01*
X290241D01*
Y8888D01*
X289998D01*
Y8914D01*
X289891D01*
Y8941D01*
X289810D01*
Y8968D01*
X289756D01*
Y8995D01*
X289729D01*
Y9022D01*
X289675D01*
Y9049D01*
X289648D01*
Y9076D01*
X289621D01*
Y9103D01*
X289595D01*
Y9130D01*
X289568D01*
Y9157D01*
X289541D01*
Y9210D01*
X289514D01*
Y9237D01*
X289487D01*
Y9291D01*
X289460D01*
Y9345D01*
X289433D01*
Y9426D01*
X289406D01*
Y9776D01*
X289433D01*
Y9856D01*
X289460D01*
Y9910D01*
X289487D01*
Y9964D01*
X289514D01*
Y10018D01*
X289541D01*
Y10045D01*
X289568D01*
Y10072D01*
X289595D01*
Y10099D01*
X289621D01*
Y10152D01*
X289648D01*
Y10179D01*
X289702D01*
Y10206D01*
X289729D01*
Y10233D01*
X289783D01*
Y10260D01*
X289837D01*
Y10287D01*
X289918D01*
Y10314D01*
X290321D01*
Y10287D01*
X290402D01*
Y10260D01*
X290456D01*
Y10233D01*
X290483D01*
Y10260D01*
X290510D01*
Y10287D01*
X290537D01*
Y10314D01*
X290564D01*
Y10341D01*
X290590D01*
Y10368D01*
X290617D01*
Y10395D01*
X290671D01*
Y10422D01*
X290698D01*
Y10448D01*
X290725D01*
Y10475D01*
X290752D01*
Y10502D01*
X290779D01*
Y10529D01*
X290806D01*
Y10556D01*
X290860D01*
Y10583D01*
X290886D01*
Y10610D01*
X290913D01*
Y10637D01*
X290940D01*
Y10664D01*
X290967D01*
Y10691D01*
X290994D01*
Y10718D01*
X291048D01*
Y10745D01*
X291075D01*
Y10771D01*
X291102D01*
Y10798D01*
X291129D01*
Y10825D01*
X291156D01*
Y10852D01*
X291182D01*
Y10879D01*
X291236D01*
Y10906D01*
X291263D01*
Y10933D01*
X291290D01*
Y10960D01*
X291317D01*
Y10987D01*
X291344D01*
Y11014D01*
X291371D01*
Y11040D01*
X291425D01*
Y11067D01*
X291452D01*
Y11094D01*
X291478D01*
Y11121D01*
X291506D01*
Y11148D01*
X291532D01*
Y11175D01*
X291559D01*
Y11202D01*
X291613D01*
Y11229D01*
X291640D01*
Y11256D01*
X291667D01*
Y11283D01*
X291694D01*
Y11310D01*
X291721D01*
Y11337D01*
X291748D01*
Y11364D01*
X291802D01*
Y11390D01*
X291828D01*
Y11417D01*
X291855D01*
Y11444D01*
X291882D01*
Y11471D01*
X291909D01*
Y11498D01*
X291936D01*
Y11525D01*
X291990D01*
Y11552D01*
X292017D01*
Y11579D01*
X292044D01*
Y11606D01*
X292071D01*
Y11633D01*
X292097D01*
Y11660D01*
X292124D01*
Y11687D01*
X292151D01*
Y11713D01*
X292205D01*
Y11740D01*
X292232D01*
Y11767D01*
X292259D01*
Y11794D01*
X292286D01*
Y11821D01*
X292313D01*
Y11848D01*
X292340D01*
Y11875D01*
X292394D01*
Y11902D01*
X292421D01*
Y11929D01*
X292447D01*
Y11956D01*
X292474D01*
Y11982D01*
X292501D01*
Y12009D01*
X292528D01*
Y12036D01*
X292582D01*
Y12063D01*
X292609D01*
Y12090D01*
X292636D01*
Y12117D01*
X292663D01*
Y12144D01*
X292690D01*
Y12171D01*
X292717D01*
Y12198D01*
X292770D01*
Y12225D01*
X292797D01*
Y12252D01*
X292824D01*
Y12279D01*
X292851D01*
Y12306D01*
X292878D01*
Y12332D01*
X292905D01*
Y12359D01*
X292959D01*
Y12386D01*
X292986D01*
Y12413D01*
X293013D01*
Y12440D01*
X293039D01*
Y12467D01*
X293066D01*
Y12494D01*
X293093D01*
Y12521D01*
X293147D01*
Y12548D01*
X293174D01*
Y12575D01*
X293201D01*
Y12601D01*
X293228D01*
Y12628D01*
X293255D01*
Y12655D01*
X293282D01*
Y12682D01*
X293336D01*
Y12709D01*
X293362D01*
Y12736D01*
X293389D01*
Y12763D01*
X295919D01*
Y13409D01*
X292770D01*
Y13382D01*
X292743D01*
Y13355D01*
X292717D01*
Y13328D01*
X292690D01*
Y13301D01*
X292663D01*
Y13274D01*
X292636D01*
Y13247D01*
X292609D01*
Y13220D01*
X292555D01*
Y13194D01*
X292528D01*
Y13167D01*
X292501D01*
Y13140D01*
X292474D01*
Y13113D01*
X292447D01*
Y13086D01*
X292421D01*
Y13059D01*
X292394D01*
Y13032D01*
X292340D01*
Y13005D01*
X292313D01*
Y12978D01*
X292286D01*
Y12951D01*
X292259D01*
Y12924D01*
X292232D01*
Y12898D01*
X292205D01*
Y12871D01*
X292178D01*
Y12844D01*
X292151D01*
Y12817D01*
X292097D01*
Y12790D01*
X292071D01*
Y12763D01*
X292044D01*
Y12736D01*
X292017D01*
Y12709D01*
X291990D01*
Y12682D01*
X291963D01*
Y12655D01*
X291936D01*
Y12628D01*
X291882D01*
Y12601D01*
X291855D01*
Y12575D01*
X291828D01*
Y12548D01*
X291802D01*
Y12521D01*
X291775D01*
Y12494D01*
X291748D01*
Y12467D01*
X291721D01*
Y12440D01*
X291694D01*
Y12413D01*
X291640D01*
Y12386D01*
X291613D01*
Y12359D01*
X291586D01*
Y12332D01*
X291559D01*
Y12306D01*
X291532D01*
Y12279D01*
X291506D01*
Y12252D01*
X291478D01*
Y12225D01*
X291452D01*
Y12198D01*
X291398D01*
Y12171D01*
X291371D01*
Y12144D01*
X291344D01*
Y12117D01*
X291317D01*
Y12090D01*
X291290D01*
Y12063D01*
X291263D01*
Y12036D01*
X291236D01*
Y12009D01*
X291182D01*
Y11982D01*
X291156D01*
Y11956D01*
X291129D01*
Y11929D01*
X291102D01*
Y11902D01*
X291075D01*
Y11875D01*
X291048D01*
Y11848D01*
X291021D01*
Y11821D01*
X290994D01*
Y11794D01*
X290940D01*
Y11767D01*
X290913D01*
Y11740D01*
X290886D01*
Y11713D01*
X290860D01*
Y11687D01*
X290833D01*
Y11660D01*
X290806D01*
Y11633D01*
X290779D01*
Y11606D01*
X290725D01*
Y11579D01*
X290698D01*
Y11552D01*
X290671D01*
Y11525D01*
X290644D01*
Y11498D01*
X290617D01*
Y11471D01*
X290590D01*
Y11444D01*
X290564D01*
Y11417D01*
X290537D01*
Y11390D01*
X290483D01*
Y11364D01*
X290456D01*
Y11337D01*
X290429D01*
Y11310D01*
X290402D01*
Y11283D01*
X290375D01*
Y11256D01*
X290348D01*
Y11229D01*
X290321D01*
Y11202D01*
X290294D01*
Y11175D01*
X290241D01*
Y11148D01*
X290214D01*
Y11121D01*
X290187D01*
Y11094D01*
X290160D01*
Y11067D01*
X290133D01*
Y11040D01*
X290106D01*
Y11014D01*
X290079D01*
Y10987D01*
X290025D01*
Y10960D01*
X289998D01*
Y10933D01*
X289971D01*
Y10906D01*
X289945D01*
Y10879D01*
X289918D01*
Y10852D01*
X289891D01*
Y10825D01*
X289864D01*
Y10798D01*
X289837D01*
Y10771D01*
X289783D01*
Y10745D01*
X289756D01*
Y10718D01*
X289729D01*
Y10691D01*
X289702D01*
Y10664D01*
X289675D01*
Y10637D01*
X289648D01*
Y10610D01*
X289621D01*
Y10583D01*
X289568D01*
Y10556D01*
X289541D01*
Y10529D01*
X289514D01*
Y10502D01*
X289487D01*
Y10475D01*
X289460D01*
Y10448D01*
X289433D01*
Y10422D01*
X289406D01*
Y10395D01*
X289379D01*
Y10368D01*
X289325D01*
Y10341D01*
X289299D01*
Y10314D01*
X289272D01*
Y10287D01*
X289245D01*
Y10260D01*
X289218D01*
Y10233D01*
X289191D01*
Y10206D01*
X289164D01*
Y10179D01*
X289137D01*
Y10152D01*
X289083D01*
Y10099D01*
X289110D01*
Y9991D01*
X289137D01*
Y9695D01*
X289110D01*
Y9587D01*
X289083D01*
Y9533D01*
X289056D01*
Y9480D01*
X289029D01*
Y9453D01*
X289002D01*
Y9399D01*
X288976D01*
Y9372D01*
X288949D01*
Y9345D01*
X288895D01*
Y9318D01*
X288868D01*
Y9291D01*
X288841D01*
Y9264D01*
X288814D01*
Y9237D01*
X288760D01*
Y9210D01*
X288733D01*
Y9183D01*
X288653D01*
Y9157D01*
X288572D01*
Y9130D01*
X288276D01*
Y9157D01*
X288168D01*
Y9183D01*
X288114D01*
Y9210D01*
X288061D01*
Y9237D01*
X288007D01*
Y9264D01*
X287980D01*
Y9291D01*
X287953D01*
Y9318D01*
X287926D01*
Y9345D01*
X287899D01*
Y9372D01*
X287872D01*
Y9399D01*
X287845D01*
Y9426D01*
X287818D01*
Y9480D01*
X287791D01*
Y9506D01*
X287765D01*
Y9560D01*
X287738D01*
Y9641D01*
X287711D01*
Y10045D01*
X287738D01*
Y10125D01*
X287765D01*
Y10179D01*
X287791D01*
Y10233D01*
X287818D01*
Y10260D01*
X287845D01*
Y10287D01*
X287872D01*
Y10341D01*
X287899D01*
Y10368D01*
X287926D01*
Y10395D01*
X287953D01*
Y10422D01*
X288007D01*
Y10448D01*
X288034D01*
Y10475D01*
X288088D01*
Y10502D01*
X288141D01*
Y10529D01*
X288222D01*
Y10556D01*
X288599D01*
Y10529D01*
X288680D01*
Y10502D01*
X288733D01*
Y10475D01*
X288787D01*
Y10502D01*
X288814D01*
Y10529D01*
X288841D01*
Y10556D01*
X288868D01*
Y10583D01*
X288895D01*
Y10610D01*
X288949D01*
Y10637D01*
X288976D01*
Y10664D01*
X289002D01*
Y10691D01*
X289029D01*
Y10718D01*
X289056D01*
Y10745D01*
X289083D01*
Y10771D01*
X289110D01*
Y10798D01*
X289137D01*
Y10825D01*
X289191D01*
Y10852D01*
X289218D01*
Y10879D01*
X289245D01*
Y10906D01*
X289272D01*
Y10933D01*
X289299D01*
Y10960D01*
X289325D01*
Y10987D01*
X289352D01*
Y11014D01*
X289406D01*
Y11040D01*
X289433D01*
Y11067D01*
X289460D01*
Y11094D01*
X289487D01*
Y11121D01*
X289514D01*
Y11148D01*
X289541D01*
Y11175D01*
X289568D01*
Y11202D01*
X289595D01*
Y11229D01*
X289648D01*
Y11256D01*
X289675D01*
Y11283D01*
X289702D01*
Y11310D01*
X289729D01*
Y11337D01*
X289756D01*
Y11364D01*
X289783D01*
Y11390D01*
X289810D01*
Y11417D01*
X289864D01*
Y11444D01*
X289891D01*
Y11471D01*
X289918D01*
Y11498D01*
X289945D01*
Y11525D01*
X289971D01*
Y11552D01*
X289998D01*
Y11579D01*
X290025D01*
Y11606D01*
X290052D01*
Y11633D01*
X290106D01*
Y11660D01*
X290133D01*
Y11687D01*
X290160D01*
Y11713D01*
X290187D01*
Y11740D01*
X290214D01*
Y11767D01*
X290241D01*
Y11794D01*
X290267D01*
Y11821D01*
X290294D01*
Y11848D01*
X290348D01*
Y11875D01*
X290375D01*
Y11902D01*
X290402D01*
Y11929D01*
X290429D01*
Y11956D01*
X290456D01*
Y11982D01*
X290483D01*
Y12009D01*
X290510D01*
Y12036D01*
X290564D01*
Y12063D01*
X290590D01*
Y12090D01*
X290617D01*
Y12117D01*
X290644D01*
Y12144D01*
X290671D01*
Y12171D01*
X290698D01*
Y12198D01*
X290725D01*
Y12225D01*
X290752D01*
Y12252D01*
X290806D01*
Y12279D01*
X290833D01*
Y12306D01*
X290860D01*
Y12332D01*
X290886D01*
Y12359D01*
X290913D01*
Y12386D01*
X290940D01*
Y12413D01*
X290967D01*
Y12440D01*
X291021D01*
Y12467D01*
X291048D01*
Y12494D01*
X291075D01*
Y12521D01*
X291102D01*
Y12548D01*
X291129D01*
Y12575D01*
X291156D01*
Y12601D01*
X291182D01*
Y12628D01*
X291209D01*
Y12655D01*
X291263D01*
Y12682D01*
X291290D01*
Y12709D01*
X291317D01*
Y12736D01*
X291344D01*
Y12763D01*
X291371D01*
Y12790D01*
X291398D01*
Y12817D01*
X291425D01*
Y12844D01*
X291452D01*
Y12871D01*
X291506D01*
Y12898D01*
X291532D01*
Y12924D01*
X291559D01*
Y12951D01*
X291586D01*
Y12978D01*
X291613D01*
Y13005D01*
X291640D01*
Y13032D01*
X291667D01*
Y13059D01*
X291721D01*
Y13086D01*
X291748D01*
Y13113D01*
X291775D01*
Y13140D01*
X291802D01*
Y13167D01*
X291828D01*
Y13194D01*
X291855D01*
Y13220D01*
X291882D01*
Y13247D01*
X291909D01*
Y13274D01*
X291963D01*
Y13301D01*
X291990D01*
Y13328D01*
X292017D01*
Y13355D01*
X292044D01*
Y13382D01*
X292071D01*
Y13409D01*
X292097D01*
Y13436D01*
X292124D01*
Y13463D01*
X292178D01*
Y13490D01*
X292205D01*
Y13517D01*
X292232D01*
Y13544D01*
X292259D01*
Y13570D01*
X292286D01*
Y13597D01*
X292313D01*
Y13624D01*
X292340D01*
Y13651D01*
X292367D01*
Y13678D01*
X292421D01*
Y13705D01*
X292447D01*
Y13732D01*
X292474D01*
Y13759D01*
X292501D01*
Y13786D01*
X292528D01*
Y13813D01*
X292555D01*
Y13839D01*
X292582D01*
Y13866D01*
X295919D01*
Y14512D01*
X293174D01*
Y14458D01*
X293147D01*
Y14405D01*
X293120D01*
Y14378D01*
X293093D01*
Y14324D01*
X293066D01*
Y14297D01*
X293039D01*
Y14270D01*
X293013D01*
Y14243D01*
X292986D01*
Y14216D01*
X292959D01*
Y14189D01*
X292932D01*
Y14163D01*
X292878D01*
Y14135D01*
X292851D01*
Y14109D01*
X292797D01*
Y14082D01*
X292743D01*
Y14055D01*
X292663D01*
Y14028D01*
X292340D01*
Y14055D01*
X292232D01*
Y14082D01*
X292178D01*
Y14109D01*
X292124D01*
Y14135D01*
X292097D01*
Y14163D01*
X292044D01*
Y14189D01*
X292017D01*
Y14216D01*
X291990D01*
Y14243D01*
X291963D01*
Y14270D01*
X291936D01*
Y14297D01*
X291909D01*
Y14351D01*
X291882D01*
Y14378D01*
X291855D01*
Y14432D01*
X291828D01*
Y14485D01*
X291802D01*
Y14593D01*
X291775D01*
Y14889D01*
X291802D01*
Y14970D01*
X291828D01*
Y15051D01*
X291855D01*
Y15078D01*
X291882D01*
Y15131D01*
X291909D01*
Y15158D01*
X291936D01*
Y15212D01*
X291963D01*
Y15239D01*
X291990D01*
Y15266D01*
X292017D01*
Y15293D01*
X292044D01*
Y15320D01*
X292071D01*
Y15347D01*
X292124D01*
Y15374D01*
X292178D01*
Y15401D01*
X292232D01*
Y15427D01*
X292340D01*
Y15454D01*
X292663D01*
Y15427D01*
X292743D01*
Y15401D01*
X292797D01*
Y15374D01*
X292851D01*
Y15347D01*
X292905D01*
Y15320D01*
X292932D01*
Y15293D01*
X292959D01*
Y15266D01*
X292986D01*
Y15239D01*
X293013D01*
Y15212D01*
X293039D01*
Y15185D01*
X293066D01*
Y15158D01*
X293093D01*
Y15104D01*
X293120D01*
Y15078D01*
X293147D01*
Y14997D01*
X293174D01*
Y14970D01*
X295919D01*
Y15454D01*
X297830D01*
Y15374D01*
X297857D01*
Y15320D01*
X297884D01*
Y15293D01*
X297911D01*
Y15266D01*
X297938D01*
Y15239D01*
X297965D01*
Y15212D01*
X297991D01*
Y15185D01*
X298018D01*
Y15158D01*
X298072D01*
Y15131D01*
X298153D01*
Y15104D01*
X298261D01*
Y15078D01*
X298395D01*
Y15104D01*
X298503D01*
Y15131D01*
X298584D01*
Y15158D01*
X298637D01*
Y15185D01*
X298664D01*
Y15212D01*
X298691D01*
Y15239D01*
X298718D01*
Y15266D01*
X298745D01*
Y15293D01*
X298772D01*
Y15320D01*
X298799D01*
Y15374D01*
X298826D01*
Y15454D01*
X298853D01*
Y15535D01*
X298880D01*
Y15723D01*
X298853D01*
Y15804D01*
X298880D01*
Y15831D01*
X298934D01*
Y15858D01*
X298960D01*
Y15885D01*
X298987D01*
Y15912D01*
X299041D01*
Y15939D01*
X299068D01*
Y15966D01*
X299095D01*
Y15992D01*
X299122D01*
Y16019D01*
X299149D01*
Y16046D01*
X299176D01*
Y16100D01*
X299203D01*
Y16127D01*
X299230D01*
Y16154D01*
X299256D01*
Y16208D01*
X299283D01*
Y16235D01*
X299310D01*
Y16289D01*
X299337D01*
Y16342D01*
X299364D01*
Y16423D01*
X299391D01*
Y16504D01*
X299418D01*
Y16719D01*
X299391D01*
Y16827D01*
X299364D01*
Y16881D01*
X299337D01*
Y16961D01*
X299310D01*
Y16988D01*
X299283D01*
Y17042D01*
X299256D01*
Y17069D01*
X299230D01*
Y17123D01*
X299203D01*
Y17150D01*
X299176D01*
Y17177D01*
X299149D01*
Y17204D01*
X299122D01*
Y17231D01*
X299095D01*
Y17257D01*
X299068D01*
Y17284D01*
X299041D01*
Y17311D01*
X299014D01*
Y17338D01*
X298987D01*
Y17365D01*
X298960D01*
Y17392D01*
X298907D01*
Y17419D01*
X298880D01*
Y17446D01*
X298853D01*
Y17473D01*
X298826D01*
Y17500D01*
X298772D01*
Y17527D01*
X298745D01*
Y17553D01*
X298718D01*
Y17580D01*
X298691D01*
Y17607D01*
X298664D01*
Y17634D01*
X298610D01*
Y17661D01*
X298584D01*
Y17688D01*
X298557D01*
Y17715D01*
X298530D01*
Y17742D01*
X298503D01*
Y17769D01*
X298449D01*
Y17796D01*
X298422D01*
Y17823D01*
X298395D01*
Y17850D01*
X298368D01*
Y17876D01*
X298341D01*
Y17903D01*
X298314D01*
Y17930D01*
X298261D01*
Y17957D01*
X298234D01*
Y17984D01*
X298207D01*
Y18011D01*
X298180D01*
Y18038D01*
X298153D01*
Y18065D01*
X298126D01*
Y18092D01*
X298099D01*
Y18119D01*
X298072D01*
Y18146D01*
X298045D01*
Y18172D01*
X298018D01*
Y18226D01*
X297991D01*
Y18253D01*
X297965D01*
Y18307D01*
X297938D01*
Y18415D01*
X297911D01*
Y18496D01*
X297938D01*
Y18603D01*
X297965D01*
Y18684D01*
X297991D01*
Y18738D01*
X298018D01*
Y18791D01*
X298045D01*
Y18818D01*
X298072D01*
Y18872D01*
X298099D01*
Y18899D01*
X298126D01*
Y18926D01*
X298180D01*
Y18953D01*
X298207D01*
Y18980D01*
X298234D01*
Y19007D01*
X298288D01*
Y19034D01*
X298314D01*
Y19061D01*
X298368D01*
Y19088D01*
X298422D01*
Y19115D01*
X298476D01*
Y19141D01*
X298530D01*
Y19168D01*
X298610D01*
Y19195D01*
X298664D01*
Y19222D01*
X298745D01*
Y19195D01*
X298826D01*
Y19168D01*
X298907D01*
Y19141D01*
X299068D01*
Y19168D01*
X299176D01*
Y19195D01*
X299230D01*
Y19222D01*
X299283D01*
Y19249D01*
X299310D01*
Y19276D01*
X299364D01*
Y19303D01*
X299391D01*
Y19357D01*
X299418D01*
Y19384D01*
X299445D01*
Y19410D01*
X299472D01*
Y19464D01*
X299499D01*
Y19545D01*
X299526D01*
Y19626D01*
X299552D01*
Y19760D01*
X299526D01*
Y19868D01*
X299499D01*
Y19949D01*
X299472D01*
Y20003D01*
X299445D01*
Y20030D01*
X299418D01*
Y20056D01*
X299391D01*
Y20083D01*
X299364D01*
Y20110D01*
X299337D01*
Y20137D01*
X299310D01*
Y20164D01*
X299283D01*
Y20191D01*
X299230D01*
Y20218D01*
X299149D01*
Y20245D01*
X298853D01*
Y20218D01*
X298772D01*
Y20191D01*
X298718D01*
Y20164D01*
X298664D01*
Y20137D01*
X298637D01*
Y20110D01*
X298610D01*
Y20083D01*
X298584D01*
Y20056D01*
X298557D01*
Y20030D01*
X298530D01*
Y19976D01*
X298503D01*
Y19922D01*
X298476D01*
Y19841D01*
X295919D01*
Y20326D01*
X293093D01*
Y20783D01*
X295919D01*
Y21429D01*
X292690D01*
Y21456D01*
X292663D01*
Y21483D01*
X292636D01*
Y21510D01*
X292609D01*
Y21537D01*
X292582D01*
Y21564D01*
X292528D01*
Y21590D01*
X292501D01*
Y21617D01*
X292474D01*
Y21644D01*
X292447D01*
Y21671D01*
X292421D01*
Y21698D01*
X292394D01*
Y21725D01*
X292367D01*
Y21752D01*
X292340D01*
Y21779D01*
X292286D01*
Y21806D01*
X292259D01*
Y21833D01*
X292232D01*
Y21860D01*
X292205D01*
Y21887D01*
X292178D01*
Y21913D01*
X292151D01*
Y21940D01*
X292124D01*
Y21967D01*
X292097D01*
Y21994D01*
X292044D01*
Y22021D01*
X292017D01*
Y22048D01*
X291990D01*
Y22075D01*
X291963D01*
Y22102D01*
X291936D01*
Y22129D01*
X291909D01*
Y22156D01*
X291882D01*
Y22183D01*
X291855D01*
Y22209D01*
X291802D01*
Y22236D01*
X291775D01*
Y22263D01*
X291748D01*
Y22290D01*
X291721D01*
Y22317D01*
X291694D01*
Y22344D01*
X291667D01*
Y22371D01*
X291640D01*
Y22398D01*
X291586D01*
Y22425D01*
X291559D01*
Y22452D01*
X291532D01*
Y22479D01*
X291506D01*
Y22505D01*
X291478D01*
Y22532D01*
X291452D01*
Y22559D01*
X291425D01*
Y22586D01*
X291398D01*
Y22613D01*
X291344D01*
Y22640D01*
X291317D01*
Y22667D01*
X291290D01*
Y22694D01*
X291263D01*
Y22721D01*
X291236D01*
Y22748D01*
X291209D01*
Y22775D01*
X291182D01*
Y22802D01*
X291156D01*
Y22828D01*
X291102D01*
Y22855D01*
X291075D01*
Y22882D01*
X291048D01*
Y22909D01*
X291021D01*
Y22936D01*
X290994D01*
Y22963D01*
X290967D01*
Y22990D01*
X290940D01*
Y23017D01*
X290913D01*
Y23044D01*
X290860D01*
Y23071D01*
X290833D01*
Y23098D01*
X290806D01*
Y23124D01*
X290779D01*
Y23151D01*
X290752D01*
Y23178D01*
X290725D01*
Y23205D01*
X290698D01*
Y23232D01*
X290671D01*
Y23259D01*
X290617D01*
Y23286D01*
X290590D01*
Y23313D01*
X290564D01*
Y23340D01*
X290537D01*
Y23367D01*
X290510D01*
Y23394D01*
X290483D01*
Y23421D01*
X290456D01*
Y23448D01*
X290429D01*
Y23474D01*
X290375D01*
Y23501D01*
X290348D01*
Y23528D01*
X290321D01*
Y23555D01*
X290294D01*
Y23582D01*
X290267D01*
Y23609D01*
X290241D01*
Y23636D01*
X290214D01*
Y23663D01*
X290187D01*
Y23690D01*
X290133D01*
Y23717D01*
X290106D01*
Y23743D01*
X290079D01*
Y23770D01*
X290052D01*
Y23797D01*
X290025D01*
Y23824D01*
X289998D01*
Y23851D01*
X289971D01*
Y23878D01*
X289945D01*
Y23905D01*
X289891D01*
Y23932D01*
X289864D01*
Y23959D01*
X289837D01*
Y23986D01*
X289810D01*
Y24013D01*
X289783D01*
Y24040D01*
X289756D01*
Y24067D01*
X289729D01*
Y24093D01*
X289675D01*
Y24120D01*
X289648D01*
Y24147D01*
X289621D01*
Y24174D01*
X289595D01*
Y24201D01*
X289568D01*
Y24228D01*
X289541D01*
Y24255D01*
X289514D01*
Y24282D01*
X289487D01*
Y24309D01*
X289433D01*
Y24336D01*
X289406D01*
Y24363D01*
X289379D01*
Y24389D01*
X289352D01*
Y24416D01*
X289325D01*
Y24443D01*
X289299D01*
Y24470D01*
X289272D01*
Y24497D01*
X289245D01*
Y24524D01*
X289191D01*
Y24551D01*
X289164D01*
Y24578D01*
X289137D01*
Y24605D01*
X289110D01*
Y24632D01*
X289083D01*
Y24659D01*
X289056D01*
Y24686D01*
X289029D01*
Y24712D01*
X289002D01*
Y24739D01*
X288949D01*
Y24766D01*
X288922D01*
Y24793D01*
X288895D01*
Y24820D01*
X288868D01*
Y24847D01*
X288841D01*
Y24874D01*
X288760D01*
Y24847D01*
X288706D01*
Y24820D01*
X288653D01*
Y24793D01*
X288276D01*
Y24820D01*
X288195D01*
Y24847D01*
X288141D01*
Y24874D01*
X288088D01*
Y24901D01*
X288061D01*
Y24928D01*
X288007D01*
Y24955D01*
X287980D01*
Y24982D01*
X287953D01*
Y25008D01*
X287926D01*
Y25035D01*
X287899D01*
Y25062D01*
X287872D01*
Y25116D01*
X287845D01*
Y25143D01*
X287818D01*
Y25197D01*
X287791D01*
Y25251D01*
X287765D01*
Y25358D01*
X287738D01*
Y25654D01*
X287765D01*
Y25762D01*
X287791D01*
Y25816D01*
X287818D01*
Y25870D01*
X287845D01*
Y25897D01*
X287872D01*
Y25950D01*
X287899D01*
Y25977D01*
X287926D01*
Y26004D01*
X287953D01*
Y26031D01*
X287980D01*
Y26058D01*
X288007D01*
Y26085D01*
X288061D01*
Y26112D01*
X288088D01*
Y26139D01*
X288141D01*
Y26166D01*
X288195D01*
Y26193D01*
X288303D01*
Y26219D01*
X288626D01*
Y26193D01*
X288706D01*
Y26166D01*
X288760D01*
Y26139D01*
X288814D01*
Y26112D01*
X288868D01*
Y26085D01*
X288895D01*
Y26058D01*
X288922D01*
Y26031D01*
X288949D01*
Y26004D01*
X288976D01*
Y25977D01*
X289002D01*
Y25950D01*
X289029D01*
Y25923D01*
X289056D01*
Y25870D01*
X289083D01*
Y25843D01*
X289110D01*
Y25762D01*
X289137D01*
Y25708D01*
X289164D01*
Y25304D01*
X289137D01*
Y25197D01*
X289191D01*
Y25170D01*
X289218D01*
Y25143D01*
X289245D01*
Y25116D01*
X289272D01*
Y25089D01*
X289299D01*
Y25062D01*
X289325D01*
Y25035D01*
X289352D01*
Y25008D01*
X289379D01*
Y24982D01*
X289433D01*
Y24955D01*
X289460D01*
Y24928D01*
X289487D01*
Y24901D01*
X289514D01*
Y24874D01*
X289541D01*
Y24847D01*
X289568D01*
Y24820D01*
X289595D01*
Y24793D01*
X289621D01*
Y24766D01*
X289675D01*
Y24739D01*
X289702D01*
Y24712D01*
X289729D01*
Y24686D01*
X289756D01*
Y24659D01*
X289783D01*
Y24632D01*
X289810D01*
Y24605D01*
X289837D01*
Y24578D01*
X289864D01*
Y24551D01*
X289918D01*
Y24524D01*
X289945D01*
Y24497D01*
X289971D01*
Y24470D01*
X289998D01*
Y24443D01*
X290025D01*
Y24416D01*
X290052D01*
Y24389D01*
X290079D01*
Y24363D01*
X290106D01*
Y24336D01*
X290160D01*
Y24309D01*
X290187D01*
Y24282D01*
X290214D01*
Y24255D01*
X290241D01*
Y24228D01*
X290267D01*
Y24201D01*
X290294D01*
Y24174D01*
X290321D01*
Y24147D01*
X290348D01*
Y24120D01*
X290402D01*
Y24093D01*
X290429D01*
Y24067D01*
X290456D01*
Y24040D01*
X290483D01*
Y24013D01*
X290510D01*
Y23986D01*
X290537D01*
Y23959D01*
X290564D01*
Y23932D01*
X290617D01*
Y23905D01*
X290644D01*
Y23878D01*
X290671D01*
Y23851D01*
X290698D01*
Y23824D01*
X290725D01*
Y23797D01*
X290752D01*
Y23770D01*
X290779D01*
Y23743D01*
X290806D01*
Y23717D01*
X290860D01*
Y23690D01*
X290886D01*
Y23663D01*
X290913D01*
Y23636D01*
X290940D01*
Y23609D01*
X290967D01*
Y23582D01*
X290994D01*
Y23555D01*
X291021D01*
Y23528D01*
X291048D01*
Y23501D01*
X291102D01*
Y23474D01*
X291129D01*
Y23448D01*
X291156D01*
Y23421D01*
X291182D01*
Y23394D01*
X291209D01*
Y23367D01*
X291236D01*
Y23340D01*
X291263D01*
Y23313D01*
X291290D01*
Y23286D01*
X291344D01*
Y23259D01*
X291371D01*
Y23232D01*
X291398D01*
Y23205D01*
X291425D01*
Y23178D01*
X291452D01*
Y23151D01*
X291478D01*
Y23124D01*
X291506D01*
Y23098D01*
X291532D01*
Y23071D01*
X291586D01*
Y23044D01*
X291613D01*
Y23017D01*
X291640D01*
Y22990D01*
X291667D01*
Y22963D01*
X291694D01*
Y22936D01*
X291721D01*
Y22909D01*
X291748D01*
Y22882D01*
X291775D01*
Y22855D01*
X291828D01*
Y22828D01*
X291855D01*
Y22802D01*
X291882D01*
Y22775D01*
X291909D01*
Y22748D01*
X291936D01*
Y22721D01*
X291963D01*
Y22694D01*
X291990D01*
Y22667D01*
X292017D01*
Y22640D01*
X292071D01*
Y22613D01*
X292097D01*
Y22586D01*
X292124D01*
Y22559D01*
X292151D01*
Y22532D01*
X292178D01*
Y22505D01*
X292205D01*
Y22479D01*
X292232D01*
Y22452D01*
X292259D01*
Y22425D01*
X292313D01*
Y22398D01*
X292340D01*
Y22371D01*
X292367D01*
Y22344D01*
X292394D01*
Y22317D01*
X292421D01*
Y22290D01*
X292447D01*
Y22263D01*
X292474D01*
Y22236D01*
X292528D01*
Y22209D01*
X292555D01*
Y22183D01*
X292582D01*
Y22156D01*
X292609D01*
Y22129D01*
X292636D01*
Y22102D01*
X292663D01*
Y22075D01*
X292690D01*
Y22048D01*
X292717D01*
Y22021D01*
X292770D01*
Y21994D01*
X292797D01*
Y21967D01*
X292824D01*
Y21940D01*
X292851D01*
Y21913D01*
X292878D01*
Y21887D01*
X295919D01*
Y22532D01*
X293497D01*
Y22559D01*
X293443D01*
Y22586D01*
X293416D01*
Y22613D01*
X293389D01*
Y22640D01*
X293362D01*
Y22667D01*
X293336D01*
Y22694D01*
X293309D01*
Y22721D01*
X293282D01*
Y22748D01*
X293228D01*
Y22775D01*
X293201D01*
Y22802D01*
X293174D01*
Y22828D01*
X293147D01*
Y22855D01*
X293120D01*
Y22882D01*
X293093D01*
Y22909D01*
X293066D01*
Y22936D01*
X293013D01*
Y22963D01*
X292986D01*
Y22990D01*
X292959D01*
Y23017D01*
X292932D01*
Y23044D01*
X292905D01*
Y23071D01*
X292878D01*
Y23098D01*
X292851D01*
Y23124D01*
X292797D01*
Y23151D01*
X292770D01*
Y23178D01*
X292743D01*
Y23205D01*
X292717D01*
Y23232D01*
X292690D01*
Y23259D01*
X292663D01*
Y23286D01*
X292609D01*
Y23313D01*
X292582D01*
Y23340D01*
X292555D01*
Y23367D01*
X292528D01*
Y23394D01*
X292501D01*
Y23421D01*
X292474D01*
Y23448D01*
X292447D01*
Y23474D01*
X292394D01*
Y23501D01*
X292367D01*
Y23528D01*
X292340D01*
Y23555D01*
X292313D01*
Y23582D01*
X292286D01*
Y23609D01*
X292259D01*
Y23636D01*
X292232D01*
Y23663D01*
X292178D01*
Y23690D01*
X292151D01*
Y23717D01*
X292124D01*
Y23743D01*
X292097D01*
Y23770D01*
X292071D01*
Y23797D01*
X292044D01*
Y23824D01*
X292017D01*
Y23851D01*
X291963D01*
Y23878D01*
X291936D01*
Y23905D01*
X291909D01*
Y23932D01*
X291882D01*
Y23959D01*
X291855D01*
Y23986D01*
X291828D01*
Y24013D01*
X291802D01*
Y24040D01*
X291748D01*
Y24067D01*
X291721D01*
Y24093D01*
X291694D01*
Y24120D01*
X291667D01*
Y24147D01*
X291640D01*
Y24174D01*
X291613D01*
Y24201D01*
X291586D01*
Y24228D01*
X291532D01*
Y24255D01*
X291506D01*
Y24282D01*
X291478D01*
Y24309D01*
X291452D01*
Y24336D01*
X291425D01*
Y24363D01*
X291398D01*
Y24389D01*
X291371D01*
Y24416D01*
X291317D01*
Y24443D01*
X291290D01*
Y24470D01*
X291263D01*
Y24497D01*
X291236D01*
Y24524D01*
X291209D01*
Y24551D01*
X291182D01*
Y24578D01*
X291129D01*
Y24605D01*
X291102D01*
Y24632D01*
X291075D01*
Y24659D01*
X291048D01*
Y24686D01*
X291021D01*
Y24712D01*
X290994D01*
Y24739D01*
X290967D01*
Y24766D01*
X290913D01*
Y24793D01*
X290886D01*
Y24820D01*
X290860D01*
Y24847D01*
X290833D01*
Y24874D01*
X290806D01*
Y24901D01*
X290779D01*
Y24928D01*
X290752D01*
Y24955D01*
X290698D01*
Y24982D01*
X290671D01*
Y25008D01*
X290644D01*
Y25035D01*
X290617D01*
Y25062D01*
X290564D01*
Y25035D01*
X290510D01*
Y25008D01*
X290429D01*
Y24982D01*
X289998D01*
Y25008D01*
X289945D01*
Y25035D01*
X289891D01*
Y25062D01*
X289837D01*
Y25089D01*
X289783D01*
Y25116D01*
X289756D01*
Y25143D01*
X289729D01*
Y25170D01*
X289702D01*
Y25197D01*
X289675D01*
Y25224D01*
X289648D01*
Y25251D01*
X289621D01*
Y25304D01*
X289595D01*
Y25358D01*
X289568D01*
Y25412D01*
X289541D01*
Y25493D01*
X289514D01*
Y25843D01*
X289541D01*
Y25950D01*
X289568D01*
Y26004D01*
X289595D01*
Y26058D01*
X289621D01*
Y26085D01*
X289648D01*
Y26139D01*
X289675D01*
Y26166D01*
X289702D01*
Y26193D01*
X289729D01*
Y26219D01*
X289756D01*
Y26246D01*
X289783D01*
Y26273D01*
X289837D01*
Y26300D01*
X289891D01*
Y26327D01*
X289945D01*
Y26354D01*
X290025D01*
Y26381D01*
X290429D01*
Y26354D01*
X290510D01*
Y26327D01*
X290564D01*
Y26300D01*
X290590D01*
Y26273D01*
X290644D01*
Y26246D01*
X290698D01*
Y26219D01*
X290725D01*
Y26166D01*
X290752D01*
Y26139D01*
X290779D01*
Y26112D01*
X290806D01*
Y26058D01*
X290833D01*
Y26031D01*
X290860D01*
Y25977D01*
X290886D01*
Y25897D01*
X290913D01*
Y25816D01*
X290940D01*
Y25547D01*
X290913D01*
Y25385D01*
X290967D01*
Y25358D01*
X290994D01*
Y25331D01*
X291021D01*
Y25304D01*
X291048D01*
Y25278D01*
X291075D01*
Y25251D01*
X291102D01*
Y25224D01*
X291129D01*
Y25197D01*
X291182D01*
Y25170D01*
X291209D01*
Y25143D01*
X291236D01*
Y25116D01*
X291263D01*
Y25089D01*
X291290D01*
Y25062D01*
X291317D01*
Y25035D01*
X291371D01*
Y25008D01*
X291398D01*
Y24982D01*
X291425D01*
Y24955D01*
X291452D01*
Y24928D01*
X291478D01*
Y24901D01*
X291506D01*
Y24874D01*
X291532D01*
Y24847D01*
X291586D01*
Y24820D01*
X291613D01*
Y24793D01*
X291640D01*
Y24766D01*
X291667D01*
Y24739D01*
X291694D01*
Y24712D01*
X291721D01*
Y24686D01*
X291748D01*
Y24659D01*
X291802D01*
Y24632D01*
X291828D01*
Y24605D01*
X291855D01*
Y24578D01*
X291882D01*
Y24551D01*
X291909D01*
Y24524D01*
X291936D01*
Y24497D01*
X291963D01*
Y24470D01*
X292017D01*
Y24443D01*
X292044D01*
Y24416D01*
X292071D01*
Y24389D01*
X292097D01*
Y24363D01*
X292124D01*
Y24336D01*
X292151D01*
Y24309D01*
X292178D01*
Y24282D01*
X292232D01*
Y24255D01*
X292259D01*
Y24228D01*
X292286D01*
Y24201D01*
X292313D01*
Y24174D01*
X292340D01*
Y24147D01*
X292367D01*
Y24120D01*
X292394D01*
Y24093D01*
X292447D01*
Y24067D01*
X292474D01*
Y24040D01*
X292501D01*
Y24013D01*
X292528D01*
Y23986D01*
X292555D01*
Y23959D01*
X292582D01*
Y23932D01*
X292609D01*
Y23905D01*
X292663D01*
Y23878D01*
X292690D01*
Y23851D01*
X292717D01*
Y23824D01*
X292743D01*
Y23797D01*
X292770D01*
Y23770D01*
X292797D01*
Y23743D01*
X292851D01*
Y23717D01*
X292878D01*
Y23690D01*
X292905D01*
Y23663D01*
X292932D01*
Y23636D01*
X292959D01*
Y23609D01*
X292986D01*
Y23582D01*
X293013D01*
Y23555D01*
X293066D01*
Y23528D01*
X293093D01*
Y23501D01*
X293120D01*
Y23474D01*
X293147D01*
Y23448D01*
X293174D01*
Y23421D01*
X293201D01*
Y23394D01*
X293228D01*
Y23367D01*
X293282D01*
Y23340D01*
X293309D01*
Y23313D01*
X293336D01*
Y23286D01*
X293362D01*
Y23259D01*
X293389D01*
Y23232D01*
X293416D01*
Y23205D01*
X293443D01*
Y23178D01*
X293497D01*
Y23151D01*
X293524D01*
Y23124D01*
X293551D01*
Y23098D01*
X293578D01*
Y23071D01*
X293605D01*
Y23044D01*
X293632D01*
Y23017D01*
X293658D01*
Y22990D01*
X295919D01*
Y23259D01*
X295946D01*
Y26677D01*
X295919D01*
Y26704D01*
X295892D01*
Y26731D01*
X295838D01*
Y26758D01*
X295785D01*
Y26785D01*
X295731D01*
Y26812D01*
X295677D01*
Y26838D01*
X295623D01*
Y26866D01*
X295569D01*
Y26892D01*
X295515D01*
Y26919D01*
X295435D01*
Y26946D01*
X295381D01*
Y26973D01*
X295327D01*
Y27000D01*
X295246D01*
Y27027D01*
X295193D01*
Y27054D01*
X295139D01*
Y27081D01*
X295058D01*
Y27108D01*
X294977D01*
Y27135D01*
X294923D01*
Y27161D01*
X294843D01*
Y27188D01*
X294762D01*
Y27215D01*
X294708D01*
Y27242D01*
X294601D01*
Y27269D01*
X294547D01*
Y27296D01*
X294439D01*
Y27323D01*
X294358D01*
Y27350D01*
X294278D01*
Y27377D01*
X294170D01*
Y27404D01*
X294089D01*
Y27431D01*
X293982D01*
Y27457D01*
X293874D01*
Y27485D01*
X293766D01*
Y27511D01*
X293658D01*
Y27538D01*
X293551D01*
Y27565D01*
X293416D01*
Y27592D01*
X293309D01*
Y27619D01*
X293174D01*
Y27646D01*
X293013D01*
Y27673D01*
X292851D01*
Y27700D01*
X292663D01*
Y27727D01*
X292474D01*
Y27754D01*
X292151D01*
Y27781D01*
X290564D01*
Y27754D01*
X290267D01*
Y27727D01*
X290025D01*
Y27700D01*
X289864D01*
Y27673D01*
X289702D01*
Y27646D01*
X289541D01*
Y27619D01*
X289379D01*
Y27592D01*
X289272D01*
Y27565D01*
X289137D01*
Y27538D01*
X289002D01*
Y27511D01*
X288895D01*
Y27485D01*
X288787D01*
Y27457D01*
X288680D01*
Y27431D01*
X288599D01*
Y27404D01*
X288491D01*
Y27377D01*
X288410D01*
Y27350D01*
X288330D01*
Y27323D01*
X288222D01*
Y27296D01*
X288141D01*
Y27269D01*
X288061D01*
Y27242D01*
X288007D01*
Y27215D01*
X287926D01*
Y27188D01*
X287845D01*
Y27161D01*
X287765D01*
Y27135D01*
X287711D01*
Y27108D01*
X287630D01*
Y27081D01*
X287549D01*
Y27054D01*
X287495D01*
Y27027D01*
X287442D01*
Y27000D01*
X287361D01*
Y26973D01*
X287307D01*
Y26946D01*
X287253D01*
Y26919D01*
X287199D01*
Y26892D01*
X287119D01*
Y26866D01*
X287065D01*
Y26838D01*
X287011D01*
Y26812D01*
X286957D01*
Y26785D01*
X286903D01*
Y26758D01*
X286849D01*
Y26731D01*
X286796D01*
Y26704D01*
X286742D01*
Y26677D01*
X286688D01*
Y26650D01*
X286634D01*
Y26623D01*
X286580D01*
Y26596D01*
X286526D01*
Y26569D01*
X286473D01*
Y26542D01*
X286446D01*
Y26516D01*
X286392D01*
Y26489D01*
X286338D01*
Y26462D01*
X286284D01*
Y26435D01*
X286230D01*
Y26408D01*
X286204D01*
Y26381D01*
X286150D01*
Y26354D01*
X286123D01*
Y26327D01*
X286069D01*
Y26300D01*
X286015D01*
Y26273D01*
X285988D01*
Y26246D01*
X285934D01*
Y26219D01*
X285881D01*
Y26193D01*
X285854D01*
Y26166D01*
X285800D01*
Y26139D01*
X285773D01*
Y26112D01*
X285719D01*
Y26085D01*
X285692D01*
Y26058D01*
X285638D01*
Y26031D01*
X285612D01*
Y26004D01*
X285585D01*
Y25977D01*
X285531D01*
Y25950D01*
X285504D01*
Y25923D01*
X285450D01*
Y25897D01*
X285423D01*
Y25870D01*
X285396D01*
Y25843D01*
X285342D01*
Y25816D01*
X285315D01*
Y25789D01*
X285262D01*
Y25762D01*
X285235D01*
Y25735D01*
X285208D01*
Y25708D01*
X285181D01*
Y25681D01*
X285127D01*
Y25654D01*
X285100D01*
Y25627D01*
X285073D01*
Y25600D01*
X285019D01*
Y25574D01*
X284993D01*
Y25547D01*
X284966D01*
Y25520D01*
X284939D01*
Y25493D01*
X284885D01*
Y25466D01*
X284858D01*
Y25439D01*
X284831D01*
Y25412D01*
X284804D01*
Y25385D01*
X284777D01*
Y25358D01*
X284750D01*
Y25331D01*
X284696D01*
Y25304D01*
X284669D01*
Y25278D01*
X284643D01*
Y25251D01*
X284616D01*
Y25224D01*
X284589D01*
Y25197D01*
X284562D01*
Y25170D01*
X284535D01*
Y25143D01*
X284481D01*
Y25116D01*
X284454D01*
Y25089D01*
X284427D01*
Y25062D01*
X284400D01*
Y25035D01*
X284373D01*
Y25008D01*
X284347D01*
Y24982D01*
X284320D01*
Y24955D01*
X284293D01*
Y24928D01*
X284266D01*
Y24901D01*
X284239D01*
Y24874D01*
X284212D01*
Y24847D01*
X284185D01*
Y24820D01*
X284158D01*
Y24793D01*
X284131D01*
Y24766D01*
X284104D01*
Y24739D01*
X284077D01*
Y24712D01*
X284050D01*
Y24686D01*
X284024D01*
Y24659D01*
X283997D01*
Y24632D01*
X283970D01*
Y24605D01*
X283943D01*
Y24551D01*
X283916D01*
Y24524D01*
X283889D01*
Y24497D01*
X283862D01*
Y24470D01*
X283835D01*
Y24443D01*
X283808D01*
Y24416D01*
X283781D01*
Y24389D01*
X283754D01*
Y24363D01*
X283728D01*
Y24309D01*
X283701D01*
Y24282D01*
X283674D01*
Y24255D01*
X283647D01*
Y24228D01*
X283620D01*
Y24201D01*
X283593D01*
Y24147D01*
X283566D01*
Y24120D01*
X283539D01*
Y24093D01*
X283512D01*
Y24067D01*
X283485D01*
Y24013D01*
X283458D01*
Y23986D01*
X283432D01*
Y23959D01*
X283405D01*
Y23932D01*
X283378D01*
Y23878D01*
X283351D01*
Y23851D01*
X283324D01*
Y23824D01*
X283297D01*
Y23797D01*
X283270D01*
Y23743D01*
X283243D01*
Y23717D01*
X283216D01*
Y23690D01*
X283189D01*
Y23636D01*
X283162D01*
Y23609D01*
X283136D01*
Y23555D01*
X283109D01*
Y23528D01*
X283082D01*
Y23501D01*
X283055D01*
Y23448D01*
X283028D01*
Y23421D01*
X283001D01*
Y23367D01*
X282974D01*
Y23340D01*
X282947D01*
Y23286D01*
X282920D01*
Y23259D01*
X282893D01*
Y23205D01*
X282866D01*
Y23178D01*
X282839D01*
Y23124D01*
X282812D01*
Y23098D01*
X282786D01*
Y23044D01*
X282759D01*
Y23017D01*
X282732D01*
Y22963D01*
X282705D01*
Y22909D01*
X282678D01*
Y22882D01*
X282651D01*
Y22855D01*
X282624D01*
Y22882D01*
X282570D01*
Y22909D01*
X282543D01*
Y22936D01*
X282517D01*
Y22963D01*
X282463D01*
Y23017D01*
X282490D01*
Y23071D01*
X282517D01*
Y23124D01*
X282543D01*
Y23151D01*
X282570D01*
Y23205D01*
X282597D01*
Y23259D01*
X282624D01*
Y23286D01*
X282651D01*
Y23340D01*
X282678D01*
Y23367D01*
X282705D01*
Y23421D01*
X282732D01*
Y23448D01*
X282759D01*
Y23501D01*
X282786D01*
Y23528D01*
X282812D01*
Y23582D01*
X282839D01*
Y23609D01*
X282866D01*
Y23636D01*
X282893D01*
Y23690D01*
X282920D01*
Y23717D01*
X282947D01*
Y23770D01*
X282974D01*
Y23797D01*
X283001D01*
Y23824D01*
X283028D01*
Y23878D01*
X283055D01*
Y23905D01*
X283082D01*
Y23959D01*
X283109D01*
Y23986D01*
X283136D01*
Y24013D01*
X283162D01*
Y24040D01*
X283189D01*
Y24093D01*
X283216D01*
Y24120D01*
X283243D01*
Y24147D01*
X283270D01*
Y24174D01*
X283297D01*
Y24228D01*
X283324D01*
Y24255D01*
X283351D01*
Y24282D01*
X283378D01*
Y24309D01*
X283405D01*
Y24363D01*
X283432D01*
Y24389D01*
X283458D01*
Y24416D01*
X283485D01*
Y24443D01*
X283512D01*
Y24470D01*
X283539D01*
Y24497D01*
X283566D01*
Y24551D01*
X283593D01*
Y24578D01*
X283620D01*
Y24605D01*
X283647D01*
Y24632D01*
X283674D01*
Y24659D01*
X283701D01*
Y24686D01*
X283728D01*
Y24712D01*
X283754D01*
Y24766D01*
X283781D01*
Y24793D01*
X283808D01*
Y24820D01*
X283835D01*
Y24847D01*
X283862D01*
Y24874D01*
X283889D01*
Y24901D01*
X283916D01*
Y24928D01*
X283943D01*
Y24955D01*
X283970D01*
Y24982D01*
X283997D01*
Y25008D01*
X284024D01*
Y25035D01*
X284050D01*
Y25062D01*
X284077D01*
Y25089D01*
X284104D01*
Y25116D01*
X284131D01*
Y25143D01*
X284158D01*
Y25170D01*
X284185D01*
Y25197D01*
X284212D01*
Y25224D01*
X284239D01*
Y25251D01*
X284266D01*
Y25278D01*
X284293D01*
Y25304D01*
X284347D01*
Y25331D01*
X284373D01*
Y25358D01*
X284400D01*
Y25385D01*
X284427D01*
Y25412D01*
X284454D01*
Y25439D01*
X284481D01*
Y25466D01*
X284508D01*
Y25493D01*
X284535D01*
Y25520D01*
X284562D01*
Y25547D01*
X284616D01*
Y25574D01*
X284643D01*
Y25600D01*
X284669D01*
Y25627D01*
X284696D01*
Y25654D01*
X284723D01*
Y25681D01*
X284777D01*
Y25708D01*
X284804D01*
Y25735D01*
X284831D01*
Y25762D01*
X284858D01*
Y25789D01*
X284912D01*
Y25816D01*
X284939D01*
Y25843D01*
X284966D01*
Y25870D01*
X284993D01*
Y25897D01*
X285046D01*
Y25923D01*
X285073D01*
Y25950D01*
X285100D01*
Y25977D01*
X285154D01*
Y26004D01*
X285181D01*
Y26031D01*
X285208D01*
Y26058D01*
X285262D01*
Y26085D01*
X285289D01*
Y26112D01*
X285342D01*
Y26139D01*
X285369D01*
Y26166D01*
X285396D01*
Y26193D01*
X285450D01*
Y26219D01*
X285477D01*
Y26246D01*
X285531D01*
Y26273D01*
X285558D01*
Y26300D01*
X285612D01*
Y26327D01*
X285638D01*
Y26354D01*
X285692D01*
Y26381D01*
X285746D01*
Y26408D01*
X285773D01*
Y26435D01*
X285827D01*
Y26462D01*
X285854D01*
Y26489D01*
X285908D01*
Y26516D01*
X285961D01*
Y26542D01*
X285988D01*
Y26569D01*
X286042D01*
Y26596D01*
X286096D01*
Y26623D01*
X286123D01*
Y26650D01*
X286177D01*
Y26677D01*
X286230D01*
Y26704D01*
X286284D01*
Y26731D01*
X286311D01*
Y26758D01*
X286365D01*
Y26785D01*
X286419D01*
Y26812D01*
X286473D01*
Y26838D01*
X286526D01*
Y26866D01*
X286580D01*
Y26892D01*
X286634D01*
Y26919D01*
X286688D01*
Y26946D01*
X286742D01*
Y26973D01*
X286796D01*
Y27000D01*
X286849D01*
Y27027D01*
X286903D01*
Y27054D01*
X286957D01*
Y27081D01*
X287011D01*
Y27108D01*
X287065D01*
Y27135D01*
X287119D01*
Y27161D01*
X287199D01*
Y27188D01*
X287253D01*
Y27215D01*
X287307D01*
Y27242D01*
X287388D01*
Y27269D01*
X287442D01*
Y27296D01*
X287495D01*
Y27323D01*
X287576D01*
Y27350D01*
X287657D01*
Y27377D01*
X287711D01*
Y27404D01*
X287791D01*
Y27431D01*
X287872D01*
Y27457D01*
X287926D01*
Y27485D01*
X288007D01*
Y27511D01*
X288088D01*
Y27538D01*
X288168D01*
Y27565D01*
X288276D01*
Y27592D01*
X288357D01*
Y27619D01*
X288437D01*
Y27646D01*
X288545D01*
Y27673D01*
X288653D01*
Y27700D01*
X288760D01*
Y27727D01*
X288841D01*
Y27754D01*
X288976D01*
Y27781D01*
X289083D01*
Y27807D01*
X289191D01*
Y27834D01*
X289352D01*
Y27861D01*
X289487D01*
Y27888D01*
X289648D01*
Y27915D01*
X289810D01*
Y27942D01*
X289998D01*
Y27969D01*
X290187D01*
Y27996D01*
X290510D01*
Y28023D01*
X292124D01*
Y27996D01*
D02*
G37*
G36*
X298503Y19437D02*
X298530D01*
Y19384D01*
X298557D01*
Y19357D01*
X298584D01*
Y19303D01*
X298530D01*
Y19276D01*
X298476D01*
Y19249D01*
X298422D01*
Y19222D01*
X298368D01*
Y19195D01*
X298314D01*
Y19168D01*
X298261D01*
Y19141D01*
X298207D01*
Y19115D01*
X298180D01*
Y19088D01*
X298153D01*
Y19061D01*
X298099D01*
Y19034D01*
X298072D01*
Y19007D01*
X298045D01*
Y18980D01*
X298018D01*
Y18953D01*
X297991D01*
Y18926D01*
X297965D01*
Y18872D01*
X297938D01*
Y18845D01*
X297911D01*
Y18791D01*
X297884D01*
Y18738D01*
X297857D01*
Y18657D01*
X297830D01*
Y18576D01*
X297803D01*
Y18307D01*
X297830D01*
Y18226D01*
X297857D01*
Y18199D01*
X297884D01*
Y18146D01*
X297911D01*
Y18119D01*
X297938D01*
Y18092D01*
X297965D01*
Y18065D01*
X297991D01*
Y18038D01*
X298018D01*
Y18011D01*
X298045D01*
Y17984D01*
X298072D01*
Y17957D01*
X298099D01*
Y17930D01*
X298126D01*
Y17903D01*
X298153D01*
Y17876D01*
X298180D01*
Y17850D01*
X298207D01*
Y17823D01*
X298234D01*
Y17796D01*
X298288D01*
Y17769D01*
X298314D01*
Y17742D01*
X298341D01*
Y17715D01*
X298368D01*
Y17688D01*
X298395D01*
Y17661D01*
X298422D01*
Y17634D01*
X298476D01*
Y17607D01*
X298503D01*
Y17580D01*
X298530D01*
Y17553D01*
X298557D01*
Y17527D01*
X298584D01*
Y17500D01*
X298637D01*
Y17473D01*
X298664D01*
Y17446D01*
X298691D01*
Y17419D01*
X298718D01*
Y17392D01*
X298772D01*
Y17365D01*
X298799D01*
Y17338D01*
X298826D01*
Y17311D01*
X298853D01*
Y17284D01*
X298880D01*
Y17257D01*
X298907D01*
Y17231D01*
X298934D01*
Y17204D01*
X298987D01*
Y17177D01*
X299014D01*
Y17150D01*
X299041D01*
Y17096D01*
X299068D01*
Y17069D01*
X299095D01*
Y17042D01*
X299122D01*
Y17015D01*
X299149D01*
Y16961D01*
X299176D01*
Y16935D01*
X299203D01*
Y16881D01*
X299230D01*
Y16827D01*
X299256D01*
Y16719D01*
X299283D01*
Y16504D01*
X299256D01*
Y16396D01*
X299230D01*
Y16342D01*
X299203D01*
Y16289D01*
X299176D01*
Y16262D01*
X299149D01*
Y16208D01*
X299122D01*
Y16181D01*
X299095D01*
Y16154D01*
X299068D01*
Y16127D01*
X299041D01*
Y16100D01*
X299014D01*
Y16073D01*
X298987D01*
Y16046D01*
X298960D01*
Y16019D01*
X298934D01*
Y15992D01*
X298907D01*
Y15966D01*
X298880D01*
Y15939D01*
X298826D01*
Y15912D01*
X298799D01*
Y15939D01*
X298772D01*
Y15966D01*
X298745D01*
Y15992D01*
X298718D01*
Y16019D01*
X298691D01*
Y16046D01*
X298664D01*
Y16073D01*
X298610D01*
Y16100D01*
X298584D01*
Y16127D01*
X298530D01*
Y16154D01*
X298422D01*
Y16181D01*
X298234D01*
Y16154D01*
X298153D01*
Y16127D01*
X298072D01*
Y16100D01*
X298018D01*
Y16073D01*
X297991D01*
Y16046D01*
X297965D01*
Y16019D01*
X297938D01*
Y15992D01*
X297911D01*
Y15966D01*
X297884D01*
Y15939D01*
X297857D01*
Y15885D01*
X297830D01*
Y15831D01*
X297803D01*
Y15804D01*
X295919D01*
Y16342D01*
X289110D01*
Y16316D01*
X289083D01*
Y16262D01*
X289056D01*
Y16208D01*
X289029D01*
Y16181D01*
X289002D01*
Y16127D01*
X288976D01*
Y16100D01*
X288949D01*
Y16073D01*
X288922D01*
Y16046D01*
X288895D01*
Y16019D01*
X288868D01*
Y15992D01*
X288814D01*
Y15966D01*
X288787D01*
Y15939D01*
X288733D01*
Y15912D01*
X288680D01*
Y15885D01*
X288599D01*
Y15858D01*
X288222D01*
Y15885D01*
X288168D01*
Y15912D01*
X288088D01*
Y15939D01*
X288061D01*
Y15966D01*
X288007D01*
Y15992D01*
X287980D01*
Y16019D01*
X287953D01*
Y16046D01*
X287926D01*
Y16073D01*
X287872D01*
Y16100D01*
X287845D01*
Y16154D01*
X287818D01*
Y16181D01*
X287791D01*
Y16235D01*
X287765D01*
Y16289D01*
X287738D01*
Y16342D01*
X287711D01*
Y16773D01*
X287738D01*
Y16854D01*
X287765D01*
Y16908D01*
X287791D01*
Y16961D01*
X287818D01*
Y16988D01*
X287845D01*
Y17015D01*
X287872D01*
Y17042D01*
X287899D01*
Y17096D01*
X287953D01*
Y17123D01*
X287980D01*
Y17150D01*
X288007D01*
Y17177D01*
X288061D01*
Y17204D01*
X288088D01*
Y17231D01*
X288168D01*
Y17257D01*
X288276D01*
Y17284D01*
X288572D01*
Y17257D01*
X288680D01*
Y17231D01*
X288733D01*
Y17204D01*
X288787D01*
Y17177D01*
X288814D01*
Y17150D01*
X288868D01*
Y17123D01*
X288895D01*
Y17096D01*
X288922D01*
Y17069D01*
X288949D01*
Y17042D01*
X288976D01*
Y16988D01*
X289002D01*
Y16961D01*
X289029D01*
Y16908D01*
X289056D01*
Y16881D01*
X289083D01*
Y16827D01*
X289110D01*
Y16800D01*
X295919D01*
Y17365D01*
X290913D01*
Y17823D01*
X295919D01*
Y18442D01*
X290160D01*
Y18388D01*
X290133D01*
Y18361D01*
X290106D01*
Y18307D01*
X290079D01*
Y18280D01*
X290052D01*
Y18253D01*
X290025D01*
Y18226D01*
X289998D01*
Y18199D01*
X289971D01*
Y18172D01*
X289918D01*
Y18146D01*
X289891D01*
Y18119D01*
X289864D01*
Y18092D01*
X289810D01*
Y18065D01*
X289729D01*
Y18038D01*
X289621D01*
Y18011D01*
X289406D01*
Y18038D01*
X289272D01*
Y18065D01*
X289218D01*
Y18092D01*
X289164D01*
Y18119D01*
X289110D01*
Y18146D01*
X289083D01*
Y18172D01*
X289056D01*
Y18199D01*
X289029D01*
Y18226D01*
X288976D01*
Y18253D01*
X288949D01*
Y18307D01*
X288922D01*
Y18334D01*
X288895D01*
Y18388D01*
X288868D01*
Y18442D01*
X288841D01*
Y18496D01*
X288814D01*
Y18603D01*
X288787D01*
Y18872D01*
X288814D01*
Y18980D01*
X288841D01*
Y19061D01*
X288868D01*
Y19115D01*
X288895D01*
Y19141D01*
X288922D01*
Y19195D01*
X288949D01*
Y19222D01*
X288976D01*
Y19249D01*
X289002D01*
Y19276D01*
X289029D01*
Y19303D01*
X289056D01*
Y19330D01*
X289110D01*
Y19357D01*
X289164D01*
Y19384D01*
X289218D01*
Y19410D01*
X289272D01*
Y19437D01*
X289729D01*
Y19410D01*
X289783D01*
Y19384D01*
X289864D01*
Y19357D01*
X289891D01*
Y19330D01*
X289945D01*
Y19303D01*
X289971D01*
Y19276D01*
X289998D01*
Y19249D01*
X290025D01*
Y19222D01*
X290052D01*
Y19195D01*
X290079D01*
Y19141D01*
X290106D01*
Y19115D01*
X290133D01*
Y19061D01*
X290160D01*
Y19007D01*
X290187D01*
Y18926D01*
X290214D01*
Y18899D01*
X295919D01*
Y19491D01*
X298503D01*
Y19437D01*
D02*
G37*
G36*
X284535Y18765D02*
X284616D01*
Y18738D01*
X284669D01*
Y18711D01*
X284750D01*
Y18684D01*
X284831D01*
Y18657D01*
X284912D01*
Y18630D01*
X284966D01*
Y18603D01*
X285046D01*
Y18576D01*
X285100D01*
Y18549D01*
X285181D01*
Y18522D01*
X285235D01*
Y18496D01*
X285289D01*
Y18469D01*
X285342D01*
Y18442D01*
X285396D01*
Y18415D01*
X285450D01*
Y18388D01*
X285504D01*
Y18361D01*
X285531D01*
Y18334D01*
X285585D01*
Y18307D01*
X285638D01*
Y18280D01*
X285665D01*
Y18253D01*
X285719D01*
Y18226D01*
X285746D01*
Y18199D01*
X285773D01*
Y18172D01*
X285800D01*
Y18146D01*
X285854D01*
Y18119D01*
X285881D01*
Y18092D01*
X285908D01*
Y18065D01*
X285934D01*
Y18038D01*
X285961D01*
Y18011D01*
X285988D01*
Y17984D01*
X286015D01*
Y17957D01*
X286042D01*
Y17930D01*
X286069D01*
Y17876D01*
X286096D01*
Y17850D01*
X286123D01*
Y17796D01*
X286150D01*
Y17715D01*
X286177D01*
Y17419D01*
X286150D01*
Y17365D01*
X286123D01*
Y17338D01*
X286096D01*
Y17284D01*
X286069D01*
Y17257D01*
X286042D01*
Y17231D01*
X286015D01*
Y17177D01*
X285988D01*
Y17150D01*
X285961D01*
Y17123D01*
X285934D01*
Y17096D01*
X285881D01*
Y17069D01*
X285854D01*
Y17042D01*
X285827D01*
Y17015D01*
X285773D01*
Y16988D01*
X285746D01*
Y16961D01*
X285719D01*
Y16935D01*
X285665D01*
Y16908D01*
X285612D01*
Y16881D01*
X285585D01*
Y16854D01*
X285531D01*
Y16827D01*
X285477D01*
Y16800D01*
X285423D01*
Y16773D01*
X285369D01*
Y16746D01*
X285315D01*
Y16719D01*
X285262D01*
Y16692D01*
X285208D01*
Y16665D01*
X285154D01*
Y16638D01*
X285073D01*
Y16612D01*
X285019D01*
Y16585D01*
X284966D01*
Y16558D01*
X284885D01*
Y16531D01*
X284804D01*
Y16504D01*
X284723D01*
Y16477D01*
X284643D01*
Y16450D01*
X284562D01*
Y16423D01*
X284454D01*
Y16396D01*
X284347D01*
Y16369D01*
X284239D01*
Y16342D01*
X284104D01*
Y16316D01*
X283943D01*
Y16289D01*
X283754D01*
Y16262D01*
X283512D01*
Y16235D01*
X283243D01*
Y16208D01*
X282947D01*
Y16181D01*
X281682D01*
Y16208D01*
X281440D01*
Y16235D01*
X281252D01*
Y16262D01*
X281090D01*
Y16289D01*
X280956D01*
Y16316D01*
X280848D01*
Y16342D01*
X280740D01*
Y16369D01*
X280660D01*
Y16396D01*
X280579D01*
Y16423D01*
X280498D01*
Y16450D01*
X280444D01*
Y16477D01*
X280363D01*
Y16504D01*
X280310D01*
Y16531D01*
X280229D01*
Y16558D01*
X280175D01*
Y16585D01*
X280121D01*
Y16612D01*
X280067D01*
Y16638D01*
X280013D01*
Y16665D01*
X279960D01*
Y16692D01*
X279906D01*
Y16719D01*
X279879D01*
Y16746D01*
X279825D01*
Y16773D01*
X279771D01*
Y16800D01*
X279744D01*
Y16827D01*
X279691D01*
Y16854D01*
X279664D01*
Y16881D01*
X279637D01*
Y16908D01*
X279583D01*
Y16935D01*
X279556D01*
Y16961D01*
X279529D01*
Y16988D01*
X279502D01*
Y17015D01*
X279475D01*
Y17042D01*
X279448D01*
Y17069D01*
X279421D01*
Y17096D01*
X279395D01*
Y17123D01*
X279368D01*
Y17177D01*
X279341D01*
Y17231D01*
X279314D01*
Y17284D01*
X279287D01*
Y17607D01*
X279314D01*
Y17688D01*
X279341D01*
Y17715D01*
X279368D01*
Y17769D01*
X279395D01*
Y17796D01*
X279421D01*
Y17823D01*
X279448D01*
Y17850D01*
X279475D01*
Y17876D01*
X279502D01*
Y17903D01*
X279556D01*
Y17930D01*
X279583D01*
Y17957D01*
X279610D01*
Y17984D01*
X279664D01*
Y18011D01*
X279691D01*
Y18038D01*
X279744D01*
Y18065D01*
X279771D01*
Y18092D01*
X279825D01*
Y18119D01*
X279852D01*
Y18146D01*
X279879D01*
Y18172D01*
X279852D01*
Y18199D01*
X279771D01*
Y18226D01*
X279691D01*
Y18253D01*
X279664D01*
Y18280D01*
X279744D01*
Y18307D01*
X279825D01*
Y18334D01*
X279933D01*
Y18361D01*
X280013D01*
Y18388D01*
X280121D01*
Y18415D01*
X280202D01*
Y18442D01*
X280310D01*
Y18469D01*
X280390D01*
Y18496D01*
X280498D01*
Y18522D01*
X280606D01*
Y18549D01*
X280713D01*
Y18576D01*
X280794D01*
Y18603D01*
X280902D01*
Y18630D01*
X281009D01*
Y18657D01*
X281117D01*
Y18684D01*
X281225D01*
Y18711D01*
X281252D01*
Y18657D01*
X281225D01*
Y18576D01*
X281198D01*
Y18469D01*
X281171D01*
Y18415D01*
X281144D01*
Y18307D01*
X281117D01*
Y18253D01*
X281090D01*
Y18172D01*
X281063D01*
Y18092D01*
X280606D01*
Y18119D01*
X280471D01*
Y18092D01*
X280417D01*
Y18065D01*
X280390D01*
Y18038D01*
X280336D01*
Y18011D01*
X280283D01*
Y17984D01*
X280256D01*
Y17957D01*
X280229D01*
Y17930D01*
X280175D01*
Y17903D01*
X280148D01*
Y17876D01*
X280094D01*
Y17850D01*
X280067D01*
Y17823D01*
X280041D01*
Y17796D01*
X280013D01*
Y17769D01*
X279987D01*
Y17742D01*
X279960D01*
Y17688D01*
X279933D01*
Y17661D01*
X279906D01*
Y17634D01*
X279879D01*
Y17580D01*
X279852D01*
Y17473D01*
X279825D01*
Y17392D01*
X279852D01*
Y17311D01*
X279879D01*
Y17257D01*
X279906D01*
Y17204D01*
X279933D01*
Y17177D01*
X279960D01*
Y17150D01*
X279987D01*
Y17123D01*
X280013D01*
Y17096D01*
X280041D01*
Y17069D01*
X280067D01*
Y17042D01*
X280121D01*
Y17015D01*
X280148D01*
Y16988D01*
X280202D01*
Y16961D01*
X280256D01*
Y16935D01*
X280310D01*
Y16908D01*
X280363D01*
Y16881D01*
X280444D01*
Y16854D01*
X280498D01*
Y16827D01*
X280579D01*
Y16800D01*
X280660D01*
Y16773D01*
X280767D01*
Y16746D01*
X280848D01*
Y16719D01*
X280956D01*
Y16692D01*
X281090D01*
Y16665D01*
X281225D01*
Y16638D01*
X281386D01*
Y16612D01*
X281575D01*
Y16585D01*
X281790D01*
Y16558D01*
X282220D01*
Y16531D01*
X282974D01*
Y16558D01*
X283243D01*
Y16585D01*
X283432D01*
Y16612D01*
X283566D01*
Y16638D01*
X283674D01*
Y16665D01*
X283781D01*
Y16692D01*
X283862D01*
Y16719D01*
X283943D01*
Y16746D01*
X284024D01*
Y16773D01*
X284104D01*
Y16800D01*
X284158D01*
Y16827D01*
X284239D01*
Y16854D01*
X284293D01*
Y16881D01*
X284347D01*
Y16908D01*
X284400D01*
Y16935D01*
X284454D01*
Y16961D01*
X284481D01*
Y16988D01*
X284535D01*
Y17015D01*
X284562D01*
Y17042D01*
X284616D01*
Y17069D01*
X284643D01*
Y17096D01*
X284669D01*
Y17123D01*
X284696D01*
Y17150D01*
X284723D01*
Y17177D01*
X284750D01*
Y17231D01*
X284777D01*
Y17257D01*
X284804D01*
Y17338D01*
X284831D01*
Y17500D01*
X284804D01*
Y17580D01*
X284777D01*
Y17607D01*
X284750D01*
Y17634D01*
X284723D01*
Y17688D01*
X284696D01*
Y17715D01*
X284643D01*
Y17742D01*
X284616D01*
Y17769D01*
X284589D01*
Y17796D01*
X284562D01*
Y17823D01*
X284508D01*
Y17850D01*
X284481D01*
Y17876D01*
X284427D01*
Y17903D01*
X284400D01*
Y17930D01*
X284347D01*
Y17957D01*
X284293D01*
Y17984D01*
X284239D01*
Y18011D01*
X284185D01*
Y18038D01*
X284131D01*
Y18065D01*
X284077D01*
Y18092D01*
X283997D01*
Y18119D01*
X283943D01*
Y18146D01*
X283862D01*
Y18172D01*
X283781D01*
Y18199D01*
X283728D01*
Y18226D01*
X283647D01*
Y18253D01*
X283620D01*
Y18280D01*
X283674D01*
Y18307D01*
X283728D01*
Y18334D01*
X283754D01*
Y18361D01*
X283808D01*
Y18388D01*
X283862D01*
Y18415D01*
X283889D01*
Y18442D01*
X283943D01*
Y18469D01*
X283997D01*
Y18496D01*
X284024D01*
Y18522D01*
X284077D01*
Y18549D01*
X284131D01*
Y18576D01*
X284185D01*
Y18603D01*
X284212D01*
Y18630D01*
X284266D01*
Y18657D01*
X284320D01*
Y18684D01*
X284347D01*
Y18711D01*
X284400D01*
Y18738D01*
X284454D01*
Y18765D01*
X284481D01*
Y18791D01*
X284535D01*
Y18765D01*
D02*
G37*
G36*
X282570Y21806D02*
X282597D01*
Y21725D01*
X282624D01*
Y21644D01*
X282651D01*
Y21564D01*
X282678D01*
Y21483D01*
X282705D01*
Y21402D01*
X282732D01*
Y21321D01*
X282759D01*
Y21241D01*
X282786D01*
Y21160D01*
X282812D01*
Y21079D01*
X282839D01*
Y20998D01*
X282866D01*
Y20918D01*
X282893D01*
Y20837D01*
X282920D01*
Y20756D01*
X282947D01*
Y20675D01*
X282974D01*
Y20595D01*
X283001D01*
Y20514D01*
X283028D01*
Y20433D01*
X283055D01*
Y20353D01*
X283082D01*
Y20272D01*
X283109D01*
Y20191D01*
X283136D01*
Y20110D01*
X283162D01*
Y20030D01*
X283189D01*
Y19949D01*
X283216D01*
Y19868D01*
X283243D01*
Y19787D01*
X283270D01*
Y19707D01*
X283297D01*
Y19626D01*
X283324D01*
Y19545D01*
X283351D01*
Y19464D01*
X283378D01*
Y19384D01*
X283405D01*
Y19303D01*
X283432D01*
Y19276D01*
X283162D01*
Y19249D01*
X282839D01*
Y19088D01*
X282866D01*
Y18065D01*
X282893D01*
Y17392D01*
X282920D01*
Y16773D01*
X282113D01*
Y17204D01*
X282140D01*
Y17231D01*
Y17257D01*
Y17903D01*
X282167D01*
Y18872D01*
X282193D01*
Y19222D01*
X282167D01*
Y19249D01*
X282059D01*
Y19276D01*
X281440D01*
Y19303D01*
X281467D01*
Y19357D01*
X281494D01*
Y19410D01*
X281521D01*
Y19491D01*
X281548D01*
Y19545D01*
X281575D01*
Y19599D01*
X281601D01*
Y19680D01*
X281628D01*
Y19734D01*
X281655D01*
Y19814D01*
X281682D01*
Y19868D01*
X281709D01*
Y19922D01*
X281736D01*
Y20003D01*
X281763D01*
Y20056D01*
X281790D01*
Y20110D01*
X281817D01*
Y20191D01*
X281844D01*
Y20245D01*
X281871D01*
Y20299D01*
X281897D01*
Y20379D01*
X281924D01*
Y20433D01*
X281951D01*
Y20487D01*
X281978D01*
Y20568D01*
X282005D01*
Y20622D01*
X282032D01*
Y20702D01*
X282059D01*
Y20756D01*
X282086D01*
Y20810D01*
X282113D01*
Y20891D01*
X282140D01*
Y20945D01*
X282167D01*
Y20998D01*
X282193D01*
Y21079D01*
X282220D01*
Y21133D01*
X282247D01*
Y21187D01*
X282274D01*
Y21268D01*
X282301D01*
Y21321D01*
X282328D01*
Y21402D01*
X282355D01*
Y21456D01*
X282382D01*
Y21510D01*
X282409D01*
Y21590D01*
X282436D01*
Y21644D01*
X282463D01*
Y21698D01*
X282490D01*
Y21779D01*
X282517D01*
Y21833D01*
X282543D01*
Y21860D01*
X282570D01*
Y21806D01*
D02*
G37*
G36*
X282517Y15966D02*
X282920D01*
Y15939D01*
X282947D01*
Y15589D01*
X282974D01*
Y15239D01*
X283001D01*
Y14862D01*
X283028D01*
Y14512D01*
X283055D01*
Y14135D01*
X283082D01*
Y13732D01*
X283109D01*
Y13436D01*
X281978D01*
Y13920D01*
X282005D01*
Y14701D01*
X282032D01*
Y15239D01*
Y15266D01*
Y15401D01*
X282059D01*
Y15992D01*
X282517D01*
Y15966D01*
D02*
G37*
%LPC*%
G36*
X290375Y26031D02*
X290079D01*
Y26004D01*
X290025D01*
Y25977D01*
X289971D01*
Y25950D01*
X289945D01*
Y25897D01*
X289918D01*
Y25870D01*
X289891D01*
Y25789D01*
X289864D01*
Y25547D01*
X289891D01*
Y25493D01*
X289918D01*
Y25466D01*
X289945D01*
Y25412D01*
X289998D01*
Y25385D01*
X290025D01*
Y25358D01*
X290079D01*
Y25331D01*
X290160D01*
Y25304D01*
X290294D01*
Y25331D01*
X290375D01*
Y25358D01*
X290429D01*
Y25385D01*
X290456D01*
Y25412D01*
X290483D01*
Y25439D01*
X290510D01*
Y25466D01*
X290537D01*
Y25493D01*
X290564D01*
Y25574D01*
X290590D01*
Y25789D01*
X290564D01*
Y25843D01*
X290537D01*
Y25897D01*
X290510D01*
Y25923D01*
X290483D01*
Y25950D01*
X290456D01*
Y25977D01*
X290429D01*
Y26004D01*
X290375D01*
Y26031D01*
D02*
G37*
G36*
X288572Y25870D02*
X288330D01*
Y25843D01*
X288276D01*
Y25816D01*
X288222D01*
Y25789D01*
X288195D01*
Y25762D01*
X288168D01*
Y25708D01*
X288141D01*
Y25681D01*
X288114D01*
Y25600D01*
X288088D01*
Y25385D01*
X288114D01*
Y25304D01*
X288141D01*
Y25278D01*
X288168D01*
Y25251D01*
X288195D01*
Y25224D01*
X288222D01*
Y25197D01*
X288276D01*
Y25170D01*
X288303D01*
Y25143D01*
X288599D01*
Y25170D01*
X288653D01*
Y25197D01*
X288680D01*
Y25224D01*
X288706D01*
Y25251D01*
X288733D01*
Y25278D01*
X288760D01*
Y25304D01*
X288787D01*
Y25358D01*
X288814D01*
Y25466D01*
X288841D01*
Y25547D01*
X288814D01*
Y25654D01*
X288787D01*
Y25708D01*
X288760D01*
Y25735D01*
X288733D01*
Y25762D01*
X288706D01*
Y25789D01*
X288680D01*
Y25816D01*
X288653D01*
Y25843D01*
X288572D01*
Y25870D01*
D02*
G37*
G36*
X292609Y15104D02*
X292367D01*
Y15078D01*
X292313D01*
Y15051D01*
X292259D01*
Y15024D01*
X292232D01*
Y14997D01*
X292205D01*
Y14970D01*
X292178D01*
Y14916D01*
X292151D01*
Y14835D01*
X292124D01*
Y14647D01*
X292151D01*
Y14566D01*
X292178D01*
Y14539D01*
X292205D01*
Y14512D01*
X292232D01*
Y14485D01*
X292259D01*
Y14458D01*
X292286D01*
Y14432D01*
X292313D01*
Y14405D01*
X292367D01*
Y14378D01*
X292609D01*
Y14405D01*
X292663D01*
Y14432D01*
X292717D01*
Y14458D01*
X292743D01*
Y14485D01*
X292770D01*
Y14512D01*
X292797D01*
Y14539D01*
X292824D01*
Y14593D01*
X292851D01*
Y14701D01*
X292878D01*
Y14782D01*
X292851D01*
Y14889D01*
X292824D01*
Y14943D01*
X292797D01*
Y14970D01*
X292770D01*
Y14997D01*
X292743D01*
Y15024D01*
X292717D01*
Y15051D01*
X292690D01*
Y15078D01*
X292609D01*
Y15104D01*
D02*
G37*
G36*
X288572Y10206D02*
X288276D01*
Y10179D01*
X288222D01*
Y10152D01*
X288168D01*
Y10125D01*
X288141D01*
Y10099D01*
X288114D01*
Y10045D01*
X288088D01*
Y10018D01*
X288061D01*
Y9910D01*
X288034D01*
Y9776D01*
X288061D01*
Y9695D01*
X288088D01*
Y9641D01*
X288114D01*
Y9614D01*
X288141D01*
Y9587D01*
X288168D01*
Y9560D01*
X288195D01*
Y9533D01*
X288222D01*
Y9506D01*
X288303D01*
Y9480D01*
X288545D01*
Y9506D01*
X288599D01*
Y9533D01*
X288626D01*
Y9560D01*
X288680D01*
Y9614D01*
X288706D01*
Y9641D01*
X288733D01*
Y9668D01*
X288760D01*
Y9749D01*
X288787D01*
Y9964D01*
X288760D01*
Y10018D01*
X288733D01*
Y10072D01*
X288706D01*
Y10099D01*
X288680D01*
Y10125D01*
X288653D01*
Y10152D01*
X288626D01*
Y10179D01*
X288572D01*
Y10206D01*
D02*
G37*
G36*
X290267Y9964D02*
X289971D01*
Y9937D01*
X289918D01*
Y9910D01*
X289891D01*
Y9883D01*
X289864D01*
Y9856D01*
X289837D01*
Y9829D01*
X289810D01*
Y9803D01*
X289783D01*
Y9749D01*
X289756D01*
Y9480D01*
X289783D01*
Y9426D01*
X289810D01*
Y9372D01*
X289837D01*
Y9345D01*
X289891D01*
Y9318D01*
X289918D01*
Y9291D01*
X289971D01*
Y9264D01*
X290025D01*
Y9237D01*
X290214D01*
Y9264D01*
X290294D01*
Y9291D01*
X290321D01*
Y9318D01*
X290375D01*
Y9345D01*
X290402D01*
Y9372D01*
X290429D01*
Y9426D01*
X290456D01*
Y9480D01*
X290483D01*
Y9749D01*
X290456D01*
Y9803D01*
X290429D01*
Y9829D01*
X290402D01*
Y9856D01*
X290375D01*
Y9910D01*
X290321D01*
Y9937D01*
X290267D01*
Y9964D01*
D02*
G37*
G36*
X289595Y19115D02*
X289433D01*
Y19088D01*
X289352D01*
Y19061D01*
X289299D01*
Y19034D01*
X289245D01*
Y18980D01*
X289218D01*
Y18953D01*
X289191D01*
Y18926D01*
X289164D01*
Y18845D01*
X289137D01*
Y18603D01*
X289164D01*
Y18549D01*
X289191D01*
Y18522D01*
X289218D01*
Y18469D01*
X289272D01*
Y18442D01*
X289299D01*
Y18415D01*
X289325D01*
Y18388D01*
X289406D01*
Y18361D01*
X289595D01*
Y18388D01*
X289675D01*
Y18415D01*
X289729D01*
Y18442D01*
X289756D01*
Y18469D01*
X289783D01*
Y18496D01*
X289810D01*
Y18549D01*
X289837D01*
Y18576D01*
X289864D01*
Y18684D01*
X289891D01*
Y18791D01*
X289864D01*
Y18899D01*
X289837D01*
Y18953D01*
X289810D01*
Y18980D01*
X289783D01*
Y19007D01*
X289756D01*
Y19034D01*
X289729D01*
Y19061D01*
X289675D01*
Y19088D01*
X289595D01*
Y19115D01*
D02*
G37*
G36*
X288545Y16935D02*
X288276D01*
Y16908D01*
X288222D01*
Y16881D01*
X288168D01*
Y16854D01*
X288141D01*
Y16800D01*
X288114D01*
Y16773D01*
X288088D01*
Y16719D01*
X288061D01*
Y16638D01*
X288034D01*
Y16531D01*
X288061D01*
Y16423D01*
X288088D01*
Y16369D01*
X288114D01*
Y16342D01*
X288141D01*
Y16289D01*
X288195D01*
Y16262D01*
X288222D01*
Y16235D01*
X288276D01*
Y16208D01*
X288545D01*
Y16235D01*
X288599D01*
Y16262D01*
X288653D01*
Y16289D01*
X288680D01*
Y16316D01*
X288706D01*
Y16342D01*
X288733D01*
Y16396D01*
X288760D01*
Y16450D01*
X288787D01*
Y16665D01*
X288760D01*
Y16746D01*
X288733D01*
Y16800D01*
X288706D01*
Y16827D01*
X288680D01*
Y16854D01*
X288653D01*
Y16881D01*
X288599D01*
Y16908D01*
X288545D01*
Y16935D01*
D02*
G37*
%LPD*%
D14*
X107087Y62075D02*
X111023D01*
Y64042D01*
X110367Y64698D01*
X109055D01*
X108399Y64042D01*
Y62075D01*
Y63386D02*
X107087Y64698D01*
X111023Y68634D02*
Y66010D01*
X109055D01*
X109711Y67322D01*
Y67978D01*
X109055Y68634D01*
X107743D01*
X107087Y67978D01*
Y66666D01*
X107743Y66010D01*
X94095Y62468D02*
X98031D01*
Y64436D01*
X97375Y65092D01*
X96063D01*
X95407Y64436D01*
Y62468D01*
Y63780D02*
X94095Y65092D01*
Y68372D02*
X98031D01*
X96063Y66404D01*
Y69028D01*
X100788Y62730D02*
X104724D01*
Y64698D01*
X104068Y65354D01*
X102756D01*
X102100Y64698D01*
Y62730D01*
Y64042D02*
X100788Y65354D01*
Y66666D02*
Y67978D01*
Y67322D01*
X104724D01*
X104068Y66666D01*
M02*
