G04*
G04 #@! TF.GenerationSoftware,Altium Limited,Altium Designer,24.9.1 (31)*
G04*
G04 Layer_Physical_Order=4*
G04 Layer_Color=16711680*
%FSLAX25Y25*%
%MOIN*%
G70*
G04*
G04 #@! TF.SameCoordinates,D730F02F-FD74-4FC1-B03C-3973BC9D0968*
G04*
G04*
G04 #@! TF.FilePolarity,Positive*
G04*
G01*
G75*
%ADD34C,0.01181*%
%ADD43R,0.02598X0.02441*%
%ADD44R,0.02441X0.02598*%
%ADD47R,0.13780X0.05906*%
%ADD52C,0.07087*%
%ADD53C,0.21654*%
%ADD54C,0.01772*%
%ADD55C,0.05000*%
G36*
X324803Y118110D02*
X325773Y118110D01*
X327674Y117732D01*
X329465Y116990D01*
X331077Y115913D01*
X332448Y114542D01*
X333525Y112930D01*
X334267Y111139D01*
X334646Y109237D01*
X334646Y108268D01*
X334646Y108268D01*
X334646Y108268D01*
X334646Y9843D01*
X334646Y8873D01*
X334267Y6972D01*
X333525Y5180D01*
X332448Y3568D01*
X331077Y2197D01*
X329465Y1120D01*
X327674Y378D01*
X325773Y-0D01*
X324803Y0D01*
X324803Y0D01*
X324803Y0D01*
X9843Y0D01*
X8873D01*
X6972Y378D01*
X5180Y1120D01*
X3568Y2197D01*
X2197Y3568D01*
X1120Y5180D01*
X378Y6972D01*
X0Y8873D01*
X0Y9843D01*
X0Y9843D01*
Y108268D01*
Y109237D01*
X378Y111139D01*
X1120Y112930D01*
X2197Y114542D01*
X3568Y115913D01*
X5180Y116990D01*
X6972Y117732D01*
X8873Y118110D01*
X9843D01*
Y118110D01*
X324803Y118110D01*
D02*
G37*
%LPC*%
G36*
X85827Y63503D02*
X84676Y63351D01*
X83603Y62907D01*
X82682Y62200D01*
X81975Y61279D01*
X81531Y60206D01*
X81379Y59055D01*
X81531Y57904D01*
X81975Y56831D01*
X82682Y55910D01*
X83603Y55203D01*
X84676Y54759D01*
X85827Y54608D01*
X86978Y54759D01*
X88051Y55203D01*
X88972Y55910D01*
X89678Y56831D01*
X89984Y57570D01*
X94370D01*
Y56653D01*
X98543D01*
Y56968D01*
X106181D01*
Y56653D01*
X110354D01*
Y57570D01*
X132534D01*
X132781Y57405D01*
X133465Y57269D01*
X134148Y57405D01*
X134728Y57792D01*
X135115Y58372D01*
X135251Y59055D01*
X135115Y59739D01*
X134728Y60318D01*
X134148Y60705D01*
X133465Y60841D01*
X132781Y60705D01*
X132534Y60540D01*
X110354D01*
Y60984D01*
X106260D01*
Y61142D01*
X98465D01*
Y60984D01*
X94370D01*
Y60540D01*
X89984D01*
X89678Y61279D01*
X88972Y62200D01*
X88051Y62907D01*
X86978Y63351D01*
X85827Y63503D01*
D02*
G37*
G36*
X265748Y62165D02*
Y60039D01*
X267638D01*
Y58071D01*
X265748D01*
Y55945D01*
X266575Y56772D01*
X275197D01*
Y58071D01*
X273307D01*
Y60039D01*
X275197D01*
Y61339D01*
X266575D01*
X265748Y62165D01*
D02*
G37*
G36*
X173622D02*
Y60039D01*
X175512D01*
Y58071D01*
X173622D01*
Y55945D01*
X174449Y56772D01*
X183071D01*
Y58071D01*
X181181D01*
Y60039D01*
X183071D01*
Y61339D01*
X174449D01*
X173622Y62165D01*
D02*
G37*
G36*
X220079Y62165D02*
Y60039D01*
X221969D01*
Y58071D01*
X220079D01*
Y55945D01*
X220905Y56772D01*
X229528D01*
Y58071D01*
X227638D01*
Y60039D01*
X229528D01*
Y61339D01*
X220905D01*
X220079Y62165D01*
D02*
G37*
G36*
X313386Y40538D02*
X312472Y40418D01*
X311621Y40065D01*
X310890Y39504D01*
X310329Y38773D01*
X309976Y37922D01*
X309856Y37008D01*
X309976Y36094D01*
X310329Y35243D01*
X310890Y34512D01*
X311621Y33951D01*
X312472Y33598D01*
X313386Y33478D01*
X314300Y33598D01*
X315151Y33951D01*
X315882Y34512D01*
X316443Y35243D01*
X316796Y36094D01*
X316916Y37008D01*
X316796Y37922D01*
X316443Y38773D01*
X315882Y39504D01*
X315151Y40065D01*
X314300Y40418D01*
X313386Y40538D01*
D02*
G37*
G36*
X250394D02*
X249480Y40418D01*
X248629Y40065D01*
X247898Y39504D01*
X247337Y38773D01*
X246984Y37922D01*
X246864Y37008D01*
X246984Y36094D01*
X247337Y35243D01*
X247898Y34512D01*
X248629Y33951D01*
X249480Y33598D01*
X250394Y33478D01*
X251307Y33598D01*
X252159Y33951D01*
X252890Y34512D01*
X253451Y35243D01*
X253804Y36094D01*
X253924Y37008D01*
X253804Y37922D01*
X253451Y38773D01*
X252890Y39504D01*
X252159Y40065D01*
X251307Y40418D01*
X250394Y40538D01*
D02*
G37*
%LPD*%
D34*
X108504Y59055D02*
X133465D01*
X108268Y58819D02*
X108504Y59055D01*
X108031D02*
X108268Y58819D01*
X104095Y59055D02*
X108031D01*
X96693D02*
X100630D01*
X96457Y58819D02*
X96693Y59055D01*
X96220D02*
X96457Y58819D01*
X85827Y59055D02*
X96220D01*
D43*
X100630D02*
D03*
X104095D02*
D03*
D44*
X96457Y58819D02*
D03*
Y55354D02*
D03*
X108268Y58819D02*
D03*
Y55354D02*
D03*
D47*
X327559Y48425D02*
D03*
Y69685D02*
D03*
D52*
X85827Y59055D02*
D03*
D53*
X318898Y19685D02*
D03*
Y98425D02*
D03*
X15748Y59055D02*
D03*
D54*
X322834Y84646D02*
D03*
X316929Y72834D02*
D03*
Y49213D02*
D03*
Y1968D02*
D03*
X311023Y108268D02*
D03*
X305118Y96457D02*
D03*
X311023Y84646D02*
D03*
X305118Y72834D02*
D03*
Y49213D02*
D03*
Y25591D02*
D03*
Y1968D02*
D03*
X299213Y108268D02*
D03*
X293307Y96457D02*
D03*
X299213Y84646D02*
D03*
X293307Y72834D02*
D03*
Y49213D02*
D03*
Y25591D02*
D03*
X299213Y13779D02*
D03*
X293307Y1968D02*
D03*
X287402Y108268D02*
D03*
Y84646D02*
D03*
X281496Y72834D02*
D03*
Y49213D02*
D03*
Y25591D02*
D03*
X287402Y13779D02*
D03*
X281496Y1968D02*
D03*
X275590Y108268D02*
D03*
Y84646D02*
D03*
X269685Y72834D02*
D03*
Y49213D02*
D03*
Y25591D02*
D03*
X275590Y13779D02*
D03*
X269685Y1968D02*
D03*
X263779Y108268D02*
D03*
X257874Y96457D02*
D03*
X263779Y84646D02*
D03*
X257874Y72834D02*
D03*
Y49213D02*
D03*
Y25591D02*
D03*
X263779Y13779D02*
D03*
X257874Y1968D02*
D03*
X251968Y108268D02*
D03*
X246063Y96457D02*
D03*
X251968Y84646D02*
D03*
X246063Y72834D02*
D03*
Y49213D02*
D03*
Y25591D02*
D03*
X251968Y13779D02*
D03*
X246063Y1968D02*
D03*
X240157Y108268D02*
D03*
X234252Y96457D02*
D03*
X240157Y84646D02*
D03*
X234252Y72834D02*
D03*
Y49213D02*
D03*
Y25591D02*
D03*
X240157Y13779D02*
D03*
X234252Y1968D02*
D03*
X228346Y108268D02*
D03*
X222441Y96457D02*
D03*
X228346Y84646D02*
D03*
X222441Y72834D02*
D03*
Y49213D02*
D03*
Y25591D02*
D03*
X228346Y13779D02*
D03*
X222441Y1968D02*
D03*
X216535Y108268D02*
D03*
X210630Y96457D02*
D03*
X216535Y84646D02*
D03*
X210630Y72834D02*
D03*
Y49213D02*
D03*
X216535Y37402D02*
D03*
X210630Y25591D02*
D03*
X216535Y13779D02*
D03*
X210630Y1968D02*
D03*
X204724Y108268D02*
D03*
X198819Y96457D02*
D03*
X204724Y84646D02*
D03*
X198819Y72834D02*
D03*
Y49213D02*
D03*
X204724Y37402D02*
D03*
X198819Y25591D02*
D03*
X204724Y13779D02*
D03*
X198819Y1968D02*
D03*
X192913Y108268D02*
D03*
X187008Y96457D02*
D03*
X192913Y84646D02*
D03*
X187008Y72834D02*
D03*
Y49213D02*
D03*
X192913Y37402D02*
D03*
X187008Y25591D02*
D03*
X192913Y13779D02*
D03*
X187008Y1968D02*
D03*
X181102Y108268D02*
D03*
X175197Y96457D02*
D03*
X181102Y84646D02*
D03*
X175197Y72834D02*
D03*
Y49213D02*
D03*
X181102Y37402D02*
D03*
X175197Y25591D02*
D03*
X181102Y13779D02*
D03*
X175197Y1968D02*
D03*
X169291Y108268D02*
D03*
Y84646D02*
D03*
X163386Y72834D02*
D03*
X169291Y37402D02*
D03*
X163386Y25591D02*
D03*
X169291Y13779D02*
D03*
X163386Y1968D02*
D03*
X157480Y108268D02*
D03*
Y84646D02*
D03*
X151575Y72834D02*
D03*
Y49213D02*
D03*
Y25591D02*
D03*
X157480Y13779D02*
D03*
X151575Y1968D02*
D03*
X145669Y108268D02*
D03*
X139764Y96457D02*
D03*
X145669Y84646D02*
D03*
X139764Y72834D02*
D03*
Y25591D02*
D03*
X145669Y13779D02*
D03*
X139764Y1968D02*
D03*
X133858Y108268D02*
D03*
Y84646D02*
D03*
X127953Y72834D02*
D03*
Y49213D02*
D03*
X133858Y37402D02*
D03*
Y13779D02*
D03*
X127953Y1968D02*
D03*
X116142Y72834D02*
D03*
Y49213D02*
D03*
Y1968D02*
D03*
X104331Y72834D02*
D03*
Y49213D02*
D03*
Y1968D02*
D03*
X98425Y108268D02*
D03*
X92520Y96457D02*
D03*
X98425Y84646D02*
D03*
X92520Y72834D02*
D03*
Y49213D02*
D03*
X98425Y37402D02*
D03*
X92520Y25591D02*
D03*
X98425Y13779D02*
D03*
X92520Y1968D02*
D03*
X86614Y108268D02*
D03*
X80709Y96457D02*
D03*
X86614Y84646D02*
D03*
X80709Y72834D02*
D03*
Y49213D02*
D03*
X86614Y37402D02*
D03*
X80709Y25591D02*
D03*
X86614Y13779D02*
D03*
X80709Y1968D02*
D03*
X74803Y108268D02*
D03*
X68898Y96457D02*
D03*
X74803Y84646D02*
D03*
X68898Y72834D02*
D03*
X74803Y61023D02*
D03*
X68898Y49213D02*
D03*
X74803Y37402D02*
D03*
X68898Y25591D02*
D03*
X74803Y13779D02*
D03*
X68898Y1968D02*
D03*
X62992Y108268D02*
D03*
Y84646D02*
D03*
X57087Y72834D02*
D03*
X62992Y61023D02*
D03*
X57087Y49213D02*
D03*
X62992Y37402D02*
D03*
Y13779D02*
D03*
X57087Y1968D02*
D03*
X45276Y72834D02*
D03*
X51181Y61023D02*
D03*
X45276Y49213D02*
D03*
Y1968D02*
D03*
X33465Y72834D02*
D03*
X39370Y61023D02*
D03*
X33465Y49213D02*
D03*
Y1968D02*
D03*
X27559Y108268D02*
D03*
X21654Y96457D02*
D03*
X27559Y84646D02*
D03*
X21654Y72834D02*
D03*
X27559Y37402D02*
D03*
X21654Y25591D02*
D03*
X27559Y13779D02*
D03*
X21654Y1968D02*
D03*
X15748Y108268D02*
D03*
X9843Y96457D02*
D03*
X15748Y84646D02*
D03*
X9843Y72834D02*
D03*
X15748Y37402D02*
D03*
X9843Y25591D02*
D03*
X15748Y13779D02*
D03*
X106948Y62206D02*
D03*
X109900Y62144D02*
D03*
X112833Y61802D02*
D03*
X115786D02*
D03*
X118738D02*
D03*
X121691D02*
D03*
X124644D02*
D03*
X333545Y54060D02*
D03*
X82242Y63427D02*
D03*
X80526Y61024D02*
D03*
X80255Y58084D02*
D03*
X81503Y55408D02*
D03*
X83929Y53725D02*
D03*
X86873Y53493D02*
D03*
X89532Y54776D02*
D03*
X92056Y56309D02*
D03*
X100782Y55727D02*
D03*
X103735D02*
D03*
X112453Y56309D02*
D03*
X115405D02*
D03*
X118358D02*
D03*
X121311D02*
D03*
X124264D02*
D03*
X127216D02*
D03*
X130169D02*
D03*
X133113Y56085D02*
D03*
X136058Y56309D02*
D03*
X144768Y55727D02*
D03*
X145258Y62379D02*
D03*
X142306Y62317D02*
D03*
X139354Y62226D02*
D03*
X136432Y61802D02*
D03*
X133491Y62060D02*
D03*
X130549Y61802D02*
D03*
X127596D02*
D03*
X104000Y62383D02*
D03*
X101048D02*
D03*
X98105Y62140D02*
D03*
X95153Y62209D02*
D03*
X92228Y61802D02*
D03*
X89649Y63240D02*
D03*
X87027Y64597D02*
D03*
X213991Y56309D02*
D03*
X216943D02*
D03*
X217401Y61802D02*
D03*
X214448D02*
D03*
X250154Y67265D02*
D03*
X247345Y67260D02*
D03*
X254039Y61624D02*
D03*
X256599Y60153D02*
D03*
X258225Y57688D02*
D03*
X260897Y56430D02*
D03*
X263847Y56309D02*
D03*
X264645Y61960D02*
D03*
X261760Y62047D02*
D03*
X260799Y64839D02*
D03*
X258488Y66676D02*
D03*
X255568Y67117D02*
D03*
X252615D02*
D03*
X235642Y61802D02*
D03*
X232689D02*
D03*
X232172Y56309D02*
D03*
X235125D02*
D03*
X238078D02*
D03*
X241030D02*
D03*
X243945Y56360D02*
D03*
X188970Y61802D02*
D03*
X186017D02*
D03*
X185957Y56309D02*
D03*
X188909D02*
D03*
X280445Y61860D02*
D03*
X277576Y61802D02*
D03*
X278673Y56309D02*
D03*
X333250Y64115D02*
D03*
X330297D02*
D03*
X327345D02*
D03*
X324392D02*
D03*
X321439D02*
D03*
X318761Y62872D02*
D03*
X316145Y61960D02*
D03*
X313069Y62245D02*
D03*
X310117Y62305D02*
D03*
X307165Y62383D02*
D03*
X304212D02*
D03*
X302145Y55860D02*
D03*
X304898Y55727D02*
D03*
X307851D02*
D03*
X316676Y56309D02*
D03*
X319045Y54560D02*
D03*
X322010Y53995D02*
D03*
X324963D02*
D03*
X327915D02*
D03*
X330868D02*
D03*
X149010Y55789D02*
D03*
X151961Y55885D02*
D03*
X154910Y55727D02*
D03*
X157862Y55737D02*
D03*
X160105Y53817D02*
D03*
X160639Y50913D02*
D03*
X160327Y47977D02*
D03*
X158914Y45384D02*
D03*
X156587Y43567D02*
D03*
X153646Y43295D02*
D03*
X150700Y43485D02*
D03*
X147772Y43105D02*
D03*
X145158Y44477D02*
D03*
X143306Y46777D02*
D03*
X142521Y49624D02*
D03*
X142482Y52576D02*
D03*
X136945Y52160D02*
D03*
X137105Y49087D02*
D03*
X137665Y46187D02*
D03*
X138900Y43505D02*
D03*
X140696Y41162D02*
D03*
X143008Y39326D02*
D03*
X145663Y38033D02*
D03*
X148247Y36604D02*
D03*
Y33651D02*
D03*
X148335Y30700D02*
D03*
X154903Y31975D02*
D03*
X154825Y34927D02*
D03*
X155983Y37644D02*
D03*
X158786Y38572D02*
D03*
X161292Y40133D02*
D03*
X163376Y42224D02*
D03*
X164919Y44742D02*
D03*
X165837Y47548D02*
D03*
X166132Y50486D02*
D03*
X166584Y53404D02*
D03*
X167118Y56309D02*
D03*
X170071D02*
D03*
X171294Y61802D02*
D03*
X168341D02*
D03*
X165400Y62068D02*
D03*
X162452Y62226D02*
D03*
X159503Y62383D02*
D03*
X156550D02*
D03*
X133465Y59055D02*
D03*
D55*
X313386Y37008D02*
D03*
X250394D02*
D03*
M02*
