M48
;Layer_Color=9474304
;FILE_FORMAT=2:4
INCH,TZ
;TYPE=PLATED
T01F00S00C0.0118
T02F00S00C0.0280
T03F00S00C0.0374
T04F00S00C0.1339
%
T01
X24606Y197
X25787
X26968
X28150
X29331
X30512
X31693
X29921Y1378
X28740
X27559
X26378
X25197
X24016
X24606Y2559
X25787
X26968
X28150
X29331
X30512
Y4921
X31693
X31904Y5456
X32201Y5400
X32496
X32792
X33087
X33354Y5406
X29331Y4921
X28150
X26968
X25787
X24606
X23425
X22244
X21063
X19882
X18701
X17520
X16613Y5049
X16584Y4755
X16492Y4474
X16338Y4222
X16129Y4013
X15879Y3857
X15598Y3764
X15483Y3493
X15490Y3198
X14833Y3070
X14825Y3365
Y3660
X14566Y3803
X14301Y3933
X14070Y4116
X13890Y4351
X13766Y4619
X13710Y4909
X13694Y5216
X14248Y5258
X14252Y4962
X14331Y4678
X14516Y4448
X14777Y4310
X15070Y4349
X15365Y4330
X15659Y4357
X15891Y4538
X16033Y4798
X16064Y5091
X16011Y5382
X16658Y5340
X16929Y3740
X18110
X19291
X20472
X21654
X22244Y2559
X23425
X22835Y1378
X21654
X20472
X19291
X18110
X16929
X15748
X14567
X13386
X13976Y2559
X15157
X16339
X17520
X18701
X19882
X21063
Y197
X22244
X23425
X19882
X18701
X17520
X16339
X15157
X13976
X12795
X11614
X10433
X9252
X9843Y1378
X8661
X9252Y2559
X9843Y3740
X8661
X8687Y5349
X8393Y5372
X9252Y4921
X10433
X11614
X12795
X13386Y3740
X15157Y4921
X8071
X6890
X5709
X4528
X3346
X2756Y3740
X1575
X2165Y2559
X984
X1575Y1378
X2756
X3346Y197
X4528
X5709
X6890
X8071
X7480Y1378
X6299
X6890Y2559
X8071
X7480Y3740
X6299
X2165Y197
Y7283
X3346
X4528
X5709
X6890
X8071
X8224Y6343
X8053Y6102
X8026Y5808
X8150Y5541
X7480Y6102
X6299
X5118
X3937
X2756Y8465
X1575
X2165Y9646
X984
X1575Y10827
X2756
X6299
X7480
X8071Y9646
X6890
X7480Y8465
X6299
X984Y7283
X9252
X9223Y6180
X9515Y6221
X9810Y6214
X10105Y6238
X10400
X10695Y6221
X10990Y6214
X11283Y6180
X11579
X11874
X12169
X12464
X12760
X13055
X13349Y6206
X13346Y5906
X13311Y5609
X13017Y5631
X12722
X12426
X12131
X11836
X11541
X11245
X10374Y5573
X10078
X9206Y5631
X8953Y5478
X8965Y6324
X8703Y6460
X8661Y8465
X9843
X10433Y7283
X11614
X12795
X13976
X13935Y6223
X14231Y6232
X14526Y6238
X14477Y5573
X14901Y5579
X15196Y5588
X15491Y5573
X15786Y5574
X15655Y6238
X15950
X16245Y6223
X16540Y6207
X16834Y6180
X17129
X17007Y5631
X16712
X18596
X18891
X18897Y6180
X18602
X18701Y7283
X19882
X21063
X22244
X23425
X23564Y6180
X23269
X23217Y5631
X23512
X23808
X21694
X21399
X21445Y6180
X21740
X21654Y8465
X22835
X23425Y9646
X22244
X21063
X19882
X18701
X17520
X18110Y10827
X19291
X20472
X21654
X22835
X20472Y8465
X19291
X18110
X16929
X15748
X14567
X13386
X13976Y9646
X14567Y10827
X15748
X16929
X13386
X9843
X8661
X9252Y9646
X13643Y6180
X13606Y5631
X15157Y7283
X16339
X17520
X24606
X24734Y6726
X25015Y6726
X25262Y6712
X25557
X25849Y6668
X26080Y6484
X26176Y6205
X26464Y6196
X26385Y5631
X26090Y5643
X25823Y5769
X25660Y6015
X25404Y6162
X25787Y7283
X26968
X28150
X29331
X30512
X30421Y6238
X30717
X31012Y6230
X31307Y6225
X31614Y6196
X31876Y6287
X32144Y6412
X32439
X32734
X33030
X33325
X31668Y5631
X30785Y5573
X30490
X30214Y5586
X27867Y5631
X27758Y6180
X28044Y6186
X27559Y8465
X28740
X29921
X31102
X32283
X31693Y7283
X30512Y9646
X29331
X29921Y10827
X31102
X28740
X27559
X26378
X25197
X24016
X24606Y9646
X25787
X26378Y8465
X25197
X24016
X24103Y5631
X24394Y5636
T02
X25039Y3701
X31339
T03
X8583Y5906
T04
X31890Y1969
X1575Y5906
X31890Y9843
M30
