G04*
G04 #@! TF.GenerationSoftware,Altium Limited,Altium Designer,24.9.1 (31)*
G04*
G04 Layer_Color=8388736*
%FSLAX25Y25*%
%MOIN*%
G70*
G04*
G04 #@! TF.SameCoordinates,D730F02F-FD74-4FC1-B03C-3973BC9D0968*
G04*
G04*
G04 #@! TF.FilePolarity,Negative*
G04*
G01*
G75*
%ADD15R,0.05524X0.04343*%
%ADD16R,0.06706X0.04343*%
%ADD17R,0.03162X0.04343*%
%ADD18R,0.26391X0.26391*%
%ADD19R,0.02690X0.02769*%
%ADD20R,0.04147X0.02375*%
%ADD21R,0.03674X0.02808*%
%ADD22R,0.03398X0.03241*%
%ADD23R,0.03241X0.03398*%
%ADD24R,0.07099X0.03359*%
%ADD25R,0.10052X0.03359*%
%ADD26R,0.14580X0.06706*%
%ADD27R,0.04343X0.04147*%
%ADD28R,0.03950X0.03950*%
%ADD29R,0.04147X0.04343*%
%ADD30C,0.07887*%
%ADD31C,0.22453*%
%ADD32C,0.05800*%
%ADD33C,0.02572*%
G36*
X275197Y61339D02*
X266587D01*
X265748Y62174D01*
Y63976D01*
X268701D01*
Y62992D01*
X272244D01*
Y63976D01*
X275197D01*
Y61339D01*
D02*
G37*
G36*
X183071D02*
X174461D01*
X173622Y62174D01*
Y63976D01*
X176575D01*
Y62992D01*
X180118D01*
Y63976D01*
X183071D01*
Y61339D01*
D02*
G37*
G36*
X229528Y61339D02*
X220917D01*
X220079Y62174D01*
Y63976D01*
X223031D01*
Y62992D01*
X226575D01*
Y63976D01*
X229528D01*
Y61339D01*
D02*
G37*
G36*
X275197Y54134D02*
X272244D01*
Y55118D01*
X268701D01*
Y54134D01*
X265748D01*
Y55937D01*
X266587Y56772D01*
X275197D01*
Y54134D01*
D02*
G37*
G36*
X183071D02*
X180118D01*
Y55118D01*
X176575D01*
Y54134D01*
X173622D01*
Y55937D01*
X174461Y56772D01*
X183071D01*
Y54134D01*
D02*
G37*
G36*
X229528Y54134D02*
X226575D01*
Y55118D01*
X223031D01*
Y54134D01*
X220079D01*
Y55937D01*
X220917Y56772D01*
X229528D01*
Y54134D01*
D02*
G37*
D15*
X157480Y98425D02*
D03*
X275590D02*
D03*
Y19685D02*
D03*
X157480D02*
D03*
D16*
X163976Y98425D02*
D03*
X150984D02*
D03*
X282087D02*
D03*
X269094D02*
D03*
X282087Y19685D02*
D03*
X269094D02*
D03*
X163976D02*
D03*
X150984D02*
D03*
D17*
X169488Y98425D02*
D03*
X145472D02*
D03*
X287598D02*
D03*
X263583D02*
D03*
X287598Y19685D02*
D03*
X263583D02*
D03*
X169488D02*
D03*
X145472D02*
D03*
D18*
X114173Y94488D02*
D03*
Y23622D02*
D03*
X43307Y94488D02*
D03*
Y23622D02*
D03*
D19*
X182126Y59055D02*
D03*
X174567D02*
D03*
X274252D02*
D03*
X266693D02*
D03*
X221024Y59055D02*
D03*
X228583D02*
D03*
D20*
X250197Y59252D02*
D03*
Y61811D02*
D03*
Y64370D02*
D03*
X241339Y59252D02*
D03*
Y61811D02*
D03*
Y64370D02*
D03*
D21*
X313386Y59134D02*
D03*
Y55512D02*
D03*
D22*
X308425Y59055D02*
D03*
X304961D02*
D03*
X155748Y59055D02*
D03*
X159213D02*
D03*
X143937D02*
D03*
X147402D02*
D03*
D23*
X163386Y58819D02*
D03*
Y55354D02*
D03*
X151575Y62756D02*
D03*
Y59291D02*
D03*
Y36614D02*
D03*
Y40079D02*
D03*
Y28976D02*
D03*
Y32441D02*
D03*
X139764Y58819D02*
D03*
Y55354D02*
D03*
D24*
X195571Y59055D02*
D03*
Y54331D02*
D03*
X207579D02*
D03*
Y59055D02*
D03*
Y63779D02*
D03*
X285335Y59055D02*
D03*
Y54331D02*
D03*
X297342D02*
D03*
Y59055D02*
D03*
Y63779D02*
D03*
D25*
X197047D02*
D03*
X286811D02*
D03*
D26*
X327559Y59055D02*
D03*
Y48425D02*
D03*
Y69685D02*
D03*
D27*
X241339Y74213D02*
D03*
Y80315D02*
D03*
D28*
X223760Y36957D02*
D03*
X230059D02*
D03*
D29*
X242961D02*
D03*
X236858D02*
D03*
D30*
X85827Y59055D02*
D03*
D31*
X318898Y19685D02*
D03*
Y98425D02*
D03*
X15748Y59055D02*
D03*
D32*
X313386Y37008D02*
D03*
X250394D02*
D03*
D33*
X133465Y59055D02*
D03*
M02*
