M48
;Layer_Color=9474304
;FILE_FORMAT=2:4
INCH,TZ
;TYPE=PLATED
T01F00S00C0.0118
T02F00S00C0.0280
T03F00S00C0.0374
T04F00S00C0.1339
%
T01
X24606Y197
X25787
X26968
X28150
X29331
X30512
X31693
X32874
X33465Y1378
Y3740
X33449Y5442
X33192
X32934
X33707
X33930Y5440
X34160
X30512Y4921
X29331
X28150
X28250Y5350
X27900Y5250
X27600Y5350
X26968Y4921
X25787
X24606
X26378Y1378
X31102
X23425Y2559
X22244
X21063
X19882
X18701
X17520
X16339
X15157
X14850Y2800
X14869Y3104
X14867Y3361
Y3619
X14567Y3740
X14233Y4028
X14047Y4206
X13899Y4417
X13799Y4654
X13753Y4908
X13744Y5165
X13686Y5416
X14267Y5435
X14209Y5185
X14213Y4927
X14282Y4679
X14428Y4467
X14638Y4318
X14885Y4246
X15136Y4306
X15389Y4263
X15644Y4301
X15859Y4442
X16016Y4647
X16098Y4891
X16106Y5148
X16049Y5399
X16571Y5220
X16566Y4963
X16529Y4708
X16443Y4466
X16304Y4248
X16124Y4064
X15912Y3919
X15748Y3740
X15448Y3698
X15434Y3441
X15448Y3184
X15450Y2900
X13976Y2559
X14567Y1378
X15748
X16929
X18110
X19291
X19882Y197
X21063
X22244
X23425
Y4921
X22244
X21063
X20900Y5250
X20600Y5300
X21300Y5350
X19882Y4921
X18701
X17520
X17400Y5250
X17100Y5350
X17750
X18110Y3740
X19291
X20472
X21654
X16929
X15157Y4921
X12795
X11614
X11200Y5400
X10850Y5100
X10433Y4921
X10450Y5400
X10050Y5350
X9650Y5150
X9300Y5400
X9252Y4921
X8659Y5388
X8403Y5414
X8661Y3740
X9843
X9252Y2559
X9843Y1378
X8661
X9252Y197
X10433
X11614
X12795
X13976
X15157
X16339
X17520
X18701
X13386Y1378
Y3740
X7480
X6299
X6890Y4921
X8071
Y2559
X6890
X7480Y1378
X6299
X6890Y197
X8071
X5709
X4528
X3346
X2165
X984
X1575Y1378
X2756
X2165Y2559
X984
X1575Y3740
X2756
X3346Y4921
X4528
X5709
X6299Y6102
X7480
X8078Y6044
X8072Y5787
X8190Y5558
X8205Y6268
X8071Y7283
X6890
X5709
X4528
X3346
X2165
X984
X1575Y8465
X2756
X2165Y9646
X984
X1575Y10827
X2756
X6299
X7480
X8071Y9646
X6890
X7480Y8465
X6299
X5118Y6102
X3937
X8423Y6405
X8697Y6418
X8927Y6301
X9126Y6138
X9383
X9637Y6180
X9895Y6189
X10152Y6196
X10410
X10666Y6173
X10923Y6180
X11177Y6138
X11435
X11692
X11950
X12207
X12465
X12722
X12980
X13237
X13495
X13752Y6142
X14007Y6180
X14264Y6196
X14521
X14779
X14709Y5615
X14920Y5610
X15150Y5630
X15394Y5625
X15651Y5615
X15908
X15805Y6196
X15548
X16063Y6194
X16320Y6180
X16574Y6138
X16831
X17086Y6173
X17100Y6500
X17400Y6550
X17750Y6500
X17836Y6173
X17934Y5654
X17044Y5638
X16789Y5673
X16629Y5471
X16339Y7283
X17520
X18701
X19882
X21063
X20900Y6550
X20600Y6500
X20572Y6173
X20317Y6138
X20290Y5673
X20545Y5638
X21399Y5646
X21654Y5615
X21912Y5615
X22169Y5615
X22127Y6196
X21869
X21612Y6189
X21355Y6173
X21250Y6500
X22378Y6142
X22628Y6204
X22881Y6157
X23132Y6218
X23389Y6211
X23686Y6205
X23699Y5615
X23443Y5593
X23185
X22934Y5650
X23953Y5658
X23425Y7283
X22244
X22835Y8465
X21654
X20472
X19291
X18110
X16929
X15748
X14567
X13386
X13976Y9646
X14567Y10827
X15748
X16929
X18110
X19291
X20472
X21654
X22835
X23425Y9646
X22244
X21063
X19882
X18701
X17520
X15157Y7283
X13976
X12795
X11614
X10433
X9252
X9333Y5673
X9076
X8897Y5488
X10088Y5615
X10346
X11099Y5673
X11357
X11614
X11872
X12129
X12387
X12644
X12902
X13159
X13416Y5658
X13673Y5673
X13346Y5906
X14452Y5615
X18944Y5697
X18968Y5954
X19201Y5894
X19247Y6148
X13386Y10827
X9843
X8661
X9252Y9646
X9843Y8465
X8661
X24016
X25197
X26378
X27559
X28740
X29921
X31102
X32283
X33465
X33516Y6369
X33774
X34031
X33259
X33001
X32750Y6313
X32561Y6138
X32303
X32048Y6172
X31791Y6182
X31533Y6186
X31276Y6196
X31019
X30765Y6151
X30680Y5659
X30934Y5615
X31192Y5621
X31449Y5615
X32218Y5673
X32476
X32713Y5573
X31693Y7283
X30512
X29331
X28150
X28250Y6500
X28279Y6173
X28535Y6138
X28499Y5673
X28244Y5638
X27522
X27266Y5673
X27016Y5731
X26823Y5903
X26741Y6147
X26484Y6127
X26227
X25969Y6128
X26035Y6708
X25830Y6710
X25609Y6716
X25356Y6671
X25098Y6665
X24841
X24655Y6486
X24696Y6232
X24429Y6045
X24434Y5787
X24211Y5658
X24606Y7283
X25787
X26292Y6701
X26549Y6708
X26798Y6640
X27033Y6535
X27176Y6321
X27357Y6138
X27590Y6180
X27600Y6500
X27900Y6550
X26968Y7283
X25787Y9646
X24606
X25197Y10827
X26378
X27559
X28740
X29921
X31102
X30512Y9646
X29331
X29529Y5954
X29505Y5697
X29763Y5822
X29772Y6079
X33465Y10827
X24016
T02
X25000Y3661
X31339Y3701
T03
X8583Y5906
T04
X32283Y1969
X1575Y5906
X32283Y9843
M30
