G04*
G04 #@! TF.GenerationSoftware,Altium Limited,Altium Designer,24.9.1 (31)*
G04*
G04 Layer_Color=32768*
%FSLAX25Y25*%
%MOIN*%
G70*
G04*
G04 #@! TF.SameCoordinates,BE83DA22-E0C5-4DDF-BF2C-7847B46FCBB1*
G04*
G04*
G04 #@! TF.FilePolarity,Positive*
G04*
G01*
G75*
%ADD61C,0.00197*%
D61*
X159776Y20669D02*
Y18701D01*
X159120Y19357D01*
X158464Y18701D01*
Y20669D01*
X157808D02*
Y18701D01*
X156824D01*
X156496Y19029D01*
Y19685D01*
X156824Y20013D01*
X157808D01*
X155840Y20669D02*
X155184D01*
X155512D01*
Y18701D01*
X155840Y19029D01*
X160104Y99409D02*
Y97441D01*
X159448Y98097D01*
X158792Y97441D01*
Y99409D01*
X158136D02*
Y97441D01*
X157152D01*
X156824Y97769D01*
Y98425D01*
X157152Y98753D01*
X158136D01*
X156168Y97769D02*
X155840Y97441D01*
X155184D01*
X154857Y97769D01*
Y98097D01*
X155184Y98425D01*
X155512D01*
X155184D01*
X154857Y98753D01*
Y99081D01*
X155184Y99409D01*
X155840D01*
X156168Y99081D01*
X278214Y99409D02*
Y97441D01*
X277558Y98097D01*
X276902Y97441D01*
Y99409D01*
X276247D02*
Y97441D01*
X275263D01*
X274935Y97769D01*
Y98425D01*
X275263Y98753D01*
X276247D01*
X273295Y99409D02*
Y97441D01*
X274279Y98425D01*
X272967D01*
X278214Y20669D02*
Y18701D01*
X277558Y19357D01*
X276902Y18701D01*
Y20669D01*
X276247D02*
Y18701D01*
X275263D01*
X274935Y19029D01*
Y19685D01*
X275263Y20013D01*
X276247D01*
X272967Y20669D02*
X274279D01*
X272967Y19357D01*
Y19029D01*
X273295Y18701D01*
X273951D01*
X274279Y19029D01*
M02*
