G04*
G04 #@! TF.GenerationSoftware,Altium Limited,Altium Designer,24.9.1 (31)*
G04*
G04 Layer_Color=16711935*
%FSLAX25Y25*%
%MOIN*%
G70*
G04*
G04 #@! TF.SameCoordinates,BE83DA22-E0C5-4DDF-BF2C-7847B46FCBB1*
G04*
G04*
G04 #@! TF.FilePolarity,Negative*
G04*
G01*
G75*
%ADD33R,0.03398X0.03241*%
%ADD34R,0.03241X0.03398*%
%ADD43R,0.14580X0.06706*%
%ADD50C,0.07887*%
%ADD51C,0.22453*%
%ADD52C,0.01575*%
%ADD53C,0.02572*%
G36*
X259636Y30648D02*
X258657D01*
Y26045D01*
X259636D01*
Y24772D01*
X255816D01*
Y26045D01*
X256894D01*
Y30648D01*
X255816D01*
Y31922D01*
X259636D01*
Y30648D01*
D02*
G37*
G36*
X254641Y24772D02*
X249842D01*
Y26143D01*
X252878D01*
Y27906D01*
X250038D01*
Y29277D01*
X252878D01*
Y30551D01*
X249842D01*
Y31922D01*
X254641D01*
Y24772D01*
D02*
G37*
G36*
X248568D02*
X243769D01*
Y26143D01*
X246805D01*
Y27906D01*
X243965D01*
Y29277D01*
X246805D01*
Y30551D01*
X243769D01*
Y31922D01*
X248568D01*
Y24772D01*
D02*
G37*
G36*
X242496D02*
X237697D01*
Y26143D01*
X240733D01*
Y27906D01*
X237893D01*
Y29277D01*
X240733D01*
Y30551D01*
X237697D01*
Y31922D01*
X242496D01*
Y24772D01*
D02*
G37*
G36*
X259342Y16153D02*
X257677D01*
Y20658D01*
X257579D01*
Y20462D01*
X257481D01*
Y20266D01*
X257383D01*
Y19973D01*
X257285D01*
Y19777D01*
X257187D01*
Y19581D01*
X257089D01*
Y19287D01*
X256992D01*
Y19091D01*
X256894D01*
Y18797D01*
X256796D01*
Y18601D01*
X256698D01*
Y18406D01*
X256600D01*
Y18112D01*
X256502D01*
Y17916D01*
X256404D01*
Y17818D01*
X255229D01*
Y17916D01*
X255131D01*
Y18112D01*
X255033D01*
Y18308D01*
X254935D01*
Y18601D01*
X254837D01*
Y18797D01*
X254739D01*
Y18993D01*
X254641D01*
Y19287D01*
X254543D01*
Y19483D01*
X254445D01*
Y19777D01*
X254347D01*
Y19973D01*
X254249D01*
Y20168D01*
X254151D01*
Y20462D01*
X254053D01*
Y20658D01*
X253955D01*
Y16153D01*
X252094D01*
Y23303D01*
X254249D01*
Y23107D01*
X254347D01*
Y22813D01*
X254445D01*
Y22617D01*
X254543D01*
Y22421D01*
X254641D01*
Y22127D01*
X254739D01*
Y21932D01*
X254837D01*
Y21736D01*
X254935D01*
Y21540D01*
X255033D01*
Y21246D01*
X255131D01*
Y21050D01*
X255229D01*
Y20854D01*
X255327D01*
Y20658D01*
X255424D01*
Y20364D01*
X255522D01*
Y20168D01*
X255620D01*
Y19973D01*
X255718D01*
Y19777D01*
X255816D01*
Y19973D01*
X255914D01*
Y20266D01*
X256012D01*
Y20462D01*
X256110D01*
Y20658D01*
X256208D01*
Y20854D01*
X256306D01*
Y21148D01*
X256404D01*
Y21344D01*
X256502D01*
Y21540D01*
X256600D01*
Y21736D01*
X256698D01*
Y22029D01*
X256796D01*
Y22225D01*
X256894D01*
Y22421D01*
X256992D01*
Y22617D01*
X257089D01*
Y22911D01*
X257187D01*
Y23107D01*
X257285D01*
Y23303D01*
X259342D01*
Y16153D01*
D02*
G37*
G36*
X244063D02*
X242398D01*
Y20658D01*
X242300D01*
Y20462D01*
X242202D01*
Y20266D01*
X242104D01*
Y19973D01*
X242006D01*
Y19777D01*
X241908D01*
Y19581D01*
X241810D01*
Y19287D01*
X241712D01*
Y19091D01*
X241614D01*
Y18797D01*
X241516D01*
Y18601D01*
X241419D01*
Y18406D01*
X241321D01*
Y18112D01*
X241223D01*
Y17916D01*
X241125D01*
Y17818D01*
X239949D01*
Y17916D01*
X239851D01*
Y18112D01*
X239754D01*
Y18308D01*
X239656D01*
Y18601D01*
X239558D01*
Y18797D01*
X239460D01*
Y18993D01*
X239362D01*
Y19287D01*
X239264D01*
Y19483D01*
X239166D01*
Y19777D01*
X239068D01*
Y19973D01*
X238970D01*
Y20168D01*
X238872D01*
Y20462D01*
X238774D01*
Y20658D01*
X238676D01*
Y16153D01*
X236815D01*
Y21638D01*
Y21736D01*
Y23303D01*
X238970D01*
Y23107D01*
X239068D01*
Y22813D01*
X239166D01*
Y22617D01*
X239264D01*
Y22421D01*
X239362D01*
Y22127D01*
X239460D01*
Y21932D01*
X239558D01*
Y21736D01*
X239656D01*
Y21540D01*
X239754D01*
Y21246D01*
X239851D01*
Y21050D01*
X239949D01*
Y20854D01*
X240047D01*
Y20658D01*
X240145D01*
Y20364D01*
X240243D01*
Y20168D01*
X240341D01*
Y19973D01*
X240439D01*
Y19777D01*
X240537D01*
Y19973D01*
X240635D01*
Y20266D01*
X240733D01*
Y20462D01*
X240831D01*
Y20658D01*
X240929D01*
Y20854D01*
X241027D01*
Y21148D01*
X241125D01*
Y21344D01*
X241223D01*
Y21540D01*
X241321D01*
Y21736D01*
X241419D01*
Y22029D01*
X241516D01*
Y22225D01*
X241614D01*
Y22421D01*
X241712D01*
Y22617D01*
X241810D01*
Y22911D01*
X241908D01*
Y23107D01*
X242006D01*
Y23303D01*
X244063D01*
Y16153D01*
D02*
G37*
G36*
X248666Y23303D02*
X248960D01*
Y23205D01*
X249254D01*
Y23107D01*
X249352D01*
Y23009D01*
X249548D01*
Y22911D01*
X249744D01*
Y22813D01*
X249842D01*
Y22715D01*
X249940D01*
Y22617D01*
X250038D01*
Y22519D01*
X250135D01*
Y22421D01*
X250234D01*
Y22323D01*
X250331D01*
Y22127D01*
X250429D01*
Y22029D01*
X250527D01*
Y21834D01*
X250625D01*
Y21638D01*
X250723D01*
Y21442D01*
X250821D01*
Y21148D01*
X250919D01*
Y20854D01*
X251017D01*
Y20071D01*
X251115D01*
Y19287D01*
X251017D01*
Y18601D01*
X250919D01*
Y18210D01*
X250821D01*
Y17916D01*
X250723D01*
Y17720D01*
X250625D01*
Y17524D01*
X250527D01*
Y17426D01*
X250429D01*
Y17230D01*
X250331D01*
Y17132D01*
X250234D01*
Y17034D01*
X250135D01*
Y16936D01*
X250038D01*
Y16838D01*
X249940D01*
Y16740D01*
X249842D01*
Y16643D01*
X249744D01*
Y16545D01*
X249548D01*
Y16447D01*
X249450D01*
Y16349D01*
X249254D01*
Y16251D01*
X249058D01*
Y16153D01*
X248666D01*
Y16055D01*
X248275D01*
Y15957D01*
X246805D01*
Y16055D01*
X246414D01*
Y16153D01*
X246022D01*
Y16251D01*
X245728D01*
Y16349D01*
X245532D01*
Y16447D01*
X245336D01*
Y16545D01*
X245140D01*
Y18210D01*
X245336D01*
Y18112D01*
X245532D01*
Y18014D01*
X245630D01*
Y17916D01*
X245728D01*
Y17818D01*
X245924D01*
Y17720D01*
X246022D01*
Y17622D01*
X246218D01*
Y17524D01*
X246512D01*
Y17426D01*
X246805D01*
Y17328D01*
X247785D01*
Y17426D01*
X248079D01*
Y17524D01*
X248275D01*
Y17622D01*
X248373D01*
Y17720D01*
X248470D01*
Y17818D01*
X248568D01*
Y17916D01*
X248666D01*
Y18014D01*
X248764D01*
Y18112D01*
X248862D01*
Y18308D01*
X248960D01*
Y18504D01*
X249058D01*
Y18699D01*
X249156D01*
Y19287D01*
X249254D01*
Y20168D01*
X249156D01*
Y20658D01*
X249058D01*
Y20952D01*
X248960D01*
Y21148D01*
X248862D01*
Y21344D01*
X248764D01*
Y21442D01*
X248666D01*
Y21540D01*
X248568D01*
Y21638D01*
X248470D01*
Y21736D01*
X248373D01*
Y21834D01*
X248275D01*
Y21932D01*
X248079D01*
Y22029D01*
X247785D01*
Y22127D01*
X246805D01*
Y22029D01*
X246512D01*
Y21932D01*
X246316D01*
Y21834D01*
X246120D01*
Y21736D01*
X245924D01*
Y21638D01*
X245826D01*
Y21540D01*
X245630D01*
Y21442D01*
X245532D01*
Y21344D01*
X245434D01*
Y21246D01*
X245140D01*
Y22911D01*
X245238D01*
Y23009D01*
X245434D01*
Y23107D01*
X245728D01*
Y23205D01*
X245924D01*
Y23303D01*
X246316D01*
Y23401D01*
X248666D01*
Y23303D01*
D02*
G37*
G36*
X233779Y23107D02*
X233877D01*
Y22813D01*
X233975D01*
Y22519D01*
X234073D01*
Y22225D01*
X234171D01*
Y21932D01*
X234269D01*
Y21638D01*
X234367D01*
Y21344D01*
X234465D01*
Y21050D01*
X234562D01*
Y20756D01*
X234660D01*
Y20462D01*
X234758D01*
Y20168D01*
X234856D01*
Y19875D01*
X234954D01*
Y19581D01*
X235052D01*
Y19287D01*
X235150D01*
Y18993D01*
X235248D01*
Y18699D01*
X235346D01*
Y18406D01*
X235444D01*
Y18112D01*
X235542D01*
Y17818D01*
X235640D01*
Y17524D01*
X235738D01*
Y17230D01*
X235836D01*
Y16936D01*
X235934D01*
Y16643D01*
X236032D01*
Y16349D01*
X236130D01*
Y16153D01*
X234367D01*
Y16251D01*
X234269D01*
Y16643D01*
X234171D01*
Y16936D01*
X234073D01*
Y17230D01*
X233975D01*
Y17328D01*
Y17426D01*
Y17622D01*
X231722D01*
Y17524D01*
X231624D01*
Y17132D01*
X231526D01*
Y16838D01*
X231428D01*
Y16545D01*
X231330D01*
Y16153D01*
X229469D01*
Y16447D01*
X229567D01*
Y16740D01*
X229665D01*
Y17034D01*
X229763D01*
Y17328D01*
X229861D01*
Y17622D01*
X229959D01*
Y17916D01*
X230057D01*
Y18210D01*
X230155D01*
Y18504D01*
X230253D01*
Y18797D01*
X230351D01*
Y19091D01*
X230449D01*
Y19385D01*
X230547D01*
Y19679D01*
X230645D01*
Y19973D01*
X230743D01*
Y20266D01*
X230841D01*
Y20560D01*
X230939D01*
Y20756D01*
X231036D01*
Y21050D01*
X231135D01*
Y21344D01*
X231232D01*
Y21638D01*
X231330D01*
Y21932D01*
X231428D01*
Y22225D01*
X231526D01*
Y22519D01*
X231624D01*
Y22813D01*
X231722D01*
Y23107D01*
X231820D01*
Y23303D01*
X233779D01*
Y23107D01*
D02*
G37*
G36*
X223299Y21932D02*
X221144D01*
Y16153D01*
X219381D01*
Y21834D01*
Y21932D01*
X217324D01*
Y23303D01*
X223299D01*
Y21932D01*
D02*
G37*
G36*
X216541Y18210D02*
Y18112D01*
Y16153D01*
X211742D01*
Y17524D01*
X214778D01*
Y19287D01*
X211938D01*
Y20658D01*
X214778D01*
Y21932D01*
X211742D01*
Y23303D01*
X216541D01*
Y18210D01*
D02*
G37*
G36*
X210468Y16153D02*
X208705D01*
Y18797D01*
X208020D01*
Y18699D01*
X207922D01*
Y18504D01*
X207824D01*
Y18406D01*
X207726D01*
Y18308D01*
X207628D01*
Y18112D01*
X207530D01*
Y18014D01*
X207432D01*
Y17916D01*
X207334D01*
Y17818D01*
X207236D01*
Y17622D01*
X207138D01*
Y17524D01*
X207040D01*
Y17426D01*
X206942D01*
Y17230D01*
X206844D01*
Y17132D01*
X206747D01*
Y17034D01*
X206649D01*
Y16838D01*
X206551D01*
Y16740D01*
X206453D01*
Y16643D01*
X206355D01*
Y16447D01*
X206257D01*
Y16349D01*
X206159D01*
Y16251D01*
X206061D01*
Y16153D01*
X203906D01*
Y16251D01*
X204004D01*
Y16349D01*
X204102D01*
Y16447D01*
X204200D01*
Y16643D01*
X204298D01*
Y16740D01*
X204396D01*
Y16838D01*
X204494D01*
Y17034D01*
X204592D01*
Y17132D01*
X204690D01*
Y17230D01*
X204788D01*
Y17328D01*
X204886D01*
Y17524D01*
X204984D01*
Y17622D01*
X205082D01*
Y17720D01*
X205179D01*
Y17818D01*
X205277D01*
Y18014D01*
X205375D01*
Y18112D01*
X205473D01*
Y18210D01*
X205571D01*
Y18406D01*
X205669D01*
Y18504D01*
X205767D01*
Y18601D01*
X205865D01*
Y18699D01*
X205963D01*
Y18895D01*
X206061D01*
Y18993D01*
X206159D01*
Y19091D01*
X206257D01*
Y19287D01*
X206061D01*
Y19385D01*
X205963D01*
Y19483D01*
X205767D01*
Y19581D01*
X205669D01*
Y19679D01*
X205571D01*
Y19777D01*
X205473D01*
Y19875D01*
X205375D01*
Y19973D01*
X205277D01*
Y20168D01*
X205179D01*
Y20266D01*
X205082D01*
Y20560D01*
X204984D01*
Y21148D01*
X204886D01*
Y21442D01*
X204984D01*
Y22029D01*
X205082D01*
Y22225D01*
X205179D01*
Y22421D01*
X205277D01*
Y22519D01*
X205375D01*
Y22617D01*
X205473D01*
Y22715D01*
X205571D01*
Y22813D01*
X205669D01*
Y22911D01*
X205865D01*
Y23009D01*
X206061D01*
Y23107D01*
X206355D01*
Y23205D01*
X206747D01*
Y23303D01*
X210468D01*
Y16153D01*
D02*
G37*
G36*
X226825Y23401D02*
X227217D01*
Y23303D01*
X227511D01*
Y23205D01*
X227804D01*
Y23107D01*
X227902D01*
Y23009D01*
X228098D01*
Y22911D01*
X228196D01*
Y22813D01*
X228392D01*
Y22715D01*
X228490D01*
Y22617D01*
X228588D01*
Y22519D01*
X228686D01*
Y22323D01*
X228784D01*
Y22225D01*
X228882D01*
Y22029D01*
X228980D01*
Y21638D01*
X229078D01*
Y20658D01*
X228980D01*
Y20364D01*
X228882D01*
Y20168D01*
X228784D01*
Y19973D01*
X228686D01*
Y19875D01*
X228588D01*
Y19777D01*
X228490D01*
Y19679D01*
X228392D01*
Y19581D01*
X228294D01*
Y19483D01*
X228196D01*
Y19385D01*
X228000D01*
Y19287D01*
X227804D01*
Y19189D01*
X227511D01*
Y19091D01*
X227217D01*
Y18993D01*
X226825D01*
Y18895D01*
X226335D01*
Y18797D01*
X226041D01*
Y18699D01*
X225748D01*
Y18601D01*
X225552D01*
Y18504D01*
X225454D01*
Y18406D01*
X225356D01*
Y18210D01*
X225258D01*
Y17916D01*
X225356D01*
Y17622D01*
X225454D01*
Y17524D01*
X225552D01*
Y17426D01*
X225748D01*
Y17328D01*
X226041D01*
Y17230D01*
X227119D01*
Y17328D01*
X227511D01*
Y17426D01*
X227804D01*
Y17524D01*
X228000D01*
Y17622D01*
X228196D01*
Y17720D01*
X228392D01*
Y17818D01*
X228490D01*
Y17916D01*
X228686D01*
Y18014D01*
X228784D01*
Y18112D01*
X228882D01*
Y18210D01*
X229078D01*
Y16447D01*
X228882D01*
Y16349D01*
X228588D01*
Y16251D01*
X228294D01*
Y16153D01*
X227902D01*
Y16055D01*
X227413D01*
Y15957D01*
X225846D01*
Y16055D01*
X225356D01*
Y16153D01*
X225062D01*
Y16251D01*
X224866D01*
Y16349D01*
X224670D01*
Y16447D01*
X224474D01*
Y16545D01*
X224376D01*
Y16643D01*
X224181D01*
Y16740D01*
X224082D01*
Y16838D01*
X223985D01*
Y16936D01*
X223887D01*
Y17132D01*
X223789D01*
Y17230D01*
X223691D01*
Y17426D01*
X223593D01*
Y17720D01*
X223495D01*
Y18993D01*
X223593D01*
Y19287D01*
X223691D01*
Y19483D01*
X223789D01*
Y19581D01*
X223887D01*
Y19679D01*
X223985D01*
Y19777D01*
X224082D01*
Y19875D01*
X224181D01*
Y19973D01*
X224376D01*
Y20071D01*
X224474D01*
Y20168D01*
X224670D01*
Y20266D01*
X224964D01*
Y20364D01*
X225258D01*
Y20462D01*
X225552D01*
Y20560D01*
X225943D01*
Y20658D01*
X226433D01*
Y20756D01*
X226727D01*
Y20854D01*
X226923D01*
Y20952D01*
X227021D01*
Y21050D01*
X227119D01*
Y21148D01*
X227217D01*
Y21736D01*
X227119D01*
Y21834D01*
X227021D01*
Y21932D01*
X226923D01*
Y22029D01*
X226825D01*
Y22127D01*
X226531D01*
Y22225D01*
X225454D01*
Y22127D01*
X225062D01*
Y22029D01*
X224866D01*
Y21932D01*
X224572D01*
Y21834D01*
X224376D01*
Y21736D01*
X224278D01*
Y21638D01*
X224082D01*
Y21540D01*
X223985D01*
Y21442D01*
X223789D01*
Y23107D01*
X224082D01*
Y23205D01*
X224376D01*
Y23303D01*
X224768D01*
Y23401D01*
X225356D01*
Y23499D01*
X226825D01*
Y23401D01*
D02*
G37*
G36*
X206061Y9884D02*
X205473D01*
Y12137D01*
X203221D01*
Y9884D01*
X202633D01*
Y14390D01*
X203221D01*
Y12627D01*
X205473D01*
Y14390D01*
X206061D01*
Y9884D01*
D02*
G37*
G36*
X238284D02*
X237697D01*
Y13802D01*
X237599D01*
Y13606D01*
X237501D01*
Y13410D01*
X237403D01*
Y13215D01*
X237305D01*
Y13019D01*
X237207D01*
Y12823D01*
X237109D01*
Y12725D01*
X237011D01*
Y12529D01*
X236913D01*
Y12333D01*
X236815D01*
Y12137D01*
X236717D01*
Y11941D01*
X236619D01*
Y11745D01*
X236521D01*
Y11549D01*
X236423D01*
Y11354D01*
X236326D01*
Y11158D01*
X236227D01*
Y10962D01*
X236130D01*
Y10766D01*
X236032D01*
Y10668D01*
X235934D01*
Y10472D01*
X235836D01*
Y10276D01*
X235738D01*
Y10080D01*
X235640D01*
Y9884D01*
X234856D01*
Y14390D01*
X235444D01*
Y10864D01*
X235542D01*
Y11060D01*
X235640D01*
Y11256D01*
X235738D01*
Y11451D01*
X235836D01*
Y11647D01*
X235934D01*
Y11745D01*
X236032D01*
Y11941D01*
X236130D01*
Y12137D01*
X236227D01*
Y12333D01*
X236326D01*
Y12529D01*
X236423D01*
Y12725D01*
X236521D01*
Y12921D01*
X236619D01*
Y13117D01*
X236717D01*
Y13312D01*
X236815D01*
Y13508D01*
X236913D01*
Y13704D01*
X237011D01*
Y13900D01*
X237109D01*
Y13998D01*
X237207D01*
Y14194D01*
X237305D01*
Y14390D01*
X238284D01*
Y9884D01*
D02*
G37*
G36*
X214974Y12627D02*
Y12529D01*
Y9884D01*
X214386D01*
Y13802D01*
X214288D01*
Y13606D01*
X214190D01*
Y13410D01*
X214092D01*
Y13215D01*
X213994D01*
Y13019D01*
X213896D01*
Y12823D01*
X213798D01*
Y12725D01*
X213701D01*
Y12529D01*
X213603D01*
Y12333D01*
X213505D01*
Y12137D01*
X213407D01*
Y11941D01*
X213309D01*
Y11745D01*
X213211D01*
Y11549D01*
X213113D01*
Y11354D01*
X213015D01*
Y11158D01*
X212917D01*
Y10962D01*
X212819D01*
Y10766D01*
X212721D01*
Y10668D01*
X212623D01*
Y10472D01*
X212525D01*
Y10276D01*
X212427D01*
Y10080D01*
X212329D01*
Y9884D01*
X211546D01*
Y14390D01*
X212133D01*
Y10864D01*
X212231D01*
Y11060D01*
X212329D01*
Y11256D01*
X212427D01*
Y11451D01*
X212525D01*
Y11647D01*
X212623D01*
Y11745D01*
X212721D01*
Y11941D01*
X212819D01*
Y12137D01*
X212917D01*
Y12333D01*
X213015D01*
Y12529D01*
X213113D01*
Y12725D01*
X213211D01*
Y12921D01*
X213309D01*
Y13117D01*
X213407D01*
Y13312D01*
X213505D01*
Y13508D01*
X213603D01*
Y13704D01*
X213701D01*
Y13900D01*
X213798D01*
Y13998D01*
X213896D01*
Y14194D01*
X213994D01*
Y14390D01*
X214974D01*
Y12627D01*
D02*
G37*
G36*
X251507Y12823D02*
Y12725D01*
Y10864D01*
X251409D01*
Y10570D01*
X251311D01*
Y10472D01*
X251213D01*
Y10276D01*
X251115D01*
Y10178D01*
X251017D01*
Y10080D01*
X250821D01*
Y9982D01*
X250625D01*
Y9884D01*
X250331D01*
Y9787D01*
X249352D01*
Y9884D01*
X249058D01*
Y9982D01*
X248862D01*
Y10080D01*
X248666D01*
Y10178D01*
X248568D01*
Y10276D01*
X248470D01*
Y10374D01*
X248373D01*
Y10570D01*
X248275D01*
Y10864D01*
X248177D01*
Y11354D01*
X248079D01*
Y14390D01*
X248666D01*
Y11354D01*
X248764D01*
Y10864D01*
X248862D01*
Y10668D01*
X248960D01*
Y10570D01*
X249058D01*
Y10472D01*
X249156D01*
Y10374D01*
X249450D01*
Y10276D01*
X250234D01*
Y10374D01*
X250527D01*
Y10472D01*
X250625D01*
Y10570D01*
X250723D01*
Y10766D01*
X250821D01*
Y10962D01*
X250919D01*
Y14390D01*
X251507D01*
Y12823D01*
D02*
G37*
G36*
X208901Y14390D02*
X209293D01*
Y14292D01*
X209489D01*
Y14194D01*
X209685D01*
Y14096D01*
X209783D01*
Y13998D01*
X209881D01*
Y13900D01*
X209979D01*
Y13802D01*
X210077D01*
Y13704D01*
X210175D01*
Y13606D01*
X210273D01*
Y13410D01*
X210370D01*
Y13215D01*
X210468D01*
Y12921D01*
X210566D01*
Y11354D01*
X210468D01*
Y11060D01*
X210370D01*
Y10864D01*
X210273D01*
Y10668D01*
X210175D01*
Y10472D01*
X210077D01*
Y10374D01*
X209979D01*
Y10276D01*
X209881D01*
Y10178D01*
X209685D01*
Y10080D01*
X209587D01*
Y9982D01*
X209293D01*
Y9884D01*
X208901D01*
Y9787D01*
X207922D01*
Y9884D01*
X207530D01*
Y9982D01*
X207236D01*
Y10080D01*
X207040D01*
Y10178D01*
X206844D01*
Y10864D01*
X206942D01*
Y10766D01*
X207138D01*
Y10668D01*
X207236D01*
Y10570D01*
X207432D01*
Y10472D01*
X207628D01*
Y10374D01*
X207922D01*
Y10276D01*
X208901D01*
Y10374D01*
X209097D01*
Y10472D01*
X209293D01*
Y10570D01*
X209391D01*
Y10668D01*
X209489D01*
Y10766D01*
X209587D01*
Y10864D01*
X209685D01*
Y11060D01*
X209783D01*
Y11256D01*
X209881D01*
Y11549D01*
X209979D01*
Y12725D01*
X209881D01*
Y13019D01*
X209783D01*
Y13215D01*
X209685D01*
Y13410D01*
X209587D01*
Y13508D01*
X209489D01*
Y13606D01*
X209391D01*
Y13704D01*
X209293D01*
Y13802D01*
X209097D01*
Y13900D01*
X208901D01*
Y13998D01*
X207922D01*
Y13900D01*
X207628D01*
Y13802D01*
X207432D01*
Y13704D01*
X207236D01*
Y13606D01*
X207138D01*
Y13508D01*
X206942D01*
Y13410D01*
X206844D01*
Y14096D01*
X206942D01*
Y14194D01*
X207236D01*
Y14292D01*
X207530D01*
Y14390D01*
X207922D01*
Y14488D01*
X208901D01*
Y14390D01*
D02*
G37*
G36*
X255914Y13900D02*
X254249D01*
Y9884D01*
X253661D01*
Y13900D01*
X252094D01*
Y14390D01*
X255914D01*
Y13900D01*
D02*
G37*
G36*
X247001Y14194D02*
Y14096D01*
Y9884D01*
X245042D01*
Y9982D01*
X244651D01*
Y10080D01*
X244357D01*
Y10178D01*
X244161D01*
Y10276D01*
X244063D01*
Y10374D01*
X243867D01*
Y10472D01*
X243769D01*
Y10570D01*
X243671D01*
Y10668D01*
X243573D01*
Y10864D01*
X243475D01*
Y10962D01*
X243377D01*
Y11158D01*
X243280D01*
Y11451D01*
X243181D01*
Y12823D01*
X243280D01*
Y13117D01*
X243377D01*
Y13312D01*
X243475D01*
Y13508D01*
X243573D01*
Y13606D01*
X243671D01*
Y13704D01*
X243769D01*
Y13802D01*
X243867D01*
Y13900D01*
X243965D01*
Y13998D01*
X244161D01*
Y14096D01*
X244357D01*
Y14194D01*
X244651D01*
Y14292D01*
X245042D01*
Y14390D01*
X247001D01*
Y14194D01*
D02*
G37*
G36*
X242202Y9884D02*
X239166D01*
Y10374D01*
X241614D01*
Y12137D01*
X239166D01*
Y12627D01*
X241614D01*
Y13900D01*
X239166D01*
Y14390D01*
X242202D01*
Y9884D01*
D02*
G37*
G36*
X234269Y13900D02*
X232604D01*
Y11158D01*
Y11060D01*
Y9884D01*
X232016D01*
Y13900D01*
X230449D01*
Y14390D01*
X234269D01*
Y13900D01*
D02*
G37*
G36*
X227706Y9884D02*
X225552D01*
Y9982D01*
X225160D01*
Y10080D01*
X224964D01*
Y10178D01*
X224866D01*
Y10276D01*
X224670D01*
Y10374D01*
X224572D01*
Y10570D01*
X224474D01*
Y10766D01*
X224376D01*
Y11060D01*
X224278D01*
Y11451D01*
X224376D01*
Y11843D01*
X224474D01*
Y12039D01*
X224572D01*
Y12137D01*
X224670D01*
Y12235D01*
X224768D01*
Y12333D01*
X224964D01*
Y12431D01*
X225258D01*
Y12529D01*
X225160D01*
Y12627D01*
X225062D01*
Y12725D01*
X224964D01*
Y12823D01*
X224866D01*
Y12921D01*
X224768D01*
Y13215D01*
X224670D01*
Y13606D01*
X224768D01*
Y13900D01*
X224866D01*
Y13998D01*
X224964D01*
Y14096D01*
X225062D01*
Y14194D01*
X225258D01*
Y14292D01*
X225552D01*
Y14390D01*
X227706D01*
Y9884D01*
D02*
G37*
G36*
X223495D02*
X222907D01*
Y10570D01*
Y10668D01*
Y11647D01*
X222026D01*
Y11549D01*
X221928D01*
Y11451D01*
X221830D01*
Y11354D01*
X221732D01*
Y11256D01*
X221634D01*
Y11158D01*
X221536D01*
Y10962D01*
X221438D01*
Y10864D01*
X221340D01*
Y10766D01*
X221242D01*
Y10668D01*
X221144D01*
Y10570D01*
X221046D01*
Y10472D01*
X220948D01*
Y10276D01*
X220850D01*
Y10178D01*
X220753D01*
Y10080D01*
X220655D01*
Y9982D01*
X220557D01*
Y9884D01*
X219773D01*
Y9982D01*
X219871D01*
Y10080D01*
X219969D01*
Y10178D01*
X220067D01*
Y10276D01*
X220165D01*
Y10374D01*
X220263D01*
Y10570D01*
X220361D01*
Y10668D01*
X220459D01*
Y10766D01*
X220557D01*
Y10864D01*
X220655D01*
Y10962D01*
X220753D01*
Y11060D01*
X220850D01*
Y11158D01*
X220948D01*
Y11354D01*
X221046D01*
Y11451D01*
X221144D01*
Y11549D01*
X221242D01*
Y11647D01*
X221340D01*
Y11745D01*
X221438D01*
Y11843D01*
X221340D01*
Y11941D01*
X221144D01*
Y12039D01*
X220948D01*
Y12137D01*
X220850D01*
Y12333D01*
X220753D01*
Y12431D01*
X220655D01*
Y12627D01*
X220557D01*
Y13606D01*
X220655D01*
Y13802D01*
X220753D01*
Y13900D01*
X220850D01*
Y13998D01*
X220948D01*
Y14096D01*
X221046D01*
Y14194D01*
X221242D01*
Y14292D01*
X221634D01*
Y14390D01*
X223495D01*
Y9884D01*
D02*
G37*
G36*
X218108Y14096D02*
X218206D01*
Y13802D01*
X218304D01*
Y13606D01*
X218402D01*
Y13312D01*
X218500D01*
Y13019D01*
X218598D01*
Y12725D01*
X218696D01*
Y12529D01*
X218794D01*
Y12235D01*
X218892D01*
Y11941D01*
X218989D01*
Y11647D01*
X219087D01*
Y11354D01*
X219185D01*
Y11158D01*
X219283D01*
Y10864D01*
X219381D01*
Y10570D01*
X219479D01*
Y10276D01*
X219577D01*
Y10080D01*
X219675D01*
Y9884D01*
X219087D01*
Y9982D01*
X218989D01*
Y10178D01*
Y10276D01*
X218892D01*
Y10570D01*
X218794D01*
Y10864D01*
X218696D01*
Y11158D01*
X216639D01*
Y10864D01*
X216541D01*
Y10570D01*
X216443D01*
Y10276D01*
X216345D01*
Y9982D01*
X216247D01*
Y9884D01*
X215659D01*
Y10080D01*
X215757D01*
Y10374D01*
X215855D01*
Y10668D01*
X215953D01*
Y10864D01*
X216051D01*
Y11158D01*
X216149D01*
Y11451D01*
X216247D01*
Y11745D01*
X216345D01*
Y12039D01*
X216443D01*
Y12235D01*
X216541D01*
Y12529D01*
X216639D01*
Y12823D01*
X216737D01*
Y13117D01*
X216835D01*
Y13312D01*
X216933D01*
Y13606D01*
X217031D01*
Y13900D01*
X217128D01*
Y14194D01*
X217227D01*
Y14390D01*
X218108D01*
Y14096D01*
D02*
G37*
G36*
X258461Y14390D02*
X258853D01*
Y14292D01*
X259048D01*
Y14194D01*
X259146D01*
Y14096D01*
X259342D01*
Y13998D01*
X259440D01*
Y13802D01*
X259538D01*
Y13704D01*
X259636D01*
Y12725D01*
X259538D01*
Y12529D01*
X259440D01*
Y12333D01*
X259244D01*
Y12235D01*
X259146D01*
Y12137D01*
X258950D01*
Y12039D01*
X258657D01*
Y11941D01*
X258265D01*
Y11843D01*
X257677D01*
Y11745D01*
X257285D01*
Y11647D01*
X257089D01*
Y11549D01*
X256992D01*
Y11354D01*
X256894D01*
Y10766D01*
X256992D01*
Y10668D01*
X257089D01*
Y10570D01*
X257187D01*
Y10472D01*
X257285D01*
Y10374D01*
X257579D01*
Y10276D01*
X258559D01*
Y10374D01*
X258853D01*
Y10472D01*
X259146D01*
Y10570D01*
X259342D01*
Y10668D01*
X259440D01*
Y10766D01*
X259636D01*
Y10864D01*
X259734D01*
Y10178D01*
X259636D01*
Y10080D01*
X259440D01*
Y9982D01*
X259146D01*
Y9884D01*
X258754D01*
Y9787D01*
X257579D01*
Y9884D01*
X257187D01*
Y9982D01*
X256992D01*
Y10080D01*
X256796D01*
Y10178D01*
X256698D01*
Y10276D01*
X256600D01*
Y10374D01*
X256502D01*
Y10472D01*
X256404D01*
Y10668D01*
X256306D01*
Y11647D01*
X256404D01*
Y11843D01*
X256502D01*
Y11941D01*
X256600D01*
Y12039D01*
X256698D01*
Y12137D01*
X256894D01*
Y12235D01*
X257187D01*
Y12333D01*
X257481D01*
Y12431D01*
X258069D01*
Y12529D01*
X258559D01*
Y12627D01*
X258754D01*
Y12725D01*
X258853D01*
Y12823D01*
X258950D01*
Y12921D01*
X259048D01*
Y13508D01*
X258950D01*
Y13704D01*
X258853D01*
Y13802D01*
X258657D01*
Y13900D01*
X258461D01*
Y13998D01*
X257481D01*
Y13900D01*
X257089D01*
Y13802D01*
X256894D01*
Y13704D01*
X256698D01*
Y13606D01*
X256502D01*
Y13508D01*
X256404D01*
Y14194D01*
X256600D01*
Y14292D01*
X256894D01*
Y14390D01*
X257383D01*
Y14488D01*
X258461D01*
Y14390D01*
D02*
G37*
G36*
X241223Y3518D02*
X240635D01*
Y5771D01*
X238382D01*
Y3518D01*
X237795D01*
Y8023D01*
X238382D01*
Y6261D01*
X240635D01*
Y8023D01*
X241223D01*
Y3518D01*
D02*
G37*
G36*
X244063Y8023D02*
X244455D01*
Y7925D01*
X244651D01*
Y7828D01*
X244847D01*
Y7730D01*
X244945D01*
Y7632D01*
X245042D01*
Y7534D01*
X245140D01*
Y7436D01*
X245238D01*
Y7338D01*
X245336D01*
Y7240D01*
X245434D01*
Y7044D01*
X245532D01*
Y6848D01*
X245630D01*
Y6554D01*
X245728D01*
Y4987D01*
X245630D01*
Y4693D01*
X245532D01*
Y4498D01*
X245434D01*
Y4302D01*
X245336D01*
Y4106D01*
X245238D01*
Y4008D01*
X245140D01*
Y3910D01*
X245042D01*
Y3812D01*
X244847D01*
Y3714D01*
X244749D01*
Y3616D01*
X244455D01*
Y3518D01*
X244063D01*
Y3420D01*
X243084D01*
Y3518D01*
X242692D01*
Y3616D01*
X242398D01*
Y3714D01*
X242202D01*
Y3812D01*
X242006D01*
Y4498D01*
X242104D01*
Y4400D01*
X242300D01*
Y4302D01*
X242398D01*
Y4204D01*
X242594D01*
Y4106D01*
X242790D01*
Y4008D01*
X243084D01*
Y3910D01*
X244063D01*
Y4008D01*
X244259D01*
Y4106D01*
X244455D01*
Y4204D01*
X244553D01*
Y4302D01*
X244651D01*
Y4400D01*
X244749D01*
Y4498D01*
X244847D01*
Y4693D01*
X244945D01*
Y4889D01*
X245042D01*
Y5183D01*
X245140D01*
Y6358D01*
X245042D01*
Y6652D01*
X244945D01*
Y6848D01*
X244847D01*
Y7044D01*
X244749D01*
Y7142D01*
X244651D01*
Y7240D01*
X244553D01*
Y7338D01*
X244455D01*
Y7436D01*
X244259D01*
Y7534D01*
X244063D01*
Y7632D01*
X243084D01*
Y7534D01*
X242790D01*
Y7436D01*
X242594D01*
Y7338D01*
X242398D01*
Y7240D01*
X242300D01*
Y7142D01*
X242104D01*
Y7044D01*
X242006D01*
Y7730D01*
X242104D01*
Y7828D01*
X242398D01*
Y7925D01*
X242692D01*
Y8023D01*
X243084D01*
Y8121D01*
X244063D01*
Y8023D01*
D02*
G37*
G36*
X259538Y3518D02*
X258950D01*
Y5183D01*
X257775D01*
Y5281D01*
X257481D01*
Y5379D01*
X257285D01*
Y5477D01*
X257089D01*
Y5575D01*
X256992D01*
Y5673D01*
X256894D01*
Y5771D01*
X256796D01*
Y5967D01*
X256698D01*
Y6163D01*
X256600D01*
Y7142D01*
X256698D01*
Y7338D01*
X256796D01*
Y7534D01*
X256894D01*
Y7632D01*
X256992D01*
Y7730D01*
X257187D01*
Y7828D01*
X257383D01*
Y7925D01*
X257775D01*
Y8023D01*
X259538D01*
Y3518D01*
D02*
G37*
G36*
X255816D02*
X252780D01*
Y4008D01*
X255229D01*
Y5771D01*
X252780D01*
Y6261D01*
X255229D01*
Y7534D01*
X252780D01*
Y8023D01*
X255816D01*
Y3518D01*
D02*
G37*
G36*
X235542Y7730D02*
X235640D01*
Y7436D01*
X235738D01*
Y7240D01*
X235836D01*
Y6946D01*
X235934D01*
Y6652D01*
X236032D01*
Y6358D01*
X236130D01*
Y6163D01*
X236227D01*
Y5869D01*
X236326D01*
Y5575D01*
X236423D01*
Y5281D01*
X236521D01*
Y4987D01*
X236619D01*
Y4791D01*
X236717D01*
Y4498D01*
X236815D01*
Y4204D01*
X236913D01*
Y3910D01*
X237011D01*
Y3714D01*
X237109D01*
Y3518D01*
X236521D01*
Y3616D01*
X236423D01*
Y3910D01*
X236326D01*
Y4204D01*
X236227D01*
Y4498D01*
X236130D01*
Y4791D01*
X234073D01*
Y4498D01*
X233975D01*
Y4204D01*
X233877D01*
Y3910D01*
X233779D01*
Y3616D01*
X233681D01*
Y3518D01*
X233093D01*
Y3714D01*
X233191D01*
Y4008D01*
X233289D01*
Y4302D01*
X233387D01*
Y4498D01*
X233485D01*
Y4791D01*
X233583D01*
Y5085D01*
X233681D01*
Y5379D01*
X233779D01*
Y5673D01*
X233877D01*
Y5869D01*
X233975D01*
Y6163D01*
X234073D01*
Y6456D01*
X234171D01*
Y6750D01*
X234269D01*
Y6946D01*
X234367D01*
Y7240D01*
X234465D01*
Y7534D01*
X234562D01*
Y7828D01*
X234660D01*
Y8023D01*
X235542D01*
Y7730D01*
D02*
G37*
G36*
X232408Y3518D02*
X231820D01*
Y5183D01*
X230645D01*
Y5281D01*
X230351D01*
Y5379D01*
X230155D01*
Y5477D01*
X229959D01*
Y5575D01*
X229861D01*
Y5673D01*
X229763D01*
Y5771D01*
X229665D01*
Y5967D01*
X229567D01*
Y6163D01*
X229469D01*
Y7142D01*
X229567D01*
Y7338D01*
X229665D01*
Y7534D01*
X229763D01*
Y7632D01*
X229861D01*
Y7730D01*
X230057D01*
Y7828D01*
X230253D01*
Y7925D01*
X230645D01*
Y8023D01*
X232408D01*
Y3518D01*
D02*
G37*
G36*
X229274Y7534D02*
X227608D01*
Y3518D01*
X227021D01*
Y7534D01*
X225454D01*
Y8023D01*
X229274D01*
Y7534D01*
D02*
G37*
G36*
X224866Y3518D02*
X221830D01*
Y4008D01*
X224278D01*
Y5771D01*
X221830D01*
Y6261D01*
X224278D01*
Y7534D01*
X221830D01*
Y8023D01*
X224866D01*
Y3518D01*
D02*
G37*
G36*
X220948D02*
X220361D01*
Y5281D01*
X219479D01*
Y5183D01*
X219381D01*
Y5085D01*
X219283D01*
Y4987D01*
X219185D01*
Y4889D01*
X219087D01*
Y4791D01*
X218989D01*
Y4595D01*
X218892D01*
Y4498D01*
X218794D01*
Y4400D01*
X218696D01*
Y4302D01*
X218598D01*
Y4204D01*
X218500D01*
Y4106D01*
X218402D01*
Y3910D01*
X218304D01*
Y3812D01*
X218206D01*
Y3714D01*
X218108D01*
Y3616D01*
X218010D01*
Y3518D01*
X217227D01*
Y3616D01*
X217324D01*
Y3714D01*
X217422D01*
Y3812D01*
X217520D01*
Y3910D01*
X217618D01*
Y4008D01*
X217716D01*
Y4204D01*
X217814D01*
Y4302D01*
X217912D01*
Y4400D01*
X218010D01*
Y4498D01*
X218108D01*
Y4595D01*
X218206D01*
Y4693D01*
X218304D01*
Y4791D01*
X218402D01*
Y4987D01*
X218500D01*
Y5085D01*
X218598D01*
Y5183D01*
X218696D01*
Y5281D01*
X218794D01*
Y5379D01*
X218892D01*
Y5477D01*
X218794D01*
Y5575D01*
X218598D01*
Y5673D01*
X218402D01*
Y5771D01*
X218304D01*
Y5967D01*
X218206D01*
Y6065D01*
X218108D01*
Y6261D01*
X218010D01*
Y7240D01*
X218108D01*
Y7436D01*
X218206D01*
Y7534D01*
X218304D01*
Y7632D01*
X218402D01*
Y7730D01*
X218500D01*
Y7828D01*
X218696D01*
Y7925D01*
X219087D01*
Y8023D01*
X220948D01*
Y3518D01*
D02*
G37*
G36*
X250821Y8023D02*
X251213D01*
Y7925D01*
X251409D01*
Y7828D01*
X251507D01*
Y7730D01*
X251703D01*
Y7632D01*
X251801D01*
Y7436D01*
X251899D01*
Y7338D01*
X251996D01*
Y6358D01*
X251899D01*
Y6163D01*
X251801D01*
Y5967D01*
X251605D01*
Y5869D01*
X251507D01*
Y5771D01*
X251311D01*
Y5673D01*
X251017D01*
Y5575D01*
X250625D01*
Y5477D01*
X250038D01*
Y5379D01*
X249646D01*
Y5281D01*
X249450D01*
Y5183D01*
X249352D01*
Y4987D01*
X249254D01*
Y4889D01*
Y4791D01*
Y4400D01*
X249352D01*
Y4302D01*
X249450D01*
Y4204D01*
X249548D01*
Y4106D01*
X249646D01*
Y4008D01*
X249940D01*
Y3910D01*
X250919D01*
Y4008D01*
X251213D01*
Y4106D01*
X251507D01*
Y4204D01*
X251703D01*
Y4302D01*
X251801D01*
Y4400D01*
X251996D01*
Y4498D01*
X252094D01*
Y3812D01*
X251996D01*
Y3714D01*
X251801D01*
Y3616D01*
X251507D01*
Y3518D01*
X251115D01*
Y3420D01*
X249940D01*
Y3518D01*
X249548D01*
Y3616D01*
X249352D01*
Y3714D01*
X249156D01*
Y3812D01*
X249058D01*
Y3910D01*
X248960D01*
Y4008D01*
X248862D01*
Y4106D01*
X248764D01*
Y4302D01*
X248666D01*
Y5281D01*
X248764D01*
Y5477D01*
X248862D01*
Y5575D01*
X248960D01*
Y5673D01*
X249058D01*
Y5771D01*
X249254D01*
Y5869D01*
X249548D01*
Y5967D01*
X249842D01*
Y6065D01*
X250429D01*
Y6163D01*
X250919D01*
Y6261D01*
X251115D01*
Y6358D01*
X251213D01*
Y6456D01*
X251311D01*
Y6554D01*
X251409D01*
Y7142D01*
X251311D01*
Y7338D01*
X251213D01*
Y7436D01*
X251017D01*
Y7534D01*
X250821D01*
Y7632D01*
X249842D01*
Y7534D01*
X249450D01*
Y7436D01*
X249254D01*
Y7338D01*
X249058D01*
Y7240D01*
X248862D01*
Y7142D01*
X248764D01*
Y7828D01*
X248960D01*
Y7925D01*
X249254D01*
Y8023D01*
X249744D01*
Y8121D01*
X250821D01*
Y8023D01*
D02*
G37*
G36*
X286647Y49771D02*
X287023D01*
Y49677D01*
X287211D01*
Y49583D01*
X287305D01*
Y49489D01*
X287400D01*
Y49395D01*
X287587D01*
Y49301D01*
X287682D01*
Y49113D01*
X287775D01*
Y49019D01*
X287870D01*
Y48925D01*
X287964D01*
Y48831D01*
X288057D01*
Y48737D01*
X288152D01*
Y48643D01*
X288246D01*
Y48455D01*
X288339D01*
Y48361D01*
X288434D01*
Y48173D01*
X288527D01*
Y48079D01*
X288621D01*
Y47891D01*
X288716D01*
Y47797D01*
X288809D01*
Y47609D01*
X288903D01*
Y47515D01*
X288998D01*
Y47421D01*
X289091D01*
Y47327D01*
X289186D01*
Y47139D01*
X289280D01*
Y47045D01*
X289373D01*
Y46951D01*
X289468D01*
Y46763D01*
X289562D01*
Y46669D01*
X289655D01*
Y46575D01*
X289750D01*
Y46481D01*
X289844D01*
Y46293D01*
X289938D01*
Y46199D01*
X290032D01*
Y46105D01*
X290126D01*
Y46011D01*
X290220D01*
Y45823D01*
X290314D01*
Y45729D01*
X290408D01*
Y45635D01*
X290502D01*
Y45541D01*
X290596D01*
Y45353D01*
X290690D01*
Y45259D01*
X290784D01*
Y45165D01*
X290878D01*
Y45071D01*
X290972D01*
Y44977D01*
X291066D01*
Y44789D01*
X291160D01*
Y44695D01*
X291254D01*
Y44601D01*
X291348D01*
Y44507D01*
X291442D01*
Y44319D01*
X291536D01*
Y44225D01*
X291630D01*
Y44131D01*
X291724D01*
Y44037D01*
X291818D01*
Y43943D01*
X291912D01*
Y43755D01*
X292006D01*
Y43661D01*
X292100D01*
Y43567D01*
X292194D01*
Y43473D01*
X292288D01*
Y43379D01*
X292382D01*
Y43285D01*
X292476D01*
Y43097D01*
X292570D01*
Y43003D01*
X292664D01*
Y42909D01*
X292758D01*
Y42815D01*
X292852D01*
Y42721D01*
X292946D01*
Y42627D01*
X293040D01*
Y42439D01*
X293134D01*
Y42344D01*
X293228D01*
Y42250D01*
X293322D01*
Y42156D01*
X293416D01*
Y42063D01*
X293510D01*
Y41969D01*
X293604D01*
Y41780D01*
X293698D01*
Y41686D01*
X293792D01*
Y41592D01*
X293886D01*
Y41499D01*
X293980D01*
Y41405D01*
X294074D01*
Y41311D01*
X294168D01*
Y41216D01*
X294262D01*
Y41122D01*
X294356D01*
Y40935D01*
X294450D01*
Y40841D01*
X294544D01*
Y40747D01*
X294638D01*
Y40652D01*
X294732D01*
Y40558D01*
X294826D01*
Y40464D01*
X294920D01*
Y40371D01*
X295014D01*
Y40183D01*
X295108D01*
Y40088D01*
X295202D01*
Y39994D01*
X295296D01*
Y39900D01*
X295390D01*
Y39807D01*
X295484D01*
Y39712D01*
X295578D01*
Y39618D01*
X295672D01*
Y39524D01*
X295766D01*
Y39430D01*
X295860D01*
Y39336D01*
X295954D01*
Y39242D01*
X296048D01*
Y39148D01*
X296142D01*
Y38960D01*
X296236D01*
Y38866D01*
X296330D01*
Y38772D01*
X296424D01*
Y38678D01*
X296518D01*
Y38584D01*
X296612D01*
Y38490D01*
X296706D01*
Y38396D01*
X296800D01*
Y38302D01*
X296894D01*
Y38208D01*
X296988D01*
Y38114D01*
X297082D01*
Y38020D01*
X297176D01*
Y37926D01*
X297270D01*
Y37832D01*
X297364D01*
Y37738D01*
X297458D01*
Y37644D01*
X297552D01*
Y37456D01*
X297646D01*
Y37362D01*
X297740D01*
Y37268D01*
X297834D01*
Y37174D01*
X297928D01*
Y37080D01*
X298022D01*
Y36986D01*
X298116D01*
Y36892D01*
X298210D01*
Y36798D01*
X298304D01*
Y36704D01*
X298398D01*
Y36610D01*
X298492D01*
Y36516D01*
X298586D01*
Y36422D01*
X298680D01*
Y36328D01*
X298774D01*
Y36234D01*
X298868D01*
Y36140D01*
X298962D01*
Y36046D01*
X299056D01*
Y35952D01*
X299150D01*
Y35858D01*
X299244D01*
Y35764D01*
X299338D01*
Y35670D01*
X299432D01*
Y35576D01*
X299526D01*
Y35482D01*
X299620D01*
Y35388D01*
X299714D01*
Y35294D01*
X299808D01*
Y35200D01*
X299902D01*
Y35106D01*
X299996D01*
Y35012D01*
X300090D01*
Y34918D01*
X300184D01*
Y34824D01*
X300278D01*
Y34730D01*
X300372D01*
Y34636D01*
X300466D01*
Y34542D01*
X300560D01*
Y34448D01*
X300654D01*
Y34354D01*
X300748D01*
Y34260D01*
X300842D01*
Y34166D01*
X300936D01*
Y34072D01*
X301124D01*
Y33978D01*
X301218D01*
Y33884D01*
X301312D01*
Y33790D01*
X301406D01*
Y33696D01*
X301500D01*
Y33602D01*
X301594D01*
Y33508D01*
X301688D01*
Y33414D01*
X301782D01*
Y33320D01*
X301876D01*
Y33226D01*
X301970D01*
Y33132D01*
X302064D01*
Y33038D01*
X302158D01*
Y32944D01*
X302346D01*
Y32850D01*
X302440D01*
Y32756D01*
X302534D01*
Y32662D01*
X302628D01*
Y32568D01*
X302722D01*
Y32474D01*
X302816D01*
Y32380D01*
X302910D01*
Y32286D01*
X303004D01*
Y32192D01*
X303192D01*
Y32098D01*
X303286D01*
Y32004D01*
X303380D01*
Y31910D01*
X303474D01*
Y31816D01*
X303568D01*
Y31722D01*
X303662D01*
Y31628D01*
X303850D01*
Y31534D01*
X303944D01*
Y31440D01*
X304038D01*
Y31346D01*
X304132D01*
Y31252D01*
X304226D01*
Y31158D01*
X304414D01*
Y31064D01*
X304508D01*
Y30970D01*
X304602D01*
Y30876D01*
X304696D01*
Y30782D01*
X304790D01*
Y30688D01*
X304978D01*
Y30594D01*
X305072D01*
Y30500D01*
X305166D01*
Y30406D01*
X305354D01*
Y30312D01*
X305448D01*
Y30218D01*
X305542D01*
Y30124D01*
X305636D01*
Y30030D01*
X305824D01*
Y29936D01*
X305918D01*
Y29842D01*
X306012D01*
Y29748D01*
X306200D01*
Y29654D01*
X306294D01*
Y29560D01*
X306482D01*
Y29466D01*
X306576D01*
Y29372D01*
X306670D01*
Y29278D01*
X306858D01*
Y29184D01*
X306952D01*
Y29090D01*
X307140D01*
Y28996D01*
X307234D01*
Y28902D01*
X307328D01*
Y28808D01*
X307516D01*
Y28714D01*
X307610D01*
Y28620D01*
X307798D01*
Y28526D01*
X307892D01*
Y28432D01*
X308080D01*
Y28338D01*
X308268D01*
Y28244D01*
X308362D01*
Y28150D01*
X308550D01*
Y28056D01*
X308644D01*
Y27962D01*
X308832D01*
Y27868D01*
X309020D01*
Y27774D01*
X309208D01*
Y27680D01*
X309396D01*
Y27586D01*
X309490D01*
Y27492D01*
X309678D01*
Y27398D01*
X309866D01*
Y27304D01*
X309960D01*
Y27210D01*
X310054D01*
Y27116D01*
X310148D01*
Y27022D01*
X310242D01*
Y26928D01*
X310336D01*
Y26834D01*
X310430D01*
Y26646D01*
X310524D01*
Y25800D01*
X310430D01*
Y25518D01*
X310336D01*
Y25330D01*
X310242D01*
Y25236D01*
X310148D01*
Y25142D01*
X310054D01*
Y25048D01*
X309960D01*
Y24954D01*
X309866D01*
Y24860D01*
X309772D01*
Y24766D01*
X309678D01*
Y24672D01*
X309490D01*
Y24578D01*
X309396D01*
Y24484D01*
X309208D01*
Y24390D01*
X309020D01*
Y24296D01*
X308926D01*
Y24202D01*
X308832D01*
Y24108D01*
X308644D01*
Y24014D01*
X308550D01*
Y23920D01*
X308362D01*
Y23826D01*
X308268D01*
Y23732D01*
X308174D01*
Y23638D01*
X307986D01*
Y23544D01*
X307892D01*
Y23450D01*
X307704D01*
Y23356D01*
X307610D01*
Y23262D01*
X307516D01*
Y23168D01*
X307328D01*
Y23074D01*
X307234D01*
Y22980D01*
X307140D01*
Y22886D01*
X306952D01*
Y22792D01*
X306858D01*
Y22698D01*
X306764D01*
Y22604D01*
X306670D01*
Y22510D01*
X306482D01*
Y22416D01*
X306388D01*
Y22322D01*
X306294D01*
Y22228D01*
X306106D01*
Y22134D01*
X306012D01*
Y22040D01*
X305918D01*
Y21946D01*
X305824D01*
Y21852D01*
X305636D01*
Y21758D01*
X305542D01*
Y21664D01*
X305448D01*
Y21570D01*
X305260D01*
Y21476D01*
X305166D01*
Y21382D01*
X305072D01*
Y21288D01*
X304978D01*
Y21194D01*
X304790D01*
Y21100D01*
X304696D01*
Y21006D01*
X304602D01*
Y20912D01*
X304508D01*
Y20818D01*
X304320D01*
Y20724D01*
X304226D01*
Y20630D01*
X304132D01*
Y20536D01*
X304038D01*
Y20442D01*
X303944D01*
Y20348D01*
X303756D01*
Y20254D01*
X303662D01*
Y20160D01*
X303568D01*
Y20066D01*
X303474D01*
Y19972D01*
X303380D01*
Y19878D01*
X303192D01*
Y19784D01*
X303098D01*
Y19690D01*
X303004D01*
Y19596D01*
X302910D01*
Y19502D01*
X302816D01*
Y19408D01*
X302722D01*
Y19314D01*
X302628D01*
Y19220D01*
X302440D01*
Y19126D01*
X302346D01*
Y19032D01*
X302252D01*
Y18938D01*
X302158D01*
Y18844D01*
X302064D01*
Y18750D01*
X301970D01*
Y18656D01*
X301782D01*
Y18562D01*
X301688D01*
Y18468D01*
X301594D01*
Y18374D01*
X301500D01*
Y18280D01*
X301406D01*
Y18186D01*
X301312D01*
Y18092D01*
X301218D01*
Y17998D01*
X301124D01*
Y17904D01*
X300936D01*
Y17810D01*
X300842D01*
Y17716D01*
X300748D01*
Y17622D01*
X300654D01*
Y17528D01*
X300560D01*
Y17434D01*
X300466D01*
Y17339D01*
X300372D01*
Y17246D01*
X300278D01*
Y17152D01*
X300184D01*
Y17057D01*
X300090D01*
Y16963D01*
X299902D01*
Y16870D01*
X299808D01*
Y16775D01*
X299714D01*
Y16681D01*
X299620D01*
Y16588D01*
X299526D01*
Y16493D01*
X299432D01*
Y16399D01*
X299338D01*
Y16306D01*
X299244D01*
Y16211D01*
X299150D01*
Y16117D01*
X299056D01*
Y16024D01*
X298962D01*
Y15929D01*
X298868D01*
Y15835D01*
X298774D01*
Y15742D01*
X298680D01*
Y15647D01*
X298586D01*
Y15553D01*
X298492D01*
Y15460D01*
X298304D01*
Y15365D01*
X298210D01*
Y15271D01*
X298116D01*
Y15178D01*
X298022D01*
Y15084D01*
X297928D01*
Y14989D01*
X297834D01*
Y14895D01*
X297740D01*
Y14801D01*
X297646D01*
Y14707D01*
X297552D01*
Y14613D01*
X297458D01*
Y14519D01*
X297364D01*
Y14425D01*
X297270D01*
Y14331D01*
X297176D01*
Y14237D01*
X297082D01*
Y14143D01*
X296988D01*
Y14049D01*
X296894D01*
Y13955D01*
X296800D01*
Y13861D01*
X296706D01*
Y13767D01*
X296612D01*
Y13673D01*
X296518D01*
Y13579D01*
X296424D01*
Y13485D01*
X296330D01*
Y13391D01*
X296236D01*
Y13297D01*
X296142D01*
Y13203D01*
X296048D01*
Y13109D01*
X295954D01*
Y13015D01*
X295860D01*
Y12827D01*
X295766D01*
Y12733D01*
X295672D01*
Y12639D01*
X295578D01*
Y12545D01*
X295484D01*
Y12451D01*
X295390D01*
Y12357D01*
X295296D01*
Y12263D01*
X295202D01*
Y12169D01*
X295108D01*
Y12075D01*
X295014D01*
Y11981D01*
X294920D01*
Y11887D01*
X294826D01*
Y11793D01*
X294732D01*
Y11699D01*
X294638D01*
Y11605D01*
X294544D01*
Y11511D01*
X294450D01*
Y11323D01*
X294356D01*
Y11229D01*
X294262D01*
Y11135D01*
X294168D01*
Y11041D01*
X294074D01*
Y10947D01*
X293980D01*
Y10853D01*
X293886D01*
Y10759D01*
X293792D01*
Y10665D01*
X293698D01*
Y10571D01*
X293604D01*
Y10477D01*
X293510D01*
Y10289D01*
X293416D01*
Y10195D01*
X293322D01*
Y10101D01*
X293228D01*
Y10007D01*
X293134D01*
Y9913D01*
X293040D01*
Y9819D01*
X292946D01*
Y9725D01*
X292852D01*
Y9537D01*
X292758D01*
Y9443D01*
X292664D01*
Y9349D01*
X292570D01*
Y9255D01*
X292476D01*
Y9161D01*
X292382D01*
Y9067D01*
X292288D01*
Y8879D01*
X292194D01*
Y8785D01*
X292100D01*
Y8691D01*
X292006D01*
Y8597D01*
X291912D01*
Y8503D01*
X291818D01*
Y8409D01*
X291724D01*
Y8221D01*
X291630D01*
Y8127D01*
X291536D01*
Y8033D01*
X291442D01*
Y7939D01*
X291348D01*
Y7845D01*
X291254D01*
Y7657D01*
X291160D01*
Y7563D01*
X291066D01*
Y7469D01*
X290972D01*
Y7375D01*
X290878D01*
Y7187D01*
X290784D01*
Y7093D01*
X290690D01*
Y6999D01*
X290596D01*
Y6905D01*
X290502D01*
Y6717D01*
X290408D01*
Y6623D01*
X290314D01*
Y6529D01*
X290220D01*
Y6435D01*
X290126D01*
Y6247D01*
X290032D01*
Y6153D01*
X289938D01*
Y6059D01*
X289844D01*
Y5871D01*
X289750D01*
Y5777D01*
X289655D01*
Y5683D01*
X289562D01*
Y5495D01*
X289468D01*
Y5401D01*
X289373D01*
Y5307D01*
X289280D01*
Y5119D01*
X289186D01*
Y5025D01*
X289091D01*
Y4931D01*
X288998D01*
Y4743D01*
X288903D01*
Y4649D01*
X288809D01*
Y4555D01*
X288716D01*
Y4367D01*
X288621D01*
Y4273D01*
X288527D01*
Y4179D01*
X288434D01*
Y3991D01*
X288339D01*
Y3897D01*
X288246D01*
Y3709D01*
X288152D01*
Y3615D01*
X288057D01*
Y3521D01*
X287964D01*
Y3333D01*
X287870D01*
Y3239D01*
X287775D01*
Y3145D01*
X287682D01*
Y2957D01*
X287587D01*
Y2863D01*
X287493D01*
Y2769D01*
X287400D01*
Y2675D01*
X287305D01*
Y2581D01*
X287118D01*
Y2487D01*
X286929D01*
Y2393D01*
X286553D01*
Y2299D01*
X286083D01*
Y2393D01*
X285707D01*
Y2487D01*
X285519D01*
Y2581D01*
X285425D01*
Y2675D01*
X285237D01*
Y2769D01*
X285143D01*
Y2863D01*
X285049D01*
Y2957D01*
X284955D01*
Y3145D01*
X284861D01*
Y3239D01*
X284767D01*
Y3333D01*
X284673D01*
Y3427D01*
X284579D01*
Y3615D01*
X284485D01*
Y3709D01*
X284391D01*
Y3803D01*
X284297D01*
Y3991D01*
X284203D01*
Y4085D01*
X284109D01*
Y4273D01*
X284015D01*
Y4367D01*
X283921D01*
Y4555D01*
X283827D01*
Y4649D01*
X283733D01*
Y4743D01*
X283639D01*
Y4931D01*
X283545D01*
Y5025D01*
X283451D01*
Y5119D01*
X283357D01*
Y5307D01*
X283263D01*
Y5401D01*
X283169D01*
Y5495D01*
X283075D01*
Y5683D01*
X282981D01*
Y5777D01*
X282887D01*
Y5871D01*
X282793D01*
Y6059D01*
X282699D01*
Y6153D01*
X282605D01*
Y6247D01*
X282511D01*
Y6341D01*
X282417D01*
Y6529D01*
X282323D01*
Y6623D01*
X282229D01*
Y6717D01*
X282135D01*
Y6905D01*
X282041D01*
Y6999D01*
X281947D01*
Y7093D01*
X281853D01*
Y7187D01*
X281759D01*
Y7375D01*
X281665D01*
Y7469D01*
X281571D01*
Y7563D01*
X281477D01*
Y7657D01*
X281383D01*
Y7845D01*
X281289D01*
Y7939D01*
X281195D01*
Y8033D01*
X281101D01*
Y8127D01*
X281007D01*
Y8315D01*
X280913D01*
Y8409D01*
X280819D01*
Y8503D01*
X280725D01*
Y8597D01*
X280631D01*
Y8785D01*
X280537D01*
Y8879D01*
X280443D01*
Y8973D01*
X280349D01*
Y9067D01*
X280255D01*
Y9161D01*
X280161D01*
Y9349D01*
X280067D01*
Y9443D01*
X279973D01*
Y9537D01*
X279879D01*
Y9631D01*
X279785D01*
Y9725D01*
X279691D01*
Y9913D01*
X279597D01*
Y10007D01*
X279503D01*
Y10101D01*
X279409D01*
Y10195D01*
X279315D01*
Y10289D01*
X279221D01*
Y10477D01*
X279127D01*
Y10571D01*
X279033D01*
Y10665D01*
X278939D01*
Y10759D01*
X278845D01*
Y10853D01*
X278751D01*
Y10947D01*
X278657D01*
Y11135D01*
X278563D01*
Y11229D01*
X278469D01*
Y11323D01*
X278375D01*
Y11417D01*
X278281D01*
Y11511D01*
X278187D01*
Y11605D01*
X278093D01*
Y11699D01*
X277999D01*
Y11793D01*
X277905D01*
Y11981D01*
X277811D01*
Y12075D01*
X277717D01*
Y12169D01*
X277623D01*
Y12263D01*
X277529D01*
Y12357D01*
X277435D01*
Y12451D01*
X277341D01*
Y12545D01*
X277247D01*
Y12639D01*
X277153D01*
Y12733D01*
X277059D01*
Y12921D01*
X276965D01*
Y13015D01*
X276871D01*
Y13109D01*
X276777D01*
Y13203D01*
X276683D01*
Y13297D01*
X276589D01*
Y13391D01*
X276495D01*
Y13485D01*
X276401D01*
Y13579D01*
X276307D01*
Y13673D01*
X276213D01*
Y13767D01*
X276119D01*
Y13861D01*
X276025D01*
Y13955D01*
X275931D01*
Y14049D01*
X275837D01*
Y14143D01*
X275743D01*
Y14237D01*
X275649D01*
Y14331D01*
X275555D01*
Y14519D01*
X275461D01*
Y14613D01*
X275367D01*
Y14707D01*
X275273D01*
Y14801D01*
X275179D01*
Y14895D01*
X275085D01*
Y14989D01*
X274991D01*
Y15084D01*
X274897D01*
Y15178D01*
X274803D01*
Y15271D01*
X274709D01*
Y15365D01*
X274615D01*
Y15460D01*
X274521D01*
Y15553D01*
X274427D01*
Y15647D01*
X274333D01*
Y15742D01*
X274239D01*
Y15835D01*
X274145D01*
Y15929D01*
X274051D01*
Y16024D01*
X273957D01*
Y16117D01*
X273863D01*
Y16211D01*
X273769D01*
Y16306D01*
X273675D01*
Y16399D01*
X273581D01*
Y16493D01*
X273487D01*
Y16588D01*
X273393D01*
Y16681D01*
X273299D01*
Y16775D01*
X273205D01*
Y16870D01*
X273017D01*
Y16963D01*
X272923D01*
Y17057D01*
X272829D01*
Y17152D01*
X272735D01*
Y17246D01*
X272641D01*
Y17339D01*
X272547D01*
Y17434D01*
X272453D01*
Y17528D01*
X272359D01*
Y17622D01*
X272265D01*
Y17716D01*
X272171D01*
Y17810D01*
X272077D01*
Y17904D01*
X271983D01*
Y17998D01*
X271889D01*
Y18092D01*
X271795D01*
Y18186D01*
X271701D01*
Y18280D01*
X271513D01*
Y18374D01*
X271419D01*
Y18468D01*
X271325D01*
Y18562D01*
X271231D01*
Y18656D01*
X271137D01*
Y18750D01*
X271043D01*
Y18844D01*
X270949D01*
Y18938D01*
X270855D01*
Y19032D01*
X270761D01*
Y19126D01*
X270573D01*
Y19220D01*
X270479D01*
Y19314D01*
X270385D01*
Y19408D01*
X270291D01*
Y19502D01*
X270197D01*
Y19596D01*
X270103D01*
Y19690D01*
X269915D01*
Y19784D01*
X269821D01*
Y19878D01*
X269727D01*
Y19972D01*
X269633D01*
Y20066D01*
X269539D01*
Y20160D01*
X269351D01*
Y20254D01*
X269257D01*
Y20348D01*
X269163D01*
Y20442D01*
X269069D01*
Y20536D01*
X268881D01*
Y20630D01*
X268787D01*
Y20724D01*
X268693D01*
Y20818D01*
X268599D01*
Y20912D01*
X268411D01*
Y21006D01*
X268317D01*
Y21100D01*
X268223D01*
Y21194D01*
X268129D01*
Y21288D01*
X267941D01*
Y21382D01*
X267847D01*
Y21476D01*
X267753D01*
Y21570D01*
X267565D01*
Y21664D01*
X267471D01*
Y21758D01*
X267377D01*
Y21852D01*
X267189D01*
Y21946D01*
X267095D01*
Y22040D01*
X266907D01*
Y22134D01*
X266813D01*
Y22228D01*
X266719D01*
Y22322D01*
X266531D01*
Y22416D01*
X266437D01*
Y22510D01*
X266249D01*
Y22604D01*
X266155D01*
Y22698D01*
X265967D01*
Y22792D01*
X265873D01*
Y22886D01*
X265685D01*
Y22980D01*
X265591D01*
Y23074D01*
X265403D01*
Y23168D01*
X265309D01*
Y23262D01*
X265121D01*
Y23356D01*
X265027D01*
Y23450D01*
X264839D01*
Y23544D01*
X264651D01*
Y23638D01*
X264557D01*
Y23732D01*
X264369D01*
Y23826D01*
X264180D01*
Y23920D01*
X264087D01*
Y24014D01*
X263898D01*
Y24108D01*
X263805D01*
Y24202D01*
X263616D01*
Y24296D01*
X263523D01*
Y24390D01*
X263428D01*
Y24484D01*
X263334D01*
Y24578D01*
X263146D01*
Y24672D01*
X263053D01*
Y24766D01*
X262959D01*
Y24860D01*
X262864D01*
Y25048D01*
X262771D01*
Y25142D01*
X262677D01*
Y25236D01*
X262582D01*
Y25424D01*
X262489D01*
Y25612D01*
X262394D01*
Y26646D01*
X262489D01*
Y26928D01*
X262582D01*
Y27116D01*
X262677D01*
Y27210D01*
X262771D01*
Y27304D01*
X262864D01*
Y27398D01*
X262959D01*
Y27492D01*
X263053D01*
Y27586D01*
X263146D01*
Y27680D01*
X263241D01*
Y27774D01*
X263334D01*
Y27868D01*
X263523D01*
Y27962D01*
X263616D01*
Y28056D01*
X263805D01*
Y28150D01*
X263898D01*
Y28244D01*
X264087D01*
Y28338D01*
X264275D01*
Y28432D01*
X264462D01*
Y28526D01*
X264651D01*
Y28620D01*
X264839D01*
Y28714D01*
X264933D01*
Y28808D01*
X265121D01*
Y28902D01*
X265309D01*
Y28996D01*
X265403D01*
Y29090D01*
X265591D01*
Y29184D01*
X265685D01*
Y29278D01*
X265873D01*
Y29372D01*
X265967D01*
Y29466D01*
X266155D01*
Y29560D01*
X266249D01*
Y29654D01*
X266343D01*
Y29748D01*
X266531D01*
Y29842D01*
X266625D01*
Y29936D01*
X266719D01*
Y30030D01*
X266907D01*
Y30124D01*
X267001D01*
Y30218D01*
X267095D01*
Y30312D01*
X267283D01*
Y30406D01*
X267377D01*
Y30500D01*
X267471D01*
Y30594D01*
X267565D01*
Y30688D01*
X267753D01*
Y30782D01*
X267847D01*
Y30876D01*
X267941D01*
Y30970D01*
X268035D01*
Y31064D01*
X268223D01*
Y31158D01*
X268317D01*
Y31252D01*
X268411D01*
Y31346D01*
X268505D01*
Y31440D01*
X268599D01*
Y31534D01*
X268693D01*
Y31628D01*
X268881D01*
Y31722D01*
X268975D01*
Y31816D01*
X269069D01*
Y31910D01*
X269163D01*
Y32004D01*
X269257D01*
Y32098D01*
X269351D01*
Y32192D01*
X269445D01*
Y32286D01*
X269539D01*
Y32380D01*
X269727D01*
Y32474D01*
X269821D01*
Y32568D01*
X269915D01*
Y32662D01*
X270009D01*
Y32756D01*
X270103D01*
Y32850D01*
X270197D01*
Y32944D01*
X270291D01*
Y33038D01*
X270385D01*
Y33132D01*
X270479D01*
Y33226D01*
X270667D01*
Y33320D01*
X270761D01*
Y33414D01*
X270855D01*
Y33508D01*
X270949D01*
Y33602D01*
X271043D01*
Y33696D01*
X271137D01*
Y33790D01*
X271231D01*
Y33884D01*
X271325D01*
Y33978D01*
X271419D01*
Y34072D01*
X271513D01*
Y34166D01*
X271607D01*
Y34260D01*
X271701D01*
Y34354D01*
X271795D01*
Y34448D01*
X271889D01*
Y34542D01*
X271983D01*
Y34636D01*
X272077D01*
Y34730D01*
X272171D01*
Y34824D01*
X272265D01*
Y34918D01*
X272359D01*
Y35012D01*
X272453D01*
Y35106D01*
X272547D01*
Y35200D01*
X272641D01*
Y35294D01*
X272735D01*
Y35388D01*
X272829D01*
Y35482D01*
X273017D01*
Y35576D01*
X273111D01*
Y35670D01*
X273205D01*
Y35764D01*
X273299D01*
Y35858D01*
X273393D01*
Y35952D01*
X273487D01*
Y36046D01*
X273581D01*
Y36140D01*
X273675D01*
Y36234D01*
X273769D01*
Y36328D01*
X273863D01*
Y36422D01*
X273957D01*
Y36516D01*
X274051D01*
Y36610D01*
X274145D01*
Y36704D01*
X274239D01*
Y36798D01*
X274333D01*
Y36892D01*
X274427D01*
Y37080D01*
X274521D01*
Y37174D01*
X274615D01*
Y37268D01*
X274709D01*
Y37362D01*
X274803D01*
Y37456D01*
X274897D01*
Y37550D01*
X274991D01*
Y37644D01*
X275085D01*
Y37738D01*
X275179D01*
Y37832D01*
X275273D01*
Y37926D01*
X275367D01*
Y38020D01*
X275461D01*
Y38114D01*
X275555D01*
Y38208D01*
X275649D01*
Y38302D01*
X275743D01*
Y38396D01*
X275837D01*
Y38490D01*
X275931D01*
Y38584D01*
X276025D01*
Y38678D01*
X276119D01*
Y38772D01*
X276213D01*
Y38866D01*
X276307D01*
Y38960D01*
X276401D01*
Y39054D01*
X276495D01*
Y39148D01*
X276589D01*
Y39242D01*
X276683D01*
Y39336D01*
X276777D01*
Y39430D01*
X276871D01*
Y39524D01*
X276965D01*
Y39618D01*
X277059D01*
Y39807D01*
X277153D01*
Y39900D01*
X277247D01*
Y39994D01*
X277341D01*
Y40088D01*
X277435D01*
Y40183D01*
X277529D01*
Y40277D01*
X277623D01*
Y40371D01*
X277717D01*
Y40464D01*
X277811D01*
Y40558D01*
X277905D01*
Y40652D01*
X277999D01*
Y40747D01*
X278093D01*
Y40841D01*
X278187D01*
Y40935D01*
X278281D01*
Y41122D01*
X278375D01*
Y41216D01*
X278469D01*
Y41311D01*
X278563D01*
Y41405D01*
X278657D01*
Y41499D01*
X278751D01*
Y41592D01*
X278845D01*
Y41686D01*
X278939D01*
Y41780D01*
X279033D01*
Y41875D01*
X279127D01*
Y41969D01*
X279221D01*
Y42063D01*
X279315D01*
Y42250D01*
X279409D01*
Y42344D01*
X279503D01*
Y42439D01*
X279597D01*
Y42533D01*
X279691D01*
Y42627D01*
X279785D01*
Y42721D01*
X279879D01*
Y42815D01*
X279973D01*
Y42909D01*
X280067D01*
Y43003D01*
X280161D01*
Y43191D01*
X280255D01*
Y43285D01*
X280349D01*
Y43379D01*
X280443D01*
Y43473D01*
X280537D01*
Y43567D01*
X280631D01*
Y43661D01*
X280725D01*
Y43755D01*
X280819D01*
Y43849D01*
X280913D01*
Y44037D01*
X281007D01*
Y44131D01*
X281101D01*
Y44225D01*
X281195D01*
Y44319D01*
X281289D01*
Y44413D01*
X281383D01*
Y44507D01*
X281477D01*
Y44601D01*
X281571D01*
Y44789D01*
X281665D01*
Y44883D01*
X281759D01*
Y44977D01*
X281853D01*
Y45071D01*
X281947D01*
Y45165D01*
X282041D01*
Y45259D01*
X282135D01*
Y45353D01*
X282229D01*
Y45541D01*
X282323D01*
Y45635D01*
X282417D01*
Y45729D01*
X282511D01*
Y45823D01*
X282605D01*
Y45917D01*
X282699D01*
Y46105D01*
X282793D01*
Y46199D01*
X282887D01*
Y46293D01*
X282981D01*
Y46387D01*
X283075D01*
Y46481D01*
X283169D01*
Y46669D01*
X283263D01*
Y46763D01*
X283357D01*
Y46857D01*
X283451D01*
Y46951D01*
X283545D01*
Y47139D01*
X283639D01*
Y47233D01*
X283733D01*
Y47327D01*
X283827D01*
Y47515D01*
X283921D01*
Y47609D01*
X284015D01*
Y47797D01*
X284109D01*
Y47891D01*
X284203D01*
Y48079D01*
X284297D01*
Y48173D01*
X284391D01*
Y48361D01*
X284485D01*
Y48549D01*
X284579D01*
Y48643D01*
X284673D01*
Y48737D01*
X284767D01*
Y48925D01*
X284861D01*
Y49019D01*
X284955D01*
Y49113D01*
X285049D01*
Y49207D01*
X285143D01*
Y49301D01*
X285237D01*
Y49395D01*
X285331D01*
Y49489D01*
X285425D01*
Y49583D01*
X285519D01*
Y49677D01*
X285707D01*
Y49771D01*
X286083D01*
Y49865D01*
X286647D01*
Y49771D01*
D02*
G37*
%LPC*%
G36*
X232897Y21148D02*
X232800D01*
Y21050D01*
X232702D01*
Y20658D01*
X232604D01*
Y20364D01*
X232506D01*
Y20071D01*
X232408D01*
Y19777D01*
X232310D01*
Y19385D01*
X232212D01*
Y19091D01*
X232114D01*
Y18895D01*
X233485D01*
Y19189D01*
X233387D01*
Y19483D01*
X233289D01*
Y19875D01*
X233191D01*
Y20168D01*
X233093D01*
Y20462D01*
X232995D01*
Y20756D01*
X232897D01*
Y21148D01*
D02*
G37*
G36*
X208705Y22029D02*
X207432D01*
Y21932D01*
X207138D01*
Y21834D01*
X207040D01*
Y21736D01*
X206942D01*
Y21638D01*
X206844D01*
Y21344D01*
X206747D01*
Y20854D01*
X206844D01*
Y20560D01*
X206942D01*
Y20462D01*
X207040D01*
Y20364D01*
X207138D01*
Y20266D01*
X207236D01*
Y20168D01*
X207530D01*
Y20071D01*
X208705D01*
Y22029D01*
D02*
G37*
G36*
X246414Y13900D02*
X245140D01*
Y13802D01*
X244749D01*
Y13704D01*
X244553D01*
Y13606D01*
X244357D01*
Y13508D01*
X244259D01*
Y13410D01*
X244161D01*
Y13312D01*
X244063D01*
Y13117D01*
X243965D01*
Y12921D01*
X243867D01*
Y12627D01*
X243769D01*
Y11647D01*
X243867D01*
Y11354D01*
X243965D01*
Y11158D01*
X244063D01*
Y10962D01*
X244161D01*
Y10864D01*
X244259D01*
Y10766D01*
X244357D01*
Y10668D01*
X244553D01*
Y10570D01*
X244749D01*
Y10472D01*
X245140D01*
Y10374D01*
X246414D01*
Y13900D01*
D02*
G37*
G36*
X227119D02*
X225748D01*
Y13802D01*
X225454D01*
Y13704D01*
X225356D01*
Y12921D01*
X225454D01*
Y12823D01*
X225552D01*
Y12725D01*
X225748D01*
Y12627D01*
X227119D01*
Y13900D01*
D02*
G37*
G36*
Y12137D02*
X225552D01*
Y12039D01*
X225258D01*
Y11941D01*
X225160D01*
Y11843D01*
X225062D01*
Y11745D01*
X224964D01*
Y11451D01*
Y11354D01*
Y10864D01*
X225062D01*
Y10766D01*
X225160D01*
Y10668D01*
X225258D01*
Y10570D01*
X225356D01*
Y10472D01*
X225650D01*
Y10374D01*
X227119D01*
Y12137D01*
D02*
G37*
G36*
X222907Y13900D02*
X221634D01*
Y13802D01*
X221438D01*
Y13704D01*
X221340D01*
Y13606D01*
X221242D01*
Y13410D01*
X221144D01*
Y12725D01*
X221242D01*
Y12529D01*
X221340D01*
Y12431D01*
X221438D01*
Y12333D01*
X221536D01*
Y12235D01*
X221732D01*
Y12137D01*
X222907D01*
Y13802D01*
Y13900D01*
D02*
G37*
G36*
X217716Y13802D02*
X217618D01*
Y13606D01*
X217520D01*
Y13312D01*
X217422D01*
Y13019D01*
X217324D01*
Y12725D01*
X217227D01*
Y12529D01*
X217128D01*
Y12235D01*
X217031D01*
Y11941D01*
X216933D01*
Y11647D01*
X218402D01*
Y11745D01*
Y11941D01*
X218304D01*
Y12235D01*
X218206D01*
Y12529D01*
X218108D01*
Y12823D01*
X218010D01*
Y13019D01*
X217912D01*
Y13312D01*
X217814D01*
Y13606D01*
X217716D01*
Y13802D01*
D02*
G37*
G36*
X258950Y7534D02*
X257775D01*
Y7436D01*
X257579D01*
Y7338D01*
X257481D01*
Y7240D01*
X257383D01*
Y7142D01*
X257285D01*
Y6946D01*
X257187D01*
Y6358D01*
X257285D01*
Y6163D01*
X257383D01*
Y5967D01*
X257481D01*
Y5869D01*
X257677D01*
Y5771D01*
X257873D01*
Y5673D01*
X258950D01*
Y7534D01*
D02*
G37*
G36*
X235150Y7436D02*
X235052D01*
Y7240D01*
X234954D01*
Y6946D01*
X234856D01*
Y6652D01*
X234758D01*
Y6358D01*
X234660D01*
Y6163D01*
X234562D01*
Y5869D01*
X234465D01*
Y5575D01*
X234367D01*
Y5281D01*
X235836D01*
Y5575D01*
X235738D01*
Y5869D01*
X235640D01*
Y6163D01*
X235542D01*
Y6358D01*
Y6456D01*
X235444D01*
Y6652D01*
X235346D01*
Y6946D01*
X235248D01*
Y7240D01*
X235150D01*
Y7436D01*
D02*
G37*
G36*
X231820Y7534D02*
X230645D01*
Y7436D01*
X230449D01*
Y7338D01*
X230351D01*
Y7240D01*
X230253D01*
Y7142D01*
X230155D01*
Y6946D01*
X230057D01*
Y6358D01*
X230155D01*
Y6163D01*
X230253D01*
Y5967D01*
X230351D01*
Y5869D01*
X230547D01*
Y5771D01*
X230743D01*
Y5673D01*
X231820D01*
Y7534D01*
D02*
G37*
G36*
X220361D02*
X219087D01*
Y7436D01*
X218892D01*
Y7338D01*
X218794D01*
Y7240D01*
X218696D01*
Y7044D01*
X218598D01*
Y6358D01*
X218696D01*
Y6163D01*
X218794D01*
Y6065D01*
X218892D01*
Y5967D01*
X218989D01*
Y5869D01*
X219185D01*
Y5771D01*
X220361D01*
Y7534D01*
D02*
G37*
G36*
X286835Y43661D02*
X285707D01*
Y43567D01*
X285425D01*
Y43473D01*
X285237D01*
Y43379D01*
X285049D01*
Y43285D01*
X284861D01*
Y43191D01*
X284673D01*
Y43097D01*
X284579D01*
Y43003D01*
X284391D01*
Y42909D01*
X284297D01*
Y42815D01*
X284109D01*
Y42721D01*
X283921D01*
Y42627D01*
X283827D01*
Y42533D01*
X283733D01*
Y42439D01*
X283545D01*
Y42344D01*
X283451D01*
Y42250D01*
X283263D01*
Y42156D01*
X283169D01*
Y42063D01*
X283075D01*
Y41969D01*
X282887D01*
Y41875D01*
X282793D01*
Y41780D01*
X282699D01*
Y41686D01*
X282511D01*
Y41592D01*
X282417D01*
Y41499D01*
X282323D01*
Y41405D01*
X282229D01*
Y41311D01*
X282041D01*
Y41216D01*
X281947D01*
Y41122D01*
X281853D01*
Y41028D01*
X281759D01*
Y40935D01*
X281571D01*
Y40841D01*
X281477D01*
Y40747D01*
X281383D01*
Y40652D01*
X281289D01*
Y40558D01*
X281195D01*
Y40464D01*
X281007D01*
Y40371D01*
X280913D01*
Y40277D01*
X280819D01*
Y40183D01*
X280725D01*
Y40088D01*
X280631D01*
Y39994D01*
X280537D01*
Y39900D01*
X280349D01*
Y39807D01*
X280255D01*
Y39712D01*
X280161D01*
Y39618D01*
X280067D01*
Y39524D01*
X279973D01*
Y39430D01*
X279879D01*
Y39336D01*
X279785D01*
Y39242D01*
X279691D01*
Y39148D01*
X279503D01*
Y39054D01*
X279409D01*
Y38960D01*
X279315D01*
Y38866D01*
X279221D01*
Y38772D01*
X279127D01*
Y38678D01*
X279033D01*
Y38584D01*
X278939D01*
Y38490D01*
X278845D01*
Y38396D01*
X278751D01*
Y38302D01*
X278657D01*
Y38208D01*
X278469D01*
Y38114D01*
X278375D01*
Y38020D01*
X278281D01*
Y37926D01*
X278187D01*
Y37832D01*
X278093D01*
Y37738D01*
X277999D01*
Y37644D01*
X277905D01*
Y37550D01*
X277811D01*
Y37456D01*
X277717D01*
Y37362D01*
X277623D01*
Y37268D01*
X277529D01*
Y37174D01*
X277435D01*
Y37080D01*
X277341D01*
Y36986D01*
X277247D01*
Y36892D01*
X277153D01*
Y36798D01*
X277059D01*
Y36704D01*
X276965D01*
Y36610D01*
X276871D01*
Y36516D01*
X276777D01*
Y36422D01*
X276683D01*
Y36328D01*
X276589D01*
Y36234D01*
X276495D01*
Y36140D01*
X276401D01*
Y36046D01*
X276307D01*
Y35952D01*
X276213D01*
Y35858D01*
X276119D01*
Y35764D01*
X276025D01*
Y35670D01*
X275931D01*
Y35576D01*
X275837D01*
Y35482D01*
X275743D01*
Y35388D01*
X275649D01*
Y35294D01*
X275555D01*
Y35200D01*
X275461D01*
Y35106D01*
X275367D01*
Y35012D01*
X275273D01*
Y34918D01*
X275179D01*
Y34824D01*
X275085D01*
Y34730D01*
X274991D01*
Y34636D01*
X274897D01*
Y34542D01*
X274803D01*
Y34448D01*
X274709D01*
Y34354D01*
X274615D01*
Y34260D01*
X274521D01*
Y34166D01*
X274427D01*
Y34072D01*
X274333D01*
Y33978D01*
X274239D01*
Y33884D01*
X274145D01*
Y33790D01*
X274051D01*
Y33696D01*
X273957D01*
Y33602D01*
X273863D01*
Y33508D01*
X273769D01*
Y33320D01*
X273675D01*
Y33226D01*
X273581D01*
Y33132D01*
X273487D01*
Y33038D01*
X273393D01*
Y32944D01*
X273299D01*
Y32850D01*
X273205D01*
Y32756D01*
X273111D01*
Y32662D01*
X273017D01*
Y32568D01*
X272923D01*
Y32474D01*
X272829D01*
Y32286D01*
X272735D01*
Y32192D01*
X272641D01*
Y32098D01*
X272547D01*
Y32004D01*
X272453D01*
Y31910D01*
X272359D01*
Y31816D01*
X272265D01*
Y31722D01*
X272171D01*
Y31534D01*
X272077D01*
Y31440D01*
X271983D01*
Y31346D01*
X271889D01*
Y31252D01*
X271795D01*
Y31158D01*
X271701D01*
Y31064D01*
X271607D01*
Y30876D01*
X271513D01*
Y30782D01*
X271419D01*
Y30688D01*
X271325D01*
Y30594D01*
X271231D01*
Y30500D01*
X271137D01*
Y30312D01*
X271043D01*
Y30218D01*
X270949D01*
Y30124D01*
X270855D01*
Y30030D01*
X270761D01*
Y29842D01*
X270667D01*
Y29748D01*
X270573D01*
Y29654D01*
X270479D01*
Y29466D01*
X270385D01*
Y29372D01*
X270291D01*
Y29278D01*
X270197D01*
Y29090D01*
X270103D01*
Y28996D01*
X270009D01*
Y28902D01*
X269915D01*
Y28714D01*
X269821D01*
Y28620D01*
X269727D01*
Y28432D01*
X269633D01*
Y28338D01*
X269539D01*
Y28150D01*
X269445D01*
Y28056D01*
X269351D01*
Y27868D01*
X269257D01*
Y27680D01*
X269163D01*
Y27586D01*
X269069D01*
Y27398D01*
X268975D01*
Y27210D01*
X268881D01*
Y27022D01*
X268787D01*
Y26834D01*
X268693D01*
Y26552D01*
X268599D01*
Y26270D01*
X268505D01*
Y25518D01*
X268599D01*
Y25142D01*
X268693D01*
Y24954D01*
X268787D01*
Y24766D01*
X268881D01*
Y24578D01*
X268975D01*
Y24390D01*
X269069D01*
Y24202D01*
X269163D01*
Y24014D01*
X269257D01*
Y23920D01*
X269351D01*
Y23732D01*
X269445D01*
Y23544D01*
X269539D01*
Y23450D01*
X269633D01*
Y23262D01*
X269727D01*
Y23168D01*
X269821D01*
Y23074D01*
X269915D01*
Y22886D01*
X270009D01*
Y22792D01*
X270103D01*
Y22698D01*
X270197D01*
Y22510D01*
X270291D01*
Y22416D01*
X270385D01*
Y22322D01*
X270479D01*
Y22134D01*
X270573D01*
Y22040D01*
X270667D01*
Y21946D01*
X270761D01*
Y21852D01*
X270855D01*
Y21664D01*
X270949D01*
Y21570D01*
X271043D01*
Y21476D01*
X271137D01*
Y21382D01*
X271231D01*
Y21288D01*
X271325D01*
Y21100D01*
X271419D01*
Y21006D01*
X271513D01*
Y20912D01*
X271607D01*
Y20818D01*
X271701D01*
Y20724D01*
X271795D01*
Y20630D01*
X271889D01*
Y20442D01*
X271983D01*
Y20348D01*
X272077D01*
Y20254D01*
X272171D01*
Y20160D01*
X272265D01*
Y20066D01*
X272359D01*
Y19972D01*
X272453D01*
Y19878D01*
X272547D01*
Y19784D01*
X272641D01*
Y19690D01*
X272735D01*
Y19502D01*
X272829D01*
Y19408D01*
X272923D01*
Y19314D01*
X273017D01*
Y19220D01*
X273111D01*
Y19126D01*
X273205D01*
Y19032D01*
X273299D01*
Y18938D01*
X273393D01*
Y18844D01*
X273487D01*
Y18750D01*
X273581D01*
Y18656D01*
X273675D01*
Y18562D01*
X273769D01*
Y18468D01*
X273863D01*
Y18374D01*
X273957D01*
Y18280D01*
X274051D01*
Y18186D01*
X274145D01*
Y18092D01*
X274239D01*
Y17998D01*
X274333D01*
Y17904D01*
X274427D01*
Y17810D01*
X274521D01*
Y17716D01*
X274615D01*
Y17622D01*
X274709D01*
Y17528D01*
X274803D01*
Y17434D01*
X274897D01*
Y17339D01*
X274991D01*
Y17246D01*
X275085D01*
Y17152D01*
X275179D01*
Y17057D01*
X275273D01*
Y16963D01*
X275367D01*
Y16870D01*
X275461D01*
Y16775D01*
X275555D01*
Y16681D01*
X275649D01*
Y16588D01*
X275743D01*
Y16493D01*
X275837D01*
Y16399D01*
X275931D01*
Y16306D01*
X276025D01*
Y16211D01*
X276119D01*
Y16117D01*
X276213D01*
Y16024D01*
X276307D01*
Y15929D01*
X276401D01*
Y15835D01*
X276495D01*
Y15742D01*
X276589D01*
Y15647D01*
X276683D01*
Y15553D01*
X276777D01*
Y15460D01*
X276871D01*
Y15365D01*
X276965D01*
Y15271D01*
X277059D01*
Y15178D01*
X277153D01*
Y15084D01*
X277247D01*
Y14989D01*
X277341D01*
Y14895D01*
X277529D01*
Y14801D01*
X277623D01*
Y14707D01*
X277717D01*
Y14613D01*
X277811D01*
Y14519D01*
X277905D01*
Y14425D01*
X277999D01*
Y14331D01*
X278093D01*
Y14237D01*
X278187D01*
Y14143D01*
X278281D01*
Y14049D01*
X278375D01*
Y13955D01*
X278563D01*
Y13861D01*
X278657D01*
Y13767D01*
X278751D01*
Y13673D01*
X278845D01*
Y13579D01*
X278939D01*
Y13485D01*
X279033D01*
Y13391D01*
X279127D01*
Y13297D01*
X279221D01*
Y13203D01*
X279409D01*
Y13109D01*
X279503D01*
Y13015D01*
X279597D01*
Y12921D01*
X279691D01*
Y12827D01*
X279785D01*
Y12733D01*
X279879D01*
Y12639D01*
X279973D01*
Y12545D01*
X280161D01*
Y12451D01*
X280255D01*
Y12357D01*
X280349D01*
Y12263D01*
X280443D01*
Y12169D01*
X280537D01*
Y12075D01*
X280725D01*
Y11981D01*
X280819D01*
Y11887D01*
X280913D01*
Y11793D01*
X281007D01*
Y11699D01*
X281101D01*
Y11605D01*
X281289D01*
Y11511D01*
X281383D01*
Y11417D01*
X281477D01*
Y11323D01*
X281571D01*
Y11229D01*
X281759D01*
Y11135D01*
X281853D01*
Y11041D01*
X281947D01*
Y10947D01*
X282041D01*
Y10853D01*
X282229D01*
Y10759D01*
X282323D01*
Y10665D01*
X282417D01*
Y10571D01*
X282605D01*
Y10477D01*
X282699D01*
Y10383D01*
X282793D01*
Y10289D01*
X282981D01*
Y10195D01*
X283075D01*
Y10101D01*
X283169D01*
Y10007D01*
X283357D01*
Y9913D01*
X283451D01*
Y9819D01*
X283639D01*
Y9725D01*
X283733D01*
Y9631D01*
X283921D01*
Y9537D01*
X284015D01*
Y9443D01*
X284203D01*
Y9349D01*
X284297D01*
Y9255D01*
X284485D01*
Y9161D01*
X284579D01*
Y9067D01*
X284767D01*
Y8973D01*
X284955D01*
Y8879D01*
X285049D01*
Y8785D01*
X285237D01*
Y8691D01*
X285425D01*
Y8597D01*
X285613D01*
Y8503D01*
X285895D01*
Y8409D01*
X286177D01*
Y8315D01*
X287023D01*
Y8409D01*
X287211D01*
Y8503D01*
X287400D01*
Y8597D01*
X287587D01*
Y8691D01*
X287775D01*
Y8785D01*
X287964D01*
Y8879D01*
X288152D01*
Y8973D01*
X288246D01*
Y9067D01*
X288434D01*
Y9161D01*
X288527D01*
Y9255D01*
X288716D01*
Y9349D01*
X288809D01*
Y9443D01*
X288998D01*
Y9537D01*
X289091D01*
Y9631D01*
X289186D01*
Y9725D01*
X289373D01*
Y9819D01*
X289468D01*
Y9913D01*
X289562D01*
Y10007D01*
X289750D01*
Y10101D01*
X289844D01*
Y10195D01*
X289938D01*
Y10289D01*
X290126D01*
Y10383D01*
X290220D01*
Y10477D01*
X290314D01*
Y10571D01*
X290408D01*
Y10665D01*
X290596D01*
Y10759D01*
X290690D01*
Y10853D01*
X290784D01*
Y10947D01*
X290878D01*
Y11041D01*
X291066D01*
Y11135D01*
X291160D01*
Y11229D01*
X291254D01*
Y11323D01*
X291348D01*
Y11417D01*
X291442D01*
Y11511D01*
X291630D01*
Y11605D01*
X291724D01*
Y11699D01*
X291818D01*
Y11793D01*
X291912D01*
Y11887D01*
X292006D01*
Y11981D01*
X292100D01*
Y12075D01*
X292194D01*
Y12169D01*
X292382D01*
Y12263D01*
X292476D01*
Y12357D01*
X292570D01*
Y12451D01*
X292664D01*
Y12545D01*
X292758D01*
Y12639D01*
X292852D01*
Y12733D01*
X293040D01*
Y12827D01*
X293134D01*
Y12921D01*
X293228D01*
Y13015D01*
X293322D01*
Y13109D01*
X293416D01*
Y13203D01*
X293510D01*
Y13297D01*
X293604D01*
Y13391D01*
X293698D01*
Y13485D01*
X293792D01*
Y13579D01*
X293980D01*
Y13673D01*
X294074D01*
Y13767D01*
X294168D01*
Y13861D01*
X294262D01*
Y13955D01*
X294356D01*
Y14049D01*
X294450D01*
Y14143D01*
X294544D01*
Y14237D01*
X294638D01*
Y14331D01*
X294732D01*
Y14425D01*
X294826D01*
Y14519D01*
X294920D01*
Y14613D01*
X295014D01*
Y14707D01*
X295108D01*
Y14801D01*
X295202D01*
Y14895D01*
X295390D01*
Y14989D01*
X295484D01*
Y15084D01*
X295578D01*
Y15178D01*
X295672D01*
Y15271D01*
X295766D01*
Y15365D01*
X295860D01*
Y15460D01*
X295954D01*
Y15553D01*
X296048D01*
Y15647D01*
X296142D01*
Y15742D01*
X296236D01*
Y15835D01*
X296330D01*
Y15929D01*
X296424D01*
Y16024D01*
X296518D01*
Y16117D01*
X296612D01*
Y16211D01*
X296706D01*
Y16306D01*
X296800D01*
Y16399D01*
X296894D01*
Y16493D01*
X296988D01*
Y16588D01*
X297082D01*
Y16681D01*
X297176D01*
Y16775D01*
X297270D01*
Y16870D01*
X297364D01*
Y16963D01*
X297458D01*
Y17057D01*
X297552D01*
Y17152D01*
X297646D01*
Y17246D01*
X297740D01*
Y17339D01*
X297834D01*
Y17434D01*
X297928D01*
Y17528D01*
X298022D01*
Y17622D01*
X298116D01*
Y17716D01*
X298210D01*
Y17810D01*
X298304D01*
Y17904D01*
X298398D01*
Y17998D01*
X298492D01*
Y18092D01*
X298586D01*
Y18186D01*
X298680D01*
Y18280D01*
X298774D01*
Y18374D01*
X298868D01*
Y18468D01*
X298962D01*
Y18562D01*
X299056D01*
Y18656D01*
X299150D01*
Y18844D01*
X299244D01*
Y18938D01*
X299338D01*
Y19032D01*
X299432D01*
Y19126D01*
X299526D01*
Y19220D01*
X299620D01*
Y19314D01*
X299714D01*
Y19408D01*
X299808D01*
Y19502D01*
X299902D01*
Y19596D01*
X299996D01*
Y19690D01*
X300090D01*
Y19784D01*
X300184D01*
Y19878D01*
X300278D01*
Y20066D01*
X300372D01*
Y20160D01*
X300466D01*
Y20254D01*
X300560D01*
Y20348D01*
X300654D01*
Y20442D01*
X300748D01*
Y20536D01*
X300842D01*
Y20630D01*
X300936D01*
Y20818D01*
X301030D01*
Y20912D01*
X301124D01*
Y21006D01*
X301218D01*
Y21100D01*
X301312D01*
Y21194D01*
X301406D01*
Y21382D01*
X301500D01*
Y21476D01*
X301594D01*
Y21570D01*
X301688D01*
Y21664D01*
X301782D01*
Y21852D01*
X301876D01*
Y21946D01*
X301970D01*
Y22040D01*
X302064D01*
Y22134D01*
X302158D01*
Y22322D01*
X302252D01*
Y22416D01*
X302346D01*
Y22510D01*
X302440D01*
Y22698D01*
X302534D01*
Y22792D01*
X302628D01*
Y22980D01*
X302722D01*
Y23074D01*
X302816D01*
Y23262D01*
X302910D01*
Y23356D01*
X303004D01*
Y23450D01*
X303098D01*
Y23638D01*
X303192D01*
Y23826D01*
X303286D01*
Y24014D01*
X303380D01*
Y24108D01*
X303474D01*
Y24296D01*
X303568D01*
Y24484D01*
X303662D01*
Y24672D01*
X303756D01*
Y24954D01*
X303850D01*
Y25142D01*
X303944D01*
Y25518D01*
X304038D01*
Y26270D01*
X303944D01*
Y26740D01*
X303850D01*
Y27022D01*
X303756D01*
Y27210D01*
X303662D01*
Y27398D01*
X303568D01*
Y27586D01*
X303474D01*
Y27774D01*
X303380D01*
Y27962D01*
X303286D01*
Y28150D01*
X303192D01*
Y28338D01*
X303098D01*
Y28432D01*
X303004D01*
Y28620D01*
X302910D01*
Y28808D01*
X302816D01*
Y28902D01*
X302722D01*
Y29090D01*
X302628D01*
Y29184D01*
X302534D01*
Y29372D01*
X302440D01*
Y29466D01*
X302346D01*
Y29654D01*
X302252D01*
Y29748D01*
X302158D01*
Y29842D01*
X302064D01*
Y30030D01*
X301970D01*
Y30124D01*
X301876D01*
Y30218D01*
X301782D01*
Y30406D01*
X301688D01*
Y30500D01*
X301594D01*
Y30594D01*
X301500D01*
Y30782D01*
X301406D01*
Y30876D01*
X301312D01*
Y30970D01*
X301218D01*
Y31064D01*
X301124D01*
Y31252D01*
X301030D01*
Y31346D01*
X300936D01*
Y31440D01*
X300842D01*
Y31534D01*
X300748D01*
Y31722D01*
X300654D01*
Y31816D01*
X300560D01*
Y31910D01*
X300466D01*
Y32004D01*
X300372D01*
Y32098D01*
X300278D01*
Y32192D01*
X300184D01*
Y32380D01*
X300090D01*
Y32474D01*
X299996D01*
Y32568D01*
X299902D01*
Y32662D01*
X299808D01*
Y32756D01*
X299714D01*
Y32850D01*
X299620D01*
Y32944D01*
X299526D01*
Y33038D01*
X299432D01*
Y33226D01*
X299338D01*
Y33320D01*
X299244D01*
Y33414D01*
X299150D01*
Y33508D01*
X299056D01*
Y33602D01*
X298962D01*
Y33696D01*
X298868D01*
Y33790D01*
X298774D01*
Y33884D01*
X298680D01*
Y33978D01*
X298586D01*
Y34072D01*
X298492D01*
Y34166D01*
X298398D01*
Y34354D01*
X298304D01*
Y34448D01*
X298210D01*
Y34542D01*
X298116D01*
Y34636D01*
X298022D01*
Y34730D01*
X297928D01*
Y34824D01*
X297834D01*
Y34918D01*
X297740D01*
Y35012D01*
X297646D01*
Y35106D01*
X297552D01*
Y35200D01*
X297458D01*
Y35294D01*
X297364D01*
Y35388D01*
X297270D01*
Y35482D01*
X297176D01*
Y35576D01*
X297082D01*
Y35670D01*
X296988D01*
Y35764D01*
X296894D01*
Y35858D01*
X296800D01*
Y35952D01*
X296706D01*
Y36046D01*
X296612D01*
Y36140D01*
X296518D01*
Y36234D01*
X296424D01*
Y36328D01*
X296330D01*
Y36422D01*
X296236D01*
Y36516D01*
X296142D01*
Y36610D01*
X296048D01*
Y36704D01*
X295954D01*
Y36798D01*
X295860D01*
Y36892D01*
X295766D01*
Y36986D01*
X295672D01*
Y37080D01*
X295578D01*
Y37174D01*
X295484D01*
Y37268D01*
X295390D01*
Y37362D01*
X295296D01*
Y37456D01*
X295202D01*
Y37550D01*
X295108D01*
Y37644D01*
X294920D01*
Y37738D01*
X294826D01*
Y37832D01*
X294732D01*
Y37926D01*
X294638D01*
Y38020D01*
X294544D01*
Y38114D01*
X294450D01*
Y38208D01*
X294356D01*
Y38302D01*
X294262D01*
Y38396D01*
X294168D01*
Y38490D01*
X294074D01*
Y38584D01*
X293980D01*
Y38678D01*
X293792D01*
Y38772D01*
X293698D01*
Y38866D01*
X293604D01*
Y38960D01*
X293510D01*
Y39054D01*
X293416D01*
Y39148D01*
X293322D01*
Y39242D01*
X293228D01*
Y39336D01*
X293040D01*
Y39430D01*
X292946D01*
Y39524D01*
X292852D01*
Y39618D01*
X292758D01*
Y39712D01*
X292664D01*
Y39807D01*
X292570D01*
Y39900D01*
X292382D01*
Y39994D01*
X292288D01*
Y40088D01*
X292194D01*
Y40183D01*
X292100D01*
Y40277D01*
X292006D01*
Y40371D01*
X291818D01*
Y40464D01*
X291724D01*
Y40558D01*
X291630D01*
Y40652D01*
X291536D01*
Y40747D01*
X291442D01*
Y40841D01*
X291254D01*
Y40935D01*
X291160D01*
Y41028D01*
X291066D01*
Y41122D01*
X290878D01*
Y41216D01*
X290784D01*
Y41311D01*
X290690D01*
Y41405D01*
X290502D01*
Y41499D01*
X290408D01*
Y41592D01*
X290314D01*
Y41686D01*
X290126D01*
Y41780D01*
X290032D01*
Y41875D01*
X289938D01*
Y41969D01*
X289750D01*
Y42063D01*
X289655D01*
Y42156D01*
X289468D01*
Y42250D01*
X289373D01*
Y42344D01*
X289186D01*
Y42439D01*
X289091D01*
Y42533D01*
X288903D01*
Y42627D01*
X288809D01*
Y42721D01*
X288621D01*
Y42815D01*
X288434D01*
Y42909D01*
X288339D01*
Y43003D01*
X288152D01*
Y43097D01*
X287964D01*
Y43191D01*
X287775D01*
Y43285D01*
X287587D01*
Y43379D01*
X287400D01*
Y43473D01*
X287118D01*
Y43567D01*
X286835D01*
Y43661D01*
D02*
G37*
%LPD*%
G36*
X286459Y42627D02*
X286741D01*
Y42533D01*
X287023D01*
Y42439D01*
X287211D01*
Y42344D01*
X287400D01*
Y42250D01*
X287587D01*
Y42156D01*
X287775D01*
Y42063D01*
X287964D01*
Y41969D01*
X288057D01*
Y41875D01*
X288246D01*
Y41780D01*
X288434D01*
Y41686D01*
X288527D01*
Y41592D01*
X288621D01*
Y41499D01*
X288809D01*
Y41405D01*
X288903D01*
Y41311D01*
X289091D01*
Y41216D01*
X289186D01*
Y41122D01*
X289373D01*
Y41028D01*
X289468D01*
Y40935D01*
X289562D01*
Y40841D01*
X289750D01*
Y40747D01*
X289844D01*
Y40652D01*
X289938D01*
Y40558D01*
X290126D01*
Y40464D01*
X290220D01*
Y40371D01*
X290314D01*
Y40277D01*
X290502D01*
Y40183D01*
X290596D01*
Y40088D01*
X290690D01*
Y39994D01*
X290784D01*
Y39900D01*
X290972D01*
Y39807D01*
X291066D01*
Y39712D01*
X291160D01*
Y39618D01*
X291254D01*
Y39524D01*
X291442D01*
Y39430D01*
X291536D01*
Y39336D01*
X291630D01*
Y39242D01*
X291724D01*
Y39148D01*
X291818D01*
Y39054D01*
X291912D01*
Y38960D01*
X292100D01*
Y38866D01*
X292194D01*
Y38772D01*
X292288D01*
Y38678D01*
X292382D01*
Y38584D01*
X292476D01*
Y38490D01*
X292570D01*
Y38396D01*
X292664D01*
Y38302D01*
X292852D01*
Y38208D01*
X292946D01*
Y38114D01*
X293040D01*
Y38020D01*
X293134D01*
Y37926D01*
X293228D01*
Y37832D01*
X293322D01*
Y37738D01*
X293416D01*
Y37644D01*
X293510D01*
Y37550D01*
X293698D01*
Y37456D01*
X293792D01*
Y37362D01*
X293886D01*
Y37268D01*
X293980D01*
Y37174D01*
X294074D01*
Y37080D01*
X294168D01*
Y36986D01*
X294262D01*
Y36892D01*
X294356D01*
Y36798D01*
X294450D01*
Y36704D01*
X294544D01*
Y36610D01*
X294638D01*
Y36516D01*
X294732D01*
Y36422D01*
X294826D01*
Y36328D01*
X294920D01*
Y36234D01*
X295014D01*
Y36140D01*
X295108D01*
Y36046D01*
X295202D01*
Y35952D01*
X295390D01*
Y35858D01*
X295484D01*
Y35764D01*
X295578D01*
Y35670D01*
X295672D01*
Y35576D01*
X295766D01*
Y35482D01*
X295860D01*
Y35388D01*
X295954D01*
Y35294D01*
X296048D01*
Y35200D01*
X296142D01*
Y35106D01*
X296236D01*
Y35012D01*
X296330D01*
Y34918D01*
X296424D01*
Y34824D01*
X296518D01*
Y34730D01*
X296612D01*
Y34636D01*
X296706D01*
Y34542D01*
X296800D01*
Y34448D01*
X296894D01*
Y34260D01*
X296988D01*
Y34166D01*
X297082D01*
Y34072D01*
X297176D01*
Y33978D01*
X297270D01*
Y33884D01*
X297364D01*
Y33790D01*
X297458D01*
Y33696D01*
X297552D01*
Y33602D01*
X297646D01*
Y33508D01*
X297740D01*
Y33414D01*
X297834D01*
Y33320D01*
X297928D01*
Y33226D01*
X298022D01*
Y33132D01*
X298116D01*
Y33038D01*
X298210D01*
Y32944D01*
X298304D01*
Y32850D01*
X298398D01*
Y32662D01*
X298492D01*
Y32568D01*
X298586D01*
Y32474D01*
X298680D01*
Y32380D01*
X298774D01*
Y32286D01*
X298868D01*
Y32192D01*
X298962D01*
Y32098D01*
X299056D01*
Y32004D01*
X299150D01*
Y31816D01*
X299244D01*
Y31722D01*
X299338D01*
Y31628D01*
X299432D01*
Y31534D01*
X299526D01*
Y31440D01*
X299620D01*
Y31346D01*
X299714D01*
Y31158D01*
X299808D01*
Y31064D01*
X299902D01*
Y30970D01*
X299996D01*
Y30876D01*
X300090D01*
Y30782D01*
X300184D01*
Y30594D01*
X300278D01*
Y30500D01*
X300372D01*
Y30406D01*
X300466D01*
Y30312D01*
X300560D01*
Y30124D01*
X300654D01*
Y30030D01*
X300748D01*
Y29936D01*
X300842D01*
Y29842D01*
X300936D01*
Y29654D01*
X301030D01*
Y29560D01*
X301124D01*
Y29466D01*
X301218D01*
Y29278D01*
X301312D01*
Y29184D01*
X301406D01*
Y29090D01*
X301500D01*
Y28902D01*
X301594D01*
Y28808D01*
X301688D01*
Y28620D01*
X301782D01*
Y28526D01*
X301876D01*
Y28338D01*
X301970D01*
Y28244D01*
X302064D01*
Y28056D01*
X302158D01*
Y27962D01*
X302252D01*
Y27774D01*
X302346D01*
Y27586D01*
X302440D01*
Y27398D01*
X302534D01*
Y27304D01*
X302628D01*
Y27116D01*
X302722D01*
Y26834D01*
X302816D01*
Y26646D01*
X302910D01*
Y26364D01*
X303004D01*
Y25518D01*
X302910D01*
Y25236D01*
X302816D01*
Y25048D01*
X302722D01*
Y24860D01*
X302628D01*
Y24672D01*
X302534D01*
Y24484D01*
X302440D01*
Y24390D01*
X302346D01*
Y24202D01*
X302252D01*
Y24014D01*
X302158D01*
Y23920D01*
X302064D01*
Y23732D01*
X301970D01*
Y23638D01*
X301876D01*
Y23450D01*
X301782D01*
Y23356D01*
X301688D01*
Y23262D01*
X301594D01*
Y23074D01*
X301500D01*
Y22980D01*
X301406D01*
Y22886D01*
X301312D01*
Y22698D01*
X301218D01*
Y22604D01*
X301124D01*
Y22510D01*
X301030D01*
Y22416D01*
X300936D01*
Y22228D01*
X300842D01*
Y22134D01*
X300748D01*
Y22040D01*
X300654D01*
Y21946D01*
X300560D01*
Y21852D01*
X300466D01*
Y21664D01*
X300372D01*
Y21570D01*
X300278D01*
Y21476D01*
X300184D01*
Y21382D01*
X300090D01*
Y21288D01*
X299996D01*
Y21194D01*
X299902D01*
Y21006D01*
X299808D01*
Y20912D01*
X299714D01*
Y20818D01*
X299620D01*
Y20724D01*
X299526D01*
Y20630D01*
X299432D01*
Y20536D01*
X299338D01*
Y20442D01*
X299244D01*
Y20348D01*
X299150D01*
Y20160D01*
X299056D01*
Y20066D01*
X298962D01*
Y19972D01*
X298868D01*
Y19878D01*
X298774D01*
Y19784D01*
X298680D01*
Y19690D01*
X298586D01*
Y19596D01*
X298492D01*
Y19502D01*
X298398D01*
Y19408D01*
X298304D01*
Y19314D01*
X298210D01*
Y19220D01*
X298116D01*
Y19126D01*
X298022D01*
Y19032D01*
X297928D01*
Y18938D01*
X297834D01*
Y18844D01*
X297740D01*
Y18750D01*
X297646D01*
Y18562D01*
X297552D01*
Y18468D01*
X297458D01*
Y18374D01*
X297364D01*
Y18280D01*
X297270D01*
Y18186D01*
X297176D01*
Y18092D01*
X297082D01*
Y17998D01*
X296988D01*
Y17904D01*
X296894D01*
Y17810D01*
X296800D01*
Y17716D01*
X296706D01*
Y17622D01*
X296612D01*
Y17528D01*
X296518D01*
Y17434D01*
X296424D01*
Y17339D01*
X296330D01*
Y17246D01*
X296236D01*
Y17152D01*
X296142D01*
Y17057D01*
X296048D01*
Y16963D01*
X295954D01*
Y16870D01*
X295860D01*
Y16775D01*
X295766D01*
Y16681D01*
X295672D01*
Y16588D01*
X295578D01*
Y16493D01*
X295484D01*
Y16399D01*
X295390D01*
Y16306D01*
X295202D01*
Y16211D01*
X295108D01*
Y16117D01*
X295014D01*
Y16024D01*
X294920D01*
Y15929D01*
X294826D01*
Y15835D01*
X294732D01*
Y15742D01*
X294638D01*
Y15647D01*
X294544D01*
Y15553D01*
X294450D01*
Y15460D01*
X294356D01*
Y15365D01*
X294262D01*
Y15271D01*
X294168D01*
Y15178D01*
X294074D01*
Y15084D01*
X293980D01*
Y14989D01*
X293886D01*
Y14895D01*
X293792D01*
Y14801D01*
X293698D01*
Y14707D01*
X293510D01*
Y14613D01*
X293416D01*
Y14519D01*
X293322D01*
Y14425D01*
X293228D01*
Y14331D01*
X293134D01*
Y14237D01*
X293040D01*
Y14143D01*
X292946D01*
Y14049D01*
X292852D01*
Y13955D01*
X292758D01*
Y13861D01*
X292664D01*
Y13767D01*
X292476D01*
Y13673D01*
X292382D01*
Y13579D01*
X292288D01*
Y13485D01*
X292194D01*
Y13391D01*
X292100D01*
Y13297D01*
X292006D01*
Y13203D01*
X291912D01*
Y13109D01*
X291818D01*
Y13015D01*
X291630D01*
Y12921D01*
X291536D01*
Y12827D01*
X291442D01*
Y12733D01*
X291348D01*
Y12639D01*
X291254D01*
Y12545D01*
X291160D01*
Y12451D01*
X290972D01*
Y12357D01*
X290878D01*
Y12263D01*
X290784D01*
Y12169D01*
X290690D01*
Y12075D01*
X290596D01*
Y11981D01*
X290408D01*
Y11887D01*
X290314D01*
Y11793D01*
X290220D01*
Y11699D01*
X290126D01*
Y11605D01*
X289938D01*
Y11511D01*
X289844D01*
Y11417D01*
X289750D01*
Y11323D01*
X289655D01*
Y11229D01*
X289562D01*
Y11135D01*
X289373D01*
Y11041D01*
X289280D01*
Y10947D01*
X289186D01*
Y10853D01*
X288998D01*
Y10759D01*
X288903D01*
Y10665D01*
X288809D01*
Y10571D01*
X288716D01*
Y10477D01*
X288527D01*
Y10383D01*
X288434D01*
Y10289D01*
X288246D01*
Y10195D01*
X288152D01*
Y10101D01*
X288057D01*
Y10007D01*
X287870D01*
Y9913D01*
X287682D01*
Y9819D01*
X287587D01*
Y9725D01*
X287400D01*
Y9631D01*
X287305D01*
Y9537D01*
X287118D01*
Y9443D01*
X286929D01*
Y9349D01*
X286271D01*
Y9443D01*
X285989D01*
Y9537D01*
X285801D01*
Y9631D01*
X285707D01*
Y9725D01*
X285519D01*
Y9819D01*
X285331D01*
Y9913D01*
X285143D01*
Y10007D01*
X285049D01*
Y10101D01*
X284861D01*
Y10195D01*
X284767D01*
Y10289D01*
X284579D01*
Y10383D01*
X284485D01*
Y10477D01*
X284297D01*
Y10571D01*
X284203D01*
Y10665D01*
X284015D01*
Y10759D01*
X283921D01*
Y10853D01*
X283827D01*
Y10947D01*
X283639D01*
Y11041D01*
X283545D01*
Y11135D01*
X283451D01*
Y11229D01*
X283263D01*
Y11323D01*
X283169D01*
Y11417D01*
X283075D01*
Y11511D01*
X282887D01*
Y11605D01*
X282793D01*
Y11699D01*
X282699D01*
Y11793D01*
X282511D01*
Y11887D01*
X282417D01*
Y11981D01*
X282323D01*
Y12075D01*
X282229D01*
Y12169D01*
X282041D01*
Y12263D01*
X281947D01*
Y12357D01*
X281853D01*
Y12451D01*
X281759D01*
Y12545D01*
X281571D01*
Y12639D01*
X281477D01*
Y12733D01*
X281383D01*
Y12827D01*
X281289D01*
Y12921D01*
X281195D01*
Y13015D01*
X281007D01*
Y13109D01*
X280913D01*
Y13203D01*
X280819D01*
Y13297D01*
X280725D01*
Y13391D01*
X280631D01*
Y13485D01*
X280537D01*
Y13579D01*
X280349D01*
Y13673D01*
X280255D01*
Y13767D01*
X280161D01*
Y13861D01*
X280067D01*
Y13955D01*
X279973D01*
Y14049D01*
X279879D01*
Y14143D01*
X279785D01*
Y14237D01*
X279597D01*
Y14331D01*
X279503D01*
Y14425D01*
X279409D01*
Y14519D01*
X279315D01*
Y14613D01*
X279221D01*
Y14707D01*
X279127D01*
Y14801D01*
X279033D01*
Y14895D01*
X278939D01*
Y14989D01*
X278845D01*
Y15084D01*
X278657D01*
Y15178D01*
X278563D01*
Y15271D01*
X278469D01*
Y15365D01*
X278375D01*
Y15460D01*
X278281D01*
Y15553D01*
X278187D01*
Y15647D01*
X278093D01*
Y15742D01*
X277999D01*
Y15835D01*
X277905D01*
Y15929D01*
X277811D01*
Y16024D01*
X277717D01*
Y16117D01*
X277623D01*
Y16211D01*
X277435D01*
Y16306D01*
X277341D01*
Y16399D01*
X277247D01*
Y16493D01*
X277153D01*
Y16588D01*
X277059D01*
Y16681D01*
X276965D01*
Y16775D01*
X276871D01*
Y16870D01*
X276777D01*
Y16963D01*
X276683D01*
Y17057D01*
X276589D01*
Y17152D01*
X276495D01*
Y17246D01*
X276401D01*
Y17339D01*
X276307D01*
Y17434D01*
X276213D01*
Y17528D01*
X276119D01*
Y17622D01*
X276025D01*
Y17716D01*
X275931D01*
Y17810D01*
X275837D01*
Y17904D01*
X275743D01*
Y17998D01*
X275649D01*
Y18092D01*
X275555D01*
Y18186D01*
X275461D01*
Y18280D01*
X275367D01*
Y18374D01*
X275273D01*
Y18468D01*
X275179D01*
Y18562D01*
X275085D01*
Y18656D01*
X274991D01*
Y18750D01*
X274897D01*
Y18844D01*
X274803D01*
Y18938D01*
X274709D01*
Y19032D01*
X274615D01*
Y19126D01*
X274521D01*
Y19220D01*
X274427D01*
Y19314D01*
X274333D01*
Y19408D01*
X274239D01*
Y19502D01*
X274145D01*
Y19596D01*
X274051D01*
Y19784D01*
X273957D01*
Y19878D01*
X273863D01*
Y19972D01*
X273769D01*
Y20066D01*
X273675D01*
Y20160D01*
X273581D01*
Y20254D01*
X273487D01*
Y20348D01*
X273393D01*
Y20442D01*
X273299D01*
Y20536D01*
X273205D01*
Y20630D01*
X273111D01*
Y20724D01*
X273017D01*
Y20912D01*
X272923D01*
Y21006D01*
X272829D01*
Y21100D01*
X272735D01*
Y21194D01*
X272641D01*
Y21288D01*
X272547D01*
Y21382D01*
X272453D01*
Y21476D01*
X272359D01*
Y21664D01*
X272265D01*
Y21758D01*
X272171D01*
Y21852D01*
X272077D01*
Y21946D01*
X271983D01*
Y22040D01*
X271889D01*
Y22134D01*
X271795D01*
Y22322D01*
X271701D01*
Y22416D01*
X271607D01*
Y22510D01*
X271513D01*
Y22604D01*
X271419D01*
Y22792D01*
X271325D01*
Y22886D01*
X271231D01*
Y22980D01*
X271137D01*
Y23074D01*
X271043D01*
Y23262D01*
X270949D01*
Y23356D01*
X270855D01*
Y23450D01*
X270761D01*
Y23638D01*
X270667D01*
Y23732D01*
X270573D01*
Y23920D01*
X270479D01*
Y24014D01*
X270385D01*
Y24108D01*
X270291D01*
Y24296D01*
X270197D01*
Y24390D01*
X270103D01*
Y24578D01*
X270009D01*
Y24766D01*
X269915D01*
Y24954D01*
X269821D01*
Y25048D01*
X269727D01*
Y25330D01*
X269633D01*
Y25612D01*
X269539D01*
Y26176D01*
X269633D01*
Y26458D01*
X269727D01*
Y26646D01*
X269821D01*
Y26834D01*
X269915D01*
Y27022D01*
X270009D01*
Y27210D01*
X270103D01*
Y27304D01*
X270197D01*
Y27492D01*
X270291D01*
Y27586D01*
X270385D01*
Y27774D01*
X270479D01*
Y27868D01*
X270573D01*
Y28056D01*
X270667D01*
Y28150D01*
X270761D01*
Y28338D01*
X270855D01*
Y28432D01*
X270949D01*
Y28526D01*
X271043D01*
Y28714D01*
X271137D01*
Y28808D01*
X271231D01*
Y28902D01*
X271325D01*
Y29090D01*
X271419D01*
Y29184D01*
X271513D01*
Y29278D01*
X271607D01*
Y29372D01*
X271701D01*
Y29560D01*
X271795D01*
Y29654D01*
X271889D01*
Y29748D01*
X271983D01*
Y29842D01*
X272077D01*
Y30030D01*
X272171D01*
Y30124D01*
X272265D01*
Y30218D01*
X272359D01*
Y30312D01*
X272453D01*
Y30406D01*
X272547D01*
Y30594D01*
X272641D01*
Y30688D01*
X272735D01*
Y30782D01*
X272829D01*
Y30876D01*
X272923D01*
Y30970D01*
X273017D01*
Y31064D01*
X273111D01*
Y31252D01*
X273205D01*
Y31346D01*
X273299D01*
Y31440D01*
X273393D01*
Y31534D01*
X273487D01*
Y31628D01*
X273581D01*
Y31722D01*
X273675D01*
Y31816D01*
X273769D01*
Y31910D01*
X273863D01*
Y32098D01*
X273957D01*
Y32192D01*
X274051D01*
Y32286D01*
X274145D01*
Y32380D01*
X274239D01*
Y32474D01*
X274333D01*
Y32568D01*
X274427D01*
Y32662D01*
X274521D01*
Y32756D01*
X274615D01*
Y32850D01*
X274709D01*
Y32944D01*
X274803D01*
Y33038D01*
X274897D01*
Y33132D01*
X274991D01*
Y33226D01*
X275085D01*
Y33414D01*
X275179D01*
Y33508D01*
X275273D01*
Y33602D01*
X275367D01*
Y33696D01*
X275461D01*
Y33790D01*
X275555D01*
Y33884D01*
X275649D01*
Y33978D01*
X275743D01*
Y34072D01*
X275837D01*
Y34166D01*
X275931D01*
Y34260D01*
X276025D01*
Y34354D01*
X276119D01*
Y34448D01*
X276213D01*
Y34542D01*
X276307D01*
Y34636D01*
X276401D01*
Y34730D01*
X276495D01*
Y34824D01*
X276589D01*
Y34918D01*
X276683D01*
Y35012D01*
X276777D01*
Y35106D01*
X276871D01*
Y35200D01*
X276965D01*
Y35294D01*
X277059D01*
Y35388D01*
X277153D01*
Y35482D01*
X277247D01*
Y35576D01*
X277341D01*
Y35670D01*
X277435D01*
Y35764D01*
X277529D01*
Y35858D01*
X277623D01*
Y35952D01*
X277717D01*
Y36046D01*
X277811D01*
Y36140D01*
X277905D01*
Y36234D01*
X277999D01*
Y36328D01*
X278093D01*
Y36422D01*
X278187D01*
Y36516D01*
X278281D01*
Y36610D01*
X278375D01*
Y36704D01*
X278469D01*
Y36798D01*
X278563D01*
Y36892D01*
X278751D01*
Y36986D01*
X278845D01*
Y37080D01*
X278939D01*
Y37174D01*
X279033D01*
Y37268D01*
X279127D01*
Y37362D01*
X279221D01*
Y37456D01*
X279315D01*
Y37550D01*
X279409D01*
Y37644D01*
X279503D01*
Y37738D01*
X279597D01*
Y37832D01*
X279691D01*
Y37926D01*
X279785D01*
Y38020D01*
X279879D01*
Y38114D01*
X280067D01*
Y38208D01*
X280161D01*
Y38302D01*
X280255D01*
Y38396D01*
X280349D01*
Y38490D01*
X280443D01*
Y38584D01*
X280537D01*
Y38678D01*
X280631D01*
Y38772D01*
X280725D01*
Y38866D01*
X280913D01*
Y38960D01*
X281007D01*
Y39054D01*
X281101D01*
Y39148D01*
X281195D01*
Y39242D01*
X281289D01*
Y39336D01*
X281383D01*
Y39430D01*
X281477D01*
Y39524D01*
X281665D01*
Y39618D01*
X281759D01*
Y39712D01*
X281853D01*
Y39807D01*
X281947D01*
Y39900D01*
X282041D01*
Y39994D01*
X282229D01*
Y40088D01*
X282323D01*
Y40183D01*
X282417D01*
Y40277D01*
X282511D01*
Y40371D01*
X282699D01*
Y40464D01*
X282793D01*
Y40558D01*
X282887D01*
Y40652D01*
X282981D01*
Y40747D01*
X283169D01*
Y40841D01*
X283263D01*
Y40935D01*
X283357D01*
Y41028D01*
X283545D01*
Y41122D01*
X283639D01*
Y41216D01*
X283733D01*
Y41311D01*
X283827D01*
Y41405D01*
X284015D01*
Y41499D01*
X284109D01*
Y41592D01*
X284297D01*
Y41686D01*
X284391D01*
Y41780D01*
X284485D01*
Y41875D01*
X284673D01*
Y41969D01*
X284861D01*
Y42063D01*
X284955D01*
Y42156D01*
X285143D01*
Y42250D01*
X285237D01*
Y42344D01*
X285425D01*
Y42439D01*
X285613D01*
Y42533D01*
X285801D01*
Y42627D01*
X286083D01*
Y42721D01*
X286459D01*
Y42627D01*
D02*
G37*
%LPC*%
G36*
X286177Y38772D02*
X286083D01*
Y38490D01*
X285989D01*
Y38208D01*
X285895D01*
Y37926D01*
X285801D01*
Y37644D01*
X285707D01*
Y37362D01*
X285613D01*
Y37080D01*
X285519D01*
Y36798D01*
X285425D01*
Y36516D01*
X285331D01*
Y36234D01*
X285237D01*
Y35952D01*
X285143D01*
Y35670D01*
X285049D01*
Y35388D01*
X284955D01*
Y35106D01*
X284861D01*
Y34824D01*
X284767D01*
Y34542D01*
X284673D01*
Y34260D01*
X284579D01*
Y33978D01*
X284485D01*
Y33696D01*
X284391D01*
Y33414D01*
X284297D01*
Y33132D01*
X284203D01*
Y32850D01*
X284109D01*
Y32568D01*
X284015D01*
Y32192D01*
X283921D01*
Y31910D01*
X283827D01*
Y31628D01*
X283733D01*
Y31346D01*
X283639D01*
Y31252D01*
X285143D01*
Y31158D01*
X285331D01*
Y30124D01*
X285237D01*
Y27022D01*
X285143D01*
Y24390D01*
X285049D01*
Y24014D01*
X285143D01*
Y23920D01*
X287400D01*
Y24014D01*
X287493D01*
Y24672D01*
X287400D01*
Y27962D01*
X287305D01*
Y31158D01*
X287493D01*
Y31252D01*
X289373D01*
Y31440D01*
X289280D01*
Y31628D01*
X289186D01*
Y31816D01*
X289091D01*
Y32098D01*
X288998D01*
Y32286D01*
X288903D01*
Y32474D01*
X288809D01*
Y32756D01*
X288716D01*
Y32944D01*
X288621D01*
Y33226D01*
X288527D01*
Y33414D01*
X288434D01*
Y33602D01*
X288339D01*
Y33884D01*
X288246D01*
Y34072D01*
X288152D01*
Y34260D01*
X288057D01*
Y34542D01*
X287964D01*
Y34730D01*
X287870D01*
Y34918D01*
X287775D01*
Y35200D01*
X287682D01*
Y35388D01*
X287587D01*
Y35670D01*
X287493D01*
Y35858D01*
X287400D01*
Y36046D01*
X287305D01*
Y36328D01*
X287211D01*
Y36516D01*
X287118D01*
Y36704D01*
X287023D01*
Y36986D01*
X286929D01*
Y37174D01*
X286835D01*
Y37362D01*
X286741D01*
Y37644D01*
X286647D01*
Y37832D01*
X286553D01*
Y38020D01*
X286459D01*
Y38302D01*
X286365D01*
Y38490D01*
X286271D01*
Y38678D01*
X286177D01*
Y38772D01*
D02*
G37*
G36*
X280631Y29842D02*
X280255D01*
Y29748D01*
X280067D01*
Y29654D01*
X279785D01*
Y29560D01*
X279503D01*
Y29466D01*
X279221D01*
Y29372D01*
X279033D01*
Y29278D01*
X278845D01*
Y29184D01*
X278563D01*
Y29090D01*
X278375D01*
Y28996D01*
X278187D01*
Y28902D01*
X277999D01*
Y28808D01*
X277811D01*
Y28714D01*
X277623D01*
Y28620D01*
X277529D01*
Y28526D01*
X277341D01*
Y28432D01*
X277153D01*
Y28338D01*
X277059D01*
Y28244D01*
X276965D01*
Y28150D01*
X276777D01*
Y28056D01*
X276683D01*
Y27962D01*
X276589D01*
Y27868D01*
X276495D01*
Y27774D01*
X276401D01*
Y27680D01*
X276307D01*
Y27586D01*
X276213D01*
Y27492D01*
X276119D01*
Y27398D01*
X276025D01*
Y27304D01*
X275931D01*
Y27210D01*
X275837D01*
Y27022D01*
X275743D01*
Y26646D01*
X275649D01*
Y26082D01*
X275743D01*
Y25800D01*
X275837D01*
Y25612D01*
X275931D01*
Y25518D01*
X276025D01*
Y25330D01*
X276119D01*
Y25236D01*
X276213D01*
Y25142D01*
X276307D01*
Y25048D01*
X276401D01*
Y24954D01*
X276495D01*
Y24860D01*
X276683D01*
Y24766D01*
X276777D01*
Y24672D01*
X276871D01*
Y24578D01*
X277059D01*
Y24484D01*
X277247D01*
Y24390D01*
X277341D01*
Y24296D01*
X277529D01*
Y24202D01*
X277717D01*
Y24108D01*
X277905D01*
Y24014D01*
X278093D01*
Y23920D01*
X278281D01*
Y23826D01*
X278469D01*
Y23732D01*
X278657D01*
Y23638D01*
X278939D01*
Y23544D01*
X279127D01*
Y23450D01*
X279409D01*
Y23356D01*
X279597D01*
Y23262D01*
X279879D01*
Y23168D01*
X280161D01*
Y23074D01*
X280537D01*
Y22980D01*
X280913D01*
Y22886D01*
X281289D01*
Y22792D01*
X281759D01*
Y22698D01*
X282323D01*
Y22604D01*
X282981D01*
Y22510D01*
X283733D01*
Y22416D01*
X284767D01*
Y22322D01*
X289091D01*
Y22416D01*
X289750D01*
Y22510D01*
X290314D01*
Y22604D01*
X290784D01*
Y22698D01*
X291160D01*
Y22792D01*
X291536D01*
Y22886D01*
X291818D01*
Y22980D01*
X292100D01*
Y23074D01*
X292288D01*
Y23168D01*
X292570D01*
Y23262D01*
X292758D01*
Y23356D01*
X292946D01*
Y23450D01*
X293134D01*
Y23544D01*
X293322D01*
Y23638D01*
X293510D01*
Y23732D01*
X293698D01*
Y23826D01*
X293886D01*
Y23920D01*
X294074D01*
Y24014D01*
X294168D01*
Y24108D01*
X294356D01*
Y24202D01*
X294450D01*
Y24296D01*
X294638D01*
Y24390D01*
X294732D01*
Y24484D01*
X294826D01*
Y24578D01*
X294920D01*
Y24672D01*
X295014D01*
Y24766D01*
X295108D01*
Y24860D01*
X295202D01*
Y24954D01*
X295296D01*
Y25048D01*
X295390D01*
Y25142D01*
X295484D01*
Y25330D01*
X295578D01*
Y25518D01*
X295672D01*
Y26364D01*
X295578D01*
Y26646D01*
X295484D01*
Y26740D01*
X295390D01*
Y26928D01*
X295296D01*
Y27022D01*
X295202D01*
Y27116D01*
X295108D01*
Y27210D01*
X295014D01*
Y27304D01*
X294826D01*
Y27398D01*
X294732D01*
Y27492D01*
X294638D01*
Y27586D01*
X294450D01*
Y27680D01*
X294356D01*
Y27774D01*
X294168D01*
Y27868D01*
X294074D01*
Y27962D01*
X293886D01*
Y28056D01*
X293980D01*
Y28150D01*
X294262D01*
Y28244D01*
X294544D01*
Y28338D01*
X294356D01*
Y28432D01*
X294074D01*
Y28526D01*
X293698D01*
Y28620D01*
X293416D01*
Y28714D01*
X293040D01*
Y28808D01*
X292758D01*
Y28902D01*
X292382D01*
Y28996D01*
X292100D01*
Y29090D01*
X291724D01*
Y29184D01*
X291442D01*
Y29278D01*
X291066D01*
Y29372D01*
X290690D01*
Y29466D01*
X290408D01*
Y29560D01*
X289938D01*
Y29466D01*
X290032D01*
Y29184D01*
X290126D01*
Y28902D01*
X290220D01*
Y28620D01*
X290314D01*
Y28338D01*
X290408D01*
Y28056D01*
X290502D01*
Y27774D01*
X290972D01*
Y27868D01*
X292288D01*
Y27774D01*
X292476D01*
Y27680D01*
X292570D01*
Y27586D01*
X292758D01*
Y27492D01*
X292946D01*
Y27398D01*
X293040D01*
Y27304D01*
X293134D01*
Y27210D01*
X293228D01*
Y27116D01*
X293416D01*
Y27022D01*
X293510D01*
Y26928D01*
X293604D01*
Y26834D01*
X293698D01*
Y26646D01*
X293792D01*
Y26552D01*
X293886D01*
Y26364D01*
X293980D01*
Y25988D01*
X294074D01*
Y25894D01*
X293980D01*
Y25518D01*
X293886D01*
Y25424D01*
X293792D01*
Y25236D01*
X293698D01*
Y25142D01*
X293604D01*
Y25048D01*
X293510D01*
Y24954D01*
X293416D01*
Y24860D01*
X293228D01*
Y24766D01*
X293134D01*
Y24672D01*
X292946D01*
Y24578D01*
X292852D01*
Y24484D01*
X292664D01*
Y24390D01*
X292382D01*
Y24296D01*
X292194D01*
Y24202D01*
X291912D01*
Y24108D01*
X291536D01*
Y24014D01*
X291254D01*
Y23920D01*
X290878D01*
Y23826D01*
X290408D01*
Y23732D01*
X289938D01*
Y23638D01*
X289373D01*
Y23544D01*
X288809D01*
Y23450D01*
X287870D01*
Y23356D01*
X284579D01*
Y23450D01*
X283827D01*
Y23544D01*
X283263D01*
Y23638D01*
X282887D01*
Y23732D01*
X282511D01*
Y23826D01*
X282229D01*
Y23920D01*
X281947D01*
Y24014D01*
X281759D01*
Y24108D01*
X281477D01*
Y24202D01*
X281289D01*
Y24296D01*
X281101D01*
Y24390D01*
X280913D01*
Y24484D01*
X280725D01*
Y24578D01*
X280537D01*
Y24672D01*
X280443D01*
Y24766D01*
X280255D01*
Y24860D01*
X280161D01*
Y24954D01*
X280067D01*
Y25048D01*
X279973D01*
Y25142D01*
X279879D01*
Y25236D01*
X279785D01*
Y25424D01*
X279691D01*
Y25612D01*
X279597D01*
Y26176D01*
X279691D01*
Y26364D01*
X279785D01*
Y26458D01*
X279879D01*
Y26646D01*
X279973D01*
Y26740D01*
X280067D01*
Y26834D01*
X280161D01*
Y26928D01*
X280349D01*
Y27022D01*
X280443D01*
Y27116D01*
X280537D01*
Y27210D01*
X280725D01*
Y27304D01*
X280819D01*
Y27398D01*
X281007D01*
Y27492D01*
X281195D01*
Y27586D01*
X281383D01*
Y27680D01*
X281571D01*
Y27774D01*
X281759D01*
Y27868D01*
X282041D01*
Y27962D01*
X282229D01*
Y28056D01*
X282511D01*
Y28150D01*
X282699D01*
Y28244D01*
X282981D01*
Y28338D01*
X283075D01*
Y28432D01*
X282887D01*
Y28526D01*
X282699D01*
Y28620D01*
X282511D01*
Y28714D01*
X282417D01*
Y28808D01*
X282229D01*
Y28902D01*
X282041D01*
Y28996D01*
X281947D01*
Y29090D01*
X281759D01*
Y29184D01*
X281571D01*
Y29278D01*
X281477D01*
Y29372D01*
X281289D01*
Y29466D01*
X281101D01*
Y29560D01*
X280913D01*
Y29654D01*
X280819D01*
Y29748D01*
X280631D01*
Y29842D01*
D02*
G37*
G36*
X287587Y21758D02*
X285331D01*
Y21664D01*
X285049D01*
Y20630D01*
X284955D01*
Y19314D01*
X284861D01*
Y18092D01*
X284767D01*
Y16775D01*
X284673D01*
Y15460D01*
X284579D01*
Y14331D01*
X287870D01*
Y15553D01*
X287775D01*
Y17904D01*
X287682D01*
Y20630D01*
X287587D01*
Y21758D01*
D02*
G37*
%LPD*%
D33*
X100630Y59055D02*
D03*
X104095D02*
D03*
D34*
X96457Y58819D02*
D03*
Y55354D02*
D03*
X108268Y58819D02*
D03*
Y55354D02*
D03*
D43*
X335630Y69685D02*
D03*
Y48425D02*
D03*
D50*
X85827Y59055D02*
D03*
D51*
X322835Y19685D02*
D03*
Y98425D02*
D03*
X15748Y59055D02*
D03*
D52*
X341600Y54400D02*
D03*
X154500Y29000D02*
D03*
X148500Y28000D02*
D03*
X112000Y54000D02*
D03*
X104500D02*
D03*
X108500Y51000D02*
D03*
X100500Y53500D02*
D03*
X93000Y54000D02*
D03*
X96500Y51500D02*
D03*
X177500Y53500D02*
D03*
X171000D02*
D03*
X174000Y52500D02*
D03*
X177500Y65000D02*
D03*
X171000D02*
D03*
X174000Y65500D02*
D03*
X282500Y65000D02*
D03*
X276000D02*
D03*
X279000Y65500D02*
D03*
X282500Y53500D02*
D03*
X276000D02*
D03*
X279000Y52500D02*
D03*
X212500Y65000D02*
D03*
X206000D02*
D03*
X209000Y65500D02*
D03*
X206000Y53000D02*
D03*
X213000Y53500D02*
D03*
X209000Y52500D02*
D03*
X151500Y56300D02*
D03*
X153936Y56251D02*
D03*
X156508Y56149D02*
D03*
X159083D02*
D03*
X160492Y53993D02*
D03*
X161061Y51482D02*
D03*
X160981Y48909D02*
D03*
X160157Y46469D02*
D03*
X158592Y44425D02*
D03*
X156441Y43011D02*
D03*
X153894Y42633D02*
D03*
X151355Y43064D02*
D03*
X148853Y42458D02*
D03*
X146383Y43185D02*
D03*
X144278Y44668D02*
D03*
X142821Y46790D02*
D03*
X142133Y49272D02*
D03*
X142089Y51846D02*
D03*
X142670Y54354D02*
D03*
X144517Y56149D02*
D03*
X147092D02*
D03*
X149200Y56100D02*
D03*
X192475Y61476D02*
D03*
X192015Y58943D02*
D03*
X202903Y56730D02*
D03*
X205455Y56385D02*
D03*
X205720Y61725D02*
D03*
X203169Y61380D02*
D03*
X178359Y61725D02*
D03*
X179341Y56538D02*
D03*
X189444Y56973D02*
D03*
X189678Y59537D02*
D03*
X285346Y61380D02*
D03*
X282795Y61725D02*
D03*
X282441Y56385D02*
D03*
X284993Y56730D02*
D03*
X295055Y56973D02*
D03*
X295288Y59537D02*
D03*
X340310Y63694D02*
D03*
X337736D02*
D03*
X335161D02*
D03*
X332586D02*
D03*
X330011D02*
D03*
X327499Y63127D02*
D03*
X325608Y61380D02*
D03*
X323033D02*
D03*
X320480Y61716D02*
D03*
X317908Y61824D02*
D03*
X315333Y61864D02*
D03*
X312760Y61962D02*
D03*
X310186D02*
D03*
X307651Y61510D02*
D03*
X297716Y60790D02*
D03*
X297625Y58217D02*
D03*
X306804Y56586D02*
D03*
X309341Y56149D02*
D03*
X311915Y56214D02*
D03*
X314489Y56149D02*
D03*
X322180Y56730D02*
D03*
X324755D02*
D03*
X327128Y55731D02*
D03*
X329342Y54416D02*
D03*
X331917D02*
D03*
X334492D02*
D03*
X337066D02*
D03*
X339300Y54400D02*
D03*
X233890Y62115D02*
D03*
X231316Y62178D02*
D03*
X228814Y61568D02*
D03*
X226283Y62040D02*
D03*
X223784Y61419D02*
D03*
X221268Y61962D02*
D03*
X218693D02*
D03*
X216119Y61886D02*
D03*
X213549Y61725D02*
D03*
X213985Y56460D02*
D03*
X216541Y56149D02*
D03*
X219116Y56153D02*
D03*
X221691Y56149D02*
D03*
X229343Y56501D02*
D03*
X231854Y55932D02*
D03*
X234429D02*
D03*
X236995Y56150D02*
D03*
X239533Y56582D02*
D03*
X242108D02*
D03*
X244335Y57873D02*
D03*
X244293Y60448D02*
D03*
X236860Y62050D02*
D03*
X84229Y64053D02*
D03*
X82048Y62684D02*
D03*
X80781Y60443D02*
D03*
X80717Y57869D02*
D03*
X81900Y55582D02*
D03*
X84032Y54138D02*
D03*
X86594Y53882D02*
D03*
X88969Y54875D02*
D03*
X90755Y56730D02*
D03*
X93330D02*
D03*
X100884Y56149D02*
D03*
X103458D02*
D03*
X110994Y56730D02*
D03*
X113568D02*
D03*
X116143D02*
D03*
X118718D02*
D03*
X121293D02*
D03*
X123868D02*
D03*
X126443D02*
D03*
X129017D02*
D03*
X131592D02*
D03*
X134162Y56577D02*
D03*
X136732Y56730D02*
D03*
X136857Y54158D02*
D03*
X137439Y51650D02*
D03*
X137528Y49077D02*
D03*
X137987Y46543D02*
D03*
X138986Y44170D02*
D03*
X140466Y42063D02*
D03*
X142328Y40285D02*
D03*
X148668Y36188D02*
D03*
Y33613D02*
D03*
X148689Y31039D02*
D03*
X154481Y31839D02*
D03*
X154337Y34409D02*
D03*
X154481Y36980D02*
D03*
X159117Y39192D02*
D03*
X161243Y40645D02*
D03*
X163044Y42484D02*
D03*
X164428Y44656D02*
D03*
X165292Y47081D02*
D03*
X165665Y49629D02*
D03*
X165711Y52203D02*
D03*
X166292Y54712D02*
D03*
X167891Y56730D02*
D03*
X170443Y56385D02*
D03*
X170863Y61725D02*
D03*
X168312Y61380D02*
D03*
X165737D02*
D03*
X163197Y61804D02*
D03*
X160626Y61939D02*
D03*
X158051Y61962D02*
D03*
X155477D02*
D03*
X147788D02*
D03*
X145213D02*
D03*
X142638D02*
D03*
X140068Y61804D02*
D03*
X137522Y61424D02*
D03*
X134947Y61380D02*
D03*
X132372D02*
D03*
X129798D02*
D03*
X127223D02*
D03*
X124648D02*
D03*
X122073D02*
D03*
X119498D02*
D03*
X116924D02*
D03*
X114349D02*
D03*
X111774D02*
D03*
X109234Y61804D02*
D03*
X106661Y61727D02*
D03*
X104096Y61962D02*
D03*
X101522D02*
D03*
X98948Y61885D02*
D03*
X96374Y61804D02*
D03*
X93835Y61380D02*
D03*
X91260D02*
D03*
X89265Y63008D02*
D03*
X86972Y64179D02*
D03*
X256093Y67158D02*
D03*
X253558Y66708D02*
D03*
X250984Y66647D02*
D03*
X248409D02*
D03*
X246554Y64861D02*
D03*
X246964Y62319D02*
D03*
X259694Y61284D02*
D03*
X262269Y61267D02*
D03*
X264844D02*
D03*
X267411Y61465D02*
D03*
X268235Y59026D02*
D03*
X270155Y57311D02*
D03*
X272664Y56730D02*
D03*
X275215Y56385D02*
D03*
X275900Y61800D02*
D03*
X273570Y61380D02*
D03*
X271760Y63212D02*
D03*
X270328Y65352D02*
D03*
X267978Y66404D02*
D03*
X265493Y67080D02*
D03*
X262919Y67015D02*
D03*
X260346Y67080D02*
D03*
X258300Y67100D02*
D03*
D53*
X133465Y59055D02*
D03*
M02*
