G04*
G04 #@! TF.GenerationSoftware,Altium Limited,Altium Designer,24.9.1 (31)*
G04*
G04 Layer_Color=128*
%FSLAX25Y25*%
%MOIN*%
G70*
G04*
G04 #@! TF.SameCoordinates,21B9ACB0-0D47-4127-AC64-11D31CE697AE*
G04*
G04*
G04 #@! TF.FilePolarity,Positive*
G04*
G01*
G75*
%ADD49C,0.00500*%
D49*
X123327Y59161D02*
X127067D01*
X125197Y57291D02*
Y61032D01*
X176378Y104331D02*
X189764D01*
X183071Y97638D02*
Y111024D01*
X46457Y13780D02*
X59842D01*
X53150Y7087D02*
Y20472D01*
X176378Y13780D02*
X189764D01*
X183071Y7087D02*
Y20472D01*
X46457Y104331D02*
X59842D01*
X53150Y97638D02*
Y111024D01*
X169156Y88000D02*
X170337D01*
X169747Y87409D02*
Y88590D01*
X169078Y85426D02*
X170259D01*
X169669Y84835D02*
Y86017D01*
X178619Y84528D02*
X179800D01*
X179209Y83938D02*
Y85119D01*
X181165Y84144D02*
X182346D01*
X181755Y83554D02*
Y84735D01*
X183341Y82768D02*
X184522D01*
X183931Y82178D02*
Y83359D01*
X184727Y80599D02*
X185908D01*
X185318Y80008D02*
Y81189D01*
X185119Y78054D02*
X186300D01*
X185709Y77463D02*
Y78644D01*
X185119Y75479D02*
X186300D01*
X185709Y74888D02*
Y76070D01*
X185119Y72904D02*
X186300D01*
X185709Y72314D02*
Y73495D01*
X185119Y70329D02*
X186300D01*
X185709Y69739D02*
Y70920D01*
X185119Y67755D02*
X186300D01*
X185709Y67164D02*
Y68345D01*
X184821Y65197D02*
X186002D01*
X185411Y64606D02*
Y65788D01*
X183543Y62962D02*
X184724D01*
X184133Y62371D02*
Y63552D01*
X181457Y61452D02*
X182638D01*
X182048Y60861D02*
Y62042D01*
X178930Y60960D02*
X180111D01*
X179520Y60370D02*
Y61551D01*
X176355Y60960D02*
X177536D01*
X176945Y60370D02*
Y61551D01*
X173780Y60960D02*
X174961D01*
X174371Y60370D02*
Y61551D01*
X171205Y60960D02*
X172387D01*
X171796Y60370D02*
Y61551D01*
X168631Y60960D02*
X169812D01*
X169221Y60370D02*
Y61551D01*
X166056Y60960D02*
X167237D01*
X166646Y60370D02*
Y61551D01*
X163481Y60960D02*
X164662D01*
X164072Y60370D02*
Y61551D01*
X160906Y60960D02*
X162087D01*
X161497Y60370D02*
Y61551D01*
X158331Y60960D02*
X159512D01*
X158922Y60370D02*
Y61551D01*
X155757Y60960D02*
X156938D01*
X156347Y60370D02*
Y61551D01*
X153182Y60960D02*
X154363D01*
X153772Y60370D02*
Y61551D01*
X150607Y60960D02*
X151788D01*
X151198Y60370D02*
Y61551D01*
X148164Y61773D02*
X149345D01*
X148755Y61183D02*
Y62364D01*
X145635Y61288D02*
X146816D01*
X146226Y60697D02*
Y61878D01*
X143093Y61695D02*
X144274D01*
X143683Y61104D02*
Y62285D01*
X140518Y61693D02*
X141699D01*
X141109Y61103D02*
Y62284D01*
X137943Y61695D02*
X139124D01*
X138534Y61104D02*
Y62285D01*
X135369Y61716D02*
X136550D01*
X135959Y61125D02*
Y62306D01*
X132794Y61773D02*
X133976D01*
X133385Y61183D02*
Y62364D01*
X130351Y60960D02*
X131532D01*
X130942Y60370D02*
Y61551D01*
X128229Y62417D02*
X129410D01*
X128819Y61827D02*
Y63008D01*
X126065Y63813D02*
X127246D01*
X126655Y63223D02*
Y64404D01*
X123492Y63909D02*
X124673D01*
X124083Y63318D02*
Y64499D01*
X121232Y62675D02*
X122413D01*
X121823Y62085D02*
Y63266D01*
X119916Y60462D02*
X121097D01*
X120507Y59871D02*
Y61052D01*
X119911Y57887D02*
X121092D01*
X120502Y57296D02*
Y58477D01*
X121215Y55667D02*
X122396D01*
X121806Y55076D02*
Y56257D01*
X123469Y54422D02*
X124650D01*
X124060Y53831D02*
Y55012D01*
X126043Y54500D02*
X127224D01*
X126633Y53910D02*
Y55091D01*
X128213Y55885D02*
X129394D01*
X128804Y55295D02*
Y56476D01*
X130322Y57363D02*
X131503D01*
X130913Y56772D02*
Y57953D01*
X137914Y56628D02*
X139095D01*
X138505Y56038D02*
Y57219D01*
X140489Y56628D02*
X141670D01*
X141079Y56038D02*
Y57219D01*
X143064Y56628D02*
X144245D01*
X143654Y56038D02*
Y57219D01*
X150556Y57363D02*
X151737D01*
X151146Y56772D02*
Y57953D01*
X153130Y57363D02*
X154312D01*
X153721Y56772D02*
Y57953D01*
X155705Y57363D02*
X156886D01*
X156296Y56772D02*
Y57953D01*
X158280Y57363D02*
X159461D01*
X158871Y56772D02*
Y57953D01*
X160855Y57363D02*
X162036D01*
X161445Y56772D02*
Y57953D01*
X163430Y57363D02*
X164611D01*
X164020Y56772D02*
Y57953D01*
X166004Y57363D02*
X167185D01*
X166595Y56772D02*
Y57953D01*
X168579Y57363D02*
X169760D01*
X169170Y56772D02*
Y57953D01*
X171154Y57363D02*
X172335D01*
X171745Y56772D02*
Y57953D01*
X173729Y57363D02*
X174910D01*
X174319Y56772D02*
Y57953D01*
X176304Y57363D02*
X177485D01*
X176894Y56772D02*
Y57953D01*
X178878Y57363D02*
X180060D01*
X179469Y56772D02*
Y57953D01*
X181432Y57691D02*
X182613D01*
X182023Y57100D02*
Y58281D01*
X183817Y58661D02*
X184998D01*
X184408Y58071D02*
Y59252D01*
X185875Y60209D02*
X187056D01*
X186465Y59619D02*
Y60800D01*
X187421Y62268D02*
X188602D01*
X188012Y61677D02*
Y62859D01*
X188390Y64653D02*
X189571D01*
X188981Y64063D02*
Y65244D01*
X188716Y67207D02*
X189897D01*
X189307Y66617D02*
Y67798D01*
X188716Y69782D02*
X189897D01*
X189307Y69192D02*
Y70373D01*
X188716Y72357D02*
X189897D01*
X189307Y71767D02*
Y72948D01*
X188716Y74932D02*
X189897D01*
X189307Y74341D02*
Y75523D01*
X188716Y77507D02*
X189897D01*
X189307Y76916D02*
Y78097D01*
X188566Y80077D02*
X189747D01*
X189156Y79487D02*
Y80668D01*
X187789Y82532D02*
X188970D01*
X188379Y81941D02*
Y83122D01*
X186388Y84692D02*
X187569D01*
X186978Y84102D02*
Y85283D01*
X184494Y86437D02*
X185675D01*
X185084Y85846D02*
Y87027D01*
X182182Y87570D02*
X183363D01*
X182773Y86979D02*
Y88161D01*
X179657Y88075D02*
X180838D01*
X180248Y87484D02*
Y88665D01*
X112045Y83742D02*
X113226D01*
X112636Y83151D02*
Y84332D01*
X109471Y83690D02*
X110652D01*
X110061Y83100D02*
Y84281D01*
X106896Y83742D02*
X108078D01*
X107487Y83151D02*
Y84332D01*
X96803Y82794D02*
X97984D01*
X97393Y82204D02*
Y83385D01*
X96742Y80220D02*
X97923D01*
X97333Y79630D02*
Y80811D01*
X106479Y78702D02*
X107660D01*
X107070Y78112D02*
Y79293D01*
X109054Y78676D02*
X110235D01*
X109644Y78085D02*
Y79266D01*
X111629Y78676D02*
X112810D01*
X112219Y78085D02*
Y79266D01*
X114187Y78965D02*
X115368D01*
X114778Y78374D02*
Y79556D01*
X116736Y78597D02*
X117917D01*
X117326Y78006D02*
Y79187D01*
X119179Y79410D02*
X120360D01*
X119769Y78819D02*
Y80001D01*
X121736Y79109D02*
X122917D01*
X122326Y78518D02*
Y79699D01*
X124309Y79208D02*
X125490D01*
X124899Y78618D02*
Y79799D01*
X125121Y81651D02*
X126302D01*
X125712Y81061D02*
Y82242D01*
X83275Y83742D02*
X84456D01*
X83866Y83151D02*
Y84332D01*
X80701Y83677D02*
X81882D01*
X81292Y83086D02*
Y84267D01*
X78127Y83742D02*
X79308D01*
X78718Y83151D02*
Y84332D01*
X70478Y83007D02*
X71659D01*
X71069Y82417D02*
Y83598D01*
X67923Y82690D02*
X69104D01*
X68513Y82100D02*
Y83281D01*
X65535Y81727D02*
X66716D01*
X66126Y81136D02*
Y82317D01*
X63469Y80190D02*
X64650D01*
X64060Y79599D02*
Y80781D01*
X61916Y78136D02*
X63097D01*
X62507Y77546D02*
Y78727D01*
X60940Y75754D02*
X62121D01*
X61531Y75163D02*
Y76344D01*
X60603Y73201D02*
X61784D01*
X61193Y72610D02*
Y73791D01*
X60603Y70626D02*
X61784D01*
X61193Y70036D02*
Y71217D01*
X60603Y68051D02*
X61784D01*
X61193Y67461D02*
Y68642D01*
X60424Y65483D02*
X61605D01*
X61014Y64892D02*
Y66073D01*
X59287Y63173D02*
X60468D01*
X59878Y62582D02*
Y63763D01*
X57299Y61537D02*
X58480D01*
X57889Y60946D02*
Y62127D01*
X54813Y60866D02*
X55994D01*
X55404Y60275D02*
Y61456D01*
X53382Y63006D02*
X54563D01*
X53973Y62416D02*
Y63597D01*
X50827Y63320D02*
X52008D01*
X51417Y62730D02*
Y63911D01*
X48252Y63320D02*
X49433D01*
X48842Y62730D02*
Y63911D01*
X45677Y63320D02*
X46858D01*
X46268Y62730D02*
Y63911D01*
X43102Y63320D02*
X44283D01*
X43693Y62730D02*
Y63911D01*
X40527Y63320D02*
X41708D01*
X41118Y62730D02*
Y63911D01*
X40243Y54790D02*
X41424D01*
X40833Y54199D02*
Y55380D01*
X42818Y54790D02*
X43999D01*
X43408Y54199D02*
Y55380D01*
X45392Y54790D02*
X46573D01*
X45983Y54199D02*
Y55380D01*
X47967Y54790D02*
X49148D01*
X48558Y54199D02*
Y55380D01*
X50542Y54790D02*
X51723D01*
X51133Y54199D02*
Y55380D01*
X53113Y54924D02*
X54294D01*
X53704Y54334D02*
Y55515D01*
X54205Y57256D02*
X55386D01*
X54795Y56666D02*
Y57847D01*
X56764Y57538D02*
X57945D01*
X57355Y56948D02*
Y58129D01*
X59161Y58480D02*
X60342D01*
X59751Y57889D02*
Y59070D01*
X61252Y59982D02*
X62433D01*
X61842Y59392D02*
Y60573D01*
X62828Y62018D02*
X64009D01*
X63419Y61427D02*
Y62608D01*
X63827Y64391D02*
X65008D01*
X64417Y63801D02*
Y64982D01*
X64202Y66938D02*
X65383D01*
X64792Y66348D02*
Y67529D01*
X64200Y69513D02*
X65381D01*
X64791Y68923D02*
Y70104D01*
X64200Y72088D02*
X65381D01*
X64791Y71497D02*
Y72679D01*
X64342Y74659D02*
X65523D01*
X64933Y74068D02*
Y75249D01*
X65434Y76991D02*
X66615D01*
X66024Y76400D02*
Y77581D01*
X67389Y78666D02*
X68570D01*
X67980Y78075D02*
Y79256D01*
X69862Y79386D02*
X71043D01*
X70452Y78795D02*
Y79976D01*
X72389Y78892D02*
X73570D01*
X72979Y78302D02*
Y79483D01*
X74963Y78892D02*
X76144D01*
X75554Y78302D02*
Y79483D01*
X77533Y78724D02*
X78714D01*
X78123Y78133D02*
Y79314D01*
X80107Y78676D02*
X81288D01*
X80698Y78085D02*
Y79266D01*
X82682Y78676D02*
X83863D01*
X83272Y78085D02*
Y79266D01*
X93659Y81257D02*
X94840D01*
X94249Y80666D02*
Y81848D01*
X137104Y89076D02*
X138285D01*
X137695Y88486D02*
Y89667D01*
X134647Y88306D02*
X135828D01*
X135238Y87716D02*
Y88897D01*
X132075Y88427D02*
X133256D01*
X132666Y87836D02*
Y89017D01*
X129500Y88427D02*
X130682D01*
X130091Y87836D02*
Y89017D01*
X128008Y86329D02*
X129189D01*
X128598Y85738D02*
Y86919D01*
X134641Y84357D02*
X135822D01*
X135232Y83766D02*
Y84947D01*
X137095Y83577D02*
X138276D01*
X137686Y82987D02*
Y84168D01*
X139670Y83577D02*
X140851D01*
X140260Y82987D02*
Y84168D01*
X142230Y83854D02*
X143411D01*
X142820Y83263D02*
Y84444D01*
X149950Y83794D02*
X151131D01*
X150541Y83203D02*
Y84384D01*
X152525Y83794D02*
X153706D01*
X153115Y83203D02*
Y84384D01*
X155100Y83794D02*
X156281D01*
X155690Y83203D02*
Y84384D01*
X165995Y86457D02*
X167176D01*
X166585Y85867D02*
Y87048D01*
X157367Y88403D02*
X158548D01*
X157958Y87813D02*
Y88994D01*
X154833Y88860D02*
X156014D01*
X155424Y88269D02*
Y89450D01*
X152258Y88860D02*
X153439D01*
X152849Y88269D02*
Y89450D01*
X149684Y88809D02*
X150865D01*
X150275Y88219D02*
Y89400D01*
X147112Y88939D02*
X148293D01*
X147703Y88348D02*
Y89529D01*
X144538Y88878D02*
X145720D01*
X145129Y88288D02*
Y89469D01*
X141965Y88977D02*
X143147D01*
X142556Y88386D02*
Y89567D01*
X194291Y94488D02*
X195472D01*
X194882Y93898D02*
Y95079D01*
X194291Y70866D02*
X195472D01*
X194882Y70276D02*
Y71457D01*
X188386Y59055D02*
X189567D01*
X188976Y58464D02*
Y59646D01*
X194291Y47244D02*
X195472D01*
X194882Y46654D02*
Y47835D01*
X188386Y35433D02*
X189567D01*
X188976Y34843D02*
Y36024D01*
X194291Y23622D02*
X195472D01*
X194882Y23031D02*
Y24213D01*
X182480Y70866D02*
X183661D01*
X183071Y70276D02*
Y71457D01*
X182480Y47244D02*
X183661D01*
X183071Y46654D02*
Y47835D01*
X176575Y35433D02*
X177756D01*
X177165Y34843D02*
Y36024D01*
X164764Y106299D02*
X165945D01*
X165354Y105709D02*
Y106890D01*
X170669Y94488D02*
X171850D01*
X171260Y93898D02*
Y95079D01*
X170669Y70866D02*
X171850D01*
X171260Y70276D02*
Y71457D01*
X170669Y47244D02*
X171850D01*
X171260Y46654D02*
Y47835D01*
X164764Y35433D02*
X165945D01*
X165354Y34843D02*
Y36024D01*
X170669Y23622D02*
X171850D01*
X171260Y23031D02*
Y24213D01*
X164764Y11811D02*
X165945D01*
X165354Y11220D02*
Y12402D01*
X152953Y106299D02*
X154134D01*
X153543Y105709D02*
Y106890D01*
X158858Y94488D02*
X160039D01*
X159449Y93898D02*
Y95079D01*
X158858Y70866D02*
X160039D01*
X159449Y70276D02*
Y71457D01*
X158858Y47244D02*
X160039D01*
X159449Y46654D02*
Y47835D01*
X152953Y35433D02*
X154134D01*
X153543Y34843D02*
Y36024D01*
X158858Y23622D02*
X160039D01*
X159449Y23031D02*
Y24213D01*
X152953Y11811D02*
X154134D01*
X153543Y11220D02*
Y12402D01*
X141142Y106299D02*
X142323D01*
X141732Y105709D02*
Y106890D01*
X147047Y94488D02*
X148228D01*
X147638Y93898D02*
Y95079D01*
X147047Y70866D02*
X148228D01*
X147638Y70276D02*
Y71457D01*
X147047Y47244D02*
X148228D01*
X147638Y46654D02*
Y47835D01*
X141142Y35433D02*
X142323D01*
X141732Y34843D02*
Y36024D01*
X147047Y23622D02*
X148228D01*
X147638Y23031D02*
Y24213D01*
X141142Y11811D02*
X142323D01*
X141732Y11220D02*
Y12402D01*
X135236Y94488D02*
X136417D01*
X135827Y93898D02*
Y95079D01*
X135236Y70866D02*
X136417D01*
X135827Y70276D02*
Y71457D01*
X135236Y47244D02*
X136417D01*
X135827Y46654D02*
Y47835D01*
X129331Y35433D02*
X130512D01*
X129921Y34843D02*
Y36024D01*
X135236Y23622D02*
X136417D01*
X135827Y23031D02*
Y24213D01*
X129331Y11811D02*
X130512D01*
X129921Y11220D02*
Y12402D01*
X123425Y70866D02*
X124606D01*
X124016Y70276D02*
Y71457D01*
X117520Y59055D02*
X118701D01*
X118110Y58464D02*
Y59646D01*
X123425Y47244D02*
X124606D01*
X124016Y46654D02*
Y47835D01*
X117520Y35433D02*
X118701D01*
X118110Y34843D02*
Y36024D01*
X123425Y23622D02*
X124606D01*
X124016Y23031D02*
Y24213D01*
X117520Y11811D02*
X118701D01*
X118110Y11220D02*
Y12402D01*
X111614Y94488D02*
X112795D01*
X112205Y93898D02*
Y95079D01*
X111614Y70866D02*
X112795D01*
X112205Y70276D02*
Y71457D01*
X105709Y59055D02*
X106890D01*
X106299Y58464D02*
Y59646D01*
X111614Y47244D02*
X112795D01*
X112205Y46654D02*
Y47835D01*
X105709Y35433D02*
X106890D01*
X106299Y34843D02*
Y36024D01*
X111614Y23622D02*
X112795D01*
X112205Y23031D02*
Y24213D01*
X105709Y11811D02*
X106890D01*
X106299Y11220D02*
Y12402D01*
X99803Y94488D02*
X100984D01*
X100394Y93898D02*
Y95079D01*
X99803Y70866D02*
X100984D01*
X100394Y70276D02*
Y71457D01*
X93898Y59055D02*
X95079D01*
X94488Y58464D02*
Y59646D01*
X99803Y47244D02*
X100984D01*
X100394Y46654D02*
Y47835D01*
X93898Y35433D02*
X95079D01*
X94488Y34843D02*
Y36024D01*
X99803Y23622D02*
X100984D01*
X100394Y23031D02*
Y24213D01*
X93898Y11811D02*
X95079D01*
X94488Y11220D02*
Y12402D01*
X82087Y106299D02*
X83268D01*
X82677Y105709D02*
Y106890D01*
X87992Y94488D02*
X89173D01*
X88583Y93898D02*
Y95079D01*
X87992Y70866D02*
X89173D01*
X88583Y70276D02*
Y71457D01*
X82087Y59055D02*
X83268D01*
X82677Y58464D02*
Y59646D01*
X87992Y47244D02*
X89173D01*
X88583Y46654D02*
Y47835D01*
X82087Y35433D02*
X83268D01*
X82677Y34843D02*
Y36024D01*
X87992Y23622D02*
X89173D01*
X88583Y23031D02*
Y24213D01*
X82087Y11811D02*
X83268D01*
X82677Y11220D02*
Y12402D01*
X70276Y106299D02*
X71457D01*
X70866Y105709D02*
Y106890D01*
X76181Y70866D02*
X77362D01*
X76772Y70276D02*
Y71457D01*
X70276Y59055D02*
X71457D01*
X70866Y58464D02*
Y59646D01*
X76181Y47244D02*
X77362D01*
X76772Y46654D02*
Y47835D01*
X70276Y35433D02*
X71457D01*
X70866Y34843D02*
Y36024D01*
X76181Y23622D02*
X77362D01*
X76772Y23031D02*
Y24213D01*
X70276Y11811D02*
X71457D01*
X70866Y11220D02*
Y12402D01*
X64370Y94488D02*
X65551D01*
X64961Y93898D02*
Y95079D01*
X58464Y82677D02*
X59646D01*
X59055Y82087D02*
Y83268D01*
X64370Y47244D02*
X65551D01*
X64961Y46654D02*
Y47835D01*
X58464Y35433D02*
X59646D01*
X59055Y34843D02*
Y36024D01*
X64370Y23622D02*
X65551D01*
X64961Y23031D02*
Y24213D01*
X46654Y82677D02*
X47835D01*
X47244Y82087D02*
Y83268D01*
X46654Y35433D02*
X47835D01*
X47244Y34843D02*
Y36024D01*
M02*
