G04*
G04 #@! TF.GenerationSoftware,Altium Limited,Altium Designer,24.9.1 (31)*
G04*
G04 Layer_Color=32768*
%FSLAX25Y25*%
%MOIN*%
G70*
G04*
G04 #@! TF.SameCoordinates,21B9ACB0-0D47-4127-AC64-11D31CE697AE*
G04*
G04*
G04 #@! TF.FilePolarity,Positive*
G04*
G01*
G75*
%ADD11C,0.01000*%
D11*
X132153Y80227D02*
Y85226D01*
X131154Y86225D01*
X129154D01*
X128155Y85226D01*
Y80227D01*
X122157Y86225D02*
X126155D01*
X122157Y82227D01*
Y81227D01*
X123156Y80227D01*
X125156D01*
X126155Y81227D01*
X135240Y89326D02*
Y83328D01*
X139239D01*
X141238D02*
X143237D01*
X142238D01*
Y89326D01*
X141238Y88326D01*
X113903Y86940D02*
X119901D01*
Y83941D01*
X118901Y82941D01*
X116902D01*
X115902Y83941D01*
Y86940D01*
Y84940D02*
X113903Y82941D01*
Y80942D02*
Y78942D01*
Y79942D01*
X119901D01*
X118901Y80942D01*
X137377Y103103D02*
Y109101D01*
X134378D01*
X133378Y108102D01*
Y104103D01*
X134378Y103103D01*
X137377D01*
X131379Y109101D02*
X129380D01*
X130379D01*
Y103103D01*
X131379Y104103D01*
X144654Y83595D02*
X143655Y82595D01*
Y80596D01*
X144654Y79596D01*
X148653D01*
X149653Y80596D01*
Y82595D01*
X148653Y83595D01*
X144654Y85594D02*
X143655Y86594D01*
Y88593D01*
X144654Y89593D01*
X145654D01*
X146653Y88593D01*
Y87594D01*
Y88593D01*
X147653Y89593D01*
X148653D01*
X149653Y88593D01*
Y86594D01*
X148653Y85594D01*
X82397Y79209D02*
X83397Y78210D01*
X85396D01*
X86396Y79209D01*
Y83208D01*
X85396Y84208D01*
X83397D01*
X82397Y83208D01*
X76399Y78210D02*
X80398D01*
Y81209D01*
X78399Y80209D01*
X77399D01*
X76399Y81209D01*
Y83208D01*
X77399Y84208D01*
X79398D01*
X80398Y83208D01*
X71214Y78021D02*
X77212D01*
Y82020D01*
Y88018D02*
Y84019D01*
X73213Y88018D01*
X72213D01*
X71214Y87018D01*
Y85019D01*
X72213Y84019D01*
X135196Y81997D02*
X141194D01*
Y78998D01*
X140195Y77999D01*
X138195D01*
X137196Y78998D01*
Y81997D01*
Y79998D02*
X135196Y77999D01*
X141194Y72001D02*
Y75999D01*
X138195D01*
X139195Y74000D01*
Y73000D01*
X138195Y72001D01*
X136196D01*
X135196Y73000D01*
Y75000D01*
X136196Y75999D01*
X154560Y84327D02*
X155559Y83328D01*
X157559D01*
X158558Y84327D01*
Y88326D01*
X157559Y89326D01*
X155559D01*
X154560Y88326D01*
X148562Y89326D02*
X152560D01*
X148562Y85327D01*
Y84327D01*
X149561Y83328D01*
X151561D01*
X152560Y84327D01*
X146534Y62160D02*
Y56162D01*
X143535D01*
X142535Y57162D01*
Y59161D01*
X143535Y60161D01*
X146534D01*
X144534D02*
X142535Y62160D01*
X136537D02*
X140536D01*
X136537Y58162D01*
Y57162D01*
X137537Y56162D01*
X139536D01*
X140536Y57162D01*
X151441Y52431D02*
X145443D01*
Y55430D01*
X146443Y56429D01*
X148442D01*
X149442Y55430D01*
Y52431D01*
Y54430D02*
X151441Y56429D01*
Y61428D02*
X145443D01*
X148442Y58429D01*
Y62428D01*
X137448Y52431D02*
X131450D01*
Y55430D01*
X132449Y56429D01*
X134449D01*
X135449Y55430D01*
Y52431D01*
Y54430D02*
X137448Y56429D01*
X132449Y58429D02*
X131450Y59429D01*
Y61428D01*
X132449Y62428D01*
X133449D01*
X134449Y61428D01*
Y60428D01*
Y61428D01*
X135449Y62428D01*
X136448D01*
X137448Y61428D01*
Y59429D01*
X136448Y58429D01*
X28652Y56056D02*
X30651D01*
X29651D01*
Y61054D01*
X30651Y62054D01*
X31651D01*
X32650Y61054D01*
X26652Y62054D02*
X24653D01*
X25653D01*
Y56056D01*
X26652Y57056D01*
X92792Y76210D02*
X97790D01*
X98790Y77210D01*
Y79209D01*
X97790Y80209D01*
X92792D01*
X93791Y82208D02*
X92792Y83208D01*
Y85207D01*
X93791Y86207D01*
X94791D01*
X95791Y85207D01*
Y84208D01*
Y85207D01*
X96790Y86207D01*
X97790D01*
X98790Y85207D01*
Y83208D01*
X97790Y82208D01*
X165128Y82328D02*
X170126D01*
X171126Y83328D01*
Y85327D01*
X170126Y86327D01*
X165128D01*
X171126Y88326D02*
Y90325D01*
Y89326D01*
X165128D01*
X166128Y88326D01*
X113899Y103103D02*
Y109101D01*
X116898D01*
X117898Y108102D01*
Y106102D01*
X116898Y105103D01*
X113899D01*
X115899D02*
X117898Y103103D01*
X123896Y109101D02*
X121897Y108102D01*
X119897Y106102D01*
Y104103D01*
X120897Y103103D01*
X122896D01*
X123896Y104103D01*
Y105103D01*
X122896Y106102D01*
X119897D01*
X111236Y79209D02*
X112235Y78210D01*
X114235D01*
X115235Y79209D01*
Y83208D01*
X114235Y84208D01*
X112235D01*
X111236Y83208D01*
X106237Y84208D02*
Y78210D01*
X109237Y81209D01*
X105238D01*
M02*
