G04*
G04 #@! TF.GenerationSoftware,Altium Limited,Altium Designer,24.9.1 (31)*
G04*
G04 Layer_Color=32896*
%FSLAX25Y25*%
%MOIN*%
G70*
G04*
G04 #@! TF.SameCoordinates,21B9ACB0-0D47-4127-AC64-11D31CE697AE*
G04*
G04*
G04 #@! TF.FilePolarity,Positive*
G04*
G01*
G75*
%ADD12C,0.00787*%
%ADD14C,0.00602*%
D12*
X168504Y6168D02*
Y10497D01*
X167061Y9054D01*
X165618Y10497D01*
Y6168D01*
X164175D02*
X162732D01*
X163453D01*
Y9054D01*
X164175D01*
X157681D02*
X159845D01*
X160567Y8332D01*
Y6889D01*
X159845Y6168D01*
X157681D01*
X156238Y10497D02*
Y6168D01*
Y8332D01*
X155516Y9054D01*
X154073D01*
X153351Y8332D01*
Y6168D01*
X151187Y9054D02*
X149744D01*
X149022Y8332D01*
Y6168D01*
X151187D01*
X151908Y6889D01*
X151187Y7611D01*
X149022D01*
X145414Y6168D02*
X146857D01*
X147579Y6889D01*
Y8332D01*
X146857Y9054D01*
X145414D01*
X144693Y8332D01*
Y7611D01*
X147579D01*
X143250Y6168D02*
X141806D01*
X142528D01*
Y10497D01*
X143250D01*
X135313D02*
X132426D01*
Y9775D01*
X135313Y6889D01*
Y6168D01*
X132426D01*
X130983Y10497D02*
Y6168D01*
Y8332D01*
X130262Y9054D01*
X128819D01*
X128097Y8332D01*
Y6168D01*
X124489D02*
X125932D01*
X126654Y6889D01*
Y8332D01*
X125932Y9054D01*
X124489D01*
X123768Y8332D01*
Y7611D01*
X126654D01*
X122325Y6168D02*
Y9054D01*
X120160D01*
X119438Y8332D01*
Y6168D01*
X116552Y4724D02*
X115831D01*
X115109Y5446D01*
Y9054D01*
X117274D01*
X117995Y8332D01*
Y6889D01*
X117274Y6168D01*
X115109D01*
X106450D02*
X109337D01*
X106450Y9054D01*
Y9775D01*
X107172Y10497D01*
X108615D01*
X109337Y9775D01*
X105007D02*
X104286Y10497D01*
X102843D01*
X102121Y9775D01*
Y6889D01*
X102843Y6168D01*
X104286D01*
X105007Y6889D01*
Y9775D01*
X97792Y6168D02*
X100678D01*
X97792Y9054D01*
Y9775D01*
X98513Y10497D01*
X99957D01*
X100678Y9775D01*
X93463Y10497D02*
X96349D01*
Y8332D01*
X94906Y9054D01*
X94184D01*
X93463Y8332D01*
Y6889D01*
X94184Y6168D01*
X95627D01*
X96349Y6889D01*
D14*
X152229Y98426D02*
Y101050D01*
X150917Y102362D01*
X149605Y101050D01*
Y98426D01*
Y100394D01*
X152229D01*
X148293Y98426D02*
Y102362D01*
X145669Y98426D01*
Y102362D01*
X144357D02*
X141734D01*
X143045D01*
Y98426D01*
X140422D02*
X139110D01*
X139766D01*
Y102362D01*
X140422Y101706D01*
M02*
