G04*
G04 #@! TF.GenerationSoftware,Altium Limited,Altium Designer,24.9.1 (31)*
G04*
G04 Layer_Color=2752767*
%FSLAX25Y25*%
%MOIN*%
G70*
G04*
G04 #@! TF.SameCoordinates,21B9ACB0-0D47-4127-AC64-11D31CE697AE*
G04*
G04*
G04 #@! TF.FilePolarity,Positive*
G04*
G01*
G75*
%ADD49C,0.00500*%
%ADD50C,0.00667*%
D49*
X123197Y57161D02*
Y61161D01*
X127197D01*
Y57161D01*
X123197D01*
X169747Y86000D02*
X167747Y90000D01*
X171747D01*
X169747Y86000D01*
X169669Y83426D02*
X167669Y87426D01*
X171669D01*
X169669Y83426D01*
X179209Y82528D02*
X177209Y86528D01*
X181209D01*
X179209Y82528D01*
X181755Y82144D02*
X179755Y86144D01*
X183755D01*
X181755Y82144D01*
X183931Y80768D02*
X181931Y84768D01*
X185931D01*
X183931Y80768D01*
X185318Y78599D02*
X183318Y82599D01*
X187318D01*
X185318Y78599D01*
X185709Y76054D02*
X183709Y80054D01*
X187709D01*
X185709Y76054D01*
Y73479D02*
X183709Y77479D01*
X187709D01*
X185709Y73479D01*
Y70904D02*
X183709Y74904D01*
X187709D01*
X185709Y70904D01*
Y68329D02*
X183709Y72329D01*
X187709D01*
X185709Y68329D01*
Y65755D02*
X183709Y69755D01*
X187709D01*
X185709Y65755D01*
X185411Y63197D02*
X183411Y67197D01*
X187411D01*
X185411Y63197D01*
X184133Y60962D02*
X182133Y64962D01*
X186133D01*
X184133Y60962D01*
X182048Y59452D02*
X180048Y63452D01*
X184048D01*
X182048Y59452D01*
X179520Y58960D02*
X177520Y62960D01*
X181520D01*
X179520Y58960D01*
X176945D02*
X174945Y62960D01*
X178946D01*
X176945Y58960D01*
X174371D02*
X172371Y62960D01*
X176371D01*
X174371Y58960D01*
X171796D02*
X169796Y62960D01*
X173796D01*
X171796Y58960D01*
X169221D02*
X167221Y62960D01*
X171221D01*
X169221Y58960D01*
X166646D02*
X164646Y62960D01*
X168646D01*
X166646Y58960D01*
X164072D02*
X162072Y62960D01*
X166071D01*
X164072Y58960D01*
X161497D02*
X159497Y62960D01*
X163497D01*
X161497Y58960D01*
X158922D02*
X156922Y62960D01*
X160922D01*
X158922Y58960D01*
X156347D02*
X154347Y62960D01*
X158347D01*
X156347Y58960D01*
X153772D02*
X151772Y62960D01*
X155772D01*
X153772Y58960D01*
X151198D02*
X149197Y62960D01*
X153198D01*
X151198Y58960D01*
X148755Y59773D02*
X146755Y63773D01*
X150754D01*
X148755Y59773D01*
X146226Y59288D02*
X144226Y63288D01*
X148226D01*
X146226Y59288D01*
X143683Y59694D02*
X141683Y63695D01*
X145683D01*
X143683Y59694D01*
X141109Y59693D02*
X139109Y63693D01*
X143109D01*
X141109Y59693D01*
X138534Y59694D02*
X136534Y63695D01*
X140534D01*
X138534Y59694D01*
X135959Y59716D02*
X133959Y63716D01*
X137959D01*
X135959Y59716D01*
X133385Y59773D02*
X131385Y63773D01*
X135385D01*
X133385Y59773D01*
X130942Y58960D02*
X128942Y62960D01*
X132942D01*
X130942Y58960D01*
X128819Y60417D02*
X126819Y64417D01*
X130819D01*
X128819Y60417D01*
X126655Y61813D02*
X124655Y65813D01*
X128656D01*
X126655Y61813D01*
X124083Y61909D02*
X122082Y65909D01*
X126083D01*
X124083Y61909D01*
X121823Y60675D02*
X119823Y64675D01*
X123822D01*
X121823Y60675D01*
X120507Y58462D02*
X118507Y62462D01*
X122507D01*
X120507Y58462D01*
X120502Y55887D02*
X118502Y59887D01*
X122502D01*
X120502Y55887D01*
X121806Y53667D02*
X119806Y57667D01*
X123806D01*
X121806Y53667D01*
X124060Y52422D02*
X122060Y56422D01*
X126060D01*
X124060Y52422D01*
X126633Y52500D02*
X124633Y56500D01*
X128633D01*
X126633Y52500D01*
X128804Y53885D02*
X126804Y57885D01*
X130804D01*
X128804Y53885D01*
X130913Y55363D02*
X128913Y59363D01*
X132913D01*
X130913Y55363D01*
X138505Y54628D02*
X136505Y58628D01*
X140505D01*
X138505Y54628D01*
X141079D02*
X139079Y58628D01*
X143079D01*
X141079Y54628D01*
X143654D02*
X141654Y58628D01*
X145654D01*
X143654Y54628D01*
X151146Y55363D02*
X149146Y59363D01*
X153146D01*
X151146Y55363D01*
X153721D02*
X151721Y59363D01*
X155721D01*
X153721Y55363D01*
X156296D02*
X154296Y59363D01*
X158296D01*
X156296Y55363D01*
X158871D02*
X156871Y59363D01*
X160871D01*
X158871Y55363D01*
X161445D02*
X159445Y59363D01*
X163445D01*
X161445Y55363D01*
X164020D02*
X162020Y59363D01*
X166020D01*
X164020Y55363D01*
X166595D02*
X164595Y59363D01*
X168595D01*
X166595Y55363D01*
X169170D02*
X167170Y59363D01*
X171170D01*
X169170Y55363D01*
X171745D02*
X169745Y59363D01*
X173745D01*
X171745Y55363D01*
X174319D02*
X172319Y59363D01*
X176319D01*
X174319Y55363D01*
X176894D02*
X174894Y59363D01*
X178894D01*
X176894Y55363D01*
X179469D02*
X177469Y59363D01*
X181469D01*
X179469Y55363D01*
X182023Y55691D02*
X180023Y59691D01*
X184023D01*
X182023Y55691D01*
X184408Y56661D02*
X182408Y60661D01*
X186408D01*
X184408Y56661D01*
X186465Y58209D02*
X184465Y62209D01*
X188465D01*
X186465Y58209D01*
X188012Y60268D02*
X186012Y64268D01*
X190012D01*
X188012Y60268D01*
X188981Y62653D02*
X186981Y66654D01*
X190981D01*
X188981Y62653D01*
X189307Y65207D02*
X187307Y69208D01*
X191307D01*
X189307Y65207D01*
Y67782D02*
X187307Y71782D01*
X191307D01*
X189307Y67782D01*
Y70357D02*
X187307Y74357D01*
X191307D01*
X189307Y70357D01*
Y72932D02*
X187307Y76932D01*
X191307D01*
X189307Y72932D01*
Y75507D02*
X187307Y79507D01*
X191307D01*
X189307Y75507D01*
X189156Y78077D02*
X187156Y82077D01*
X191156D01*
X189156Y78077D01*
X188379Y80532D02*
X186379Y84532D01*
X190379D01*
X188379Y80532D01*
X186978Y82692D02*
X184978Y86692D01*
X188978D01*
X186978Y82692D01*
X185084Y84437D02*
X183084Y88437D01*
X187084D01*
X185084Y84437D01*
X182773Y85570D02*
X180773Y89570D01*
X184773D01*
X182773Y85570D01*
X180248Y86075D02*
X178248Y90075D01*
X182248D01*
X180248Y86075D01*
X112636Y81742D02*
X110635Y85742D01*
X114636D01*
X112636Y81742D01*
X110061Y81690D02*
X108061Y85690D01*
X112061D01*
X110061Y81690D01*
X107487Y81742D02*
X105487Y85742D01*
X109487D01*
X107487Y81742D01*
X97393Y80794D02*
X95393Y84794D01*
X99393D01*
X97393Y80794D01*
X97333Y78220D02*
X95332Y82220D01*
X99332D01*
X97333Y78220D01*
X107070Y76702D02*
X105070Y80702D01*
X109070D01*
X107070Y76702D01*
X109644Y76676D02*
X107644Y80676D01*
X111644D01*
X109644Y76676D01*
X112219D02*
X110219Y80676D01*
X114219D01*
X112219Y76676D01*
X114778Y76965D02*
X112778Y80965D01*
X116778D01*
X114778Y76965D01*
X117326Y76597D02*
X115326Y80597D01*
X119326D01*
X117326Y76597D01*
X119769Y77410D02*
X117769Y81410D01*
X121769D01*
X119769Y77410D01*
X122326Y77109D02*
X120326Y81109D01*
X124326D01*
X122326Y77109D01*
X124899Y77208D02*
X122899Y81208D01*
X126899D01*
X124899Y77208D01*
X125712Y79651D02*
X123712Y83651D01*
X127712D01*
X125712Y79651D01*
X83866Y81742D02*
X81866Y85742D01*
X85866D01*
X83866Y81742D01*
X81292Y81677D02*
X79292Y85677D01*
X83292D01*
X81292Y81677D01*
X78718Y81742D02*
X76718Y85742D01*
X80718D01*
X78718Y81742D01*
X71069Y81007D02*
X69068Y85007D01*
X73068D01*
X71069Y81007D01*
X68513Y80690D02*
X66513Y84690D01*
X70513D01*
X68513Y80690D01*
X66126Y79727D02*
X64126Y83727D01*
X68126D01*
X66126Y79727D01*
X64060Y78190D02*
X62060Y82190D01*
X66060D01*
X64060Y78190D01*
X62507Y76136D02*
X60507Y80136D01*
X64507D01*
X62507Y76136D01*
X61531Y73754D02*
X59531Y77754D01*
X63531D01*
X61531Y73754D01*
X61193Y71201D02*
X59193Y75201D01*
X63193D01*
X61193Y71201D01*
Y68626D02*
X59193Y72626D01*
X63193D01*
X61193Y68626D01*
Y66051D02*
X59193Y70051D01*
X63193D01*
X61193Y66051D01*
X61014Y63483D02*
X59014Y67483D01*
X63014D01*
X61014Y63483D01*
X59878Y61173D02*
X57878Y65173D01*
X61878D01*
X59878Y61173D01*
X57889Y59536D02*
X55889Y63537D01*
X59890D01*
X57889Y59536D01*
X55404Y58866D02*
X53404Y62866D01*
X57404D01*
X55404Y58866D01*
X53973Y61006D02*
X51973Y65006D01*
X55973D01*
X53973Y61006D01*
X51417Y61321D02*
X49417Y65320D01*
X53417D01*
X51417Y61321D01*
X48842D02*
X46842Y65320D01*
X50842D01*
X48842Y61321D01*
X46268D02*
X44267Y65320D01*
X48267D01*
X46268Y61321D01*
X43693D02*
X41693Y65320D01*
X45693D01*
X43693Y61321D01*
X41118D02*
X39118Y65320D01*
X43118D01*
X41118Y61321D01*
X40833Y52790D02*
X38833Y56790D01*
X42833D01*
X40833Y52790D01*
X43408D02*
X41408Y56790D01*
X45408D01*
X43408Y52790D01*
X45983D02*
X43983Y56790D01*
X47983D01*
X45983Y52790D01*
X48558D02*
X46558Y56790D01*
X50558D01*
X48558Y52790D01*
X51133D02*
X49133Y56790D01*
X53133D01*
X51133Y52790D01*
X53704Y52924D02*
X51704Y56924D01*
X55704D01*
X53704Y52924D01*
X54795Y55256D02*
X52795Y59256D01*
X56795D01*
X54795Y55256D01*
X57355Y55538D02*
X55355Y59538D01*
X59355D01*
X57355Y55538D01*
X59751Y56480D02*
X57751Y60480D01*
X61751D01*
X59751Y56480D01*
X61842Y57982D02*
X59842Y61982D01*
X63842D01*
X61842Y57982D01*
X63419Y60018D02*
X61419Y64018D01*
X65419D01*
X63419Y60018D01*
X64417Y62391D02*
X62418Y66391D01*
X66417D01*
X64417Y62391D01*
X64792Y64938D02*
X62792Y68938D01*
X66792D01*
X64792Y64938D01*
X64791Y67513D02*
X62791Y71513D01*
X66791D01*
X64791Y67513D01*
Y70088D02*
X62791Y74088D01*
X66791D01*
X64791Y70088D01*
X64933Y72659D02*
X62933Y76659D01*
X66933D01*
X64933Y72659D01*
X66024Y74991D02*
X64024Y78991D01*
X68024D01*
X66024Y74991D01*
X67980Y76666D02*
X65980Y80666D01*
X69980D01*
X67980Y76666D01*
X70452Y77385D02*
X68452Y81385D01*
X72452D01*
X70452Y77385D01*
X72979Y76892D02*
X70979Y80892D01*
X74979D01*
X72979Y76892D01*
X75554D02*
X73554Y80892D01*
X77554D01*
X75554Y76892D01*
X78123Y76724D02*
X76123Y80724D01*
X80123D01*
X78123Y76724D01*
X80698Y76676D02*
X78698Y80676D01*
X82698D01*
X80698Y76676D01*
X83272D02*
X81272Y80676D01*
X85272D01*
X83272Y76676D01*
X94249Y79257D02*
X92249Y83257D01*
X96249D01*
X94249Y79257D01*
X137695Y87076D02*
X135695Y91076D01*
X139695D01*
X137695Y87076D01*
X135238Y86306D02*
X133238Y90306D01*
X137238D01*
X135238Y86306D01*
X132666Y86427D02*
X130666Y90427D01*
X134666D01*
X132666Y86427D01*
X130091D02*
X128091Y90427D01*
X132091D01*
X130091Y86427D01*
X128598Y84329D02*
X126598Y88329D01*
X130598D01*
X128598Y84329D01*
X135232Y82357D02*
X133232Y86357D01*
X137232D01*
X135232Y82357D01*
X137686Y81577D02*
X135686Y85577D01*
X139685D01*
X137686Y81577D01*
X140260D02*
X138260Y85577D01*
X142260D01*
X140260Y81577D01*
X142820Y81854D02*
X140820Y85854D01*
X144820D01*
X142820Y81854D01*
X150541Y81794D02*
X148541Y85794D01*
X152541D01*
X150541Y81794D01*
X153115D02*
X151115Y85794D01*
X155115D01*
X153115Y81794D01*
X155690D02*
X153690Y85794D01*
X157690D01*
X155690Y81794D01*
X166585Y84457D02*
X164585Y88457D01*
X168585D01*
X166585Y84457D01*
X157958Y86403D02*
X155958Y90403D01*
X159958D01*
X157958Y86403D01*
X155424Y86860D02*
X153424Y90860D01*
X157424D01*
X155424Y86860D01*
X152849D02*
X150849Y90860D01*
X154849D01*
X152849Y86860D01*
X150275Y86809D02*
X148275Y90809D01*
X152275D01*
X150275Y86809D01*
X147703Y86939D02*
X145703Y90939D01*
X149703D01*
X147703Y86939D01*
X145129Y86878D02*
X143129Y90878D01*
X147129D01*
X145129Y86878D01*
X142556Y86976D02*
X140556Y90977D01*
X144556D01*
X142556Y86976D01*
X194882Y92488D02*
X192882Y96488D01*
X196882D01*
X194882Y92488D01*
Y68866D02*
X192882Y72866D01*
X196882D01*
X194882Y68866D01*
X188976Y57055D02*
X186976Y61055D01*
X190976D01*
X188976Y57055D01*
X194882Y45244D02*
X192882Y49244D01*
X196882D01*
X194882Y45244D01*
X188976Y33433D02*
X186976Y37433D01*
X190976D01*
X188976Y33433D01*
X194882Y21622D02*
X192882Y25622D01*
X196882D01*
X194882Y21622D01*
X183071Y68866D02*
X181071Y72866D01*
X185071D01*
X183071Y68866D01*
Y45244D02*
X181071Y49244D01*
X185071D01*
X183071Y45244D01*
X177165Y33433D02*
X175165Y37433D01*
X179165D01*
X177165Y33433D01*
X165354Y104299D02*
X163354Y108299D01*
X167354D01*
X165354Y104299D01*
X171260Y92488D02*
X169260Y96488D01*
X173260D01*
X171260Y92488D01*
Y68866D02*
X169260Y72866D01*
X173260D01*
X171260Y68866D01*
Y45244D02*
X169260Y49244D01*
X173260D01*
X171260Y45244D01*
X165354Y33433D02*
X163354Y37433D01*
X167354D01*
X165354Y33433D01*
X171260Y21622D02*
X169260Y25622D01*
X173260D01*
X171260Y21622D01*
X165354Y9811D02*
X163354Y13811D01*
X167354D01*
X165354Y9811D01*
X153543Y104299D02*
X151543Y108299D01*
X155543D01*
X153543Y104299D01*
X159449Y92488D02*
X157449Y96488D01*
X161449D01*
X159449Y92488D01*
Y68866D02*
X157449Y72866D01*
X161449D01*
X159449Y68866D01*
Y45244D02*
X157449Y49244D01*
X161449D01*
X159449Y45244D01*
X153543Y33433D02*
X151543Y37433D01*
X155543D01*
X153543Y33433D01*
X159449Y21622D02*
X157449Y25622D01*
X161449D01*
X159449Y21622D01*
X153543Y9811D02*
X151543Y13811D01*
X155543D01*
X153543Y9811D01*
X141732Y104299D02*
X139732Y108299D01*
X143732D01*
X141732Y104299D01*
X147638Y92488D02*
X145638Y96488D01*
X149638D01*
X147638Y92488D01*
Y68866D02*
X145638Y72866D01*
X149638D01*
X147638Y68866D01*
Y45244D02*
X145638Y49244D01*
X149638D01*
X147638Y45244D01*
X141732Y33433D02*
X139732Y37433D01*
X143732D01*
X141732Y33433D01*
X147638Y21622D02*
X145638Y25622D01*
X149638D01*
X147638Y21622D01*
X141732Y9811D02*
X139732Y13811D01*
X143732D01*
X141732Y9811D01*
X135827Y92488D02*
X133827Y96488D01*
X137827D01*
X135827Y92488D01*
Y68866D02*
X133827Y72866D01*
X137827D01*
X135827Y68866D01*
Y45244D02*
X133827Y49244D01*
X137827D01*
X135827Y45244D01*
X129921Y33433D02*
X127921Y37433D01*
X131921D01*
X129921Y33433D01*
X135827Y21622D02*
X133827Y25622D01*
X137827D01*
X135827Y21622D01*
X129921Y9811D02*
X127921Y13811D01*
X131921D01*
X129921Y9811D01*
X124016Y68866D02*
X122016Y72866D01*
X126016D01*
X124016Y68866D01*
X118110Y57055D02*
X116110Y61055D01*
X120110D01*
X118110Y57055D01*
X124016Y45244D02*
X122016Y49244D01*
X126016D01*
X124016Y45244D01*
X118110Y33433D02*
X116110Y37433D01*
X120110D01*
X118110Y33433D01*
X124016Y21622D02*
X122016Y25622D01*
X126016D01*
X124016Y21622D01*
X118110Y9811D02*
X116110Y13811D01*
X120110D01*
X118110Y9811D01*
X112205Y92488D02*
X110205Y96488D01*
X114205D01*
X112205Y92488D01*
Y68866D02*
X110205Y72866D01*
X114205D01*
X112205Y68866D01*
X106299Y57055D02*
X104299Y61055D01*
X108299D01*
X106299Y57055D01*
X112205Y45244D02*
X110205Y49244D01*
X114205D01*
X112205Y45244D01*
X106299Y33433D02*
X104299Y37433D01*
X108299D01*
X106299Y33433D01*
X112205Y21622D02*
X110205Y25622D01*
X114205D01*
X112205Y21622D01*
X106299Y9811D02*
X104299Y13811D01*
X108299D01*
X106299Y9811D01*
X100394Y92488D02*
X98394Y96488D01*
X102394D01*
X100394Y92488D01*
Y68866D02*
X98394Y72866D01*
X102394D01*
X100394Y68866D01*
X94488Y57055D02*
X92488Y61055D01*
X96488D01*
X94488Y57055D01*
X100394Y45244D02*
X98394Y49244D01*
X102394D01*
X100394Y45244D01*
X94488Y33433D02*
X92488Y37433D01*
X96488D01*
X94488Y33433D01*
X100394Y21622D02*
X98394Y25622D01*
X102394D01*
X100394Y21622D01*
X94488Y9811D02*
X92488Y13811D01*
X96488D01*
X94488Y9811D01*
X82677Y104299D02*
X80677Y108299D01*
X84677D01*
X82677Y104299D01*
X88583Y92488D02*
X86583Y96488D01*
X90583D01*
X88583Y92488D01*
Y68866D02*
X86583Y72866D01*
X90583D01*
X88583Y68866D01*
X82677Y57055D02*
X80677Y61055D01*
X84677D01*
X82677Y57055D01*
X88583Y45244D02*
X86583Y49244D01*
X90583D01*
X88583Y45244D01*
X82677Y33433D02*
X80677Y37433D01*
X84677D01*
X82677Y33433D01*
X88583Y21622D02*
X86583Y25622D01*
X90583D01*
X88583Y21622D01*
X82677Y9811D02*
X80677Y13811D01*
X84677D01*
X82677Y9811D01*
X70866Y104299D02*
X68866Y108299D01*
X72866D01*
X70866Y104299D01*
X76772Y68866D02*
X74772Y72866D01*
X78772D01*
X76772Y68866D01*
X70866Y57055D02*
X68866Y61055D01*
X72866D01*
X70866Y57055D01*
X76772Y45244D02*
X74772Y49244D01*
X78772D01*
X76772Y45244D01*
X70866Y33433D02*
X68866Y37433D01*
X72866D01*
X70866Y33433D01*
X76772Y21622D02*
X74772Y25622D01*
X78772D01*
X76772Y21622D01*
X70866Y9811D02*
X68866Y13811D01*
X72866D01*
X70866Y9811D01*
X64961Y92488D02*
X62961Y96488D01*
X66961D01*
X64961Y92488D01*
X59055Y80677D02*
X57055Y84677D01*
X61055D01*
X59055Y80677D01*
X64961Y45244D02*
X62961Y49244D01*
X66961D01*
X64961Y45244D01*
X59055Y33433D02*
X57055Y37433D01*
X61055D01*
X59055Y33433D01*
X64961Y21622D02*
X62961Y25622D01*
X66961D01*
X64961Y21622D01*
X47244Y80677D02*
X45244Y84677D01*
X49244D01*
X47244Y80677D01*
Y33433D02*
X45244Y37433D01*
X49244D01*
X47244Y33433D01*
D50*
X185071Y104331D02*
G03*
X185071Y104331I-2000J0D01*
G01*
X55150Y13780D02*
G03*
X55150Y13780I-2000J0D01*
G01*
X185071D02*
G03*
X185071Y13780I-2000J0D01*
G01*
X55150Y104331D02*
G03*
X55150Y104331I-2000J0D01*
G01*
M02*
