G04*
G04 #@! TF.GenerationSoftware,Altium Limited,Altium Designer,24.9.1 (31)*
G04*
G04 Layer_Physical_Order=1*
G04 Layer_Color=255*
%FSLAX25Y25*%
%MOIN*%
G70*
G04*
G04 #@! TF.SameCoordinates,21B9ACB0-0D47-4127-AC64-11D31CE697AE*
G04*
G04*
G04 #@! TF.FilePolarity,Positive*
G04*
G01*
G75*
%ADD11C,0.01000*%
%ADD15R,0.03347X0.01575*%
%ADD16R,0.03937X0.03740*%
%ADD17R,0.02008X0.02874*%
%ADD18R,0.02441X0.02598*%
%ADD19R,0.03150X0.03150*%
%ADD20R,0.02598X0.02441*%
%ADD21R,0.02874X0.02008*%
%ADD22R,0.03543X0.03347*%
%ADD23R,0.13780X0.05906*%
%ADD24R,0.06299X0.02559*%
%ADD25R,0.09252X0.02559*%
%ADD26R,0.03347X0.03543*%
%ADD41C,0.01575*%
%ADD43C,0.00898*%
%ADD44C,0.01968*%
%ADD45C,0.07087*%
%ADD46C,0.21654*%
%ADD47C,0.01772*%
G36*
X187008Y118110D02*
X187977D01*
X189879Y117732D01*
X191670Y116990D01*
X193282Y115913D01*
X194653Y114542D01*
X195730Y112930D01*
X196472Y111139D01*
X196850Y109237D01*
X196850Y108268D01*
X196850Y108268D01*
X196850Y108268D01*
X196850Y9843D01*
X196850Y8873D01*
X196472Y6972D01*
X195730Y5180D01*
X194653Y3568D01*
X193282Y2197D01*
X191670Y1120D01*
X189879Y378D01*
X187977Y0D01*
X187008Y0D01*
X187008Y0D01*
X187008Y0D01*
X48243D01*
X46342Y378D01*
X44550Y1120D01*
X42938Y2197D01*
X41567Y3568D01*
X40490Y5180D01*
X39748Y6972D01*
X39370Y8873D01*
Y9843D01*
Y44472D01*
X45760D01*
Y45580D01*
X46760D01*
Y44472D01*
X54150D01*
Y47925D01*
X53042D01*
Y48925D01*
X54150D01*
Y52378D01*
X46760D01*
Y51270D01*
X45760D01*
Y52378D01*
X39370D01*
Y55602D01*
X53650D01*
Y58087D01*
X55118D01*
Y58063D01*
X56848Y58234D01*
X58511Y58738D01*
X60044Y59557D01*
X61387Y60660D01*
X62490Y62003D01*
X63309Y63536D01*
X63814Y65200D01*
X63984Y66929D01*
X63960D01*
Y73335D01*
X63959Y73341D01*
X64091Y74682D01*
X64484Y75978D01*
X65122Y77173D01*
X65981Y78219D01*
X67028Y79079D01*
X68222Y79717D01*
X69518Y80110D01*
X70860Y80242D01*
X70866Y80241D01*
X72276D01*
Y79705D01*
X76150D01*
Y80241D01*
X77866D01*
Y79488D01*
X84929D01*
Y80241D01*
X86137D01*
Y79429D01*
X93436D01*
Y82988D01*
X86137D01*
Y82176D01*
X84929D01*
Y82929D01*
X77866D01*
Y82176D01*
X76503D01*
X76415Y82264D01*
X76568Y82818D01*
X76602Y82827D01*
X76650D01*
Y86835D01*
X76236D01*
Y91091D01*
X89224Y104079D01*
X113173D01*
Y103331D01*
X113823D01*
Y89946D01*
X113977Y89172D01*
X114416Y88516D01*
X115497Y87434D01*
X115306Y86972D01*
X114682D01*
Y82374D01*
X114263Y82176D01*
X113768D01*
Y82929D01*
X106705D01*
Y82176D01*
X105444D01*
Y82988D01*
X98145D01*
Y79429D01*
X105444D01*
Y80241D01*
X106705D01*
Y79488D01*
X113768D01*
Y80241D01*
X115182D01*
Y79409D01*
X118623D01*
Y80241D01*
X120553D01*
Y79921D01*
X124899D01*
Y81980D01*
X125399D01*
Y83268D01*
X124292D01*
Y84268D01*
X125399D01*
Y84539D01*
Y88114D01*
X124661D01*
Y90043D01*
X128043D01*
Y91151D01*
X129043D01*
Y90043D01*
X131512D01*
Y92413D01*
X130404D01*
Y93413D01*
X131512D01*
Y95784D01*
X129043D01*
Y94676D01*
X128043D01*
Y95784D01*
X119669D01*
Y90043D01*
X120615D01*
Y88845D01*
X119809D01*
X117870Y90784D01*
Y103331D01*
X118520D01*
Y108874D01*
X113173D01*
Y108125D01*
X88386D01*
X87612Y107972D01*
X86955Y107533D01*
X72782Y93360D01*
X72343Y92703D01*
X72189Y91929D01*
Y86835D01*
X71776D01*
Y82827D01*
X71823D01*
X71857Y82818D01*
X72010Y82264D01*
X71922Y82176D01*
X70866D01*
Y82200D01*
X69137Y82030D01*
X67473Y81526D01*
X65941Y80706D01*
X64597Y79604D01*
X63494Y78260D01*
X62675Y76727D01*
X62171Y75064D01*
X62000Y73335D01*
X62024D01*
Y66929D01*
X62026Y66923D01*
X61893Y65581D01*
X61500Y64285D01*
X60862Y63091D01*
X60003Y62044D01*
X58956Y61185D01*
X57762Y60547D01*
X56466Y60154D01*
X55124Y60022D01*
X55118Y60023D01*
X53650D01*
Y62508D01*
X39370D01*
Y65732D01*
X45760D01*
Y66840D01*
X46760D01*
Y65732D01*
X54150D01*
Y69185D01*
X53042D01*
Y70185D01*
X54150D01*
Y73638D01*
X46760D01*
Y72530D01*
X45760D01*
Y73638D01*
X39370D01*
Y108268D01*
Y109237D01*
X39748Y111139D01*
X40490Y112930D01*
X41567Y114542D01*
X42938Y115913D01*
X44550Y116990D01*
X46342Y117732D01*
X48243Y118110D01*
X49213D01*
Y118110D01*
X187008Y118110D01*
D02*
G37*
%LPC*%
G36*
X137729Y108677D02*
X135654D01*
Y107570D01*
X134654D01*
Y108677D01*
X132580D01*
Y106602D01*
X133687D01*
Y105602D01*
X132580D01*
Y103528D01*
X134654D01*
Y104635D01*
X135654D01*
Y103528D01*
X137729D01*
Y105602D01*
X136622D01*
Y106602D01*
X137729D01*
Y108677D01*
D02*
G37*
G36*
X124622Y108874D02*
X119276D01*
Y103331D01*
X124622D01*
Y104573D01*
X126280D01*
Y103528D01*
X131430D01*
Y108677D01*
X126280D01*
Y107632D01*
X124622D01*
Y108874D01*
D02*
G37*
G36*
X178280Y93331D02*
X174631D01*
Y92223D01*
X173631D01*
Y93331D01*
X169981D01*
Y91551D01*
X171089D01*
Y90551D01*
X169981D01*
Y88772D01*
X173631D01*
Y89879D01*
X174631D01*
Y88772D01*
X178280D01*
Y90551D01*
X177173D01*
Y91551D01*
X178280D01*
Y93331D01*
D02*
G37*
G36*
X166273D02*
X162623D01*
Y92223D01*
X161623D01*
Y93331D01*
X157974D01*
Y91551D01*
X159081D01*
Y90551D01*
X157974D01*
Y88772D01*
X161623D01*
Y89879D01*
X162623D01*
Y88772D01*
X166273D01*
Y90551D01*
X165165D01*
Y91551D01*
X166273D01*
Y93331D01*
D02*
G37*
G36*
X138932Y88264D02*
X135924D01*
Y87295D01*
X133757D01*
Y87614D01*
X129411D01*
Y85555D01*
X128911D01*
Y84268D01*
X130019D01*
Y83268D01*
X128911D01*
Y81980D01*
Y79421D01*
X134257D01*
Y79679D01*
X135424D01*
Y77377D01*
X140967D01*
Y82723D01*
X137110D01*
X137037Y82738D01*
X134257D01*
Y83268D01*
X133150D01*
Y84268D01*
X134257D01*
Y85359D01*
X135924D01*
Y84390D01*
X138932D01*
Y88264D01*
D02*
G37*
G36*
X105944Y88213D02*
X102295D01*
Y87105D01*
X101295D01*
Y88213D01*
X97645D01*
Y86433D01*
X98753D01*
Y85433D01*
X97645D01*
Y83653D01*
X101295D01*
Y84761D01*
X102295D01*
Y83653D01*
X105944D01*
Y85433D01*
X104837D01*
Y86433D01*
X105944D01*
Y88213D01*
D02*
G37*
G36*
X93936D02*
X90287D01*
Y87105D01*
X89287D01*
Y88213D01*
X85637D01*
Y86433D01*
X86745D01*
Y85433D01*
X85637D01*
Y83653D01*
X89287D01*
Y84761D01*
X90287D01*
Y83653D01*
X93936D01*
Y85433D01*
X92829D01*
Y86433D01*
X93936D01*
Y88213D01*
D02*
G37*
G36*
X142554Y88264D02*
X139546D01*
Y84390D01*
X142554D01*
Y85359D01*
X144015D01*
X144433Y85161D01*
Y83362D01*
X145541D01*
Y82362D01*
X144433D01*
Y80563D01*
X146153D01*
Y81671D01*
X147153D01*
Y80563D01*
X148874D01*
Y82362D01*
X147766D01*
Y83362D01*
X148874D01*
Y85161D01*
X149292Y85359D01*
X150029D01*
Y84606D01*
X157092D01*
Y85359D01*
X158474D01*
Y84547D01*
X165773D01*
Y88106D01*
X158474D01*
Y87295D01*
X157092D01*
Y88047D01*
X150029D01*
Y87295D01*
X148374D01*
Y88126D01*
X144933D01*
Y87295D01*
X142554D01*
Y88264D01*
D02*
G37*
G36*
X178280Y83882D02*
X173154D01*
Y82774D01*
X172154D01*
Y83882D01*
X167029D01*
Y82102D01*
X168136D01*
Y81102D01*
X167029D01*
Y79323D01*
X172154D01*
Y80430D01*
X173154D01*
Y79323D01*
X178280D01*
Y81102D01*
X177173D01*
Y82102D01*
X178280D01*
Y83882D01*
D02*
G37*
G36*
X166273D02*
X162623D01*
Y82774D01*
X161623D01*
Y83882D01*
X157974D01*
Y82102D01*
X159081D01*
Y81102D01*
X157974D01*
Y79323D01*
X161623D01*
Y80430D01*
X162623D01*
Y79323D01*
X166273D01*
Y81102D01*
X165165D01*
Y82102D01*
X166273D01*
Y83882D01*
D02*
G37*
G36*
X105944Y78764D02*
X100818D01*
Y77656D01*
X99818D01*
Y78764D01*
X94692D01*
Y76984D01*
X95800D01*
Y75984D01*
X94692D01*
Y74205D01*
X99818D01*
Y75312D01*
X100818D01*
Y74205D01*
X105944D01*
Y75984D01*
X104837D01*
Y76984D01*
X105944D01*
Y78764D01*
D02*
G37*
G36*
X93936D02*
X90287D01*
Y77656D01*
X89287D01*
Y78764D01*
X85637D01*
Y76984D01*
X86745D01*
Y75984D01*
X85637D01*
Y74205D01*
X89287D01*
Y75312D01*
X90287D01*
Y74205D01*
X93936D01*
Y75984D01*
X92829D01*
Y76984D01*
X93936D01*
Y78764D01*
D02*
G37*
G36*
X140967Y76621D02*
X138695D01*
Y75513D01*
X137695D01*
Y76621D01*
X135424D01*
Y74448D01*
X136531D01*
Y73448D01*
X135424D01*
Y71275D01*
X137695D01*
Y72382D01*
X138695D01*
Y71275D01*
X140967D01*
Y73448D01*
X139859D01*
Y74448D01*
X140967D01*
Y76621D01*
D02*
G37*
G36*
X177780Y88106D02*
X170481D01*
Y84547D01*
X177780D01*
Y85359D01*
X179634D01*
X179640Y85360D01*
X180982Y85228D01*
X182278Y84835D01*
X183472Y84197D01*
X184519Y83338D01*
X185378Y82291D01*
X186016Y81096D01*
X186409Y79800D01*
X186541Y78459D01*
X186540Y78453D01*
Y67035D01*
X186541Y67029D01*
X186409Y65688D01*
X186016Y64392D01*
X185378Y63197D01*
X184519Y62151D01*
X183472Y61291D01*
X182278Y60653D01*
X180982Y60260D01*
X179640Y60128D01*
X179634Y60129D01*
X150162D01*
Y60961D01*
X146721D01*
Y60129D01*
X145067D01*
Y60882D01*
X138004D01*
Y60129D01*
X136169D01*
Y60961D01*
X132728D01*
Y60129D01*
X129148D01*
X129136Y60217D01*
X128729Y61200D01*
X128081Y62045D01*
X127236Y62693D01*
X126252Y63101D01*
X125197Y63240D01*
X124141Y63101D01*
X123158Y62693D01*
X122313Y62045D01*
X121665Y61200D01*
X121258Y60217D01*
X121119Y59161D01*
X121258Y58106D01*
X121665Y57122D01*
X122313Y56278D01*
X123158Y55630D01*
X124141Y55222D01*
X125197Y55083D01*
X126252Y55222D01*
X127236Y55630D01*
X128081Y56278D01*
X128729Y57122D01*
X129136Y58106D01*
X129148Y58194D01*
X131810D01*
X132228Y57996D01*
Y56197D01*
X133336D01*
Y55197D01*
X132228D01*
Y53398D01*
X133949D01*
Y54505D01*
X134949D01*
Y53398D01*
X136669D01*
Y55197D01*
X135562D01*
Y56197D01*
X136669D01*
Y57996D01*
X137087Y58194D01*
X138004D01*
Y57441D01*
X145067D01*
Y58194D01*
X145803D01*
X146221Y57996D01*
Y56197D01*
X147329D01*
Y55197D01*
X146221D01*
Y53398D01*
X147942D01*
Y54505D01*
X148942D01*
Y53398D01*
X150662D01*
Y55197D01*
X149555D01*
Y56197D01*
X150662D01*
Y57996D01*
X151081Y58194D01*
X179634D01*
Y58170D01*
X181363Y58340D01*
X183027Y58845D01*
X184559Y59664D01*
X185903Y60766D01*
X187005Y62110D01*
X187825Y63643D01*
X188329Y65306D01*
X188500Y67035D01*
X188476D01*
Y78453D01*
X188500D01*
X188329Y80182D01*
X187825Y81846D01*
X187005Y83378D01*
X185903Y84722D01*
X184559Y85824D01*
X183027Y86644D01*
X181363Y87148D01*
X179634Y87319D01*
Y87295D01*
X177780D01*
Y88106D01*
D02*
G37*
%LPD*%
D11*
X138195Y80050D02*
G03*
X137037Y81209I-1158J0D01*
G01*
X122343Y106102D02*
X128855D01*
X131584Y81209D02*
X137037D01*
D15*
X122726Y86327D02*
D03*
Y83768D02*
D03*
Y81209D02*
D03*
X131584Y86327D02*
D03*
Y83768D02*
D03*
Y81209D02*
D03*
D16*
X128543Y92913D02*
D03*
X122638D02*
D03*
D17*
X137428Y86327D02*
D03*
X141050D02*
D03*
D18*
X116902Y84673D02*
D03*
Y81209D02*
D03*
X146653Y82862D02*
D03*
Y86327D02*
D03*
X148442Y59161D02*
D03*
Y55697D02*
D03*
X134449Y59161D02*
D03*
Y55697D02*
D03*
D19*
X128855Y106102D02*
D03*
X135154D02*
D03*
D20*
X79665Y81209D02*
D03*
X83130D02*
D03*
X151828Y86327D02*
D03*
X155292D02*
D03*
X139803Y59161D02*
D03*
X143268D02*
D03*
X108504Y81209D02*
D03*
X111969D02*
D03*
D21*
X74213Y84831D02*
D03*
Y81209D02*
D03*
D22*
X138195Y73948D02*
D03*
Y80050D02*
D03*
D23*
X46260Y59055D02*
D03*
Y69685D02*
D03*
Y48425D02*
D03*
D24*
X101795Y81209D02*
D03*
Y85933D02*
D03*
X89787D02*
D03*
Y81209D02*
D03*
Y76484D02*
D03*
X174131Y86327D02*
D03*
Y91051D02*
D03*
X162123D02*
D03*
Y86327D02*
D03*
Y81602D02*
D03*
D25*
X100318Y76484D02*
D03*
X172654Y81602D02*
D03*
D26*
X121949Y106102D02*
D03*
X115847D02*
D03*
D41*
X169747Y88000D02*
D03*
X169669Y85426D02*
D03*
X179209Y84528D02*
D03*
X181755Y84144D02*
D03*
X183931Y82768D02*
D03*
X185318Y80599D02*
D03*
X185709Y78054D02*
D03*
Y75479D02*
D03*
Y72904D02*
D03*
Y70329D02*
D03*
Y67755D02*
D03*
X185411Y65197D02*
D03*
X184133Y62962D02*
D03*
X182048Y61452D02*
D03*
X179520Y60960D02*
D03*
X176945D02*
D03*
X174371D02*
D03*
X171796D02*
D03*
X169221D02*
D03*
X166646D02*
D03*
X164072D02*
D03*
X161497D02*
D03*
X158922D02*
D03*
X156347D02*
D03*
X153772D02*
D03*
X151198D02*
D03*
X148755Y61773D02*
D03*
X146226Y61288D02*
D03*
X143683Y61695D02*
D03*
X141109Y61693D02*
D03*
X138534Y61695D02*
D03*
X135959Y61716D02*
D03*
X133385Y61773D02*
D03*
X130942Y60960D02*
D03*
X128819Y62417D02*
D03*
X126655Y63813D02*
D03*
X124083Y63909D02*
D03*
X121823Y62675D02*
D03*
X120507Y60462D02*
D03*
X120502Y57887D02*
D03*
X121806Y55667D02*
D03*
X124060Y54422D02*
D03*
X126633Y54500D02*
D03*
X128804Y55885D02*
D03*
X130913Y57363D02*
D03*
X138505Y56628D02*
D03*
X141079D02*
D03*
X143654D02*
D03*
X151146Y57363D02*
D03*
X153721D02*
D03*
X156296D02*
D03*
X158871D02*
D03*
X161445D02*
D03*
X164020D02*
D03*
X166595D02*
D03*
X169170D02*
D03*
X171745D02*
D03*
X174319D02*
D03*
X176894D02*
D03*
X179469D02*
D03*
X182023Y57691D02*
D03*
X184408Y58661D02*
D03*
X186465Y60209D02*
D03*
X188012Y62268D02*
D03*
X188981Y64653D02*
D03*
X189307Y67207D02*
D03*
Y69782D02*
D03*
Y72357D02*
D03*
Y74932D02*
D03*
Y77507D02*
D03*
X189156Y80077D02*
D03*
X188379Y82532D02*
D03*
X186978Y84692D02*
D03*
X185084Y86437D02*
D03*
X182773Y87570D02*
D03*
X180248Y88075D02*
D03*
X112636Y83742D02*
D03*
X110061Y83690D02*
D03*
X107487Y83742D02*
D03*
X97393Y82794D02*
D03*
X97333Y80220D02*
D03*
X107070Y78702D02*
D03*
X109644Y78676D02*
D03*
X112219D02*
D03*
X114778Y78965D02*
D03*
X117326Y78597D02*
D03*
X119769Y79410D02*
D03*
X122326Y79109D02*
D03*
X124899Y79208D02*
D03*
X125712Y81651D02*
D03*
X83866Y83742D02*
D03*
X81292Y83677D02*
D03*
X78718Y83742D02*
D03*
X71069Y83007D02*
D03*
X68513Y82690D02*
D03*
X66126Y81727D02*
D03*
X64060Y80190D02*
D03*
X62507Y78136D02*
D03*
X61531Y75754D02*
D03*
X61193Y73201D02*
D03*
Y70626D02*
D03*
Y68051D02*
D03*
X61014Y65483D02*
D03*
X59878Y63173D02*
D03*
X57889Y61537D02*
D03*
X55404Y60866D02*
D03*
X53973Y63006D02*
D03*
X51417Y63320D02*
D03*
X48842D02*
D03*
X46268D02*
D03*
X43693D02*
D03*
X41118D02*
D03*
X40833Y54790D02*
D03*
X43408D02*
D03*
X45983D02*
D03*
X48558D02*
D03*
X51133D02*
D03*
X53704Y54924D02*
D03*
X54795Y57256D02*
D03*
X57355Y57538D02*
D03*
X59751Y58480D02*
D03*
X61842Y59982D02*
D03*
X63419Y62018D02*
D03*
X64417Y64391D02*
D03*
X64792Y66938D02*
D03*
X64791Y69513D02*
D03*
Y72088D02*
D03*
X64933Y74659D02*
D03*
X66024Y76991D02*
D03*
X67980Y78666D02*
D03*
X70452Y79386D02*
D03*
X72979Y78892D02*
D03*
X75554D02*
D03*
X78123Y78724D02*
D03*
X80698Y78676D02*
D03*
X83272D02*
D03*
X94249Y81257D02*
D03*
X137695Y89076D02*
D03*
X135238Y88306D02*
D03*
X132666Y88427D02*
D03*
X130091D02*
D03*
X128598Y86329D02*
D03*
X135232Y84357D02*
D03*
X137686Y83577D02*
D03*
X140260D02*
D03*
X142820Y83854D02*
D03*
X150541Y83794D02*
D03*
X153115D02*
D03*
X155690D02*
D03*
X166585Y86457D02*
D03*
X157958Y88403D02*
D03*
X155424Y88860D02*
D03*
X152849D02*
D03*
X150275Y88809D02*
D03*
X147703Y88939D02*
D03*
X145129Y88878D02*
D03*
X142556Y88977D02*
D03*
D43*
X55118Y59055D02*
G03*
X62992Y66929I0J7874D01*
G01*
X70866Y81209D02*
G03*
X62992Y73335I0J-7874D01*
G01*
X187508Y78453D02*
G03*
X179634Y86327I-7874J0D01*
G01*
Y59161D02*
G03*
X187508Y67035I0J7874D01*
G01*
X125250Y59161D02*
X134396D01*
X125197Y59055D02*
X125250Y59108D01*
X134396D02*
X134449Y59161D01*
X139803D01*
X46260Y59055D02*
X55118D01*
X46260Y59055D02*
X46260Y59055D01*
X62992Y66929D02*
Y73335D01*
X70866Y81209D02*
X74213D01*
X187508Y67035D02*
Y78453D01*
X174131Y86327D02*
X179634D01*
X174131Y86327D02*
Y86327D01*
X148442Y59161D02*
X179634D01*
X143268D02*
X148442D01*
X146653Y86327D02*
X146653Y86327D01*
X151828D01*
X141050Y86327D02*
X146653D01*
X141050Y86327D02*
X141050Y86327D01*
X111969Y81209D02*
X116902D01*
X111969Y81209D02*
X111969Y81209D01*
X122726D02*
X122726Y81209D01*
X116902Y81209D02*
X122726D01*
X101795Y81209D02*
X108504D01*
X83130D02*
X89787D01*
X74213D02*
X79665D01*
X155292Y86327D02*
X162123D01*
X131584D02*
X137428D01*
D44*
X122638Y87132D02*
Y92913D01*
X118972Y86821D02*
X122949D01*
X122638Y87132D02*
X122949Y86821D01*
X74213Y84831D02*
Y91929D01*
X88386Y106102D02*
X115847D01*
X74213Y91929D02*
X88386Y106102D01*
X115847Y89946D02*
X118972Y86821D01*
X115847Y89946D02*
Y106102D01*
X116902Y84673D02*
Y84752D01*
X118972Y86821D01*
D45*
X125197Y59161D02*
D03*
D46*
X183071Y104331D02*
D03*
X53150Y13780D02*
D03*
X183071D02*
D03*
X53150Y104331D02*
D03*
D47*
X194882Y94488D02*
D03*
Y70866D02*
D03*
X188976Y59055D02*
D03*
X194882Y47244D02*
D03*
X188976Y35433D02*
D03*
X194882Y23622D02*
D03*
X183071Y70866D02*
D03*
Y47244D02*
D03*
X177165Y35433D02*
D03*
X165354Y106299D02*
D03*
X171260Y94488D02*
D03*
Y70866D02*
D03*
Y47244D02*
D03*
X165354Y35433D02*
D03*
X171260Y23622D02*
D03*
X165354Y11811D02*
D03*
X153543Y106299D02*
D03*
X159449Y94488D02*
D03*
Y70866D02*
D03*
Y47244D02*
D03*
X153543Y35433D02*
D03*
X159449Y23622D02*
D03*
X153543Y11811D02*
D03*
X141732Y106299D02*
D03*
X147638Y94488D02*
D03*
Y70866D02*
D03*
Y47244D02*
D03*
X141732Y35433D02*
D03*
X147638Y23622D02*
D03*
X141732Y11811D02*
D03*
X135827Y94488D02*
D03*
Y70866D02*
D03*
Y47244D02*
D03*
X129921Y35433D02*
D03*
X135827Y23622D02*
D03*
X129921Y11811D02*
D03*
X124016Y70866D02*
D03*
X118110Y59055D02*
D03*
X124016Y47244D02*
D03*
X118110Y35433D02*
D03*
X124016Y23622D02*
D03*
X118110Y11811D02*
D03*
X112205Y94488D02*
D03*
Y70866D02*
D03*
X106299Y59055D02*
D03*
X112205Y47244D02*
D03*
X106299Y35433D02*
D03*
X112205Y23622D02*
D03*
X106299Y11811D02*
D03*
X100394Y94488D02*
D03*
Y70866D02*
D03*
X94488Y59055D02*
D03*
X100394Y47244D02*
D03*
X94488Y35433D02*
D03*
X100394Y23622D02*
D03*
X94488Y11811D02*
D03*
X82677Y106299D02*
D03*
X88583Y94488D02*
D03*
Y70866D02*
D03*
X82677Y59055D02*
D03*
X88583Y47244D02*
D03*
X82677Y35433D02*
D03*
X88583Y23622D02*
D03*
X82677Y11811D02*
D03*
X70866Y106299D02*
D03*
X76772Y70866D02*
D03*
X70866Y59055D02*
D03*
X76772Y47244D02*
D03*
X70866Y35433D02*
D03*
X76772Y23622D02*
D03*
X70866Y11811D02*
D03*
X64961Y94488D02*
D03*
X59055Y82677D02*
D03*
X64961Y47244D02*
D03*
X59055Y35433D02*
D03*
X64961Y23622D02*
D03*
X47244Y82677D02*
D03*
Y35433D02*
D03*
M02*
