G04*
G04 #@! TF.GenerationSoftware,Altium Limited,Altium Designer,24.9.1 (31)*
G04*
G04 Layer_Color=16711935*
%FSLAX25Y25*%
%MOIN*%
G70*
G04*
G04 #@! TF.SameCoordinates,21B9ACB0-0D47-4127-AC64-11D31CE697AE*
G04*
G04*
G04 #@! TF.FilePolarity,Negative*
G04*
G01*
G75*
%ADD35R,0.14580X0.06706*%
%ADD39C,0.07887*%
%ADD40C,0.22453*%
%ADD41C,0.01575*%
%ADD42C,0.02572*%
D35*
X46260Y69685D02*
D03*
Y48425D02*
D03*
D39*
X125197Y59161D02*
D03*
D40*
X183071Y104331D02*
D03*
X53150Y13780D02*
D03*
X183071D02*
D03*
X53150Y104331D02*
D03*
D41*
X169747Y88000D02*
D03*
X169669Y85426D02*
D03*
X179209Y84528D02*
D03*
X181755Y84144D02*
D03*
X183931Y82768D02*
D03*
X185318Y80599D02*
D03*
X185709Y78054D02*
D03*
Y75479D02*
D03*
Y72904D02*
D03*
Y70329D02*
D03*
Y67755D02*
D03*
X185411Y65197D02*
D03*
X184133Y62962D02*
D03*
X182048Y61452D02*
D03*
X179520Y60960D02*
D03*
X176945D02*
D03*
X174371D02*
D03*
X171796D02*
D03*
X169221D02*
D03*
X166646D02*
D03*
X164072D02*
D03*
X161497D02*
D03*
X158922D02*
D03*
X156347D02*
D03*
X153772D02*
D03*
X151198D02*
D03*
X148755Y61773D02*
D03*
X146226Y61288D02*
D03*
X143683Y61695D02*
D03*
X141109Y61693D02*
D03*
X138534Y61695D02*
D03*
X135959Y61716D02*
D03*
X133385Y61773D02*
D03*
X130942Y60960D02*
D03*
X128819Y62417D02*
D03*
X126655Y63813D02*
D03*
X124083Y63909D02*
D03*
X121823Y62675D02*
D03*
X120507Y60462D02*
D03*
X120502Y57887D02*
D03*
X121806Y55667D02*
D03*
X124060Y54422D02*
D03*
X126633Y54500D02*
D03*
X128804Y55885D02*
D03*
X130913Y57363D02*
D03*
X138505Y56628D02*
D03*
X141079D02*
D03*
X143654D02*
D03*
X151146Y57363D02*
D03*
X153721D02*
D03*
X156296D02*
D03*
X158871D02*
D03*
X161445D02*
D03*
X164020D02*
D03*
X166595D02*
D03*
X169170D02*
D03*
X171745D02*
D03*
X174319D02*
D03*
X176894D02*
D03*
X179469D02*
D03*
X182023Y57691D02*
D03*
X184408Y58661D02*
D03*
X186465Y60209D02*
D03*
X188012Y62268D02*
D03*
X188981Y64653D02*
D03*
X189307Y67207D02*
D03*
Y69782D02*
D03*
Y72357D02*
D03*
Y74932D02*
D03*
Y77507D02*
D03*
X189156Y80077D02*
D03*
X188379Y82532D02*
D03*
X186978Y84692D02*
D03*
X185084Y86437D02*
D03*
X182773Y87570D02*
D03*
X180248Y88075D02*
D03*
X112636Y83742D02*
D03*
X110061Y83690D02*
D03*
X107487Y83742D02*
D03*
X97393Y82794D02*
D03*
X97333Y80220D02*
D03*
X107070Y78702D02*
D03*
X109644Y78676D02*
D03*
X112219D02*
D03*
X114778Y78965D02*
D03*
X117326Y78597D02*
D03*
X119769Y79410D02*
D03*
X122326Y79109D02*
D03*
X124899Y79208D02*
D03*
X125712Y81651D02*
D03*
X83866Y83742D02*
D03*
X81292Y83677D02*
D03*
X78718Y83742D02*
D03*
X71069Y83007D02*
D03*
X68513Y82690D02*
D03*
X66126Y81727D02*
D03*
X64060Y80190D02*
D03*
X62507Y78136D02*
D03*
X61531Y75754D02*
D03*
X61193Y73201D02*
D03*
Y70626D02*
D03*
Y68051D02*
D03*
X61014Y65483D02*
D03*
X59878Y63173D02*
D03*
X57889Y61537D02*
D03*
X55404Y60866D02*
D03*
X53973Y63006D02*
D03*
X51417Y63320D02*
D03*
X48842D02*
D03*
X46268D02*
D03*
X43693D02*
D03*
X41118D02*
D03*
X40833Y54790D02*
D03*
X43408D02*
D03*
X45983D02*
D03*
X48558D02*
D03*
X51133D02*
D03*
X53704Y54924D02*
D03*
X54795Y57256D02*
D03*
X57355Y57538D02*
D03*
X59751Y58480D02*
D03*
X61842Y59982D02*
D03*
X63419Y62018D02*
D03*
X64417Y64391D02*
D03*
X64792Y66938D02*
D03*
X64791Y69513D02*
D03*
Y72088D02*
D03*
X64933Y74659D02*
D03*
X66024Y76991D02*
D03*
X67980Y78666D02*
D03*
X70452Y79386D02*
D03*
X72979Y78892D02*
D03*
X75554D02*
D03*
X78123Y78724D02*
D03*
X80698Y78676D02*
D03*
X83272D02*
D03*
X94249Y81257D02*
D03*
X137695Y89076D02*
D03*
X135238Y88306D02*
D03*
X132666Y88427D02*
D03*
X130091D02*
D03*
X128598Y86329D02*
D03*
X135232Y84357D02*
D03*
X137686Y83577D02*
D03*
X140260D02*
D03*
X142820Y83854D02*
D03*
X150541Y83794D02*
D03*
X153115D02*
D03*
X155690D02*
D03*
X166585Y86457D02*
D03*
X157958Y88403D02*
D03*
X155424Y88860D02*
D03*
X152849D02*
D03*
X150275Y88809D02*
D03*
X147703Y88939D02*
D03*
X145129Y88878D02*
D03*
X142556Y88977D02*
D03*
D42*
X194882Y94488D02*
D03*
Y70866D02*
D03*
X188976Y59055D02*
D03*
X194882Y47244D02*
D03*
X188976Y35433D02*
D03*
X194882Y23622D02*
D03*
X183071Y70866D02*
D03*
Y47244D02*
D03*
X177165Y35433D02*
D03*
X165354Y106299D02*
D03*
X171260Y94488D02*
D03*
Y70866D02*
D03*
Y47244D02*
D03*
X165354Y35433D02*
D03*
X171260Y23622D02*
D03*
X165354Y11811D02*
D03*
X153543Y106299D02*
D03*
X159449Y94488D02*
D03*
Y70866D02*
D03*
Y47244D02*
D03*
X153543Y35433D02*
D03*
X159449Y23622D02*
D03*
X153543Y11811D02*
D03*
X141732Y106299D02*
D03*
X147638Y94488D02*
D03*
Y70866D02*
D03*
Y47244D02*
D03*
X141732Y35433D02*
D03*
X147638Y23622D02*
D03*
X141732Y11811D02*
D03*
X135827Y94488D02*
D03*
Y70866D02*
D03*
Y47244D02*
D03*
X129921Y35433D02*
D03*
X135827Y23622D02*
D03*
X129921Y11811D02*
D03*
X124016Y70866D02*
D03*
X118110Y59055D02*
D03*
X124016Y47244D02*
D03*
X118110Y35433D02*
D03*
X124016Y23622D02*
D03*
X118110Y11811D02*
D03*
X112205Y94488D02*
D03*
Y70866D02*
D03*
X106299Y59055D02*
D03*
X112205Y47244D02*
D03*
X106299Y35433D02*
D03*
X112205Y23622D02*
D03*
X106299Y11811D02*
D03*
X100394Y94488D02*
D03*
Y70866D02*
D03*
X94488Y59055D02*
D03*
X100394Y47244D02*
D03*
X94488Y35433D02*
D03*
X100394Y23622D02*
D03*
X94488Y11811D02*
D03*
X82677Y106299D02*
D03*
X88583Y94488D02*
D03*
Y70866D02*
D03*
X82677Y59055D02*
D03*
X88583Y47244D02*
D03*
X82677Y35433D02*
D03*
X88583Y23622D02*
D03*
X82677Y11811D02*
D03*
X70866Y106299D02*
D03*
X76772Y70866D02*
D03*
X70866Y59055D02*
D03*
X76772Y47244D02*
D03*
X70866Y35433D02*
D03*
X76772Y23622D02*
D03*
X70866Y11811D02*
D03*
X64961Y94488D02*
D03*
X59055Y82677D02*
D03*
X64961Y47244D02*
D03*
X59055Y35433D02*
D03*
X64961Y23622D02*
D03*
X47244Y82677D02*
D03*
Y35433D02*
D03*
M02*
