G04*
G04 #@! TF.GenerationSoftware,Altium Limited,Altium Designer,24.9.1 (31)*
G04*
G04 Layer_Color=8388736*
%FSLAX25Y25*%
%MOIN*%
G70*
G04*
G04 #@! TF.SameCoordinates,21B9ACB0-0D47-4127-AC64-11D31CE697AE*
G04*
G04*
G04 #@! TF.FilePolarity,Positive*
G04*
G01*
G75*
%ADD13C,0.00394*%
%ADD48C,0.00197*%
D13*
X116902Y81858D02*
Y84024D01*
X115819Y82941D02*
X117985D01*
X146653Y83512D02*
Y85677D01*
X145571Y84595D02*
X147736D01*
X81398Y80126D02*
Y82291D01*
X80315Y81209D02*
X82480D01*
X153560Y85244D02*
Y87410D01*
X152477Y86327D02*
X154643D01*
X141535Y58079D02*
Y60244D01*
X140453Y59161D02*
X142618D01*
X147359Y57429D02*
X149525D01*
X148442Y56346D02*
Y58512D01*
X133366Y57429D02*
X135531D01*
X134449Y56346D02*
Y58512D01*
X110236Y80126D02*
Y82291D01*
X109153Y81209D02*
X111319D01*
D48*
X114934Y86681D02*
X118871D01*
X114934Y79201D02*
X118871D01*
Y86681D01*
X114934Y79201D02*
Y86681D01*
X144685Y80854D02*
X148622D01*
X144685Y88335D02*
X148622D01*
X144685Y80854D02*
Y88335D01*
X148622Y80854D02*
Y88335D01*
X77658Y83177D02*
X85138D01*
X77658Y79240D02*
X85138D01*
X77658D02*
Y83177D01*
X85138Y79240D02*
Y83177D01*
X149820Y88295D02*
X157300D01*
X149820Y84358D02*
X157300D01*
X149820D02*
Y88295D01*
X157300Y84358D02*
Y88295D01*
X137795Y61130D02*
X145276D01*
X137795Y57193D02*
X145276D01*
X137795D02*
Y61130D01*
X145276Y57193D02*
Y61130D01*
X150410Y53689D02*
Y61169D01*
X146474Y53689D02*
Y61169D01*
X150410D01*
X146474Y53689D02*
X150410D01*
X136417D02*
Y61169D01*
X132480Y53689D02*
Y61169D01*
X136417D01*
X132480Y53689D02*
X136417D01*
X106496Y83177D02*
X113976D01*
X106496Y79240D02*
X113976D01*
X106496D02*
Y83177D01*
X113976Y79240D02*
Y83177D01*
M02*
