M48
;Layer_Color=9474304
;FILE_FORMAT=2:4
INCH,TZ
;TYPE=PLATED
T01F00S00C0.0118
T02F00S00C0.0374
T03F00S00C0.1339
%
T01
X7087Y1181
X8268
X9449
X10630
X11811
X12992
X14173
X15354
X14764Y2362
X13583
X12402
X11220
X10039
X8858
X7677
X6496
X7087Y3543
X8268
X9449
X10630
X11811
X12992
X14173
X15354
X14764Y4724
X13583
X12402
X12406Y5442
X12663Y5450
X12880Y5589
X13091Y5736
X13094Y6096
X13338Y6177
X13596Y6172
X13853Y6169
X14111Y6169
X14368Y6169
X14623Y6129
X14875Y6177
X15120Y6096
X15377
X15372Y5736
X15115
X14365Y5663
X14108
X13850
X12882Y6242
X12666Y6381
X12408Y6391
X12182Y6267
X12051Y6046
X12050Y5789
X12181Y5567
X11811Y5906
X10630
X9449
X8268
X7087
X6184Y5998
X5975Y5848
X5735Y5754
X5480Y5726
X5370Y5492
X5113Y5479
X4856
X4598
X4341
X4083
X4112Y6332
X4369
X4627
X4884
X5142
X5397Y6301
X5540Y6087
X5789Y6154
X5988Y6317
X6101Y6548
X6119Y6805
Y7063
Y7320
X6153Y7575
X6251Y7814
X6406Y8019
X6613Y8173
X6851Y8269
X7107Y8301
X7045Y7939
X7298Y7889
X7555
X7812Y7872
X8070Y7868
X8327
X8387Y8374
X8129Y8368
X7872Y8374
X7677Y7087
X8858
X10039
X11220
X11222Y7868
X10964
X10707Y7870
X10749Y8374
X11006Y8369
X11264Y8374
X11478Y7897
X11733Y7860
X11977Y7941
X12233Y7911
X12490Y7921
X12571Y8165
X12860Y8633
X13009Y8843
X13267
X13524Y8831
X13769Y8908
X14256Y8898
X14513Y8888
X14770Y8894
X15027Y8881
X15285Y8886
X15542
X15569Y8379
X15312
X15054
X14282Y8385
X14026Y8358
X13769
X13523Y8436
X13583Y9449
X14764
X15354Y10630
X14173
X14764Y7087
X13583
X12402
X11220Y9449
X10039
X8858
X8268Y10630
X7087
X6496Y9449
X5906Y8268
X4724
X6602Y7699
X6493Y7466
X6479Y7209
Y6951
X6479Y6694
X6442Y6439
X6342Y6202
X6496Y4724
X7677
X8858
X10039
X11220
X9733Y8022
X9739Y8279
X9425Y8126
X6798Y7867
X5906Y3543
X4724
X16535
X17717
X18898
X19488Y4724
X18307
X18202Y5769
X17947Y5736
X17689
X17432
X17174
X16917
X16659
X16402
X16145
X15887
X15630
X15635Y6096
X15892
X16150
X16407
X16665
X16922
X17180
X17437
X17695
X17952
X18205Y6145
X18413Y6296
X18541Y6520
X18571Y6775
Y7033
Y7290
Y7548
Y7805
X18532Y8060
X18393Y8277
X18176Y8414
X17921Y8453
X18025Y8807
X18277Y8757
X18508Y8644
X18698Y8469
X18838Y8253
X18916Y8008
X18931Y7751
Y7493
Y7236
Y6978
Y6721
X18898Y6465
X18801Y6227
X18647Y6021
X18441Y5866
X18898Y5906
X19488Y7087
X18307
X17126
X15945
X15796Y8840
X15945Y9449
X17126
X16975Y8800
X16967Y8543
X16659Y8646
X16535Y10630
X19488Y9449
Y2362
X17126
X15945
X16535Y1181
X17126Y4724
X15945
T02
X12520Y5916
T03
X5315Y1378
Y10433
X18307
Y1378
M30
