G04*
G04 #@! TF.GenerationSoftware,Altium Limited,Altium Designer,24.9.1 (31)*
G04*
G04 Layer_Color=65535*
%FSLAX25Y25*%
%MOIN*%
G70*
G04*
G04 #@! TF.SameCoordinates,21B9ACB0-0D47-4127-AC64-11D31CE697AE*
G04*
G04*
G04 #@! TF.FilePolarity,Positive*
G04*
G01*
G75*
%ADD10C,0.00984*%
%ADD11C,0.01000*%
%ADD12C,0.00787*%
%ADD13C,0.00394*%
%ADD14C,0.00602*%
G36*
X94320Y34319D02*
X91234D01*
Y33025D01*
X94121D01*
Y31631D01*
X91234D01*
Y29839D01*
X94320D01*
Y28445D01*
X89442D01*
Y35713D01*
X94320D01*
Y34319D01*
D02*
G37*
G36*
X88148D02*
X85062D01*
Y33025D01*
X87949D01*
Y31631D01*
X85062D01*
Y29839D01*
X88148D01*
Y28445D01*
X83270D01*
Y35713D01*
X88148D01*
Y34319D01*
D02*
G37*
G36*
X81976D02*
X78890D01*
Y33025D01*
X81776D01*
Y31631D01*
X78890D01*
Y29839D01*
X81976D01*
Y28445D01*
X77098D01*
Y35713D01*
X81976D01*
Y34319D01*
D02*
G37*
G36*
X75903Y34418D02*
X74808D01*
Y29739D01*
X75903D01*
Y28445D01*
X72021D01*
Y29739D01*
X73016D01*
Y34418D01*
X72021D01*
Y35713D01*
X75903D01*
Y34418D01*
D02*
G37*
G36*
X106863Y27052D02*
X107460D01*
Y26952D01*
X107858D01*
Y26853D01*
X108157D01*
Y26753D01*
X108456D01*
Y25061D01*
X108256D01*
Y25160D01*
X108157D01*
Y25260D01*
X107958D01*
Y25359D01*
X107858D01*
Y25459D01*
X107659D01*
Y25558D01*
X107360D01*
Y25658D01*
X107161D01*
Y25758D01*
X106763D01*
Y25857D01*
X105668D01*
Y25758D01*
X105370D01*
Y25658D01*
X105270D01*
Y25558D01*
X105171D01*
Y25459D01*
X105071D01*
Y25359D01*
X104971D01*
Y24762D01*
X105071D01*
Y24663D01*
X105171D01*
Y24563D01*
X105270D01*
Y24463D01*
X105469D01*
Y24364D01*
X105768D01*
Y24264D01*
X106265D01*
Y24165D01*
X106664D01*
Y24065D01*
X106962D01*
Y23966D01*
X107261D01*
Y23866D01*
X107560D01*
Y23767D01*
X107759D01*
Y23667D01*
X107858D01*
Y23567D01*
X108057D01*
Y23468D01*
X108157D01*
Y23368D01*
X108256D01*
Y23269D01*
X108356D01*
Y23169D01*
X108456D01*
Y23070D01*
X108555D01*
Y22871D01*
X108655D01*
Y22572D01*
X108754D01*
Y21278D01*
X108655D01*
Y20979D01*
X108555D01*
Y20780D01*
X108456D01*
Y20681D01*
X108356D01*
Y20481D01*
X108256D01*
Y20382D01*
X108157D01*
Y20282D01*
X108057D01*
Y20183D01*
X107858D01*
Y20083D01*
X107759D01*
Y19984D01*
X107560D01*
Y19884D01*
X107360D01*
Y19785D01*
X107161D01*
Y19685D01*
X106863D01*
Y19586D01*
X106365D01*
Y19486D01*
X104772D01*
Y19586D01*
X104274D01*
Y19685D01*
X103876D01*
Y19785D01*
X103578D01*
Y19884D01*
X103279D01*
Y19984D01*
X103080D01*
Y21776D01*
X103279D01*
Y21676D01*
X103379D01*
Y21576D01*
X103478D01*
Y21477D01*
X103677D01*
Y21377D01*
X103777D01*
Y21278D01*
X103976D01*
Y21178D01*
X104175D01*
Y21079D01*
X104374D01*
Y20979D01*
X104673D01*
Y20880D01*
X105071D01*
Y20780D01*
X106166D01*
Y20880D01*
X106465D01*
Y20979D01*
X106664D01*
Y21079D01*
X106763D01*
Y21178D01*
X106863D01*
Y21477D01*
X106962D01*
Y21776D01*
X106863D01*
Y21975D01*
X106763D01*
Y22074D01*
X106664D01*
Y22174D01*
X106465D01*
Y22273D01*
X106166D01*
Y22373D01*
X105867D01*
Y22472D01*
X105370D01*
Y22572D01*
X104971D01*
Y22671D01*
X104673D01*
Y22771D01*
X104374D01*
Y22871D01*
X104175D01*
Y22970D01*
X103976D01*
Y23070D01*
X103876D01*
Y23169D01*
X103777D01*
Y23269D01*
X103677D01*
Y23368D01*
X103578D01*
Y23468D01*
X103478D01*
Y23567D01*
X103379D01*
Y23767D01*
X103279D01*
Y23966D01*
X103180D01*
Y24264D01*
X103080D01*
Y25260D01*
X103180D01*
Y25658D01*
X103279D01*
Y25857D01*
X103379D01*
Y25957D01*
X103478D01*
Y26156D01*
X103578D01*
Y26255D01*
X103677D01*
Y26355D01*
X103777D01*
Y26454D01*
X103976D01*
Y26554D01*
X104075D01*
Y26654D01*
X104274D01*
Y26753D01*
X104374D01*
Y26853D01*
X104673D01*
Y26952D01*
X104971D01*
Y27052D01*
X105370D01*
Y27151D01*
X106863D01*
Y27052D01*
D02*
G37*
G36*
X85559Y26952D02*
X85957D01*
Y26853D01*
X86157D01*
Y26753D01*
X86455D01*
Y26654D01*
X86654D01*
Y26554D01*
X86754D01*
Y24862D01*
X86455D01*
Y24961D01*
X86356D01*
Y25061D01*
X86256D01*
Y25160D01*
X86057D01*
Y25260D01*
X85957D01*
Y25359D01*
X85758D01*
Y25459D01*
X85559D01*
Y25558D01*
X85360D01*
Y25658D01*
X85062D01*
Y25758D01*
X84066D01*
Y25658D01*
X83767D01*
Y25558D01*
X83568D01*
Y25459D01*
X83469D01*
Y25359D01*
X83369D01*
Y25260D01*
X83270D01*
Y25160D01*
X83170D01*
Y25061D01*
X83071D01*
Y24961D01*
X82971D01*
Y24762D01*
X82872D01*
Y24563D01*
X82772D01*
Y24264D01*
X82672D01*
Y23767D01*
X82573D01*
Y22871D01*
X82672D01*
Y22273D01*
X82772D01*
Y22074D01*
X82872D01*
Y21875D01*
X82971D01*
Y21676D01*
X83071D01*
Y21576D01*
X83170D01*
Y21477D01*
X83270D01*
Y21377D01*
X83369D01*
Y21278D01*
X83469D01*
Y21178D01*
X83568D01*
Y21079D01*
X83767D01*
Y20979D01*
X84066D01*
Y20880D01*
X85062D01*
Y20979D01*
X85360D01*
Y21079D01*
X85659D01*
Y21178D01*
X85858D01*
Y21278D01*
X85957D01*
Y21377D01*
X86157D01*
Y21477D01*
X86256D01*
Y21576D01*
X86356D01*
Y21676D01*
X86555D01*
Y21776D01*
X86754D01*
Y20083D01*
X86555D01*
Y19984D01*
X86356D01*
Y19884D01*
X86157D01*
Y19785D01*
X85858D01*
Y19685D01*
X85460D01*
Y19586D01*
X85062D01*
Y19486D01*
X83568D01*
Y19586D01*
X83170D01*
Y19685D01*
X82772D01*
Y19785D01*
X82573D01*
Y19884D01*
X82374D01*
Y19984D01*
X82274D01*
Y20083D01*
X82075D01*
Y20183D01*
X81976D01*
Y20282D01*
X81876D01*
Y20382D01*
X81776D01*
Y20481D01*
X81677D01*
Y20581D01*
X81577D01*
Y20681D01*
X81478D01*
Y20780D01*
X81378D01*
Y20979D01*
X81279D01*
Y21079D01*
X81179D01*
Y21278D01*
X81080D01*
Y21477D01*
X80980D01*
Y21776D01*
X80880D01*
Y22174D01*
X80781D01*
Y22871D01*
X80681D01*
Y23667D01*
X80781D01*
Y24463D01*
X80880D01*
Y24762D01*
X80980D01*
Y25061D01*
X81080D01*
Y25260D01*
X81179D01*
Y25459D01*
X81279D01*
Y25658D01*
X81378D01*
Y25758D01*
X81478D01*
Y25957D01*
X81577D01*
Y26056D01*
X81677D01*
Y26156D01*
X81776D01*
Y26255D01*
X81876D01*
Y26355D01*
X81976D01*
Y26454D01*
X82075D01*
Y26554D01*
X82274D01*
Y26654D01*
X82473D01*
Y26753D01*
X82573D01*
Y26853D01*
X82872D01*
Y26952D01*
X83170D01*
Y27052D01*
X85559D01*
Y26952D01*
D02*
G37*
G36*
X95215Y25359D02*
Y25260D01*
Y19685D01*
X93324D01*
Y24264D01*
X93225D01*
Y24065D01*
X93125D01*
Y23767D01*
X93025D01*
Y23567D01*
X92926D01*
Y23368D01*
X92826D01*
Y23070D01*
X92727D01*
Y22871D01*
X92627D01*
Y22572D01*
X92528D01*
Y22373D01*
X92428D01*
Y22174D01*
X92329D01*
Y21875D01*
X92229D01*
Y21676D01*
X92129D01*
Y21477D01*
X92030D01*
Y21377D01*
X90835D01*
Y21477D01*
X90736D01*
Y21676D01*
X90636D01*
Y21975D01*
X90537D01*
Y22174D01*
X90437D01*
Y22373D01*
X90338D01*
Y22671D01*
X90238D01*
Y22871D01*
X90139D01*
Y23169D01*
X90039D01*
Y23368D01*
X89939D01*
Y23567D01*
X89840D01*
Y23866D01*
X89740D01*
Y24065D01*
X89641D01*
Y24264D01*
X89541D01*
Y19685D01*
X87849D01*
Y26952D01*
X89939D01*
Y26753D01*
X90039D01*
Y26554D01*
X90139D01*
Y26255D01*
X90238D01*
Y26056D01*
X90338D01*
Y25857D01*
X90437D01*
Y25658D01*
X90537D01*
Y25359D01*
X90636D01*
Y25160D01*
X90736D01*
Y24961D01*
X90835D01*
Y24762D01*
X90935D01*
Y24463D01*
X91035D01*
Y24264D01*
X91134D01*
Y24065D01*
X91234D01*
Y23866D01*
X91333D01*
Y23567D01*
X91433D01*
Y23368D01*
X91532D01*
Y23567D01*
X91632D01*
Y23767D01*
X91731D01*
Y23966D01*
X91831D01*
Y24264D01*
X91930D01*
Y24463D01*
X92030D01*
Y24663D01*
X92129D01*
Y24862D01*
X92229D01*
Y25160D01*
X92329D01*
Y25359D01*
X92428D01*
Y25558D01*
X92528D01*
Y25758D01*
X92627D01*
Y26056D01*
X92727D01*
Y26255D01*
X92826D01*
Y26454D01*
X92926D01*
Y26753D01*
X93025D01*
Y26952D01*
X95215D01*
Y25359D01*
D02*
G37*
G36*
X79686Y19685D02*
X77794D01*
Y24264D01*
X77695D01*
Y24065D01*
X77595D01*
Y23767D01*
X77496D01*
Y23567D01*
X77396D01*
Y23368D01*
X77297D01*
Y23070D01*
X77197D01*
Y22871D01*
X77098D01*
Y22572D01*
X76998D01*
Y22373D01*
X76898D01*
Y22174D01*
X76799D01*
Y21875D01*
X76699D01*
Y21676D01*
X76600D01*
Y21477D01*
X76500D01*
Y21377D01*
X75306D01*
Y21477D01*
X75206D01*
Y21676D01*
X75107D01*
Y21975D01*
X75007D01*
Y22174D01*
X74907D01*
Y22373D01*
X74808D01*
Y22671D01*
X74708D01*
Y22871D01*
X74609D01*
Y23169D01*
X74509D01*
Y23368D01*
X74410D01*
Y23567D01*
X74310D01*
Y23866D01*
X74211D01*
Y24065D01*
X74111D01*
Y24264D01*
X74012D01*
Y19685D01*
X72319D01*
Y26952D01*
X74410D01*
Y26753D01*
X74509D01*
Y26554D01*
X74609D01*
Y26255D01*
X74708D01*
Y26056D01*
X74808D01*
Y25857D01*
X74907D01*
Y25658D01*
X75007D01*
Y25359D01*
X75107D01*
Y25160D01*
X75206D01*
Y24961D01*
X75306D01*
Y24762D01*
X75405D01*
Y24463D01*
X75505D01*
Y24264D01*
X75604D01*
Y24065D01*
X75704D01*
Y23866D01*
X75804D01*
Y23567D01*
X75903D01*
Y23368D01*
X76003D01*
Y23567D01*
X76102D01*
Y23767D01*
X76202D01*
Y23966D01*
X76301D01*
Y24264D01*
X76401D01*
Y24463D01*
X76500D01*
Y24663D01*
X76600D01*
Y24862D01*
X76699D01*
Y25160D01*
X76799D01*
Y25359D01*
X76898D01*
Y25558D01*
X76998D01*
Y25758D01*
X77098D01*
Y26056D01*
X77197D01*
Y26255D01*
X77297D01*
Y26454D01*
X77396D01*
Y26753D01*
X77496D01*
Y26952D01*
X79686D01*
Y19685D01*
D02*
G37*
G36*
X125777Y26853D02*
X126175D01*
Y26753D01*
X126474D01*
Y26654D01*
X126673D01*
Y26554D01*
X126872D01*
Y26454D01*
X126972D01*
Y26355D01*
X127071D01*
Y26255D01*
X127171D01*
Y26156D01*
X127270D01*
Y26056D01*
X127370D01*
Y25857D01*
X127470D01*
Y25658D01*
X127569D01*
Y25061D01*
X127669D01*
Y24762D01*
X127569D01*
Y24165D01*
X127470D01*
Y23866D01*
X127370D01*
Y23767D01*
X127270D01*
Y23567D01*
X127171D01*
Y23468D01*
X127071D01*
Y23368D01*
X126972D01*
Y23269D01*
X126872D01*
Y23169D01*
X126773D01*
Y23070D01*
X126574D01*
Y22970D01*
X126474D01*
Y22871D01*
X126275D01*
Y22671D01*
X126374D01*
Y22572D01*
X126474D01*
Y22472D01*
X126574D01*
Y22273D01*
X126673D01*
Y22174D01*
X126773D01*
Y22074D01*
X126872D01*
Y21975D01*
X126972D01*
Y21776D01*
X127071D01*
Y21676D01*
X127171D01*
Y21576D01*
X127270D01*
Y21377D01*
X127370D01*
Y21278D01*
X127470D01*
Y21178D01*
X127569D01*
Y21079D01*
X127669D01*
Y20880D01*
X127768D01*
Y20780D01*
X127868D01*
Y20681D01*
X127967D01*
Y20581D01*
X128067D01*
Y20382D01*
X128166D01*
Y20282D01*
X128266D01*
Y20183D01*
X128365D01*
Y19984D01*
X128465D01*
Y19884D01*
X128565D01*
Y19785D01*
X128664D01*
Y19685D01*
X126474D01*
Y19785D01*
X126374D01*
Y19884D01*
X126275D01*
Y19984D01*
X126175D01*
Y20183D01*
X126076D01*
Y20282D01*
X125976D01*
Y20382D01*
X125877D01*
Y20581D01*
X125777D01*
Y20681D01*
X125678D01*
Y20780D01*
X125578D01*
Y20979D01*
X125478D01*
Y21079D01*
X125379D01*
Y21178D01*
X125279D01*
Y21377D01*
X125180D01*
Y21477D01*
X125080D01*
Y21576D01*
X124981D01*
Y21676D01*
X124881D01*
Y21875D01*
X124782D01*
Y21975D01*
X124682D01*
Y22074D01*
X124583D01*
Y22273D01*
X124483D01*
Y22373D01*
X123786D01*
Y19685D01*
X121994D01*
Y26952D01*
X125777D01*
Y26853D01*
D02*
G37*
G36*
X120700Y25558D02*
X117614D01*
Y24264D01*
X120501D01*
Y22871D01*
X117614D01*
Y21079D01*
X120700D01*
Y19685D01*
X115822D01*
Y21676D01*
Y21776D01*
Y26952D01*
X120700D01*
Y25558D01*
D02*
G37*
G36*
X115026D02*
X112935D01*
Y25459D01*
Y19685D01*
X111143D01*
Y25558D01*
X108953D01*
Y26952D01*
X115026D01*
Y25558D01*
D02*
G37*
G36*
X100293Y26753D02*
X100392D01*
Y26454D01*
X100492D01*
Y26156D01*
X100591D01*
Y25857D01*
X100691D01*
Y25558D01*
X100790D01*
Y25260D01*
X100890D01*
Y24961D01*
X100989D01*
Y24663D01*
X101089D01*
Y24364D01*
X101189D01*
Y24165D01*
X101288D01*
Y23866D01*
X101388D01*
Y23567D01*
X101487D01*
Y23269D01*
X101587D01*
Y22970D01*
X101686D01*
Y22671D01*
X101786D01*
Y22373D01*
X101885D01*
Y22074D01*
X101985D01*
Y21776D01*
X102084D01*
Y21477D01*
X102184D01*
Y21178D01*
X102284D01*
Y20880D01*
X102383D01*
Y20581D01*
X102483D01*
Y20282D01*
X102582D01*
Y19984D01*
X102682D01*
Y19685D01*
X100790D01*
Y20083D01*
X100691D01*
Y20382D01*
X100591D01*
Y20681D01*
X100492D01*
Y21079D01*
X100392D01*
Y21178D01*
X98102D01*
Y20979D01*
Y20880D01*
Y20780D01*
X98003D01*
Y20481D01*
X97903D01*
Y20183D01*
X97804D01*
Y19785D01*
X97704D01*
Y19685D01*
X95912D01*
Y19884D01*
X96012D01*
Y20183D01*
X96112D01*
Y20481D01*
X96211D01*
Y20780D01*
X96311D01*
Y21079D01*
X96410D01*
Y21377D01*
X96510D01*
Y21676D01*
X96609D01*
Y21975D01*
X96709D01*
Y22273D01*
X96808D01*
Y22572D01*
X96908D01*
Y22871D01*
X97007D01*
Y23169D01*
X97107D01*
Y23468D01*
X97206D01*
Y23767D01*
X97306D01*
Y24065D01*
X97406D01*
Y24364D01*
X97505D01*
Y24663D01*
X97605D01*
Y24961D01*
X97704D01*
Y25260D01*
X97804D01*
Y25558D01*
X97903D01*
Y25857D01*
X98003D01*
Y26156D01*
X98102D01*
Y26454D01*
X98202D01*
Y26753D01*
X98302D01*
Y26952D01*
X100293D01*
Y26753D01*
D02*
G37*
G36*
X74310Y17893D02*
X74808D01*
Y17794D01*
X75107D01*
Y17694D01*
X75306D01*
Y16997D01*
X75206D01*
Y17097D01*
X75007D01*
Y17196D01*
X74808D01*
Y17296D01*
X74609D01*
Y17395D01*
X74211D01*
Y17495D01*
X73215D01*
Y17395D01*
X73016D01*
Y17296D01*
X72817D01*
Y17196D01*
X72717D01*
Y16997D01*
X72618D01*
Y16400D01*
X72717D01*
Y16300D01*
X72817D01*
Y16201D01*
X72917D01*
Y16101D01*
X73116D01*
Y16002D01*
X73613D01*
Y15902D01*
X74211D01*
Y15803D01*
X74509D01*
Y15703D01*
X74808D01*
Y15604D01*
X75007D01*
Y15504D01*
X75107D01*
Y15404D01*
X75206D01*
Y15305D01*
X75306D01*
Y15106D01*
X75405D01*
Y14110D01*
X75306D01*
Y13911D01*
X75206D01*
Y13812D01*
X75107D01*
Y13712D01*
X75007D01*
Y13612D01*
X74907D01*
Y13513D01*
X74708D01*
Y13413D01*
X74509D01*
Y13314D01*
X74111D01*
Y13214D01*
X72917D01*
Y13314D01*
X72518D01*
Y13413D01*
X72220D01*
Y13513D01*
X72021D01*
Y13612D01*
X71921D01*
Y14309D01*
X72021D01*
Y14210D01*
X72220D01*
Y14110D01*
X72319D01*
Y14011D01*
X72518D01*
Y13911D01*
X72817D01*
Y13812D01*
X73116D01*
Y13712D01*
X74111D01*
Y13812D01*
X74410D01*
Y13911D01*
X74509D01*
Y14011D01*
X74609D01*
Y14110D01*
X74708D01*
Y14210D01*
X74808D01*
Y14807D01*
X74708D01*
Y15006D01*
X74609D01*
Y15106D01*
X74410D01*
Y15205D01*
X74012D01*
Y15305D01*
X73414D01*
Y15404D01*
X73016D01*
Y15504D01*
X72717D01*
Y15604D01*
X72518D01*
Y15703D01*
X72419D01*
Y15803D01*
X72220D01*
Y16002D01*
X72120D01*
Y16201D01*
X72021D01*
Y17196D01*
X72120D01*
Y17296D01*
X72220D01*
Y17495D01*
X72319D01*
Y17594D01*
X72518D01*
Y17694D01*
X72618D01*
Y17794D01*
X72817D01*
Y17893D01*
X73215D01*
Y17993D01*
X74310D01*
Y17893D01*
D02*
G37*
G36*
X124583D02*
X124981D01*
Y17794D01*
X125279D01*
Y17694D01*
X125578D01*
Y17594D01*
X125678D01*
Y16898D01*
X125578D01*
Y16997D01*
X125379D01*
Y17097D01*
X125279D01*
Y17196D01*
X125080D01*
Y17296D01*
X124881D01*
Y17395D01*
X124583D01*
Y17495D01*
X123587D01*
Y17395D01*
X123388D01*
Y17296D01*
X123189D01*
Y17196D01*
X123089D01*
Y17097D01*
X122990D01*
Y16997D01*
X122890D01*
Y16898D01*
X122791D01*
Y16699D01*
X122691D01*
Y16499D01*
X122592D01*
Y16201D01*
X122492D01*
Y15006D01*
X122592D01*
Y14708D01*
X122691D01*
Y14509D01*
X122791D01*
Y14309D01*
X122890D01*
Y14210D01*
X122990D01*
Y14110D01*
X123089D01*
Y14011D01*
X123189D01*
Y13911D01*
X123388D01*
Y13812D01*
X123587D01*
Y13712D01*
X124583D01*
Y13812D01*
X124881D01*
Y13911D01*
X125080D01*
Y14011D01*
X125279D01*
Y14110D01*
X125379D01*
Y14210D01*
X125578D01*
Y14309D01*
X125678D01*
Y13612D01*
X125478D01*
Y13513D01*
X125279D01*
Y13413D01*
X124981D01*
Y13314D01*
X124583D01*
Y13214D01*
X123587D01*
Y13314D01*
X123189D01*
Y13413D01*
X122890D01*
Y13513D01*
X122791D01*
Y13612D01*
X122592D01*
Y13712D01*
X122492D01*
Y13812D01*
X122392D01*
Y13911D01*
X122293D01*
Y14110D01*
X122193D01*
Y14309D01*
X122094D01*
Y14509D01*
X121994D01*
Y14807D01*
X121895D01*
Y16400D01*
X121994D01*
Y16699D01*
X122094D01*
Y16898D01*
X122193D01*
Y17097D01*
X122293D01*
Y17196D01*
X122392D01*
Y17296D01*
X122492D01*
Y17395D01*
X122592D01*
Y17495D01*
X122691D01*
Y17594D01*
X122791D01*
Y17694D01*
X122990D01*
Y17794D01*
X123189D01*
Y17893D01*
X123587D01*
Y17993D01*
X124583D01*
Y17893D01*
D02*
G37*
G36*
X129958Y13314D02*
X129361D01*
Y15604D01*
X127071D01*
Y13314D01*
X126474D01*
Y17893D01*
X127071D01*
Y16101D01*
X129361D01*
Y17893D01*
X129958D01*
Y13314D01*
D02*
G37*
G36*
X120899D02*
X120103D01*
Y13513D01*
X120003D01*
Y13712D01*
X119904D01*
Y13911D01*
X119804D01*
Y14110D01*
X119705D01*
Y14210D01*
X119605D01*
Y14409D01*
X119506D01*
Y14608D01*
X119406D01*
Y14807D01*
X119306D01*
Y15006D01*
X119207D01*
Y15205D01*
X119107D01*
Y15404D01*
X119008D01*
Y15604D01*
X118908D01*
Y15803D01*
X118809D01*
Y16002D01*
X118709D01*
Y16201D01*
X118610D01*
Y16300D01*
X118510D01*
Y16499D01*
X118411D01*
Y16699D01*
X118311D01*
Y16898D01*
X118211D01*
Y17097D01*
X118112D01*
Y17296D01*
X118012D01*
Y13314D01*
X117415D01*
Y16002D01*
Y16101D01*
Y17893D01*
X118411D01*
Y17694D01*
X118510D01*
Y17495D01*
X118610D01*
Y17395D01*
X118709D01*
Y17196D01*
X118809D01*
Y16997D01*
X118908D01*
Y16798D01*
X119008D01*
Y16599D01*
X119107D01*
Y16400D01*
X119207D01*
Y16201D01*
X119306D01*
Y16002D01*
X119406D01*
Y15803D01*
X119506D01*
Y15604D01*
X119605D01*
Y15404D01*
X119705D01*
Y15205D01*
X119804D01*
Y15106D01*
X119904D01*
Y14907D01*
X120003D01*
Y14708D01*
X120103D01*
Y14509D01*
X120202D01*
Y14309D01*
X120302D01*
Y17893D01*
X120899D01*
Y13314D01*
D02*
G37*
G36*
X97206D02*
X96410D01*
Y13513D01*
X96311D01*
Y13712D01*
X96211D01*
Y13911D01*
X96112D01*
Y14110D01*
X96012D01*
Y14210D01*
X95912D01*
Y14409D01*
X95813D01*
Y14608D01*
X95713D01*
Y14807D01*
X95614D01*
Y15006D01*
X95514D01*
Y15205D01*
X95415D01*
Y15404D01*
X95315D01*
Y15604D01*
X95215D01*
Y15803D01*
X95116D01*
Y16002D01*
X95016D01*
Y16201D01*
X94917D01*
Y16300D01*
X94817D01*
Y16499D01*
X94718D01*
Y16699D01*
X94618D01*
Y16898D01*
X94519D01*
Y17097D01*
X94419D01*
Y17296D01*
X94320D01*
Y13314D01*
X93722D01*
Y17893D01*
X94718D01*
Y17694D01*
X94817D01*
Y17495D01*
X94917D01*
Y17395D01*
X95016D01*
Y17196D01*
X95116D01*
Y16997D01*
X95215D01*
Y16798D01*
X95315D01*
Y16599D01*
X95415D01*
Y16400D01*
X95514D01*
Y16201D01*
X95614D01*
Y16002D01*
X95713D01*
Y15803D01*
X95813D01*
Y15604D01*
X95912D01*
Y15404D01*
X96012D01*
Y15205D01*
X96112D01*
Y15106D01*
X96211D01*
Y14907D01*
X96311D01*
Y14708D01*
X96410D01*
Y14509D01*
X96510D01*
Y14309D01*
X96609D01*
Y17893D01*
X97206D01*
Y13314D01*
D02*
G37*
G36*
X83767Y14807D02*
X83668D01*
Y14309D01*
X83568D01*
Y14011D01*
X83469D01*
Y13812D01*
X83369D01*
Y13712D01*
X83270D01*
Y13612D01*
X83170D01*
Y13513D01*
X82971D01*
Y13413D01*
X82772D01*
Y13314D01*
X82473D01*
Y13214D01*
X81478D01*
Y13314D01*
X81179D01*
Y13413D01*
X80980D01*
Y13513D01*
X80781D01*
Y13612D01*
X80681D01*
Y13712D01*
X80582D01*
Y13911D01*
X80482D01*
Y14011D01*
X80383D01*
Y14309D01*
X80283D01*
Y16201D01*
Y16300D01*
Y17893D01*
X80880D01*
Y14409D01*
X80980D01*
Y14210D01*
X81080D01*
Y14011D01*
X81179D01*
Y13911D01*
X81279D01*
Y13812D01*
X81577D01*
Y13712D01*
X82374D01*
Y13812D01*
X82672D01*
Y13911D01*
X82772D01*
Y14011D01*
X82872D01*
Y14110D01*
X82971D01*
Y14309D01*
X83071D01*
Y14807D01*
X83170D01*
Y17893D01*
X83767D01*
Y14807D01*
D02*
G37*
G36*
X115125Y17694D02*
X115225D01*
Y17395D01*
X115324D01*
Y17097D01*
X115424D01*
Y16798D01*
X115524D01*
Y16599D01*
X115623D01*
Y16300D01*
X115723D01*
Y16002D01*
X115822D01*
Y15703D01*
X115922D01*
Y15504D01*
X116021D01*
Y15205D01*
X116121D01*
Y14907D01*
X116220D01*
Y14608D01*
X116320D01*
Y14309D01*
X116419D01*
Y14110D01*
X116519D01*
Y13812D01*
X116619D01*
Y13513D01*
X116718D01*
Y13314D01*
X116121D01*
Y13413D01*
X116021D01*
Y13712D01*
X115922D01*
Y14011D01*
X115822D01*
Y14309D01*
X115723D01*
Y14608D01*
X113632D01*
Y14309D01*
X113533D01*
Y14011D01*
X113433D01*
Y13712D01*
X113333D01*
Y13612D01*
Y13413D01*
X113234D01*
Y13314D01*
X112637D01*
Y13513D01*
X112736D01*
Y13712D01*
X112836D01*
Y14011D01*
X112935D01*
Y14309D01*
X113035D01*
Y14608D01*
X113134D01*
Y14807D01*
X113234D01*
Y15106D01*
X113333D01*
Y15404D01*
X113433D01*
Y15703D01*
X113533D01*
Y16002D01*
X113632D01*
Y16201D01*
X113732D01*
Y16499D01*
X113831D01*
Y16798D01*
X113931D01*
Y17097D01*
X114030D01*
Y17296D01*
X114130D01*
Y17594D01*
X114229D01*
Y17893D01*
X115125D01*
Y17694D01*
D02*
G37*
G36*
X110646Y17794D02*
X111044D01*
Y17694D01*
X111243D01*
Y17594D01*
X111343D01*
Y17495D01*
X111442D01*
Y17395D01*
X111542D01*
Y17296D01*
X111641D01*
Y17097D01*
X111741D01*
Y16101D01*
X111641D01*
Y15902D01*
X111542D01*
Y15803D01*
X111442D01*
Y15604D01*
X111343D01*
Y15504D01*
X111143D01*
Y15404D01*
X110944D01*
Y15305D01*
X110845D01*
Y15205D01*
X110944D01*
Y15106D01*
X111044D01*
Y15006D01*
X111143D01*
Y14907D01*
X111243D01*
Y14807D01*
X111343D01*
Y14608D01*
X111442D01*
Y14509D01*
X111542D01*
Y14409D01*
X111641D01*
Y14309D01*
X111741D01*
Y14210D01*
X111840D01*
Y14110D01*
X111940D01*
Y14011D01*
X112039D01*
Y13812D01*
X112139D01*
Y13712D01*
X112238D01*
Y13612D01*
X112338D01*
Y13513D01*
X112437D01*
Y13413D01*
X112537D01*
Y13314D01*
X111741D01*
Y13413D01*
X111641D01*
Y13513D01*
X111542D01*
Y13612D01*
X111442D01*
Y13712D01*
X111343D01*
Y13911D01*
X111243D01*
Y14011D01*
X111143D01*
Y14110D01*
X111044D01*
Y14210D01*
X110944D01*
Y14309D01*
X110845D01*
Y14409D01*
X110745D01*
Y14608D01*
X110646D01*
Y14708D01*
X110546D01*
Y14807D01*
X110447D01*
Y14907D01*
X110347D01*
Y15006D01*
X110248D01*
Y15106D01*
X109352D01*
Y14110D01*
Y14011D01*
Y13314D01*
X108754D01*
Y17893D01*
X110646D01*
Y17794D01*
D02*
G37*
G36*
X106664D02*
X106962D01*
Y17694D01*
X107161D01*
Y17594D01*
X107261D01*
Y17495D01*
X107360D01*
Y17395D01*
X107460D01*
Y17097D01*
X107560D01*
Y16699D01*
X107460D01*
Y16400D01*
X107360D01*
Y16300D01*
X107261D01*
Y16201D01*
X107161D01*
Y16101D01*
X107062D01*
Y16002D01*
X106962D01*
Y15902D01*
X107261D01*
Y15803D01*
X107460D01*
Y15703D01*
X107560D01*
Y15604D01*
X107659D01*
Y15504D01*
X107759D01*
Y15305D01*
X107858D01*
Y14907D01*
X107958D01*
Y14509D01*
X107858D01*
Y14210D01*
X107759D01*
Y14011D01*
X107659D01*
Y13812D01*
X107560D01*
Y13712D01*
X107360D01*
Y13612D01*
X107261D01*
Y13513D01*
X107062D01*
Y13413D01*
X106664D01*
Y13314D01*
X104474D01*
Y17893D01*
X106664D01*
Y17794D01*
D02*
G37*
G36*
X101686Y17395D02*
X100093D01*
Y13314D01*
X99496D01*
Y14509D01*
Y14608D01*
Y17395D01*
X97804D01*
Y17893D01*
X101686D01*
Y17395D01*
D02*
G37*
G36*
X92826D02*
X90338D01*
Y16101D01*
X92826D01*
Y15604D01*
X90338D01*
Y13812D01*
X92826D01*
Y13314D01*
X89740D01*
Y17893D01*
X92826D01*
Y17395D01*
D02*
G37*
G36*
X86853Y17794D02*
X87252D01*
Y17694D01*
X87550D01*
Y17594D01*
X87749D01*
Y17495D01*
X87949D01*
Y17395D01*
X88048D01*
Y17296D01*
X88148D01*
Y17196D01*
X88247D01*
Y17097D01*
X88347D01*
Y16997D01*
X88446D01*
Y16798D01*
X88546D01*
Y16599D01*
X88645D01*
Y16300D01*
X88745D01*
Y14907D01*
X88645D01*
Y14608D01*
X88546D01*
Y14409D01*
X88446D01*
Y14309D01*
X88347D01*
Y14110D01*
X88247D01*
Y14011D01*
X88148D01*
Y13911D01*
X88048D01*
Y13812D01*
X87849D01*
Y13712D01*
X87749D01*
Y13612D01*
X87550D01*
Y13513D01*
X87252D01*
Y13413D01*
X86853D01*
Y13314D01*
X84862D01*
Y17594D01*
Y17694D01*
Y17893D01*
X86853D01*
Y17794D01*
D02*
G37*
G36*
X79686Y17395D02*
X78093D01*
Y13314D01*
X77496D01*
Y17395D01*
X75804D01*
Y17893D01*
X79686D01*
Y17395D01*
D02*
G37*
G36*
X82075Y11423D02*
X82573D01*
Y11323D01*
X82872D01*
Y11223D01*
X83071D01*
Y10526D01*
X82971D01*
Y10626D01*
X82772D01*
Y10726D01*
X82573D01*
Y10825D01*
X82374D01*
Y10925D01*
X81976D01*
Y11024D01*
X80980D01*
Y10925D01*
X80781D01*
Y10825D01*
X80582D01*
Y10726D01*
X80482D01*
Y10526D01*
X80383D01*
Y9929D01*
X80482D01*
Y9830D01*
X80582D01*
Y9730D01*
X80681D01*
Y9631D01*
X80880D01*
Y9531D01*
X81378D01*
Y9431D01*
X81976D01*
Y9332D01*
X82274D01*
Y9232D01*
X82573D01*
Y9133D01*
X82772D01*
Y9033D01*
X82872D01*
Y8934D01*
X82971D01*
Y8834D01*
X83071D01*
Y8635D01*
X83170D01*
Y7640D01*
X83071D01*
Y7440D01*
X82971D01*
Y7341D01*
X82872D01*
Y7241D01*
X82772D01*
Y7142D01*
X82672D01*
Y7042D01*
X82473D01*
Y6943D01*
X82274D01*
Y6843D01*
X81876D01*
Y6744D01*
X80681D01*
Y6843D01*
X80283D01*
Y6943D01*
X79984D01*
Y7042D01*
X79785D01*
Y7142D01*
X79686D01*
Y7839D01*
X79785D01*
Y7739D01*
X79984D01*
Y7640D01*
X80084D01*
Y7540D01*
X80283D01*
Y7440D01*
X80582D01*
Y7341D01*
X80880D01*
Y7241D01*
X81876D01*
Y7341D01*
X82175D01*
Y7440D01*
X82274D01*
Y7540D01*
X82374D01*
Y7640D01*
X82473D01*
Y7739D01*
X82573D01*
Y8137D01*
Y8237D01*
Y8336D01*
X82473D01*
Y8535D01*
X82374D01*
Y8635D01*
X82175D01*
Y8735D01*
X81776D01*
Y8834D01*
X81179D01*
Y8934D01*
X80781D01*
Y9033D01*
X80482D01*
Y9133D01*
X80283D01*
Y9232D01*
X80184D01*
Y9332D01*
X79984D01*
Y9531D01*
X79885D01*
Y9730D01*
X79785D01*
Y10726D01*
X79885D01*
Y10825D01*
X79984D01*
Y11024D01*
X80084D01*
Y11124D01*
X80283D01*
Y11223D01*
X80383D01*
Y11323D01*
X80582D01*
Y11423D01*
X80980D01*
Y11522D01*
X82075D01*
Y11423D01*
D02*
G37*
G36*
X88844D02*
X89243D01*
Y11323D01*
X89541D01*
Y11223D01*
X89840D01*
Y11124D01*
X89939D01*
Y10427D01*
X89840D01*
Y10526D01*
X89641D01*
Y10626D01*
X89541D01*
Y10726D01*
X89342D01*
Y10825D01*
X89143D01*
Y10925D01*
X88844D01*
Y11024D01*
X87849D01*
Y10925D01*
X87650D01*
Y10825D01*
X87451D01*
Y10726D01*
X87351D01*
Y10626D01*
X87252D01*
Y10526D01*
X87152D01*
Y10427D01*
X87053D01*
Y10228D01*
X86953D01*
Y10029D01*
X86853D01*
Y9730D01*
X86754D01*
Y8535D01*
X86853D01*
Y8237D01*
X86953D01*
Y8038D01*
X87053D01*
Y7839D01*
X87152D01*
Y7739D01*
X87252D01*
Y7640D01*
X87351D01*
Y7540D01*
X87451D01*
Y7440D01*
X87650D01*
Y7341D01*
X87849D01*
Y7241D01*
X88844D01*
Y7341D01*
X89143D01*
Y7440D01*
X89342D01*
Y7540D01*
X89541D01*
Y7640D01*
X89641D01*
Y7739D01*
X89840D01*
Y7839D01*
X89939D01*
Y7142D01*
X89740D01*
Y7042D01*
X89541D01*
Y6943D01*
X89243D01*
Y6843D01*
X88844D01*
Y6744D01*
X87849D01*
Y6843D01*
X87451D01*
Y6943D01*
X87152D01*
Y7042D01*
X87053D01*
Y7142D01*
X86853D01*
Y7241D01*
X86754D01*
Y7341D01*
X86654D01*
Y7440D01*
X86555D01*
Y7640D01*
X86455D01*
Y7839D01*
X86356D01*
Y8038D01*
X86256D01*
Y8336D01*
X86157D01*
Y9929D01*
X86256D01*
Y10228D01*
X86356D01*
Y10427D01*
X86455D01*
Y10626D01*
X86555D01*
Y10726D01*
X86654D01*
Y10825D01*
X86754D01*
Y10925D01*
X86853D01*
Y11024D01*
X86953D01*
Y11124D01*
X87053D01*
Y11223D01*
X87252D01*
Y11323D01*
X87451D01*
Y11423D01*
X87849D01*
Y11522D01*
X88844D01*
Y11423D01*
D02*
G37*
G36*
X94220Y6843D02*
X93623D01*
Y9133D01*
X91333D01*
Y6843D01*
X90736D01*
Y11423D01*
X91333D01*
Y9631D01*
X93623D01*
Y11423D01*
X94220D01*
Y6843D01*
D02*
G37*
G36*
X113234Y11323D02*
X113632D01*
Y11223D01*
X113831D01*
Y11124D01*
X113931D01*
Y11024D01*
X114030D01*
Y10925D01*
X114130D01*
Y10825D01*
X114229D01*
Y10626D01*
X114329D01*
Y9631D01*
X114229D01*
Y9431D01*
X114130D01*
Y9332D01*
X114030D01*
Y9133D01*
X113931D01*
Y9033D01*
X113732D01*
Y8934D01*
X113533D01*
Y8834D01*
X113433D01*
Y8735D01*
X113533D01*
Y8635D01*
X113632D01*
Y8535D01*
X113732D01*
Y8436D01*
X113831D01*
Y8336D01*
X113931D01*
Y8137D01*
X114030D01*
Y8038D01*
X114130D01*
Y7938D01*
X114229D01*
Y7839D01*
X114329D01*
Y7739D01*
X114428D01*
Y7640D01*
X114528D01*
Y7540D01*
X114628D01*
Y7341D01*
X114727D01*
Y7241D01*
X114827D01*
Y7142D01*
X114926D01*
Y7042D01*
X115026D01*
Y6943D01*
X115125D01*
Y6843D01*
X114329D01*
Y6943D01*
X114229D01*
Y7042D01*
X114130D01*
Y7142D01*
X114030D01*
Y7241D01*
X113931D01*
Y7440D01*
X113831D01*
Y7540D01*
X113732D01*
Y7640D01*
X113632D01*
Y7739D01*
X113533D01*
Y7839D01*
X113433D01*
Y7938D01*
X113333D01*
Y8137D01*
X113234D01*
Y8237D01*
X113134D01*
Y8336D01*
X113035D01*
Y8436D01*
X112935D01*
Y8535D01*
X112836D01*
Y8635D01*
X111940D01*
Y6843D01*
X111343D01*
Y11423D01*
X113234D01*
Y11323D01*
D02*
G37*
G36*
X110447Y10925D02*
X107958D01*
Y9631D01*
X110447D01*
Y9133D01*
X107958D01*
Y7341D01*
X110447D01*
Y6843D01*
X107360D01*
Y11423D01*
X110447D01*
Y10925D01*
D02*
G37*
G36*
X106763D02*
X105171D01*
Y6843D01*
X104573D01*
Y10925D01*
X102881D01*
Y11423D01*
X106763D01*
Y10925D01*
D02*
G37*
G36*
X101487Y11323D02*
X101885D01*
Y11223D01*
X102084D01*
Y11124D01*
X102284D01*
Y11024D01*
X102383D01*
Y10925D01*
X102483D01*
Y10726D01*
X102582D01*
Y10526D01*
X102682D01*
Y9531D01*
X102582D01*
Y9332D01*
X102483D01*
Y9133D01*
X102383D01*
Y9033D01*
X102284D01*
Y8934D01*
X102184D01*
Y8834D01*
X101985D01*
Y8735D01*
X101786D01*
Y8635D01*
X101487D01*
Y8535D01*
X100293D01*
Y6843D01*
X99695D01*
Y11423D01*
X101487D01*
Y11323D01*
D02*
G37*
G36*
X97406Y11223D02*
X97505D01*
Y10925D01*
X97605D01*
Y10626D01*
X97704D01*
Y10327D01*
X97804D01*
Y10128D01*
X97903D01*
Y9830D01*
X98003D01*
Y9531D01*
X98102D01*
Y9232D01*
X98202D01*
Y9033D01*
X98302D01*
Y8735D01*
X98401D01*
Y8436D01*
X98501D01*
Y8137D01*
X98600D01*
Y7839D01*
X98700D01*
Y7640D01*
X98799D01*
Y7341D01*
X98899D01*
Y7042D01*
X98998D01*
Y6843D01*
X98401D01*
Y6943D01*
X98302D01*
Y7241D01*
X98202D01*
Y7540D01*
X98102D01*
Y7839D01*
X98003D01*
Y8137D01*
X95912D01*
Y7839D01*
X95813D01*
Y7540D01*
X95713D01*
Y7241D01*
X95614D01*
Y6943D01*
X95514D01*
Y6843D01*
X94917D01*
Y7042D01*
X95016D01*
Y7241D01*
X95116D01*
Y7540D01*
X95215D01*
Y7839D01*
X95315D01*
Y8137D01*
X95415D01*
Y8336D01*
X95514D01*
Y8635D01*
X95614D01*
Y8934D01*
X95713D01*
Y9232D01*
X95813D01*
Y9531D01*
X95912D01*
Y9730D01*
X96012D01*
Y10029D01*
X96112D01*
Y10327D01*
X96211D01*
Y10626D01*
X96311D01*
Y10825D01*
X96410D01*
Y11124D01*
X96510D01*
Y11423D01*
X97406D01*
Y11223D01*
D02*
G37*
G36*
X78989Y10925D02*
X76500D01*
Y9631D01*
X78989D01*
Y9133D01*
X76500D01*
Y7341D01*
X78989D01*
Y6843D01*
X75903D01*
Y11423D01*
X78989D01*
Y10925D01*
D02*
G37*
G36*
X73912Y11323D02*
X74310D01*
Y11223D01*
X74509D01*
Y11124D01*
X74708D01*
Y11024D01*
X74808D01*
Y10925D01*
X74907D01*
Y10726D01*
X75007D01*
Y10526D01*
X75107D01*
Y9531D01*
X75007D01*
Y9332D01*
X74907D01*
Y9133D01*
X74808D01*
Y9033D01*
X74708D01*
Y8934D01*
X74609D01*
Y8834D01*
X74410D01*
Y8735D01*
X74211D01*
Y8635D01*
X73912D01*
Y8535D01*
X72717D01*
Y6843D01*
X72120D01*
Y11423D01*
X73912D01*
Y11323D01*
D02*
G37*
%LPC*%
G36*
X125080Y25658D02*
X123786D01*
Y23667D01*
X124981D01*
Y23767D01*
X125279D01*
Y23866D01*
X125379D01*
Y23966D01*
X125478D01*
Y24065D01*
X125578D01*
Y24165D01*
X125678D01*
Y24463D01*
X125777D01*
Y24961D01*
X125678D01*
Y25260D01*
X125578D01*
Y25359D01*
X125478D01*
Y25459D01*
X125379D01*
Y25558D01*
X125080D01*
Y25658D01*
D02*
G37*
G36*
X99297Y24762D02*
X99198D01*
Y24364D01*
X99098D01*
Y24065D01*
X98998D01*
Y23767D01*
X98899D01*
Y23468D01*
X98799D01*
Y23070D01*
X98700D01*
Y22771D01*
X98600D01*
Y22472D01*
X99994D01*
Y22671D01*
X99894D01*
Y22970D01*
X99795D01*
Y23368D01*
X99695D01*
Y23667D01*
X99596D01*
Y23966D01*
X99496D01*
Y24264D01*
X99397D01*
Y24663D01*
X99297D01*
Y24762D01*
D02*
G37*
G36*
X114727Y17296D02*
X114628D01*
Y17097D01*
X114528D01*
Y16798D01*
X114428D01*
Y16499D01*
X114329D01*
Y16300D01*
X114229D01*
Y16002D01*
X114130D01*
Y15703D01*
X114030D01*
Y15404D01*
X113931D01*
Y15205D01*
Y15106D01*
X115424D01*
Y15404D01*
X115324D01*
Y15703D01*
X115225D01*
Y16002D01*
X115125D01*
Y16201D01*
X115026D01*
Y16499D01*
X114926D01*
Y16798D01*
X114827D01*
Y17097D01*
X114727D01*
Y17296D01*
D02*
G37*
G36*
X110646Y17395D02*
X109352D01*
Y17296D01*
Y15604D01*
X110546D01*
Y15703D01*
X110745D01*
Y15803D01*
X110845D01*
Y15902D01*
X110944D01*
Y16002D01*
X111044D01*
Y16201D01*
X111143D01*
Y16898D01*
X111044D01*
Y17097D01*
X110944D01*
Y17196D01*
X110845D01*
Y17296D01*
X110646D01*
Y17395D01*
D02*
G37*
G36*
X106465D02*
X105071D01*
Y16101D01*
X106465D01*
Y16201D01*
X106664D01*
Y16300D01*
X106763D01*
Y16400D01*
X106863D01*
Y17196D01*
X106763D01*
Y17296D01*
X106465D01*
Y17395D01*
D02*
G37*
G36*
X106664Y15604D02*
X105071D01*
Y13812D01*
X106564D01*
Y13911D01*
X106863D01*
Y14011D01*
X106962D01*
Y14110D01*
X107062D01*
Y14210D01*
X107161D01*
Y14309D01*
X107261D01*
Y14807D01*
Y14907D01*
Y15205D01*
X107161D01*
Y15305D01*
X107062D01*
Y15404D01*
X106962D01*
Y15504D01*
X106664D01*
Y15604D01*
D02*
G37*
G36*
X86754Y17395D02*
X85460D01*
Y13812D01*
X86754D01*
Y13911D01*
X87152D01*
Y14011D01*
X87351D01*
Y14110D01*
X87550D01*
Y14210D01*
X87650D01*
Y14309D01*
X87749D01*
Y14409D01*
X87849D01*
Y14608D01*
X87949D01*
Y14807D01*
X88048D01*
Y15106D01*
X88148D01*
Y16101D01*
X88048D01*
Y16400D01*
X87949D01*
Y16599D01*
X87849D01*
Y16798D01*
X87749D01*
Y16898D01*
X87650D01*
Y16997D01*
X87550D01*
Y17097D01*
X87351D01*
Y17196D01*
X87152D01*
Y17296D01*
X86754D01*
Y17395D01*
D02*
G37*
G36*
X113234Y10925D02*
X111940D01*
Y9133D01*
X113134D01*
Y9232D01*
X113333D01*
Y9332D01*
X113433D01*
Y9431D01*
X113533D01*
Y9531D01*
X113632D01*
Y9730D01*
X113732D01*
Y10427D01*
X113632D01*
Y10626D01*
X113533D01*
Y10726D01*
X113433D01*
Y10825D01*
X113234D01*
Y10925D01*
D02*
G37*
G36*
X101487D02*
X100293D01*
Y9033D01*
X101388D01*
Y9133D01*
X101587D01*
Y9232D01*
X101786D01*
Y9332D01*
X101885D01*
Y9531D01*
X101985D01*
Y9730D01*
X102084D01*
Y10327D01*
X101985D01*
Y10526D01*
X101885D01*
Y10626D01*
X101786D01*
Y10726D01*
X101686D01*
Y10825D01*
X101487D01*
Y10925D01*
D02*
G37*
G36*
X97007Y10825D02*
X96908D01*
Y10626D01*
X96808D01*
Y10327D01*
X96709D01*
Y10029D01*
X96609D01*
Y9830D01*
X96510D01*
Y9730D01*
Y9531D01*
X96410D01*
Y9232D01*
X96311D01*
Y8934D01*
X96211D01*
Y8635D01*
X97704D01*
Y8934D01*
X97605D01*
Y9232D01*
X97505D01*
Y9531D01*
X97406D01*
Y9730D01*
X97306D01*
Y10029D01*
X97206D01*
Y10327D01*
X97107D01*
Y10626D01*
X97007D01*
Y10825D01*
D02*
G37*
G36*
X73912Y10925D02*
X72717D01*
Y9033D01*
X73813D01*
Y9133D01*
X74012D01*
Y9232D01*
X74211D01*
Y9332D01*
X74310D01*
Y9531D01*
X74410D01*
Y9730D01*
X74509D01*
Y10327D01*
X74410D01*
Y10526D01*
X74310D01*
Y10626D01*
X74211D01*
Y10726D01*
X74111D01*
Y10825D01*
X73912D01*
Y10925D01*
D02*
G37*
%LPD*%
D10*
X132076Y78256D02*
G03*
X132076Y78256I-492J0D01*
G01*
D11*
X140157Y106102D02*
G03*
X140157Y106102I-278J0D01*
G01*
D12*
X56102Y59055D02*
G03*
X56102Y59055I-394J0D01*
G01*
X125974Y88098D02*
X128336D01*
X125974Y79437D02*
X128336D01*
X125974D02*
Y88098D01*
X128336Y79437D02*
Y88098D01*
D13*
X137714Y103347D02*
Y108858D01*
X126296Y103347D02*
X137714D01*
X126296D02*
Y108858D01*
X137714D01*
D14*
X68257Y112151D02*
Y116086D01*
X70225D01*
X70881Y115430D01*
Y114118D01*
X70225Y113462D01*
X68257D01*
X69569D02*
X70881Y112151D01*
X74817Y116086D02*
X72193D01*
Y114118D01*
X73505D01*
X72193D01*
Y112151D01*
X82689Y116086D02*
X80065D01*
Y114118D01*
X81377D01*
X80065D01*
Y112151D01*
X84000Y114774D02*
Y112151D01*
Y113462D01*
X84657Y114118D01*
X85312Y114774D01*
X85968D01*
X88592Y112151D02*
X89904D01*
X90560Y112806D01*
Y114118D01*
X89904Y114774D01*
X88592D01*
X87936Y114118D01*
Y112806D01*
X88592Y112151D01*
X91872D02*
Y114774D01*
X93840D01*
X94496Y114118D01*
Y112151D01*
X96464Y115430D02*
Y114774D01*
X95808D01*
X97120D01*
X96464D01*
Y112806D01*
X97120Y112151D01*
X105647Y116086D02*
X103023D01*
Y112151D01*
X105647D01*
X103023Y114118D02*
X104335D01*
X106959Y112151D02*
Y114774D01*
X108927D01*
X109583Y114118D01*
Y112151D01*
X113519Y116086D02*
Y112151D01*
X111551D01*
X110895Y112806D01*
Y114118D01*
X111551Y114774D01*
X113519D01*
X118766Y116086D02*
Y112151D01*
X120078Y113462D01*
X121390Y112151D01*
Y116086D01*
X123358Y112151D02*
X124670D01*
X125326Y112806D01*
Y114118D01*
X124670Y114774D01*
X123358D01*
X122702Y114118D01*
Y112806D01*
X123358Y112151D01*
X126638Y114774D02*
Y112151D01*
Y113462D01*
X127294Y114118D01*
X127950Y114774D01*
X128605D01*
X130573Y112151D02*
Y116086D01*
Y113462D02*
X132541Y114774D01*
X130573Y113462D02*
X132541Y112151D01*
X134509D02*
X136477D01*
X137133Y112806D01*
X136477Y113462D01*
X135165D01*
X134509Y114118D01*
X135165Y114774D01*
X137133D01*
X138445Y116086D02*
Y112151D01*
Y114118D01*
X139101Y114774D01*
X140413D01*
X141069Y114118D01*
Y112151D01*
X143037D02*
X144349D01*
X145004Y112806D01*
Y114118D01*
X144349Y114774D01*
X143037D01*
X142381Y114118D01*
Y112806D01*
X143037Y112151D01*
X146316Y110839D02*
Y114774D01*
X148284D01*
X148940Y114118D01*
Y112806D01*
X148284Y112151D01*
X146316D01*
X154188Y116086D02*
Y113462D01*
X155500Y112151D01*
X156812Y113462D01*
Y116086D01*
X160747Y112151D02*
X158124D01*
X160747Y114774D01*
Y115430D01*
X160091Y116086D01*
X158780D01*
X158124Y115430D01*
X162059Y112151D02*
Y112806D01*
X162715D01*
Y112151D01*
X162059D01*
X165339Y115430D02*
X165995Y116086D01*
X167307D01*
X167963Y115430D01*
Y112806D01*
X167307Y112151D01*
X165995D01*
X165339Y112806D01*
Y115430D01*
X122835Y100131D02*
X122179Y100787D01*
X120867D01*
X120211Y100131D01*
Y97507D01*
X120867Y96851D01*
X122179D01*
X122835Y97507D01*
X124147Y96851D02*
X125459D01*
X124802D01*
Y100787D01*
X124147Y100131D01*
X86800Y94136D02*
Y90856D01*
X87456Y90200D01*
X88768D01*
X89424Y90856D01*
Y94136D01*
X90736Y93480D02*
X91392Y94136D01*
X92704D01*
X93360Y93480D01*
Y92824D01*
X92704Y92168D01*
X92048D01*
X92704D01*
X93360Y91512D01*
Y90856D01*
X92704Y90200D01*
X91392D01*
X90736Y90856D01*
X121917Y76771D02*
Y73491D01*
X122573Y72835D01*
X123885D01*
X124541Y73491D01*
Y76771D01*
X128477Y72835D02*
X125853D01*
X128477Y75459D01*
Y76115D01*
X127821Y76771D01*
X126509D01*
X125853Y76115D01*
X159200Y77336D02*
Y74056D01*
X159856Y73400D01*
X161168D01*
X161824Y74056D01*
Y77336D01*
X163136Y73400D02*
X164448D01*
X163792D01*
Y77336D01*
X163136Y76680D01*
X103900Y104100D02*
Y108036D01*
X105868D01*
X106524Y107380D01*
Y106068D01*
X105868Y105412D01*
X103900D01*
X105212D02*
X106524Y104100D01*
X110460Y108036D02*
X109148Y107380D01*
X107836Y106068D01*
Y104756D01*
X108492Y104100D01*
X109804D01*
X110460Y104756D01*
Y105412D01*
X109804Y106068D01*
X107836D01*
X143700Y75000D02*
Y78936D01*
X145668D01*
X146324Y78280D01*
Y76968D01*
X145668Y76312D01*
X143700D01*
X145012D02*
X146324Y75000D01*
X150260Y78936D02*
X147636D01*
Y76968D01*
X148948Y77624D01*
X149604D01*
X150260Y76968D01*
Y75656D01*
X149604Y75000D01*
X148292D01*
X147636Y75656D01*
X150400Y44400D02*
X146464D01*
Y46368D01*
X147120Y47024D01*
X148432D01*
X149088Y46368D01*
Y44400D01*
Y45712D02*
X150400Y47024D01*
Y50304D02*
X146464D01*
X148432Y48336D01*
Y50960D01*
X136400Y44400D02*
X132464D01*
Y46368D01*
X133120Y47024D01*
X134432D01*
X135088Y46368D01*
Y44400D01*
Y45712D02*
X136400Y47024D01*
X133120Y48336D02*
X132464Y48992D01*
Y50304D01*
X133120Y50960D01*
X133776D01*
X134432Y50304D01*
Y49648D01*
Y50304D01*
X135088Y50960D01*
X135744D01*
X136400Y50304D01*
Y48992D01*
X135744Y48336D01*
X143306Y44358D02*
X139371D01*
Y46326D01*
X140027Y46982D01*
X141339D01*
X141995Y46326D01*
Y44358D01*
Y45670D02*
X143306Y46982D01*
Y50918D02*
Y48294D01*
X140683Y50918D01*
X140027D01*
X139371Y50262D01*
Y48950D01*
X140027Y48294D01*
X114300Y72600D02*
Y76536D01*
X116268D01*
X116924Y75880D01*
Y74568D01*
X116268Y73912D01*
X114300D01*
X115612D02*
X116924Y72600D01*
X118236D02*
X119548D01*
X118892D01*
Y76536D01*
X118236Y75880D01*
X72264Y70000D02*
X76200D01*
Y72624D01*
Y76560D02*
Y73936D01*
X73576Y76560D01*
X72920D01*
X72264Y75904D01*
Y74592D01*
X72920Y73936D01*
X137264Y90290D02*
X141200D01*
Y92913D01*
Y94225D02*
Y95537D01*
Y94881D01*
X137264D01*
X137920Y94225D01*
X53224Y41836D02*
X51912D01*
X52568D01*
Y38556D01*
X51912Y37900D01*
X51256D01*
X50600Y38556D01*
X54536Y37900D02*
X55848D01*
X55192D01*
Y41836D01*
X54536Y41180D01*
X143300Y108036D02*
Y104100D01*
X145268D01*
X145924Y104756D01*
Y107380D01*
X145268Y108036D01*
X143300D01*
X147236Y104100D02*
X148548D01*
X147892D01*
Y108036D01*
X147236Y107380D01*
X80120Y72624D02*
X79464Y71968D01*
Y70656D01*
X80120Y70000D01*
X82744D01*
X83400Y70656D01*
Y71968D01*
X82744Y72624D01*
X79464Y76560D02*
Y73936D01*
X81432D01*
X80776Y75248D01*
Y75904D01*
X81432Y76560D01*
X82744D01*
X83400Y75904D01*
Y74592D01*
X82744Y73936D01*
X109624Y89180D02*
X108968Y89836D01*
X107656D01*
X107000Y89180D01*
Y86556D01*
X107656Y85900D01*
X108968D01*
X109624Y86556D01*
X112904Y85900D02*
Y89836D01*
X110936Y87868D01*
X113560D01*
X145161Y92257D02*
X144506Y91602D01*
Y90290D01*
X145161Y89634D01*
X147785D01*
X148441Y90290D01*
Y91602D01*
X147785Y92257D01*
X145161Y93569D02*
X144506Y94225D01*
Y95537D01*
X145161Y96193D01*
X145817D01*
X146473Y95537D01*
Y94881D01*
Y95537D01*
X147129Y96193D01*
X147785D01*
X148441Y95537D01*
Y94225D01*
X147785Y93569D01*
X152642Y92257D02*
X151986Y91602D01*
Y90290D01*
X152642Y89634D01*
X155266D01*
X155922Y90290D01*
Y91602D01*
X155266Y92257D01*
X155922Y96193D02*
Y93569D01*
X153298Y96193D01*
X152642D01*
X151986Y95537D01*
Y94225D01*
X152642Y93569D01*
M02*
