G04*
G04 #@! TF.GenerationSoftware,Altium Limited,Altium Designer,24.9.1 (31)*
G04*
G04 Layer_Color=8421504*
%FSLAX25Y25*%
%MOIN*%
G70*
G04*
G04 #@! TF.SameCoordinates,21B9ACB0-0D47-4127-AC64-11D31CE697AE*
G04*
G04*
G04 #@! TF.FilePolarity,Positive*
G04*
G01*
G75*
%ADD15R,0.03347X0.01575*%
%ADD16R,0.03937X0.03740*%
%ADD17R,0.02008X0.02874*%
%ADD18R,0.02441X0.02598*%
%ADD19R,0.03150X0.03150*%
%ADD20R,0.02598X0.02441*%
%ADD21R,0.02874X0.02008*%
%ADD22R,0.03543X0.03347*%
%ADD23R,0.13780X0.05906*%
%ADD24R,0.06299X0.02559*%
%ADD25R,0.09252X0.02559*%
%ADD26R,0.03347X0.03543*%
D15*
X122726Y86327D02*
D03*
Y83768D02*
D03*
Y81209D02*
D03*
X131584Y86327D02*
D03*
Y83768D02*
D03*
Y81209D02*
D03*
D16*
X128543Y92913D02*
D03*
X122638D02*
D03*
D17*
X137428Y86327D02*
D03*
X141050D02*
D03*
D18*
X116902Y84673D02*
D03*
Y81209D02*
D03*
X146653Y82862D02*
D03*
Y86327D02*
D03*
X148442Y59161D02*
D03*
Y55697D02*
D03*
X134449Y59161D02*
D03*
Y55697D02*
D03*
D19*
X128855Y106102D02*
D03*
X135154D02*
D03*
D20*
X79665Y81209D02*
D03*
X83130D02*
D03*
X151828Y86327D02*
D03*
X155292D02*
D03*
X139803Y59161D02*
D03*
X143268D02*
D03*
X108504Y81209D02*
D03*
X111969D02*
D03*
D21*
X74213Y84831D02*
D03*
Y81209D02*
D03*
D22*
X138195Y73948D02*
D03*
Y80050D02*
D03*
D23*
X46260Y59055D02*
D03*
Y69685D02*
D03*
Y48425D02*
D03*
D24*
X101795Y81209D02*
D03*
Y85933D02*
D03*
X89787D02*
D03*
Y81209D02*
D03*
Y76484D02*
D03*
X174131Y86327D02*
D03*
Y91051D02*
D03*
X162123D02*
D03*
Y86327D02*
D03*
Y81602D02*
D03*
D25*
X100318Y76484D02*
D03*
X172654Y81602D02*
D03*
D26*
X121949Y106102D02*
D03*
X115847D02*
D03*
M02*
